<?xml version="1.0" encoding="UTF-8" standalone="no"?>
<!-- Created with Inkscape (http://www.inkscape.org/) -->

<svg
   xmlns:dc="http://purl.org/dc/elements/1.1/"
   xmlns:cc="http://creativecommons.org/ns#"
   xmlns:rdf="http://www.w3.org/1999/02/22-rdf-syntax-ns#"
   xmlns:svg="http://www.w3.org/2000/svg"
   xmlns="http://www.w3.org/2000/svg"
   xmlns:sodipodi="http://sodipodi.sourceforge.net/DTD/sodipodi-0.dtd"
   xmlns:inkscape="http://www.inkscape.org/namespaces/inkscape"
   version="1.1"
   id="svg5828"
   xml:space="preserve"
   width="1122.6667"
   height="793.33331"
   viewBox="0 0 1122.6667 793.33331"
   sodipodi:docname="3535.svg"
   inkscape:version="0.92.1 r"><metadata
     id="metadata5834"><rdf:RDF><cc:Work
         rdf:about=""><dc:format>image/svg+xml</dc:format><dc:type
           rdf:resource="http://purl.org/dc/dcmitype/StillImage" /><dc:title></dc:title></cc:Work></rdf:RDF></metadata><defs
     id="defs5832"><clipPath
       clipPathUnits="userSpaceOnUse"
       id="clipPath5854"><path
         d="M 165,165 H 13868 V 9752 H 165 Z"
         id="path5852"
         inkscape:connector-curvature="0"
         style="clip-rule:evenodd" /></clipPath><clipPath
       clipPathUnits="userSpaceOnUse"
       id="clipPath5872"><path
         d="M 165,165 H 13868 V 9752 H 165 Z"
         id="path5870"
         inkscape:connector-curvature="0"
         style="clip-rule:evenodd" /></clipPath><clipPath
       clipPathUnits="userSpaceOnUse"
       id="clipPath5878"><path
         d="M 4818,2958 H 9215 V 6722 H 4818 Z"
         id="path5876"
         inkscape:connector-curvature="0"
         style="clip-rule:evenodd" /></clipPath></defs><sodipodi:namedview
     pagecolor="#ffffff"
     bordercolor="#666666"
     borderopacity="1"
     objecttolerance="10"
     gridtolerance="10"
     guidetolerance="10"
     inkscape:pageopacity="0"
     inkscape:pageshadow="2"
     inkscape:window-width="1366"
     inkscape:window-height="768"
     id="namedview5830"
     showgrid="false"
     inkscape:zoom="1.1891486"
     inkscape:cx="708.96354"
     inkscape:cy="388.91845"
     inkscape:window-x="0"
     inkscape:window-y="0"
     inkscape:window-maximized="0"
     inkscape:current-layer="g5836" /><g
     id="g5836"
     inkscape:groupmode="layer"
     inkscape:label="pimoroni-optoelectronics"
     transform="matrix(1.3333333,0,0,-1.3333333,0,793.33333)"><g
       id="g5840"
       transform="matrix(0.06,0,0,-0.06,0,595)"><g
         id="g5842" /></g><g
       id="g5844"
       transform="matrix(0.06,0,0,-0.06,0,595)"><g
         id="g5846" /></g><g
       id="g5848"
       transform="matrix(0.06,0,0,-0.06,0,595)"><g
         clip-path="url(#clipPath5854)"
         id="g5850"><g
           id="g5856" /><g
           id="g5858"><g
             transform="translate(165,165)"
             id="g5860"><text
               id="text5864"
               style="font-variant:normal;font-weight:normal;font-size:167px;font-family:'Nimbus Sans';-inkscape-font-specification:NimbusSans-Regular;writing-mode:lr-tb;fill:#000000;fill-opacity:1;fill-rule:nonzero;stroke:none"
               transform="translate(0,9540)"><tspan
                 id="tspan5862"
                 sodipodi:role="line"
                 y="0"
                 x="0 92.84375 139.26562 232.10938 324.95312 371.375 464.21875 557.0625 603.48438 696.32812 742.75 835.59375 928.4375 974.85938 1086.2344 1225.3438 1271.7656 1318.1875 1364.6094 1462.125 1554.9688 1647.8125 1694.2344 1787.0781 1879.9219 1926.3438 1972.7656 2022.5156 2115.3594 2208.2031 2347.3125 2440.1562 2487.0781 2566.9062 2659.75 2696.8125 2752.4219 2804.3438 2924.75 3015.5938 3136.1562 3229 3266.0625 3358.9062 3451.75 3544.5938 3628.0938 3674.5156 3767.3594 3804.4219 3943.5312 4036.375 4090.9844 4183.8281 4276.6719 4313.7344 4369.3438 4462.1875 4554.5312 4598.9531 4691.7969 4783.9844 4821.0469 4913.8906 4998.7188 5044.3125 5098.9219 5191.7656 5284.6094 5321.6719 5406.8281 5488.6719 5535.0938 5572.1562 5665 5720.6094 5767.0312 5822.6406 5929.5156 6022.3594 6106.8594 6189.8594 6281.5469 6373.5625 6465.0781 6511.5 6557.9219 6650.7656 6762.1406 6886.0312 6941.6406 7034.4844 7127.3281 7220.1719 7313.0156">3/12/17	1:07	AM		f=20.00		/home/yair/Downloads/pimoroni-optoelectronics.lbr	(Package:	LED-3535)</tspan></text>
</g></g></g></g><g
       id="g5868"
       clip-path="url(#clipPath5872)"
       transform="matrix(0.06,0,0,-0.06,0,595)"><g
         id="g5874"
         clip-path="url(#clipPath5878)"><g
           id="g5880" /><g
           id="g5882"><path
             d="m 4914,5456 h 1134 v 756 H 4914 Z"
             style="fill:#800000;fill-opacity:1;fill-rule:nonzero;stroke:#800000;stroke-width:12.5;stroke-linecap:round;stroke-linejoin:round;stroke-miterlimit:10;stroke-dasharray:none;stroke-opacity:1"
             id="path5884"
             inkscape:connector-curvature="0" /><path
             d="m 4914,3804 h 1134 v 756 H 4914 Z"
             style="fill:#800000;fill-opacity:1;fill-rule:nonzero;stroke:#800000;stroke-width:12.5;stroke-linecap:round;stroke-linejoin:round;stroke-miterlimit:10;stroke-dasharray:none;stroke-opacity:1"
             id="path5886"
             inkscape:connector-curvature="0" /><path
             d="m 7984,3804 h 1134 v 756 H 7984 Z"
             style="fill:#800000;fill-opacity:1;fill-rule:nonzero;stroke:#800000;stroke-width:12.5;stroke-linecap:round;stroke-linejoin:round;stroke-miterlimit:10;stroke-dasharray:none;stroke-opacity:1"
             id="path5888"
             inkscape:connector-curvature="0" /><path
             d="m 7984,5456 h 1134 v 756 H 7984 Z"
             style="fill:#800000;fill-opacity:1;fill-rule:nonzero;stroke:#800000;stroke-width:12.5;stroke-linecap:round;stroke-linejoin:round;stroke-miterlimit:10;stroke-dasharray:none;stroke-opacity:1"
             id="path5890"
             inkscape:connector-curvature="0" /><path
             d="M 5363,3355 H 8669"
             style="fill:none;stroke:#808080;stroke-width:120;stroke-linecap:round;stroke-linejoin:round;stroke-miterlimit:10;stroke-dasharray:none;stroke-opacity:1"
             id="path5892"
             inkscape:connector-curvature="0" /><path
             d="M 8669,3355 V 6661"
             style="fill:none;stroke:#808080;stroke-width:120;stroke-linecap:round;stroke-linejoin:round;stroke-miterlimit:10;stroke-dasharray:none;stroke-opacity:1"
             id="path5894"
             inkscape:connector-curvature="0" /><path
             d="M 8669,6661 H 5363"
             style="fill:none;stroke:#808080;stroke-width:120;stroke-linecap:round;stroke-linejoin:round;stroke-miterlimit:10;stroke-dasharray:none;stroke-opacity:1"
             id="path5896"
             inkscape:connector-curvature="0" /><path
             d="M 5363,6661 V 3355"
             style="fill:none;stroke:#808080;stroke-width:120;stroke-linecap:round;stroke-linejoin:round;stroke-miterlimit:10;stroke-dasharray:none;stroke-opacity:1"
             id="path5898"
             inkscape:connector-curvature="0" /><path
             d="m 8352,5008 c 0,737.8524 -598.1476,1336 -1336,1336 -737.8524,0 -1336,-598.1476 -1336,-1336 0,-737.8524 598.1476,-1336 1336,-1336 737.8524,0 1336,598.1476 1336,1336 z"
             style="fill:none;stroke:#808080;stroke-width:120;stroke-linecap:round;stroke-linejoin:round;stroke-miterlimit:10;stroke-dasharray:none;stroke-opacity:1"
             id="path5900"
             inkscape:connector-curvature="0" /><path
             d="m 5203,3119 c 0,41.9736 -34.0264,76 -76,76 -41.9737,0 -76,-34.0264 -76,-76 0,-41.9736 34.0263,-76 76,-76 41.9736,0 76,34.0264 76,76 z"
             style="fill:none;stroke:#808080;stroke-width:171;stroke-linecap:round;stroke-linejoin:round;stroke-miterlimit:10;stroke-dasharray:none;stroke-opacity:1"
             id="path5902"
             inkscape:connector-curvature="0" /><path
             d="m 5792,3377 -431,432"
             style="fill:none;stroke:#808080;stroke-width:120;stroke-linecap:round;stroke-linejoin:round;stroke-miterlimit:10;stroke-dasharray:none;stroke-opacity:1"
             id="path5904"
             inkscape:connector-curvature="0" /></g></g></g><text
       xml:space="preserve"
       style="font-style:normal;font-weight:normal;font-size:30px;line-height:18.75px;font-family:sans-serif;letter-spacing:0px;word-spacing:0px;fill:#000000;fill-opacity:1;stroke:none;stroke-width:0.75px;stroke-linecap:butt;stroke-linejoin:miter;stroke-opacity:1"
       x="383.46765"
       y="-415.00281"
       id="text5949"
       transform="scale(1,-1)"><tspan
         sodipodi:role="line"
         id="tspan5947"
         x="383.46765"
         y="-415.00281"
         style="font-size:12px;stroke-width:0.75px">3.5 / 3.5mm</tspan></text>
<text
       xml:space="preserve"
       style="font-style:normal;font-weight:normal;font-size:30px;line-height:18.75px;font-family:sans-serif;letter-spacing:0px;word-spacing:0px;fill:#000000;fill-opacity:1;stroke:none;stroke-width:0.75px;stroke-linecap:butt;stroke-linejoin:miter;stroke-opacity:1"
       x="563.21808"
       y="-341.21054"
       id="text5953"
       transform="scale(1,-1)"><tspan
         sodipodi:role="line"
         id="tspan5951"
         x="563.21808"
         y="-341.21054"
         style="stroke-width:0.75px;font-size:13.00000032px">1.2/0.8 mm pad</tspan></text>
</g></svg>