G04 #@! TF.FileFunction,Legend,Bot*
%FSLAX46Y46*%
G04 Gerber Fmt 4.6, Leading zero omitted, Abs format (unit mm)*
G04 Created by KiCad (PCBNEW 4.0.7-e0-6372~58~ubuntu16.04.1) date Mon Jul 31 18:46:46 2017*
%MOMM*%
%LPD*%
G01*
G04 APERTURE LIST*
%ADD10C,0.100000*%
%ADD11C,0.010000*%
G04 APERTURE END LIST*
D10*
D11*
G36*
X86373167Y-90338667D02*
X86078688Y-90338667D01*
X86072469Y-90492125D01*
X86066250Y-90645584D01*
X85482731Y-90651203D01*
X85329613Y-90652169D01*
X85190476Y-90652072D01*
X85070896Y-90650996D01*
X84976447Y-90649022D01*
X84912707Y-90646233D01*
X84885251Y-90642711D01*
X84884773Y-90642384D01*
X84877508Y-90615345D01*
X84872322Y-90558311D01*
X84870334Y-90483606D01*
X84870334Y-90338667D01*
X86076834Y-90338667D01*
X86076834Y-89746000D01*
X86373167Y-89746000D01*
X86373167Y-90338667D01*
X86373167Y-90338667D01*
G37*
X86373167Y-90338667D02*
X86078688Y-90338667D01*
X86072469Y-90492125D01*
X86066250Y-90645584D01*
X85482731Y-90651203D01*
X85329613Y-90652169D01*
X85190476Y-90652072D01*
X85070896Y-90650996D01*
X84976447Y-90649022D01*
X84912707Y-90646233D01*
X84885251Y-90642711D01*
X84884773Y-90642384D01*
X84877508Y-90615345D01*
X84872322Y-90558311D01*
X84870334Y-90483606D01*
X84870334Y-90338667D01*
X86076834Y-90338667D01*
X86076834Y-89746000D01*
X86373167Y-89746000D01*
X86373167Y-90338667D01*
G36*
X85484167Y-90041171D02*
X84880917Y-90052917D01*
X84868399Y-90338667D01*
X84574000Y-90338667D01*
X84574000Y-89746000D01*
X85484167Y-89746000D01*
X85484167Y-90041171D01*
X85484167Y-90041171D01*
G37*
X85484167Y-90041171D02*
X84880917Y-90052917D01*
X84868399Y-90338667D01*
X84574000Y-90338667D01*
X84574000Y-89746000D01*
X85484167Y-89746000D01*
X85484167Y-90041171D01*
G36*
X87664334Y-90338667D02*
X88872688Y-90338667D01*
X88866469Y-90492125D01*
X88860250Y-90645584D01*
X87980299Y-90651104D01*
X87791266Y-90651954D01*
X87615473Y-90652097D01*
X87457410Y-90651576D01*
X87321568Y-90650437D01*
X87212438Y-90648723D01*
X87134511Y-90646479D01*
X87092277Y-90643749D01*
X87086007Y-90642285D01*
X87078792Y-90615300D01*
X87073642Y-90558307D01*
X87071667Y-90483624D01*
X87071667Y-90338667D01*
X87368000Y-90338667D01*
X87368000Y-90042334D01*
X87664334Y-90042334D01*
X87664334Y-90338667D01*
X87664334Y-90338667D01*
G37*
X87664334Y-90338667D02*
X88872688Y-90338667D01*
X88866469Y-90492125D01*
X88860250Y-90645584D01*
X87980299Y-90651104D01*
X87791266Y-90651954D01*
X87615473Y-90652097D01*
X87457410Y-90651576D01*
X87321568Y-90650437D01*
X87212438Y-90648723D01*
X87134511Y-90646479D01*
X87092277Y-90643749D01*
X87086007Y-90642285D01*
X87078792Y-90615300D01*
X87073642Y-90558307D01*
X87071667Y-90483624D01*
X87071667Y-90338667D01*
X87368000Y-90338667D01*
X87368000Y-90042334D01*
X87664334Y-90042334D01*
X87664334Y-90338667D01*
G36*
X88870834Y-90042334D02*
X87664334Y-90042334D01*
X87664334Y-89746000D01*
X88870834Y-89746000D01*
X88870834Y-90042334D01*
X88870834Y-90042334D01*
G37*
X88870834Y-90042334D02*
X87664334Y-90042334D01*
X87664334Y-89746000D01*
X88870834Y-89746000D01*
X88870834Y-90042334D01*
G36*
X91040417Y-89756584D02*
X91046676Y-89899459D01*
X91052934Y-90042334D01*
X91348496Y-90042334D01*
X91336750Y-90645584D01*
X90442459Y-90651105D01*
X89548167Y-90656626D01*
X89548167Y-90338667D01*
X90140834Y-90338667D01*
X90140834Y-90042334D01*
X90437167Y-90042334D01*
X90437167Y-90338667D01*
X91051000Y-90338667D01*
X91051000Y-90042334D01*
X90437167Y-90042334D01*
X90437167Y-89744838D01*
X91040417Y-89756584D01*
X91040417Y-89756584D01*
G37*
X91040417Y-89756584D02*
X91046676Y-89899459D01*
X91052934Y-90042334D01*
X91348496Y-90042334D01*
X91336750Y-90645584D01*
X90442459Y-90651105D01*
X89548167Y-90656626D01*
X89548167Y-90338667D01*
X90140834Y-90338667D01*
X90140834Y-90042334D01*
X90437167Y-90042334D01*
X90437167Y-90338667D01*
X91051000Y-90338667D01*
X91051000Y-90042334D01*
X90437167Y-90042334D01*
X90437167Y-89744838D01*
X91040417Y-89756584D01*
G36*
X90140834Y-90042334D02*
X89548167Y-90042334D01*
X89548167Y-89746000D01*
X90140834Y-89746000D01*
X90140834Y-90042334D01*
X90140834Y-90042334D01*
G37*
X90140834Y-90042334D02*
X89548167Y-90042334D01*
X89548167Y-89746000D01*
X90140834Y-89746000D01*
X90140834Y-90042334D01*
G36*
X93929667Y-90211667D02*
X93633334Y-90211667D01*
X93633334Y-90423334D01*
X93929667Y-90423334D01*
X93929667Y-90656167D01*
X93044195Y-90656167D01*
X92854562Y-90655840D01*
X92678169Y-90654906D01*
X92519489Y-90653436D01*
X92382997Y-90651499D01*
X92273169Y-90649166D01*
X92194479Y-90646507D01*
X92151402Y-90643592D01*
X92144611Y-90642056D01*
X92136335Y-90614204D01*
X92131258Y-90559397D01*
X92130500Y-90525639D01*
X92130500Y-90423334D01*
X93040667Y-90423334D01*
X93040667Y-90211667D01*
X92128288Y-90211667D01*
X92141084Y-89989417D01*
X93035375Y-89983895D01*
X93929667Y-89978374D01*
X93929667Y-90211667D01*
X93929667Y-90211667D01*
G37*
X93929667Y-90211667D02*
X93633334Y-90211667D01*
X93633334Y-90423334D01*
X93929667Y-90423334D01*
X93929667Y-90656167D01*
X93044195Y-90656167D01*
X92854562Y-90655840D01*
X92678169Y-90654906D01*
X92519489Y-90653436D01*
X92382997Y-90651499D01*
X92273169Y-90649166D01*
X92194479Y-90646507D01*
X92151402Y-90643592D01*
X92144611Y-90642056D01*
X92136335Y-90614204D01*
X92131258Y-90559397D01*
X92130500Y-90525639D01*
X92130500Y-90423334D01*
X93040667Y-90423334D01*
X93040667Y-90211667D01*
X92128288Y-90211667D01*
X92141084Y-89989417D01*
X93035375Y-89983895D01*
X93929667Y-89978374D01*
X93929667Y-90211667D01*
G36*
X96617834Y-90211667D02*
X96321500Y-90211667D01*
X96321500Y-90423334D01*
X96617834Y-90423334D01*
X96617834Y-90656167D01*
X94839834Y-90656167D01*
X94839834Y-90423334D01*
X95728834Y-90423334D01*
X95728834Y-90211667D01*
X94839834Y-90211667D01*
X94839834Y-89978834D01*
X96617834Y-89978834D01*
X96617834Y-90211667D01*
X96617834Y-90211667D01*
G37*
X96617834Y-90211667D02*
X96321500Y-90211667D01*
X96321500Y-90423334D01*
X96617834Y-90423334D01*
X96617834Y-90656167D01*
X94839834Y-90656167D01*
X94839834Y-90423334D01*
X95728834Y-90423334D01*
X95728834Y-90211667D01*
X94839834Y-90211667D01*
X94839834Y-89978834D01*
X96617834Y-89978834D01*
X96617834Y-90211667D01*
G36*
X97824334Y-90656167D02*
X97528000Y-90656167D01*
X97528000Y-90042334D01*
X97824334Y-90042334D01*
X97824334Y-90656167D01*
X97824334Y-90656167D01*
G37*
X97824334Y-90656167D02*
X97528000Y-90656167D01*
X97528000Y-90042334D01*
X97824334Y-90042334D01*
X97824334Y-90656167D01*
G36*
X99327167Y-90338667D02*
X99032688Y-90338667D01*
X99026469Y-90492125D01*
X99020250Y-90645584D01*
X98723917Y-90645584D01*
X98717698Y-90492125D01*
X98711479Y-90338667D01*
X98417000Y-90338667D01*
X98417000Y-90042334D01*
X98713334Y-90042334D01*
X98713334Y-90338667D01*
X99030834Y-90338667D01*
X99030834Y-89746000D01*
X99327167Y-89746000D01*
X99327167Y-90338667D01*
X99327167Y-90338667D01*
G37*
X99327167Y-90338667D02*
X99032688Y-90338667D01*
X99026469Y-90492125D01*
X99020250Y-90645584D01*
X98723917Y-90645584D01*
X98717698Y-90492125D01*
X98711479Y-90338667D01*
X98417000Y-90338667D01*
X98417000Y-90042334D01*
X98713334Y-90042334D01*
X98713334Y-90338667D01*
X99030834Y-90338667D01*
X99030834Y-89746000D01*
X99327167Y-89746000D01*
X99327167Y-90338667D01*
G36*
X98417000Y-90042334D02*
X97824334Y-90042334D01*
X97824334Y-89746000D01*
X98417000Y-89746000D01*
X98417000Y-90042334D01*
X98417000Y-90042334D01*
G37*
X98417000Y-90042334D02*
X97824334Y-90042334D01*
X97824334Y-89746000D01*
X98417000Y-89746000D01*
X98417000Y-90042334D01*
G36*
X93929667Y-89322667D02*
X93929667Y-89555500D01*
X93633334Y-89555500D01*
X93633334Y-89767167D01*
X92426834Y-89767167D01*
X92426834Y-89557434D01*
X92283959Y-89551176D01*
X92141084Y-89544917D01*
X92141084Y-89333250D01*
X92283959Y-89326991D01*
X92382679Y-89322667D01*
X92426834Y-89322667D01*
X92426834Y-89555500D01*
X93633334Y-89555500D01*
X93633334Y-89322667D01*
X92426834Y-89322667D01*
X92382679Y-89322667D01*
X92426834Y-89320733D01*
X92426834Y-89111000D01*
X93633334Y-89111000D01*
X93633334Y-89322667D01*
X93929667Y-89322667D01*
X93929667Y-89322667D01*
G37*
X93929667Y-89322667D02*
X93929667Y-89555500D01*
X93633334Y-89555500D01*
X93633334Y-89767167D01*
X92426834Y-89767167D01*
X92426834Y-89557434D01*
X92283959Y-89551176D01*
X92141084Y-89544917D01*
X92141084Y-89333250D01*
X92283959Y-89326991D01*
X92382679Y-89322667D01*
X92426834Y-89322667D01*
X92426834Y-89555500D01*
X93633334Y-89555500D01*
X93633334Y-89322667D01*
X92426834Y-89322667D01*
X92382679Y-89322667D01*
X92426834Y-89320733D01*
X92426834Y-89111000D01*
X93633334Y-89111000D01*
X93633334Y-89322667D01*
X93929667Y-89322667D01*
G36*
X95136167Y-89322667D02*
X96321500Y-89322667D01*
X96321500Y-89111000D01*
X96617834Y-89111000D01*
X96617834Y-89767167D01*
X96321500Y-89767167D01*
X96321500Y-89555500D01*
X95136167Y-89555500D01*
X95136167Y-89767167D01*
X94839834Y-89767167D01*
X94839834Y-89111000D01*
X95136167Y-89111000D01*
X95136167Y-89322667D01*
X95136167Y-89322667D01*
G37*
X95136167Y-89322667D02*
X96321500Y-89322667D01*
X96321500Y-89111000D01*
X96617834Y-89111000D01*
X96617834Y-89767167D01*
X96321500Y-89767167D01*
X96321500Y-89555500D01*
X95136167Y-89555500D01*
X95136167Y-89767167D01*
X94839834Y-89767167D01*
X94839834Y-89111000D01*
X95136167Y-89111000D01*
X95136167Y-89322667D01*
G36*
X86076834Y-88857000D02*
X86373167Y-88857000D01*
X86373167Y-89449667D01*
X84574000Y-89449667D01*
X84574000Y-89153334D01*
X86076834Y-89153334D01*
X86076834Y-88857542D01*
X85330709Y-88851979D01*
X84584584Y-88846417D01*
X84584584Y-88550084D01*
X85330709Y-88544521D01*
X86076834Y-88538959D01*
X86076834Y-88857000D01*
X86076834Y-88857000D01*
G37*
X86076834Y-88857000D02*
X86373167Y-88857000D01*
X86373167Y-89449667D01*
X84574000Y-89449667D01*
X84574000Y-89153334D01*
X86076834Y-89153334D01*
X86076834Y-88857542D01*
X85330709Y-88851979D01*
X84584584Y-88846417D01*
X84584584Y-88550084D01*
X85330709Y-88544521D01*
X86076834Y-88538959D01*
X86076834Y-88857000D01*
G36*
X88267584Y-88550084D02*
X88273456Y-88851709D01*
X88279329Y-89153334D01*
X87983768Y-89153334D01*
X87971250Y-89439084D01*
X87669625Y-89444956D01*
X87368000Y-89450829D01*
X87368000Y-89153334D01*
X87981834Y-89153334D01*
X87981834Y-88537566D01*
X88267584Y-88550084D01*
X88267584Y-88550084D01*
G37*
X88267584Y-88550084D02*
X88273456Y-88851709D01*
X88279329Y-89153334D01*
X87983768Y-89153334D01*
X87971250Y-89439084D01*
X87669625Y-89444956D01*
X87368000Y-89450829D01*
X87368000Y-89153334D01*
X87981834Y-89153334D01*
X87981834Y-88537566D01*
X88267584Y-88550084D01*
G36*
X87368000Y-89153334D02*
X87070505Y-89153334D01*
X87076377Y-88851709D01*
X87082250Y-88550084D01*
X87368000Y-88537566D01*
X87368000Y-89153334D01*
X87368000Y-89153334D01*
G37*
X87368000Y-89153334D02*
X87070505Y-89153334D01*
X87076377Y-88851709D01*
X87082250Y-88550084D01*
X87368000Y-88537566D01*
X87368000Y-89153334D01*
G36*
X89833917Y-88550084D02*
X89839790Y-88851709D01*
X89845662Y-89153334D01*
X90139671Y-89153334D01*
X90151417Y-88550084D01*
X90442459Y-88544195D01*
X90733500Y-88538306D01*
X90733500Y-89153334D01*
X90437167Y-89153334D01*
X90437167Y-89449667D01*
X89844500Y-89449667D01*
X89844500Y-89153334D01*
X89548167Y-89153334D01*
X89548167Y-88537566D01*
X89833917Y-88550084D01*
X89833917Y-88550084D01*
G37*
X89833917Y-88550084D02*
X89839790Y-88851709D01*
X89845662Y-89153334D01*
X90139671Y-89153334D01*
X90151417Y-88550084D01*
X90442459Y-88544195D01*
X90733500Y-88538306D01*
X90733500Y-89153334D01*
X90437167Y-89153334D01*
X90437167Y-89449667D01*
X89844500Y-89449667D01*
X89844500Y-89153334D01*
X89548167Y-89153334D01*
X89548167Y-88537566D01*
X89833917Y-88550084D01*
G36*
X99030834Y-89449667D02*
X97824334Y-89449667D01*
X97824334Y-89153334D01*
X99030834Y-89153334D01*
X99030834Y-89449667D01*
X99030834Y-89449667D01*
G37*
X99030834Y-89449667D02*
X97824334Y-89449667D01*
X97824334Y-89153334D01*
X99030834Y-89153334D01*
X99030834Y-89449667D01*
G36*
X97824334Y-89153334D02*
X97528000Y-89153334D01*
X97528000Y-88539500D01*
X97824334Y-88539500D01*
X97824334Y-89153334D01*
X97824334Y-89153334D01*
G37*
X97824334Y-89153334D02*
X97528000Y-89153334D01*
X97528000Y-88539500D01*
X97824334Y-88539500D01*
X97824334Y-89153334D01*
G36*
X99316584Y-88550084D02*
X99322456Y-88851709D01*
X99328329Y-89153334D01*
X99030834Y-89153334D01*
X99030834Y-88537566D01*
X99316584Y-88550084D01*
X99316584Y-88550084D01*
G37*
X99316584Y-88550084D02*
X99322456Y-88851709D01*
X99328329Y-89153334D01*
X99030834Y-89153334D01*
X99030834Y-88537566D01*
X99316584Y-88550084D01*
G36*
X93036481Y-88343709D02*
X93042879Y-88454834D01*
X93337000Y-88454834D01*
X93337000Y-88666500D01*
X93040667Y-88666500D01*
X93040667Y-88454834D01*
X92426834Y-88454834D01*
X92426834Y-88878167D01*
X92130500Y-88878167D01*
X92130500Y-88454834D01*
X92424621Y-88454834D01*
X92437417Y-88232584D01*
X93030084Y-88232584D01*
X93036481Y-88343709D01*
X93036481Y-88343709D01*
G37*
X93036481Y-88343709D02*
X93042879Y-88454834D01*
X93337000Y-88454834D01*
X93337000Y-88666500D01*
X93040667Y-88666500D01*
X93040667Y-88454834D01*
X92426834Y-88454834D01*
X92426834Y-88878167D01*
X92130500Y-88878167D01*
X92130500Y-88454834D01*
X92424621Y-88454834D01*
X92437417Y-88232584D01*
X93030084Y-88232584D01*
X93036481Y-88343709D01*
G36*
X93633334Y-88878167D02*
X93337000Y-88878167D01*
X93337000Y-88666500D01*
X93633334Y-88666500D01*
X93633334Y-88878167D01*
X93633334Y-88878167D01*
G37*
X93633334Y-88878167D02*
X93337000Y-88878167D01*
X93337000Y-88666500D01*
X93633334Y-88666500D01*
X93633334Y-88878167D01*
G36*
X93929667Y-88666500D02*
X93633334Y-88666500D01*
X93633334Y-88222000D01*
X93929667Y-88222000D01*
X93929667Y-88666500D01*
X93929667Y-88666500D01*
G37*
X93929667Y-88666500D02*
X93633334Y-88666500D01*
X93633334Y-88222000D01*
X93929667Y-88222000D01*
X93929667Y-88666500D01*
G36*
X96617834Y-88666500D02*
X96321500Y-88666500D01*
X96321500Y-88878167D01*
X96025167Y-88878167D01*
X96025167Y-88666500D01*
X96320019Y-88666500D01*
X96326051Y-88449542D01*
X96332084Y-88232584D01*
X96617834Y-88220066D01*
X96617834Y-88666500D01*
X96617834Y-88666500D01*
G37*
X96617834Y-88666500D02*
X96321500Y-88666500D01*
X96321500Y-88878167D01*
X96025167Y-88878167D01*
X96025167Y-88666500D01*
X96320019Y-88666500D01*
X96326051Y-88449542D01*
X96332084Y-88232584D01*
X96617834Y-88220066D01*
X96617834Y-88666500D01*
G36*
X95136167Y-88878167D02*
X94839834Y-88878167D01*
X94839834Y-88454834D01*
X95136167Y-88454834D01*
X95136167Y-88878167D01*
X95136167Y-88878167D01*
G37*
X95136167Y-88878167D02*
X94839834Y-88878167D01*
X94839834Y-88454834D01*
X95136167Y-88454834D01*
X95136167Y-88878167D01*
G36*
X96025167Y-88666500D02*
X95728834Y-88666500D01*
X95728834Y-88454834D01*
X96025167Y-88454834D01*
X96025167Y-88666500D01*
X96025167Y-88666500D01*
G37*
X96025167Y-88666500D02*
X95728834Y-88666500D01*
X95728834Y-88454834D01*
X96025167Y-88454834D01*
X96025167Y-88666500D01*
G36*
X95728834Y-88454834D02*
X95136167Y-88454834D01*
X95136167Y-88222000D01*
X95728834Y-88222000D01*
X95728834Y-88454834D01*
X95728834Y-88454834D01*
G37*
X95728834Y-88454834D02*
X95136167Y-88454834D01*
X95136167Y-88222000D01*
X95728834Y-88222000D01*
X95728834Y-88454834D01*
G36*
X86373167Y-87650500D02*
X86373167Y-88243167D01*
X84574000Y-88243167D01*
X84574000Y-87650500D01*
X84870334Y-87650500D01*
X84870334Y-87946834D01*
X86076834Y-87946834D01*
X86076834Y-87650500D01*
X84870334Y-87650500D01*
X84870334Y-87354167D01*
X86076834Y-87354167D01*
X86076834Y-87650500D01*
X86373167Y-87650500D01*
X86373167Y-87650500D01*
G37*
X86373167Y-87650500D02*
X86373167Y-88243167D01*
X84574000Y-88243167D01*
X84574000Y-87650500D01*
X84870334Y-87650500D01*
X84870334Y-87946834D01*
X86076834Y-87946834D01*
X86076834Y-87650500D01*
X84870334Y-87650500D01*
X84870334Y-87354167D01*
X86076834Y-87354167D01*
X86076834Y-87650500D01*
X86373167Y-87650500D01*
G36*
X87981834Y-88243167D02*
X87368000Y-88243167D01*
X87368000Y-87946834D01*
X87981834Y-87946834D01*
X87981834Y-88243167D01*
X87981834Y-88243167D01*
G37*
X87981834Y-88243167D02*
X87368000Y-88243167D01*
X87368000Y-87946834D01*
X87981834Y-87946834D01*
X87981834Y-88243167D01*
G36*
X88278167Y-87946834D02*
X87981834Y-87946834D01*
X87981834Y-87354167D01*
X88278167Y-87354167D01*
X88278167Y-87946834D01*
X88278167Y-87946834D01*
G37*
X88278167Y-87946834D02*
X87981834Y-87946834D01*
X87981834Y-87354167D01*
X88278167Y-87354167D01*
X88278167Y-87946834D01*
G36*
X87368000Y-87946834D02*
X87071667Y-87946834D01*
X87071667Y-87354167D01*
X87368000Y-87354167D01*
X87368000Y-87946834D01*
X87368000Y-87946834D01*
G37*
X87368000Y-87946834D02*
X87071667Y-87946834D01*
X87071667Y-87354167D01*
X87368000Y-87354167D01*
X87368000Y-87946834D01*
G36*
X90140834Y-87650500D02*
X90437167Y-87650500D01*
X90437167Y-87354167D01*
X90733500Y-87354167D01*
X90733500Y-87946834D01*
X90437167Y-87946834D01*
X90437167Y-88243167D01*
X90140834Y-88243167D01*
X90140834Y-87946834D01*
X89844500Y-87946834D01*
X89844500Y-88243167D01*
X89548167Y-88243167D01*
X89548167Y-87650500D01*
X89844500Y-87650500D01*
X89844500Y-87354167D01*
X90140834Y-87354167D01*
X90140834Y-87650500D01*
X90140834Y-87650500D01*
G37*
X90140834Y-87650500D02*
X90437167Y-87650500D01*
X90437167Y-87354167D01*
X90733500Y-87354167D01*
X90733500Y-87946834D01*
X90437167Y-87946834D01*
X90437167Y-88243167D01*
X90140834Y-88243167D01*
X90140834Y-87946834D01*
X89844500Y-87946834D01*
X89844500Y-88243167D01*
X89548167Y-88243167D01*
X89548167Y-87650500D01*
X89844500Y-87650500D01*
X89844500Y-87354167D01*
X90140834Y-87354167D01*
X90140834Y-87650500D01*
G36*
X98713334Y-87946834D02*
X99327167Y-87946834D01*
X99327167Y-88243167D01*
X97528000Y-88243167D01*
X97528000Y-87946834D01*
X98417000Y-87946834D01*
X98417000Y-87650500D01*
X98713334Y-87650500D01*
X98713334Y-87946834D01*
X98713334Y-87946834D01*
G37*
X98713334Y-87946834D02*
X99327167Y-87946834D01*
X99327167Y-88243167D01*
X97528000Y-88243167D01*
X97528000Y-87946834D01*
X98417000Y-87946834D01*
X98417000Y-87650500D01*
X98713334Y-87650500D01*
X98713334Y-87946834D01*
G36*
X99327167Y-87650500D02*
X98713334Y-87650500D01*
X98713334Y-87354167D01*
X99327167Y-87354167D01*
X99327167Y-87650500D01*
X99327167Y-87650500D01*
G37*
X99327167Y-87650500D02*
X98713334Y-87650500D01*
X98713334Y-87354167D01*
X99327167Y-87354167D01*
X99327167Y-87650500D01*
G36*
X98417000Y-87650500D02*
X97528000Y-87650500D01*
X97528000Y-87354167D01*
X98417000Y-87354167D01*
X98417000Y-87650500D01*
X98417000Y-87650500D01*
G37*
X98417000Y-87650500D02*
X97528000Y-87650500D01*
X97528000Y-87354167D01*
X98417000Y-87354167D01*
X98417000Y-87650500D01*
G36*
X92426834Y-87565834D02*
X93633334Y-87565834D01*
X93633334Y-87354167D01*
X93929667Y-87354167D01*
X93929667Y-88010334D01*
X93633334Y-88010334D01*
X93633334Y-87798667D01*
X92426834Y-87798667D01*
X92426834Y-88010334D01*
X92130500Y-88010334D01*
X92130500Y-87354167D01*
X92426834Y-87354167D01*
X92426834Y-87565834D01*
X92426834Y-87565834D01*
G37*
X92426834Y-87565834D02*
X93633334Y-87565834D01*
X93633334Y-87354167D01*
X93929667Y-87354167D01*
X93929667Y-88010334D01*
X93633334Y-88010334D01*
X93633334Y-87798667D01*
X92426834Y-87798667D01*
X92426834Y-88010334D01*
X92130500Y-88010334D01*
X92130500Y-87354167D01*
X92426834Y-87354167D01*
X92426834Y-87565834D01*
G36*
X96617834Y-87565834D02*
X96617834Y-87798667D01*
X96321500Y-87798667D01*
X96321500Y-88010334D01*
X95136167Y-88010334D01*
X95136167Y-87798667D01*
X94839834Y-87798667D01*
X94839834Y-87565834D01*
X95136167Y-87565834D01*
X95136167Y-87798667D01*
X96321500Y-87798667D01*
X96321500Y-87565834D01*
X95136167Y-87565834D01*
X95136167Y-87354167D01*
X96321500Y-87354167D01*
X96321500Y-87565834D01*
X96617834Y-87565834D01*
X96617834Y-87565834D01*
G37*
X96617834Y-87565834D02*
X96617834Y-87798667D01*
X96321500Y-87798667D01*
X96321500Y-88010334D01*
X95136167Y-88010334D01*
X95136167Y-87798667D01*
X94839834Y-87798667D01*
X94839834Y-87565834D01*
X95136167Y-87565834D01*
X95136167Y-87798667D01*
X96321500Y-87798667D01*
X96321500Y-87565834D01*
X95136167Y-87565834D01*
X95136167Y-87354167D01*
X96321500Y-87354167D01*
X96321500Y-87565834D01*
X96617834Y-87565834D01*
G36*
X88595667Y-81575667D02*
X88595667Y-82189500D01*
X86795338Y-82189500D01*
X86807084Y-81586250D01*
X87047910Y-81575667D01*
X87092834Y-81575667D01*
X87092834Y-81720306D01*
X87094841Y-81795100D01*
X87100106Y-81852315D01*
X87107489Y-81879600D01*
X87107515Y-81879626D01*
X87132994Y-81884599D01*
X87192560Y-81887971D01*
X87277990Y-81889501D01*
X87381059Y-81888948D01*
X87409140Y-81888446D01*
X87696084Y-81882584D01*
X87702302Y-81729125D01*
X87708521Y-81575667D01*
X87092834Y-81575667D01*
X87047910Y-81575667D01*
X87090942Y-81573776D01*
X87097180Y-81431846D01*
X87103417Y-81289917D01*
X87696084Y-81289917D01*
X87702342Y-81432792D01*
X87708601Y-81575667D01*
X88003000Y-81575667D01*
X88003000Y-81893167D01*
X88299334Y-81893167D01*
X88299334Y-81575667D01*
X88003000Y-81575667D01*
X88003000Y-81279334D01*
X88299334Y-81279334D01*
X88299334Y-81575667D01*
X88595667Y-81575667D01*
X88595667Y-81575667D01*
G37*
X88595667Y-81575667D02*
X88595667Y-82189500D01*
X86795338Y-82189500D01*
X86807084Y-81586250D01*
X87047910Y-81575667D01*
X87092834Y-81575667D01*
X87092834Y-81720306D01*
X87094841Y-81795100D01*
X87100106Y-81852315D01*
X87107489Y-81879600D01*
X87107515Y-81879626D01*
X87132994Y-81884599D01*
X87192560Y-81887971D01*
X87277990Y-81889501D01*
X87381059Y-81888948D01*
X87409140Y-81888446D01*
X87696084Y-81882584D01*
X87702302Y-81729125D01*
X87708521Y-81575667D01*
X87092834Y-81575667D01*
X87047910Y-81575667D01*
X87090942Y-81573776D01*
X87097180Y-81431846D01*
X87103417Y-81289917D01*
X87696084Y-81289917D01*
X87702342Y-81432792D01*
X87708601Y-81575667D01*
X88003000Y-81575667D01*
X88003000Y-81893167D01*
X88299334Y-81893167D01*
X88299334Y-81575667D01*
X88003000Y-81575667D01*
X88003000Y-81279334D01*
X88299334Y-81279334D01*
X88299334Y-81575667D01*
X88595667Y-81575667D01*
G36*
X97136417Y-81882584D02*
X96982959Y-81888802D01*
X96829500Y-81895021D01*
X96829500Y-82189500D01*
X95644167Y-82189500D01*
X95644167Y-81893167D01*
X96828338Y-81893167D01*
X96840084Y-81289917D01*
X97136417Y-81289917D01*
X97136417Y-81882584D01*
X97136417Y-81882584D01*
G37*
X97136417Y-81882584D02*
X96982959Y-81888802D01*
X96829500Y-81895021D01*
X96829500Y-82189500D01*
X95644167Y-82189500D01*
X95644167Y-81893167D01*
X96828338Y-81893167D01*
X96840084Y-81289917D01*
X97136417Y-81289917D01*
X97136417Y-81882584D01*
G36*
X96236834Y-81575667D02*
X95644167Y-81575667D01*
X95644167Y-81893167D01*
X95347834Y-81893167D01*
X95347834Y-81279334D01*
X96236834Y-81279334D01*
X96236834Y-81575667D01*
X96236834Y-81575667D01*
G37*
X96236834Y-81575667D02*
X95644167Y-81575667D01*
X95644167Y-81893167D01*
X95347834Y-81893167D01*
X95347834Y-81279334D01*
X96236834Y-81279334D01*
X96236834Y-81575667D01*
G36*
X88595667Y-80390334D02*
X88595667Y-80686667D01*
X88299334Y-80686667D01*
X88299334Y-80983000D01*
X86796500Y-80983000D01*
X86796500Y-80686667D01*
X87410334Y-80686667D01*
X87410334Y-80390334D01*
X87706667Y-80390334D01*
X87706667Y-80686667D01*
X88299334Y-80686667D01*
X88299334Y-80390334D01*
X87706667Y-80390334D01*
X87410334Y-80390334D01*
X86796500Y-80390334D01*
X86796500Y-80094000D01*
X88299334Y-80094000D01*
X88299334Y-80390334D01*
X88595667Y-80390334D01*
X88595667Y-80390334D01*
G37*
X88595667Y-80390334D02*
X88595667Y-80686667D01*
X88299334Y-80686667D01*
X88299334Y-80983000D01*
X86796500Y-80983000D01*
X86796500Y-80686667D01*
X87410334Y-80686667D01*
X87410334Y-80390334D01*
X87706667Y-80390334D01*
X87706667Y-80686667D01*
X88299334Y-80686667D01*
X88299334Y-80390334D01*
X87706667Y-80390334D01*
X87410334Y-80390334D01*
X86796500Y-80390334D01*
X86796500Y-80094000D01*
X88299334Y-80094000D01*
X88299334Y-80390334D01*
X88595667Y-80390334D01*
G36*
X97147000Y-80983000D02*
X95347834Y-80983000D01*
X95347834Y-80686667D01*
X96829500Y-80686667D01*
X96829500Y-80390334D01*
X97147000Y-80390334D01*
X97147000Y-80983000D01*
X97147000Y-80983000D01*
G37*
X97147000Y-80983000D02*
X95347834Y-80983000D01*
X95347834Y-80686667D01*
X96829500Y-80686667D01*
X96829500Y-80390334D01*
X97147000Y-80390334D01*
X97147000Y-80983000D01*
G36*
X96829500Y-80390334D02*
X95347834Y-80390334D01*
X95347834Y-80094000D01*
X96829500Y-80094000D01*
X96829500Y-80390334D01*
X96829500Y-80390334D01*
G37*
X96829500Y-80390334D02*
X95347834Y-80390334D01*
X95347834Y-80094000D01*
X96829500Y-80094000D01*
X96829500Y-80390334D01*
G36*
X88595667Y-79797667D02*
X88299334Y-79797667D01*
X88299334Y-79480167D01*
X86796500Y-79480167D01*
X86796500Y-79183834D01*
X88299334Y-79183834D01*
X88299334Y-78887500D01*
X88595667Y-78887500D01*
X88595667Y-79797667D01*
X88595667Y-79797667D01*
G37*
X88595667Y-79797667D02*
X88299334Y-79797667D01*
X88299334Y-79480167D01*
X86796500Y-79480167D01*
X86796500Y-79183834D01*
X88299334Y-79183834D01*
X88299334Y-78887500D01*
X88595667Y-78887500D01*
X88595667Y-79797667D01*
G36*
X96829500Y-79181979D02*
X96982959Y-79188198D01*
X97136417Y-79194417D01*
X97136417Y-79787084D01*
X96242125Y-79792605D01*
X95347834Y-79798126D01*
X95347834Y-79183834D01*
X95644167Y-79183834D01*
X95644167Y-79480167D01*
X96829500Y-79480167D01*
X96829500Y-79183834D01*
X95644167Y-79183834D01*
X95644167Y-78887500D01*
X96829500Y-78887500D01*
X96829500Y-79181979D01*
X96829500Y-79181979D01*
G37*
X96829500Y-79181979D02*
X96982959Y-79188198D01*
X97136417Y-79194417D01*
X97136417Y-79787084D01*
X96242125Y-79792605D01*
X95347834Y-79798126D01*
X95347834Y-79183834D01*
X95644167Y-79183834D01*
X95644167Y-79480167D01*
X96829500Y-79480167D01*
X96829500Y-79183834D01*
X95644167Y-79183834D01*
X95644167Y-78887500D01*
X96829500Y-78887500D01*
X96829500Y-79181979D01*
G36*
X54856000Y-77363500D02*
X54263334Y-77363500D01*
X54263334Y-77067167D01*
X53945834Y-77067167D01*
X53945834Y-75881834D01*
X54263334Y-75881834D01*
X54263334Y-77067167D01*
X54559667Y-77067167D01*
X54559667Y-75881834D01*
X54263334Y-75881834D01*
X54263334Y-75564334D01*
X54856000Y-75564334D01*
X54856000Y-77363500D01*
X54856000Y-77363500D01*
G37*
X54856000Y-77363500D02*
X54263334Y-77363500D01*
X54263334Y-77067167D01*
X53945834Y-77067167D01*
X53945834Y-75881834D01*
X54263334Y-75881834D01*
X54263334Y-77067167D01*
X54559667Y-77067167D01*
X54559667Y-75881834D01*
X54263334Y-75881834D01*
X54263334Y-75564334D01*
X54856000Y-75564334D01*
X54856000Y-77363500D01*
G36*
X56041334Y-77363500D02*
X55745000Y-77363500D01*
X55745000Y-75881834D01*
X55448667Y-75881834D01*
X55448667Y-77363500D01*
X55152334Y-77363500D01*
X55152334Y-75881834D01*
X55446812Y-75881834D01*
X55453031Y-75728375D01*
X55459250Y-75574917D01*
X56041334Y-75563139D01*
X56041334Y-77363500D01*
X56041334Y-77363500D01*
G37*
X56041334Y-77363500D02*
X55745000Y-77363500D01*
X55745000Y-75881834D01*
X55448667Y-75881834D01*
X55448667Y-77363500D01*
X55152334Y-77363500D01*
X55152334Y-75881834D01*
X55446812Y-75881834D01*
X55453031Y-75728375D01*
X55459250Y-75574917D01*
X56041334Y-75563139D01*
X56041334Y-77363500D01*
G36*
X56655167Y-77067167D02*
X56951500Y-77067167D01*
X56951500Y-77363500D01*
X56358834Y-77363500D01*
X56358834Y-76474500D01*
X56655167Y-76474500D01*
X56655167Y-77067167D01*
X56655167Y-77067167D01*
G37*
X56655167Y-77067167D02*
X56951500Y-77067167D01*
X56951500Y-77363500D01*
X56358834Y-77363500D01*
X56358834Y-76474500D01*
X56655167Y-76474500D01*
X56655167Y-77067167D01*
G36*
X57247834Y-77067167D02*
X56951500Y-77067167D01*
X56951500Y-75881834D01*
X57247834Y-75881834D01*
X57247834Y-77067167D01*
X57247834Y-77067167D01*
G37*
X57247834Y-77067167D02*
X56951500Y-77067167D01*
X56951500Y-75881834D01*
X57247834Y-75881834D01*
X57247834Y-77067167D01*
G36*
X56951500Y-75881834D02*
X56358834Y-75881834D01*
X56358834Y-75564334D01*
X56951500Y-75564334D01*
X56951500Y-75881834D01*
X56951500Y-75881834D01*
G37*
X56951500Y-75881834D02*
X56358834Y-75881834D01*
X56358834Y-75564334D01*
X56951500Y-75564334D01*
X56951500Y-75881834D01*
G36*
X127542334Y-77363500D02*
X126949667Y-77363500D01*
X126949667Y-77067167D01*
X126653334Y-77067167D01*
X126653334Y-75881834D01*
X126949667Y-75881834D01*
X126949667Y-77067167D01*
X127246000Y-77067167D01*
X127246000Y-75881834D01*
X126949667Y-75881834D01*
X126949667Y-75564334D01*
X127542334Y-75564334D01*
X127542334Y-77363500D01*
X127542334Y-77363500D01*
G37*
X127542334Y-77363500D02*
X126949667Y-77363500D01*
X126949667Y-77067167D01*
X126653334Y-77067167D01*
X126653334Y-75881834D01*
X126949667Y-75881834D01*
X126949667Y-77067167D01*
X127246000Y-77067167D01*
X127246000Y-75881834D01*
X126949667Y-75881834D01*
X126949667Y-75564334D01*
X127542334Y-75564334D01*
X127542334Y-77363500D01*
G36*
X128743772Y-76469209D02*
X128749293Y-77363500D01*
X128452500Y-77363500D01*
X128452500Y-75881834D01*
X128135000Y-75881834D01*
X128135000Y-77363500D01*
X127838667Y-77363500D01*
X127838667Y-75881834D01*
X128133146Y-75881834D01*
X128139365Y-75728375D01*
X128145584Y-75574917D01*
X128738250Y-75574917D01*
X128743772Y-76469209D01*
X128743772Y-76469209D01*
G37*
X128743772Y-76469209D02*
X128749293Y-77363500D01*
X128452500Y-77363500D01*
X128452500Y-75881834D01*
X128135000Y-75881834D01*
X128135000Y-77363500D01*
X127838667Y-77363500D01*
X127838667Y-75881834D01*
X128133146Y-75881834D01*
X128139365Y-75728375D01*
X128145584Y-75574917D01*
X128738250Y-75574917D01*
X128743772Y-76469209D01*
G36*
X129341500Y-77067167D02*
X129637834Y-77067167D01*
X129637834Y-77363500D01*
X129045167Y-77363500D01*
X129045167Y-76474500D01*
X129341500Y-76474500D01*
X129341500Y-77067167D01*
X129341500Y-77067167D01*
G37*
X129341500Y-77067167D02*
X129637834Y-77067167D01*
X129637834Y-77363500D01*
X129045167Y-77363500D01*
X129045167Y-76474500D01*
X129341500Y-76474500D01*
X129341500Y-77067167D01*
G36*
X129934167Y-77067167D02*
X129637834Y-77067167D01*
X129637834Y-75881834D01*
X129934167Y-75881834D01*
X129934167Y-77067167D01*
X129934167Y-77067167D01*
G37*
X129934167Y-77067167D02*
X129637834Y-77067167D01*
X129637834Y-75881834D01*
X129934167Y-75881834D01*
X129934167Y-77067167D01*
G36*
X129637834Y-75881834D02*
X129045167Y-75881834D01*
X129045167Y-75564334D01*
X129637834Y-75564334D01*
X129637834Y-75881834D01*
X129637834Y-75881834D01*
G37*
X129637834Y-75881834D02*
X129045167Y-75881834D01*
X129045167Y-75564334D01*
X129637834Y-75564334D01*
X129637834Y-75881834D01*
G36*
X48908167Y-76622667D02*
X47151334Y-76622667D01*
X47151334Y-76262834D01*
X48908167Y-76262834D01*
X48908167Y-76622667D01*
X48908167Y-76622667D01*
G37*
X48908167Y-76622667D02*
X47151334Y-76622667D01*
X47151334Y-76262834D01*
X48908167Y-76262834D01*
X48908167Y-76622667D01*
G36*
X136707500Y-76622667D02*
X134929500Y-76622667D01*
X134929500Y-76262834D01*
X136707500Y-76262834D01*
X136707500Y-76622667D01*
X136707500Y-76622667D01*
G37*
X136707500Y-76622667D02*
X134929500Y-76622667D01*
X134929500Y-76262834D01*
X136707500Y-76262834D01*
X136707500Y-76622667D01*
G36*
X87050500Y-75056334D02*
X86288500Y-75056334D01*
X86288500Y-74865834D01*
X87050500Y-74865834D01*
X87050500Y-75056334D01*
X87050500Y-75056334D01*
G37*
X87050500Y-75056334D02*
X86288500Y-75056334D01*
X86288500Y-74865834D01*
X87050500Y-74865834D01*
X87050500Y-75056334D01*
G36*
X87241000Y-74865834D02*
X87050500Y-74865834D01*
X87050500Y-74484834D01*
X87241000Y-74484834D01*
X87241000Y-74865834D01*
X87241000Y-74865834D01*
G37*
X87241000Y-74865834D02*
X87050500Y-74865834D01*
X87050500Y-74484834D01*
X87241000Y-74484834D01*
X87241000Y-74865834D01*
G36*
X86669500Y-74675334D02*
X86288500Y-74675334D01*
X86288500Y-74865834D01*
X86098000Y-74865834D01*
X86098000Y-74484834D01*
X86669500Y-74484834D01*
X86669500Y-74675334D01*
X86669500Y-74675334D01*
G37*
X86669500Y-74675334D02*
X86288500Y-74675334D01*
X86288500Y-74865834D01*
X86098000Y-74865834D01*
X86098000Y-74484834D01*
X86669500Y-74484834D01*
X86669500Y-74675334D01*
G36*
X90860500Y-75056334D02*
X89717500Y-75056334D01*
X89717500Y-74865834D01*
X90670000Y-74865834D01*
X90670000Y-74675334D01*
X90860500Y-74675334D01*
X90860500Y-75056334D01*
X90860500Y-75056334D01*
G37*
X90860500Y-75056334D02*
X89717500Y-75056334D01*
X89717500Y-74865834D01*
X90670000Y-74865834D01*
X90670000Y-74675334D01*
X90860500Y-74675334D01*
X90860500Y-75056334D01*
G36*
X90670000Y-74675334D02*
X89717500Y-74675334D01*
X89717500Y-74484834D01*
X90670000Y-74484834D01*
X90670000Y-74675334D01*
X90670000Y-74675334D01*
G37*
X90670000Y-74675334D02*
X89717500Y-74675334D01*
X89717500Y-74484834D01*
X90670000Y-74484834D01*
X90670000Y-74675334D01*
G36*
X93696834Y-74864879D02*
X94083125Y-74870648D01*
X94469417Y-74876417D01*
X94475926Y-74966375D01*
X94482434Y-75056334D01*
X93315834Y-75056334D01*
X93315834Y-74865834D01*
X93506334Y-74865834D01*
X93506334Y-74675334D01*
X93696834Y-74675334D01*
X93696834Y-74864879D01*
X93696834Y-74864879D01*
G37*
X93696834Y-74864879D02*
X94083125Y-74870648D01*
X94469417Y-74876417D01*
X94475926Y-74966375D01*
X94482434Y-75056334D01*
X93315834Y-75056334D01*
X93315834Y-74865834D01*
X93506334Y-74865834D01*
X93506334Y-74675334D01*
X93696834Y-74675334D01*
X93696834Y-74864879D01*
G36*
X94480000Y-74675334D02*
X93696834Y-74675334D01*
X93696834Y-74484834D01*
X94480000Y-74484834D01*
X94480000Y-74675334D01*
X94480000Y-74675334D01*
G37*
X94480000Y-74675334D02*
X93696834Y-74675334D01*
X93696834Y-74484834D01*
X94480000Y-74484834D01*
X94480000Y-74675334D01*
G36*
X48125000Y-73828667D02*
X48844667Y-73828667D01*
X48844667Y-74188500D01*
X48125000Y-74188500D01*
X48125000Y-74887000D01*
X47765167Y-74887000D01*
X47765167Y-74188500D01*
X47087834Y-74188500D01*
X47087834Y-73828667D01*
X47765167Y-73828667D01*
X47765167Y-73087834D01*
X48125000Y-73087834D01*
X48125000Y-73828667D01*
X48125000Y-73828667D01*
G37*
X48125000Y-73828667D02*
X48844667Y-73828667D01*
X48844667Y-74188500D01*
X48125000Y-74188500D01*
X48125000Y-74887000D01*
X47765167Y-74887000D01*
X47765167Y-74188500D01*
X47087834Y-74188500D01*
X47087834Y-73828667D01*
X47765167Y-73828667D01*
X47765167Y-73087834D01*
X48125000Y-73087834D01*
X48125000Y-73828667D01*
G36*
X136087237Y-73278334D02*
X136089454Y-73392509D01*
X136091340Y-73521817D01*
X136092501Y-73639059D01*
X136092529Y-73643459D01*
X136093667Y-73828667D01*
X136771000Y-73828667D01*
X136771000Y-74188500D01*
X136093667Y-74188500D01*
X136092222Y-74363125D01*
X136091873Y-74477378D01*
X136092374Y-74605198D01*
X136093531Y-74712375D01*
X136096284Y-74887000D01*
X135710049Y-74887000D01*
X135712803Y-74712375D01*
X135714008Y-74598122D01*
X135714465Y-74470302D01*
X135714112Y-74363125D01*
X135712667Y-74188500D01*
X135014167Y-74188500D01*
X135014167Y-73828667D01*
X135712667Y-73828667D01*
X135713805Y-73643459D01*
X135714925Y-73527357D01*
X135716788Y-73398008D01*
X135718999Y-73282610D01*
X135719097Y-73278334D01*
X135723250Y-73098417D01*
X136083084Y-73098417D01*
X136087237Y-73278334D01*
X136087237Y-73278334D01*
G37*
X136087237Y-73278334D02*
X136089454Y-73392509D01*
X136091340Y-73521817D01*
X136092501Y-73639059D01*
X136092529Y-73643459D01*
X136093667Y-73828667D01*
X136771000Y-73828667D01*
X136771000Y-74188500D01*
X136093667Y-74188500D01*
X136092222Y-74363125D01*
X136091873Y-74477378D01*
X136092374Y-74605198D01*
X136093531Y-74712375D01*
X136096284Y-74887000D01*
X135710049Y-74887000D01*
X135712803Y-74712375D01*
X135714008Y-74598122D01*
X135714465Y-74470302D01*
X135714112Y-74363125D01*
X135712667Y-74188500D01*
X135014167Y-74188500D01*
X135014167Y-73828667D01*
X135712667Y-73828667D01*
X135713805Y-73643459D01*
X135714925Y-73527357D01*
X135716788Y-73398008D01*
X135718999Y-73282610D01*
X135719097Y-73278334D01*
X135723250Y-73098417D01*
X136083084Y-73098417D01*
X136087237Y-73278334D01*
G36*
X54559667Y-74865834D02*
X54266861Y-74865834D01*
X54159539Y-74864865D01*
X54067779Y-74862207D01*
X53999698Y-74858233D01*
X53963409Y-74853317D01*
X53959945Y-74851722D01*
X53952600Y-74824654D01*
X53947496Y-74768154D01*
X53945834Y-74703556D01*
X53945834Y-74569500D01*
X54559667Y-74569500D01*
X54559667Y-74865834D01*
X54559667Y-74865834D01*
G37*
X54559667Y-74865834D02*
X54266861Y-74865834D01*
X54159539Y-74864865D01*
X54067779Y-74862207D01*
X53999698Y-74858233D01*
X53963409Y-74853317D01*
X53959945Y-74851722D01*
X53952600Y-74824654D01*
X53947496Y-74768154D01*
X53945834Y-74703556D01*
X53945834Y-74569500D01*
X54559667Y-74569500D01*
X54559667Y-74865834D01*
G36*
X54856000Y-74569500D02*
X54559667Y-74569500D01*
X54559667Y-73955667D01*
X54856000Y-73955667D01*
X54856000Y-74569500D01*
X54856000Y-74569500D01*
G37*
X54856000Y-74569500D02*
X54559667Y-74569500D01*
X54559667Y-73955667D01*
X54856000Y-73955667D01*
X54856000Y-74569500D01*
G36*
X54559667Y-73955667D02*
X53943899Y-73955667D01*
X53956417Y-73669917D01*
X54559667Y-73658171D01*
X54559667Y-73955667D01*
X54559667Y-73955667D01*
G37*
X54559667Y-73955667D02*
X53943899Y-73955667D01*
X53956417Y-73669917D01*
X54559667Y-73658171D01*
X54559667Y-73955667D01*
G36*
X55745000Y-74865834D02*
X55152334Y-74865834D01*
X55152334Y-74569500D01*
X55745000Y-74569500D01*
X55745000Y-74865834D01*
X55745000Y-74865834D01*
G37*
X55745000Y-74865834D02*
X55152334Y-74865834D01*
X55152334Y-74569500D01*
X55745000Y-74569500D01*
X55745000Y-74865834D01*
G36*
X56041334Y-74569500D02*
X55745000Y-74569500D01*
X55745000Y-73955667D01*
X56041334Y-73955667D01*
X56041334Y-74569500D01*
X56041334Y-74569500D01*
G37*
X56041334Y-74569500D02*
X55745000Y-74569500D01*
X55745000Y-73955667D01*
X56041334Y-73955667D01*
X56041334Y-74569500D01*
G36*
X55745000Y-73955667D02*
X55152334Y-73955667D01*
X55152334Y-73659334D01*
X55745000Y-73659334D01*
X55745000Y-73955667D01*
X55745000Y-73955667D01*
G37*
X55745000Y-73955667D02*
X55152334Y-73955667D01*
X55152334Y-73659334D01*
X55745000Y-73659334D01*
X55745000Y-73955667D01*
G36*
X57247834Y-74865834D02*
X56951500Y-74865834D01*
X56951500Y-74569500D01*
X56655167Y-74569500D01*
X56655167Y-74252000D01*
X56951500Y-74252000D01*
X56951500Y-73066667D01*
X57247834Y-73066667D01*
X57247834Y-74865834D01*
X57247834Y-74865834D01*
G37*
X57247834Y-74865834D02*
X56951500Y-74865834D01*
X56951500Y-74569500D01*
X56655167Y-74569500D01*
X56655167Y-74252000D01*
X56951500Y-74252000D01*
X56951500Y-73066667D01*
X57247834Y-73066667D01*
X57247834Y-74865834D01*
G36*
X56655167Y-74252000D02*
X56358834Y-74252000D01*
X56358834Y-73066667D01*
X56655167Y-73066667D01*
X56655167Y-74252000D01*
X56655167Y-74252000D01*
G37*
X56655167Y-74252000D02*
X56358834Y-74252000D01*
X56358834Y-73066667D01*
X56655167Y-73066667D01*
X56655167Y-74252000D01*
G36*
X127203667Y-74865834D02*
X126611000Y-74865834D01*
X126611000Y-74569500D01*
X127203667Y-74569500D01*
X127203667Y-74865834D01*
X127203667Y-74865834D01*
G37*
X127203667Y-74865834D02*
X126611000Y-74865834D01*
X126611000Y-74569500D01*
X127203667Y-74569500D01*
X127203667Y-74865834D01*
G36*
X127500000Y-74569500D02*
X127203667Y-74569500D01*
X127203667Y-73955667D01*
X127500000Y-73955667D01*
X127500000Y-74569500D01*
X127500000Y-74569500D01*
G37*
X127500000Y-74569500D02*
X127203667Y-74569500D01*
X127203667Y-73955667D01*
X127500000Y-73955667D01*
X127500000Y-74569500D01*
G36*
X127203667Y-73955667D02*
X126611000Y-73955667D01*
X126611000Y-73659334D01*
X127203667Y-73659334D01*
X127203667Y-73955667D01*
X127203667Y-73955667D01*
G37*
X127203667Y-73955667D02*
X126611000Y-73955667D01*
X126611000Y-73659334D01*
X127203667Y-73659334D01*
X127203667Y-73955667D01*
G36*
X128701790Y-74257292D02*
X128695917Y-74558917D01*
X128553987Y-74565154D01*
X128412058Y-74571391D01*
X128405821Y-74713321D01*
X128399584Y-74855250D01*
X128112640Y-74861112D01*
X128006393Y-74862234D01*
X127915690Y-74861212D01*
X127848756Y-74858286D01*
X127813815Y-74853698D01*
X127811015Y-74852293D01*
X127803370Y-74824906D01*
X127798060Y-74768158D01*
X127796334Y-74703556D01*
X127796334Y-74569500D01*
X128410167Y-74569500D01*
X128410167Y-73955667D01*
X128707662Y-73955667D01*
X128701790Y-74257292D01*
X128701790Y-74257292D01*
G37*
X128701790Y-74257292D02*
X128695917Y-74558917D01*
X128553987Y-74565154D01*
X128412058Y-74571391D01*
X128405821Y-74713321D01*
X128399584Y-74855250D01*
X128112640Y-74861112D01*
X128006393Y-74862234D01*
X127915690Y-74861212D01*
X127848756Y-74858286D01*
X127813815Y-74853698D01*
X127811015Y-74852293D01*
X127803370Y-74824906D01*
X127798060Y-74768158D01*
X127796334Y-74703556D01*
X127796334Y-74569500D01*
X128410167Y-74569500D01*
X128410167Y-73955667D01*
X128707662Y-73955667D01*
X128701790Y-74257292D01*
G36*
X128410167Y-73955667D02*
X127796334Y-73955667D01*
X127796334Y-73659334D01*
X128410167Y-73659334D01*
X128410167Y-73955667D01*
X128410167Y-73955667D01*
G37*
X128410167Y-73955667D02*
X127796334Y-73955667D01*
X127796334Y-73659334D01*
X128410167Y-73659334D01*
X128410167Y-73955667D01*
G36*
X129891834Y-74865834D02*
X129595500Y-74865834D01*
X129595500Y-74569500D01*
X129299167Y-74569500D01*
X129299167Y-74252000D01*
X129595500Y-74252000D01*
X129595500Y-73066667D01*
X129891834Y-73066667D01*
X129891834Y-74865834D01*
X129891834Y-74865834D01*
G37*
X129891834Y-74865834D02*
X129595500Y-74865834D01*
X129595500Y-74569500D01*
X129299167Y-74569500D01*
X129299167Y-74252000D01*
X129595500Y-74252000D01*
X129595500Y-73066667D01*
X129891834Y-73066667D01*
X129891834Y-74865834D01*
G36*
X129299167Y-74252000D02*
X129002834Y-74252000D01*
X129002834Y-73066667D01*
X129299167Y-73066667D01*
X129299167Y-74252000D01*
X129299167Y-74252000D01*
G37*
X129299167Y-74252000D02*
X129002834Y-74252000D01*
X129002834Y-73066667D01*
X129299167Y-73066667D01*
X129299167Y-74252000D01*
G36*
X87241000Y-74294334D02*
X86098000Y-74294334D01*
X86098000Y-74103834D01*
X87050500Y-74103834D01*
X87050500Y-73913334D01*
X87241000Y-73913334D01*
X87241000Y-74294334D01*
X87241000Y-74294334D01*
G37*
X87241000Y-74294334D02*
X86098000Y-74294334D01*
X86098000Y-74103834D01*
X87050500Y-74103834D01*
X87050500Y-73913334D01*
X87241000Y-73913334D01*
X87241000Y-74294334D01*
G36*
X87050500Y-73913334D02*
X86098000Y-73913334D01*
X86098000Y-73722834D01*
X87050500Y-73722834D01*
X87050500Y-73913334D01*
X87050500Y-73913334D01*
G37*
X87050500Y-73913334D02*
X86098000Y-73913334D01*
X86098000Y-73722834D01*
X87050500Y-73722834D01*
X87050500Y-73913334D01*
G36*
X89908000Y-74103834D02*
X90289000Y-74103834D01*
X90289000Y-73913334D01*
X90479500Y-73913334D01*
X90479500Y-74103834D01*
X90670000Y-74103834D01*
X90670000Y-73722834D01*
X90860500Y-73722834D01*
X90860500Y-74294334D01*
X89717500Y-74294334D01*
X89717500Y-73722834D01*
X89908000Y-73722834D01*
X89908000Y-74103834D01*
X89908000Y-74103834D01*
G37*
X89908000Y-74103834D02*
X90289000Y-74103834D01*
X90289000Y-73913334D01*
X90479500Y-73913334D01*
X90479500Y-74103834D01*
X90670000Y-74103834D01*
X90670000Y-73722834D01*
X90860500Y-73722834D01*
X90860500Y-74294334D01*
X89717500Y-74294334D01*
X89717500Y-73722834D01*
X89908000Y-73722834D01*
X89908000Y-74103834D01*
G36*
X93887334Y-74294334D02*
X93506334Y-74294334D01*
X93506334Y-74103834D01*
X93887334Y-74103834D01*
X93887334Y-74294334D01*
X93887334Y-74294334D01*
G37*
X93887334Y-74294334D02*
X93506334Y-74294334D01*
X93506334Y-74103834D01*
X93887334Y-74103834D01*
X93887334Y-74294334D01*
G36*
X94077834Y-74103834D02*
X93887334Y-74103834D01*
X93887334Y-73722834D01*
X94077834Y-73722834D01*
X94077834Y-74103834D01*
X94077834Y-74103834D01*
G37*
X94077834Y-74103834D02*
X93887334Y-74103834D01*
X93887334Y-73722834D01*
X94077834Y-73722834D01*
X94077834Y-74103834D01*
G36*
X93506334Y-74103834D02*
X93315834Y-74103834D01*
X93315834Y-73722834D01*
X93506334Y-73722834D01*
X93506334Y-74103834D01*
X93506334Y-74103834D01*
G37*
X93506334Y-74103834D02*
X93315834Y-74103834D01*
X93315834Y-73722834D01*
X93506334Y-73722834D01*
X93506334Y-74103834D01*
G36*
X87241000Y-73151334D02*
X87241000Y-73532334D01*
X86098000Y-73532334D01*
X86098000Y-73151334D01*
X86288500Y-73151334D01*
X86288500Y-73341834D01*
X87050500Y-73341834D01*
X87050500Y-73151334D01*
X86288500Y-73151334D01*
X86288500Y-72960834D01*
X87050500Y-72960834D01*
X87050500Y-73151334D01*
X87241000Y-73151334D01*
X87241000Y-73151334D01*
G37*
X87241000Y-73151334D02*
X87241000Y-73532334D01*
X86098000Y-73532334D01*
X86098000Y-73151334D01*
X86288500Y-73151334D01*
X86288500Y-73341834D01*
X87050500Y-73341834D01*
X87050500Y-73151334D01*
X86288500Y-73151334D01*
X86288500Y-72960834D01*
X87050500Y-72960834D01*
X87050500Y-73151334D01*
X87241000Y-73151334D01*
G36*
X90860500Y-73151334D02*
X90860500Y-73341834D01*
X90670000Y-73341834D01*
X90670000Y-73532334D01*
X89908000Y-73532334D01*
X89908000Y-73341834D01*
X89717500Y-73341834D01*
X89717500Y-73151334D01*
X89908000Y-73151334D01*
X89908000Y-73341834D01*
X90670000Y-73341834D01*
X90670000Y-73151334D01*
X89908000Y-73151334D01*
X89908000Y-72960834D01*
X90670000Y-72960834D01*
X90670000Y-73151334D01*
X90860500Y-73151334D01*
X90860500Y-73151334D01*
G37*
X90860500Y-73151334D02*
X90860500Y-73341834D01*
X90670000Y-73341834D01*
X90670000Y-73532334D01*
X89908000Y-73532334D01*
X89908000Y-73341834D01*
X89717500Y-73341834D01*
X89717500Y-73151334D01*
X89908000Y-73151334D01*
X89908000Y-73341834D01*
X90670000Y-73341834D01*
X90670000Y-73151334D01*
X89908000Y-73151334D01*
X89908000Y-72960834D01*
X90670000Y-72960834D01*
X90670000Y-73151334D01*
X90860500Y-73151334D01*
G36*
X93887334Y-73532334D02*
X93506334Y-73532334D01*
X93506334Y-73341834D01*
X93887334Y-73341834D01*
X93887334Y-73532334D01*
X93887334Y-73532334D01*
G37*
X93887334Y-73532334D02*
X93506334Y-73532334D01*
X93506334Y-73341834D01*
X93887334Y-73341834D01*
X93887334Y-73532334D01*
G36*
X94077834Y-73341834D02*
X93887334Y-73341834D01*
X93887334Y-72960834D01*
X94077834Y-72960834D01*
X94077834Y-73341834D01*
X94077834Y-73341834D01*
G37*
X94077834Y-73341834D02*
X93887334Y-73341834D01*
X93887334Y-72960834D01*
X94077834Y-72960834D01*
X94077834Y-73341834D01*
G36*
X93506334Y-73341834D02*
X93315834Y-73341834D01*
X93315834Y-72960834D01*
X93506334Y-72960834D01*
X93506334Y-73341834D01*
X93506334Y-73341834D01*
G37*
X93506334Y-73341834D02*
X93315834Y-73341834D01*
X93315834Y-72960834D01*
X93506334Y-72960834D01*
X93506334Y-73341834D01*
G36*
X54406209Y-70848491D02*
X54549084Y-70854750D01*
X54555302Y-71008209D01*
X54561521Y-71161667D01*
X54856000Y-71161667D01*
X54856000Y-71458000D01*
X54559667Y-71458000D01*
X54559667Y-72050667D01*
X54856000Y-72050667D01*
X54856000Y-72347000D01*
X53945834Y-72347000D01*
X53945834Y-72050667D01*
X54263334Y-72050667D01*
X54263334Y-70842233D01*
X54406209Y-70848491D01*
X54406209Y-70848491D01*
G37*
X54406209Y-70848491D02*
X54549084Y-70854750D01*
X54555302Y-71008209D01*
X54561521Y-71161667D01*
X54856000Y-71161667D01*
X54856000Y-71458000D01*
X54559667Y-71458000D01*
X54559667Y-72050667D01*
X54856000Y-72050667D01*
X54856000Y-72347000D01*
X53945834Y-72347000D01*
X53945834Y-72050667D01*
X54263334Y-72050667D01*
X54263334Y-70842233D01*
X54406209Y-70848491D01*
G36*
X56041334Y-72347000D02*
X55745000Y-72347000D01*
X55745000Y-72050667D01*
X55448667Y-72050667D01*
X55448667Y-71754334D01*
X55744341Y-71754334D01*
X55749962Y-71156375D01*
X55755584Y-70558417D01*
X56041334Y-70545899D01*
X56041334Y-72347000D01*
X56041334Y-72347000D01*
G37*
X56041334Y-72347000D02*
X55745000Y-72347000D01*
X55745000Y-72050667D01*
X55448667Y-72050667D01*
X55448667Y-71754334D01*
X55744341Y-71754334D01*
X55749962Y-71156375D01*
X55755584Y-70558417D01*
X56041334Y-70545899D01*
X56041334Y-72347000D01*
G36*
X55448667Y-71754334D02*
X55152334Y-71754334D01*
X55152334Y-70547834D01*
X55448667Y-70547834D01*
X55448667Y-71754334D01*
X55448667Y-71754334D01*
G37*
X55448667Y-71754334D02*
X55152334Y-71754334D01*
X55152334Y-70547834D01*
X55448667Y-70547834D01*
X55448667Y-71754334D01*
G36*
X56951500Y-72347000D02*
X56358834Y-72347000D01*
X56358834Y-72050667D01*
X56951500Y-72050667D01*
X56951500Y-72347000D01*
X56951500Y-72347000D01*
G37*
X56951500Y-72347000D02*
X56358834Y-72347000D01*
X56358834Y-72050667D01*
X56951500Y-72050667D01*
X56951500Y-72347000D01*
G36*
X57247834Y-72050667D02*
X56951500Y-72050667D01*
X56951500Y-70844167D01*
X57247834Y-70844167D01*
X57247834Y-72050667D01*
X57247834Y-72050667D01*
G37*
X57247834Y-72050667D02*
X56951500Y-72050667D01*
X56951500Y-70844167D01*
X57247834Y-70844167D01*
X57247834Y-72050667D01*
G36*
X56951500Y-70844167D02*
X56358834Y-70844167D01*
X56358834Y-70547834D01*
X56951500Y-70547834D01*
X56951500Y-70844167D01*
X56951500Y-70844167D01*
G37*
X56951500Y-70844167D02*
X56358834Y-70844167D01*
X56358834Y-70547834D01*
X56951500Y-70547834D01*
X56951500Y-70844167D01*
G36*
X125849000Y-72347000D02*
X125235167Y-72347000D01*
X125235167Y-72050667D01*
X125849000Y-72050667D01*
X125849000Y-72347000D01*
X125849000Y-72347000D01*
G37*
X125849000Y-72347000D02*
X125235167Y-72347000D01*
X125235167Y-72050667D01*
X125849000Y-72050667D01*
X125849000Y-72347000D01*
G36*
X125849000Y-71458000D02*
X126145334Y-71458000D01*
X126145334Y-72050667D01*
X125849000Y-72050667D01*
X125849000Y-71754334D01*
X125235167Y-71754334D01*
X125235167Y-71161667D01*
X125849000Y-71161667D01*
X125849000Y-71458000D01*
X125849000Y-71458000D01*
G37*
X125849000Y-71458000D02*
X126145334Y-71458000D01*
X126145334Y-72050667D01*
X125849000Y-72050667D01*
X125849000Y-71754334D01*
X125235167Y-71754334D01*
X125235167Y-71161667D01*
X125849000Y-71161667D01*
X125849000Y-71458000D01*
G36*
X126738000Y-71161667D02*
X127330667Y-71161667D01*
X127330667Y-72347000D01*
X127034334Y-72347000D01*
X127034334Y-71458000D01*
X126738000Y-71458000D01*
X126738000Y-71161667D01*
X126738000Y-71161667D01*
G37*
X126738000Y-71161667D02*
X127330667Y-71161667D01*
X127330667Y-72347000D01*
X127034334Y-72347000D01*
X127034334Y-71458000D01*
X126738000Y-71458000D01*
X126738000Y-71161667D01*
G36*
X126738000Y-72347000D02*
X126441667Y-72347000D01*
X126441667Y-71458000D01*
X126738000Y-71458000D01*
X126738000Y-72347000D01*
X126738000Y-72347000D01*
G37*
X126738000Y-72347000D02*
X126441667Y-72347000D01*
X126441667Y-71458000D01*
X126738000Y-71458000D01*
X126738000Y-72347000D01*
G36*
X128240834Y-72347000D02*
X127944500Y-72347000D01*
X127944500Y-71161667D01*
X128240834Y-71161667D01*
X128240834Y-72347000D01*
X128240834Y-72347000D01*
G37*
X128240834Y-72347000D02*
X127944500Y-72347000D01*
X127944500Y-71161667D01*
X128240834Y-71161667D01*
X128240834Y-72347000D01*
G36*
X129738605Y-71452709D02*
X129744126Y-72347000D01*
X128833500Y-72347000D01*
X128833500Y-72050667D01*
X129425625Y-72050667D01*
X129431188Y-71304542D01*
X129436750Y-70558417D01*
X129733084Y-70558417D01*
X129738605Y-71452709D01*
X129738605Y-71452709D01*
G37*
X129738605Y-71452709D02*
X129744126Y-72347000D01*
X128833500Y-72347000D01*
X128833500Y-72050667D01*
X129425625Y-72050667D01*
X129431188Y-71304542D01*
X129436750Y-70558417D01*
X129733084Y-70558417D01*
X129738605Y-71452709D01*
G36*
X49183334Y-71585000D02*
X49522000Y-71585000D01*
X49522000Y-71943121D01*
X49871250Y-71955417D01*
X49883546Y-72304667D01*
X49500834Y-72304667D01*
X49500834Y-71944834D01*
X49162167Y-71944834D01*
X49162167Y-71585000D01*
X48823500Y-71585000D01*
X48823500Y-71225167D01*
X49183334Y-71225167D01*
X49183334Y-71585000D01*
X49183334Y-71585000D01*
G37*
X49183334Y-71585000D02*
X49522000Y-71585000D01*
X49522000Y-71943121D01*
X49871250Y-71955417D01*
X49883546Y-72304667D01*
X49500834Y-72304667D01*
X49500834Y-71944834D01*
X49162167Y-71944834D01*
X49162167Y-71585000D01*
X48823500Y-71585000D01*
X48823500Y-71225167D01*
X49183334Y-71225167D01*
X49183334Y-71585000D01*
G36*
X48506000Y-70865334D02*
X48823500Y-70865334D01*
X48823500Y-71225167D01*
X48506000Y-71225167D01*
X48506000Y-72304667D01*
X48105546Y-72304667D01*
X48093250Y-71955417D01*
X47744000Y-71943121D01*
X47744000Y-71585000D01*
X47405334Y-71585000D01*
X47405334Y-71225167D01*
X47786334Y-71225167D01*
X47786334Y-71585000D01*
X48146167Y-71585000D01*
X48146167Y-70505500D01*
X48506000Y-70505500D01*
X48506000Y-70865334D01*
X48506000Y-70865334D01*
G37*
X48506000Y-70865334D02*
X48823500Y-70865334D01*
X48823500Y-71225167D01*
X48506000Y-71225167D01*
X48506000Y-72304667D01*
X48105546Y-72304667D01*
X48093250Y-71955417D01*
X47744000Y-71943121D01*
X47744000Y-71585000D01*
X47405334Y-71585000D01*
X47405334Y-71225167D01*
X47786334Y-71225167D01*
X47786334Y-71585000D01*
X48146167Y-71585000D01*
X48146167Y-70505500D01*
X48506000Y-70505500D01*
X48506000Y-70865334D01*
G36*
X47087834Y-70865334D02*
X47405334Y-70865334D01*
X47405334Y-71225167D01*
X47087834Y-71225167D01*
X47087834Y-72304667D01*
X46728000Y-72304667D01*
X46728000Y-71944834D01*
X46368167Y-71944834D01*
X46368167Y-71585000D01*
X46728000Y-71585000D01*
X46728000Y-70505500D01*
X47087834Y-70505500D01*
X47087834Y-70865334D01*
X47087834Y-70865334D01*
G37*
X47087834Y-70865334D02*
X47405334Y-70865334D01*
X47405334Y-71225167D01*
X47087834Y-71225167D01*
X47087834Y-72304667D01*
X46728000Y-72304667D01*
X46728000Y-71944834D01*
X46368167Y-71944834D01*
X46368167Y-71585000D01*
X46728000Y-71585000D01*
X46728000Y-70505500D01*
X47087834Y-70505500D01*
X47087834Y-70865334D01*
G36*
X46368167Y-71585000D02*
X46008334Y-71585000D01*
X46008334Y-71225167D01*
X46368167Y-71225167D01*
X46368167Y-71585000D01*
X46368167Y-71585000D01*
G37*
X46368167Y-71585000D02*
X46008334Y-71585000D01*
X46008334Y-71225167D01*
X46368167Y-71225167D01*
X46368167Y-71585000D01*
G36*
X137120250Y-70516084D02*
X137131560Y-71585000D01*
X137469500Y-71585000D01*
X137469500Y-71225167D01*
X137829334Y-71225167D01*
X137829334Y-71585000D01*
X137490667Y-71585000D01*
X137490667Y-71944834D01*
X137130834Y-71944834D01*
X137130834Y-72304667D01*
X136771000Y-72304667D01*
X136771000Y-71225167D01*
X136453500Y-71225167D01*
X136453500Y-71583288D01*
X136104250Y-71595584D01*
X136098102Y-71770209D01*
X136091955Y-71944834D01*
X135755000Y-71944834D01*
X135755000Y-72304667D01*
X135352834Y-72304667D01*
X135352834Y-71225167D01*
X135035334Y-71225167D01*
X135035334Y-71583288D01*
X134686084Y-71595584D01*
X134673788Y-71944834D01*
X134336834Y-71944834D01*
X134336834Y-72304667D01*
X133977000Y-72304667D01*
X133977000Y-71944834D01*
X134313955Y-71944834D01*
X134320102Y-71770209D01*
X134326250Y-71595584D01*
X134675500Y-71583288D01*
X134675500Y-71225167D01*
X135014167Y-71225167D01*
X135014167Y-70865334D01*
X135352834Y-70865334D01*
X135352834Y-70503788D01*
X135702084Y-70516084D01*
X135713394Y-71585000D01*
X136051334Y-71585000D01*
X136051334Y-71225167D01*
X136432334Y-71225167D01*
X136432334Y-70865334D01*
X136771000Y-70865334D01*
X136771000Y-70503788D01*
X137120250Y-70516084D01*
X137120250Y-70516084D01*
G37*
X137120250Y-70516084D02*
X137131560Y-71585000D01*
X137469500Y-71585000D01*
X137469500Y-71225167D01*
X137829334Y-71225167D01*
X137829334Y-71585000D01*
X137490667Y-71585000D01*
X137490667Y-71944834D01*
X137130834Y-71944834D01*
X137130834Y-72304667D01*
X136771000Y-72304667D01*
X136771000Y-71225167D01*
X136453500Y-71225167D01*
X136453500Y-71583288D01*
X136104250Y-71595584D01*
X136098102Y-71770209D01*
X136091955Y-71944834D01*
X135755000Y-71944834D01*
X135755000Y-72304667D01*
X135352834Y-72304667D01*
X135352834Y-71225167D01*
X135035334Y-71225167D01*
X135035334Y-71583288D01*
X134686084Y-71595584D01*
X134673788Y-71944834D01*
X134336834Y-71944834D01*
X134336834Y-72304667D01*
X133977000Y-72304667D01*
X133977000Y-71944834D01*
X134313955Y-71944834D01*
X134320102Y-71770209D01*
X134326250Y-71595584D01*
X134675500Y-71583288D01*
X134675500Y-71225167D01*
X135014167Y-71225167D01*
X135014167Y-70865334D01*
X135352834Y-70865334D01*
X135352834Y-70503788D01*
X135702084Y-70516084D01*
X135713394Y-71585000D01*
X136051334Y-71585000D01*
X136051334Y-71225167D01*
X136432334Y-71225167D01*
X136432334Y-70865334D01*
X136771000Y-70865334D01*
X136771000Y-70503788D01*
X137120250Y-70516084D01*
G36*
X91876500Y-70971167D02*
X91876500Y-71690834D01*
X89717500Y-71690834D01*
X89717500Y-70971167D01*
X90077334Y-70971167D01*
X90077334Y-71331000D01*
X90797000Y-71331000D01*
X90797000Y-70971167D01*
X90077334Y-70971167D01*
X90077334Y-70611334D01*
X90797000Y-70611334D01*
X90797000Y-70971167D01*
X91156834Y-70971167D01*
X91156834Y-71331000D01*
X91516667Y-71331000D01*
X91516667Y-70971167D01*
X91156834Y-70971167D01*
X91156834Y-70611334D01*
X91516667Y-70611334D01*
X91516667Y-70971167D01*
X91876500Y-70971167D01*
X91876500Y-70971167D01*
G37*
X91876500Y-70971167D02*
X91876500Y-71690834D01*
X89717500Y-71690834D01*
X89717500Y-70971167D01*
X90077334Y-70971167D01*
X90077334Y-71331000D01*
X90797000Y-71331000D01*
X90797000Y-70971167D01*
X90077334Y-70971167D01*
X90077334Y-70611334D01*
X90797000Y-70611334D01*
X90797000Y-70971167D01*
X91156834Y-70971167D01*
X91156834Y-71331000D01*
X91516667Y-71331000D01*
X91516667Y-70971167D01*
X91156834Y-70971167D01*
X91156834Y-70611334D01*
X91516667Y-70611334D01*
X91516667Y-70971167D01*
X91876500Y-70971167D01*
G36*
X94331834Y-70971167D02*
X94331834Y-71690834D01*
X92172834Y-71690834D01*
X92172834Y-70971167D01*
X92532667Y-70971167D01*
X92532667Y-71331000D01*
X93252334Y-71331000D01*
X93252334Y-70971167D01*
X92532667Y-70971167D01*
X92532667Y-70611334D01*
X93252334Y-70611334D01*
X93252334Y-70971167D01*
X93612167Y-70971167D01*
X93612167Y-71331000D01*
X93972000Y-71331000D01*
X93972000Y-70971167D01*
X93612167Y-70971167D01*
X93612167Y-70611334D01*
X93972000Y-70611334D01*
X93972000Y-70971167D01*
X94331834Y-70971167D01*
X94331834Y-70971167D01*
G37*
X94331834Y-70971167D02*
X94331834Y-71690834D01*
X92172834Y-71690834D01*
X92172834Y-70971167D01*
X92532667Y-70971167D01*
X92532667Y-71331000D01*
X93252334Y-71331000D01*
X93252334Y-70971167D01*
X92532667Y-70971167D01*
X92532667Y-70611334D01*
X93252334Y-70611334D01*
X93252334Y-70971167D01*
X93612167Y-70971167D01*
X93612167Y-71331000D01*
X93972000Y-71331000D01*
X93972000Y-70971167D01*
X93612167Y-70971167D01*
X93612167Y-70611334D01*
X93972000Y-70611334D01*
X93972000Y-70971167D01*
X94331834Y-70971167D01*
G36*
X128240834Y-70844167D02*
X127944500Y-70844167D01*
X127944500Y-70547834D01*
X128240834Y-70547834D01*
X128240834Y-70844167D01*
X128240834Y-70844167D01*
G37*
X128240834Y-70844167D02*
X127944500Y-70844167D01*
X127944500Y-70547834D01*
X128240834Y-70547834D01*
X128240834Y-70844167D01*
G36*
X90077334Y-69891667D02*
X90797000Y-69891667D01*
X90797000Y-69531834D01*
X91156834Y-69531834D01*
X91156834Y-69891667D01*
X91516667Y-69891667D01*
X91516667Y-69172000D01*
X91876500Y-69172000D01*
X91876500Y-70251500D01*
X89717500Y-70251500D01*
X89717500Y-69172000D01*
X90077334Y-69172000D01*
X90077334Y-69891667D01*
X90077334Y-69891667D01*
G37*
X90077334Y-69891667D02*
X90797000Y-69891667D01*
X90797000Y-69531834D01*
X91156834Y-69531834D01*
X91156834Y-69891667D01*
X91516667Y-69891667D01*
X91516667Y-69172000D01*
X91876500Y-69172000D01*
X91876500Y-70251500D01*
X89717500Y-70251500D01*
X89717500Y-69172000D01*
X90077334Y-69172000D01*
X90077334Y-69891667D01*
G36*
X94331834Y-69531834D02*
X94331834Y-69891667D01*
X93972000Y-69891667D01*
X93972000Y-70251500D01*
X92172834Y-70251500D01*
X92172834Y-69892690D01*
X92527375Y-69886887D01*
X92881917Y-69881084D01*
X92888065Y-69706459D01*
X92894212Y-69531834D01*
X93252334Y-69531834D01*
X93252334Y-69891667D01*
X93972000Y-69891667D01*
X93972000Y-69531834D01*
X93252334Y-69531834D01*
X92894212Y-69531834D01*
X92172834Y-69531834D01*
X92172834Y-69172000D01*
X93972000Y-69172000D01*
X93972000Y-69531834D01*
X94331834Y-69531834D01*
X94331834Y-69531834D01*
G37*
X94331834Y-69531834D02*
X94331834Y-69891667D01*
X93972000Y-69891667D01*
X93972000Y-70251500D01*
X92172834Y-70251500D01*
X92172834Y-69892690D01*
X92527375Y-69886887D01*
X92881917Y-69881084D01*
X92888065Y-69706459D01*
X92894212Y-69531834D01*
X93252334Y-69531834D01*
X93252334Y-69891667D01*
X93972000Y-69891667D01*
X93972000Y-69531834D01*
X93252334Y-69531834D01*
X92894212Y-69531834D01*
X92172834Y-69531834D01*
X92172834Y-69172000D01*
X93972000Y-69172000D01*
X93972000Y-69531834D01*
X94331834Y-69531834D01*
G36*
X57078500Y-70039834D02*
X56485834Y-70039834D01*
X56485834Y-69722334D01*
X57078500Y-69722334D01*
X57078500Y-70039834D01*
X57078500Y-70039834D01*
G37*
X57078500Y-70039834D02*
X56485834Y-70039834D01*
X56485834Y-69722334D01*
X57078500Y-69722334D01*
X57078500Y-70039834D01*
G36*
X56485834Y-69129667D02*
X56782167Y-69129667D01*
X56782167Y-69426000D01*
X56485834Y-69426000D01*
X56485834Y-69722334D01*
X56189500Y-69722334D01*
X56189500Y-68537000D01*
X56485834Y-68537000D01*
X56485834Y-69129667D01*
X56485834Y-69129667D01*
G37*
X56485834Y-69129667D02*
X56782167Y-69129667D01*
X56782167Y-69426000D01*
X56485834Y-69426000D01*
X56485834Y-69722334D01*
X56189500Y-69722334D01*
X56189500Y-68537000D01*
X56485834Y-68537000D01*
X56485834Y-69129667D01*
G36*
X57078500Y-69129667D02*
X56782167Y-69129667D01*
X56782167Y-68537000D01*
X57078500Y-68537000D01*
X57078500Y-69129667D01*
X57078500Y-69129667D01*
G37*
X57078500Y-69129667D02*
X56782167Y-69129667D01*
X56782167Y-68537000D01*
X57078500Y-68537000D01*
X57078500Y-69129667D01*
G36*
X128537167Y-70039834D02*
X128254945Y-70039834D01*
X128149642Y-70038829D01*
X128059996Y-70036079D01*
X127994295Y-70031978D01*
X127960822Y-70026920D01*
X127958611Y-70025722D01*
X127951513Y-69998860D01*
X127946445Y-69941966D01*
X127944500Y-69867332D01*
X127944500Y-69722334D01*
X128537167Y-69722334D01*
X128537167Y-70039834D01*
X128537167Y-70039834D01*
G37*
X128537167Y-70039834D02*
X128254945Y-70039834D01*
X128149642Y-70038829D01*
X128059996Y-70036079D01*
X127994295Y-70031978D01*
X127960822Y-70026920D01*
X127958611Y-70025722D01*
X127951513Y-69998860D01*
X127946445Y-69941966D01*
X127944500Y-69867332D01*
X127944500Y-69722334D01*
X128537167Y-69722334D01*
X128537167Y-70039834D01*
G36*
X127944500Y-69129667D02*
X128240834Y-69129667D01*
X128240834Y-69426000D01*
X127944500Y-69426000D01*
X127944500Y-69722334D01*
X127648167Y-69722334D01*
X127648167Y-68537000D01*
X127944500Y-68537000D01*
X127944500Y-69129667D01*
X127944500Y-69129667D01*
G37*
X127944500Y-69129667D02*
X128240834Y-69129667D01*
X128240834Y-69426000D01*
X127944500Y-69426000D01*
X127944500Y-69722334D01*
X127648167Y-69722334D01*
X127648167Y-68537000D01*
X127944500Y-68537000D01*
X127944500Y-69129667D01*
G36*
X128537167Y-69129667D02*
X128240834Y-69129667D01*
X128240834Y-68537000D01*
X128537167Y-68537000D01*
X128537167Y-69129667D01*
X128537167Y-69129667D01*
G37*
X128537167Y-69129667D02*
X128240834Y-69129667D01*
X128240834Y-68537000D01*
X128537167Y-68537000D01*
X128537167Y-69129667D01*
G36*
X46579834Y-69722334D02*
X46220000Y-69722334D01*
X46220000Y-69362500D01*
X46579834Y-69362500D01*
X46579834Y-69722334D01*
X46579834Y-69722334D01*
G37*
X46579834Y-69722334D02*
X46220000Y-69722334D01*
X46220000Y-69362500D01*
X46579834Y-69362500D01*
X46579834Y-69722334D01*
G36*
X46939667Y-69362500D02*
X46579834Y-69362500D01*
X46579834Y-69002667D01*
X46939667Y-69002667D01*
X46939667Y-69362500D01*
X46939667Y-69362500D01*
G37*
X46939667Y-69362500D02*
X46579834Y-69362500D01*
X46579834Y-69002667D01*
X46939667Y-69002667D01*
X46939667Y-69362500D01*
G36*
X48230834Y-69362500D02*
X47892167Y-69362500D01*
X47892167Y-69722334D01*
X47511167Y-69722334D01*
X47511167Y-69362500D01*
X47871000Y-69362500D01*
X47871000Y-69002667D01*
X48230834Y-69002667D01*
X48230834Y-69362500D01*
X48230834Y-69362500D01*
G37*
X48230834Y-69362500D02*
X47892167Y-69362500D01*
X47892167Y-69722334D01*
X47511167Y-69722334D01*
X47511167Y-69362500D01*
X47871000Y-69362500D01*
X47871000Y-69002667D01*
X48230834Y-69002667D01*
X48230834Y-69362500D01*
G36*
X49522000Y-69362500D02*
X49183334Y-69362500D01*
X49183334Y-69722334D01*
X48823500Y-69722334D01*
X48823500Y-69362500D01*
X49162167Y-69362500D01*
X49162167Y-69002667D01*
X49522000Y-69002667D01*
X49522000Y-69362500D01*
X49522000Y-69362500D01*
G37*
X49522000Y-69362500D02*
X49183334Y-69362500D01*
X49183334Y-69722334D01*
X48823500Y-69722334D01*
X48823500Y-69362500D01*
X49162167Y-69362500D01*
X49162167Y-69002667D01*
X49522000Y-69002667D01*
X49522000Y-69362500D01*
G36*
X54390334Y-69722334D02*
X53797667Y-69722334D01*
X53797667Y-69426000D01*
X54390334Y-69426000D01*
X54390334Y-69722334D01*
X54390334Y-69722334D01*
G37*
X54390334Y-69722334D02*
X53797667Y-69722334D01*
X53797667Y-69426000D01*
X54390334Y-69426000D01*
X54390334Y-69722334D01*
G36*
X54686667Y-69426000D02*
X54390334Y-69426000D01*
X54390334Y-68833334D01*
X54686667Y-68833334D01*
X54686667Y-69426000D01*
X54686667Y-69426000D01*
G37*
X54686667Y-69426000D02*
X54390334Y-69426000D01*
X54390334Y-68833334D01*
X54686667Y-68833334D01*
X54686667Y-69426000D01*
G36*
X54390334Y-68833334D02*
X53797667Y-68833334D01*
X53797667Y-68537000D01*
X54390334Y-68537000D01*
X54390334Y-68833334D01*
X54390334Y-68833334D01*
G37*
X54390334Y-68833334D02*
X53797667Y-68833334D01*
X53797667Y-68537000D01*
X54390334Y-68537000D01*
X54390334Y-68833334D01*
G36*
X55279334Y-68537000D02*
X55893167Y-68537000D01*
X55893167Y-69722334D01*
X55596834Y-69722334D01*
X55596834Y-68833334D01*
X55279334Y-68833334D01*
X55279334Y-68537000D01*
X55279334Y-68537000D01*
G37*
X55279334Y-68537000D02*
X55893167Y-68537000D01*
X55893167Y-69722334D01*
X55596834Y-69722334D01*
X55596834Y-68833334D01*
X55279334Y-68833334D01*
X55279334Y-68537000D01*
G36*
X55279334Y-69722334D02*
X54983000Y-69722334D01*
X54983000Y-68833334D01*
X55279334Y-68833334D01*
X55279334Y-69722334D01*
X55279334Y-69722334D01*
G37*
X55279334Y-69722334D02*
X54983000Y-69722334D01*
X54983000Y-68833334D01*
X55279334Y-68833334D01*
X55279334Y-69722334D01*
G36*
X58285000Y-69722334D02*
X57692334Y-69722334D01*
X57692334Y-69426000D01*
X58285000Y-69426000D01*
X58285000Y-69722334D01*
X58285000Y-69722334D01*
G37*
X58285000Y-69722334D02*
X57692334Y-69722334D01*
X57692334Y-69426000D01*
X58285000Y-69426000D01*
X58285000Y-69722334D01*
G36*
X57692334Y-69426000D02*
X57374834Y-69426000D01*
X57374834Y-68833334D01*
X57692334Y-68833334D01*
X57692334Y-69426000D01*
X57692334Y-69426000D01*
G37*
X57692334Y-69426000D02*
X57374834Y-69426000D01*
X57374834Y-68833334D01*
X57692334Y-68833334D01*
X57692334Y-69426000D01*
G36*
X57988667Y-68833334D02*
X57692334Y-68833334D01*
X57692334Y-68537000D01*
X57988667Y-68537000D01*
X57988667Y-68833334D01*
X57988667Y-68833334D01*
G37*
X57988667Y-68833334D02*
X57692334Y-68833334D01*
X57692334Y-68537000D01*
X57988667Y-68537000D01*
X57988667Y-68833334D01*
G36*
X57988667Y-68240667D02*
X58285000Y-68240667D01*
X58285000Y-68537000D01*
X57988667Y-68537000D01*
X57988667Y-68241829D01*
X57687042Y-68235956D01*
X57385417Y-68230084D01*
X57372899Y-67944334D01*
X57988667Y-67944334D01*
X57988667Y-68240667D01*
X57988667Y-68240667D01*
G37*
X57988667Y-68240667D02*
X58285000Y-68240667D01*
X58285000Y-68537000D01*
X57988667Y-68537000D01*
X57988667Y-68241829D01*
X57687042Y-68235956D01*
X57385417Y-68230084D01*
X57372899Y-67944334D01*
X57988667Y-67944334D01*
X57988667Y-68240667D01*
G36*
X125849000Y-69722334D02*
X125256334Y-69722334D01*
X125256334Y-69426000D01*
X125849000Y-69426000D01*
X125849000Y-69722334D01*
X125849000Y-69722334D01*
G37*
X125849000Y-69722334D02*
X125256334Y-69722334D01*
X125256334Y-69426000D01*
X125849000Y-69426000D01*
X125849000Y-69722334D01*
G36*
X126145334Y-69426000D02*
X125849000Y-69426000D01*
X125849000Y-68833334D01*
X126145334Y-68833334D01*
X126145334Y-69426000D01*
X126145334Y-69426000D01*
G37*
X126145334Y-69426000D02*
X125849000Y-69426000D01*
X125849000Y-68833334D01*
X126145334Y-68833334D01*
X126145334Y-69426000D01*
G36*
X125849000Y-68833334D02*
X125256334Y-68833334D01*
X125256334Y-68537000D01*
X125849000Y-68537000D01*
X125849000Y-68833334D01*
X125849000Y-68833334D01*
G37*
X125849000Y-68833334D02*
X125256334Y-68833334D01*
X125256334Y-68537000D01*
X125849000Y-68537000D01*
X125849000Y-68833334D01*
G36*
X126759167Y-68537000D02*
X127351834Y-68537000D01*
X127351834Y-69722334D01*
X127055500Y-69722334D01*
X127055500Y-68833334D01*
X126759167Y-68833334D01*
X126759167Y-68537000D01*
X126759167Y-68537000D01*
G37*
X126759167Y-68537000D02*
X127351834Y-68537000D01*
X127351834Y-69722334D01*
X127055500Y-69722334D01*
X127055500Y-68833334D01*
X126759167Y-68833334D01*
X126759167Y-68537000D01*
G36*
X126759167Y-69722334D02*
X126441667Y-69722334D01*
X126441667Y-68833334D01*
X126759167Y-68833334D01*
X126759167Y-69722334D01*
X126759167Y-69722334D01*
G37*
X126759167Y-69722334D02*
X126441667Y-69722334D01*
X126441667Y-68833334D01*
X126759167Y-68833334D01*
X126759167Y-69722334D01*
G36*
X129743667Y-69722334D02*
X129151000Y-69722334D01*
X129151000Y-69426000D01*
X129743667Y-69426000D01*
X129743667Y-69722334D01*
X129743667Y-69722334D01*
G37*
X129743667Y-69722334D02*
X129151000Y-69722334D01*
X129151000Y-69426000D01*
X129743667Y-69426000D01*
X129743667Y-69722334D01*
G36*
X129151000Y-69426000D02*
X128854667Y-69426000D01*
X128854667Y-68833334D01*
X129151000Y-68833334D01*
X129151000Y-69426000D01*
X129151000Y-69426000D01*
G37*
X129151000Y-69426000D02*
X128854667Y-69426000D01*
X128854667Y-68833334D01*
X129151000Y-68833334D01*
X129151000Y-69426000D01*
G36*
X129447334Y-68833334D02*
X129151000Y-68833334D01*
X129151000Y-68537000D01*
X129447334Y-68537000D01*
X129447334Y-68833334D01*
X129447334Y-68833334D01*
G37*
X129447334Y-68833334D02*
X129151000Y-68833334D01*
X129151000Y-68537000D01*
X129447334Y-68537000D01*
X129447334Y-68833334D01*
G36*
X129743667Y-68537000D02*
X129447334Y-68537000D01*
X129447334Y-68240667D01*
X129743667Y-68240667D01*
X129743667Y-68537000D01*
X129743667Y-68537000D01*
G37*
X129743667Y-68537000D02*
X129447334Y-68537000D01*
X129447334Y-68240667D01*
X129743667Y-68240667D01*
X129743667Y-68537000D01*
G36*
X129447334Y-68240667D02*
X128854667Y-68240667D01*
X128854667Y-67944334D01*
X129447334Y-67944334D01*
X129447334Y-68240667D01*
X129447334Y-68240667D01*
G37*
X129447334Y-68240667D02*
X128854667Y-68240667D01*
X128854667Y-67944334D01*
X129447334Y-67944334D01*
X129447334Y-68240667D01*
G36*
X135035334Y-69362500D02*
X134696667Y-69362500D01*
X134696667Y-69722334D01*
X134336834Y-69722334D01*
X134336834Y-69362500D01*
X134675500Y-69362500D01*
X134675500Y-69002667D01*
X135035334Y-69002667D01*
X135035334Y-69362500D01*
X135035334Y-69362500D01*
G37*
X135035334Y-69362500D02*
X134696667Y-69362500D01*
X134696667Y-69722334D01*
X134336834Y-69722334D01*
X134336834Y-69362500D01*
X134675500Y-69362500D01*
X134675500Y-69002667D01*
X135035334Y-69002667D01*
X135035334Y-69362500D01*
G36*
X136347667Y-69362500D02*
X135987834Y-69362500D01*
X135987834Y-69722334D01*
X135628000Y-69722334D01*
X135628000Y-69362500D01*
X135966667Y-69362500D01*
X135966667Y-69002667D01*
X136347667Y-69002667D01*
X136347667Y-69362500D01*
X136347667Y-69362500D01*
G37*
X136347667Y-69362500D02*
X135987834Y-69362500D01*
X135987834Y-69722334D01*
X135628000Y-69722334D01*
X135628000Y-69362500D01*
X135966667Y-69362500D01*
X135966667Y-69002667D01*
X136347667Y-69002667D01*
X136347667Y-69362500D01*
G36*
X137279000Y-69722334D02*
X136919167Y-69722334D01*
X136919167Y-69362500D01*
X137279000Y-69362500D01*
X137279000Y-69722334D01*
X137279000Y-69722334D01*
G37*
X137279000Y-69722334D02*
X136919167Y-69722334D01*
X136919167Y-69362500D01*
X137279000Y-69362500D01*
X137279000Y-69722334D01*
G36*
X137638834Y-69362500D02*
X137279000Y-69362500D01*
X137279000Y-69002667D01*
X137638834Y-69002667D01*
X137638834Y-69362500D01*
X137638834Y-69362500D01*
G37*
X137638834Y-69362500D02*
X137279000Y-69362500D01*
X137279000Y-69002667D01*
X137638834Y-69002667D01*
X137638834Y-69362500D01*
G36*
X90437167Y-68071334D02*
X89717500Y-68071334D01*
X89717500Y-67711500D01*
X90437167Y-67711500D01*
X90437167Y-68071334D01*
X90437167Y-68071334D01*
G37*
X90437167Y-68071334D02*
X89717500Y-68071334D01*
X89717500Y-67711500D01*
X90437167Y-67711500D01*
X90437167Y-68071334D01*
G36*
X91876500Y-68071334D02*
X91876500Y-68791000D01*
X89717500Y-68791000D01*
X89717500Y-68431167D01*
X90437167Y-68431167D01*
X90437167Y-68071334D01*
X90797000Y-68071334D01*
X90797000Y-68431167D01*
X91516667Y-68431167D01*
X91516667Y-68071334D01*
X90797000Y-68071334D01*
X90797000Y-67711500D01*
X91516667Y-67711500D01*
X91516667Y-68071334D01*
X91876500Y-68071334D01*
X91876500Y-68071334D01*
G37*
X91876500Y-68071334D02*
X91876500Y-68791000D01*
X89717500Y-68791000D01*
X89717500Y-68431167D01*
X90437167Y-68431167D01*
X90437167Y-68071334D01*
X90797000Y-68071334D01*
X90797000Y-68431167D01*
X91516667Y-68431167D01*
X91516667Y-68071334D01*
X90797000Y-68071334D01*
X90797000Y-67711500D01*
X91516667Y-67711500D01*
X91516667Y-68071334D01*
X91876500Y-68071334D01*
G36*
X94331834Y-68791000D02*
X93973712Y-68791000D01*
X93967565Y-68616375D01*
X93961417Y-68441750D01*
X93067125Y-68436229D01*
X92172834Y-68430707D01*
X92172834Y-68071334D01*
X93972000Y-68071334D01*
X93972000Y-67711500D01*
X94331834Y-67711500D01*
X94331834Y-68791000D01*
X94331834Y-68791000D01*
G37*
X94331834Y-68791000D02*
X93973712Y-68791000D01*
X93967565Y-68616375D01*
X93961417Y-68441750D01*
X93067125Y-68436229D01*
X92172834Y-68430707D01*
X92172834Y-68071334D01*
X93972000Y-68071334D01*
X93972000Y-67711500D01*
X94331834Y-67711500D01*
X94331834Y-68791000D01*
G36*
X46939667Y-68664000D02*
X46579834Y-68664000D01*
X46579834Y-68304167D01*
X46939667Y-68304167D01*
X46939667Y-68664000D01*
X46939667Y-68664000D01*
G37*
X46939667Y-68664000D02*
X46579834Y-68664000D01*
X46579834Y-68304167D01*
X46939667Y-68304167D01*
X46939667Y-68664000D01*
G36*
X47871000Y-68283000D02*
X48230834Y-68283000D01*
X48230834Y-68664000D01*
X47871000Y-68664000D01*
X47871000Y-68305879D01*
X47696375Y-68299731D01*
X47521750Y-68293584D01*
X47515634Y-68108375D01*
X47509519Y-67923167D01*
X47871000Y-67923167D01*
X47871000Y-68283000D01*
X47871000Y-68283000D01*
G37*
X47871000Y-68283000D02*
X48230834Y-68283000D01*
X48230834Y-68664000D01*
X47871000Y-68664000D01*
X47871000Y-68305879D01*
X47696375Y-68299731D01*
X47521750Y-68293584D01*
X47515634Y-68108375D01*
X47509519Y-67923167D01*
X47871000Y-67923167D01*
X47871000Y-68283000D01*
G36*
X49522000Y-68664000D02*
X49162167Y-68664000D01*
X49162167Y-68304167D01*
X49522000Y-68304167D01*
X49522000Y-68664000D01*
X49522000Y-68664000D01*
G37*
X49522000Y-68664000D02*
X49162167Y-68664000D01*
X49162167Y-68304167D01*
X49522000Y-68304167D01*
X49522000Y-68664000D01*
G36*
X135035334Y-68664000D02*
X134675500Y-68664000D01*
X134675500Y-68304167D01*
X135035334Y-68304167D01*
X135035334Y-68664000D01*
X135035334Y-68664000D01*
G37*
X135035334Y-68664000D02*
X134675500Y-68664000D01*
X134675500Y-68304167D01*
X135035334Y-68304167D01*
X135035334Y-68664000D01*
G36*
X135987834Y-68281288D02*
X136337084Y-68293584D01*
X136343199Y-68478792D01*
X136349315Y-68664000D01*
X135966667Y-68664000D01*
X135966667Y-68305879D01*
X135792042Y-68299731D01*
X135617417Y-68293584D01*
X135617417Y-67933750D01*
X135802625Y-67927634D01*
X135987834Y-67921519D01*
X135987834Y-68281288D01*
X135987834Y-68281288D01*
G37*
X135987834Y-68281288D02*
X136337084Y-68293584D01*
X136343199Y-68478792D01*
X136349315Y-68664000D01*
X135966667Y-68664000D01*
X135966667Y-68305879D01*
X135792042Y-68299731D01*
X135617417Y-68293584D01*
X135617417Y-67933750D01*
X135802625Y-67927634D01*
X135987834Y-67921519D01*
X135987834Y-68281288D01*
G36*
X137628250Y-68653417D02*
X137453625Y-68659565D01*
X137279000Y-68665712D01*
X137279000Y-68304167D01*
X137640546Y-68304167D01*
X137628250Y-68653417D01*
X137628250Y-68653417D01*
G37*
X137628250Y-68653417D02*
X137453625Y-68659565D01*
X137279000Y-68665712D01*
X137279000Y-68304167D01*
X137640546Y-68304167D01*
X137628250Y-68653417D01*
G36*
X46579834Y-68283000D02*
X46220000Y-68283000D01*
X46220000Y-67923167D01*
X46579834Y-67923167D01*
X46579834Y-68283000D01*
X46579834Y-68283000D01*
G37*
X46579834Y-68283000D02*
X46220000Y-68283000D01*
X46220000Y-67923167D01*
X46579834Y-67923167D01*
X46579834Y-68283000D01*
G36*
X49162167Y-68283000D02*
X48800621Y-68283000D01*
X48812917Y-67933750D01*
X48987542Y-67927602D01*
X49162167Y-67921455D01*
X49162167Y-68283000D01*
X49162167Y-68283000D01*
G37*
X49162167Y-68283000D02*
X48800621Y-68283000D01*
X48812917Y-67933750D01*
X48987542Y-67927602D01*
X49162167Y-67921455D01*
X49162167Y-68283000D01*
G36*
X134675500Y-68283000D02*
X134313955Y-68283000D01*
X134320102Y-68108375D01*
X134326250Y-67933750D01*
X134500875Y-67927602D01*
X134675500Y-67921455D01*
X134675500Y-68283000D01*
X134675500Y-68283000D01*
G37*
X134675500Y-68283000D02*
X134313955Y-68283000D01*
X134320102Y-68108375D01*
X134326250Y-67933750D01*
X134500875Y-67927602D01*
X134675500Y-67921455D01*
X134675500Y-68283000D01*
G36*
X137279000Y-68283000D02*
X136919167Y-68283000D01*
X136919167Y-67923167D01*
X137279000Y-67923167D01*
X137279000Y-68283000D01*
X137279000Y-68283000D01*
G37*
X137279000Y-68283000D02*
X136919167Y-68283000D01*
X136919167Y-67923167D01*
X137279000Y-67923167D01*
X137279000Y-68283000D01*
G36*
X90077334Y-66991834D02*
X91876500Y-66991834D01*
X91876500Y-67351667D01*
X89717500Y-67351667D01*
X89717500Y-66272167D01*
X90077334Y-66272167D01*
X90077334Y-66991834D01*
X90077334Y-66991834D01*
G37*
X90077334Y-66991834D02*
X91876500Y-66991834D01*
X91876500Y-67351667D01*
X89717500Y-67351667D01*
X89717500Y-66272167D01*
X90077334Y-66272167D01*
X90077334Y-66991834D01*
G36*
X93972000Y-67351667D02*
X92532667Y-67351667D01*
X92532667Y-66991834D01*
X93972000Y-66991834D01*
X93972000Y-67351667D01*
X93972000Y-67351667D01*
G37*
X93972000Y-67351667D02*
X92532667Y-67351667D01*
X92532667Y-66991834D01*
X93972000Y-66991834D01*
X93972000Y-67351667D01*
G36*
X94331834Y-66991834D02*
X93972000Y-66991834D01*
X93972000Y-66272167D01*
X94331834Y-66272167D01*
X94331834Y-66991834D01*
X94331834Y-66991834D01*
G37*
X94331834Y-66991834D02*
X93972000Y-66991834D01*
X93972000Y-66272167D01*
X94331834Y-66272167D01*
X94331834Y-66991834D01*
G36*
X92532667Y-66991834D02*
X92172834Y-66991834D01*
X92172834Y-66272167D01*
X92532667Y-66272167D01*
X92532667Y-66991834D01*
X92532667Y-66991834D01*
G37*
X92532667Y-66991834D02*
X92172834Y-66991834D01*
X92172834Y-66272167D01*
X92532667Y-66272167D01*
X92532667Y-66991834D01*
G36*
X90077334Y-65192667D02*
X91516667Y-65192667D01*
X91516667Y-64832834D01*
X91876500Y-64832834D01*
X91876500Y-65912334D01*
X91516667Y-65912334D01*
X91516667Y-65552500D01*
X90077334Y-65552500D01*
X90077334Y-65912334D01*
X89717500Y-65912334D01*
X89717500Y-64832834D01*
X90077334Y-64832834D01*
X90077334Y-65192667D01*
X90077334Y-65192667D01*
G37*
X90077334Y-65192667D02*
X91516667Y-65192667D01*
X91516667Y-64832834D01*
X91876500Y-64832834D01*
X91876500Y-65912334D01*
X91516667Y-65912334D01*
X91516667Y-65552500D01*
X90077334Y-65552500D01*
X90077334Y-65912334D01*
X89717500Y-65912334D01*
X89717500Y-64832834D01*
X90077334Y-64832834D01*
X90077334Y-65192667D01*
G36*
X94331834Y-65192667D02*
X93252334Y-65192667D01*
X93252334Y-65552500D01*
X94331834Y-65552500D01*
X94331834Y-65912334D01*
X92172834Y-65912334D01*
X92172834Y-65552500D01*
X92892500Y-65552500D01*
X92892500Y-65192667D01*
X92172834Y-65192667D01*
X92172834Y-64832834D01*
X94331834Y-64832834D01*
X94331834Y-65192667D01*
X94331834Y-65192667D01*
G37*
X94331834Y-65192667D02*
X93252334Y-65192667D01*
X93252334Y-65552500D01*
X94331834Y-65552500D01*
X94331834Y-65912334D01*
X92172834Y-65912334D01*
X92172834Y-65552500D01*
X92892500Y-65552500D01*
X92892500Y-65192667D01*
X92172834Y-65192667D01*
X92172834Y-64832834D01*
X94331834Y-64832834D01*
X94331834Y-65192667D01*
G36*
X91876500Y-64473000D02*
X89717500Y-64473000D01*
X89717500Y-64113167D01*
X91516667Y-64113167D01*
X91516667Y-63753334D01*
X91876500Y-63753334D01*
X91876500Y-64473000D01*
X91876500Y-64473000D01*
G37*
X91876500Y-64473000D02*
X89717500Y-64473000D01*
X89717500Y-64113167D01*
X91516667Y-64113167D01*
X91516667Y-63753334D01*
X91876500Y-63753334D01*
X91876500Y-64473000D01*
G36*
X91516667Y-63753334D02*
X89717500Y-63753334D01*
X89717500Y-63393500D01*
X91516667Y-63393500D01*
X91516667Y-63753334D01*
X91516667Y-63753334D01*
G37*
X91516667Y-63753334D02*
X89717500Y-63753334D01*
X89717500Y-63393500D01*
X91516667Y-63393500D01*
X91516667Y-63753334D01*
G36*
X93972000Y-62483334D02*
X93972000Y-62843167D01*
X93612167Y-62843167D01*
X93612167Y-63203000D01*
X92532667Y-63203000D01*
X92532667Y-62843167D01*
X92172834Y-62843167D01*
X92172834Y-62483334D01*
X92532667Y-62483334D01*
X92532667Y-62843167D01*
X92892500Y-62843167D01*
X92892500Y-62483334D01*
X93252334Y-62483334D01*
X93252334Y-62843167D01*
X93612167Y-62843167D01*
X93612167Y-62483334D01*
X93252334Y-62483334D01*
X92892500Y-62483334D01*
X92532667Y-62483334D01*
X92532667Y-62123500D01*
X93612167Y-62123500D01*
X93612167Y-62483334D01*
X93972000Y-62483334D01*
X93972000Y-62483334D01*
G37*
X93972000Y-62483334D02*
X93972000Y-62843167D01*
X93612167Y-62843167D01*
X93612167Y-63203000D01*
X92532667Y-63203000D01*
X92532667Y-62843167D01*
X92172834Y-62843167D01*
X92172834Y-62483334D01*
X92532667Y-62483334D01*
X92532667Y-62843167D01*
X92892500Y-62843167D01*
X92892500Y-62483334D01*
X93252334Y-62483334D01*
X93252334Y-62843167D01*
X93612167Y-62843167D01*
X93612167Y-62483334D01*
X93252334Y-62483334D01*
X92892500Y-62483334D01*
X92532667Y-62483334D01*
X92532667Y-62123500D01*
X93612167Y-62123500D01*
X93612167Y-62483334D01*
X93972000Y-62483334D01*
G36*
X91516667Y-63012500D02*
X91156834Y-63012500D01*
X91156834Y-62292834D01*
X91516667Y-62292834D01*
X91516667Y-63012500D01*
X91516667Y-63012500D01*
G37*
X91516667Y-63012500D02*
X91156834Y-63012500D01*
X91156834Y-62292834D01*
X91516667Y-62292834D01*
X91516667Y-63012500D01*
G36*
X90077334Y-62652667D02*
X90437167Y-62652667D01*
X90437167Y-63012500D01*
X89717500Y-63012500D01*
X89717500Y-61933000D01*
X90077334Y-61933000D01*
X90077334Y-62652667D01*
X90077334Y-62652667D01*
G37*
X90077334Y-62652667D02*
X90437167Y-62652667D01*
X90437167Y-63012500D01*
X89717500Y-63012500D01*
X89717500Y-61933000D01*
X90077334Y-61933000D01*
X90077334Y-62652667D01*
G36*
X90797000Y-62652667D02*
X90437167Y-62652667D01*
X90437167Y-62292834D01*
X90797000Y-62292834D01*
X90797000Y-62652667D01*
X90797000Y-62652667D01*
G37*
X90797000Y-62652667D02*
X90437167Y-62652667D01*
X90437167Y-62292834D01*
X90797000Y-62292834D01*
X90797000Y-62652667D01*
G36*
X91156834Y-62292834D02*
X90797000Y-62292834D01*
X90797000Y-61933000D01*
X91156834Y-61933000D01*
X91156834Y-62292834D01*
X91156834Y-62292834D01*
G37*
X91156834Y-62292834D02*
X90797000Y-62292834D01*
X90797000Y-61933000D01*
X91156834Y-61933000D01*
X91156834Y-62292834D01*
G36*
X141438874Y-61335066D02*
X141441472Y-61397931D01*
X141443491Y-61499161D01*
X141445003Y-61640271D01*
X141445716Y-61747792D01*
X141446162Y-61897636D01*
X141445838Y-62032595D01*
X141444815Y-62147189D01*
X141443166Y-62235940D01*
X141440963Y-62293370D01*
X141438278Y-62313998D01*
X141438250Y-62314000D01*
X141430180Y-62295893D01*
X141427667Y-62262969D01*
X141421428Y-62216404D01*
X141405182Y-62146110D01*
X141385607Y-62077761D01*
X141349828Y-61911595D01*
X141348835Y-61756547D01*
X141377059Y-61634036D01*
X141395223Y-61567928D01*
X141412334Y-61477175D01*
X141425169Y-61379407D01*
X141426858Y-61361500D01*
X141431641Y-61318367D01*
X141435621Y-61309050D01*
X141438874Y-61335066D01*
X141438874Y-61335066D01*
G37*
X141438874Y-61335066D02*
X141441472Y-61397931D01*
X141443491Y-61499161D01*
X141445003Y-61640271D01*
X141445716Y-61747792D01*
X141446162Y-61897636D01*
X141445838Y-62032595D01*
X141444815Y-62147189D01*
X141443166Y-62235940D01*
X141440963Y-62293370D01*
X141438278Y-62313998D01*
X141438250Y-62314000D01*
X141430180Y-62295893D01*
X141427667Y-62262969D01*
X141421428Y-62216404D01*
X141405182Y-62146110D01*
X141385607Y-62077761D01*
X141349828Y-61911595D01*
X141348835Y-61756547D01*
X141377059Y-61634036D01*
X141395223Y-61567928D01*
X141412334Y-61477175D01*
X141425169Y-61379407D01*
X141426858Y-61361500D01*
X141431641Y-61318367D01*
X141435621Y-61309050D01*
X141438874Y-61335066D01*
G36*
X92532667Y-61403834D02*
X92172834Y-61403834D01*
X92172834Y-61044000D01*
X92532667Y-61044000D01*
X92532667Y-61403834D01*
X92532667Y-61403834D01*
G37*
X92532667Y-61403834D02*
X92172834Y-61403834D01*
X92172834Y-61044000D01*
X92532667Y-61044000D01*
X92532667Y-61403834D01*
G36*
X92532667Y-60684167D02*
X93612167Y-60684167D01*
X93612167Y-61044000D01*
X93972000Y-61044000D01*
X93972000Y-61403834D01*
X93612167Y-61403834D01*
X93612167Y-61763667D01*
X92532667Y-61763667D01*
X92532667Y-61405546D01*
X92881917Y-61393250D01*
X92888065Y-61218625D01*
X92894212Y-61044000D01*
X93252334Y-61044000D01*
X93252334Y-61403834D01*
X93612167Y-61403834D01*
X93612167Y-61044000D01*
X93252334Y-61044000D01*
X92894212Y-61044000D01*
X92532667Y-61044000D01*
X92532667Y-60684167D01*
X92532667Y-60684167D01*
G37*
X92532667Y-60684167D02*
X93612167Y-60684167D01*
X93612167Y-61044000D01*
X93972000Y-61044000D01*
X93972000Y-61403834D01*
X93612167Y-61403834D01*
X93612167Y-61763667D01*
X92532667Y-61763667D01*
X92532667Y-61405546D01*
X92881917Y-61393250D01*
X92888065Y-61218625D01*
X92894212Y-61044000D01*
X93252334Y-61044000D01*
X93252334Y-61403834D01*
X93612167Y-61403834D01*
X93612167Y-61044000D01*
X93252334Y-61044000D01*
X92894212Y-61044000D01*
X92532667Y-61044000D01*
X92532667Y-60684167D01*
G36*
X91516667Y-60853500D02*
X91516667Y-61213334D01*
X91156834Y-61213334D01*
X91156834Y-61573167D01*
X90077334Y-61573167D01*
X90077334Y-61213334D01*
X89717500Y-61213334D01*
X89717500Y-60853500D01*
X90077334Y-60853500D01*
X90077334Y-61213334D01*
X90437167Y-61213334D01*
X90437167Y-60853500D01*
X90797000Y-60853500D01*
X90797000Y-61213334D01*
X91156834Y-61213334D01*
X91156834Y-60853500D01*
X90797000Y-60853500D01*
X90437167Y-60853500D01*
X90077334Y-60853500D01*
X90077334Y-60493667D01*
X91156834Y-60493667D01*
X91156834Y-60853500D01*
X91516667Y-60853500D01*
X91516667Y-60853500D01*
G37*
X91516667Y-60853500D02*
X91516667Y-61213334D01*
X91156834Y-61213334D01*
X91156834Y-61573167D01*
X90077334Y-61573167D01*
X90077334Y-61213334D01*
X89717500Y-61213334D01*
X89717500Y-60853500D01*
X90077334Y-60853500D01*
X90077334Y-61213334D01*
X90437167Y-61213334D01*
X90437167Y-60853500D01*
X90797000Y-60853500D01*
X90797000Y-61213334D01*
X91156834Y-61213334D01*
X91156834Y-60853500D01*
X90797000Y-60853500D01*
X90437167Y-60853500D01*
X90077334Y-60853500D01*
X90077334Y-60493667D01*
X91156834Y-60493667D01*
X91156834Y-60853500D01*
X91516667Y-60853500D01*
G36*
X92707292Y-59228102D02*
X92881917Y-59234250D01*
X92888065Y-59408875D01*
X92894212Y-59583500D01*
X93252334Y-59583500D01*
X93252334Y-59943334D01*
X92892500Y-59943334D01*
X92892500Y-59583500D01*
X92533666Y-59583500D01*
X92522084Y-60313750D01*
X92172834Y-60326046D01*
X92172834Y-59583500D01*
X92532667Y-59583500D01*
X92532667Y-59221955D01*
X92707292Y-59228102D01*
X92707292Y-59228102D01*
G37*
X92707292Y-59228102D02*
X92881917Y-59234250D01*
X92888065Y-59408875D01*
X92894212Y-59583500D01*
X93252334Y-59583500D01*
X93252334Y-59943334D01*
X92892500Y-59943334D01*
X92892500Y-59583500D01*
X92533666Y-59583500D01*
X92522084Y-60313750D01*
X92172834Y-60326046D01*
X92172834Y-59583500D01*
X92532667Y-59583500D01*
X92532667Y-59221955D01*
X92707292Y-59228102D01*
G36*
X93426959Y-59228102D02*
X93601584Y-59234250D01*
X93607718Y-59408033D01*
X93613852Y-59581815D01*
X93787634Y-59587949D01*
X93961417Y-59594084D01*
X93961417Y-60313750D01*
X93612167Y-60326046D01*
X93612167Y-59583500D01*
X93252334Y-59583500D01*
X93252334Y-59221955D01*
X93426959Y-59228102D01*
X93426959Y-59228102D01*
G37*
X93426959Y-59228102D02*
X93601584Y-59234250D01*
X93607718Y-59408033D01*
X93613852Y-59581815D01*
X93787634Y-59587949D01*
X93961417Y-59594084D01*
X93961417Y-60313750D01*
X93612167Y-60326046D01*
X93612167Y-59583500D01*
X93252334Y-59583500D01*
X93252334Y-59221955D01*
X93426959Y-59228102D01*
G36*
X90077334Y-59414167D02*
X91516667Y-59414167D01*
X91516667Y-59774000D01*
X91156834Y-59774000D01*
X91156834Y-60133834D01*
X90797000Y-60133834D01*
X90797000Y-59774000D01*
X90077334Y-59774000D01*
X90077334Y-60133834D01*
X89717500Y-60133834D01*
X89717500Y-59054334D01*
X90077334Y-59054334D01*
X90077334Y-59414167D01*
X90077334Y-59414167D01*
G37*
X90077334Y-59414167D02*
X91516667Y-59414167D01*
X91516667Y-59774000D01*
X91156834Y-59774000D01*
X91156834Y-60133834D01*
X90797000Y-60133834D01*
X90797000Y-59774000D01*
X90077334Y-59774000D01*
X90077334Y-60133834D01*
X89717500Y-60133834D01*
X89717500Y-59054334D01*
X90077334Y-59054334D01*
X90077334Y-59414167D01*
G36*
X136855667Y-58821500D02*
X138041000Y-58821500D01*
X138041000Y-59117834D01*
X136239899Y-59117834D01*
X136252417Y-58832084D01*
X136405875Y-58825865D01*
X136559334Y-58819646D01*
X136559334Y-58525167D01*
X136855667Y-58525167D01*
X136855667Y-58821500D01*
X136855667Y-58821500D01*
G37*
X136855667Y-58821500D02*
X138041000Y-58821500D01*
X138041000Y-59117834D01*
X136239899Y-59117834D01*
X136252417Y-58832084D01*
X136405875Y-58825865D01*
X136559334Y-58819646D01*
X136559334Y-58525167D01*
X136855667Y-58525167D01*
X136855667Y-58821500D01*
G36*
X138041000Y-58525167D02*
X136855667Y-58525167D01*
X136855667Y-58228834D01*
X138041000Y-58228834D01*
X138041000Y-58525167D01*
X138041000Y-58525167D01*
G37*
X138041000Y-58525167D02*
X136855667Y-58525167D01*
X136855667Y-58228834D01*
X138041000Y-58228834D01*
X138041000Y-58525167D01*
G36*
X90797000Y-57593834D02*
X91516667Y-57593834D01*
X91516667Y-58694500D01*
X91156834Y-58694500D01*
X91156834Y-57974834D01*
X90797000Y-57974834D01*
X90797000Y-57593834D01*
X90797000Y-57593834D01*
G37*
X90797000Y-57593834D02*
X91516667Y-57593834D01*
X91516667Y-58694500D01*
X91156834Y-58694500D01*
X91156834Y-57974834D01*
X90797000Y-57974834D01*
X90797000Y-57593834D01*
G36*
X90797000Y-58334667D02*
X89717500Y-58334667D01*
X89717500Y-57974834D01*
X90797000Y-57974834D01*
X90797000Y-58334667D01*
X90797000Y-58334667D01*
G37*
X90797000Y-58334667D02*
X89717500Y-58334667D01*
X89717500Y-57974834D01*
X90797000Y-57974834D01*
X90797000Y-58334667D01*
G36*
X125150500Y-58059500D02*
X124854167Y-58059500D01*
X124854167Y-57445667D01*
X124557834Y-57445667D01*
X124557834Y-57149334D01*
X124261500Y-57149334D01*
X124261500Y-56556667D01*
X124557834Y-56556667D01*
X124557834Y-57149334D01*
X124854167Y-57149334D01*
X124854167Y-56556667D01*
X124557834Y-56556667D01*
X124557834Y-56260334D01*
X125150500Y-56260334D01*
X125150500Y-58059500D01*
X125150500Y-58059500D01*
G37*
X125150500Y-58059500D02*
X124854167Y-58059500D01*
X124854167Y-57445667D01*
X124557834Y-57445667D01*
X124557834Y-57149334D01*
X124261500Y-57149334D01*
X124261500Y-56556667D01*
X124557834Y-56556667D01*
X124557834Y-57149334D01*
X124854167Y-57149334D01*
X124854167Y-56556667D01*
X124557834Y-56556667D01*
X124557834Y-56260334D01*
X125150500Y-56260334D01*
X125150500Y-58059500D01*
G36*
X125743167Y-57763167D02*
X126358934Y-57763167D01*
X126352676Y-57906042D01*
X126346417Y-58048917D01*
X126059474Y-58054779D01*
X125953226Y-58055901D01*
X125862523Y-58054878D01*
X125795589Y-58051953D01*
X125760648Y-58047365D01*
X125757849Y-58045960D01*
X125750179Y-58018552D01*
X125744866Y-57961842D01*
X125743167Y-57898189D01*
X125743167Y-57765101D01*
X125600292Y-57758842D01*
X125457417Y-57752584D01*
X125445671Y-57149334D01*
X125743167Y-57149334D01*
X125743167Y-57763167D01*
X125743167Y-57763167D01*
G37*
X125743167Y-57763167D02*
X126358934Y-57763167D01*
X126352676Y-57906042D01*
X126346417Y-58048917D01*
X126059474Y-58054779D01*
X125953226Y-58055901D01*
X125862523Y-58054878D01*
X125795589Y-58051953D01*
X125760648Y-58047365D01*
X125757849Y-58045960D01*
X125750179Y-58018552D01*
X125744866Y-57961842D01*
X125743167Y-57898189D01*
X125743167Y-57765101D01*
X125600292Y-57758842D01*
X125457417Y-57752584D01*
X125445671Y-57149334D01*
X125743167Y-57149334D01*
X125743167Y-57763167D01*
G36*
X126060667Y-57149334D02*
X125743167Y-57149334D01*
X125743167Y-56853000D01*
X126060667Y-56853000D01*
X126060667Y-57149334D01*
X126060667Y-57149334D01*
G37*
X126060667Y-57149334D02*
X125743167Y-57149334D01*
X125743167Y-56853000D01*
X126060667Y-56853000D01*
X126060667Y-57149334D01*
G36*
X126357000Y-56853000D02*
X126060667Y-56853000D01*
X126060667Y-56556667D01*
X126357000Y-56556667D01*
X126357000Y-56853000D01*
X126357000Y-56853000D01*
G37*
X126357000Y-56853000D02*
X126060667Y-56853000D01*
X126060667Y-56556667D01*
X126357000Y-56556667D01*
X126357000Y-56853000D01*
G36*
X126060667Y-56556667D02*
X125446834Y-56556667D01*
X125446834Y-56260334D01*
X126060667Y-56260334D01*
X126060667Y-56556667D01*
X126060667Y-56556667D01*
G37*
X126060667Y-56556667D02*
X125446834Y-56556667D01*
X125446834Y-56260334D01*
X126060667Y-56260334D01*
X126060667Y-56556667D01*
G36*
X130907834Y-58059500D02*
X130611500Y-58059500D01*
X130611500Y-57466834D01*
X130315167Y-57466834D01*
X130315167Y-57149334D01*
X129997667Y-57149334D01*
X129997667Y-56556667D01*
X130315167Y-56556667D01*
X130315167Y-57149334D01*
X130611500Y-57149334D01*
X130611500Y-56556667D01*
X130315167Y-56556667D01*
X130315167Y-56260334D01*
X130907834Y-56260334D01*
X130907834Y-58059500D01*
X130907834Y-58059500D01*
G37*
X130907834Y-58059500D02*
X130611500Y-58059500D01*
X130611500Y-57466834D01*
X130315167Y-57466834D01*
X130315167Y-57149334D01*
X129997667Y-57149334D01*
X129997667Y-56556667D01*
X130315167Y-56556667D01*
X130315167Y-57149334D01*
X130611500Y-57149334D01*
X130611500Y-56556667D01*
X130315167Y-56556667D01*
X130315167Y-56260334D01*
X130907834Y-56260334D01*
X130907834Y-58059500D01*
G36*
X132093167Y-58059500D02*
X131500500Y-58059500D01*
X131500500Y-57763167D01*
X132093167Y-57763167D01*
X132093167Y-58059500D01*
X132093167Y-58059500D01*
G37*
X132093167Y-58059500D02*
X131500500Y-58059500D01*
X131500500Y-57763167D01*
X132093167Y-57763167D01*
X132093167Y-58059500D01*
G36*
X131500500Y-57763167D02*
X131204167Y-57763167D01*
X131204167Y-57149334D01*
X131500500Y-57149334D01*
X131500500Y-57763167D01*
X131500500Y-57763167D01*
G37*
X131500500Y-57763167D02*
X131204167Y-57763167D01*
X131204167Y-57149334D01*
X131500500Y-57149334D01*
X131500500Y-57763167D01*
G36*
X131796834Y-57149334D02*
X131500500Y-57149334D01*
X131500500Y-56853000D01*
X131796834Y-56853000D01*
X131796834Y-57149334D01*
X131796834Y-57149334D01*
G37*
X131796834Y-57149334D02*
X131500500Y-57149334D01*
X131500500Y-56853000D01*
X131796834Y-56853000D01*
X131796834Y-57149334D01*
G36*
X132093167Y-56853000D02*
X131796834Y-56853000D01*
X131796834Y-56556667D01*
X132093167Y-56556667D01*
X132093167Y-56853000D01*
X132093167Y-56853000D01*
G37*
X132093167Y-56853000D02*
X131796834Y-56853000D01*
X131796834Y-56556667D01*
X132093167Y-56556667D01*
X132093167Y-56853000D01*
G36*
X131796834Y-56556667D02*
X131204167Y-56556667D01*
X131204167Y-56260334D01*
X131796834Y-56260334D01*
X131796834Y-56556667D01*
X131796834Y-56556667D01*
G37*
X131796834Y-56556667D02*
X131204167Y-56556667D01*
X131204167Y-56260334D01*
X131796834Y-56260334D01*
X131796834Y-56556667D01*
G36*
X138041000Y-57318667D02*
X138041000Y-57636167D01*
X137744667Y-57636167D01*
X137744667Y-57932500D01*
X136559334Y-57932500D01*
X136559334Y-57638021D01*
X136405875Y-57631802D01*
X136252417Y-57625584D01*
X136252417Y-57329250D01*
X136405875Y-57323031D01*
X136513560Y-57318667D01*
X136559334Y-57318667D01*
X136559334Y-57636167D01*
X137744667Y-57636167D01*
X137744667Y-57318667D01*
X136559334Y-57318667D01*
X136513560Y-57318667D01*
X136559334Y-57316812D01*
X136559334Y-57022334D01*
X137744667Y-57022334D01*
X137744667Y-57318667D01*
X138041000Y-57318667D01*
X138041000Y-57318667D01*
G37*
X138041000Y-57318667D02*
X138041000Y-57636167D01*
X137744667Y-57636167D01*
X137744667Y-57932500D01*
X136559334Y-57932500D01*
X136559334Y-57638021D01*
X136405875Y-57631802D01*
X136252417Y-57625584D01*
X136252417Y-57329250D01*
X136405875Y-57323031D01*
X136513560Y-57318667D01*
X136559334Y-57318667D01*
X136559334Y-57636167D01*
X137744667Y-57636167D01*
X137744667Y-57318667D01*
X136559334Y-57318667D01*
X136513560Y-57318667D01*
X136559334Y-57316812D01*
X136559334Y-57022334D01*
X137744667Y-57022334D01*
X137744667Y-57318667D01*
X138041000Y-57318667D01*
G36*
X123499500Y-57085834D02*
X123986334Y-57085834D01*
X123986334Y-57234000D01*
X123499500Y-57234000D01*
X123499500Y-57742000D01*
X123330167Y-57742000D01*
X123330167Y-57234000D01*
X122843334Y-57234000D01*
X122843334Y-57085834D01*
X123330167Y-57085834D01*
X123330167Y-56599000D01*
X123499500Y-56599000D01*
X123499500Y-57085834D01*
X123499500Y-57085834D01*
G37*
X123499500Y-57085834D02*
X123986334Y-57085834D01*
X123986334Y-57234000D01*
X123499500Y-57234000D01*
X123499500Y-57742000D01*
X123330167Y-57742000D01*
X123330167Y-57234000D01*
X122843334Y-57234000D01*
X122843334Y-57085834D01*
X123330167Y-57085834D01*
X123330167Y-56599000D01*
X123499500Y-56599000D01*
X123499500Y-57085834D01*
G36*
X129743667Y-57255167D02*
X128600667Y-57255167D01*
X128600667Y-57085834D01*
X129743667Y-57085834D01*
X129743667Y-57255167D01*
X129743667Y-57255167D01*
G37*
X129743667Y-57255167D02*
X128600667Y-57255167D01*
X128600667Y-57085834D01*
X129743667Y-57085834D01*
X129743667Y-57255167D01*
G36*
X136559334Y-56429667D02*
X138041000Y-56429667D01*
X138041000Y-56726000D01*
X136241834Y-56726000D01*
X136241834Y-55837000D01*
X136559334Y-55837000D01*
X136559334Y-56429667D01*
X136559334Y-56429667D01*
G37*
X136559334Y-56429667D02*
X138041000Y-56429667D01*
X138041000Y-56726000D01*
X136241834Y-56726000D01*
X136241834Y-55837000D01*
X136559334Y-55837000D01*
X136559334Y-56429667D01*
G36*
X84679834Y-54988479D02*
X84986750Y-55000917D01*
X84986750Y-55593584D01*
X84536959Y-55599296D01*
X84087167Y-55605009D01*
X84087167Y-55307834D01*
X84679834Y-55307834D01*
X84679834Y-54990334D01*
X84383500Y-54990334D01*
X84383500Y-54694000D01*
X84679834Y-54694000D01*
X84679834Y-54988479D01*
X84679834Y-54988479D01*
G37*
X84679834Y-54988479D02*
X84986750Y-55000917D01*
X84986750Y-55593584D01*
X84536959Y-55599296D01*
X84087167Y-55605009D01*
X84087167Y-55307834D01*
X84679834Y-55307834D01*
X84679834Y-54990334D01*
X84383500Y-54990334D01*
X84383500Y-54694000D01*
X84679834Y-54694000D01*
X84679834Y-54988479D01*
G36*
X84383500Y-54694000D02*
X84087167Y-54694000D01*
X84087167Y-54397667D01*
X84383500Y-54397667D01*
X84383500Y-54694000D01*
X84383500Y-54694000D01*
G37*
X84383500Y-54694000D02*
X84087167Y-54694000D01*
X84087167Y-54397667D01*
X84383500Y-54397667D01*
X84383500Y-54694000D01*
G36*
X84997334Y-54397667D02*
X84383500Y-54397667D01*
X84383500Y-54101334D01*
X84997334Y-54101334D01*
X84997334Y-54397667D01*
X84997334Y-54397667D01*
G37*
X84997334Y-54397667D02*
X84383500Y-54397667D01*
X84383500Y-54101334D01*
X84997334Y-54101334D01*
X84997334Y-54397667D01*
G36*
X86182667Y-54101334D02*
X86182667Y-55604167D01*
X85886334Y-55604167D01*
X85886334Y-54990334D01*
X85590000Y-54990334D01*
X85590000Y-55604167D01*
X85293667Y-55604167D01*
X85293667Y-54101334D01*
X85590000Y-54101334D01*
X85590000Y-54694000D01*
X85886334Y-54694000D01*
X85886334Y-54101334D01*
X85590000Y-54101334D01*
X85590000Y-53805000D01*
X85886334Y-53805000D01*
X85886334Y-54101334D01*
X86182667Y-54101334D01*
X86182667Y-54101334D01*
G37*
X86182667Y-54101334D02*
X86182667Y-55604167D01*
X85886334Y-55604167D01*
X85886334Y-54990334D01*
X85590000Y-54990334D01*
X85590000Y-55604167D01*
X85293667Y-55604167D01*
X85293667Y-54101334D01*
X85590000Y-54101334D01*
X85590000Y-54694000D01*
X85886334Y-54694000D01*
X85886334Y-54101334D01*
X85590000Y-54101334D01*
X85590000Y-53805000D01*
X85886334Y-53805000D01*
X85886334Y-54101334D01*
X86182667Y-54101334D01*
G36*
X98353500Y-54397667D02*
X98649834Y-54397667D01*
X98649834Y-54694000D01*
X98353500Y-54694000D01*
X98353500Y-55307834D01*
X98651768Y-55307834D01*
X98639250Y-55593584D01*
X98189459Y-55599296D01*
X97739667Y-55605009D01*
X97739667Y-55307834D01*
X98036000Y-55307834D01*
X98036000Y-54101334D01*
X98353500Y-54101334D01*
X98353500Y-54397667D01*
X98353500Y-54397667D01*
G37*
X98353500Y-54397667D02*
X98649834Y-54397667D01*
X98649834Y-54694000D01*
X98353500Y-54694000D01*
X98353500Y-55307834D01*
X98651768Y-55307834D01*
X98639250Y-55593584D01*
X98189459Y-55599296D01*
X97739667Y-55605009D01*
X97739667Y-55307834D01*
X98036000Y-55307834D01*
X98036000Y-54101334D01*
X98353500Y-54101334D01*
X98353500Y-54397667D01*
G36*
X99835167Y-54101334D02*
X99835167Y-55604167D01*
X99538834Y-55604167D01*
X99538834Y-54990334D01*
X99242500Y-54990334D01*
X99242500Y-55604167D01*
X98946167Y-55604167D01*
X98946167Y-54101334D01*
X99242500Y-54101334D01*
X99242500Y-54694000D01*
X99538834Y-54694000D01*
X99538834Y-54101334D01*
X99242500Y-54101334D01*
X99242500Y-53805000D01*
X99538834Y-53805000D01*
X99538834Y-54101334D01*
X99835167Y-54101334D01*
X99835167Y-54101334D01*
G37*
X99835167Y-54101334D02*
X99835167Y-55604167D01*
X99538834Y-55604167D01*
X99538834Y-54990334D01*
X99242500Y-54990334D01*
X99242500Y-55604167D01*
X98946167Y-55604167D01*
X98946167Y-54101334D01*
X99242500Y-54101334D01*
X99242500Y-54694000D01*
X99538834Y-54694000D01*
X99538834Y-54101334D01*
X99242500Y-54101334D01*
X99242500Y-53805000D01*
X99538834Y-53805000D01*
X99538834Y-54101334D01*
X99835167Y-54101334D01*
G36*
X138041000Y-54926834D02*
X136559334Y-54926834D01*
X136559334Y-55223167D01*
X138041000Y-55223167D01*
X138041000Y-55540667D01*
X137155528Y-55540667D01*
X136965896Y-55540340D01*
X136789502Y-55539406D01*
X136630822Y-55537936D01*
X136494330Y-55535999D01*
X136384502Y-55533666D01*
X136305812Y-55531007D01*
X136262735Y-55528092D01*
X136255945Y-55526556D01*
X136251724Y-55502063D01*
X136248007Y-55441714D01*
X136244995Y-55351984D01*
X136242888Y-55239351D01*
X136241888Y-55110288D01*
X136241834Y-55071472D01*
X136241834Y-54630500D01*
X138041000Y-54630500D01*
X138041000Y-54926834D01*
X138041000Y-54926834D01*
G37*
X138041000Y-54926834D02*
X136559334Y-54926834D01*
X136559334Y-55223167D01*
X138041000Y-55223167D01*
X138041000Y-55540667D01*
X137155528Y-55540667D01*
X136965896Y-55540340D01*
X136789502Y-55539406D01*
X136630822Y-55537936D01*
X136494330Y-55535999D01*
X136384502Y-55533666D01*
X136305812Y-55531007D01*
X136262735Y-55528092D01*
X136255945Y-55526556D01*
X136251724Y-55502063D01*
X136248007Y-55441714D01*
X136244995Y-55351984D01*
X136242888Y-55239351D01*
X136241888Y-55110288D01*
X136241834Y-55071472D01*
X136241834Y-54630500D01*
X138041000Y-54630500D01*
X138041000Y-54926834D01*
G36*
X138041000Y-53741500D02*
X137744667Y-53741500D01*
X137744667Y-54037834D01*
X138041000Y-54037834D01*
X138041000Y-54334167D01*
X137155528Y-54334167D01*
X136965896Y-54333840D01*
X136789502Y-54332906D01*
X136630822Y-54331436D01*
X136494330Y-54329499D01*
X136384502Y-54327166D01*
X136305812Y-54324507D01*
X136262735Y-54321592D01*
X136255945Y-54320056D01*
X136248600Y-54292987D01*
X136243496Y-54236487D01*
X136241834Y-54171889D01*
X136241834Y-54037834D01*
X137152000Y-54037834D01*
X137152000Y-53742342D01*
X136702209Y-53736629D01*
X136252417Y-53730917D01*
X136252417Y-53434584D01*
X137146709Y-53429062D01*
X138041000Y-53423541D01*
X138041000Y-53741500D01*
X138041000Y-53741500D01*
G37*
X138041000Y-53741500D02*
X137744667Y-53741500D01*
X137744667Y-54037834D01*
X138041000Y-54037834D01*
X138041000Y-54334167D01*
X137155528Y-54334167D01*
X136965896Y-54333840D01*
X136789502Y-54332906D01*
X136630822Y-54331436D01*
X136494330Y-54329499D01*
X136384502Y-54327166D01*
X136305812Y-54324507D01*
X136262735Y-54321592D01*
X136255945Y-54320056D01*
X136248600Y-54292987D01*
X136243496Y-54236487D01*
X136241834Y-54171889D01*
X136241834Y-54037834D01*
X137152000Y-54037834D01*
X137152000Y-53742342D01*
X136702209Y-53736629D01*
X136252417Y-53730917D01*
X136252417Y-53434584D01*
X137146709Y-53429062D01*
X138041000Y-53423541D01*
X138041000Y-53741500D01*
G36*
X136559334Y-52831334D02*
X137152000Y-52831334D01*
X137152000Y-52535000D01*
X137448334Y-52535000D01*
X137448334Y-52831334D01*
X137744667Y-52831334D01*
X137744667Y-52238667D01*
X138041000Y-52238667D01*
X138041000Y-53127667D01*
X136241834Y-53127667D01*
X136241834Y-52238667D01*
X136559334Y-52238667D01*
X136559334Y-52831334D01*
X136559334Y-52831334D01*
G37*
X136559334Y-52831334D02*
X137152000Y-52831334D01*
X137152000Y-52535000D01*
X137448334Y-52535000D01*
X137448334Y-52831334D01*
X137744667Y-52831334D01*
X137744667Y-52238667D01*
X138041000Y-52238667D01*
X138041000Y-53127667D01*
X136241834Y-53127667D01*
X136241834Y-52238667D01*
X136559334Y-52238667D01*
X136559334Y-52831334D01*
G36*
X83790834Y-52958334D02*
X83198167Y-52958334D01*
X83198167Y-52663934D01*
X83341042Y-52657676D01*
X83483917Y-52651417D01*
X83489538Y-52053459D01*
X83495159Y-51455500D01*
X83198167Y-51455500D01*
X83198167Y-52663855D01*
X83044709Y-52657636D01*
X82891250Y-52651417D01*
X82891250Y-51466084D01*
X83044709Y-51459865D01*
X83198167Y-51453646D01*
X83198167Y-51159167D01*
X83790834Y-51159167D01*
X83790834Y-52958334D01*
X83790834Y-52958334D01*
G37*
X83790834Y-52958334D02*
X83198167Y-52958334D01*
X83198167Y-52663934D01*
X83341042Y-52657676D01*
X83483917Y-52651417D01*
X83489538Y-52053459D01*
X83495159Y-51455500D01*
X83198167Y-51455500D01*
X83198167Y-52663855D01*
X83044709Y-52657636D01*
X82891250Y-52651417D01*
X82891250Y-51466084D01*
X83044709Y-51459865D01*
X83198167Y-51453646D01*
X83198167Y-51159167D01*
X83790834Y-51159167D01*
X83790834Y-52958334D01*
G36*
X84383500Y-51159167D02*
X84997793Y-51159167D01*
X84992272Y-52053459D01*
X84986750Y-52947750D01*
X84690417Y-52947750D01*
X84684854Y-52201625D01*
X84679292Y-51455500D01*
X84383500Y-51455500D01*
X84383500Y-51159167D01*
X84383500Y-51159167D01*
G37*
X84383500Y-51159167D02*
X84997793Y-51159167D01*
X84992272Y-52053459D01*
X84986750Y-52947750D01*
X84690417Y-52947750D01*
X84684854Y-52201625D01*
X84679292Y-51455500D01*
X84383500Y-51455500D01*
X84383500Y-51159167D01*
G36*
X84383500Y-52958334D02*
X84087167Y-52958334D01*
X84087167Y-51455500D01*
X84383500Y-51455500D01*
X84383500Y-52958334D01*
X84383500Y-52958334D01*
G37*
X84383500Y-52958334D02*
X84087167Y-52958334D01*
X84087167Y-51455500D01*
X84383500Y-51455500D01*
X84383500Y-52958334D01*
G36*
X85590000Y-52662000D02*
X85886334Y-52662000D01*
X85886334Y-52958334D01*
X85293667Y-52958334D01*
X85293667Y-52048167D01*
X85590000Y-52048167D01*
X85590000Y-52662000D01*
X85590000Y-52662000D01*
G37*
X85590000Y-52662000D02*
X85886334Y-52662000D01*
X85886334Y-52958334D01*
X85293667Y-52958334D01*
X85293667Y-52048167D01*
X85590000Y-52048167D01*
X85590000Y-52662000D01*
G36*
X86182667Y-52662000D02*
X85886334Y-52662000D01*
X85886334Y-51455500D01*
X86182667Y-51455500D01*
X86182667Y-52662000D01*
X86182667Y-52662000D01*
G37*
X86182667Y-52662000D02*
X85886334Y-52662000D01*
X85886334Y-51455500D01*
X86182667Y-51455500D01*
X86182667Y-52662000D01*
G36*
X85886334Y-51455500D02*
X85293667Y-51455500D01*
X85293667Y-51159167D01*
X85886334Y-51159167D01*
X85886334Y-51455500D01*
X85886334Y-51455500D01*
G37*
X85886334Y-51455500D02*
X85293667Y-51455500D01*
X85293667Y-51159167D01*
X85886334Y-51159167D01*
X85886334Y-51455500D01*
G36*
X100005662Y-52048167D02*
X99999790Y-52349792D01*
X99993917Y-52651417D01*
X99851987Y-52657654D01*
X99710058Y-52663891D01*
X99703821Y-52805821D01*
X99697584Y-52947750D01*
X99411834Y-52960268D01*
X99411834Y-52663855D01*
X99258375Y-52657636D01*
X99104917Y-52651417D01*
X99104917Y-52058750D01*
X99258375Y-52052531D01*
X99366060Y-52048167D01*
X99411834Y-52048167D01*
X99411834Y-52662000D01*
X99708167Y-52662000D01*
X99708167Y-52048167D01*
X99411834Y-52048167D01*
X99366060Y-52048167D01*
X99411834Y-52046312D01*
X99411834Y-51751834D01*
X99708167Y-51751834D01*
X99708167Y-52048167D01*
X100005662Y-52048167D01*
X100005662Y-52048167D01*
G37*
X100005662Y-52048167D02*
X99999790Y-52349792D01*
X99993917Y-52651417D01*
X99851987Y-52657654D01*
X99710058Y-52663891D01*
X99703821Y-52805821D01*
X99697584Y-52947750D01*
X99411834Y-52960268D01*
X99411834Y-52663855D01*
X99258375Y-52657636D01*
X99104917Y-52651417D01*
X99104917Y-52058750D01*
X99258375Y-52052531D01*
X99366060Y-52048167D01*
X99411834Y-52048167D01*
X99411834Y-52662000D01*
X99708167Y-52662000D01*
X99708167Y-52048167D01*
X99411834Y-52048167D01*
X99366060Y-52048167D01*
X99411834Y-52046312D01*
X99411834Y-51751834D01*
X99708167Y-51751834D01*
X99708167Y-52048167D01*
X100005662Y-52048167D01*
G36*
X100597167Y-51751834D02*
X101189834Y-51751834D01*
X101189834Y-52958334D01*
X100893500Y-52958334D01*
X100893500Y-52048167D01*
X100597167Y-52048167D01*
X100597167Y-51751834D01*
X100597167Y-51751834D01*
G37*
X100597167Y-51751834D02*
X101189834Y-51751834D01*
X101189834Y-52958334D01*
X100893500Y-52958334D01*
X100893500Y-52048167D01*
X100597167Y-52048167D01*
X100597167Y-51751834D01*
G36*
X100597167Y-52958334D02*
X100300834Y-52958334D01*
X100300834Y-52048167D01*
X100597167Y-52048167D01*
X100597167Y-52958334D01*
X100597167Y-52958334D01*
G37*
X100597167Y-52958334D02*
X100300834Y-52958334D01*
X100300834Y-52048167D01*
X100597167Y-52048167D01*
X100597167Y-52958334D01*
G36*
X47934500Y-51349667D02*
X48823500Y-51349667D01*
X48823500Y-51963500D01*
X48527167Y-51963500D01*
X48527167Y-51667167D01*
X47934500Y-51667167D01*
X47934500Y-51963500D01*
X47638167Y-51963500D01*
X47638167Y-51667167D01*
X47341834Y-51667167D01*
X47341834Y-51349667D01*
X47638167Y-51349667D01*
X47638167Y-51053334D01*
X47934500Y-51053334D01*
X47934500Y-51349667D01*
X47934500Y-51349667D01*
G37*
X47934500Y-51349667D02*
X48823500Y-51349667D01*
X48823500Y-51963500D01*
X48527167Y-51963500D01*
X48527167Y-51667167D01*
X47934500Y-51667167D01*
X47934500Y-51963500D01*
X47638167Y-51963500D01*
X47638167Y-51667167D01*
X47341834Y-51667167D01*
X47341834Y-51349667D01*
X47638167Y-51349667D01*
X47638167Y-51053334D01*
X47934500Y-51053334D01*
X47934500Y-51349667D01*
G36*
X48823500Y-50757000D02*
X48527167Y-50757000D01*
X48527167Y-50460667D01*
X48823500Y-50460667D01*
X48823500Y-50757000D01*
X48823500Y-50757000D01*
G37*
X48823500Y-50757000D02*
X48527167Y-50757000D01*
X48527167Y-50460667D01*
X48823500Y-50460667D01*
X48823500Y-50757000D01*
G36*
X47934500Y-50757000D02*
X47638167Y-50757000D01*
X47638167Y-50460667D01*
X47934500Y-50460667D01*
X47934500Y-50757000D01*
X47934500Y-50757000D01*
G37*
X47934500Y-50757000D02*
X47638167Y-50757000D01*
X47638167Y-50460667D01*
X47934500Y-50460667D01*
X47934500Y-50757000D01*
G36*
X48527167Y-50460667D02*
X47934500Y-50460667D01*
X47934500Y-50164334D01*
X48527167Y-50164334D01*
X48527167Y-50460667D01*
X48527167Y-50460667D01*
G37*
X48527167Y-50460667D02*
X47934500Y-50460667D01*
X47934500Y-50164334D01*
X48527167Y-50164334D01*
X48527167Y-50460667D01*
G36*
X47934500Y-50164334D02*
X47638167Y-50164334D01*
X47638167Y-49868000D01*
X47934500Y-49868000D01*
X47934500Y-50164334D01*
X47934500Y-50164334D01*
G37*
X47934500Y-50164334D02*
X47638167Y-50164334D01*
X47638167Y-49868000D01*
X47934500Y-49868000D01*
X47934500Y-50164334D01*
G36*
X48823500Y-50164334D02*
X48527167Y-50164334D01*
X48527167Y-49868000D01*
X48823500Y-49868000D01*
X48823500Y-50164334D01*
X48823500Y-50164334D01*
G37*
X48823500Y-50164334D02*
X48527167Y-50164334D01*
X48527167Y-49868000D01*
X48823500Y-49868000D01*
X48823500Y-50164334D01*
G36*
X98353500Y-50397167D02*
X97739667Y-50397167D01*
X97739667Y-50100834D01*
X98353500Y-50100834D01*
X98353500Y-50397167D01*
X98353500Y-50397167D01*
G37*
X98353500Y-50397167D02*
X97739667Y-50397167D01*
X97739667Y-50100834D01*
X98353500Y-50100834D01*
X98353500Y-50397167D01*
G36*
X98349136Y-49354709D02*
X98355355Y-49508167D01*
X98649834Y-49508167D01*
X98649834Y-50100834D01*
X98353500Y-50100834D01*
X98353500Y-49509329D01*
X98051875Y-49503456D01*
X97750250Y-49497584D01*
X97750250Y-49201250D01*
X98342917Y-49201250D01*
X98349136Y-49354709D01*
X98349136Y-49354709D01*
G37*
X98349136Y-49354709D02*
X98355355Y-49508167D01*
X98649834Y-49508167D01*
X98649834Y-50100834D01*
X98353500Y-50100834D01*
X98353500Y-49509329D01*
X98051875Y-49503456D01*
X97750250Y-49497584D01*
X97750250Y-49201250D01*
X98342917Y-49201250D01*
X98349136Y-49354709D01*
G36*
X99538834Y-50397167D02*
X98946167Y-50397167D01*
X98946167Y-50100834D01*
X99538834Y-50100834D01*
X99538834Y-50397167D01*
X99538834Y-50397167D01*
G37*
X99538834Y-50397167D02*
X98946167Y-50397167D01*
X98946167Y-50100834D01*
X99538834Y-50100834D01*
X99538834Y-50397167D01*
G36*
X99835167Y-50100834D02*
X99538834Y-50100834D01*
X99538834Y-49508167D01*
X99835167Y-49508167D01*
X99835167Y-50100834D01*
X99835167Y-50100834D01*
G37*
X99835167Y-50100834D02*
X99538834Y-50100834D01*
X99538834Y-49508167D01*
X99835167Y-49508167D01*
X99835167Y-50100834D01*
G36*
X99538834Y-49508167D02*
X98946167Y-49508167D01*
X98946167Y-49190667D01*
X99538834Y-49190667D01*
X99538834Y-49508167D01*
X99538834Y-49508167D01*
G37*
X99538834Y-49508167D02*
X98946167Y-49508167D01*
X98946167Y-49190667D01*
X99538834Y-49190667D01*
X99538834Y-49508167D01*
G36*
X100284627Y-48602358D02*
X100438417Y-48608584D01*
X100449659Y-49804500D01*
X100745334Y-49804500D01*
X100745334Y-48598000D01*
X101041667Y-48598000D01*
X101041667Y-50397167D01*
X100745334Y-50397167D01*
X100745334Y-50100834D01*
X100449000Y-50100834D01*
X100449000Y-49806355D01*
X100142084Y-49793917D01*
X100136461Y-49195025D01*
X100130838Y-48596132D01*
X100284627Y-48602358D01*
X100284627Y-48602358D01*
G37*
X100284627Y-48602358D02*
X100438417Y-48608584D01*
X100449659Y-49804500D01*
X100745334Y-49804500D01*
X100745334Y-48598000D01*
X101041667Y-48598000D01*
X101041667Y-50397167D01*
X100745334Y-50397167D01*
X100745334Y-50100834D01*
X100449000Y-50100834D01*
X100449000Y-49806355D01*
X100142084Y-49793917D01*
X100136461Y-49195025D01*
X100130838Y-48596132D01*
X100284627Y-48602358D01*
G36*
X42466309Y-44041528D02*
X42466805Y-44106749D01*
X42467319Y-44211947D01*
X42467849Y-44358006D01*
X42468207Y-44477472D01*
X42469035Y-44825035D01*
X42469676Y-45205940D01*
X42470130Y-45611669D01*
X42470399Y-46033701D01*
X42470481Y-46463518D01*
X42470377Y-46892600D01*
X42470086Y-47312428D01*
X42469610Y-47714482D01*
X42468947Y-48090243D01*
X42468207Y-48393305D01*
X42467667Y-48565562D01*
X42467142Y-48696379D01*
X42466633Y-48786648D01*
X42466144Y-48837263D01*
X42465677Y-48849118D01*
X42465235Y-48823104D01*
X42464819Y-48760116D01*
X42464433Y-48661046D01*
X42464079Y-48526787D01*
X42463759Y-48358233D01*
X42463477Y-48156276D01*
X42463233Y-47921810D01*
X42463032Y-47655728D01*
X42462876Y-47358922D01*
X42462766Y-47032287D01*
X42462706Y-46676714D01*
X42462694Y-46428417D01*
X42462721Y-46054559D01*
X42462798Y-45709162D01*
X42462924Y-45393112D01*
X42463097Y-45107293D01*
X42463313Y-44852592D01*
X42463570Y-44629895D01*
X42463865Y-44440088D01*
X42464197Y-44284056D01*
X42464562Y-44162685D01*
X42464958Y-44076861D01*
X42465383Y-44027469D01*
X42465834Y-44015396D01*
X42466309Y-44041528D01*
X42466309Y-44041528D01*
G37*
X42466309Y-44041528D02*
X42466805Y-44106749D01*
X42467319Y-44211947D01*
X42467849Y-44358006D01*
X42468207Y-44477472D01*
X42469035Y-44825035D01*
X42469676Y-45205940D01*
X42470130Y-45611669D01*
X42470399Y-46033701D01*
X42470481Y-46463518D01*
X42470377Y-46892600D01*
X42470086Y-47312428D01*
X42469610Y-47714482D01*
X42468947Y-48090243D01*
X42468207Y-48393305D01*
X42467667Y-48565562D01*
X42467142Y-48696379D01*
X42466633Y-48786648D01*
X42466144Y-48837263D01*
X42465677Y-48849118D01*
X42465235Y-48823104D01*
X42464819Y-48760116D01*
X42464433Y-48661046D01*
X42464079Y-48526787D01*
X42463759Y-48358233D01*
X42463477Y-48156276D01*
X42463233Y-47921810D01*
X42463032Y-47655728D01*
X42462876Y-47358922D01*
X42462766Y-47032287D01*
X42462706Y-46676714D01*
X42462694Y-46428417D01*
X42462721Y-46054559D01*
X42462798Y-45709162D01*
X42462924Y-45393112D01*
X42463097Y-45107293D01*
X42463313Y-44852592D01*
X42463570Y-44629895D01*
X42463865Y-44440088D01*
X42464197Y-44284056D01*
X42464562Y-44162685D01*
X42464958Y-44076861D01*
X42465383Y-44027469D01*
X42465834Y-44015396D01*
X42466309Y-44041528D01*
G36*
X84383500Y-49698667D02*
X84679834Y-49698667D01*
X84679834Y-48513334D01*
X84997793Y-48513334D01*
X84992272Y-49407625D01*
X84986750Y-50301917D01*
X84848270Y-50308075D01*
X84775122Y-50309100D01*
X84719597Y-50305746D01*
X84694812Y-50299256D01*
X84686985Y-50271683D01*
X84681565Y-50214843D01*
X84679834Y-50151189D01*
X84679834Y-50018101D01*
X84536959Y-50011842D01*
X84394084Y-50005584D01*
X84387865Y-49852125D01*
X84381646Y-49698667D01*
X84087167Y-49698667D01*
X84087167Y-48513334D01*
X84383500Y-48513334D01*
X84383500Y-49698667D01*
X84383500Y-49698667D01*
G37*
X84383500Y-49698667D02*
X84679834Y-49698667D01*
X84679834Y-48513334D01*
X84997793Y-48513334D01*
X84992272Y-49407625D01*
X84986750Y-50301917D01*
X84848270Y-50308075D01*
X84775122Y-50309100D01*
X84719597Y-50305746D01*
X84694812Y-50299256D01*
X84686985Y-50271683D01*
X84681565Y-50214843D01*
X84679834Y-50151189D01*
X84679834Y-50018101D01*
X84536959Y-50011842D01*
X84394084Y-50005584D01*
X84387865Y-49852125D01*
X84381646Y-49698667D01*
X84087167Y-49698667D01*
X84087167Y-48513334D01*
X84383500Y-48513334D01*
X84383500Y-49698667D01*
G36*
X86182667Y-50312500D02*
X85590000Y-50312500D01*
X85590000Y-50016167D01*
X86182667Y-50016167D01*
X86182667Y-50312500D01*
X86182667Y-50312500D01*
G37*
X86182667Y-50312500D02*
X85590000Y-50312500D01*
X85590000Y-50016167D01*
X86182667Y-50016167D01*
X86182667Y-50312500D01*
G36*
X85590000Y-50016167D02*
X85293667Y-50016167D01*
X85293667Y-49698667D01*
X85590000Y-49698667D01*
X85590000Y-50016167D01*
X85590000Y-50016167D01*
G37*
X85590000Y-50016167D02*
X85293667Y-50016167D01*
X85293667Y-49698667D01*
X85590000Y-49698667D01*
X85590000Y-50016167D01*
G36*
X86182667Y-49698667D02*
X85590000Y-49698667D01*
X85590000Y-49402334D01*
X85886334Y-49402334D01*
X85886334Y-49106000D01*
X85293667Y-49106000D01*
X85293667Y-48809667D01*
X86182667Y-48809667D01*
X86182667Y-49698667D01*
X86182667Y-49698667D01*
G37*
X86182667Y-49698667D02*
X85590000Y-49698667D01*
X85590000Y-49402334D01*
X85886334Y-49402334D01*
X85886334Y-49106000D01*
X85293667Y-49106000D01*
X85293667Y-48809667D01*
X86182667Y-48809667D01*
X86182667Y-49698667D01*
G36*
X48823500Y-49573601D02*
X48680625Y-49567342D01*
X48537750Y-49561084D01*
X48531877Y-49259459D01*
X48526005Y-48957834D01*
X47934500Y-48957834D01*
X47934500Y-49254167D01*
X47638167Y-49254167D01*
X47638167Y-48957834D01*
X47342996Y-48957834D01*
X47331250Y-49561084D01*
X47188085Y-49567349D01*
X47103252Y-49568226D01*
X47053955Y-49561113D01*
X47034163Y-49545585D01*
X47031147Y-49516602D01*
X47029035Y-49452206D01*
X47027904Y-49359308D01*
X47027831Y-49244820D01*
X47028892Y-49115654D01*
X47029162Y-49094820D01*
X47034917Y-48672084D01*
X47929209Y-48666562D01*
X48823500Y-48661041D01*
X48823500Y-49573601D01*
X48823500Y-49573601D01*
G37*
X48823500Y-49573601D02*
X48680625Y-49567342D01*
X48537750Y-49561084D01*
X48531877Y-49259459D01*
X48526005Y-48957834D01*
X47934500Y-48957834D01*
X47934500Y-49254167D01*
X47638167Y-49254167D01*
X47638167Y-48957834D01*
X47342996Y-48957834D01*
X47331250Y-49561084D01*
X47188085Y-49567349D01*
X47103252Y-49568226D01*
X47053955Y-49561113D01*
X47034163Y-49545585D01*
X47031147Y-49516602D01*
X47029035Y-49452206D01*
X47027904Y-49359308D01*
X47027831Y-49244820D01*
X47028892Y-49115654D01*
X47029162Y-49094820D01*
X47034917Y-48672084D01*
X47929209Y-48666562D01*
X48823500Y-48661041D01*
X48823500Y-49573601D01*
G36*
X129997667Y-46693000D02*
X129383834Y-46693000D01*
X129383834Y-46396667D01*
X129997667Y-46396667D01*
X129997667Y-46693000D01*
X129997667Y-46693000D01*
G37*
X129997667Y-46693000D02*
X129383834Y-46693000D01*
X129383834Y-46396667D01*
X129997667Y-46396667D01*
X129997667Y-46693000D01*
G36*
X129394417Y-45793417D02*
X129536705Y-45799662D01*
X129678993Y-45805908D01*
X129684872Y-45503329D01*
X129690750Y-45200750D01*
X129987084Y-45200750D01*
X129987084Y-45793417D01*
X129833625Y-45799636D01*
X129680167Y-45805855D01*
X129680167Y-46100334D01*
X129383834Y-46100334D01*
X129383834Y-46396667D01*
X129087500Y-46396667D01*
X129087500Y-45190167D01*
X129382671Y-45190167D01*
X129394417Y-45793417D01*
X129394417Y-45793417D01*
G37*
X129394417Y-45793417D02*
X129536705Y-45799662D01*
X129678993Y-45805908D01*
X129684872Y-45503329D01*
X129690750Y-45200750D01*
X129987084Y-45200750D01*
X129987084Y-45793417D01*
X129833625Y-45799636D01*
X129680167Y-45805855D01*
X129680167Y-46100334D01*
X129383834Y-46100334D01*
X129383834Y-46396667D01*
X129087500Y-46396667D01*
X129087500Y-45190167D01*
X129382671Y-45190167D01*
X129394417Y-45793417D01*
G36*
X127288334Y-46396667D02*
X126695667Y-46396667D01*
X126695667Y-46100334D01*
X127288334Y-46100334D01*
X127288334Y-46396667D01*
X127288334Y-46396667D01*
G37*
X127288334Y-46396667D02*
X126695667Y-46396667D01*
X126695667Y-46100334D01*
X127288334Y-46100334D01*
X127288334Y-46396667D01*
G36*
X127584667Y-46100334D02*
X127288334Y-46100334D01*
X127288334Y-45507667D01*
X127584667Y-45507667D01*
X127584667Y-46100334D01*
X127584667Y-46100334D01*
G37*
X127584667Y-46100334D02*
X127288334Y-46100334D01*
X127288334Y-45507667D01*
X127584667Y-45507667D01*
X127584667Y-46100334D01*
G36*
X127288334Y-45507667D02*
X126695667Y-45507667D01*
X126695667Y-45190167D01*
X127288334Y-45190167D01*
X127288334Y-45507667D01*
X127288334Y-45507667D01*
G37*
X127288334Y-45507667D02*
X126695667Y-45507667D01*
X126695667Y-45190167D01*
X127288334Y-45190167D01*
X127288334Y-45507667D01*
G36*
X128198500Y-45190167D02*
X128791167Y-45190167D01*
X128791167Y-46396667D01*
X128494834Y-46396667D01*
X128494834Y-45507667D01*
X128198500Y-45507667D01*
X128198500Y-45190167D01*
X128198500Y-45190167D01*
G37*
X128198500Y-45190167D02*
X128791167Y-45190167D01*
X128791167Y-46396667D01*
X128494834Y-46396667D01*
X128494834Y-45507667D01*
X128198500Y-45507667D01*
X128198500Y-45190167D01*
G36*
X128198500Y-46396667D02*
X127902167Y-46396667D01*
X127902167Y-45507667D01*
X128198500Y-45507667D01*
X128198500Y-46396667D01*
X128198500Y-46396667D01*
G37*
X128198500Y-46396667D02*
X127902167Y-46396667D01*
X127902167Y-45507667D01*
X128198500Y-45507667D01*
X128198500Y-46396667D01*
G36*
X131183000Y-46396667D02*
X130590334Y-46396667D01*
X130590334Y-46100334D01*
X131183000Y-46100334D01*
X131183000Y-46396667D01*
X131183000Y-46396667D01*
G37*
X131183000Y-46396667D02*
X130590334Y-46396667D01*
X130590334Y-46100334D01*
X131183000Y-46100334D01*
X131183000Y-46396667D01*
G36*
X130590334Y-46100334D02*
X130294000Y-46100334D01*
X130294000Y-45507667D01*
X130590334Y-45507667D01*
X130590334Y-46100334D01*
X130590334Y-46100334D01*
G37*
X130590334Y-46100334D02*
X130294000Y-46100334D01*
X130294000Y-45507667D01*
X130590334Y-45507667D01*
X130590334Y-46100334D01*
G36*
X130886667Y-45507667D02*
X130590334Y-45507667D01*
X130590334Y-45190167D01*
X130886667Y-45190167D01*
X130886667Y-45507667D01*
X130886667Y-45507667D01*
G37*
X130886667Y-45507667D02*
X130590334Y-45507667D01*
X130590334Y-45190167D01*
X130886667Y-45190167D01*
X130886667Y-45507667D01*
G36*
X131183000Y-45190167D02*
X130886667Y-45190167D01*
X130886667Y-44893834D01*
X131183000Y-44893834D01*
X131183000Y-45190167D01*
X131183000Y-45190167D01*
G37*
X131183000Y-45190167D02*
X130886667Y-45190167D01*
X130886667Y-44893834D01*
X131183000Y-44893834D01*
X131183000Y-45190167D01*
G36*
X130886667Y-44893834D02*
X130294000Y-44893834D01*
X130294000Y-44597500D01*
X130886667Y-44597500D01*
X130886667Y-44893834D01*
X130886667Y-44893834D01*
G37*
X130886667Y-44893834D02*
X130294000Y-44893834D01*
X130294000Y-44597500D01*
X130886667Y-44597500D01*
X130886667Y-44893834D01*
G36*
X141441568Y-43199795D02*
X141442320Y-43251023D01*
X141443111Y-43342627D01*
X141443536Y-43406875D01*
X141444721Y-43652690D01*
X141445499Y-43928416D01*
X141445869Y-44221633D01*
X141445832Y-44519920D01*
X141445387Y-44810858D01*
X141444534Y-45082026D01*
X141443536Y-45280125D01*
X141442729Y-45393305D01*
X141441955Y-45465437D01*
X141441223Y-45497808D01*
X141440541Y-45491704D01*
X141439916Y-45448410D01*
X141439356Y-45369212D01*
X141438870Y-45255398D01*
X141438465Y-45108251D01*
X141438148Y-44929060D01*
X141437929Y-44719108D01*
X141437814Y-44479683D01*
X141437798Y-44343500D01*
X141437855Y-44089209D01*
X141438021Y-43863720D01*
X141438288Y-43668320D01*
X141438648Y-43504295D01*
X141439093Y-43372930D01*
X141439615Y-43275511D01*
X141440207Y-43213325D01*
X141440861Y-43187658D01*
X141441568Y-43199795D01*
X141441568Y-43199795D01*
G37*
X141441568Y-43199795D02*
X141442320Y-43251023D01*
X141443111Y-43342627D01*
X141443536Y-43406875D01*
X141444721Y-43652690D01*
X141445499Y-43928416D01*
X141445869Y-44221633D01*
X141445832Y-44519920D01*
X141445387Y-44810858D01*
X141444534Y-45082026D01*
X141443536Y-45280125D01*
X141442729Y-45393305D01*
X141441955Y-45465437D01*
X141441223Y-45497808D01*
X141440541Y-45491704D01*
X141439916Y-45448410D01*
X141439356Y-45369212D01*
X141438870Y-45255398D01*
X141438465Y-45108251D01*
X141438148Y-44929060D01*
X141437929Y-44719108D01*
X141437814Y-44479683D01*
X141437798Y-44343500D01*
X141437855Y-44089209D01*
X141438021Y-43863720D01*
X141438288Y-43668320D01*
X141438648Y-43504295D01*
X141439093Y-43372930D01*
X141439615Y-43275511D01*
X141440207Y-43213325D01*
X141440861Y-43187658D01*
X141441568Y-43199795D01*
M02*
