G04 #@! TF.FileFunction,Profile,NP*
%FSLAX46Y46*%
G04 Gerber Fmt 4.6, Leading zero omitted, Abs format (unit mm)*
G04 Created by KiCad (PCBNEW 4.0.7-e0-6372~58~ubuntu16.04.1) date Mon Jul 31 18:46:46 2017*
%MOMM*%
%LPD*%
G01*
G04 APERTURE LIST*
%ADD10C,0.100000*%
G04 APERTURE END LIST*
D10*
X115096850Y-61419693D02*
X115096850Y-61419693D01*
X115096640Y-61419678D02*
X115096850Y-61419693D01*
X115096630Y-61419675D02*
X115096640Y-61419678D01*
X115096620Y-61419672D02*
X115096630Y-61419675D01*
X115096600Y-61419672D02*
X115096620Y-61419672D01*
X115096590Y-61419669D02*
X115096600Y-61419672D01*
X115096580Y-61419669D02*
X115096590Y-61419669D01*
X115096570Y-61419667D02*
X115096580Y-61419669D01*
X115096560Y-61419667D02*
X115096570Y-61419667D01*
X115346080Y-61573221D02*
X115096560Y-61419667D01*
X115577730Y-61736337D02*
X115346080Y-61573221D01*
X115782250Y-61903720D02*
X115577730Y-61736337D01*
X115950400Y-62070068D02*
X115782250Y-61903720D01*
X116072930Y-62230079D02*
X115950400Y-62070068D01*
X116140630Y-62378457D02*
X116072930Y-62230079D01*
X116144630Y-62509894D02*
X116140630Y-62378457D01*
X116074830Y-62619094D02*
X116144630Y-62509894D01*
X115953050Y-62726147D02*
X116074830Y-62619094D01*
X115831270Y-62833199D02*
X115953050Y-62726147D01*
X115709490Y-62940252D02*
X115831270Y-62833199D01*
X115587710Y-63047304D02*
X115709490Y-62940252D01*
X115465930Y-63154360D02*
X115587710Y-63047304D01*
X115344150Y-63261412D02*
X115465930Y-63154360D01*
X115222370Y-63368465D02*
X115344150Y-63261412D01*
X115100590Y-63475517D02*
X115222370Y-63368465D01*
X115196890Y-63592676D02*
X115100590Y-63475517D01*
X115287290Y-63714162D02*
X115196890Y-63592676D01*
X115371690Y-63839745D02*
X115287290Y-63714162D01*
X115449890Y-63969200D02*
X115371690Y-63839745D01*
X115521790Y-64102302D02*
X115449890Y-63969200D01*
X115587290Y-64238821D02*
X115521790Y-64102302D01*
X115646190Y-64378529D02*
X115587290Y-64238821D01*
X115698490Y-64521201D02*
X115646190Y-64378529D01*
X115852810Y-64469051D02*
X115698490Y-64521201D01*
X116007130Y-64416901D02*
X115852810Y-64469051D01*
X116161450Y-64364741D02*
X116007130Y-64416901D01*
X116315760Y-64312591D02*
X116161450Y-64364741D01*
X116470080Y-64260441D02*
X116315760Y-64312591D01*
X116624400Y-64208281D02*
X116470080Y-64260441D01*
X116778720Y-64156121D02*
X116624400Y-64208281D01*
X116933040Y-64103971D02*
X116778720Y-64156121D01*
X117172580Y-64167851D02*
X116933040Y-64103971D01*
X117344290Y-64487431D02*
X117172580Y-64167851D01*
X117447880Y-64977440D02*
X117344290Y-64487431D01*
X117483080Y-65552597D02*
X117447880Y-64977440D01*
X117449580Y-66127625D02*
X117483080Y-65552597D01*
X117347020Y-66617244D02*
X117449580Y-66127625D01*
X117175150Y-66936178D02*
X117347020Y-66617244D01*
X116933680Y-66999148D02*
X117175150Y-66936178D01*
X116778040Y-66946578D02*
X116933680Y-66999148D01*
X116622400Y-66894008D02*
X116778040Y-66946578D01*
X116466770Y-66841428D02*
X116622400Y-66894008D01*
X116311130Y-66788858D02*
X116466770Y-66841428D01*
X116155490Y-66736278D02*
X116311130Y-66788858D01*
X115999850Y-66683698D02*
X116155490Y-66736278D01*
X115844220Y-66631128D02*
X115999850Y-66683698D01*
X115688580Y-66578548D02*
X115844220Y-66631128D01*
X115663180Y-66649658D02*
X115688580Y-66578548D01*
X115636180Y-66720118D02*
X115663180Y-66649658D01*
X115607480Y-66789908D02*
X115636180Y-66720118D01*
X115577180Y-66858998D02*
X115607480Y-66789908D01*
X115545180Y-66927348D02*
X115577180Y-66858998D01*
X115511580Y-66994938D02*
X115545180Y-66927348D01*
X115476380Y-67061728D02*
X115511580Y-66994938D01*
X115439680Y-67127698D02*
X115476380Y-67061728D01*
X115400980Y-67192548D02*
X115439680Y-67127698D01*
X115360780Y-67256438D02*
X115400980Y-67192548D01*
X115319080Y-67319338D02*
X115360780Y-67256438D01*
X115275980Y-67381228D02*
X115319080Y-67319338D01*
X115231380Y-67442088D02*
X115275980Y-67381228D01*
X115185380Y-67501878D02*
X115231380Y-67442088D01*
X115137980Y-67560578D02*
X115185380Y-67501878D01*
X115089180Y-67618168D02*
X115137980Y-67560578D01*
X115212490Y-67726541D02*
X115089180Y-67618168D01*
X115335810Y-67834914D02*
X115212490Y-67726541D01*
X115459120Y-67943288D02*
X115335810Y-67834914D01*
X115582440Y-68051661D02*
X115459120Y-67943288D01*
X115705750Y-68160037D02*
X115582440Y-68051661D01*
X115829070Y-68268411D02*
X115705750Y-68160037D01*
X115952390Y-68376784D02*
X115829070Y-68268411D01*
X116075700Y-68485157D02*
X115952390Y-68376784D01*
X116140100Y-68724496D02*
X116075700Y-68485157D01*
X115949200Y-69032922D02*
X116140100Y-68724496D01*
X115576650Y-69367550D02*
X115949200Y-69032922D01*
X115096160Y-69685494D02*
X115576650Y-69367550D01*
X114581430Y-69943868D02*
X115096160Y-69685494D01*
X114106160Y-70099780D02*
X114581430Y-69943868D01*
X113744040Y-70110360D02*
X114106160Y-70099780D01*
X113568780Y-69932704D02*
X113744040Y-70110360D01*
X113536780Y-69772777D02*
X113568780Y-69932704D01*
X113504780Y-69612850D02*
X113536780Y-69772777D01*
X113472780Y-69452921D02*
X113504780Y-69612850D01*
X113440780Y-69292994D02*
X113472780Y-69452921D01*
X113408780Y-69133067D02*
X113440780Y-69292994D01*
X113376780Y-68973140D02*
X113408780Y-69133067D01*
X113344780Y-68813211D02*
X113376780Y-68973140D01*
X113312780Y-68653284D02*
X113344780Y-68813211D01*
X113163000Y-68679644D02*
X113312780Y-68653284D01*
X113012430Y-68698724D02*
X113163000Y-68679644D01*
X112861330Y-68710524D02*
X113012430Y-68698724D01*
X112709970Y-68715024D02*
X112861330Y-68710524D01*
X112558610Y-68712224D02*
X112709970Y-68715024D01*
X112407510Y-68702174D02*
X112558610Y-68712224D01*
X112256940Y-68684844D02*
X112407510Y-68702174D01*
X112107150Y-68660204D02*
X112256940Y-68684844D01*
X112075250Y-68819276D02*
X112107150Y-68660204D01*
X112043350Y-68978347D02*
X112075250Y-68819276D01*
X112011450Y-69137419D02*
X112043350Y-68978347D01*
X111979550Y-69296491D02*
X112011450Y-69137419D01*
X111947650Y-69455560D02*
X111979550Y-69296491D01*
X111915750Y-69614632D02*
X111947650Y-69455560D01*
X111883850Y-69773703D02*
X111915750Y-69614632D01*
X111851950Y-69932775D02*
X111883850Y-69773703D01*
X111676660Y-70110428D02*
X111851950Y-69932775D01*
X111314490Y-70099848D02*
X111676660Y-70110428D01*
X110839140Y-69943918D02*
X111314490Y-70099848D01*
X110324310Y-69685529D02*
X110839140Y-69943918D01*
X109843740Y-69367569D02*
X110324310Y-69685529D01*
X109471120Y-69032927D02*
X109843740Y-69367569D01*
X109280160Y-68724492D02*
X109471120Y-69032927D01*
X109344560Y-68485150D02*
X109280160Y-68724492D01*
X109466340Y-68378098D02*
X109344560Y-68485150D01*
X109588120Y-68271043D02*
X109466340Y-68378098D01*
X109709900Y-68163990D02*
X109588120Y-68271043D01*
X109831680Y-68056935D02*
X109709900Y-68163990D01*
X109953460Y-67949882D02*
X109831680Y-68056935D01*
X110075240Y-67842830D02*
X109953460Y-67949882D01*
X110197020Y-67735774D02*
X110075240Y-67842830D01*
X110318800Y-67628722D02*
X110197020Y-67735774D01*
X110222600Y-67511399D02*
X110318800Y-67628722D01*
X110132300Y-67389750D02*
X110222600Y-67511399D01*
X110048000Y-67264000D02*
X110132300Y-67389750D01*
X109969900Y-67134384D02*
X110048000Y-67264000D01*
X109898100Y-67001124D02*
X109969900Y-67134384D01*
X109832700Y-66864450D02*
X109898100Y-67001124D01*
X109773900Y-66724586D02*
X109832700Y-66864450D01*
X109721800Y-66581765D02*
X109773900Y-66724586D01*
X109567480Y-66633915D02*
X109721800Y-66581765D01*
X109413160Y-66686075D02*
X109567480Y-66633915D01*
X109258840Y-66738225D02*
X109413160Y-66686075D01*
X109104520Y-66790375D02*
X109258840Y-66738225D01*
X108950210Y-66842525D02*
X109104520Y-66790375D01*
X108795890Y-66894675D02*
X108950210Y-66842525D01*
X108641570Y-66946825D02*
X108795890Y-66894675D01*
X108487250Y-66998975D02*
X108641570Y-66946825D01*
X108245760Y-66936025D02*
X108487250Y-66998975D01*
X108073860Y-66617130D02*
X108245760Y-66936025D01*
X107971250Y-66127571D02*
X108073860Y-66617130D01*
X107937650Y-65552611D02*
X107971250Y-66127571D01*
X107972750Y-64977523D02*
X107937650Y-65552611D01*
X108076270Y-64487574D02*
X107972750Y-64977523D01*
X108247930Y-64168034D02*
X108076270Y-64487574D01*
X108487420Y-64104174D02*
X108247930Y-64168034D01*
X108642980Y-64156704D02*
X108487420Y-64104174D01*
X108798530Y-64209234D02*
X108642980Y-64156704D01*
X108954090Y-64261764D02*
X108798530Y-64209234D01*
X109109650Y-64314294D02*
X108954090Y-64261764D01*
X109265210Y-64366824D02*
X109109650Y-64314294D01*
X109420770Y-64419354D02*
X109265210Y-64366824D01*
X109576330Y-64471884D02*
X109420770Y-64419354D01*
X109731890Y-64524414D02*
X109576330Y-64471884D01*
X109757290Y-64453394D02*
X109731890Y-64524414D01*
X109784290Y-64383014D02*
X109757290Y-64453394D01*
X109812890Y-64313314D02*
X109784290Y-64383014D01*
X109843190Y-64244314D02*
X109812890Y-64313314D01*
X109875090Y-64176044D02*
X109843190Y-64244314D01*
X109908590Y-64108534D02*
X109875090Y-64176044D01*
X109943690Y-64041814D02*
X109908590Y-64108534D01*
X109980390Y-63975914D02*
X109943690Y-64041814D01*
X110019090Y-63911064D02*
X109980390Y-63975914D01*
X110059290Y-63847174D02*
X110019090Y-63911064D01*
X110100990Y-63784264D02*
X110059290Y-63847174D01*
X110144090Y-63722374D02*
X110100990Y-63784264D01*
X110188690Y-63661524D02*
X110144090Y-63722374D01*
X110234690Y-63601734D02*
X110188690Y-63661524D01*
X110282090Y-63543034D02*
X110234690Y-63601734D01*
X110330890Y-63485444D02*
X110282090Y-63543034D01*
X110207650Y-63377118D02*
X110330890Y-63485444D01*
X110084410Y-63268790D02*
X110207650Y-63377118D01*
X109961170Y-63160462D02*
X110084410Y-63268790D01*
X109837940Y-63052137D02*
X109961170Y-63160462D01*
X109714700Y-62943811D02*
X109837940Y-63052137D01*
X109591470Y-62835483D02*
X109714700Y-62943811D01*
X109468230Y-62727155D02*
X109591470Y-62835483D01*
X109345000Y-62618830D02*
X109468230Y-62727155D01*
X109278800Y-62378196D02*
X109345000Y-62618830D01*
X109469110Y-62069811D02*
X109278800Y-62378196D01*
X109841920Y-61736078D02*
X109469110Y-62069811D01*
X110323190Y-61419391D02*
X109841920Y-61736078D01*
X110838940Y-61162145D02*
X110323190Y-61419391D01*
X111315150Y-61006734D02*
X110838940Y-61162145D01*
X111677800Y-60995554D02*
X111315150Y-61006734D01*
X111852890Y-61171009D02*
X111677800Y-60995554D01*
X111884890Y-61330936D02*
X111852890Y-61171009D01*
X111916890Y-61490862D02*
X111884890Y-61330936D01*
X111948890Y-61650792D02*
X111916890Y-61490862D01*
X111980890Y-61810719D02*
X111948890Y-61650792D01*
X112012890Y-61970646D02*
X111980890Y-61810719D01*
X112044890Y-62130573D02*
X112012890Y-61970646D01*
X112076890Y-62290502D02*
X112044890Y-62130573D01*
X112108890Y-62450429D02*
X112076890Y-62290502D01*
X112258470Y-62424129D02*
X112108890Y-62450429D01*
X112408830Y-62405079D02*
X112258470Y-62424129D01*
X112559720Y-62393279D02*
X112408830Y-62405079D01*
X112710870Y-62388779D02*
X112559720Y-62393279D01*
X112862020Y-62391579D02*
X112710870Y-62388779D01*
X113012910Y-62401599D02*
X112862020Y-62391579D01*
X113163280Y-62418869D02*
X113012910Y-62401599D01*
X113312870Y-62443419D02*
X113163280Y-62418869D01*
X113344670Y-62284427D02*
X113312870Y-62443419D01*
X113376470Y-62125437D02*
X113344670Y-62284427D01*
X113408270Y-61966444D02*
X113376470Y-62125437D01*
X113440070Y-61807454D02*
X113408270Y-61966444D01*
X113471870Y-61648461D02*
X113440070Y-61807454D01*
X113503670Y-61489469D02*
X113471870Y-61648461D01*
X113535470Y-61330479D02*
X113503670Y-61489469D01*
X113567270Y-61171486D02*
X113535470Y-61330479D01*
X113626770Y-61057779D02*
X113567270Y-61171486D01*
X113742380Y-60996029D02*
X113626770Y-61057779D01*
X113904870Y-60980929D02*
X113742380Y-60996029D01*
X114105000Y-61007179D02*
X113904870Y-60980929D01*
X114333510Y-61069479D02*
X114105000Y-61007179D01*
X114581150Y-61162529D02*
X114333510Y-61069479D01*
X114838690Y-61281034D02*
X114581150Y-61162529D01*
X115096850Y-61419693D02*
X114838690Y-61281034D01*
X73802998Y-61419693D02*
X73802998Y-61419693D01*
X73802981Y-61419685D02*
X73802998Y-61419693D01*
X73802970Y-61419682D02*
X73802981Y-61419685D01*
X73802959Y-61419679D02*
X73802970Y-61419682D01*
X73802945Y-61419679D02*
X73802959Y-61419679D01*
X73802934Y-61419676D02*
X73802945Y-61419679D01*
X73802922Y-61419676D02*
X73802934Y-61419676D01*
X73802911Y-61419673D02*
X73802922Y-61419676D01*
X73802900Y-61419673D02*
X73802911Y-61419673D01*
X74052426Y-61573228D02*
X73802900Y-61419673D01*
X74284071Y-61736344D02*
X74052426Y-61573228D01*
X74488592Y-61903727D02*
X74284071Y-61736344D01*
X74656740Y-62070074D02*
X74488592Y-61903727D01*
X74779261Y-62230098D02*
X74656740Y-62070074D01*
X74846931Y-62378473D02*
X74779261Y-62230098D01*
X74850531Y-62509910D02*
X74846931Y-62378473D01*
X74780741Y-62619106D02*
X74850531Y-62509910D01*
X74658959Y-62726158D02*
X74780741Y-62619106D01*
X74537180Y-62833211D02*
X74658959Y-62726158D01*
X74415398Y-62940263D02*
X74537180Y-62833211D01*
X74293620Y-63047316D02*
X74415398Y-62940263D01*
X74171841Y-63154371D02*
X74293620Y-63047316D01*
X74050059Y-63261424D02*
X74171841Y-63154371D01*
X73928277Y-63368476D02*
X74050059Y-63261424D01*
X73806498Y-63475529D02*
X73928277Y-63368476D01*
X73902798Y-63592688D02*
X73806498Y-63475529D01*
X73993198Y-63714173D02*
X73902798Y-63592688D01*
X74077568Y-63839756D02*
X73993198Y-63714173D01*
X74155768Y-63969211D02*
X74077568Y-63839756D01*
X74227678Y-64102313D02*
X74155768Y-63969211D01*
X74293168Y-64238832D02*
X74227678Y-64102313D01*
X74352108Y-64378541D02*
X74293168Y-64238832D01*
X74404368Y-64521213D02*
X74352108Y-64378541D01*
X74558687Y-64469063D02*
X74404368Y-64521213D01*
X74713006Y-64416913D02*
X74558687Y-64469063D01*
X74867325Y-64364753D02*
X74713006Y-64416913D01*
X75021645Y-64312603D02*
X74867325Y-64364753D01*
X75175964Y-64260453D02*
X75021645Y-64312603D01*
X75330283Y-64208293D02*
X75175964Y-64260453D01*
X75484602Y-64156143D02*
X75330283Y-64208293D01*
X75638921Y-64103993D02*
X75484602Y-64156143D01*
X75878460Y-64167873D02*
X75638921Y-64103993D01*
X76050172Y-64487453D02*
X75878460Y-64167873D01*
X76153759Y-64977461D02*
X76050172Y-64487453D01*
X76188929Y-65552619D02*
X76153759Y-64977461D01*
X76155379Y-66127647D02*
X76188929Y-65552619D01*
X76052819Y-66617266D02*
X76155379Y-66127647D01*
X75880952Y-66936199D02*
X76052819Y-66617266D01*
X75639480Y-66999169D02*
X75880952Y-66936199D01*
X75483843Y-66946599D02*
X75639480Y-66999169D01*
X75328206Y-66894029D02*
X75483843Y-66946599D01*
X75172569Y-66841449D02*
X75328206Y-66894029D01*
X75016929Y-66788879D02*
X75172569Y-66841449D01*
X74861292Y-66736299D02*
X75016929Y-66788879D01*
X74705655Y-66683719D02*
X74861292Y-66736299D01*
X74550018Y-66631149D02*
X74705655Y-66683719D01*
X74394380Y-66578569D02*
X74550018Y-66631149D01*
X74369010Y-66649679D02*
X74394380Y-66578569D01*
X74341970Y-66720139D02*
X74369010Y-66649679D01*
X74313280Y-66789929D02*
X74341970Y-66720139D01*
X74282950Y-66859019D02*
X74313280Y-66789929D01*
X74250990Y-66927369D02*
X74282950Y-66859019D01*
X74217420Y-66994959D02*
X74250990Y-66927369D01*
X74182250Y-67061749D02*
X74217420Y-66994959D01*
X74145500Y-67127719D02*
X74182250Y-67061749D01*
X74106820Y-67192569D02*
X74145500Y-67127719D01*
X74066640Y-67256459D02*
X74106820Y-67192569D01*
X74024970Y-67319359D02*
X74066640Y-67256459D01*
X73981840Y-67381249D02*
X74024970Y-67319359D01*
X73937260Y-67442109D02*
X73981840Y-67381249D01*
X73891250Y-67501899D02*
X73937260Y-67442109D01*
X73843820Y-67560599D02*
X73891250Y-67501899D01*
X73795000Y-67618189D02*
X73843820Y-67560599D01*
X73918314Y-67726562D02*
X73795000Y-67618189D01*
X74041631Y-67834935D02*
X73918314Y-67726562D01*
X74164946Y-67943309D02*
X74041631Y-67834935D01*
X74288263Y-68051682D02*
X74164946Y-67943309D01*
X74411577Y-68160058D02*
X74288263Y-68051682D01*
X74534894Y-68268432D02*
X74411577Y-68160058D01*
X74658208Y-68376805D02*
X74534894Y-68268432D01*
X74781525Y-68485178D02*
X74658208Y-68376805D01*
X74845965Y-68724517D02*
X74781525Y-68485178D01*
X74655061Y-69032943D02*
X74845965Y-68724517D01*
X74282514Y-69367571D02*
X74655061Y-69032943D01*
X73802025Y-69685515D02*
X74282514Y-69367571D01*
X73287291Y-69943889D02*
X73802025Y-69685515D01*
X72812014Y-70099803D02*
X73287291Y-69943889D01*
X72449894Y-70110383D02*
X72812014Y-70099803D01*
X72274632Y-69932727D02*
X72449894Y-70110383D01*
X72242652Y-69772800D02*
X72274632Y-69932727D01*
X72210672Y-69612873D02*
X72242652Y-69772800D01*
X72178692Y-69452943D02*
X72210672Y-69612873D01*
X72146712Y-69293017D02*
X72178692Y-69452943D01*
X72114732Y-69133090D02*
X72146712Y-69293017D01*
X72082752Y-68973163D02*
X72114732Y-69133090D01*
X72050772Y-68813233D02*
X72082752Y-68973163D01*
X72018792Y-68653306D02*
X72050772Y-68813233D01*
X71869011Y-68679666D02*
X72018792Y-68653306D01*
X71718440Y-68698746D02*
X71869011Y-68679666D01*
X71567344Y-68710546D02*
X71718440Y-68698746D01*
X71415982Y-68715046D02*
X71567344Y-68710546D01*
X71264623Y-68712246D02*
X71415982Y-68715046D01*
X71113524Y-68702196D02*
X71264623Y-68712246D01*
X70962948Y-68684866D02*
X71113524Y-68702196D01*
X70813158Y-68660226D02*
X70962948Y-68684866D01*
X70781288Y-68819298D02*
X70813158Y-68660226D01*
X70749418Y-68978370D02*
X70781288Y-68819298D01*
X70717548Y-69137441D02*
X70749418Y-68978370D01*
X70685688Y-69296513D02*
X70717548Y-69137441D01*
X70653818Y-69455582D02*
X70685688Y-69296513D01*
X70621948Y-69614654D02*
X70653818Y-69455582D01*
X70590088Y-69773726D02*
X70621948Y-69614654D01*
X70558218Y-69932797D02*
X70590088Y-69773726D01*
X70382933Y-70110451D02*
X70558218Y-69932797D01*
X70020760Y-70099871D02*
X70382933Y-70110451D01*
X69545407Y-69943941D02*
X70020760Y-70099871D01*
X69030586Y-69685552D02*
X69545407Y-69943941D01*
X68550006Y-69367592D02*
X69030586Y-69685552D01*
X68177386Y-69032950D02*
X68550006Y-69367592D01*
X67986428Y-68724515D02*
X68177386Y-69032950D01*
X68050848Y-68485173D02*
X67986428Y-68724515D01*
X68172630Y-68378121D02*
X68050848Y-68485173D01*
X68294409Y-68271066D02*
X68172630Y-68378121D01*
X68416191Y-68164013D02*
X68294409Y-68271066D01*
X68537970Y-68056958D02*
X68416191Y-68164013D01*
X68659751Y-67949905D02*
X68537970Y-68056958D01*
X68781533Y-67842853D02*
X68659751Y-67949905D01*
X68903312Y-67735797D02*
X68781533Y-67842853D01*
X69025094Y-67628742D02*
X68903312Y-67735797D01*
X68928844Y-67511419D02*
X69025094Y-67628742D01*
X68838514Y-67389770D02*
X68928844Y-67511419D01*
X68754224Y-67264020D02*
X68838514Y-67389770D01*
X68676104Y-67134404D02*
X68754224Y-67264020D01*
X68604294Y-67001145D02*
X68676104Y-67134404D01*
X68538914Y-66864470D02*
X68604294Y-67001145D01*
X68480094Y-66724606D02*
X68538914Y-66864470D01*
X68427974Y-66581785D02*
X68480094Y-66724606D01*
X68273655Y-66633935D02*
X68427974Y-66581785D01*
X68119336Y-66686085D02*
X68273655Y-66633935D01*
X67965017Y-66738235D02*
X68119336Y-66686085D01*
X67810698Y-66790385D02*
X67965017Y-66738235D01*
X67656381Y-66842535D02*
X67810698Y-66790385D01*
X67502062Y-66894685D02*
X67656381Y-66842535D01*
X67347743Y-66946835D02*
X67502062Y-66894685D01*
X67193424Y-66998985D02*
X67347743Y-66946835D01*
X66951938Y-66936035D02*
X67193424Y-66998985D01*
X66780033Y-66617140D02*
X66951938Y-66936035D01*
X66677420Y-66127581D02*
X66780033Y-66617140D01*
X66643810Y-65552621D02*
X66677420Y-66127581D01*
X66678910Y-64977534D02*
X66643810Y-65552621D01*
X66782435Y-64487585D02*
X66678910Y-64977534D01*
X66954088Y-64168044D02*
X66782435Y-64487585D01*
X67193582Y-64104184D02*
X66954088Y-64168044D01*
X67349140Y-64156714D02*
X67193582Y-64104184D01*
X67504698Y-64209244D02*
X67349140Y-64156714D01*
X67660256Y-64261774D02*
X67504698Y-64209244D01*
X67815814Y-64314304D02*
X67660256Y-64261774D01*
X67971375Y-64366834D02*
X67815814Y-64314304D01*
X68126933Y-64419364D02*
X67971375Y-64366834D01*
X68282491Y-64471894D02*
X68126933Y-64419364D01*
X68438049Y-64524424D02*
X68282491Y-64471894D01*
X68463389Y-64453404D02*
X68438049Y-64524424D01*
X68490399Y-64383024D02*
X68463389Y-64453404D01*
X68519049Y-64313324D02*
X68490399Y-64383024D01*
X68549329Y-64244324D02*
X68519049Y-64313324D01*
X68581239Y-64176054D02*
X68549329Y-64244324D01*
X68614749Y-64108544D02*
X68581239Y-64176054D01*
X68649859Y-64041824D02*
X68614749Y-64108544D01*
X68686549Y-63975924D02*
X68649859Y-64041824D01*
X68725229Y-63911074D02*
X68686549Y-63975924D01*
X68765409Y-63847184D02*
X68725229Y-63911074D01*
X68807069Y-63784274D02*
X68765409Y-63847184D01*
X68850199Y-63722384D02*
X68807069Y-63784274D01*
X68894779Y-63661524D02*
X68850199Y-63722384D01*
X68940799Y-63601734D02*
X68894779Y-63661524D01*
X68988229Y-63543034D02*
X68940799Y-63601734D01*
X69037049Y-63485444D02*
X68988229Y-63543034D01*
X68913814Y-63377119D02*
X69037049Y-63485444D01*
X68790576Y-63268790D02*
X68913814Y-63377119D01*
X68667341Y-63160462D02*
X68790576Y-63268790D01*
X68544105Y-63052137D02*
X68667341Y-63160462D01*
X68420870Y-62943812D02*
X68544105Y-63052137D01*
X68297632Y-62835483D02*
X68420870Y-62943812D01*
X68174397Y-62727155D02*
X68297632Y-62835483D01*
X68051162Y-62618830D02*
X68174397Y-62727155D01*
X67984972Y-62378196D02*
X68051162Y-62618830D01*
X68175286Y-62069812D02*
X67984972Y-62378196D01*
X68548090Y-61736078D02*
X68175286Y-62069812D01*
X69029369Y-61419391D02*
X68548090Y-61736078D01*
X69545116Y-61162145D02*
X69029369Y-61419391D01*
X70021324Y-61006734D02*
X69545116Y-61162145D01*
X70383977Y-60995554D02*
X70021324Y-61006734D01*
X70559064Y-61171009D02*
X70383977Y-60995554D01*
X70591044Y-61330936D02*
X70559064Y-61171009D01*
X70623024Y-61490863D02*
X70591044Y-61330936D01*
X70655004Y-61650792D02*
X70623024Y-61490863D01*
X70686984Y-61810719D02*
X70655004Y-61650792D01*
X70718964Y-61970646D02*
X70686984Y-61810719D01*
X70750944Y-62130573D02*
X70718964Y-61970646D01*
X70782924Y-62290503D02*
X70750944Y-62130573D01*
X70814904Y-62450429D02*
X70782924Y-62290503D01*
X70964482Y-62424129D02*
X70814904Y-62450429D01*
X71114844Y-62405079D02*
X70964482Y-62424129D01*
X71265731Y-62393279D02*
X71114844Y-62405079D01*
X71416881Y-62388779D02*
X71265731Y-62393279D01*
X71568034Y-62391579D02*
X71416881Y-62388779D01*
X71718924Y-62401599D02*
X71568034Y-62391579D01*
X71869295Y-62418869D02*
X71718924Y-62401599D01*
X72018884Y-62443419D02*
X71869295Y-62418869D01*
X72050704Y-62284427D02*
X72018884Y-62443419D01*
X72082524Y-62125437D02*
X72050704Y-62284427D01*
X72114344Y-61966444D02*
X72082524Y-62125437D01*
X72146164Y-61807454D02*
X72114344Y-61966444D01*
X72177984Y-61648461D02*
X72146164Y-61807454D01*
X72209804Y-61489469D02*
X72177984Y-61648461D01*
X72241624Y-61330479D02*
X72209804Y-61489469D01*
X72273444Y-61171486D02*
X72241624Y-61330479D01*
X72332914Y-61057779D02*
X72273444Y-61171486D01*
X72448521Y-60996029D02*
X72332914Y-61057779D01*
X72611013Y-60980929D02*
X72448521Y-60996029D01*
X72811140Y-61007179D02*
X72611013Y-60980929D01*
X73039652Y-61069479D02*
X72811140Y-61007179D01*
X73287297Y-61162529D02*
X73039652Y-61069479D01*
X73544830Y-61281034D02*
X73287297Y-61162529D01*
X73802998Y-61419693D02*
X73544830Y-61281034D01*
X122734530Y-33136848D02*
X122734530Y-33136848D01*
X122704040Y-32833976D02*
X122734530Y-33136848D01*
X122616440Y-32551886D02*
X122704040Y-32833976D01*
X122477880Y-32296616D02*
X122616440Y-32551886D01*
X122294380Y-32074205D02*
X122477880Y-32296616D01*
X122071970Y-31890702D02*
X122294380Y-32074205D01*
X121816700Y-31752145D02*
X122071970Y-31890702D01*
X121534600Y-31664575D02*
X121816700Y-31752145D01*
X121231740Y-31634045D02*
X121534600Y-31664575D01*
X120928880Y-31664575D02*
X121231740Y-31634045D01*
X120646780Y-31752145D02*
X120928880Y-31664575D01*
X120391510Y-31890702D02*
X120646780Y-31752145D01*
X120169100Y-32074208D02*
X120391510Y-31890702D01*
X119985600Y-32296616D02*
X120169100Y-32074208D01*
X119847040Y-32551889D02*
X119985600Y-32296616D01*
X119759440Y-32833979D02*
X119847040Y-32551889D01*
X119728940Y-33136846D02*
X119759440Y-32833979D01*
X119759440Y-33439710D02*
X119728940Y-33136846D01*
X119847040Y-33721802D02*
X119759440Y-33439710D01*
X119985600Y-33977072D02*
X119847040Y-33721802D01*
X120169100Y-34199480D02*
X119985600Y-33977072D01*
X120391510Y-34382984D02*
X120169100Y-34199480D01*
X120646780Y-34521541D02*
X120391510Y-34382984D01*
X120928870Y-34609111D02*
X120646780Y-34521541D01*
X121231740Y-34639641D02*
X120928870Y-34609111D01*
X121534600Y-34609111D02*
X121231740Y-34639641D01*
X121816690Y-34521541D02*
X121534600Y-34609111D01*
X122071960Y-34382986D02*
X121816690Y-34521541D01*
X122294370Y-34199480D02*
X122071960Y-34382986D01*
X122477880Y-33977072D02*
X122294370Y-34199480D01*
X122616430Y-33721802D02*
X122477880Y-33977072D01*
X122704030Y-33439712D02*
X122616430Y-33721802D01*
X122734530Y-33136848D02*
X122704030Y-33439712D01*
X64397644Y-33136848D02*
X64397644Y-33136848D01*
X64367100Y-32833976D02*
X64397644Y-33136848D01*
X64279540Y-32551887D02*
X64367100Y-32833976D01*
X64140983Y-32296614D02*
X64279540Y-32551887D01*
X63957476Y-32074206D02*
X64140983Y-32296614D01*
X63735068Y-31890699D02*
X63957476Y-32074206D01*
X63479796Y-31752142D02*
X63735068Y-31890699D01*
X63197706Y-31664572D02*
X63479796Y-31752142D01*
X62894839Y-31634042D02*
X63197706Y-31664572D01*
X62591975Y-31664572D02*
X62894839Y-31634042D01*
X62309883Y-31752142D02*
X62591975Y-31664572D01*
X62054613Y-31890699D02*
X62309883Y-31752142D01*
X61832205Y-32074203D02*
X62054613Y-31890699D01*
X61648701Y-32296614D02*
X61832205Y-32074203D01*
X61510144Y-32551884D02*
X61648701Y-32296614D01*
X61422584Y-32833973D02*
X61510144Y-32551884D01*
X61392054Y-33136840D02*
X61422584Y-32833973D01*
X61422584Y-33439704D02*
X61392054Y-33136840D01*
X61510154Y-33721794D02*
X61422584Y-33439704D01*
X61648708Y-33977064D02*
X61510154Y-33721794D01*
X61832215Y-34199472D02*
X61648708Y-33977064D01*
X62054623Y-34382978D02*
X61832215Y-34199472D01*
X62309893Y-34521533D02*
X62054623Y-34382978D01*
X62591982Y-34609103D02*
X62309893Y-34521533D01*
X62894846Y-34639633D02*
X62591982Y-34609103D01*
X63197713Y-34609103D02*
X62894846Y-34639633D01*
X63479803Y-34521543D02*
X63197713Y-34609103D01*
X63735073Y-34382986D02*
X63479803Y-34521543D01*
X63957483Y-34199483D02*
X63735073Y-34382986D01*
X64140987Y-33977075D02*
X63957483Y-34199483D01*
X64279544Y-33721802D02*
X64140987Y-33977075D01*
X64367114Y-33439712D02*
X64279544Y-33721802D01*
X64397644Y-33136848D02*
X64367114Y-33439712D01*
X58028232Y-29746603D02*
X58028232Y-29746603D01*
X58024840Y-29746567D02*
X58028232Y-29746603D01*
X58024843Y-29746572D02*
X58024840Y-29746567D01*
X58024845Y-29746577D02*
X58024843Y-29746572D01*
X58024848Y-29746582D02*
X58024845Y-29746577D01*
X58024851Y-29746587D02*
X58024848Y-29746582D01*
X58024854Y-29746592D02*
X58024851Y-29746587D01*
X58024857Y-29746597D02*
X58024854Y-29746592D01*
X58024859Y-29746601D02*
X58024857Y-29746597D01*
X66547130Y-29746601D02*
X58024859Y-29746601D01*
X75069401Y-29746601D02*
X66547130Y-29746601D01*
X83591670Y-29746601D02*
X75069401Y-29746601D01*
X92113940Y-29746601D02*
X83591670Y-29746601D01*
X100636210Y-29746601D02*
X92113940Y-29746601D01*
X109158480Y-29746601D02*
X100636210Y-29746601D01*
X117680760Y-29746601D02*
X109158480Y-29746601D01*
X126203000Y-29746601D02*
X117680760Y-29746601D01*
X126203000Y-29868558D02*
X126203000Y-29746601D01*
X126203000Y-29990514D02*
X126203000Y-29868558D01*
X126203000Y-30112470D02*
X126203000Y-29990514D01*
X126203000Y-30234427D02*
X126203000Y-30112470D01*
X126203000Y-30356383D02*
X126203000Y-30234427D01*
X126203000Y-30478338D02*
X126203000Y-30356383D01*
X126203000Y-30600295D02*
X126203000Y-30478338D01*
X126203000Y-30722252D02*
X126203000Y-30600295D01*
X127573660Y-30722252D02*
X126203000Y-30722252D01*
X128944330Y-30722252D02*
X127573660Y-30722252D01*
X130314990Y-30722252D02*
X128944330Y-30722252D01*
X131685660Y-30722252D02*
X130314990Y-30722252D01*
X133056320Y-30722252D02*
X131685660Y-30722252D01*
X134426990Y-30722252D02*
X133056320Y-30722252D01*
X135797650Y-30722252D02*
X134426990Y-30722252D01*
X137168320Y-30722252D02*
X135797650Y-30722252D01*
X137929270Y-30802442D02*
X137168320Y-30722252D01*
X138635150Y-31031508D02*
X137929270Y-30802442D01*
X139271480Y-31392194D02*
X138635150Y-31031508D01*
X139823750Y-31867238D02*
X139271480Y-31392194D01*
X140277460Y-32439388D02*
X139823750Y-31867238D01*
X140618110Y-33091383D02*
X140277460Y-32439388D01*
X140831210Y-33805964D02*
X140618110Y-33091383D01*
X140901910Y-34565876D02*
X140831210Y-33805964D01*
X140901910Y-34716910D02*
X140901910Y-34565876D01*
X140901910Y-34867941D02*
X140901910Y-34716910D01*
X140901910Y-35018975D02*
X140901910Y-34867941D01*
X140901910Y-35170009D02*
X140901910Y-35018975D01*
X140901910Y-35321040D02*
X140901910Y-35170009D01*
X140901910Y-35472074D02*
X140901910Y-35321040D01*
X140901910Y-35623106D02*
X140901910Y-35472074D01*
X140901910Y-35774140D02*
X140901910Y-35623106D01*
X140901910Y-35810180D02*
X140901910Y-35774140D01*
X140901910Y-35846210D02*
X140901910Y-35810180D01*
X140901910Y-35882250D02*
X140901910Y-35846210D01*
X140901910Y-35918290D02*
X140901910Y-35882250D01*
X140901910Y-35954320D02*
X140901910Y-35918290D01*
X140901910Y-35990360D02*
X140901910Y-35954320D01*
X140901910Y-36026390D02*
X140901910Y-35990360D01*
X140901910Y-36062430D02*
X140901910Y-36026390D01*
X140984110Y-36172191D02*
X140901910Y-36062430D01*
X141066310Y-36281950D02*
X140984110Y-36172191D01*
X141148510Y-36391712D02*
X141066310Y-36281950D01*
X141230710Y-36501474D02*
X141148510Y-36391712D01*
X141312910Y-36611233D02*
X141230710Y-36501474D01*
X141395110Y-36720995D02*
X141312910Y-36611233D01*
X141477310Y-36830754D02*
X141395110Y-36720995D01*
X141559510Y-36940516D02*
X141477310Y-36830754D01*
X141556510Y-38774478D02*
X141559510Y-36940516D01*
X141553510Y-40608440D02*
X141556510Y-38774478D01*
X141550510Y-42442402D02*
X141553510Y-40608440D01*
X141547510Y-44276364D02*
X141550510Y-42442402D01*
X141544510Y-46110326D02*
X141547510Y-44276364D01*
X141541510Y-47944288D02*
X141544510Y-46110326D01*
X141538510Y-49778250D02*
X141541510Y-47944288D01*
X141535510Y-51612212D02*
X141538510Y-49778250D01*
X141453910Y-51739404D02*
X141535510Y-51612212D01*
X141372310Y-51866598D02*
X141453910Y-51739404D01*
X141290710Y-51993790D02*
X141372310Y-51866598D01*
X141209110Y-52120982D02*
X141290710Y-51993790D01*
X141127510Y-52248177D02*
X141209110Y-52120982D01*
X141045910Y-52375369D02*
X141127510Y-52248177D01*
X140964310Y-52502564D02*
X141045910Y-52375369D01*
X140882710Y-52629756D02*
X140964310Y-52502564D01*
X140882710Y-52724496D02*
X140882710Y-52629756D01*
X140882710Y-52819236D02*
X140882710Y-52724496D01*
X140882710Y-52913976D02*
X140882710Y-52819236D01*
X140882710Y-53008716D02*
X140882710Y-52913976D01*
X140882710Y-53103456D02*
X140882710Y-53008716D01*
X140882710Y-53198196D02*
X140882710Y-53103456D01*
X140882710Y-53292936D02*
X140882710Y-53198196D01*
X140882710Y-53387676D02*
X140882710Y-53292936D01*
X140882710Y-58061637D02*
X140882710Y-53387676D01*
X140882710Y-62735597D02*
X140882710Y-58061637D01*
X140882710Y-67409560D02*
X140882710Y-62735597D01*
X140882710Y-72083522D02*
X140882710Y-67409560D01*
X140882710Y-76757479D02*
X140882710Y-72083522D01*
X140882710Y-81431442D02*
X140882710Y-76757479D01*
X140882710Y-86105402D02*
X140882710Y-81431442D01*
X140882710Y-90779364D02*
X140882710Y-86105402D01*
X140807810Y-91531339D02*
X140882710Y-90779364D01*
X140592800Y-92235729D02*
X140807810Y-91531339D01*
X140252140Y-92876295D02*
X140592800Y-92235729D01*
X139800330Y-93436805D02*
X140252140Y-92876295D01*
X139251860Y-93901021D02*
X139800330Y-93436805D01*
X138621220Y-94252703D02*
X139251860Y-93901021D01*
X137922890Y-94475622D02*
X138621220Y-94252703D01*
X137171380Y-94553542D02*
X137922890Y-94475622D01*
X125894680Y-94553542D02*
X137171380Y-94553542D01*
X114617990Y-94553542D02*
X125894680Y-94553542D01*
X103341300Y-94553542D02*
X114617990Y-94553542D01*
X92064600Y-94553542D02*
X103341300Y-94553542D01*
X80787909Y-94553542D02*
X92064600Y-94553542D01*
X69511216Y-94553542D02*
X80787909Y-94553542D01*
X58234524Y-94553542D02*
X69511216Y-94553542D01*
X46957830Y-94553542D02*
X58234524Y-94553542D01*
X46211589Y-94473562D02*
X46957830Y-94553542D01*
X45527110Y-94245668D02*
X46211589Y-94473562D01*
X44915898Y-93887912D02*
X45527110Y-94245668D01*
X44389466Y-93418351D02*
X44915898Y-93887912D01*
X43959320Y-92855048D02*
X44389466Y-93418351D01*
X43636971Y-92216052D02*
X43959320Y-92855048D01*
X43433929Y-91519431D02*
X43636971Y-92216052D01*
X43361699Y-90783230D02*
X43433929Y-91519431D01*
X43361699Y-90783019D02*
X43361699Y-90783230D01*
X43361699Y-90782807D02*
X43361699Y-90783019D01*
X43361699Y-90782595D02*
X43361699Y-90782807D01*
X43361699Y-90782384D02*
X43361699Y-90782595D01*
X43361699Y-90782172D02*
X43361699Y-90782384D01*
X43361699Y-90781960D02*
X43361699Y-90782172D01*
X43361699Y-90781749D02*
X43361699Y-90781960D01*
X43361699Y-90781537D02*
X43361699Y-90781749D01*
X43361699Y-86199422D02*
X43361699Y-90781537D01*
X43361699Y-81617307D02*
X43361699Y-86199422D01*
X43361699Y-77035192D02*
X43361699Y-81617307D01*
X43361699Y-72453077D02*
X43361699Y-77035192D01*
X43361699Y-67870962D02*
X43361699Y-72453077D01*
X43361699Y-63288847D02*
X43361699Y-67870962D01*
X43361699Y-58706732D02*
X43361699Y-63288847D01*
X43361699Y-54124617D02*
X43361699Y-58706732D01*
X43361699Y-53943061D02*
X43361699Y-54124617D01*
X43361699Y-53761505D02*
X43361699Y-53943061D01*
X43361699Y-53579948D02*
X43361699Y-53761505D01*
X43361699Y-53398389D02*
X43361699Y-53579948D01*
X43361699Y-53216833D02*
X43361699Y-53398389D01*
X43361699Y-53035276D02*
X43361699Y-53216833D01*
X43361699Y-52853720D02*
X43361699Y-53035276D01*
X43361699Y-52672163D02*
X43361699Y-52853720D01*
X43265309Y-52545039D02*
X43361699Y-52672163D01*
X43168919Y-52417915D02*
X43265309Y-52545039D01*
X43072519Y-52290791D02*
X43168919Y-52417915D01*
X42976129Y-52163667D02*
X43072519Y-52290791D01*
X42879739Y-52036545D02*
X42976129Y-52163667D01*
X42783339Y-51909421D02*
X42879739Y-52036545D01*
X42686949Y-51782297D02*
X42783339Y-51909421D01*
X42590559Y-51655173D02*
X42686949Y-51782297D01*
X42587159Y-49815355D02*
X42590559Y-51655173D01*
X42583759Y-47975534D02*
X42587159Y-49815355D01*
X42580359Y-46135716D02*
X42583759Y-47975534D01*
X42576959Y-44295898D02*
X42580359Y-46135716D01*
X42573559Y-42456077D02*
X42576959Y-44295898D01*
X42570159Y-40616259D02*
X42573559Y-42456077D01*
X42566759Y-38776438D02*
X42570159Y-40616259D01*
X42563359Y-36936620D02*
X42566759Y-38776438D01*
X42646659Y-36826928D02*
X42563359Y-36936620D01*
X42729959Y-36717237D02*
X42646659Y-36826928D01*
X42813259Y-36607546D02*
X42729959Y-36717237D01*
X42896559Y-36497854D02*
X42813259Y-36607546D01*
X42979859Y-36388160D02*
X42896559Y-36497854D01*
X43063159Y-36278469D02*
X42979859Y-36388160D01*
X43146459Y-36168778D02*
X43063159Y-36278469D01*
X43229759Y-36059086D02*
X43146459Y-36168778D01*
X43229759Y-36036146D02*
X43229759Y-36059086D01*
X43229759Y-36013206D02*
X43229759Y-36036146D01*
X43229759Y-35990266D02*
X43229759Y-36013206D01*
X43229759Y-35967326D02*
X43229759Y-35990266D01*
X43229759Y-35944386D02*
X43229759Y-35967326D01*
X43229759Y-35921446D02*
X43229759Y-35944386D01*
X43229759Y-35898506D02*
X43229759Y-35921446D01*
X43229759Y-35875566D02*
X43229759Y-35898506D01*
X43229759Y-35711098D02*
X43229759Y-35875566D01*
X43229759Y-35546628D02*
X43229759Y-35711098D01*
X43229759Y-35382160D02*
X43229759Y-35546628D01*
X43229759Y-35217689D02*
X43229759Y-35382160D01*
X43229759Y-35053221D02*
X43229759Y-35217689D01*
X43229759Y-34888754D02*
X43229759Y-35053221D01*
X43229759Y-34724283D02*
X43229759Y-34888754D01*
X43229759Y-34559815D02*
X43229759Y-34724283D01*
X43304239Y-33802983D02*
X43229759Y-34559815D01*
X43518423Y-33090357D02*
X43304239Y-33802983D01*
X43858390Y-32439420D02*
X43518423Y-33090357D01*
X44310237Y-31867647D02*
X43858390Y-32439420D01*
X44860048Y-31392511D02*
X44310237Y-31867647D01*
X45493916Y-31031490D02*
X44860048Y-31392511D01*
X46197928Y-30802063D02*
X45493916Y-31031490D01*
X46958175Y-30721703D02*
X46197928Y-30802063D01*
X48341934Y-30721703D02*
X46958175Y-30721703D01*
X49725689Y-30721703D02*
X48341934Y-30721703D01*
X51109447Y-30721703D02*
X49725689Y-30721703D01*
X52493203Y-30721703D02*
X51109447Y-30721703D01*
X53876961Y-30721703D02*
X52493203Y-30721703D01*
X55260719Y-30721703D02*
X53876961Y-30721703D01*
X56644474Y-30721703D02*
X55260719Y-30721703D01*
X58028232Y-30721703D02*
X56644474Y-30721703D01*
X58028232Y-30599817D02*
X58028232Y-30721703D01*
X58028232Y-30477928D02*
X58028232Y-30599817D01*
X58028232Y-30356041D02*
X58028232Y-30477928D01*
X58028232Y-30234153D02*
X58028232Y-30356041D01*
X58028232Y-30112265D02*
X58028232Y-30234153D01*
X58028232Y-29990378D02*
X58028232Y-30112265D01*
X58028232Y-29868491D02*
X58028232Y-29990378D01*
X58028232Y-29746603D02*
X58028232Y-29868491D01*
X115096850Y-61419693D02*
X115096850Y-61419693D01*
X115096640Y-61419678D02*
X115096850Y-61419693D01*
X115096630Y-61419675D02*
X115096640Y-61419678D01*
X115096620Y-61419672D02*
X115096630Y-61419675D01*
X115096600Y-61419672D02*
X115096620Y-61419672D01*
X115096590Y-61419669D02*
X115096600Y-61419672D01*
X115096580Y-61419669D02*
X115096590Y-61419669D01*
X115096570Y-61419667D02*
X115096580Y-61419669D01*
X115096560Y-61419667D02*
X115096570Y-61419667D01*
X115346080Y-61573221D02*
X115096560Y-61419667D01*
X115577730Y-61736337D02*
X115346080Y-61573221D01*
X115782250Y-61903720D02*
X115577730Y-61736337D01*
X115950400Y-62070068D02*
X115782250Y-61903720D01*
X116072930Y-62230079D02*
X115950400Y-62070068D01*
X116140630Y-62378457D02*
X116072930Y-62230079D01*
X116144630Y-62509894D02*
X116140630Y-62378457D01*
X116074830Y-62619094D02*
X116144630Y-62509894D01*
X115953050Y-62726147D02*
X116074830Y-62619094D01*
X115831270Y-62833199D02*
X115953050Y-62726147D01*
X115709490Y-62940252D02*
X115831270Y-62833199D01*
X115587710Y-63047304D02*
X115709490Y-62940252D01*
X115465930Y-63154360D02*
X115587710Y-63047304D01*
X115344150Y-63261412D02*
X115465930Y-63154360D01*
X115222370Y-63368465D02*
X115344150Y-63261412D01*
X115100590Y-63475517D02*
X115222370Y-63368465D01*
X115196890Y-63592676D02*
X115100590Y-63475517D01*
X115287290Y-63714162D02*
X115196890Y-63592676D01*
X115371690Y-63839745D02*
X115287290Y-63714162D01*
X115449890Y-63969200D02*
X115371690Y-63839745D01*
X115521790Y-64102302D02*
X115449890Y-63969200D01*
X115587290Y-64238821D02*
X115521790Y-64102302D01*
X115646190Y-64378529D02*
X115587290Y-64238821D01*
X115698490Y-64521201D02*
X115646190Y-64378529D01*
X115852810Y-64469051D02*
X115698490Y-64521201D01*
X116007130Y-64416901D02*
X115852810Y-64469051D01*
X116161450Y-64364741D02*
X116007130Y-64416901D01*
X116315760Y-64312591D02*
X116161450Y-64364741D01*
X116470080Y-64260441D02*
X116315760Y-64312591D01*
X116624400Y-64208281D02*
X116470080Y-64260441D01*
X116778720Y-64156121D02*
X116624400Y-64208281D01*
X116933040Y-64103971D02*
X116778720Y-64156121D01*
X117172580Y-64167851D02*
X116933040Y-64103971D01*
X117344290Y-64487431D02*
X117172580Y-64167851D01*
X117447880Y-64977440D02*
X117344290Y-64487431D01*
X117483080Y-65552597D02*
X117447880Y-64977440D01*
X117449580Y-66127625D02*
X117483080Y-65552597D01*
X117347020Y-66617244D02*
X117449580Y-66127625D01*
X117175150Y-66936178D02*
X117347020Y-66617244D01*
X116933680Y-66999148D02*
X117175150Y-66936178D01*
X116778040Y-66946578D02*
X116933680Y-66999148D01*
X116622400Y-66894008D02*
X116778040Y-66946578D01*
X116466770Y-66841428D02*
X116622400Y-66894008D01*
X116311130Y-66788858D02*
X116466770Y-66841428D01*
X116155490Y-66736278D02*
X116311130Y-66788858D01*
X115999850Y-66683698D02*
X116155490Y-66736278D01*
X115844220Y-66631128D02*
X115999850Y-66683698D01*
X115688580Y-66578548D02*
X115844220Y-66631128D01*
X115663180Y-66649658D02*
X115688580Y-66578548D01*
X115636180Y-66720118D02*
X115663180Y-66649658D01*
X115607480Y-66789908D02*
X115636180Y-66720118D01*
X115577180Y-66858998D02*
X115607480Y-66789908D01*
X115545180Y-66927348D02*
X115577180Y-66858998D01*
X115511580Y-66994938D02*
X115545180Y-66927348D01*
X115476380Y-67061728D02*
X115511580Y-66994938D01*
X115439680Y-67127698D02*
X115476380Y-67061728D01*
X115400980Y-67192548D02*
X115439680Y-67127698D01*
X115360780Y-67256438D02*
X115400980Y-67192548D01*
X115319080Y-67319338D02*
X115360780Y-67256438D01*
X115275980Y-67381228D02*
X115319080Y-67319338D01*
X115231380Y-67442088D02*
X115275980Y-67381228D01*
X115185380Y-67501878D02*
X115231380Y-67442088D01*
X115137980Y-67560578D02*
X115185380Y-67501878D01*
X115089180Y-67618168D02*
X115137980Y-67560578D01*
X115212490Y-67726541D02*
X115089180Y-67618168D01*
X115335810Y-67834914D02*
X115212490Y-67726541D01*
X115459120Y-67943288D02*
X115335810Y-67834914D01*
X115582440Y-68051661D02*
X115459120Y-67943288D01*
X115705750Y-68160037D02*
X115582440Y-68051661D01*
X115829070Y-68268411D02*
X115705750Y-68160037D01*
X115952390Y-68376784D02*
X115829070Y-68268411D01*
X116075700Y-68485157D02*
X115952390Y-68376784D01*
X116140100Y-68724496D02*
X116075700Y-68485157D01*
X115949200Y-69032922D02*
X116140100Y-68724496D01*
X115576650Y-69367550D02*
X115949200Y-69032922D01*
X115096160Y-69685494D02*
X115576650Y-69367550D01*
X114581430Y-69943868D02*
X115096160Y-69685494D01*
X114106160Y-70099780D02*
X114581430Y-69943868D01*
X113744040Y-70110360D02*
X114106160Y-70099780D01*
X113568780Y-69932704D02*
X113744040Y-70110360D01*
X113536780Y-69772777D02*
X113568780Y-69932704D01*
X113504780Y-69612850D02*
X113536780Y-69772777D01*
X113472780Y-69452921D02*
X113504780Y-69612850D01*
X113440780Y-69292994D02*
X113472780Y-69452921D01*
X113408780Y-69133067D02*
X113440780Y-69292994D01*
X113376780Y-68973140D02*
X113408780Y-69133067D01*
X113344780Y-68813211D02*
X113376780Y-68973140D01*
X113312780Y-68653284D02*
X113344780Y-68813211D01*
X113163000Y-68679644D02*
X113312780Y-68653284D01*
X113012430Y-68698724D02*
X113163000Y-68679644D01*
X112861330Y-68710524D02*
X113012430Y-68698724D01*
X112709970Y-68715024D02*
X112861330Y-68710524D01*
X112558610Y-68712224D02*
X112709970Y-68715024D01*
X112407510Y-68702174D02*
X112558610Y-68712224D01*
X112256940Y-68684844D02*
X112407510Y-68702174D01*
X112107150Y-68660204D02*
X112256940Y-68684844D01*
X112075250Y-68819276D02*
X112107150Y-68660204D01*
X112043350Y-68978347D02*
X112075250Y-68819276D01*
X112011450Y-69137419D02*
X112043350Y-68978347D01*
X111979550Y-69296491D02*
X112011450Y-69137419D01*
X111947650Y-69455560D02*
X111979550Y-69296491D01*
X111915750Y-69614632D02*
X111947650Y-69455560D01*
X111883850Y-69773703D02*
X111915750Y-69614632D01*
X111851950Y-69932775D02*
X111883850Y-69773703D01*
X111676660Y-70110428D02*
X111851950Y-69932775D01*
X111314490Y-70099848D02*
X111676660Y-70110428D01*
X110839140Y-69943918D02*
X111314490Y-70099848D01*
X110324310Y-69685529D02*
X110839140Y-69943918D01*
X109843740Y-69367569D02*
X110324310Y-69685529D01*
X109471120Y-69032927D02*
X109843740Y-69367569D01*
X109280160Y-68724492D02*
X109471120Y-69032927D01*
X109344560Y-68485150D02*
X109280160Y-68724492D01*
X109466340Y-68378098D02*
X109344560Y-68485150D01*
X109588120Y-68271043D02*
X109466340Y-68378098D01*
X109709900Y-68163990D02*
X109588120Y-68271043D01*
X109831680Y-68056935D02*
X109709900Y-68163990D01*
X109953460Y-67949882D02*
X109831680Y-68056935D01*
X110075240Y-67842830D02*
X109953460Y-67949882D01*
X110197020Y-67735774D02*
X110075240Y-67842830D01*
X110318800Y-67628722D02*
X110197020Y-67735774D01*
X110222600Y-67511399D02*
X110318800Y-67628722D01*
X110132300Y-67389750D02*
X110222600Y-67511399D01*
X110048000Y-67264000D02*
X110132300Y-67389750D01*
X109969900Y-67134384D02*
X110048000Y-67264000D01*
X109898100Y-67001124D02*
X109969900Y-67134384D01*
X109832700Y-66864450D02*
X109898100Y-67001124D01*
X109773900Y-66724586D02*
X109832700Y-66864450D01*
X109721800Y-66581765D02*
X109773900Y-66724586D01*
X109567480Y-66633915D02*
X109721800Y-66581765D01*
X109413160Y-66686075D02*
X109567480Y-66633915D01*
X109258840Y-66738225D02*
X109413160Y-66686075D01*
X109104520Y-66790375D02*
X109258840Y-66738225D01*
X108950210Y-66842525D02*
X109104520Y-66790375D01*
X108795890Y-66894675D02*
X108950210Y-66842525D01*
X108641570Y-66946825D02*
X108795890Y-66894675D01*
X108487250Y-66998975D02*
X108641570Y-66946825D01*
X108245760Y-66936025D02*
X108487250Y-66998975D01*
X108073860Y-66617130D02*
X108245760Y-66936025D01*
X107971250Y-66127571D02*
X108073860Y-66617130D01*
X107937650Y-65552611D02*
X107971250Y-66127571D01*
X107972750Y-64977523D02*
X107937650Y-65552611D01*
X108076270Y-64487574D02*
X107972750Y-64977523D01*
X108247930Y-64168034D02*
X108076270Y-64487574D01*
X108487420Y-64104174D02*
X108247930Y-64168034D01*
X108642980Y-64156704D02*
X108487420Y-64104174D01*
X108798530Y-64209234D02*
X108642980Y-64156704D01*
X108954090Y-64261764D02*
X108798530Y-64209234D01*
X109109650Y-64314294D02*
X108954090Y-64261764D01*
X109265210Y-64366824D02*
X109109650Y-64314294D01*
X109420770Y-64419354D02*
X109265210Y-64366824D01*
X109576330Y-64471884D02*
X109420770Y-64419354D01*
X109731890Y-64524414D02*
X109576330Y-64471884D01*
X109757290Y-64453394D02*
X109731890Y-64524414D01*
X109784290Y-64383014D02*
X109757290Y-64453394D01*
X109812890Y-64313314D02*
X109784290Y-64383014D01*
X109843190Y-64244314D02*
X109812890Y-64313314D01*
X109875090Y-64176044D02*
X109843190Y-64244314D01*
X109908590Y-64108534D02*
X109875090Y-64176044D01*
X109943690Y-64041814D02*
X109908590Y-64108534D01*
X109980390Y-63975914D02*
X109943690Y-64041814D01*
X110019090Y-63911064D02*
X109980390Y-63975914D01*
X110059290Y-63847174D02*
X110019090Y-63911064D01*
X110100990Y-63784264D02*
X110059290Y-63847174D01*
X110144090Y-63722374D02*
X110100990Y-63784264D01*
X110188690Y-63661524D02*
X110144090Y-63722374D01*
X110234690Y-63601734D02*
X110188690Y-63661524D01*
X110282090Y-63543034D02*
X110234690Y-63601734D01*
X110330890Y-63485444D02*
X110282090Y-63543034D01*
X110207650Y-63377118D02*
X110330890Y-63485444D01*
X110084410Y-63268790D02*
X110207650Y-63377118D01*
X109961170Y-63160462D02*
X110084410Y-63268790D01*
X109837940Y-63052137D02*
X109961170Y-63160462D01*
X109714700Y-62943811D02*
X109837940Y-63052137D01*
X109591470Y-62835483D02*
X109714700Y-62943811D01*
X109468230Y-62727155D02*
X109591470Y-62835483D01*
X109345000Y-62618830D02*
X109468230Y-62727155D01*
X109278800Y-62378196D02*
X109345000Y-62618830D01*
X109469110Y-62069811D02*
X109278800Y-62378196D01*
X109841920Y-61736078D02*
X109469110Y-62069811D01*
X110323190Y-61419391D02*
X109841920Y-61736078D01*
X110838940Y-61162145D02*
X110323190Y-61419391D01*
X111315150Y-61006734D02*
X110838940Y-61162145D01*
X111677800Y-60995554D02*
X111315150Y-61006734D01*
X111852890Y-61171009D02*
X111677800Y-60995554D01*
X111884890Y-61330936D02*
X111852890Y-61171009D01*
X111916890Y-61490862D02*
X111884890Y-61330936D01*
X111948890Y-61650792D02*
X111916890Y-61490862D01*
X111980890Y-61810719D02*
X111948890Y-61650792D01*
X112012890Y-61970646D02*
X111980890Y-61810719D01*
X112044890Y-62130573D02*
X112012890Y-61970646D01*
X112076890Y-62290502D02*
X112044890Y-62130573D01*
X112108890Y-62450429D02*
X112076890Y-62290502D01*
X112258470Y-62424129D02*
X112108890Y-62450429D01*
X112408830Y-62405079D02*
X112258470Y-62424129D01*
X112559720Y-62393279D02*
X112408830Y-62405079D01*
X112710870Y-62388779D02*
X112559720Y-62393279D01*
X112862020Y-62391579D02*
X112710870Y-62388779D01*
X113012910Y-62401599D02*
X112862020Y-62391579D01*
X113163280Y-62418869D02*
X113012910Y-62401599D01*
X113312870Y-62443419D02*
X113163280Y-62418869D01*
X113344670Y-62284427D02*
X113312870Y-62443419D01*
X113376470Y-62125437D02*
X113344670Y-62284427D01*
X113408270Y-61966444D02*
X113376470Y-62125437D01*
X113440070Y-61807454D02*
X113408270Y-61966444D01*
X113471870Y-61648461D02*
X113440070Y-61807454D01*
X113503670Y-61489469D02*
X113471870Y-61648461D01*
X113535470Y-61330479D02*
X113503670Y-61489469D01*
X113567270Y-61171486D02*
X113535470Y-61330479D01*
X113626770Y-61057779D02*
X113567270Y-61171486D01*
X113742380Y-60996029D02*
X113626770Y-61057779D01*
X113904870Y-60980929D02*
X113742380Y-60996029D01*
X114105000Y-61007179D02*
X113904870Y-60980929D01*
X114333510Y-61069479D02*
X114105000Y-61007179D01*
X114581150Y-61162529D02*
X114333510Y-61069479D01*
X114838690Y-61281034D02*
X114581150Y-61162529D01*
X115096850Y-61419693D02*
X114838690Y-61281034D01*
X73802998Y-61419693D02*
X73802998Y-61419693D01*
X73802981Y-61419685D02*
X73802998Y-61419693D01*
X73802970Y-61419682D02*
X73802981Y-61419685D01*
X73802959Y-61419679D02*
X73802970Y-61419682D01*
X73802945Y-61419679D02*
X73802959Y-61419679D01*
X73802934Y-61419676D02*
X73802945Y-61419679D01*
X73802922Y-61419676D02*
X73802934Y-61419676D01*
X73802911Y-61419673D02*
X73802922Y-61419676D01*
X73802900Y-61419673D02*
X73802911Y-61419673D01*
X74052426Y-61573228D02*
X73802900Y-61419673D01*
X74284071Y-61736344D02*
X74052426Y-61573228D01*
X74488592Y-61903727D02*
X74284071Y-61736344D01*
X74656740Y-62070074D02*
X74488592Y-61903727D01*
X74779261Y-62230098D02*
X74656740Y-62070074D01*
X74846931Y-62378473D02*
X74779261Y-62230098D01*
X74850531Y-62509910D02*
X74846931Y-62378473D01*
X74780741Y-62619106D02*
X74850531Y-62509910D01*
X74658959Y-62726158D02*
X74780741Y-62619106D01*
X74537180Y-62833211D02*
X74658959Y-62726158D01*
X74415398Y-62940263D02*
X74537180Y-62833211D01*
X74293620Y-63047316D02*
X74415398Y-62940263D01*
X74171841Y-63154371D02*
X74293620Y-63047316D01*
X74050059Y-63261424D02*
X74171841Y-63154371D01*
X73928277Y-63368476D02*
X74050059Y-63261424D01*
X73806498Y-63475529D02*
X73928277Y-63368476D01*
X73902798Y-63592688D02*
X73806498Y-63475529D01*
X73993198Y-63714173D02*
X73902798Y-63592688D01*
X74077568Y-63839756D02*
X73993198Y-63714173D01*
X74155768Y-63969211D02*
X74077568Y-63839756D01*
X74227678Y-64102313D02*
X74155768Y-63969211D01*
X74293168Y-64238832D02*
X74227678Y-64102313D01*
X74352108Y-64378541D02*
X74293168Y-64238832D01*
X74404368Y-64521213D02*
X74352108Y-64378541D01*
X74558687Y-64469063D02*
X74404368Y-64521213D01*
X74713006Y-64416913D02*
X74558687Y-64469063D01*
X74867325Y-64364753D02*
X74713006Y-64416913D01*
X75021645Y-64312603D02*
X74867325Y-64364753D01*
X75175964Y-64260453D02*
X75021645Y-64312603D01*
X75330283Y-64208293D02*
X75175964Y-64260453D01*
X75484602Y-64156143D02*
X75330283Y-64208293D01*
X75638921Y-64103993D02*
X75484602Y-64156143D01*
X75878460Y-64167873D02*
X75638921Y-64103993D01*
X76050172Y-64487453D02*
X75878460Y-64167873D01*
X76153759Y-64977461D02*
X76050172Y-64487453D01*
X76188929Y-65552619D02*
X76153759Y-64977461D01*
X76155379Y-66127647D02*
X76188929Y-65552619D01*
X76052819Y-66617266D02*
X76155379Y-66127647D01*
X75880952Y-66936199D02*
X76052819Y-66617266D01*
X75639480Y-66999169D02*
X75880952Y-66936199D01*
X75483843Y-66946599D02*
X75639480Y-66999169D01*
X75328206Y-66894029D02*
X75483843Y-66946599D01*
X75172569Y-66841449D02*
X75328206Y-66894029D01*
X75016929Y-66788879D02*
X75172569Y-66841449D01*
X74861292Y-66736299D02*
X75016929Y-66788879D01*
X74705655Y-66683719D02*
X74861292Y-66736299D01*
X74550018Y-66631149D02*
X74705655Y-66683719D01*
X74394380Y-66578569D02*
X74550018Y-66631149D01*
X74369010Y-66649679D02*
X74394380Y-66578569D01*
X74341970Y-66720139D02*
X74369010Y-66649679D01*
X74313280Y-66789929D02*
X74341970Y-66720139D01*
X74282950Y-66859019D02*
X74313280Y-66789929D01*
X74250990Y-66927369D02*
X74282950Y-66859019D01*
X74217420Y-66994959D02*
X74250990Y-66927369D01*
X74182250Y-67061749D02*
X74217420Y-66994959D01*
X74145500Y-67127719D02*
X74182250Y-67061749D01*
X74106820Y-67192569D02*
X74145500Y-67127719D01*
X74066640Y-67256459D02*
X74106820Y-67192569D01*
X74024970Y-67319359D02*
X74066640Y-67256459D01*
X73981840Y-67381249D02*
X74024970Y-67319359D01*
X73937260Y-67442109D02*
X73981840Y-67381249D01*
X73891250Y-67501899D02*
X73937260Y-67442109D01*
X73843820Y-67560599D02*
X73891250Y-67501899D01*
X73795000Y-67618189D02*
X73843820Y-67560599D01*
X73918314Y-67726562D02*
X73795000Y-67618189D01*
X74041631Y-67834935D02*
X73918314Y-67726562D01*
X74164946Y-67943309D02*
X74041631Y-67834935D01*
X74288263Y-68051682D02*
X74164946Y-67943309D01*
X74411577Y-68160058D02*
X74288263Y-68051682D01*
X74534894Y-68268432D02*
X74411577Y-68160058D01*
X74658208Y-68376805D02*
X74534894Y-68268432D01*
X74781525Y-68485178D02*
X74658208Y-68376805D01*
X74845965Y-68724517D02*
X74781525Y-68485178D01*
X74655061Y-69032943D02*
X74845965Y-68724517D01*
X74282514Y-69367571D02*
X74655061Y-69032943D01*
X73802025Y-69685515D02*
X74282514Y-69367571D01*
X73287291Y-69943889D02*
X73802025Y-69685515D01*
X72812014Y-70099803D02*
X73287291Y-69943889D01*
X72449894Y-70110383D02*
X72812014Y-70099803D01*
X72274632Y-69932727D02*
X72449894Y-70110383D01*
X72242652Y-69772800D02*
X72274632Y-69932727D01*
X72210672Y-69612873D02*
X72242652Y-69772800D01*
X72178692Y-69452943D02*
X72210672Y-69612873D01*
X72146712Y-69293017D02*
X72178692Y-69452943D01*
X72114732Y-69133090D02*
X72146712Y-69293017D01*
X72082752Y-68973163D02*
X72114732Y-69133090D01*
X72050772Y-68813233D02*
X72082752Y-68973163D01*
X72018792Y-68653306D02*
X72050772Y-68813233D01*
X71869011Y-68679666D02*
X72018792Y-68653306D01*
X71718440Y-68698746D02*
X71869011Y-68679666D01*
X71567344Y-68710546D02*
X71718440Y-68698746D01*
X71415982Y-68715046D02*
X71567344Y-68710546D01*
X71264623Y-68712246D02*
X71415982Y-68715046D01*
X71113524Y-68702196D02*
X71264623Y-68712246D01*
X70962948Y-68684866D02*
X71113524Y-68702196D01*
X70813158Y-68660226D02*
X70962948Y-68684866D01*
X70781288Y-68819298D02*
X70813158Y-68660226D01*
X70749418Y-68978370D02*
X70781288Y-68819298D01*
X70717548Y-69137441D02*
X70749418Y-68978370D01*
X70685688Y-69296513D02*
X70717548Y-69137441D01*
X70653818Y-69455582D02*
X70685688Y-69296513D01*
X70621948Y-69614654D02*
X70653818Y-69455582D01*
X70590088Y-69773726D02*
X70621948Y-69614654D01*
X70558218Y-69932797D02*
X70590088Y-69773726D01*
X70382933Y-70110451D02*
X70558218Y-69932797D01*
X70020760Y-70099871D02*
X70382933Y-70110451D01*
X69545407Y-69943941D02*
X70020760Y-70099871D01*
X69030586Y-69685552D02*
X69545407Y-69943941D01*
X68550006Y-69367592D02*
X69030586Y-69685552D01*
X68177386Y-69032950D02*
X68550006Y-69367592D01*
X67986428Y-68724515D02*
X68177386Y-69032950D01*
X68050848Y-68485173D02*
X67986428Y-68724515D01*
X68172630Y-68378121D02*
X68050848Y-68485173D01*
X68294409Y-68271066D02*
X68172630Y-68378121D01*
X68416191Y-68164013D02*
X68294409Y-68271066D01*
X68537970Y-68056958D02*
X68416191Y-68164013D01*
X68659751Y-67949905D02*
X68537970Y-68056958D01*
X68781533Y-67842853D02*
X68659751Y-67949905D01*
X68903312Y-67735797D02*
X68781533Y-67842853D01*
X69025094Y-67628742D02*
X68903312Y-67735797D01*
X68928844Y-67511419D02*
X69025094Y-67628742D01*
X68838514Y-67389770D02*
X68928844Y-67511419D01*
X68754224Y-67264020D02*
X68838514Y-67389770D01*
X68676104Y-67134404D02*
X68754224Y-67264020D01*
X68604294Y-67001145D02*
X68676104Y-67134404D01*
X68538914Y-66864470D02*
X68604294Y-67001145D01*
X68480094Y-66724606D02*
X68538914Y-66864470D01*
X68427974Y-66581785D02*
X68480094Y-66724606D01*
X68273655Y-66633935D02*
X68427974Y-66581785D01*
X68119336Y-66686085D02*
X68273655Y-66633935D01*
X67965017Y-66738235D02*
X68119336Y-66686085D01*
X67810698Y-66790385D02*
X67965017Y-66738235D01*
X67656381Y-66842535D02*
X67810698Y-66790385D01*
X67502062Y-66894685D02*
X67656381Y-66842535D01*
X67347743Y-66946835D02*
X67502062Y-66894685D01*
X67193424Y-66998985D02*
X67347743Y-66946835D01*
X66951938Y-66936035D02*
X67193424Y-66998985D01*
X66780033Y-66617140D02*
X66951938Y-66936035D01*
X66677420Y-66127581D02*
X66780033Y-66617140D01*
X66643810Y-65552621D02*
X66677420Y-66127581D01*
X66678910Y-64977534D02*
X66643810Y-65552621D01*
X66782435Y-64487585D02*
X66678910Y-64977534D01*
X66954088Y-64168044D02*
X66782435Y-64487585D01*
X67193582Y-64104184D02*
X66954088Y-64168044D01*
X67349140Y-64156714D02*
X67193582Y-64104184D01*
X67504698Y-64209244D02*
X67349140Y-64156714D01*
X67660256Y-64261774D02*
X67504698Y-64209244D01*
X67815814Y-64314304D02*
X67660256Y-64261774D01*
X67971375Y-64366834D02*
X67815814Y-64314304D01*
X68126933Y-64419364D02*
X67971375Y-64366834D01*
X68282491Y-64471894D02*
X68126933Y-64419364D01*
X68438049Y-64524424D02*
X68282491Y-64471894D01*
X68463389Y-64453404D02*
X68438049Y-64524424D01*
X68490399Y-64383024D02*
X68463389Y-64453404D01*
X68519049Y-64313324D02*
X68490399Y-64383024D01*
X68549329Y-64244324D02*
X68519049Y-64313324D01*
X68581239Y-64176054D02*
X68549329Y-64244324D01*
X68614749Y-64108544D02*
X68581239Y-64176054D01*
X68649859Y-64041824D02*
X68614749Y-64108544D01*
X68686549Y-63975924D02*
X68649859Y-64041824D01*
X68725229Y-63911074D02*
X68686549Y-63975924D01*
X68765409Y-63847184D02*
X68725229Y-63911074D01*
X68807069Y-63784274D02*
X68765409Y-63847184D01*
X68850199Y-63722384D02*
X68807069Y-63784274D01*
X68894779Y-63661524D02*
X68850199Y-63722384D01*
X68940799Y-63601734D02*
X68894779Y-63661524D01*
X68988229Y-63543034D02*
X68940799Y-63601734D01*
X69037049Y-63485444D02*
X68988229Y-63543034D01*
X68913814Y-63377119D02*
X69037049Y-63485444D01*
X68790576Y-63268790D02*
X68913814Y-63377119D01*
X68667341Y-63160462D02*
X68790576Y-63268790D01*
X68544105Y-63052137D02*
X68667341Y-63160462D01*
X68420870Y-62943812D02*
X68544105Y-63052137D01*
X68297632Y-62835483D02*
X68420870Y-62943812D01*
X68174397Y-62727155D02*
X68297632Y-62835483D01*
X68051162Y-62618830D02*
X68174397Y-62727155D01*
X67984972Y-62378196D02*
X68051162Y-62618830D01*
X68175286Y-62069812D02*
X67984972Y-62378196D01*
X68548090Y-61736078D02*
X68175286Y-62069812D01*
X69029369Y-61419391D02*
X68548090Y-61736078D01*
X69545116Y-61162145D02*
X69029369Y-61419391D01*
X70021324Y-61006734D02*
X69545116Y-61162145D01*
X70383977Y-60995554D02*
X70021324Y-61006734D01*
X70559064Y-61171009D02*
X70383977Y-60995554D01*
X70591044Y-61330936D02*
X70559064Y-61171009D01*
X70623024Y-61490863D02*
X70591044Y-61330936D01*
X70655004Y-61650792D02*
X70623024Y-61490863D01*
X70686984Y-61810719D02*
X70655004Y-61650792D01*
X70718964Y-61970646D02*
X70686984Y-61810719D01*
X70750944Y-62130573D02*
X70718964Y-61970646D01*
X70782924Y-62290503D02*
X70750944Y-62130573D01*
X70814904Y-62450429D02*
X70782924Y-62290503D01*
X70964482Y-62424129D02*
X70814904Y-62450429D01*
X71114844Y-62405079D02*
X70964482Y-62424129D01*
X71265731Y-62393279D02*
X71114844Y-62405079D01*
X71416881Y-62388779D02*
X71265731Y-62393279D01*
X71568034Y-62391579D02*
X71416881Y-62388779D01*
X71718924Y-62401599D02*
X71568034Y-62391579D01*
X71869295Y-62418869D02*
X71718924Y-62401599D01*
X72018884Y-62443419D02*
X71869295Y-62418869D01*
X72050704Y-62284427D02*
X72018884Y-62443419D01*
X72082524Y-62125437D02*
X72050704Y-62284427D01*
X72114344Y-61966444D02*
X72082524Y-62125437D01*
X72146164Y-61807454D02*
X72114344Y-61966444D01*
X72177984Y-61648461D02*
X72146164Y-61807454D01*
X72209804Y-61489469D02*
X72177984Y-61648461D01*
X72241624Y-61330479D02*
X72209804Y-61489469D01*
X72273444Y-61171486D02*
X72241624Y-61330479D01*
X72332914Y-61057779D02*
X72273444Y-61171486D01*
X72448521Y-60996029D02*
X72332914Y-61057779D01*
X72611013Y-60980929D02*
X72448521Y-60996029D01*
X72811140Y-61007179D02*
X72611013Y-60980929D01*
X73039652Y-61069479D02*
X72811140Y-61007179D01*
X73287297Y-61162529D02*
X73039652Y-61069479D01*
X73544830Y-61281034D02*
X73287297Y-61162529D01*
X73802998Y-61419693D02*
X73544830Y-61281034D01*
X122734530Y-33136848D02*
X122734530Y-33136848D01*
X122704040Y-32833976D02*
X122734530Y-33136848D01*
X122616440Y-32551886D02*
X122704040Y-32833976D01*
X122477880Y-32296616D02*
X122616440Y-32551886D01*
X122294380Y-32074205D02*
X122477880Y-32296616D01*
X122071970Y-31890702D02*
X122294380Y-32074205D01*
X121816700Y-31752145D02*
X122071970Y-31890702D01*
X121534600Y-31664575D02*
X121816700Y-31752145D01*
X121231740Y-31634045D02*
X121534600Y-31664575D01*
X120928880Y-31664575D02*
X121231740Y-31634045D01*
X120646780Y-31752145D02*
X120928880Y-31664575D01*
X120391510Y-31890702D02*
X120646780Y-31752145D01*
X120169100Y-32074208D02*
X120391510Y-31890702D01*
X119985600Y-32296616D02*
X120169100Y-32074208D01*
X119847040Y-32551889D02*
X119985600Y-32296616D01*
X119759440Y-32833979D02*
X119847040Y-32551889D01*
X119728940Y-33136846D02*
X119759440Y-32833979D01*
X119759440Y-33439710D02*
X119728940Y-33136846D01*
X119847040Y-33721802D02*
X119759440Y-33439710D01*
X119985600Y-33977072D02*
X119847040Y-33721802D01*
X120169100Y-34199480D02*
X119985600Y-33977072D01*
X120391510Y-34382984D02*
X120169100Y-34199480D01*
X120646780Y-34521541D02*
X120391510Y-34382984D01*
X120928870Y-34609111D02*
X120646780Y-34521541D01*
X121231740Y-34639641D02*
X120928870Y-34609111D01*
X121534600Y-34609111D02*
X121231740Y-34639641D01*
X121816690Y-34521541D02*
X121534600Y-34609111D01*
X122071960Y-34382986D02*
X121816690Y-34521541D01*
X122294370Y-34199480D02*
X122071960Y-34382986D01*
X122477880Y-33977072D02*
X122294370Y-34199480D01*
X122616430Y-33721802D02*
X122477880Y-33977072D01*
X122704030Y-33439712D02*
X122616430Y-33721802D01*
X122734530Y-33136848D02*
X122704030Y-33439712D01*
X64397644Y-33136848D02*
X64397644Y-33136848D01*
X64367100Y-32833976D02*
X64397644Y-33136848D01*
X64279540Y-32551887D02*
X64367100Y-32833976D01*
X64140983Y-32296614D02*
X64279540Y-32551887D01*
X63957476Y-32074206D02*
X64140983Y-32296614D01*
X63735068Y-31890699D02*
X63957476Y-32074206D01*
X63479796Y-31752142D02*
X63735068Y-31890699D01*
X63197706Y-31664572D02*
X63479796Y-31752142D01*
X62894839Y-31634042D02*
X63197706Y-31664572D01*
X62591975Y-31664572D02*
X62894839Y-31634042D01*
X62309883Y-31752142D02*
X62591975Y-31664572D01*
X62054613Y-31890699D02*
X62309883Y-31752142D01*
X61832205Y-32074203D02*
X62054613Y-31890699D01*
X61648701Y-32296614D02*
X61832205Y-32074203D01*
X61510144Y-32551884D02*
X61648701Y-32296614D01*
X61422584Y-32833973D02*
X61510144Y-32551884D01*
X61392054Y-33136840D02*
X61422584Y-32833973D01*
X61422584Y-33439704D02*
X61392054Y-33136840D01*
X61510154Y-33721794D02*
X61422584Y-33439704D01*
X61648708Y-33977064D02*
X61510154Y-33721794D01*
X61832215Y-34199472D02*
X61648708Y-33977064D01*
X62054623Y-34382978D02*
X61832215Y-34199472D01*
X62309893Y-34521533D02*
X62054623Y-34382978D01*
X62591982Y-34609103D02*
X62309893Y-34521533D01*
X62894846Y-34639633D02*
X62591982Y-34609103D01*
X63197713Y-34609103D02*
X62894846Y-34639633D01*
X63479803Y-34521543D02*
X63197713Y-34609103D01*
X63735073Y-34382986D02*
X63479803Y-34521543D01*
X63957483Y-34199483D02*
X63735073Y-34382986D01*
X64140987Y-33977075D02*
X63957483Y-34199483D01*
X64279544Y-33721802D02*
X64140987Y-33977075D01*
X64367114Y-33439712D02*
X64279544Y-33721802D01*
X64397644Y-33136848D02*
X64367114Y-33439712D01*
X58028232Y-29746603D02*
X58028232Y-29746603D01*
X58024840Y-29746567D02*
X58028232Y-29746603D01*
X58024843Y-29746572D02*
X58024840Y-29746567D01*
X58024845Y-29746577D02*
X58024843Y-29746572D01*
X58024848Y-29746582D02*
X58024845Y-29746577D01*
X58024851Y-29746587D02*
X58024848Y-29746582D01*
X58024854Y-29746592D02*
X58024851Y-29746587D01*
X58024857Y-29746597D02*
X58024854Y-29746592D01*
X58024859Y-29746601D02*
X58024857Y-29746597D01*
X66547130Y-29746601D02*
X58024859Y-29746601D01*
X75069401Y-29746601D02*
X66547130Y-29746601D01*
X83591670Y-29746601D02*
X75069401Y-29746601D01*
X92113940Y-29746601D02*
X83591670Y-29746601D01*
X100636210Y-29746601D02*
X92113940Y-29746601D01*
X109158480Y-29746601D02*
X100636210Y-29746601D01*
X117680760Y-29746601D02*
X109158480Y-29746601D01*
X126203000Y-29746601D02*
X117680760Y-29746601D01*
X126203000Y-29868558D02*
X126203000Y-29746601D01*
X126203000Y-29990514D02*
X126203000Y-29868558D01*
X126203000Y-30112470D02*
X126203000Y-29990514D01*
X126203000Y-30234427D02*
X126203000Y-30112470D01*
X126203000Y-30356383D02*
X126203000Y-30234427D01*
X126203000Y-30478338D02*
X126203000Y-30356383D01*
X126203000Y-30600295D02*
X126203000Y-30478338D01*
X126203000Y-30722252D02*
X126203000Y-30600295D01*
X127573660Y-30722252D02*
X126203000Y-30722252D01*
X128944330Y-30722252D02*
X127573660Y-30722252D01*
X130314990Y-30722252D02*
X128944330Y-30722252D01*
X131685660Y-30722252D02*
X130314990Y-30722252D01*
X133056320Y-30722252D02*
X131685660Y-30722252D01*
X134426990Y-30722252D02*
X133056320Y-30722252D01*
X135797650Y-30722252D02*
X134426990Y-30722252D01*
X137168320Y-30722252D02*
X135797650Y-30722252D01*
X137929270Y-30802442D02*
X137168320Y-30722252D01*
X138635150Y-31031508D02*
X137929270Y-30802442D01*
X139271480Y-31392194D02*
X138635150Y-31031508D01*
X139823750Y-31867238D02*
X139271480Y-31392194D01*
X140277460Y-32439388D02*
X139823750Y-31867238D01*
X140618110Y-33091383D02*
X140277460Y-32439388D01*
X140831210Y-33805964D02*
X140618110Y-33091383D01*
X140901910Y-34565876D02*
X140831210Y-33805964D01*
X140901910Y-34716910D02*
X140901910Y-34565876D01*
X140901910Y-34867941D02*
X140901910Y-34716910D01*
X140901910Y-35018975D02*
X140901910Y-34867941D01*
X140901910Y-35170009D02*
X140901910Y-35018975D01*
X140901910Y-35321040D02*
X140901910Y-35170009D01*
X140901910Y-35472074D02*
X140901910Y-35321040D01*
X140901910Y-35623106D02*
X140901910Y-35472074D01*
X140901910Y-35774140D02*
X140901910Y-35623106D01*
X140901910Y-35810180D02*
X140901910Y-35774140D01*
X140901910Y-35846210D02*
X140901910Y-35810180D01*
X140901910Y-35882250D02*
X140901910Y-35846210D01*
X140901910Y-35918290D02*
X140901910Y-35882250D01*
X140901910Y-35954320D02*
X140901910Y-35918290D01*
X140901910Y-35990360D02*
X140901910Y-35954320D01*
X140901910Y-36026390D02*
X140901910Y-35990360D01*
X140901910Y-36062430D02*
X140901910Y-36026390D01*
X140984110Y-36172191D02*
X140901910Y-36062430D01*
X141066310Y-36281950D02*
X140984110Y-36172191D01*
X141148510Y-36391712D02*
X141066310Y-36281950D01*
X141230710Y-36501474D02*
X141148510Y-36391712D01*
X141312910Y-36611233D02*
X141230710Y-36501474D01*
X141395110Y-36720995D02*
X141312910Y-36611233D01*
X141477310Y-36830754D02*
X141395110Y-36720995D01*
X141559510Y-36940516D02*
X141477310Y-36830754D01*
X141556510Y-38774478D02*
X141559510Y-36940516D01*
X141553510Y-40608440D02*
X141556510Y-38774478D01*
X141550510Y-42442402D02*
X141553510Y-40608440D01*
X141547510Y-44276364D02*
X141550510Y-42442402D01*
X141544510Y-46110326D02*
X141547510Y-44276364D01*
X141541510Y-47944288D02*
X141544510Y-46110326D01*
X141538510Y-49778250D02*
X141541510Y-47944288D01*
X141535510Y-51612212D02*
X141538510Y-49778250D01*
X141453910Y-51739404D02*
X141535510Y-51612212D01*
X141372310Y-51866598D02*
X141453910Y-51739404D01*
X141290710Y-51993790D02*
X141372310Y-51866598D01*
X141209110Y-52120982D02*
X141290710Y-51993790D01*
X141127510Y-52248177D02*
X141209110Y-52120982D01*
X141045910Y-52375369D02*
X141127510Y-52248177D01*
X140964310Y-52502564D02*
X141045910Y-52375369D01*
X140882710Y-52629756D02*
X140964310Y-52502564D01*
X140882710Y-52724496D02*
X140882710Y-52629756D01*
X140882710Y-52819236D02*
X140882710Y-52724496D01*
X140882710Y-52913976D02*
X140882710Y-52819236D01*
X140882710Y-53008716D02*
X140882710Y-52913976D01*
X140882710Y-53103456D02*
X140882710Y-53008716D01*
X140882710Y-53198196D02*
X140882710Y-53103456D01*
X140882710Y-53292936D02*
X140882710Y-53198196D01*
X140882710Y-53387676D02*
X140882710Y-53292936D01*
X140882710Y-58061637D02*
X140882710Y-53387676D01*
X140882710Y-62735597D02*
X140882710Y-58061637D01*
X140882710Y-67409560D02*
X140882710Y-62735597D01*
X140882710Y-72083522D02*
X140882710Y-67409560D01*
X140882710Y-76757479D02*
X140882710Y-72083522D01*
X140882710Y-81431442D02*
X140882710Y-76757479D01*
X140882710Y-86105402D02*
X140882710Y-81431442D01*
X140882710Y-90779364D02*
X140882710Y-86105402D01*
X140807810Y-91531339D02*
X140882710Y-90779364D01*
X140592800Y-92235729D02*
X140807810Y-91531339D01*
X140252140Y-92876295D02*
X140592800Y-92235729D01*
X139800330Y-93436805D02*
X140252140Y-92876295D01*
X139251860Y-93901021D02*
X139800330Y-93436805D01*
X138621220Y-94252703D02*
X139251860Y-93901021D01*
X137922890Y-94475622D02*
X138621220Y-94252703D01*
X137171380Y-94553542D02*
X137922890Y-94475622D01*
X125894680Y-94553542D02*
X137171380Y-94553542D01*
X114617990Y-94553542D02*
X125894680Y-94553542D01*
X103341300Y-94553542D02*
X114617990Y-94553542D01*
X92064600Y-94553542D02*
X103341300Y-94553542D01*
X80787909Y-94553542D02*
X92064600Y-94553542D01*
X69511216Y-94553542D02*
X80787909Y-94553542D01*
X58234524Y-94553542D02*
X69511216Y-94553542D01*
X46957830Y-94553542D02*
X58234524Y-94553542D01*
X46211589Y-94473562D02*
X46957830Y-94553542D01*
X45527110Y-94245668D02*
X46211589Y-94473562D01*
X44915898Y-93887912D02*
X45527110Y-94245668D01*
X44389466Y-93418351D02*
X44915898Y-93887912D01*
X43959320Y-92855048D02*
X44389466Y-93418351D01*
X43636971Y-92216052D02*
X43959320Y-92855048D01*
X43433929Y-91519431D02*
X43636971Y-92216052D01*
X43361699Y-90783230D02*
X43433929Y-91519431D01*
X43361699Y-90783019D02*
X43361699Y-90783230D01*
X43361699Y-90782807D02*
X43361699Y-90783019D01*
X43361699Y-90782595D02*
X43361699Y-90782807D01*
X43361699Y-90782384D02*
X43361699Y-90782595D01*
X43361699Y-90782172D02*
X43361699Y-90782384D01*
X43361699Y-90781960D02*
X43361699Y-90782172D01*
X43361699Y-90781749D02*
X43361699Y-90781960D01*
X43361699Y-90781537D02*
X43361699Y-90781749D01*
X43361699Y-86199422D02*
X43361699Y-90781537D01*
X43361699Y-81617307D02*
X43361699Y-86199422D01*
X43361699Y-77035192D02*
X43361699Y-81617307D01*
X43361699Y-72453077D02*
X43361699Y-77035192D01*
X43361699Y-67870962D02*
X43361699Y-72453077D01*
X43361699Y-63288847D02*
X43361699Y-67870962D01*
X43361699Y-58706732D02*
X43361699Y-63288847D01*
X43361699Y-54124617D02*
X43361699Y-58706732D01*
X43361699Y-53943061D02*
X43361699Y-54124617D01*
X43361699Y-53761505D02*
X43361699Y-53943061D01*
X43361699Y-53579948D02*
X43361699Y-53761505D01*
X43361699Y-53398389D02*
X43361699Y-53579948D01*
X43361699Y-53216833D02*
X43361699Y-53398389D01*
X43361699Y-53035276D02*
X43361699Y-53216833D01*
X43361699Y-52853720D02*
X43361699Y-53035276D01*
X43361699Y-52672163D02*
X43361699Y-52853720D01*
X43265309Y-52545039D02*
X43361699Y-52672163D01*
X43168919Y-52417915D02*
X43265309Y-52545039D01*
X43072519Y-52290791D02*
X43168919Y-52417915D01*
X42976129Y-52163667D02*
X43072519Y-52290791D01*
X42879739Y-52036545D02*
X42976129Y-52163667D01*
X42783339Y-51909421D02*
X42879739Y-52036545D01*
X42686949Y-51782297D02*
X42783339Y-51909421D01*
X42590559Y-51655173D02*
X42686949Y-51782297D01*
X42587159Y-49815355D02*
X42590559Y-51655173D01*
X42583759Y-47975534D02*
X42587159Y-49815355D01*
X42580359Y-46135716D02*
X42583759Y-47975534D01*
X42576959Y-44295898D02*
X42580359Y-46135716D01*
X42573559Y-42456077D02*
X42576959Y-44295898D01*
X42570159Y-40616259D02*
X42573559Y-42456077D01*
X42566759Y-38776438D02*
X42570159Y-40616259D01*
X42563359Y-36936620D02*
X42566759Y-38776438D01*
X42646659Y-36826928D02*
X42563359Y-36936620D01*
X42729959Y-36717237D02*
X42646659Y-36826928D01*
X42813259Y-36607546D02*
X42729959Y-36717237D01*
X42896559Y-36497854D02*
X42813259Y-36607546D01*
X42979859Y-36388160D02*
X42896559Y-36497854D01*
X43063159Y-36278469D02*
X42979859Y-36388160D01*
X43146459Y-36168778D02*
X43063159Y-36278469D01*
X43229759Y-36059086D02*
X43146459Y-36168778D01*
X43229759Y-36036146D02*
X43229759Y-36059086D01*
X43229759Y-36013206D02*
X43229759Y-36036146D01*
X43229759Y-35990266D02*
X43229759Y-36013206D01*
X43229759Y-35967326D02*
X43229759Y-35990266D01*
X43229759Y-35944386D02*
X43229759Y-35967326D01*
X43229759Y-35921446D02*
X43229759Y-35944386D01*
X43229759Y-35898506D02*
X43229759Y-35921446D01*
X43229759Y-35875566D02*
X43229759Y-35898506D01*
X43229759Y-35711098D02*
X43229759Y-35875566D01*
X43229759Y-35546628D02*
X43229759Y-35711098D01*
X43229759Y-35382160D02*
X43229759Y-35546628D01*
X43229759Y-35217689D02*
X43229759Y-35382160D01*
X43229759Y-35053221D02*
X43229759Y-35217689D01*
X43229759Y-34888754D02*
X43229759Y-35053221D01*
X43229759Y-34724283D02*
X43229759Y-34888754D01*
X43229759Y-34559815D02*
X43229759Y-34724283D01*
X43304239Y-33802983D02*
X43229759Y-34559815D01*
X43518423Y-33090357D02*
X43304239Y-33802983D01*
X43858390Y-32439420D02*
X43518423Y-33090357D01*
X44310237Y-31867647D02*
X43858390Y-32439420D01*
X44860048Y-31392511D02*
X44310237Y-31867647D01*
X45493916Y-31031490D02*
X44860048Y-31392511D01*
X46197928Y-30802063D02*
X45493916Y-31031490D01*
X46958175Y-30721703D02*
X46197928Y-30802063D01*
X48341934Y-30721703D02*
X46958175Y-30721703D01*
X49725689Y-30721703D02*
X48341934Y-30721703D01*
X51109447Y-30721703D02*
X49725689Y-30721703D01*
X52493203Y-30721703D02*
X51109447Y-30721703D01*
X53876961Y-30721703D02*
X52493203Y-30721703D01*
X55260719Y-30721703D02*
X53876961Y-30721703D01*
X56644474Y-30721703D02*
X55260719Y-30721703D01*
X58028232Y-30721703D02*
X56644474Y-30721703D01*
X58028232Y-30599817D02*
X58028232Y-30721703D01*
X58028232Y-30477928D02*
X58028232Y-30599817D01*
X58028232Y-30356041D02*
X58028232Y-30477928D01*
X58028232Y-30234153D02*
X58028232Y-30356041D01*
X58028232Y-30112265D02*
X58028232Y-30234153D01*
X58028232Y-29990378D02*
X58028232Y-30112265D01*
X58028232Y-29868491D02*
X58028232Y-29990378D01*
X58028232Y-29746603D02*
X58028232Y-29868491D01*
M02*
