M48
;DRILL file {KiCad 4.0.7-e0-6372~58~ubuntu16.04.1} date Mon Jul 31 18:46:49 2017
;FORMAT={-:-/ absolute / inch / decimal}
FMAT,2
INCH,TZ
T1C0.016
T2C0.031
T3C0.039
T4C0.047
%
G90
G05
M72
T1
X5.2299Y-1.5638
X5.3551Y-2.7106
T2
X2.065Y-2.8181
X2.065Y-2.9181
X2.065Y-3.0177
X2.0654Y-2.7193
X5.1839Y-3.0173
X5.1843Y-2.7189
X5.1843Y-2.8181
X5.1846Y-2.9177
T3
X2.611Y-2.9583
X2.8051Y-2.9587
X3.0091Y-2.9591
X3.4748Y-2.5354
X3.4752Y-2.7343
X3.4756Y-2.4358
X3.4756Y-2.6346
X3.5732Y-3.2437
X3.6732Y-3.2437
X3.7732Y-2.635
X3.7736Y-2.4354
X3.774Y-2.5346
X3.774Y-2.7339
X4.2358Y-2.9591
X4.4303Y-2.9598
X4.6331Y-2.9587
T4
X1.8272Y-1.5689
X1.9264Y-1.5689
X2.0256Y-1.3693
X2.1256Y-1.5689
X2.224Y-1.5689
X5.0268Y-1.5689
X5.126Y-1.5689
X5.2256Y-1.3689
X5.3252Y-1.5693
X5.4244Y-1.5681
T0
M30
