G04 #@! TF.FileFunction,Legend,Bot*
%FSLAX46Y46*%
G04 Gerber Fmt 4.6, Leading zero omitted, Abs format (unit mm)*
G04 Created by KiCad (PCBNEW 4.0.7-e0-6372~58~ubuntu16.04.1) date Fri Jul 21 22:06:20 2017*
%MOMM*%
%LPD*%
G01*
G04 APERTURE LIST*
%ADD10C,0.100000*%
%ADD11C,0.010000*%
G04 APERTURE END LIST*
D10*
D11*
G36*
X86055667Y-90656167D02*
X84870333Y-90656167D01*
X84870333Y-90359834D01*
X86055667Y-90359834D01*
X86055667Y-90656167D01*
X86055667Y-90656167D01*
G37*
X86055667Y-90656167D02*
X84870333Y-90656167D01*
X84870333Y-90359834D01*
X86055667Y-90359834D01*
X86055667Y-90656167D01*
G36*
X85463000Y-90063500D02*
X84870333Y-90063500D01*
X84870333Y-90359834D01*
X84574000Y-90359834D01*
X84574000Y-89767167D01*
X85463000Y-89767167D01*
X85463000Y-90063500D01*
X85463000Y-90063500D01*
G37*
X85463000Y-90063500D02*
X84870333Y-90063500D01*
X84870333Y-90359834D01*
X84574000Y-90359834D01*
X84574000Y-89767167D01*
X85463000Y-89767167D01*
X85463000Y-90063500D01*
G36*
X87664333Y-90359834D02*
X88849667Y-90359834D01*
X88849667Y-90656167D01*
X87071667Y-90656167D01*
X87071667Y-90359834D01*
X87368000Y-90359834D01*
X87368000Y-90063500D01*
X87664333Y-90063500D01*
X87664333Y-90359834D01*
X87664333Y-90359834D01*
G37*
X87664333Y-90359834D02*
X88849667Y-90359834D01*
X88849667Y-90656167D01*
X87071667Y-90656167D01*
X87071667Y-90359834D01*
X87368000Y-90359834D01*
X87368000Y-90063500D01*
X87664333Y-90063500D01*
X87664333Y-90359834D01*
G36*
X88849667Y-90063500D02*
X87664333Y-90063500D01*
X87664333Y-89767167D01*
X88849667Y-89767167D01*
X88849667Y-90063500D01*
X88849667Y-90063500D01*
G37*
X88849667Y-90063500D02*
X87664333Y-90063500D01*
X87664333Y-89767167D01*
X88849667Y-89767167D01*
X88849667Y-90063500D01*
G36*
X90140833Y-90063500D02*
X89527000Y-90063500D01*
X89527000Y-89767167D01*
X90140833Y-89767167D01*
X90140833Y-90063500D01*
X90140833Y-90063500D01*
G37*
X90140833Y-90063500D02*
X89527000Y-90063500D01*
X89527000Y-89767167D01*
X90140833Y-89767167D01*
X90140833Y-90063500D01*
G36*
X91326167Y-90063500D02*
X91326167Y-90656167D01*
X89527000Y-90656167D01*
X89527000Y-90359834D01*
X90140833Y-90359834D01*
X90140833Y-90063500D01*
X90437167Y-90063500D01*
X90437167Y-90359834D01*
X91029833Y-90359834D01*
X91029833Y-90063500D01*
X90437167Y-90063500D01*
X90437167Y-89767167D01*
X91029833Y-89767167D01*
X91029833Y-90063500D01*
X91326167Y-90063500D01*
X91326167Y-90063500D01*
G37*
X91326167Y-90063500D02*
X91326167Y-90656167D01*
X89527000Y-90656167D01*
X89527000Y-90359834D01*
X90140833Y-90359834D01*
X90140833Y-90063500D01*
X90437167Y-90063500D01*
X90437167Y-90359834D01*
X91029833Y-90359834D01*
X91029833Y-90063500D01*
X90437167Y-90063500D01*
X90437167Y-89767167D01*
X91029833Y-89767167D01*
X91029833Y-90063500D01*
X91326167Y-90063500D01*
G36*
X93929667Y-90211667D02*
X93633333Y-90211667D01*
X93633333Y-90444500D01*
X93929667Y-90444500D01*
X93929667Y-90656167D01*
X92130500Y-90656167D01*
X92130500Y-90444500D01*
X93019500Y-90444500D01*
X93019500Y-90211667D01*
X92130500Y-90211667D01*
X92130500Y-90000000D01*
X93929667Y-90000000D01*
X93929667Y-90211667D01*
X93929667Y-90211667D01*
G37*
X93929667Y-90211667D02*
X93633333Y-90211667D01*
X93633333Y-90444500D01*
X93929667Y-90444500D01*
X93929667Y-90656167D01*
X92130500Y-90656167D01*
X92130500Y-90444500D01*
X93019500Y-90444500D01*
X93019500Y-90211667D01*
X92130500Y-90211667D01*
X92130500Y-90000000D01*
X93929667Y-90000000D01*
X93929667Y-90211667D01*
G36*
X96617833Y-90211667D02*
X96321500Y-90211667D01*
X96321500Y-90444500D01*
X96617833Y-90444500D01*
X96617833Y-90656167D01*
X94818667Y-90656167D01*
X94818667Y-90445342D01*
X95268458Y-90439629D01*
X95718250Y-90433917D01*
X95718250Y-90222250D01*
X95268458Y-90216538D01*
X94818667Y-90210825D01*
X94818667Y-90000000D01*
X96617833Y-90000000D01*
X96617833Y-90211667D01*
X96617833Y-90211667D01*
G37*
X96617833Y-90211667D02*
X96321500Y-90211667D01*
X96321500Y-90444500D01*
X96617833Y-90444500D01*
X96617833Y-90656167D01*
X94818667Y-90656167D01*
X94818667Y-90445342D01*
X95268458Y-90439629D01*
X95718250Y-90433917D01*
X95718250Y-90222250D01*
X95268458Y-90216538D01*
X94818667Y-90210825D01*
X94818667Y-90000000D01*
X96617833Y-90000000D01*
X96617833Y-90211667D01*
G36*
X97824333Y-90656167D02*
X97506833Y-90656167D01*
X97506833Y-90063500D01*
X97824333Y-90063500D01*
X97824333Y-90656167D01*
X97824333Y-90656167D01*
G37*
X97824333Y-90656167D02*
X97506833Y-90656167D01*
X97506833Y-90063500D01*
X97824333Y-90063500D01*
X97824333Y-90656167D01*
G36*
X99009667Y-90656167D02*
X98713333Y-90656167D01*
X98713333Y-90359834D01*
X99009667Y-90359834D01*
X99009667Y-90656167D01*
X99009667Y-90656167D01*
G37*
X99009667Y-90656167D02*
X98713333Y-90656167D01*
X98713333Y-90359834D01*
X99009667Y-90359834D01*
X99009667Y-90656167D01*
G36*
X99306000Y-90359834D02*
X99009667Y-90359834D01*
X99009667Y-89767167D01*
X99306000Y-89767167D01*
X99306000Y-90359834D01*
X99306000Y-90359834D01*
G37*
X99306000Y-90359834D02*
X99009667Y-90359834D01*
X99009667Y-89767167D01*
X99306000Y-89767167D01*
X99306000Y-90359834D01*
G36*
X98713333Y-90359834D02*
X98417000Y-90359834D01*
X98417000Y-90063500D01*
X98713333Y-90063500D01*
X98713333Y-90359834D01*
X98713333Y-90359834D01*
G37*
X98713333Y-90359834D02*
X98417000Y-90359834D01*
X98417000Y-90063500D01*
X98713333Y-90063500D01*
X98713333Y-90359834D01*
G36*
X98417000Y-90063500D02*
X97824333Y-90063500D01*
X97824333Y-89767167D01*
X98417000Y-89767167D01*
X98417000Y-90063500D01*
X98417000Y-90063500D01*
G37*
X98417000Y-90063500D02*
X97824333Y-90063500D01*
X97824333Y-89767167D01*
X98417000Y-89767167D01*
X98417000Y-90063500D01*
G36*
X86373167Y-90359834D02*
X86076833Y-90359834D01*
X86076833Y-89767167D01*
X86373167Y-89767167D01*
X86373167Y-90359834D01*
X86373167Y-90359834D01*
G37*
X86373167Y-90359834D02*
X86076833Y-90359834D01*
X86076833Y-89767167D01*
X86373167Y-89767167D01*
X86373167Y-90359834D01*
G36*
X93024792Y-89115962D02*
X93622750Y-89121584D01*
X93629148Y-89232709D01*
X93635545Y-89343834D01*
X93929667Y-89343834D01*
X93929667Y-89555500D01*
X93635545Y-89555500D01*
X93629148Y-89666625D01*
X93622750Y-89777750D01*
X93024792Y-89783371D01*
X92426833Y-89788993D01*
X92426833Y-89555500D01*
X92130500Y-89555500D01*
X92130500Y-89343834D01*
X92426833Y-89343834D01*
X92426833Y-89555500D01*
X93633333Y-89555500D01*
X93633333Y-89343834D01*
X92426833Y-89343834D01*
X92426833Y-89110341D01*
X93024792Y-89115962D01*
X93024792Y-89115962D01*
G37*
X93024792Y-89115962D02*
X93622750Y-89121584D01*
X93629148Y-89232709D01*
X93635545Y-89343834D01*
X93929667Y-89343834D01*
X93929667Y-89555500D01*
X93635545Y-89555500D01*
X93629148Y-89666625D01*
X93622750Y-89777750D01*
X93024792Y-89783371D01*
X92426833Y-89788993D01*
X92426833Y-89555500D01*
X92130500Y-89555500D01*
X92130500Y-89343834D01*
X92426833Y-89343834D01*
X92426833Y-89555500D01*
X93633333Y-89555500D01*
X93633333Y-89343834D01*
X92426833Y-89343834D01*
X92426833Y-89110341D01*
X93024792Y-89115962D01*
G36*
X95115000Y-89343834D02*
X96321500Y-89343834D01*
X96321500Y-89111000D01*
X96617833Y-89111000D01*
X96617833Y-89788334D01*
X96321500Y-89788334D01*
X96321500Y-89555500D01*
X95115000Y-89555500D01*
X95115000Y-89788334D01*
X94976752Y-89788334D01*
X94887859Y-89784263D01*
X94838790Y-89771836D01*
X94827978Y-89760902D01*
X94824608Y-89730789D01*
X94822516Y-89666726D01*
X94821820Y-89577078D01*
X94822634Y-89470211D01*
X94823351Y-89427527D01*
X94829250Y-89121584D01*
X95115000Y-89109066D01*
X95115000Y-89343834D01*
X95115000Y-89343834D01*
G37*
X95115000Y-89343834D02*
X96321500Y-89343834D01*
X96321500Y-89111000D01*
X96617833Y-89111000D01*
X96617833Y-89788334D01*
X96321500Y-89788334D01*
X96321500Y-89555500D01*
X95115000Y-89555500D01*
X95115000Y-89788334D01*
X94976752Y-89788334D01*
X94887859Y-89784263D01*
X94838790Y-89771836D01*
X94827978Y-89760902D01*
X94824608Y-89730789D01*
X94822516Y-89666726D01*
X94821820Y-89577078D01*
X94822634Y-89470211D01*
X94823351Y-89427527D01*
X94829250Y-89121584D01*
X95115000Y-89109066D01*
X95115000Y-89343834D01*
G36*
X86373167Y-89449667D02*
X84574000Y-89449667D01*
X84574000Y-89153334D01*
X86076833Y-89153334D01*
X86076833Y-88857000D01*
X86373167Y-88857000D01*
X86373167Y-89449667D01*
X86373167Y-89449667D01*
G37*
X86373167Y-89449667D02*
X84574000Y-89449667D01*
X84574000Y-89153334D01*
X86076833Y-89153334D01*
X86076833Y-88857000D01*
X86373167Y-88857000D01*
X86373167Y-89449667D01*
G36*
X87960667Y-89449667D02*
X87368000Y-89449667D01*
X87368000Y-89153334D01*
X87960667Y-89153334D01*
X87960667Y-89449667D01*
X87960667Y-89449667D01*
G37*
X87960667Y-89449667D02*
X87368000Y-89449667D01*
X87368000Y-89153334D01*
X87960667Y-89153334D01*
X87960667Y-89449667D01*
G36*
X88257000Y-89153334D02*
X87960667Y-89153334D01*
X87960667Y-88560667D01*
X88257000Y-88560667D01*
X88257000Y-89153334D01*
X88257000Y-89153334D01*
G37*
X88257000Y-89153334D02*
X87960667Y-89153334D01*
X87960667Y-88560667D01*
X88257000Y-88560667D01*
X88257000Y-89153334D01*
G36*
X87368000Y-89153334D02*
X87071667Y-89153334D01*
X87071667Y-88560667D01*
X87368000Y-88560667D01*
X87368000Y-89153334D01*
X87368000Y-89153334D01*
G37*
X87368000Y-89153334D02*
X87071667Y-89153334D01*
X87071667Y-88560667D01*
X87368000Y-88560667D01*
X87368000Y-89153334D01*
G36*
X90733500Y-89153334D02*
X90437167Y-89153334D01*
X90437167Y-89449667D01*
X89823333Y-89449667D01*
X89823333Y-89153334D01*
X90140833Y-89153334D01*
X90140833Y-88560667D01*
X90733500Y-88560667D01*
X90733500Y-89153334D01*
X90733500Y-89153334D01*
G37*
X90733500Y-89153334D02*
X90437167Y-89153334D01*
X90437167Y-89449667D01*
X89823333Y-89449667D01*
X89823333Y-89153334D01*
X90140833Y-89153334D01*
X90140833Y-88560667D01*
X90733500Y-88560667D01*
X90733500Y-89153334D01*
G36*
X89823333Y-89153334D02*
X89527000Y-89153334D01*
X89527000Y-88560667D01*
X89823333Y-88560667D01*
X89823333Y-89153334D01*
X89823333Y-89153334D01*
G37*
X89823333Y-89153334D02*
X89527000Y-89153334D01*
X89527000Y-88560667D01*
X89823333Y-88560667D01*
X89823333Y-89153334D01*
G36*
X99009667Y-89449667D02*
X97824333Y-89449667D01*
X97824333Y-89153334D01*
X99009667Y-89153334D01*
X99009667Y-89449667D01*
X99009667Y-89449667D01*
G37*
X99009667Y-89449667D02*
X97824333Y-89449667D01*
X97824333Y-89153334D01*
X99009667Y-89153334D01*
X99009667Y-89449667D01*
G36*
X99306000Y-89153334D02*
X99009667Y-89153334D01*
X99009667Y-88560667D01*
X99306000Y-88560667D01*
X99306000Y-89153334D01*
X99306000Y-89153334D01*
G37*
X99306000Y-89153334D02*
X99009667Y-89153334D01*
X99009667Y-88560667D01*
X99306000Y-88560667D01*
X99306000Y-89153334D01*
G36*
X97824333Y-89153334D02*
X97506833Y-89153334D01*
X97506833Y-88560667D01*
X97824333Y-88560667D01*
X97824333Y-89153334D01*
X97824333Y-89153334D01*
G37*
X97824333Y-89153334D02*
X97506833Y-89153334D01*
X97506833Y-88560667D01*
X97824333Y-88560667D01*
X97824333Y-89153334D01*
G36*
X92426833Y-88243167D02*
X93019500Y-88243167D01*
X93019500Y-88454834D01*
X93315833Y-88454834D01*
X93315833Y-88687667D01*
X93633333Y-88687667D01*
X93633333Y-88243167D01*
X93931147Y-88243167D01*
X93925115Y-88460125D01*
X93919083Y-88677084D01*
X93776208Y-88683342D01*
X93633333Y-88689601D01*
X93633333Y-88899334D01*
X93315833Y-88899334D01*
X93315833Y-88689601D01*
X93172958Y-88683342D01*
X93030083Y-88677084D01*
X93023685Y-88565959D01*
X93017288Y-88454834D01*
X92426833Y-88454834D01*
X92426833Y-88243167D01*
X92426833Y-88243167D01*
G37*
X92426833Y-88243167D02*
X93019500Y-88243167D01*
X93019500Y-88454834D01*
X93315833Y-88454834D01*
X93315833Y-88687667D01*
X93633333Y-88687667D01*
X93633333Y-88243167D01*
X93931147Y-88243167D01*
X93925115Y-88460125D01*
X93919083Y-88677084D01*
X93776208Y-88683342D01*
X93633333Y-88689601D01*
X93633333Y-88899334D01*
X93315833Y-88899334D01*
X93315833Y-88689601D01*
X93172958Y-88683342D01*
X93030083Y-88677084D01*
X93023685Y-88565959D01*
X93017288Y-88454834D01*
X92426833Y-88454834D01*
X92426833Y-88243167D01*
G36*
X92426833Y-88899334D02*
X92130500Y-88899334D01*
X92130500Y-88454834D01*
X92426833Y-88454834D01*
X92426833Y-88899334D01*
X92426833Y-88899334D01*
G37*
X92426833Y-88899334D02*
X92130500Y-88899334D01*
X92130500Y-88454834D01*
X92426833Y-88454834D01*
X92426833Y-88899334D01*
G36*
X95115000Y-88243167D02*
X95728833Y-88243167D01*
X95728833Y-88452899D01*
X96014583Y-88465417D01*
X96027379Y-88687667D01*
X96321500Y-88687667D01*
X96321500Y-88899334D01*
X96025167Y-88899334D01*
X96025167Y-88687667D01*
X95728833Y-88687667D01*
X95728833Y-88454834D01*
X95115000Y-88454834D01*
X95115000Y-88243167D01*
X95115000Y-88243167D01*
G37*
X95115000Y-88243167D02*
X95728833Y-88243167D01*
X95728833Y-88452899D01*
X96014583Y-88465417D01*
X96027379Y-88687667D01*
X96321500Y-88687667D01*
X96321500Y-88899334D01*
X96025167Y-88899334D01*
X96025167Y-88687667D01*
X95728833Y-88687667D01*
X95728833Y-88454834D01*
X95115000Y-88454834D01*
X95115000Y-88243167D01*
G36*
X96617833Y-88687667D02*
X96321500Y-88687667D01*
X96321500Y-88243167D01*
X96617833Y-88243167D01*
X96617833Y-88687667D01*
X96617833Y-88687667D01*
G37*
X96617833Y-88687667D02*
X96321500Y-88687667D01*
X96321500Y-88243167D01*
X96617833Y-88243167D01*
X96617833Y-88687667D01*
G36*
X95115000Y-88899334D02*
X94818667Y-88899334D01*
X94818667Y-88454834D01*
X95115000Y-88454834D01*
X95115000Y-88899334D01*
X95115000Y-88899334D01*
G37*
X95115000Y-88899334D02*
X94818667Y-88899334D01*
X94818667Y-88454834D01*
X95115000Y-88454834D01*
X95115000Y-88899334D01*
G36*
X86055667Y-88857000D02*
X84574000Y-88857000D01*
X84574000Y-88560667D01*
X86055667Y-88560667D01*
X86055667Y-88857000D01*
X86055667Y-88857000D01*
G37*
X86055667Y-88857000D02*
X84574000Y-88857000D01*
X84574000Y-88560667D01*
X86055667Y-88560667D01*
X86055667Y-88857000D01*
G36*
X84870333Y-87968659D02*
X85468292Y-87963038D01*
X86066250Y-87957417D01*
X86072509Y-87814542D01*
X86078767Y-87671667D01*
X86373167Y-87671667D01*
X86373167Y-88264334D01*
X84574000Y-88264334D01*
X84574000Y-87671667D01*
X84870333Y-87671667D01*
X84870333Y-87968659D01*
X84870333Y-87968659D01*
G37*
X84870333Y-87968659D02*
X85468292Y-87963038D01*
X86066250Y-87957417D01*
X86072509Y-87814542D01*
X86078767Y-87671667D01*
X86373167Y-87671667D01*
X86373167Y-88264334D01*
X84574000Y-88264334D01*
X84574000Y-87671667D01*
X84870333Y-87671667D01*
X84870333Y-87968659D01*
G36*
X86055667Y-87671667D02*
X84870333Y-87671667D01*
X84870333Y-87354167D01*
X86055667Y-87354167D01*
X86055667Y-87671667D01*
X86055667Y-87671667D01*
G37*
X86055667Y-87671667D02*
X84870333Y-87671667D01*
X84870333Y-87354167D01*
X86055667Y-87354167D01*
X86055667Y-87671667D01*
G36*
X87214542Y-87358491D02*
X87357417Y-87364750D01*
X87363289Y-87666375D01*
X87369162Y-87968000D01*
X87960667Y-87968000D01*
X87960667Y-88264334D01*
X87368000Y-88264334D01*
X87368000Y-87968000D01*
X87071667Y-87968000D01*
X87071667Y-87352233D01*
X87214542Y-87358491D01*
X87214542Y-87358491D01*
G37*
X87214542Y-87358491D02*
X87357417Y-87364750D01*
X87363289Y-87666375D01*
X87369162Y-87968000D01*
X87960667Y-87968000D01*
X87960667Y-88264334D01*
X87368000Y-88264334D01*
X87368000Y-87968000D01*
X87071667Y-87968000D01*
X87071667Y-87352233D01*
X87214542Y-87358491D01*
G36*
X88257000Y-87968000D02*
X87960667Y-87968000D01*
X87960667Y-87354167D01*
X88257000Y-87354167D01*
X88257000Y-87968000D01*
X88257000Y-87968000D01*
G37*
X88257000Y-87968000D02*
X87960667Y-87968000D01*
X87960667Y-87354167D01*
X88257000Y-87354167D01*
X88257000Y-87968000D01*
G36*
X90722917Y-87364750D02*
X90728789Y-87666375D01*
X90734662Y-87968000D01*
X90437167Y-87968000D01*
X90437167Y-88264334D01*
X90140833Y-88264334D01*
X90140833Y-87968000D01*
X89823333Y-87968000D01*
X89823333Y-88264334D01*
X89527000Y-88264334D01*
X89527000Y-87671667D01*
X89821479Y-87671667D01*
X89827698Y-87518209D01*
X89833917Y-87364750D01*
X90130250Y-87364750D01*
X90142726Y-87673558D01*
X90284655Y-87667321D01*
X90426583Y-87661084D01*
X90439059Y-87352276D01*
X90722917Y-87364750D01*
X90722917Y-87364750D01*
G37*
X90722917Y-87364750D02*
X90728789Y-87666375D01*
X90734662Y-87968000D01*
X90437167Y-87968000D01*
X90437167Y-88264334D01*
X90140833Y-88264334D01*
X90140833Y-87968000D01*
X89823333Y-87968000D01*
X89823333Y-88264334D01*
X89527000Y-88264334D01*
X89527000Y-87671667D01*
X89821479Y-87671667D01*
X89827698Y-87518209D01*
X89833917Y-87364750D01*
X90130250Y-87364750D01*
X90142726Y-87673558D01*
X90284655Y-87667321D01*
X90426583Y-87661084D01*
X90439059Y-87352276D01*
X90722917Y-87364750D01*
G36*
X98412635Y-87518209D02*
X98418854Y-87671667D01*
X98713333Y-87671667D01*
X98713333Y-87968000D01*
X99306000Y-87968000D01*
X99306000Y-88264334D01*
X97506833Y-88264334D01*
X97506833Y-87968000D01*
X98417000Y-87968000D01*
X98417000Y-87672509D01*
X97967208Y-87666796D01*
X97517417Y-87661084D01*
X97517417Y-87364750D01*
X98406417Y-87364750D01*
X98412635Y-87518209D01*
X98412635Y-87518209D01*
G37*
X98412635Y-87518209D02*
X98418854Y-87671667D01*
X98713333Y-87671667D01*
X98713333Y-87968000D01*
X99306000Y-87968000D01*
X99306000Y-88264334D01*
X97506833Y-88264334D01*
X97506833Y-87968000D01*
X98417000Y-87968000D01*
X98417000Y-87672509D01*
X97967208Y-87666796D01*
X97517417Y-87661084D01*
X97517417Y-87364750D01*
X98406417Y-87364750D01*
X98412635Y-87518209D01*
G36*
X99306000Y-87671667D02*
X98713333Y-87671667D01*
X98713333Y-87354167D01*
X99306000Y-87354167D01*
X99306000Y-87671667D01*
X99306000Y-87671667D01*
G37*
X99306000Y-87671667D02*
X98713333Y-87671667D01*
X98713333Y-87354167D01*
X99306000Y-87354167D01*
X99306000Y-87671667D01*
G36*
X93777347Y-87358517D02*
X93919083Y-87364750D01*
X93919083Y-88020917D01*
X93777347Y-88027150D01*
X93635611Y-88033382D01*
X93629180Y-87921316D01*
X93622750Y-87809250D01*
X93024792Y-87803629D01*
X92426833Y-87798008D01*
X92426833Y-88031500D01*
X92130500Y-88031500D01*
X92130500Y-87354167D01*
X92426833Y-87354167D01*
X92426833Y-87587659D01*
X93024792Y-87582038D01*
X93622750Y-87576417D01*
X93629180Y-87464351D01*
X93635611Y-87352285D01*
X93777347Y-87358517D01*
X93777347Y-87358517D01*
G37*
X93777347Y-87358517D02*
X93919083Y-87364750D01*
X93919083Y-88020917D01*
X93777347Y-88027150D01*
X93635611Y-88033382D01*
X93629180Y-87921316D01*
X93622750Y-87809250D01*
X93024792Y-87803629D01*
X92426833Y-87798008D01*
X92426833Y-88031500D01*
X92130500Y-88031500D01*
X92130500Y-87354167D01*
X92426833Y-87354167D01*
X92426833Y-87587659D01*
X93024792Y-87582038D01*
X93622750Y-87576417D01*
X93629180Y-87464351D01*
X93635611Y-87352285D01*
X93777347Y-87358517D01*
G36*
X96317314Y-87475875D02*
X96323712Y-87587000D01*
X96617833Y-87587000D01*
X96617833Y-87798667D01*
X96323712Y-87798667D01*
X96317314Y-87909792D01*
X96310917Y-88020917D01*
X95727397Y-88026537D01*
X95574279Y-88027502D01*
X95435142Y-88027406D01*
X95315562Y-88026329D01*
X95221114Y-88024356D01*
X95157374Y-88021566D01*
X95129917Y-88018044D01*
X95129439Y-88017717D01*
X95120968Y-87989657D01*
X95115773Y-87934703D01*
X95115000Y-87900972D01*
X95115000Y-87798667D01*
X94818667Y-87798667D01*
X94818667Y-87587000D01*
X95112788Y-87587000D01*
X95115000Y-87587000D01*
X95115000Y-87798667D01*
X96321500Y-87798667D01*
X96321500Y-87587000D01*
X95115000Y-87587000D01*
X95112788Y-87587000D01*
X95119185Y-87475875D01*
X95125583Y-87364750D01*
X96310917Y-87364750D01*
X96317314Y-87475875D01*
X96317314Y-87475875D01*
G37*
X96317314Y-87475875D02*
X96323712Y-87587000D01*
X96617833Y-87587000D01*
X96617833Y-87798667D01*
X96323712Y-87798667D01*
X96317314Y-87909792D01*
X96310917Y-88020917D01*
X95727397Y-88026537D01*
X95574279Y-88027502D01*
X95435142Y-88027406D01*
X95315562Y-88026329D01*
X95221114Y-88024356D01*
X95157374Y-88021566D01*
X95129917Y-88018044D01*
X95129439Y-88017717D01*
X95120968Y-87989657D01*
X95115773Y-87934703D01*
X95115000Y-87900972D01*
X95115000Y-87798667D01*
X94818667Y-87798667D01*
X94818667Y-87587000D01*
X95112788Y-87587000D01*
X95115000Y-87587000D01*
X95115000Y-87798667D01*
X96321500Y-87798667D01*
X96321500Y-87587000D01*
X95115000Y-87587000D01*
X95112788Y-87587000D01*
X95119185Y-87475875D01*
X95125583Y-87364750D01*
X96310917Y-87364750D01*
X96317314Y-87475875D01*
G36*
X88278167Y-81596834D02*
X87981833Y-81596834D01*
X87981833Y-81300500D01*
X88278167Y-81300500D01*
X88278167Y-81596834D01*
X88278167Y-81596834D01*
G37*
X88278167Y-81596834D02*
X87981833Y-81596834D01*
X87981833Y-81300500D01*
X88278167Y-81300500D01*
X88278167Y-81596834D01*
G36*
X87981833Y-81596834D02*
X87981833Y-81893167D01*
X88299333Y-81893167D01*
X88299333Y-81596834D01*
X88595667Y-81596834D01*
X88595667Y-82189500D01*
X86796500Y-82189500D01*
X86796500Y-81596834D01*
X87092833Y-81596834D01*
X87092833Y-81893167D01*
X87685500Y-81893167D01*
X87685500Y-81596834D01*
X87092833Y-81596834D01*
X87092833Y-81300500D01*
X87685500Y-81300500D01*
X87685500Y-81596834D01*
X87981833Y-81596834D01*
X87981833Y-81596834D01*
G37*
X87981833Y-81596834D02*
X87981833Y-81893167D01*
X88299333Y-81893167D01*
X88299333Y-81596834D01*
X88595667Y-81596834D01*
X88595667Y-82189500D01*
X86796500Y-82189500D01*
X86796500Y-81596834D01*
X87092833Y-81596834D01*
X87092833Y-81893167D01*
X87685500Y-81893167D01*
X87685500Y-81596834D01*
X87092833Y-81596834D01*
X87092833Y-81300500D01*
X87685500Y-81300500D01*
X87685500Y-81596834D01*
X87981833Y-81596834D01*
G36*
X96829500Y-82189500D02*
X95623000Y-82189500D01*
X95623000Y-81893167D01*
X96829500Y-81893167D01*
X96829500Y-82189500D01*
X96829500Y-82189500D01*
G37*
X96829500Y-82189500D02*
X95623000Y-82189500D01*
X95623000Y-81893167D01*
X96829500Y-81893167D01*
X96829500Y-82189500D01*
G36*
X97125833Y-81893167D02*
X96829500Y-81893167D01*
X96829500Y-81300500D01*
X97125833Y-81300500D01*
X97125833Y-81893167D01*
X97125833Y-81893167D01*
G37*
X97125833Y-81893167D02*
X96829500Y-81893167D01*
X96829500Y-81300500D01*
X97125833Y-81300500D01*
X97125833Y-81893167D01*
G36*
X96236833Y-81596834D02*
X95623000Y-81596834D01*
X95623000Y-81893167D01*
X95326667Y-81893167D01*
X95326667Y-81300500D01*
X96236833Y-81300500D01*
X96236833Y-81596834D01*
X96236833Y-81596834D01*
G37*
X96236833Y-81596834D02*
X95623000Y-81596834D01*
X95623000Y-81893167D01*
X95326667Y-81893167D01*
X95326667Y-81300500D01*
X96236833Y-81300500D01*
X96236833Y-81596834D01*
G36*
X88278167Y-80389139D02*
X87696083Y-80400917D01*
X87696083Y-80697250D01*
X88278167Y-80709028D01*
X88278167Y-81004167D01*
X86796500Y-81004167D01*
X86796500Y-80707834D01*
X87389167Y-80707834D01*
X87389167Y-80390334D01*
X86796500Y-80390334D01*
X86796500Y-80094000D01*
X88278167Y-80094000D01*
X88278167Y-80389139D01*
X88278167Y-80389139D01*
G37*
X88278167Y-80389139D02*
X87696083Y-80400917D01*
X87696083Y-80697250D01*
X88278167Y-80709028D01*
X88278167Y-81004167D01*
X86796500Y-81004167D01*
X86796500Y-80707834D01*
X87389167Y-80707834D01*
X87389167Y-80390334D01*
X86796500Y-80390334D01*
X86796500Y-80094000D01*
X88278167Y-80094000D01*
X88278167Y-80389139D01*
G36*
X97125833Y-81004167D02*
X95326667Y-81004167D01*
X95326667Y-80707834D01*
X96829500Y-80707834D01*
X96829500Y-80390334D01*
X97125833Y-80390334D01*
X97125833Y-81004167D01*
X97125833Y-81004167D01*
G37*
X97125833Y-81004167D02*
X95326667Y-81004167D01*
X95326667Y-80707834D01*
X96829500Y-80707834D01*
X96829500Y-80390334D01*
X97125833Y-80390334D01*
X97125833Y-81004167D01*
G36*
X96829500Y-80390334D02*
X95326667Y-80390334D01*
X95326667Y-80094000D01*
X96829500Y-80094000D01*
X96829500Y-80390334D01*
X96829500Y-80390334D01*
G37*
X96829500Y-80390334D02*
X95326667Y-80390334D01*
X95326667Y-80094000D01*
X96829500Y-80094000D01*
X96829500Y-80390334D01*
G36*
X88585083Y-80400917D02*
X88585083Y-80697250D01*
X88299333Y-80709768D01*
X88299333Y-80388399D01*
X88585083Y-80400917D01*
X88585083Y-80400917D01*
G37*
X88585083Y-80400917D02*
X88585083Y-80697250D01*
X88299333Y-80709768D01*
X88299333Y-80388399D01*
X88585083Y-80400917D01*
G36*
X88595667Y-79797667D02*
X88299333Y-79797667D01*
X88299333Y-79501334D01*
X86796500Y-79501334D01*
X86796500Y-79205542D01*
X87542625Y-79199979D01*
X88288750Y-79194417D01*
X88295009Y-79051542D01*
X88301267Y-78908667D01*
X88595667Y-78908667D01*
X88595667Y-79797667D01*
X88595667Y-79797667D01*
G37*
X88595667Y-79797667D02*
X88299333Y-79797667D01*
X88299333Y-79501334D01*
X86796500Y-79501334D01*
X86796500Y-79205542D01*
X87542625Y-79199979D01*
X88288750Y-79194417D01*
X88295009Y-79051542D01*
X88301267Y-78908667D01*
X88595667Y-78908667D01*
X88595667Y-79797667D01*
G36*
X97125833Y-79205000D02*
X97125833Y-79797667D01*
X95326667Y-79797667D01*
X95326667Y-79205000D01*
X95623000Y-79205000D01*
X95623000Y-79501334D01*
X96829500Y-79501334D01*
X96829500Y-79205000D01*
X95623000Y-79205000D01*
X95623000Y-78908667D01*
X96829500Y-78908667D01*
X96829500Y-79205000D01*
X97125833Y-79205000D01*
X97125833Y-79205000D01*
G37*
X97125833Y-79205000D02*
X97125833Y-79797667D01*
X95326667Y-79797667D01*
X95326667Y-79205000D01*
X95623000Y-79205000D01*
X95623000Y-79501334D01*
X96829500Y-79501334D01*
X96829500Y-79205000D01*
X95623000Y-79205000D01*
X95623000Y-78908667D01*
X96829500Y-78908667D01*
X96829500Y-79205000D01*
X97125833Y-79205000D01*
G36*
X54834833Y-77384667D02*
X54242167Y-77384667D01*
X54242167Y-77088334D01*
X53945833Y-77088334D01*
X53945833Y-75881834D01*
X54242167Y-75881834D01*
X54242167Y-77088334D01*
X54538500Y-77088334D01*
X54538500Y-75881834D01*
X54242167Y-75881834D01*
X54242167Y-75585500D01*
X54834833Y-75585500D01*
X54834833Y-77384667D01*
X54834833Y-77384667D01*
G37*
X54834833Y-77384667D02*
X54242167Y-77384667D01*
X54242167Y-77088334D01*
X53945833Y-77088334D01*
X53945833Y-75881834D01*
X54242167Y-75881834D01*
X54242167Y-77088334D01*
X54538500Y-77088334D01*
X54538500Y-75881834D01*
X54242167Y-75881834D01*
X54242167Y-75585500D01*
X54834833Y-75585500D01*
X54834833Y-77384667D01*
G36*
X55448667Y-75585500D02*
X56041333Y-75585500D01*
X56041333Y-77384667D01*
X55745000Y-77384667D01*
X55745000Y-75881834D01*
X55448667Y-75881834D01*
X55448667Y-75585500D01*
X55448667Y-75585500D01*
G37*
X55448667Y-75585500D02*
X56041333Y-75585500D01*
X56041333Y-77384667D01*
X55745000Y-77384667D01*
X55745000Y-75881834D01*
X55448667Y-75881834D01*
X55448667Y-75585500D01*
G36*
X55448667Y-77384667D02*
X55152333Y-77384667D01*
X55152333Y-75881834D01*
X55448667Y-75881834D01*
X55448667Y-77384667D01*
X55448667Y-77384667D01*
G37*
X55448667Y-77384667D02*
X55152333Y-77384667D01*
X55152333Y-75881834D01*
X55448667Y-75881834D01*
X55448667Y-77384667D01*
G36*
X56930333Y-75879979D02*
X57083792Y-75886198D01*
X57237250Y-75892417D01*
X57237250Y-77077750D01*
X57083792Y-77083969D01*
X56930333Y-77090188D01*
X56930333Y-77384667D01*
X56337667Y-77384667D01*
X56337667Y-76474500D01*
X56634000Y-76474500D01*
X56634000Y-77088334D01*
X56930333Y-77088334D01*
X56930333Y-75881834D01*
X56337667Y-75881834D01*
X56337667Y-75585500D01*
X56930333Y-75585500D01*
X56930333Y-75879979D01*
X56930333Y-75879979D01*
G37*
X56930333Y-75879979D02*
X57083792Y-75886198D01*
X57237250Y-75892417D01*
X57237250Y-77077750D01*
X57083792Y-77083969D01*
X56930333Y-77090188D01*
X56930333Y-77384667D01*
X56337667Y-77384667D01*
X56337667Y-76474500D01*
X56634000Y-76474500D01*
X56634000Y-77088334D01*
X56930333Y-77088334D01*
X56930333Y-75881834D01*
X56337667Y-75881834D01*
X56337667Y-75585500D01*
X56930333Y-75585500D01*
X56930333Y-75879979D01*
G36*
X127537271Y-76479792D02*
X127531750Y-77374084D01*
X127230125Y-77379956D01*
X126928500Y-77385829D01*
X126928500Y-77088334D01*
X126632167Y-77088334D01*
X126632167Y-75881834D01*
X126928500Y-75881834D01*
X126928500Y-77088334D01*
X127224833Y-77088334D01*
X127224833Y-75881834D01*
X126928500Y-75881834D01*
X126928500Y-75585500D01*
X127542793Y-75585500D01*
X127537271Y-76479792D01*
X127537271Y-76479792D01*
G37*
X127537271Y-76479792D02*
X127531750Y-77374084D01*
X127230125Y-77379956D01*
X126928500Y-77385829D01*
X126928500Y-77088334D01*
X126632167Y-77088334D01*
X126632167Y-75881834D01*
X126928500Y-75881834D01*
X126928500Y-77088334D01*
X127224833Y-77088334D01*
X127224833Y-75881834D01*
X126928500Y-75881834D01*
X126928500Y-75585500D01*
X127542793Y-75585500D01*
X127537271Y-76479792D01*
G36*
X128135000Y-75585500D02*
X128727667Y-75585500D01*
X128727667Y-77384667D01*
X128431333Y-77384667D01*
X128431333Y-75881834D01*
X128135000Y-75881834D01*
X128135000Y-75585500D01*
X128135000Y-75585500D01*
G37*
X128135000Y-75585500D02*
X128727667Y-75585500D01*
X128727667Y-77384667D01*
X128431333Y-77384667D01*
X128431333Y-75881834D01*
X128135000Y-75881834D01*
X128135000Y-75585500D01*
G36*
X128135000Y-77384667D02*
X127838667Y-77384667D01*
X127838667Y-75881834D01*
X128135000Y-75881834D01*
X128135000Y-77384667D01*
X128135000Y-77384667D01*
G37*
X128135000Y-77384667D02*
X127838667Y-77384667D01*
X127838667Y-75881834D01*
X128135000Y-75881834D01*
X128135000Y-77384667D01*
G36*
X129325038Y-76775171D02*
X129330917Y-77077750D01*
X129637833Y-77090188D01*
X129637833Y-77384667D01*
X129023158Y-77384667D01*
X129028871Y-76934875D01*
X129034583Y-76485084D01*
X129176871Y-76478838D01*
X129319159Y-76472593D01*
X129325038Y-76775171D01*
X129325038Y-76775171D01*
G37*
X129325038Y-76775171D02*
X129330917Y-77077750D01*
X129637833Y-77090188D01*
X129637833Y-77384667D01*
X129023158Y-77384667D01*
X129028871Y-76934875D01*
X129034583Y-76485084D01*
X129176871Y-76478838D01*
X129319159Y-76472593D01*
X129325038Y-76775171D01*
G36*
X129934167Y-77088334D02*
X129637833Y-77088334D01*
X129637833Y-75881834D01*
X129934167Y-75881834D01*
X129934167Y-77088334D01*
X129934167Y-77088334D01*
G37*
X129934167Y-77088334D02*
X129637833Y-77088334D01*
X129637833Y-75881834D01*
X129934167Y-75881834D01*
X129934167Y-77088334D01*
G36*
X129637833Y-75881834D02*
X129024000Y-75881834D01*
X129024000Y-75585500D01*
X129637833Y-75585500D01*
X129637833Y-75881834D01*
X129637833Y-75881834D01*
G37*
X129637833Y-75881834D02*
X129024000Y-75881834D01*
X129024000Y-75585500D01*
X129637833Y-75585500D01*
X129637833Y-75881834D01*
G36*
X48897583Y-76633250D02*
X48028218Y-76638774D01*
X47840353Y-76639627D01*
X47665748Y-76639764D01*
X47508922Y-76639231D01*
X47374394Y-76638072D01*
X47266684Y-76636332D01*
X47190310Y-76634057D01*
X47149792Y-76631292D01*
X47144509Y-76629954D01*
X47137727Y-76603331D01*
X47132675Y-76545705D01*
X47130256Y-76468400D01*
X47130167Y-76449806D01*
X47130167Y-76284000D01*
X48909879Y-76284000D01*
X48897583Y-76633250D01*
X48897583Y-76633250D01*
G37*
X48897583Y-76633250D02*
X48028218Y-76638774D01*
X47840353Y-76639627D01*
X47665748Y-76639764D01*
X47508922Y-76639231D01*
X47374394Y-76638072D01*
X47266684Y-76636332D01*
X47190310Y-76634057D01*
X47149792Y-76631292D01*
X47144509Y-76629954D01*
X47137727Y-76603331D01*
X47132675Y-76545705D01*
X47130256Y-76468400D01*
X47130167Y-76449806D01*
X47130167Y-76284000D01*
X48909879Y-76284000D01*
X48897583Y-76633250D01*
G36*
X136686333Y-76643834D02*
X134929500Y-76643834D01*
X134929500Y-76284000D01*
X136686333Y-76284000D01*
X136686333Y-76643834D01*
X136686333Y-76643834D01*
G37*
X136686333Y-76643834D02*
X134929500Y-76643834D01*
X134929500Y-76284000D01*
X136686333Y-76284000D01*
X136686333Y-76643834D01*
G36*
X86648333Y-74696500D02*
X86267333Y-74696500D01*
X86267333Y-74887000D01*
X87050500Y-74887000D01*
X87050500Y-74506000D01*
X87242648Y-74506000D01*
X87236532Y-74691209D01*
X87230417Y-74876417D01*
X87141619Y-74882869D01*
X87085568Y-74889117D01*
X87058994Y-74905471D01*
X87049122Y-74944705D01*
X87046369Y-74978119D01*
X87039917Y-75066917D01*
X86668208Y-75072681D01*
X86546803Y-75073758D01*
X86440328Y-75073176D01*
X86355900Y-75071097D01*
X86300636Y-75067683D01*
X86281916Y-75063861D01*
X86272406Y-75034892D01*
X86267510Y-74981952D01*
X86267333Y-74969356D01*
X86265084Y-74919122D01*
X86250457Y-74895032D01*
X86211632Y-74885730D01*
X86177375Y-74882926D01*
X86087417Y-74876417D01*
X86081301Y-74691209D01*
X86075185Y-74506000D01*
X86648333Y-74506000D01*
X86648333Y-74696500D01*
X86648333Y-74696500D01*
G37*
X86648333Y-74696500D02*
X86267333Y-74696500D01*
X86267333Y-74887000D01*
X87050500Y-74887000D01*
X87050500Y-74506000D01*
X87242648Y-74506000D01*
X87236532Y-74691209D01*
X87230417Y-74876417D01*
X87141619Y-74882869D01*
X87085568Y-74889117D01*
X87058994Y-74905471D01*
X87049122Y-74944705D01*
X87046369Y-74978119D01*
X87039917Y-75066917D01*
X86668208Y-75072681D01*
X86546803Y-75073758D01*
X86440328Y-75073176D01*
X86355900Y-75071097D01*
X86300636Y-75067683D01*
X86281916Y-75063861D01*
X86272406Y-75034892D01*
X86267510Y-74981952D01*
X86267333Y-74969356D01*
X86265084Y-74919122D01*
X86250457Y-74895032D01*
X86211632Y-74885730D01*
X86177375Y-74882926D01*
X86087417Y-74876417D01*
X86081301Y-74691209D01*
X86075185Y-74506000D01*
X86648333Y-74506000D01*
X86648333Y-74696500D01*
G36*
X90856032Y-74881709D02*
X90849917Y-75066917D01*
X89696333Y-75078181D01*
X89696333Y-74887795D01*
X90659417Y-74876417D01*
X90665925Y-74786459D01*
X90672434Y-74696500D01*
X90862148Y-74696500D01*
X90856032Y-74881709D01*
X90856032Y-74881709D01*
G37*
X90856032Y-74881709D02*
X90849917Y-75066917D01*
X89696333Y-75078181D01*
X89696333Y-74887795D01*
X90659417Y-74876417D01*
X90665925Y-74786459D01*
X90672434Y-74696500D01*
X90862148Y-74696500D01*
X90856032Y-74881709D01*
G36*
X93696833Y-74887000D02*
X94458833Y-74887000D01*
X94458833Y-75077500D01*
X93315833Y-75077500D01*
X93315833Y-74887000D01*
X93506333Y-74887000D01*
X93506333Y-74696500D01*
X93696833Y-74696500D01*
X93696833Y-74887000D01*
X93696833Y-74887000D01*
G37*
X93696833Y-74887000D02*
X94458833Y-74887000D01*
X94458833Y-75077500D01*
X93315833Y-75077500D01*
X93315833Y-74887000D01*
X93506333Y-74887000D01*
X93506333Y-74696500D01*
X93696833Y-74696500D01*
X93696833Y-74887000D01*
G36*
X94458833Y-74696500D02*
X93696833Y-74696500D01*
X93696833Y-74506000D01*
X94458833Y-74506000D01*
X94458833Y-74696500D01*
X94458833Y-74696500D01*
G37*
X94458833Y-74696500D02*
X93696833Y-74696500D01*
X93696833Y-74506000D01*
X94458833Y-74506000D01*
X94458833Y-74696500D01*
G36*
X48124876Y-73294209D02*
X48123737Y-73409085D01*
X48123267Y-73536071D01*
X48123561Y-73648692D01*
X48123602Y-73654042D01*
X48125000Y-73828667D01*
X48823500Y-73828667D01*
X48823500Y-74188500D01*
X48125000Y-74188500D01*
X48125000Y-74908167D01*
X47766190Y-74908167D01*
X47760387Y-74553625D01*
X47754583Y-74199084D01*
X47066667Y-74187452D01*
X47066667Y-73828667D01*
X47765167Y-73828667D01*
X47765167Y-73109000D01*
X48127548Y-73109000D01*
X48124876Y-73294209D01*
X48124876Y-73294209D01*
G37*
X48124876Y-73294209D02*
X48123737Y-73409085D01*
X48123267Y-73536071D01*
X48123561Y-73648692D01*
X48123602Y-73654042D01*
X48125000Y-73828667D01*
X48823500Y-73828667D01*
X48823500Y-74188500D01*
X48125000Y-74188500D01*
X48125000Y-74908167D01*
X47766190Y-74908167D01*
X47760387Y-74553625D01*
X47754583Y-74199084D01*
X47066667Y-74187452D01*
X47066667Y-73828667D01*
X47765167Y-73828667D01*
X47765167Y-73109000D01*
X48127548Y-73109000D01*
X48124876Y-73294209D01*
G36*
X136072500Y-73828667D02*
X136771000Y-73828667D01*
X136771000Y-74188500D01*
X136072500Y-74188500D01*
X136072500Y-74908167D01*
X135712667Y-74908167D01*
X135712667Y-74188500D01*
X134993000Y-74188500D01*
X134993000Y-73828667D01*
X135712667Y-73828667D01*
X135712667Y-73109000D01*
X136072500Y-73109000D01*
X136072500Y-73828667D01*
X136072500Y-73828667D01*
G37*
X136072500Y-73828667D02*
X136771000Y-73828667D01*
X136771000Y-74188500D01*
X136072500Y-74188500D01*
X136072500Y-74908167D01*
X135712667Y-74908167D01*
X135712667Y-74188500D01*
X134993000Y-74188500D01*
X134993000Y-73828667D01*
X135712667Y-73828667D01*
X135712667Y-73109000D01*
X136072500Y-73109000D01*
X136072500Y-73828667D01*
G36*
X54538500Y-74865834D02*
X53945833Y-74865834D01*
X53945833Y-74569500D01*
X54538500Y-74569500D01*
X54538500Y-74865834D01*
X54538500Y-74865834D01*
G37*
X54538500Y-74865834D02*
X53945833Y-74865834D01*
X53945833Y-74569500D01*
X54538500Y-74569500D01*
X54538500Y-74865834D01*
G36*
X54834833Y-74569500D02*
X54538500Y-74569500D01*
X54538500Y-73976834D01*
X54834833Y-73976834D01*
X54834833Y-74569500D01*
X54834833Y-74569500D01*
G37*
X54834833Y-74569500D02*
X54538500Y-74569500D01*
X54538500Y-73976834D01*
X54834833Y-73976834D01*
X54834833Y-74569500D01*
G36*
X54538500Y-73976834D02*
X53945833Y-73976834D01*
X53945833Y-73680500D01*
X54538500Y-73680500D01*
X54538500Y-73976834D01*
X54538500Y-73976834D01*
G37*
X54538500Y-73976834D02*
X53945833Y-73976834D01*
X53945833Y-73680500D01*
X54538500Y-73680500D01*
X54538500Y-73976834D01*
G36*
X55745000Y-74865834D02*
X55152333Y-74865834D01*
X55152333Y-74569500D01*
X55745000Y-74569500D01*
X55745000Y-74865834D01*
X55745000Y-74865834D01*
G37*
X55745000Y-74865834D02*
X55152333Y-74865834D01*
X55152333Y-74569500D01*
X55745000Y-74569500D01*
X55745000Y-74865834D01*
G36*
X56041333Y-74569500D02*
X55745000Y-74569500D01*
X55745000Y-73976834D01*
X56041333Y-73976834D01*
X56041333Y-74569500D01*
X56041333Y-74569500D01*
G37*
X56041333Y-74569500D02*
X55745000Y-74569500D01*
X55745000Y-73976834D01*
X56041333Y-73976834D01*
X56041333Y-74569500D01*
G36*
X55745000Y-73976834D02*
X55152333Y-73976834D01*
X55152333Y-73680500D01*
X55745000Y-73680500D01*
X55745000Y-73976834D01*
X55745000Y-73976834D01*
G37*
X55745000Y-73976834D02*
X55152333Y-73976834D01*
X55152333Y-73680500D01*
X55745000Y-73680500D01*
X55745000Y-73976834D01*
G36*
X57242771Y-73971542D02*
X57248293Y-74865834D01*
X56930333Y-74865834D01*
X56930333Y-74569500D01*
X56634000Y-74569500D01*
X56634000Y-74273167D01*
X56929674Y-74273167D01*
X56935295Y-73675209D01*
X56940917Y-73077250D01*
X57237250Y-73077250D01*
X57242771Y-73971542D01*
X57242771Y-73971542D01*
G37*
X57242771Y-73971542D02*
X57248293Y-74865834D01*
X56930333Y-74865834D01*
X56930333Y-74569500D01*
X56634000Y-74569500D01*
X56634000Y-74273167D01*
X56929674Y-74273167D01*
X56935295Y-73675209D01*
X56940917Y-73077250D01*
X57237250Y-73077250D01*
X57242771Y-73971542D01*
G36*
X56634000Y-74273167D02*
X56337667Y-74273167D01*
X56337667Y-73066667D01*
X56634000Y-73066667D01*
X56634000Y-74273167D01*
X56634000Y-74273167D01*
G37*
X56634000Y-74273167D02*
X56337667Y-74273167D01*
X56337667Y-73066667D01*
X56634000Y-73066667D01*
X56634000Y-74273167D01*
G36*
X127203667Y-74865834D02*
X126589833Y-74865834D01*
X126589833Y-74569500D01*
X127203667Y-74569500D01*
X127203667Y-74865834D01*
X127203667Y-74865834D01*
G37*
X127203667Y-74865834D02*
X126589833Y-74865834D01*
X126589833Y-74569500D01*
X127203667Y-74569500D01*
X127203667Y-74865834D01*
G36*
X127500000Y-74569500D02*
X127203667Y-74569500D01*
X127203667Y-73976834D01*
X127500000Y-73976834D01*
X127500000Y-74569500D01*
X127500000Y-74569500D01*
G37*
X127500000Y-74569500D02*
X127203667Y-74569500D01*
X127203667Y-73976834D01*
X127500000Y-73976834D01*
X127500000Y-74569500D01*
G36*
X127203667Y-73976834D02*
X126589833Y-73976834D01*
X126589833Y-73680500D01*
X127203667Y-73680500D01*
X127203667Y-73976834D01*
X127203667Y-73976834D01*
G37*
X127203667Y-73976834D02*
X126589833Y-73976834D01*
X126589833Y-73680500D01*
X127203667Y-73680500D01*
X127203667Y-73976834D01*
G36*
X128389000Y-74865834D02*
X127796333Y-74865834D01*
X127796333Y-74569500D01*
X128389000Y-74569500D01*
X128389000Y-74865834D01*
X128389000Y-74865834D01*
G37*
X128389000Y-74865834D02*
X127796333Y-74865834D01*
X127796333Y-74569500D01*
X128389000Y-74569500D01*
X128389000Y-74865834D01*
G36*
X128685333Y-74569500D02*
X128389000Y-74569500D01*
X128389000Y-73976834D01*
X128685333Y-73976834D01*
X128685333Y-74569500D01*
X128685333Y-74569500D01*
G37*
X128685333Y-74569500D02*
X128389000Y-74569500D01*
X128389000Y-73976834D01*
X128685333Y-73976834D01*
X128685333Y-74569500D01*
G36*
X128389000Y-73976834D02*
X127796333Y-73976834D01*
X127796333Y-73680500D01*
X128389000Y-73680500D01*
X128389000Y-73976834D01*
X128389000Y-73976834D01*
G37*
X128389000Y-73976834D02*
X127796333Y-73976834D01*
X127796333Y-73680500D01*
X128389000Y-73680500D01*
X128389000Y-73976834D01*
G36*
X129145708Y-73070991D02*
X129288583Y-73077250D01*
X129294204Y-73675209D01*
X129299826Y-74273167D01*
X129595500Y-74273167D01*
X129595500Y-73066667D01*
X129891833Y-73066667D01*
X129891833Y-74865834D01*
X129595500Y-74865834D01*
X129595500Y-74569500D01*
X129299167Y-74569500D01*
X129299167Y-74273167D01*
X129002833Y-74273167D01*
X129002833Y-73064733D01*
X129145708Y-73070991D01*
X129145708Y-73070991D01*
G37*
X129145708Y-73070991D02*
X129288583Y-73077250D01*
X129294204Y-73675209D01*
X129299826Y-74273167D01*
X129595500Y-74273167D01*
X129595500Y-73066667D01*
X129891833Y-73066667D01*
X129891833Y-74865834D01*
X129595500Y-74865834D01*
X129595500Y-74569500D01*
X129299167Y-74569500D01*
X129299167Y-74273167D01*
X129002833Y-74273167D01*
X129002833Y-73064733D01*
X129145708Y-73070991D01*
G36*
X90648833Y-74696500D02*
X90186694Y-74696500D01*
X90050902Y-74695881D01*
X89929593Y-74694147D01*
X89829082Y-74691486D01*
X89755683Y-74688084D01*
X89715709Y-74684130D01*
X89710444Y-74682389D01*
X89701305Y-74653806D01*
X89696532Y-74600927D01*
X89696333Y-74587139D01*
X89696333Y-74506000D01*
X90648833Y-74506000D01*
X90648833Y-74696500D01*
X90648833Y-74696500D01*
G37*
X90648833Y-74696500D02*
X90186694Y-74696500D01*
X90050902Y-74695881D01*
X89929593Y-74694147D01*
X89829082Y-74691486D01*
X89755683Y-74688084D01*
X89715709Y-74684130D01*
X89710444Y-74682389D01*
X89701305Y-74653806D01*
X89696532Y-74600927D01*
X89696333Y-74587139D01*
X89696333Y-74506000D01*
X90648833Y-74506000D01*
X90648833Y-74696500D01*
G36*
X87046369Y-73822215D02*
X87052617Y-73878265D01*
X87068971Y-73904839D01*
X87108205Y-73914711D01*
X87141619Y-73917465D01*
X87230417Y-73923917D01*
X87236532Y-74109125D01*
X87242648Y-74294334D01*
X86074399Y-74294334D01*
X86080908Y-74204375D01*
X86087417Y-74114417D01*
X86568958Y-74108728D01*
X87050500Y-74103039D01*
X87050500Y-73913334D01*
X86074399Y-73913334D01*
X86080908Y-73823375D01*
X86087417Y-73733417D01*
X87039917Y-73733417D01*
X87046369Y-73822215D01*
X87046369Y-73822215D01*
G37*
X87046369Y-73822215D02*
X87052617Y-73878265D01*
X87068971Y-73904839D01*
X87108205Y-73914711D01*
X87141619Y-73917465D01*
X87230417Y-73923917D01*
X87236532Y-74109125D01*
X87242648Y-74294334D01*
X86074399Y-74294334D01*
X86080908Y-74204375D01*
X86087417Y-74114417D01*
X86568958Y-74108728D01*
X87050500Y-74103039D01*
X87050500Y-73913334D01*
X86074399Y-73913334D01*
X86080908Y-73823375D01*
X86087417Y-73733417D01*
X87039917Y-73733417D01*
X87046369Y-73822215D01*
G36*
X90759958Y-73726908D02*
X90849917Y-73733417D01*
X90855823Y-74013875D01*
X90861729Y-74294334D01*
X89696333Y-74294334D01*
X89696333Y-73722834D01*
X89886833Y-73722834D01*
X89886833Y-74103834D01*
X90265399Y-74103834D01*
X90271908Y-74013875D01*
X90278059Y-73957372D01*
X90294037Y-73930430D01*
X90332519Y-73920373D01*
X90368375Y-73917408D01*
X90458333Y-73910899D01*
X90458333Y-74103834D01*
X90670000Y-74103834D01*
X90670000Y-73720399D01*
X90759958Y-73726908D01*
X90759958Y-73726908D01*
G37*
X90759958Y-73726908D02*
X90849917Y-73733417D01*
X90855823Y-74013875D01*
X90861729Y-74294334D01*
X89696333Y-74294334D01*
X89696333Y-73722834D01*
X89886833Y-73722834D01*
X89886833Y-74103834D01*
X90265399Y-74103834D01*
X90271908Y-74013875D01*
X90278059Y-73957372D01*
X90294037Y-73930430D01*
X90332519Y-73920373D01*
X90368375Y-73917408D01*
X90458333Y-73910899D01*
X90458333Y-74103834D01*
X90670000Y-74103834D01*
X90670000Y-73720399D01*
X90759958Y-73726908D01*
G36*
X93887333Y-74294334D02*
X93506333Y-74294334D01*
X93506333Y-74103834D01*
X93887333Y-74103834D01*
X93887333Y-74294334D01*
X93887333Y-74294334D01*
G37*
X93887333Y-74294334D02*
X93506333Y-74294334D01*
X93506333Y-74103834D01*
X93887333Y-74103834D01*
X93887333Y-74294334D01*
G36*
X94077833Y-74103834D02*
X93887333Y-74103834D01*
X93887333Y-73722834D01*
X94077833Y-73722834D01*
X94077833Y-74103834D01*
X94077833Y-74103834D01*
G37*
X94077833Y-74103834D02*
X93887333Y-74103834D01*
X93887333Y-73722834D01*
X94077833Y-73722834D01*
X94077833Y-74103834D01*
G36*
X93506333Y-74103834D02*
X93315833Y-74103834D01*
X93315833Y-73722834D01*
X93506333Y-73722834D01*
X93506333Y-74103834D01*
X93506333Y-74103834D01*
G37*
X93506333Y-74103834D02*
X93315833Y-74103834D01*
X93315833Y-73722834D01*
X93506333Y-73722834D01*
X93506333Y-74103834D01*
G36*
X87241000Y-73151334D02*
X87241000Y-73532334D01*
X86076833Y-73532334D01*
X86076833Y-73151334D01*
X86267333Y-73151334D01*
X86267333Y-73341834D01*
X87050500Y-73341834D01*
X87050500Y-73151334D01*
X86267333Y-73151334D01*
X86267333Y-72960834D01*
X87050500Y-72960834D01*
X87050500Y-73151334D01*
X87241000Y-73151334D01*
X87241000Y-73151334D01*
G37*
X87241000Y-73151334D02*
X87241000Y-73532334D01*
X86076833Y-73532334D01*
X86076833Y-73151334D01*
X86267333Y-73151334D01*
X86267333Y-73341834D01*
X87050500Y-73341834D01*
X87050500Y-73151334D01*
X86267333Y-73151334D01*
X86267333Y-72960834D01*
X87050500Y-72960834D01*
X87050500Y-73151334D01*
X87241000Y-73151334D01*
G36*
X90648833Y-73532334D02*
X89886833Y-73532334D01*
X89886833Y-73341834D01*
X90648833Y-73341834D01*
X90648833Y-73532334D01*
X90648833Y-73532334D01*
G37*
X90648833Y-73532334D02*
X89886833Y-73532334D01*
X89886833Y-73341834D01*
X90648833Y-73341834D01*
X90648833Y-73532334D01*
G36*
X89886833Y-73341834D02*
X89696333Y-73341834D01*
X89696333Y-73151334D01*
X89886833Y-73151334D01*
X89886833Y-73341834D01*
X89886833Y-73341834D01*
G37*
X89886833Y-73341834D02*
X89696333Y-73341834D01*
X89696333Y-73151334D01*
X89886833Y-73151334D01*
X89886833Y-73341834D01*
G36*
X90648833Y-73151334D02*
X89886833Y-73151334D01*
X89886833Y-72960834D01*
X90648833Y-72960834D01*
X90648833Y-73151334D01*
X90648833Y-73151334D01*
G37*
X90648833Y-73151334D02*
X89886833Y-73151334D01*
X89886833Y-72960834D01*
X90648833Y-72960834D01*
X90648833Y-73151334D01*
G36*
X93887333Y-73532334D02*
X93506333Y-73532334D01*
X93506333Y-73341834D01*
X93887333Y-73341834D01*
X93887333Y-73532334D01*
X93887333Y-73532334D01*
G37*
X93887333Y-73532334D02*
X93506333Y-73532334D01*
X93506333Y-73341834D01*
X93887333Y-73341834D01*
X93887333Y-73532334D01*
G36*
X94077833Y-73341834D02*
X93887333Y-73341834D01*
X93887333Y-72960834D01*
X94077833Y-72960834D01*
X94077833Y-73341834D01*
X94077833Y-73341834D01*
G37*
X94077833Y-73341834D02*
X93887333Y-73341834D01*
X93887333Y-72960834D01*
X94077833Y-72960834D01*
X94077833Y-73341834D01*
G36*
X93506333Y-73341834D02*
X93315833Y-73341834D01*
X93315833Y-72960834D01*
X93506333Y-72960834D01*
X93506333Y-73341834D01*
X93506333Y-73341834D01*
G37*
X93506333Y-73341834D02*
X93315833Y-73341834D01*
X93315833Y-72960834D01*
X93506333Y-72960834D01*
X93506333Y-73341834D01*
G36*
X90759958Y-73155408D02*
X90816461Y-73161559D01*
X90843403Y-73177537D01*
X90853461Y-73216019D01*
X90856425Y-73251875D01*
X90862934Y-73341834D01*
X90670000Y-73341834D01*
X90670000Y-73148899D01*
X90759958Y-73155408D01*
X90759958Y-73155408D01*
G37*
X90759958Y-73155408D02*
X90816461Y-73161559D01*
X90843403Y-73177537D01*
X90853461Y-73216019D01*
X90856425Y-73251875D01*
X90862934Y-73341834D01*
X90670000Y-73341834D01*
X90670000Y-73148899D01*
X90759958Y-73155408D01*
G36*
X54538500Y-71161667D02*
X54834833Y-71161667D01*
X54834833Y-71458000D01*
X54537338Y-71458000D01*
X54543210Y-71759625D01*
X54549083Y-72061250D01*
X54834833Y-72073768D01*
X54834833Y-72368167D01*
X53945833Y-72368167D01*
X53945833Y-72071834D01*
X54242167Y-72071834D01*
X54242167Y-70865334D01*
X54538500Y-70865334D01*
X54538500Y-71161667D01*
X54538500Y-71161667D01*
G37*
X54538500Y-71161667D02*
X54834833Y-71161667D01*
X54834833Y-71458000D01*
X54537338Y-71458000D01*
X54543210Y-71759625D01*
X54549083Y-72061250D01*
X54834833Y-72073768D01*
X54834833Y-72368167D01*
X53945833Y-72368167D01*
X53945833Y-72071834D01*
X54242167Y-72071834D01*
X54242167Y-70865334D01*
X54538500Y-70865334D01*
X54538500Y-71161667D01*
G36*
X56041333Y-72368167D02*
X55746854Y-72368167D01*
X55740635Y-72214709D01*
X55734417Y-72061250D01*
X55591542Y-72054991D01*
X55448667Y-72048733D01*
X55448667Y-71754334D01*
X55745000Y-71754334D01*
X55745000Y-70569000D01*
X56041333Y-70569000D01*
X56041333Y-72368167D01*
X56041333Y-72368167D01*
G37*
X56041333Y-72368167D02*
X55746854Y-72368167D01*
X55740635Y-72214709D01*
X55734417Y-72061250D01*
X55591542Y-72054991D01*
X55448667Y-72048733D01*
X55448667Y-71754334D01*
X55745000Y-71754334D01*
X55745000Y-70569000D01*
X56041333Y-70569000D01*
X56041333Y-72368167D01*
G36*
X55448667Y-71754334D02*
X55152333Y-71754334D01*
X55152333Y-70569000D01*
X55448667Y-70569000D01*
X55448667Y-71754334D01*
X55448667Y-71754334D01*
G37*
X55448667Y-71754334D02*
X55152333Y-71754334D01*
X55152333Y-70569000D01*
X55448667Y-70569000D01*
X55448667Y-71754334D01*
G36*
X56930333Y-72368167D02*
X56337667Y-72368167D01*
X56337667Y-72071834D01*
X56930333Y-72071834D01*
X56930333Y-72368167D01*
X56930333Y-72368167D01*
G37*
X56930333Y-72368167D02*
X56337667Y-72368167D01*
X56337667Y-72071834D01*
X56930333Y-72071834D01*
X56930333Y-72368167D01*
G36*
X125827833Y-72368167D02*
X125235167Y-72368167D01*
X125235167Y-72071834D01*
X125827833Y-72071834D01*
X125827833Y-72368167D01*
X125827833Y-72368167D01*
G37*
X125827833Y-72368167D02*
X125235167Y-72368167D01*
X125235167Y-72071834D01*
X125827833Y-72071834D01*
X125827833Y-72368167D01*
G36*
X127330667Y-72368167D02*
X127034333Y-72368167D01*
X127034333Y-71458000D01*
X126738842Y-71458000D01*
X126733129Y-71907792D01*
X126727417Y-72357584D01*
X126584251Y-72363849D01*
X126499419Y-72364726D01*
X126450121Y-72357613D01*
X126430329Y-72342085D01*
X126427313Y-72313102D01*
X126425201Y-72248706D01*
X126424070Y-72155808D01*
X126423997Y-72041320D01*
X126425058Y-71912154D01*
X126425328Y-71891320D01*
X126431083Y-71468584D01*
X126584542Y-71462365D01*
X126738000Y-71456146D01*
X126738000Y-71161667D01*
X127330667Y-71161667D01*
X127330667Y-72368167D01*
X127330667Y-72368167D01*
G37*
X127330667Y-72368167D02*
X127034333Y-72368167D01*
X127034333Y-71458000D01*
X126738842Y-71458000D01*
X126733129Y-71907792D01*
X126727417Y-72357584D01*
X126584251Y-72363849D01*
X126499419Y-72364726D01*
X126450121Y-72357613D01*
X126430329Y-72342085D01*
X126427313Y-72313102D01*
X126425201Y-72248706D01*
X126424070Y-72155808D01*
X126423997Y-72041320D01*
X126425058Y-71912154D01*
X126425328Y-71891320D01*
X126431083Y-71468584D01*
X126584542Y-71462365D01*
X126738000Y-71456146D01*
X126738000Y-71161667D01*
X127330667Y-71161667D01*
X127330667Y-72368167D01*
G36*
X128219667Y-72368167D02*
X127923333Y-72368167D01*
X127923333Y-71161667D01*
X128219667Y-71161667D01*
X128219667Y-72368167D01*
X128219667Y-72368167D01*
G37*
X128219667Y-72368167D02*
X127923333Y-72368167D01*
X127923333Y-71161667D01*
X128219667Y-71161667D01*
X128219667Y-72368167D01*
G36*
X129722500Y-72368167D02*
X128833500Y-72368167D01*
X128833500Y-72073028D01*
X129124542Y-72067139D01*
X129415583Y-72061250D01*
X129421146Y-71315125D01*
X129426708Y-70569000D01*
X129722500Y-70569000D01*
X129722500Y-72368167D01*
X129722500Y-72368167D01*
G37*
X129722500Y-72368167D02*
X128833500Y-72368167D01*
X128833500Y-72073028D01*
X129124542Y-72067139D01*
X129415583Y-72061250D01*
X129421146Y-71315125D01*
X129426708Y-70569000D01*
X129722500Y-70569000D01*
X129722500Y-72368167D01*
G36*
X49522000Y-71966000D02*
X49860667Y-71966000D01*
X49860667Y-72325834D01*
X49500833Y-72325834D01*
X49500833Y-71966000D01*
X49162167Y-71966000D01*
X49162167Y-71606167D01*
X49522000Y-71606167D01*
X49522000Y-71966000D01*
X49522000Y-71966000D01*
G37*
X49522000Y-71966000D02*
X49860667Y-71966000D01*
X49860667Y-72325834D01*
X49500833Y-72325834D01*
X49500833Y-71966000D01*
X49162167Y-71966000D01*
X49162167Y-71606167D01*
X49522000Y-71606167D01*
X49522000Y-71966000D01*
G36*
X47087833Y-70886500D02*
X47405333Y-70886500D01*
X47405333Y-71246334D01*
X47786333Y-71246334D01*
X47786333Y-71585000D01*
X47922185Y-71585000D01*
X47998517Y-71586926D01*
X48060767Y-71591935D01*
X48091519Y-71597848D01*
X48101784Y-71598229D01*
X48109732Y-71587475D01*
X48115653Y-71561006D01*
X48119836Y-71514242D01*
X48122572Y-71442601D01*
X48124151Y-71341503D01*
X48124861Y-71206368D01*
X48125000Y-71068681D01*
X48125000Y-70526667D01*
X48483121Y-70526667D01*
X48495417Y-70875917D01*
X48659458Y-70882099D01*
X48823500Y-70888281D01*
X48823500Y-71246334D01*
X49162167Y-71246334D01*
X49162167Y-71606167D01*
X48802333Y-71606167D01*
X48802333Y-71246334D01*
X48484833Y-71246334D01*
X48484833Y-72325834D01*
X48082667Y-72325834D01*
X48082667Y-71966000D01*
X47744000Y-71966000D01*
X47744000Y-71606167D01*
X47384167Y-71606167D01*
X47384167Y-71246334D01*
X47066667Y-71246334D01*
X47066667Y-72325834D01*
X46706833Y-72325834D01*
X46706833Y-71966000D01*
X46347000Y-71966000D01*
X46347000Y-71606167D01*
X46008333Y-71606167D01*
X46008333Y-71246334D01*
X46368167Y-71246334D01*
X46368167Y-71606167D01*
X46706833Y-71606167D01*
X46706833Y-70526667D01*
X47087833Y-70526667D01*
X47087833Y-70886500D01*
X47087833Y-70886500D01*
G37*
X47087833Y-70886500D02*
X47405333Y-70886500D01*
X47405333Y-71246334D01*
X47786333Y-71246334D01*
X47786333Y-71585000D01*
X47922185Y-71585000D01*
X47998517Y-71586926D01*
X48060767Y-71591935D01*
X48091519Y-71597848D01*
X48101784Y-71598229D01*
X48109732Y-71587475D01*
X48115653Y-71561006D01*
X48119836Y-71514242D01*
X48122572Y-71442601D01*
X48124151Y-71341503D01*
X48124861Y-71206368D01*
X48125000Y-71068681D01*
X48125000Y-70526667D01*
X48483121Y-70526667D01*
X48495417Y-70875917D01*
X48659458Y-70882099D01*
X48823500Y-70888281D01*
X48823500Y-71246334D01*
X49162167Y-71246334D01*
X49162167Y-71606167D01*
X48802333Y-71606167D01*
X48802333Y-71246334D01*
X48484833Y-71246334D01*
X48484833Y-72325834D01*
X48082667Y-72325834D01*
X48082667Y-71966000D01*
X47744000Y-71966000D01*
X47744000Y-71606167D01*
X47384167Y-71606167D01*
X47384167Y-71246334D01*
X47066667Y-71246334D01*
X47066667Y-72325834D01*
X46706833Y-72325834D01*
X46706833Y-71966000D01*
X46347000Y-71966000D01*
X46347000Y-71606167D01*
X46008333Y-71606167D01*
X46008333Y-71246334D01*
X46368167Y-71246334D01*
X46368167Y-71606167D01*
X46706833Y-71606167D01*
X46706833Y-70526667D01*
X47087833Y-70526667D01*
X47087833Y-70886500D01*
G36*
X136432333Y-70886500D02*
X136749833Y-70886500D01*
X136749833Y-70526667D01*
X137109667Y-70526667D01*
X137109667Y-71606167D01*
X137469500Y-71606167D01*
X137469500Y-71966000D01*
X137109667Y-71966000D01*
X137109667Y-72325834D01*
X136749833Y-72325834D01*
X136749833Y-71246334D01*
X136432333Y-71246334D01*
X136432333Y-70886500D01*
X136432333Y-70886500D01*
G37*
X136432333Y-70886500D02*
X136749833Y-70886500D01*
X136749833Y-70526667D01*
X137109667Y-70526667D01*
X137109667Y-71606167D01*
X137469500Y-71606167D01*
X137469500Y-71966000D01*
X137109667Y-71966000D01*
X137109667Y-72325834D01*
X136749833Y-72325834D01*
X136749833Y-71246334D01*
X136432333Y-71246334D01*
X136432333Y-70886500D01*
G36*
X137829333Y-71606167D02*
X137469500Y-71606167D01*
X137469500Y-71246334D01*
X137829333Y-71246334D01*
X137829333Y-71606167D01*
X137829333Y-71606167D01*
G37*
X137829333Y-71606167D02*
X137469500Y-71606167D01*
X137469500Y-71246334D01*
X137829333Y-71246334D01*
X137829333Y-71606167D01*
G36*
X135014167Y-71606167D02*
X134675500Y-71606167D01*
X134675500Y-71966000D01*
X134338545Y-71966000D01*
X134332398Y-72140625D01*
X134326250Y-72315250D01*
X133977000Y-72327546D01*
X133977000Y-71966000D01*
X134315667Y-71966000D01*
X134315667Y-71606167D01*
X134654333Y-71606167D01*
X134654333Y-71246334D01*
X135014167Y-71246334D01*
X135014167Y-71606167D01*
X135014167Y-71606167D01*
G37*
X135014167Y-71606167D02*
X134675500Y-71606167D01*
X134675500Y-71966000D01*
X134338545Y-71966000D01*
X134332398Y-72140625D01*
X134326250Y-72315250D01*
X133977000Y-72327546D01*
X133977000Y-71966000D01*
X134315667Y-71966000D01*
X134315667Y-71606167D01*
X134654333Y-71606167D01*
X134654333Y-71246334D01*
X135014167Y-71246334D01*
X135014167Y-71606167D01*
G36*
X135014167Y-70886500D02*
X135331667Y-70886500D01*
X135331667Y-70526667D01*
X135691500Y-70526667D01*
X135691500Y-71052306D01*
X135691837Y-71197043D01*
X135692784Y-71327236D01*
X135694246Y-71437070D01*
X135696129Y-71520732D01*
X135698338Y-71572406D01*
X135700223Y-71586764D01*
X135723967Y-71590064D01*
X135779356Y-71591038D01*
X135855758Y-71589571D01*
X135880140Y-71588680D01*
X136051333Y-71581777D01*
X136051333Y-71246334D01*
X136432333Y-71246334D01*
X136432333Y-71606167D01*
X136093667Y-71606167D01*
X136093667Y-71966000D01*
X135756712Y-71966000D01*
X135750564Y-72140625D01*
X135744417Y-72315250D01*
X135331667Y-72327366D01*
X135331667Y-71246334D01*
X135014167Y-71246334D01*
X135014167Y-70886500D01*
X135014167Y-70886500D01*
G37*
X135014167Y-70886500D02*
X135331667Y-70886500D01*
X135331667Y-70526667D01*
X135691500Y-70526667D01*
X135691500Y-71052306D01*
X135691837Y-71197043D01*
X135692784Y-71327236D01*
X135694246Y-71437070D01*
X135696129Y-71520732D01*
X135698338Y-71572406D01*
X135700223Y-71586764D01*
X135723967Y-71590064D01*
X135779356Y-71591038D01*
X135855758Y-71589571D01*
X135880140Y-71588680D01*
X136051333Y-71581777D01*
X136051333Y-71246334D01*
X136432333Y-71246334D01*
X136432333Y-71606167D01*
X136093667Y-71606167D01*
X136093667Y-71966000D01*
X135756712Y-71966000D01*
X135750564Y-72140625D01*
X135744417Y-72315250D01*
X135331667Y-72327366D01*
X135331667Y-71246334D01*
X135014167Y-71246334D01*
X135014167Y-70886500D01*
G36*
X57247833Y-72050667D02*
X56930333Y-72050667D01*
X56930333Y-70865334D01*
X57247833Y-70865334D01*
X57247833Y-72050667D01*
X57247833Y-72050667D01*
G37*
X57247833Y-72050667D02*
X56930333Y-72050667D01*
X56930333Y-70865334D01*
X57247833Y-70865334D01*
X57247833Y-72050667D01*
G36*
X56930333Y-70865334D02*
X56337667Y-70865334D01*
X56337667Y-70569000D01*
X56930333Y-70569000D01*
X56930333Y-70865334D01*
X56930333Y-70865334D01*
G37*
X56930333Y-70865334D02*
X56337667Y-70865334D01*
X56337667Y-70569000D01*
X56930333Y-70569000D01*
X56930333Y-70865334D01*
G36*
X125827833Y-71458000D02*
X126124167Y-71458000D01*
X126124167Y-72050667D01*
X125827833Y-72050667D01*
X125827833Y-71754334D01*
X125235167Y-71754334D01*
X125235167Y-71161667D01*
X125827833Y-71161667D01*
X125827833Y-71458000D01*
X125827833Y-71458000D01*
G37*
X125827833Y-71458000D02*
X126124167Y-71458000D01*
X126124167Y-72050667D01*
X125827833Y-72050667D01*
X125827833Y-71754334D01*
X125235167Y-71754334D01*
X125235167Y-71161667D01*
X125827833Y-71161667D01*
X125827833Y-71458000D01*
G36*
X128219667Y-70865334D02*
X127923333Y-70865334D01*
X127923333Y-70569000D01*
X128219667Y-70569000D01*
X128219667Y-70865334D01*
X128219667Y-70865334D01*
G37*
X128219667Y-70865334D02*
X127923333Y-70865334D01*
X127923333Y-70569000D01*
X128219667Y-70569000D01*
X128219667Y-70865334D01*
G36*
X57078500Y-70039834D02*
X56485833Y-70039834D01*
X56485833Y-69743500D01*
X57078500Y-69743500D01*
X57078500Y-70039834D01*
X57078500Y-70039834D01*
G37*
X57078500Y-70039834D02*
X56485833Y-70039834D01*
X56485833Y-69743500D01*
X57078500Y-69743500D01*
X57078500Y-70039834D01*
G36*
X128537167Y-70039834D02*
X127944500Y-70039834D01*
X127944500Y-69743500D01*
X128537167Y-69743500D01*
X128537167Y-70039834D01*
X128537167Y-70039834D01*
G37*
X128537167Y-70039834D02*
X127944500Y-70039834D01*
X127944500Y-69743500D01*
X128537167Y-69743500D01*
X128537167Y-70039834D01*
G36*
X127933917Y-68547584D02*
X127939789Y-68849209D01*
X127945662Y-69150834D01*
X128240833Y-69150834D01*
X128240833Y-69447167D01*
X127944500Y-69447167D01*
X127944500Y-69743500D01*
X127648167Y-69743500D01*
X127648167Y-68535066D01*
X127933917Y-68547584D01*
X127933917Y-68547584D01*
G37*
X127933917Y-68547584D02*
X127939789Y-68849209D01*
X127945662Y-69150834D01*
X128240833Y-69150834D01*
X128240833Y-69447167D01*
X127944500Y-69447167D01*
X127944500Y-69743500D01*
X127648167Y-69743500D01*
X127648167Y-68535066D01*
X127933917Y-68547584D01*
G36*
X128537167Y-69150834D02*
X128240833Y-69150834D01*
X128240833Y-68537000D01*
X128537167Y-68537000D01*
X128537167Y-69150834D01*
X128537167Y-69150834D01*
G37*
X128537167Y-69150834D02*
X128240833Y-69150834D01*
X128240833Y-68537000D01*
X128537167Y-68537000D01*
X128537167Y-69150834D01*
G36*
X46918500Y-69383667D02*
X46579833Y-69383667D01*
X46579833Y-69743500D01*
X46220000Y-69743500D01*
X46220000Y-69383667D01*
X46558667Y-69383667D01*
X46558667Y-69023834D01*
X46918500Y-69023834D01*
X46918500Y-69383667D01*
X46918500Y-69383667D01*
G37*
X46918500Y-69383667D02*
X46579833Y-69383667D01*
X46579833Y-69743500D01*
X46220000Y-69743500D01*
X46220000Y-69383667D01*
X46558667Y-69383667D01*
X46558667Y-69023834D01*
X46918500Y-69023834D01*
X46918500Y-69383667D01*
G36*
X48226366Y-69198459D02*
X48232481Y-69383667D01*
X47871000Y-69383667D01*
X47871000Y-69743500D01*
X47511167Y-69743500D01*
X47511167Y-69383667D01*
X47848185Y-69383667D01*
X47854301Y-69198459D01*
X47860417Y-69013250D01*
X48220250Y-69013250D01*
X48226366Y-69198459D01*
X48226366Y-69198459D01*
G37*
X48226366Y-69198459D02*
X48232481Y-69383667D01*
X47871000Y-69383667D01*
X47871000Y-69743500D01*
X47511167Y-69743500D01*
X47511167Y-69383667D01*
X47848185Y-69383667D01*
X47854301Y-69198459D01*
X47860417Y-69013250D01*
X48220250Y-69013250D01*
X48226366Y-69198459D01*
G36*
X49517564Y-69198459D02*
X49511417Y-69373084D01*
X49336792Y-69379231D01*
X49162167Y-69385379D01*
X49162167Y-69743500D01*
X48802333Y-69743500D01*
X48802333Y-69383667D01*
X49162167Y-69383667D01*
X49162167Y-69023834D01*
X49523712Y-69023834D01*
X49517564Y-69198459D01*
X49517564Y-69198459D01*
G37*
X49517564Y-69198459D02*
X49511417Y-69373084D01*
X49336792Y-69379231D01*
X49162167Y-69385379D01*
X49162167Y-69743500D01*
X48802333Y-69743500D01*
X48802333Y-69383667D01*
X49162167Y-69383667D01*
X49162167Y-69023834D01*
X49523712Y-69023834D01*
X49517564Y-69198459D01*
G36*
X54369167Y-69743500D02*
X53776500Y-69743500D01*
X53776500Y-69447167D01*
X54369167Y-69447167D01*
X54369167Y-69743500D01*
X54369167Y-69743500D01*
G37*
X54369167Y-69743500D02*
X53776500Y-69743500D01*
X53776500Y-69447167D01*
X54369167Y-69447167D01*
X54369167Y-69743500D01*
G36*
X55279333Y-68537000D02*
X55872000Y-68537000D01*
X55872000Y-69743500D01*
X55575667Y-69743500D01*
X55575667Y-68833334D01*
X55279333Y-68833334D01*
X55279333Y-68537000D01*
X55279333Y-68537000D01*
G37*
X55279333Y-68537000D02*
X55872000Y-68537000D01*
X55872000Y-69743500D01*
X55575667Y-69743500D01*
X55575667Y-68833334D01*
X55279333Y-68833334D01*
X55279333Y-68537000D01*
G36*
X55279333Y-69743500D02*
X54983000Y-69743500D01*
X54983000Y-68833334D01*
X55279333Y-68833334D01*
X55279333Y-69743500D01*
X55279333Y-69743500D01*
G37*
X55279333Y-69743500D02*
X54983000Y-69743500D01*
X54983000Y-68833334D01*
X55279333Y-68833334D01*
X55279333Y-69743500D01*
G36*
X56469371Y-68837671D02*
X56475250Y-69140250D01*
X56628708Y-69146469D01*
X56782167Y-69152688D01*
X56782167Y-68537000D01*
X57079662Y-68537000D01*
X57073789Y-68838625D01*
X57067917Y-69140250D01*
X56925987Y-69146487D01*
X56784058Y-69152725D01*
X56777820Y-69294654D01*
X56771583Y-69436584D01*
X56618125Y-69442802D01*
X56464667Y-69449021D01*
X56464667Y-69743500D01*
X56167674Y-69743500D01*
X56173295Y-69145542D01*
X56178917Y-68547584D01*
X56321205Y-68541338D01*
X56463493Y-68535093D01*
X56469371Y-68837671D01*
X56469371Y-68837671D01*
G37*
X56469371Y-68837671D02*
X56475250Y-69140250D01*
X56628708Y-69146469D01*
X56782167Y-69152688D01*
X56782167Y-68537000D01*
X57079662Y-68537000D01*
X57073789Y-68838625D01*
X57067917Y-69140250D01*
X56925987Y-69146487D01*
X56784058Y-69152725D01*
X56777820Y-69294654D01*
X56771583Y-69436584D01*
X56618125Y-69442802D01*
X56464667Y-69449021D01*
X56464667Y-69743500D01*
X56167674Y-69743500D01*
X56173295Y-69145542D01*
X56178917Y-68547584D01*
X56321205Y-68541338D01*
X56463493Y-68535093D01*
X56469371Y-68837671D01*
G36*
X58263833Y-69743500D02*
X57671167Y-69743500D01*
X57671167Y-69447167D01*
X58263833Y-69447167D01*
X58263833Y-69743500D01*
X58263833Y-69743500D01*
G37*
X58263833Y-69743500D02*
X57671167Y-69743500D01*
X57671167Y-69447167D01*
X58263833Y-69447167D01*
X58263833Y-69743500D01*
G36*
X57671167Y-69447167D02*
X57374833Y-69447167D01*
X57374833Y-68833334D01*
X57671167Y-68833334D01*
X57671167Y-69447167D01*
X57671167Y-69447167D01*
G37*
X57671167Y-69447167D02*
X57374833Y-69447167D01*
X57374833Y-68833334D01*
X57671167Y-68833334D01*
X57671167Y-69447167D01*
G36*
X57967500Y-68833334D02*
X57671167Y-68833334D01*
X57671167Y-68537000D01*
X57967500Y-68537000D01*
X57967500Y-68833334D01*
X57967500Y-68833334D01*
G37*
X57967500Y-68833334D02*
X57671167Y-68833334D01*
X57671167Y-68537000D01*
X57967500Y-68537000D01*
X57967500Y-68833334D01*
G36*
X58263833Y-68537000D02*
X57967500Y-68537000D01*
X57967500Y-68240667D01*
X58263833Y-68240667D01*
X58263833Y-68537000D01*
X58263833Y-68537000D01*
G37*
X58263833Y-68537000D02*
X57967500Y-68537000D01*
X57967500Y-68240667D01*
X58263833Y-68240667D01*
X58263833Y-68537000D01*
G36*
X57967500Y-68240667D02*
X57374833Y-68240667D01*
X57374833Y-67944334D01*
X57967500Y-67944334D01*
X57967500Y-68240667D01*
X57967500Y-68240667D01*
G37*
X57967500Y-68240667D02*
X57374833Y-68240667D01*
X57374833Y-67944334D01*
X57967500Y-67944334D01*
X57967500Y-68240667D01*
G36*
X125849000Y-69743500D02*
X125235167Y-69743500D01*
X125235167Y-69447167D01*
X125849000Y-69447167D01*
X125849000Y-69743500D01*
X125849000Y-69743500D01*
G37*
X125849000Y-69743500D02*
X125235167Y-69743500D01*
X125235167Y-69447167D01*
X125849000Y-69447167D01*
X125849000Y-69743500D01*
G36*
X125850891Y-68831442D02*
X125992820Y-68837680D01*
X126134750Y-68843917D01*
X126140623Y-69145542D01*
X126146495Y-69447167D01*
X125849000Y-69447167D01*
X125849000Y-68833334D01*
X125233232Y-68833334D01*
X125245750Y-68547584D01*
X125838417Y-68547584D01*
X125850891Y-68831442D01*
X125850891Y-68831442D01*
G37*
X125850891Y-68831442D02*
X125992820Y-68837680D01*
X126134750Y-68843917D01*
X126140623Y-69145542D01*
X126146495Y-69447167D01*
X125849000Y-69447167D01*
X125849000Y-68833334D01*
X125233232Y-68833334D01*
X125245750Y-68547584D01*
X125838417Y-68547584D01*
X125850891Y-68831442D01*
G36*
X126738000Y-68537000D02*
X127330667Y-68537000D01*
X127330667Y-69743500D01*
X127034333Y-69743500D01*
X127034333Y-68833334D01*
X126738000Y-68833334D01*
X126738000Y-68537000D01*
X126738000Y-68537000D01*
G37*
X126738000Y-68537000D02*
X127330667Y-68537000D01*
X127330667Y-69743500D01*
X127034333Y-69743500D01*
X127034333Y-68833334D01*
X126738000Y-68833334D01*
X126738000Y-68537000D01*
G36*
X126738000Y-69743500D02*
X126441667Y-69743500D01*
X126441667Y-68833334D01*
X126738000Y-68833334D01*
X126738000Y-69743500D01*
X126738000Y-69743500D01*
G37*
X126738000Y-69743500D02*
X126441667Y-69743500D01*
X126441667Y-68833334D01*
X126738000Y-68833334D01*
X126738000Y-69743500D01*
G36*
X129733083Y-69732917D02*
X129431458Y-69738790D01*
X129129833Y-69744662D01*
X129129833Y-69447167D01*
X129745601Y-69447167D01*
X129733083Y-69732917D01*
X129733083Y-69732917D01*
G37*
X129733083Y-69732917D02*
X129431458Y-69738790D01*
X129129833Y-69744662D01*
X129129833Y-69447167D01*
X129745601Y-69447167D01*
X129733083Y-69732917D01*
G36*
X129426167Y-68238812D02*
X129733083Y-68251250D01*
X129745601Y-68537000D01*
X129426167Y-68537000D01*
X129426167Y-68833334D01*
X129129833Y-68833334D01*
X129129833Y-69447167D01*
X128832338Y-69447167D01*
X128838210Y-69145542D01*
X128844083Y-68843917D01*
X128986013Y-68837680D01*
X129127942Y-68831442D01*
X129134179Y-68689513D01*
X129140417Y-68547584D01*
X129426167Y-68535066D01*
X129426167Y-68240667D01*
X128833500Y-68240667D01*
X128833500Y-67944334D01*
X129426167Y-67944334D01*
X129426167Y-68238812D01*
X129426167Y-68238812D01*
G37*
X129426167Y-68238812D02*
X129733083Y-68251250D01*
X129745601Y-68537000D01*
X129426167Y-68537000D01*
X129426167Y-68833334D01*
X129129833Y-68833334D01*
X129129833Y-69447167D01*
X128832338Y-69447167D01*
X128838210Y-69145542D01*
X128844083Y-68843917D01*
X128986013Y-68837680D01*
X129127942Y-68831442D01*
X129134179Y-68689513D01*
X129140417Y-68547584D01*
X129426167Y-68535066D01*
X129426167Y-68240667D01*
X128833500Y-68240667D01*
X128833500Y-67944334D01*
X129426167Y-67944334D01*
X129426167Y-68238812D01*
G36*
X134675500Y-69743500D02*
X134315667Y-69743500D01*
X134315667Y-69383667D01*
X134675500Y-69383667D01*
X134675500Y-69743500D01*
X134675500Y-69743500D01*
G37*
X134675500Y-69743500D02*
X134315667Y-69743500D01*
X134315667Y-69383667D01*
X134675500Y-69383667D01*
X134675500Y-69743500D01*
G36*
X135035333Y-69383667D02*
X134675500Y-69383667D01*
X134675500Y-69023834D01*
X135035333Y-69023834D01*
X135035333Y-69383667D01*
X135035333Y-69383667D01*
G37*
X135035333Y-69383667D02*
X134675500Y-69383667D01*
X134675500Y-69023834D01*
X135035333Y-69023834D01*
X135035333Y-69383667D01*
G36*
X136326500Y-69383667D02*
X135987833Y-69383667D01*
X135987833Y-69743500D01*
X135606833Y-69743500D01*
X135606833Y-69385379D01*
X135781458Y-69379231D01*
X135956083Y-69373084D01*
X135962199Y-69187875D01*
X135968315Y-69002667D01*
X136326500Y-69002667D01*
X136326500Y-69383667D01*
X136326500Y-69383667D01*
G37*
X136326500Y-69383667D02*
X135987833Y-69383667D01*
X135987833Y-69743500D01*
X135606833Y-69743500D01*
X135606833Y-69385379D01*
X135781458Y-69379231D01*
X135956083Y-69373084D01*
X135962199Y-69187875D01*
X135968315Y-69002667D01*
X136326500Y-69002667D01*
X136326500Y-69383667D01*
G36*
X137617667Y-69383667D02*
X137279000Y-69383667D01*
X137279000Y-69743500D01*
X136919167Y-69743500D01*
X136919167Y-69383667D01*
X137257833Y-69383667D01*
X137257833Y-69023834D01*
X137617667Y-69023834D01*
X137617667Y-69383667D01*
X137617667Y-69383667D01*
G37*
X137617667Y-69383667D02*
X137279000Y-69383667D01*
X137279000Y-69743500D01*
X136919167Y-69743500D01*
X136919167Y-69383667D01*
X137257833Y-69383667D01*
X137257833Y-69023834D01*
X137617667Y-69023834D01*
X137617667Y-69383667D01*
G36*
X54676083Y-69436584D02*
X54532918Y-69442849D01*
X54448816Y-69443810D01*
X54399781Y-69436956D01*
X54379102Y-69421316D01*
X54378796Y-69420563D01*
X54375110Y-69389508D01*
X54372898Y-69325142D01*
X54372311Y-69236464D01*
X54373495Y-69132474D01*
X54373795Y-69117964D01*
X54379750Y-68843917D01*
X54676083Y-68843917D01*
X54676083Y-69436584D01*
X54676083Y-69436584D01*
G37*
X54676083Y-69436584D02*
X54532918Y-69442849D01*
X54448816Y-69443810D01*
X54399781Y-69436956D01*
X54379102Y-69421316D01*
X54378796Y-69420563D01*
X54375110Y-69389508D01*
X54372898Y-69325142D01*
X54372311Y-69236464D01*
X54373495Y-69132474D01*
X54373795Y-69117964D01*
X54379750Y-68843917D01*
X54676083Y-68843917D01*
X54676083Y-69436584D01*
G36*
X54369167Y-68833334D02*
X53776500Y-68833334D01*
X53776500Y-68537000D01*
X54369167Y-68537000D01*
X54369167Y-68833334D01*
X54369167Y-68833334D01*
G37*
X54369167Y-68833334D02*
X53776500Y-68833334D01*
X53776500Y-68537000D01*
X54369167Y-68537000D01*
X54369167Y-68833334D01*
G36*
X46918500Y-68664000D02*
X46558667Y-68664000D01*
X46558667Y-68304167D01*
X46918500Y-68304167D01*
X46918500Y-68664000D01*
X46918500Y-68664000D01*
G37*
X46918500Y-68664000D02*
X46558667Y-68664000D01*
X46558667Y-68304167D01*
X46918500Y-68304167D01*
X46918500Y-68664000D01*
G36*
X46558667Y-68304167D02*
X46198833Y-68304167D01*
X46198833Y-67944334D01*
X46558667Y-67944334D01*
X46558667Y-68304167D01*
X46558667Y-68304167D01*
G37*
X46558667Y-68304167D02*
X46198833Y-68304167D01*
X46198833Y-67944334D01*
X46558667Y-67944334D01*
X46558667Y-68304167D01*
G36*
X47871000Y-68304167D02*
X48230833Y-68304167D01*
X48230833Y-68664000D01*
X47849833Y-68664000D01*
X47849833Y-68304167D01*
X47490000Y-68304167D01*
X47490000Y-67944334D01*
X47871000Y-67944334D01*
X47871000Y-68304167D01*
X47871000Y-68304167D01*
G37*
X47871000Y-68304167D02*
X48230833Y-68304167D01*
X48230833Y-68664000D01*
X47849833Y-68664000D01*
X47849833Y-68304167D01*
X47490000Y-68304167D01*
X47490000Y-67944334D01*
X47871000Y-67944334D01*
X47871000Y-68304167D01*
G36*
X49522000Y-68664000D02*
X49162167Y-68664000D01*
X49162167Y-68304167D01*
X49522000Y-68304167D01*
X49522000Y-68664000D01*
X49522000Y-68664000D01*
G37*
X49522000Y-68664000D02*
X49162167Y-68664000D01*
X49162167Y-68304167D01*
X49522000Y-68304167D01*
X49522000Y-68664000D01*
G36*
X49162167Y-68304167D02*
X48802333Y-68304167D01*
X48802333Y-67944334D01*
X49162167Y-67944334D01*
X49162167Y-68304167D01*
X49162167Y-68304167D01*
G37*
X49162167Y-68304167D02*
X48802333Y-68304167D01*
X48802333Y-67944334D01*
X49162167Y-67944334D01*
X49162167Y-68304167D01*
G36*
X135035333Y-68664000D02*
X134675500Y-68664000D01*
X134675500Y-68304167D01*
X135035333Y-68304167D01*
X135035333Y-68664000D01*
X135035333Y-68664000D01*
G37*
X135035333Y-68664000D02*
X134675500Y-68664000D01*
X134675500Y-68304167D01*
X135035333Y-68304167D01*
X135035333Y-68664000D01*
G36*
X134675500Y-68304167D02*
X134315667Y-68304167D01*
X134315667Y-67944334D01*
X134675500Y-67944334D01*
X134675500Y-68304167D01*
X134675500Y-68304167D01*
G37*
X134675500Y-68304167D02*
X134315667Y-68304167D01*
X134315667Y-67944334D01*
X134675500Y-67944334D01*
X134675500Y-68304167D01*
G36*
X136326500Y-68664000D02*
X135966667Y-68664000D01*
X135966667Y-68304167D01*
X136326500Y-68304167D01*
X136326500Y-68664000D01*
X136326500Y-68664000D01*
G37*
X136326500Y-68664000D02*
X135966667Y-68664000D01*
X135966667Y-68304167D01*
X136326500Y-68304167D01*
X136326500Y-68664000D01*
G36*
X135966667Y-68304167D02*
X135606833Y-68304167D01*
X135606833Y-67944334D01*
X135966667Y-67944334D01*
X135966667Y-68304167D01*
X135966667Y-68304167D01*
G37*
X135966667Y-68304167D02*
X135606833Y-68304167D01*
X135606833Y-67944334D01*
X135966667Y-67944334D01*
X135966667Y-68304167D01*
G36*
X137257833Y-68304167D02*
X137617667Y-68304167D01*
X137617667Y-68664000D01*
X137257833Y-68664000D01*
X137257833Y-68305879D01*
X137083208Y-68299731D01*
X136908583Y-68293584D01*
X136902435Y-68118959D01*
X136896288Y-67944334D01*
X137257833Y-67944334D01*
X137257833Y-68304167D01*
X137257833Y-68304167D01*
G37*
X137257833Y-68304167D02*
X137617667Y-68304167D01*
X137617667Y-68664000D01*
X137257833Y-68664000D01*
X137257833Y-68305879D01*
X137083208Y-68299731D01*
X136908583Y-68293584D01*
X136902435Y-68118959D01*
X136896288Y-67944334D01*
X137257833Y-67944334D01*
X137257833Y-68304167D01*
G36*
X130034938Y-65473125D02*
X130029417Y-66367417D01*
X129887128Y-66373662D01*
X129744840Y-66379908D01*
X129738962Y-66077329D01*
X129733083Y-65774750D01*
X129424275Y-65762274D01*
X129430513Y-65620345D01*
X129436750Y-65478417D01*
X129590208Y-65472198D01*
X129743667Y-65465979D01*
X129743667Y-64877021D01*
X129590208Y-64870802D01*
X129436750Y-64864584D01*
X129424232Y-64578834D01*
X130040459Y-64578834D01*
X130034938Y-65473125D01*
X130034938Y-65473125D01*
G37*
X130034938Y-65473125D02*
X130029417Y-66367417D01*
X129887128Y-66373662D01*
X129744840Y-66379908D01*
X129738962Y-66077329D01*
X129733083Y-65774750D01*
X129424275Y-65762274D01*
X129430513Y-65620345D01*
X129436750Y-65478417D01*
X129590208Y-65472198D01*
X129743667Y-65465979D01*
X129743667Y-64877021D01*
X129590208Y-64870802D01*
X129436750Y-64864584D01*
X129424232Y-64578834D01*
X130040459Y-64578834D01*
X130034938Y-65473125D01*
G36*
X131225333Y-66378000D02*
X130632667Y-66378000D01*
X130632667Y-66060500D01*
X131225333Y-66060500D01*
X131225333Y-66378000D01*
X131225333Y-66378000D01*
G37*
X131225333Y-66378000D02*
X130632667Y-66378000D01*
X130632667Y-66060500D01*
X131225333Y-66060500D01*
X131225333Y-66378000D01*
G36*
X130632667Y-66060500D02*
X130336333Y-66060500D01*
X130336333Y-65467834D01*
X130632667Y-65467834D01*
X130632667Y-66060500D01*
X130632667Y-66060500D01*
G37*
X130632667Y-66060500D02*
X130336333Y-66060500D01*
X130336333Y-65467834D01*
X130632667Y-65467834D01*
X130632667Y-66060500D01*
G36*
X130929000Y-65467834D02*
X130632667Y-65467834D01*
X130632667Y-65171500D01*
X130929000Y-65171500D01*
X130929000Y-65467834D01*
X130929000Y-65467834D01*
G37*
X130929000Y-65467834D02*
X130632667Y-65467834D01*
X130632667Y-65171500D01*
X130929000Y-65171500D01*
X130929000Y-65467834D01*
G36*
X131225333Y-65171500D02*
X130929000Y-65171500D01*
X130929000Y-64875167D01*
X131225333Y-64875167D01*
X131225333Y-65171500D01*
X131225333Y-65171500D01*
G37*
X131225333Y-65171500D02*
X130929000Y-65171500D01*
X130929000Y-64875167D01*
X131225333Y-64875167D01*
X131225333Y-65171500D01*
G36*
X130929000Y-64875167D02*
X130336333Y-64875167D01*
X130336333Y-64578834D01*
X130929000Y-64578834D01*
X130929000Y-64875167D01*
X130929000Y-64875167D01*
G37*
X130929000Y-64875167D02*
X130336333Y-64875167D01*
X130336333Y-64578834D01*
X130929000Y-64578834D01*
X130929000Y-64875167D01*
G36*
X126039500Y-66356834D02*
X125743167Y-66356834D01*
X125743167Y-65764167D01*
X125446833Y-65764167D01*
X125446833Y-65467834D01*
X125743167Y-65467834D01*
X125743167Y-64875167D01*
X125446833Y-64875167D01*
X125446833Y-64578834D01*
X126039500Y-64578834D01*
X126039500Y-66356834D01*
X126039500Y-66356834D01*
G37*
X126039500Y-66356834D02*
X125743167Y-66356834D01*
X125743167Y-65764167D01*
X125446833Y-65764167D01*
X125446833Y-65467834D01*
X125743167Y-65467834D01*
X125743167Y-64875167D01*
X125446833Y-64875167D01*
X125446833Y-64578834D01*
X126039500Y-64578834D01*
X126039500Y-66356834D01*
G36*
X127224833Y-66356834D02*
X126632167Y-66356834D01*
X126632167Y-66060500D01*
X127224833Y-66060500D01*
X127224833Y-66356834D01*
X127224833Y-66356834D01*
G37*
X127224833Y-66356834D02*
X126632167Y-66356834D01*
X126632167Y-66060500D01*
X127224833Y-66060500D01*
X127224833Y-66356834D01*
G36*
X126632167Y-66060500D02*
X126335833Y-66060500D01*
X126335833Y-65467834D01*
X126632167Y-65467834D01*
X126632167Y-66060500D01*
X126632167Y-66060500D01*
G37*
X126632167Y-66060500D02*
X126335833Y-66060500D01*
X126335833Y-65467834D01*
X126632167Y-65467834D01*
X126632167Y-66060500D01*
G36*
X126928500Y-65467834D02*
X126632167Y-65467834D01*
X126632167Y-65171500D01*
X126928500Y-65171500D01*
X126928500Y-65467834D01*
X126928500Y-65467834D01*
G37*
X126928500Y-65467834D02*
X126632167Y-65467834D01*
X126632167Y-65171500D01*
X126928500Y-65171500D01*
X126928500Y-65467834D01*
G36*
X127224833Y-65171500D02*
X126928500Y-65171500D01*
X126928500Y-64875167D01*
X127224833Y-64875167D01*
X127224833Y-65171500D01*
X127224833Y-65171500D01*
G37*
X127224833Y-65171500D02*
X126928500Y-65171500D01*
X126928500Y-64875167D01*
X127224833Y-64875167D01*
X127224833Y-65171500D01*
G36*
X126928500Y-64875167D02*
X126335833Y-64875167D01*
X126335833Y-64578834D01*
X126928500Y-64578834D01*
X126928500Y-64875167D01*
X126928500Y-64875167D01*
G37*
X126928500Y-64875167D02*
X126335833Y-64875167D01*
X126335833Y-64578834D01*
X126928500Y-64578834D01*
X126928500Y-64875167D01*
G36*
X124377917Y-64906917D02*
X124383880Y-65155625D01*
X124389843Y-65404334D01*
X124875333Y-65404334D01*
X124875333Y-65552500D01*
X124388500Y-65552500D01*
X124388500Y-66039334D01*
X124219167Y-66039334D01*
X124219167Y-65552500D01*
X123732333Y-65552500D01*
X123732333Y-65405720D01*
X124208583Y-65393750D01*
X124214557Y-65143805D01*
X124220531Y-64893859D01*
X124377917Y-64906917D01*
X124377917Y-64906917D01*
G37*
X124377917Y-64906917D02*
X124383880Y-65155625D01*
X124389843Y-65404334D01*
X124875333Y-65404334D01*
X124875333Y-65552500D01*
X124388500Y-65552500D01*
X124388500Y-66039334D01*
X124219167Y-66039334D01*
X124219167Y-65552500D01*
X123732333Y-65552500D01*
X123732333Y-65405720D01*
X124208583Y-65393750D01*
X124214557Y-65143805D01*
X124220531Y-64893859D01*
X124377917Y-64906917D01*
G36*
X128875833Y-65552500D02*
X127732833Y-65552500D01*
X127732833Y-65404334D01*
X128875833Y-65404334D01*
X128875833Y-65552500D01*
X128875833Y-65552500D01*
G37*
X128875833Y-65552500D02*
X127732833Y-65552500D01*
X127732833Y-65404334D01*
X128875833Y-65404334D01*
X128875833Y-65552500D01*
G36*
X125425667Y-65467834D02*
X125129333Y-65467834D01*
X125129333Y-64875167D01*
X125425667Y-64875167D01*
X125425667Y-65467834D01*
X125425667Y-65467834D01*
G37*
X125425667Y-65467834D02*
X125129333Y-65467834D01*
X125129333Y-64875167D01*
X125425667Y-64875167D01*
X125425667Y-65467834D01*
G36*
X129426167Y-65467834D02*
X129129833Y-65467834D01*
X129129833Y-64875167D01*
X129426167Y-64875167D01*
X129426167Y-65467834D01*
X129426167Y-65467834D01*
G37*
X129426167Y-65467834D02*
X129129833Y-65467834D01*
X129129833Y-64875167D01*
X129426167Y-64875167D01*
X129426167Y-65467834D01*
G36*
X136554988Y-55629680D02*
X136696917Y-55635917D01*
X136703135Y-55789375D01*
X136709354Y-55942834D01*
X137892833Y-55942834D01*
X137892833Y-56239167D01*
X137007361Y-56239167D01*
X136817729Y-56238840D01*
X136641335Y-56237906D01*
X136482655Y-56236436D01*
X136346163Y-56234499D01*
X136236335Y-56232166D01*
X136157645Y-56229507D01*
X136114568Y-56226592D01*
X136107778Y-56225056D01*
X136100410Y-56197968D01*
X136095304Y-56141506D01*
X136093667Y-56077816D01*
X136093667Y-55944688D01*
X136400583Y-55932250D01*
X136413059Y-55623442D01*
X136554988Y-55629680D01*
X136554988Y-55629680D01*
G37*
X136554988Y-55629680D02*
X136696917Y-55635917D01*
X136703135Y-55789375D01*
X136709354Y-55942834D01*
X137892833Y-55942834D01*
X137892833Y-56239167D01*
X137007361Y-56239167D01*
X136817729Y-56238840D01*
X136641335Y-56237906D01*
X136482655Y-56236436D01*
X136346163Y-56234499D01*
X136236335Y-56232166D01*
X136157645Y-56229507D01*
X136114568Y-56226592D01*
X136107778Y-56225056D01*
X136100410Y-56197968D01*
X136095304Y-56141506D01*
X136093667Y-56077816D01*
X136093667Y-55944688D01*
X136400583Y-55932250D01*
X136413059Y-55623442D01*
X136554988Y-55629680D01*
G36*
X137892833Y-55625334D02*
X136707500Y-55625334D01*
X136707500Y-55329000D01*
X137892833Y-55329000D01*
X137892833Y-55625334D01*
X137892833Y-55625334D01*
G37*
X137892833Y-55625334D02*
X136707500Y-55625334D01*
X136707500Y-55329000D01*
X137892833Y-55329000D01*
X137892833Y-55625334D01*
G36*
X84976167Y-55604167D02*
X84087167Y-55604167D01*
X84087167Y-55307834D01*
X84679833Y-55307834D01*
X84679833Y-55011500D01*
X84976167Y-55011500D01*
X84976167Y-55604167D01*
X84976167Y-55604167D01*
G37*
X84976167Y-55604167D02*
X84087167Y-55604167D01*
X84087167Y-55307834D01*
X84679833Y-55307834D01*
X84679833Y-55011500D01*
X84976167Y-55011500D01*
X84976167Y-55604167D01*
G36*
X84679833Y-55011500D02*
X84383500Y-55011500D01*
X84383500Y-54715167D01*
X84679833Y-54715167D01*
X84679833Y-55011500D01*
X84679833Y-55011500D01*
G37*
X84679833Y-55011500D02*
X84383500Y-55011500D01*
X84383500Y-54715167D01*
X84679833Y-54715167D01*
X84679833Y-55011500D01*
G36*
X84383500Y-54715167D02*
X84087167Y-54715167D01*
X84087167Y-54418834D01*
X84383500Y-54418834D01*
X84383500Y-54715167D01*
X84383500Y-54715167D01*
G37*
X84383500Y-54715167D02*
X84087167Y-54715167D01*
X84087167Y-54418834D01*
X84383500Y-54418834D01*
X84383500Y-54715167D01*
G36*
X84976167Y-54418834D02*
X84383500Y-54418834D01*
X84383500Y-54101334D01*
X84976167Y-54101334D01*
X84976167Y-54418834D01*
X84976167Y-54418834D01*
G37*
X84976167Y-54418834D02*
X84383500Y-54418834D01*
X84383500Y-54101334D01*
X84976167Y-54101334D01*
X84976167Y-54418834D01*
G36*
X85865167Y-54101334D02*
X85568833Y-54101334D01*
X85568833Y-54715167D01*
X85864004Y-54715167D01*
X85875750Y-54111917D01*
X86172083Y-54111917D01*
X86177646Y-54858042D01*
X86183208Y-55604167D01*
X85865167Y-55604167D01*
X85865167Y-55011500D01*
X85568833Y-55011500D01*
X85568833Y-55604167D01*
X85271958Y-55604167D01*
X85277521Y-54858042D01*
X85283083Y-54111917D01*
X85425013Y-54105680D01*
X85566942Y-54099442D01*
X85573179Y-53957513D01*
X85579417Y-53815584D01*
X85865167Y-53803066D01*
X85865167Y-54101334D01*
X85865167Y-54101334D01*
G37*
X85865167Y-54101334D02*
X85568833Y-54101334D01*
X85568833Y-54715167D01*
X85864004Y-54715167D01*
X85875750Y-54111917D01*
X86172083Y-54111917D01*
X86177646Y-54858042D01*
X86183208Y-55604167D01*
X85865167Y-55604167D01*
X85865167Y-55011500D01*
X85568833Y-55011500D01*
X85568833Y-55604167D01*
X85271958Y-55604167D01*
X85277521Y-54858042D01*
X85283083Y-54111917D01*
X85425013Y-54105680D01*
X85566942Y-54099442D01*
X85573179Y-53957513D01*
X85579417Y-53815584D01*
X85865167Y-53803066D01*
X85865167Y-54101334D01*
G36*
X98332333Y-54418834D02*
X98628667Y-54418834D01*
X98628667Y-54715167D01*
X98332333Y-54715167D01*
X98332333Y-55307834D01*
X98628667Y-55307834D01*
X98628667Y-55604167D01*
X97739667Y-55604167D01*
X97739667Y-55307834D01*
X98036000Y-55307834D01*
X98036000Y-54101334D01*
X98332333Y-54101334D01*
X98332333Y-54418834D01*
X98332333Y-54418834D01*
G37*
X98332333Y-54418834D02*
X98628667Y-54418834D01*
X98628667Y-54715167D01*
X98332333Y-54715167D01*
X98332333Y-55307834D01*
X98628667Y-55307834D01*
X98628667Y-55604167D01*
X97739667Y-55604167D01*
X97739667Y-55307834D01*
X98036000Y-55307834D01*
X98036000Y-54101334D01*
X98332333Y-54101334D01*
X98332333Y-54418834D01*
G36*
X99540724Y-54099442D02*
X99682654Y-54105680D01*
X99824583Y-54111917D01*
X99830146Y-54858042D01*
X99835708Y-55604167D01*
X99538833Y-55604167D01*
X99538833Y-55011500D01*
X99221333Y-55011500D01*
X99221333Y-55604167D01*
X98924458Y-55604167D01*
X98930021Y-54858042D01*
X98935583Y-54111917D01*
X99077513Y-54105680D01*
X99176394Y-54101334D01*
X99221333Y-54101334D01*
X99221333Y-54394139D01*
X99222362Y-54501554D01*
X99225185Y-54593497D01*
X99229405Y-54661823D01*
X99234626Y-54698384D01*
X99236311Y-54701923D01*
X99263719Y-54708726D01*
X99320669Y-54711836D01*
X99389770Y-54710742D01*
X99528250Y-54704584D01*
X99534123Y-54402959D01*
X99539995Y-54101334D01*
X99221333Y-54101334D01*
X99176394Y-54101334D01*
X99219442Y-54099442D01*
X99225679Y-53957513D01*
X99231917Y-53815584D01*
X99528250Y-53815584D01*
X99540724Y-54099442D01*
X99540724Y-54099442D01*
G37*
X99540724Y-54099442D02*
X99682654Y-54105680D01*
X99824583Y-54111917D01*
X99830146Y-54858042D01*
X99835708Y-55604167D01*
X99538833Y-55604167D01*
X99538833Y-55011500D01*
X99221333Y-55011500D01*
X99221333Y-55604167D01*
X98924458Y-55604167D01*
X98930021Y-54858042D01*
X98935583Y-54111917D01*
X99077513Y-54105680D01*
X99176394Y-54101334D01*
X99221333Y-54101334D01*
X99221333Y-54394139D01*
X99222362Y-54501554D01*
X99225185Y-54593497D01*
X99229405Y-54661823D01*
X99234626Y-54698384D01*
X99236311Y-54701923D01*
X99263719Y-54708726D01*
X99320669Y-54711836D01*
X99389770Y-54710742D01*
X99528250Y-54704584D01*
X99534123Y-54402959D01*
X99539995Y-54101334D01*
X99221333Y-54101334D01*
X99176394Y-54101334D01*
X99219442Y-54099442D01*
X99225679Y-53957513D01*
X99231917Y-53815584D01*
X99528250Y-53815584D01*
X99540724Y-54099442D01*
G36*
X137892833Y-54440000D02*
X137892833Y-54736334D01*
X137596500Y-54736334D01*
X137596500Y-55032667D01*
X136411167Y-55032667D01*
X136411167Y-54736334D01*
X136093667Y-54736334D01*
X136093667Y-54440000D01*
X136411167Y-54440000D01*
X136411167Y-54736334D01*
X137596500Y-54736334D01*
X137596500Y-54440000D01*
X136411167Y-54440000D01*
X136411167Y-54143667D01*
X137596500Y-54143667D01*
X137596500Y-54440000D01*
X137892833Y-54440000D01*
X137892833Y-54440000D01*
G37*
X137892833Y-54440000D02*
X137892833Y-54736334D01*
X137596500Y-54736334D01*
X137596500Y-55032667D01*
X136411167Y-55032667D01*
X136411167Y-54736334D01*
X136093667Y-54736334D01*
X136093667Y-54440000D01*
X136411167Y-54440000D01*
X136411167Y-54736334D01*
X137596500Y-54736334D01*
X137596500Y-54440000D01*
X136411167Y-54440000D01*
X136411167Y-54143667D01*
X137596500Y-54143667D01*
X137596500Y-54440000D01*
X137892833Y-54440000D01*
G36*
X136400583Y-52947750D02*
X136412361Y-53529834D01*
X137892833Y-53529834D01*
X137892833Y-53847334D01*
X137007361Y-53847334D01*
X136817729Y-53847007D01*
X136641335Y-53846073D01*
X136482655Y-53844603D01*
X136346163Y-53842666D01*
X136236335Y-53840333D01*
X136157645Y-53837674D01*
X136114568Y-53834759D01*
X136107778Y-53833222D01*
X136103561Y-53808733D01*
X136099847Y-53748380D01*
X136096836Y-53658632D01*
X136094728Y-53545957D01*
X136093723Y-53416825D01*
X136093667Y-53377212D01*
X136093667Y-52935312D01*
X136400583Y-52947750D01*
X136400583Y-52947750D01*
G37*
X136400583Y-52947750D02*
X136412361Y-53529834D01*
X137892833Y-53529834D01*
X137892833Y-53847334D01*
X137007361Y-53847334D01*
X136817729Y-53847007D01*
X136641335Y-53846073D01*
X136482655Y-53844603D01*
X136346163Y-53842666D01*
X136236335Y-53840333D01*
X136157645Y-53837674D01*
X136114568Y-53834759D01*
X136107778Y-53833222D01*
X136103561Y-53808733D01*
X136099847Y-53748380D01*
X136096836Y-53658632D01*
X136094728Y-53545957D01*
X136093723Y-53416825D01*
X136093667Y-53377212D01*
X136093667Y-52935312D01*
X136400583Y-52947750D01*
G36*
X83769667Y-52958334D02*
X83177000Y-52958334D01*
X83177000Y-52662000D01*
X83473333Y-52662000D01*
X83473333Y-51455500D01*
X83177000Y-51455500D01*
X83177000Y-51159167D01*
X83769667Y-51159167D01*
X83769667Y-52958334D01*
X83769667Y-52958334D01*
G37*
X83769667Y-52958334D02*
X83177000Y-52958334D01*
X83177000Y-52662000D01*
X83473333Y-52662000D01*
X83473333Y-51455500D01*
X83177000Y-51455500D01*
X83177000Y-51159167D01*
X83769667Y-51159167D01*
X83769667Y-52958334D01*
G36*
X83177000Y-52662000D02*
X82880667Y-52662000D01*
X82880667Y-51476667D01*
X83177000Y-51476667D01*
X83177000Y-52662000D01*
X83177000Y-52662000D01*
G37*
X83177000Y-52662000D02*
X82880667Y-52662000D01*
X82880667Y-51476667D01*
X83177000Y-51476667D01*
X83177000Y-52662000D01*
G36*
X84383500Y-52958334D02*
X84087167Y-52958334D01*
X84087167Y-51476667D01*
X84383500Y-51476667D01*
X84383500Y-52958334D01*
X84383500Y-52958334D01*
G37*
X84383500Y-52958334D02*
X84087167Y-52958334D01*
X84087167Y-51476667D01*
X84383500Y-51476667D01*
X84383500Y-52958334D01*
G36*
X84976167Y-52958334D02*
X84680375Y-52958334D01*
X84674812Y-52212209D01*
X84669250Y-51466084D01*
X84383500Y-51453566D01*
X84383500Y-51159167D01*
X84976167Y-51159167D01*
X84976167Y-52958334D01*
X84976167Y-52958334D01*
G37*
X84976167Y-52958334D02*
X84680375Y-52958334D01*
X84674812Y-52212209D01*
X84669250Y-51466084D01*
X84383500Y-51453566D01*
X84383500Y-51159167D01*
X84976167Y-51159167D01*
X84976167Y-52958334D01*
G36*
X85568833Y-52662000D02*
X85865167Y-52662000D01*
X85865167Y-52958334D01*
X85272500Y-52958334D01*
X85272500Y-52069334D01*
X85568833Y-52069334D01*
X85568833Y-52662000D01*
X85568833Y-52662000D01*
G37*
X85568833Y-52662000D02*
X85865167Y-52662000D01*
X85865167Y-52958334D01*
X85272500Y-52958334D01*
X85272500Y-52069334D01*
X85568833Y-52069334D01*
X85568833Y-52662000D01*
G36*
X86182667Y-52662000D02*
X85865167Y-52662000D01*
X85865167Y-51476667D01*
X86182667Y-51476667D01*
X86182667Y-52662000D01*
X86182667Y-52662000D01*
G37*
X86182667Y-52662000D02*
X85865167Y-52662000D01*
X85865167Y-51476667D01*
X86182667Y-51476667D01*
X86182667Y-52662000D01*
G36*
X137892833Y-52048167D02*
X136411167Y-52048167D01*
X136411167Y-52344500D01*
X137892833Y-52344500D01*
X137892833Y-52640834D01*
X136093667Y-52640834D01*
X136093667Y-51751834D01*
X137892833Y-51751834D01*
X137892833Y-52048167D01*
X137892833Y-52048167D01*
G37*
X137892833Y-52048167D02*
X136411167Y-52048167D01*
X136411167Y-52344500D01*
X137892833Y-52344500D01*
X137892833Y-52640834D01*
X136093667Y-52640834D01*
X136093667Y-51751834D01*
X137892833Y-51751834D01*
X137892833Y-52048167D01*
G36*
X47913333Y-51370834D02*
X48823500Y-51370834D01*
X48823500Y-51963500D01*
X48527167Y-51963500D01*
X48527167Y-51667167D01*
X47913333Y-51667167D01*
X47913333Y-51963500D01*
X47617000Y-51963500D01*
X47617000Y-51667167D01*
X47320667Y-51667167D01*
X47320667Y-51370834D01*
X47617000Y-51370834D01*
X47617000Y-51074500D01*
X47913333Y-51074500D01*
X47913333Y-51370834D01*
X47913333Y-51370834D01*
G37*
X47913333Y-51370834D02*
X48823500Y-51370834D01*
X48823500Y-51963500D01*
X48527167Y-51963500D01*
X48527167Y-51667167D01*
X47913333Y-51667167D01*
X47913333Y-51963500D01*
X47617000Y-51963500D01*
X47617000Y-51667167D01*
X47320667Y-51667167D01*
X47320667Y-51370834D01*
X47617000Y-51370834D01*
X47617000Y-51074500D01*
X47913333Y-51074500D01*
X47913333Y-51370834D01*
G36*
X85865167Y-51455500D02*
X85272500Y-51455500D01*
X85272500Y-51159167D01*
X85865167Y-51159167D01*
X85865167Y-51455500D01*
X85865167Y-51455500D01*
G37*
X85865167Y-51455500D02*
X85272500Y-51455500D01*
X85272500Y-51159167D01*
X85865167Y-51159167D01*
X85865167Y-51455500D01*
G36*
X137892833Y-50841667D02*
X137596500Y-50841667D01*
X137596500Y-51138000D01*
X137892833Y-51138000D01*
X137892833Y-51434334D01*
X136091732Y-51434334D01*
X136104250Y-51148584D01*
X136554042Y-51142871D01*
X137003833Y-51137158D01*
X137003833Y-50841667D01*
X136093667Y-50841667D01*
X136093667Y-50545334D01*
X137892833Y-50545334D01*
X137892833Y-50841667D01*
X137892833Y-50841667D01*
G37*
X137892833Y-50841667D02*
X137596500Y-50841667D01*
X137596500Y-51138000D01*
X137892833Y-51138000D01*
X137892833Y-51434334D01*
X136091732Y-51434334D01*
X136104250Y-51148584D01*
X136554042Y-51142871D01*
X137003833Y-51137158D01*
X137003833Y-50841667D01*
X136093667Y-50841667D01*
X136093667Y-50545334D01*
X137892833Y-50545334D01*
X137892833Y-50841667D01*
G36*
X48527167Y-50458733D02*
X48670042Y-50464991D01*
X48812917Y-50471250D01*
X48812917Y-50767584D01*
X48670042Y-50773842D01*
X48527167Y-50780101D01*
X48527167Y-50460667D01*
X47913333Y-50460667D01*
X47913333Y-50778167D01*
X47775086Y-50778167D01*
X47689305Y-50774621D01*
X47640674Y-50763386D01*
X47625775Y-50749338D01*
X47620803Y-50713516D01*
X47619474Y-50650979D01*
X47621148Y-50595880D01*
X47627583Y-50471250D01*
X47770458Y-50464991D01*
X47913333Y-50458733D01*
X47913333Y-50164334D01*
X48527167Y-50164334D01*
X48527167Y-50458733D01*
X48527167Y-50458733D01*
G37*
X48527167Y-50458733D02*
X48670042Y-50464991D01*
X48812917Y-50471250D01*
X48812917Y-50767584D01*
X48670042Y-50773842D01*
X48527167Y-50780101D01*
X48527167Y-50460667D01*
X47913333Y-50460667D01*
X47913333Y-50778167D01*
X47775086Y-50778167D01*
X47689305Y-50774621D01*
X47640674Y-50763386D01*
X47625775Y-50749338D01*
X47620803Y-50713516D01*
X47619474Y-50650979D01*
X47621148Y-50595880D01*
X47627583Y-50471250D01*
X47770458Y-50464991D01*
X47913333Y-50458733D01*
X47913333Y-50164334D01*
X48527167Y-50164334D01*
X48527167Y-50458733D01*
G36*
X48823500Y-50164334D02*
X48527167Y-50164334D01*
X48527167Y-49868000D01*
X48823500Y-49868000D01*
X48823500Y-50164334D01*
X48823500Y-50164334D01*
G37*
X48823500Y-50164334D02*
X48527167Y-50164334D01*
X48527167Y-49868000D01*
X48823500Y-49868000D01*
X48823500Y-50164334D01*
G36*
X47913333Y-50164334D02*
X47617000Y-50164334D01*
X47617000Y-49868000D01*
X47913333Y-49868000D01*
X47913333Y-50164334D01*
X47913333Y-50164334D01*
G37*
X47913333Y-50164334D02*
X47617000Y-50164334D01*
X47617000Y-49868000D01*
X47913333Y-49868000D01*
X47913333Y-50164334D01*
G36*
X98332333Y-50418334D02*
X97739667Y-50418334D01*
X97739667Y-50100834D01*
X98332333Y-50100834D01*
X98332333Y-50418334D01*
X98332333Y-50418334D01*
G37*
X98332333Y-50418334D02*
X97739667Y-50418334D01*
X97739667Y-50100834D01*
X98332333Y-50100834D01*
X98332333Y-50418334D01*
G36*
X98628667Y-50100834D02*
X98332333Y-50100834D01*
X98332333Y-49508167D01*
X98628667Y-49508167D01*
X98628667Y-50100834D01*
X98628667Y-50100834D01*
G37*
X98628667Y-50100834D02*
X98332333Y-50100834D01*
X98332333Y-49508167D01*
X98628667Y-49508167D01*
X98628667Y-50100834D01*
G36*
X98332333Y-49508167D02*
X97739667Y-49508167D01*
X97739667Y-49211834D01*
X98332333Y-49211834D01*
X98332333Y-49508167D01*
X98332333Y-49508167D01*
G37*
X98332333Y-49508167D02*
X97739667Y-49508167D01*
X97739667Y-49211834D01*
X98332333Y-49211834D01*
X98332333Y-49508167D01*
G36*
X99835167Y-50100834D02*
X99540688Y-50100834D01*
X99528250Y-50407750D01*
X99236774Y-50413642D01*
X99115633Y-50415271D01*
X99030763Y-50414134D01*
X98976164Y-50409766D01*
X98945834Y-50401699D01*
X98934006Y-50390105D01*
X98928906Y-50353929D01*
X98927496Y-50291124D01*
X98929148Y-50236047D01*
X98935583Y-50111417D01*
X99538833Y-50099671D01*
X99538833Y-49508167D01*
X99835167Y-49508167D01*
X99835167Y-50100834D01*
X99835167Y-50100834D01*
G37*
X99835167Y-50100834D02*
X99540688Y-50100834D01*
X99528250Y-50407750D01*
X99236774Y-50413642D01*
X99115633Y-50415271D01*
X99030763Y-50414134D01*
X98976164Y-50409766D01*
X98945834Y-50401699D01*
X98934006Y-50390105D01*
X98928906Y-50353929D01*
X98927496Y-50291124D01*
X98929148Y-50236047D01*
X98935583Y-50111417D01*
X99538833Y-50099671D01*
X99538833Y-49508167D01*
X99835167Y-49508167D01*
X99835167Y-50100834D01*
G36*
X99538833Y-49508167D02*
X98925000Y-49508167D01*
X98925000Y-49211834D01*
X99538833Y-49211834D01*
X99538833Y-49508167D01*
X99538833Y-49508167D01*
G37*
X99538833Y-49508167D02*
X98925000Y-49508167D01*
X98925000Y-49211834D01*
X99538833Y-49211834D01*
X99538833Y-49508167D01*
G36*
X101020500Y-50418334D02*
X100886444Y-50418334D01*
X100814591Y-50416257D01*
X100760697Y-50410847D01*
X100738278Y-50404222D01*
X100731179Y-50377360D01*
X100726111Y-50320466D01*
X100724167Y-50245832D01*
X100724167Y-50100834D01*
X100427833Y-50100834D01*
X100427833Y-49804500D01*
X100724167Y-49804500D01*
X100724167Y-48619167D01*
X101020500Y-48619167D01*
X101020500Y-50418334D01*
X101020500Y-50418334D01*
G37*
X101020500Y-50418334D02*
X100886444Y-50418334D01*
X100814591Y-50416257D01*
X100760697Y-50410847D01*
X100738278Y-50404222D01*
X100731179Y-50377360D01*
X100726111Y-50320466D01*
X100724167Y-50245832D01*
X100724167Y-50100834D01*
X100427833Y-50100834D01*
X100427833Y-49804500D01*
X100724167Y-49804500D01*
X100724167Y-48619167D01*
X101020500Y-48619167D01*
X101020500Y-50418334D01*
G36*
X100427833Y-49804500D02*
X100131500Y-49804500D01*
X100131500Y-48619167D01*
X100427833Y-48619167D01*
X100427833Y-49804500D01*
X100427833Y-49804500D01*
G37*
X100427833Y-49804500D02*
X100131500Y-49804500D01*
X100131500Y-48619167D01*
X100427833Y-48619167D01*
X100427833Y-49804500D01*
G36*
X84372917Y-48523917D02*
X84378538Y-49121875D01*
X84384159Y-49719834D01*
X84679833Y-49719834D01*
X84679833Y-48513334D01*
X84976167Y-48513334D01*
X84976167Y-50312500D01*
X84679833Y-50312500D01*
X84679833Y-50016167D01*
X84383500Y-50016167D01*
X84383500Y-49719834D01*
X84087167Y-49719834D01*
X84087167Y-48511399D01*
X84372917Y-48523917D01*
X84372917Y-48523917D01*
G37*
X84372917Y-48523917D02*
X84378538Y-49121875D01*
X84384159Y-49719834D01*
X84679833Y-49719834D01*
X84679833Y-48513334D01*
X84976167Y-48513334D01*
X84976167Y-50312500D01*
X84679833Y-50312500D01*
X84679833Y-50016167D01*
X84383500Y-50016167D01*
X84383500Y-49719834D01*
X84087167Y-49719834D01*
X84087167Y-48511399D01*
X84372917Y-48523917D01*
G36*
X85568833Y-50015005D02*
X85870458Y-50020877D01*
X86172083Y-50026750D01*
X86184601Y-50312500D01*
X85568833Y-50312500D01*
X85568833Y-50016167D01*
X85272500Y-50016167D01*
X85272500Y-49719834D01*
X85568833Y-49719834D01*
X85568833Y-50015005D01*
X85568833Y-50015005D01*
G37*
X85568833Y-50015005D02*
X85870458Y-50020877D01*
X86172083Y-50026750D01*
X86184601Y-50312500D01*
X85568833Y-50312500D01*
X85568833Y-50016167D01*
X85272500Y-50016167D01*
X85272500Y-49719834D01*
X85568833Y-49719834D01*
X85568833Y-50015005D01*
G36*
X86182667Y-49719834D02*
X85568833Y-49719834D01*
X85568833Y-49423500D01*
X85865167Y-49423500D01*
X85865167Y-49127167D01*
X85272500Y-49127167D01*
X85272500Y-48830834D01*
X86182667Y-48830834D01*
X86182667Y-49719834D01*
X86182667Y-49719834D01*
G37*
X86182667Y-49719834D02*
X85568833Y-49719834D01*
X85568833Y-49423500D01*
X85865167Y-49423500D01*
X85865167Y-49127167D01*
X85272500Y-49127167D01*
X85272500Y-48830834D01*
X86182667Y-48830834D01*
X86182667Y-49719834D01*
G36*
X137892833Y-50249000D02*
X137003169Y-50249000D01*
X136776708Y-50248750D01*
X136589365Y-50247934D01*
X136437927Y-50246456D01*
X136319180Y-50244220D01*
X136229911Y-50241128D01*
X136166907Y-50237085D01*
X136126955Y-50231994D01*
X136106842Y-50225758D01*
X136103122Y-50221945D01*
X136100221Y-50193272D01*
X136098210Y-50129166D01*
X136097159Y-50036517D01*
X136097139Y-49922218D01*
X136098222Y-49793159D01*
X136098495Y-49772153D01*
X136104250Y-49349417D01*
X136400583Y-49349417D01*
X136412329Y-49952667D01*
X137003833Y-49952667D01*
X137003833Y-49656334D01*
X137300167Y-49656334D01*
X137300167Y-49952667D01*
X137596500Y-49952667D01*
X137596500Y-49338834D01*
X137892833Y-49338834D01*
X137892833Y-50249000D01*
X137892833Y-50249000D01*
G37*
X137892833Y-50249000D02*
X137003169Y-50249000D01*
X136776708Y-50248750D01*
X136589365Y-50247934D01*
X136437927Y-50246456D01*
X136319180Y-50244220D01*
X136229911Y-50241128D01*
X136166907Y-50237085D01*
X136126955Y-50231994D01*
X136106842Y-50225758D01*
X136103122Y-50221945D01*
X136100221Y-50193272D01*
X136098210Y-50129166D01*
X136097159Y-50036517D01*
X136097139Y-49922218D01*
X136098222Y-49793159D01*
X136098495Y-49772153D01*
X136104250Y-49349417D01*
X136400583Y-49349417D01*
X136412329Y-49952667D01*
X137003833Y-49952667D01*
X137003833Y-49656334D01*
X137300167Y-49656334D01*
X137300167Y-49952667D01*
X137596500Y-49952667D01*
X137596500Y-49338834D01*
X137892833Y-49338834D01*
X137892833Y-50249000D01*
G36*
X42699090Y-46420525D02*
X42699755Y-46474829D01*
X42700451Y-46569367D01*
X42701038Y-46677125D01*
X42702106Y-46948620D01*
X42702850Y-47251281D01*
X42703270Y-47573941D01*
X42703364Y-47905434D01*
X42703134Y-48234595D01*
X42702579Y-48550257D01*
X42701699Y-48841253D01*
X42701038Y-48994875D01*
X42700321Y-49123101D01*
X42699630Y-49210149D01*
X42698971Y-49257177D01*
X42698350Y-49265339D01*
X42697772Y-49235792D01*
X42697243Y-49169693D01*
X42696769Y-49068197D01*
X42696354Y-48932460D01*
X42696006Y-48763639D01*
X42695729Y-48562890D01*
X42695529Y-48331368D01*
X42695411Y-48070230D01*
X42695381Y-47836000D01*
X42695426Y-47551552D01*
X42695559Y-47295776D01*
X42695774Y-47069830D01*
X42696065Y-46874868D01*
X42696426Y-46712047D01*
X42696851Y-46582524D01*
X42697336Y-46487454D01*
X42697875Y-46427993D01*
X42698461Y-46405298D01*
X42699090Y-46420525D01*
X42699090Y-46420525D01*
G37*
X42699090Y-46420525D02*
X42699755Y-46474829D01*
X42700451Y-46569367D01*
X42701038Y-46677125D01*
X42702106Y-46948620D01*
X42702850Y-47251281D01*
X42703270Y-47573941D01*
X42703364Y-47905434D01*
X42703134Y-48234595D01*
X42702579Y-48550257D01*
X42701699Y-48841253D01*
X42701038Y-48994875D01*
X42700321Y-49123101D01*
X42699630Y-49210149D01*
X42698971Y-49257177D01*
X42698350Y-49265339D01*
X42697772Y-49235792D01*
X42697243Y-49169693D01*
X42696769Y-49068197D01*
X42696354Y-48932460D01*
X42696006Y-48763639D01*
X42695729Y-48562890D01*
X42695529Y-48331368D01*
X42695411Y-48070230D01*
X42695381Y-47836000D01*
X42695426Y-47551552D01*
X42695559Y-47295776D01*
X42695774Y-47069830D01*
X42696065Y-46874868D01*
X42696426Y-46712047D01*
X42696851Y-46582524D01*
X42697336Y-46487454D01*
X42697875Y-46427993D01*
X42698461Y-46405298D01*
X42699090Y-46420525D01*
G36*
X48823500Y-49571667D02*
X48527167Y-49571667D01*
X48527167Y-48979000D01*
X47913333Y-48979000D01*
X47913333Y-49275334D01*
X47617000Y-49275334D01*
X47617000Y-48979000D01*
X47320667Y-48979000D01*
X47320667Y-49571667D01*
X47024333Y-49571667D01*
X47024333Y-48682667D01*
X48823500Y-48682667D01*
X48823500Y-49571667D01*
X48823500Y-49571667D01*
G37*
X48823500Y-49571667D02*
X48527167Y-49571667D01*
X48527167Y-48979000D01*
X47913333Y-48979000D01*
X47913333Y-49275334D01*
X47617000Y-49275334D01*
X47617000Y-48979000D01*
X47320667Y-48979000D01*
X47320667Y-49571667D01*
X47024333Y-49571667D01*
X47024333Y-48682667D01*
X48823500Y-48682667D01*
X48823500Y-49571667D01*
G36*
X141187499Y-44209928D02*
X141188078Y-44260253D01*
X141188682Y-44350474D01*
X141189308Y-44481624D01*
X141189539Y-44539292D01*
X141190496Y-44841399D01*
X141191198Y-45175873D01*
X141191644Y-45532751D01*
X141191835Y-45902066D01*
X141191771Y-46273855D01*
X141191451Y-46638152D01*
X141190876Y-46984993D01*
X141190046Y-47304413D01*
X141189539Y-47449709D01*
X141188906Y-47595904D01*
X141188293Y-47700799D01*
X141187705Y-47765423D01*
X141187144Y-47790809D01*
X141186616Y-47777989D01*
X141186124Y-47727994D01*
X141185671Y-47641856D01*
X141185263Y-47520606D01*
X141184902Y-47365277D01*
X141184594Y-47176899D01*
X141184341Y-46956505D01*
X141184148Y-46705127D01*
X141184019Y-46423795D01*
X141183958Y-46113543D01*
X141183953Y-45994500D01*
X141183989Y-45674049D01*
X141184094Y-45382146D01*
X141184264Y-45119824D01*
X141184496Y-44888113D01*
X141184785Y-44688045D01*
X141185127Y-44520653D01*
X141185518Y-44386967D01*
X141185955Y-44288021D01*
X141186434Y-44224844D01*
X141186949Y-44198469D01*
X141187499Y-44209928D01*
X141187499Y-44209928D01*
G37*
X141187499Y-44209928D02*
X141188078Y-44260253D01*
X141188682Y-44350474D01*
X141189308Y-44481624D01*
X141189539Y-44539292D01*
X141190496Y-44841399D01*
X141191198Y-45175873D01*
X141191644Y-45532751D01*
X141191835Y-45902066D01*
X141191771Y-46273855D01*
X141191451Y-46638152D01*
X141190876Y-46984993D01*
X141190046Y-47304413D01*
X141189539Y-47449709D01*
X141188906Y-47595904D01*
X141188293Y-47700799D01*
X141187705Y-47765423D01*
X141187144Y-47790809D01*
X141186616Y-47777989D01*
X141186124Y-47727994D01*
X141185671Y-47641856D01*
X141185263Y-47520606D01*
X141184902Y-47365277D01*
X141184594Y-47176899D01*
X141184341Y-46956505D01*
X141184148Y-46705127D01*
X141184019Y-46423795D01*
X141183958Y-46113543D01*
X141183953Y-45994500D01*
X141183989Y-45674049D01*
X141184094Y-45382146D01*
X141184264Y-45119824D01*
X141184496Y-44888113D01*
X141184785Y-44688045D01*
X141185127Y-44520653D01*
X141185518Y-44386967D01*
X141185955Y-44288021D01*
X141186434Y-44224844D01*
X141186949Y-44198469D01*
X141187499Y-44209928D01*
M02*
