  0
SECTION
  2
HEADER
  9
$ACADVER
  1
AC1014
  9
$HANDSEED
  5
FFFF
  9
$MEASUREMENT
 70
     1
  0
ENDSEC
  0
SECTION
  2
TABLES
  0
TABLE
  2
VPORT
  5
8
330
0
100
AcDbSymbolTable
 70
     4
  0
VPORT
  5
2E
330
8
100
AcDbSymbolTableRecord
100
AcDbViewportTableRecord
  2
*ACTIVE
 70
     0
 10
0.0
 20
0.0
 11
1.0
 21
1.0
 12
210.0
 22
148.5
 13
0.0
 23
0.0
 14
10.0
 24
10.0
 15
10.0
 25
10.0
 16
0.0
 26
0.0
 36
1.0
 17
0.0
 27
0.0
 37
0.0
 40
341.0
 41
1.24
 42
50.0
 43
0.0
 44
0.0
 50
0.0
 51
0.0
 71
     0
 72
   100
 73
     1
 74
     3
 75
     0
 76
     0
 77
     0
 78
     0
  0
ENDTAB
  0
TABLE
  2
LTYPE
  5
5
330
0
100
AcDbSymbolTable
 70
     1
  0
LTYPE
  5
14
330
5
100
AcDbSymbolTableRecord
100
AcDbLinetypeTableRecord
  2
BYBLOCK
 70
     0
  3

 72
    65
 73
     0
 40
0.0
  0
LTYPE
  5
15
330
5
100
AcDbSymbolTableRecord
100
AcDbLinetypeTableRecord
  2
BYLAYER
 70
     0
  3

 72
    65
 73
     0
 40
0.0
  0
LTYPE
  5
16
330
5
100
AcDbSymbolTableRecord
100
AcDbLinetypeTableRecord
  2
CONTINUOUS
 70
     0
  3
Solid line
 72
    65
 73
     0
 40
0.0
  0
ENDTAB
  0
TABLE
  2
LAYER
  5
2
100
AcDbSymbolTable
 70
2
  0
LAYER
  5
50
100
AcDbSymbolTableRecord
100
AcDbLayerTableRecord
  2
0
 70
0
  6
CONTINUOUS
  0
LAYER
  5
51
100
AcDbSymbolTableRecord
100
AcDbLayerTableRecord
  2
Layer_1
 70
0
  6
CONTINUOUS
  0
ENDTAB
  0
TABLE
  2
STYLE
  5
3
330
0
100
AcDbSymbolTable
 70
     1
  0
STYLE
  5
11
330
3
100
AcDbSymbolTableRecord
100
AcDbTextStyleTableRecord
  2
STANDARD
 70
     0
 40
0.0
 41
1.0
 50
0.0
 71
     0
 42
2.5
  3
txt
  4

  0
ENDTAB
  0
TABLE
  2
VIEW
  5
6
330
0
100
AcDbSymbolTable
 70
     0
  0
ENDTAB
  0
TABLE
  2
UCS
  5
7
330
0
100
AcDbSymbolTable
 70
     0
  0
ENDTAB
  0
TABLE
  2
APPID
  5
9
330
0
100
AcDbSymbolTable
 70
     2
  0
APPID
  5
12
330
9
100
AcDbSymbolTableRecord
100
AcDbRegAppTableRecord
  2
ACAD
 70
     0
  0
ENDTAB
  0
TABLE
  2
DIMSTYLE
  5
A
330
0
100
AcDbSymbolTable
 70
     1
  0
DIMSTYLE
105
27
330
A
100
AcDbSymbolTableRecord
100
AcDbDimStyleTableRecord
  2
ISO-25
 70
     0
  3

  4

  5

  6

  7

 40
1.0
 41
2.5
 42
0.625
 43
3.75
 44
1.25
 45
0.0
 46
0.0
 47
0.0
 48
0.0
140
2.5
141
2.5
142
0.0
143
0.03937007874016
144
1.0
145
0.0
146
1.0
147
0.625
 71
     0
 72
     0
 73
     0
 74
     0
 75
     0
 76
     0
 77
     1
 78
     8
170
     0
171
     3
172
     1
173
     0
174
     0
175
     0
176
     0
177
     0
178
     0
270
     2
271
     2
272
     2
273
     2
274
     3
340
11
275
     0
280
     0
281
     0
282
     0
283
     0
284
     8
285
     0
286
     0
287
     3
288
     0
  0
ENDTAB
  0
TABLE
  2
BLOCK_RECORD
  5
1
330
0
100
AcDbSymbolTable
 70
     1
  0
BLOCK_RECORD
  5
1F
330
1
100
AcDbSymbolTableRecord
100
AcDbBlockTableRecord
  2
*MODEL_SPACE
  0
BLOCK_RECORD
  5
1B
330
1
100
AcDbSymbolTableRecord
100
AcDbBlockTableRecord
  2
*PAPER_SPACE
  0
ENDTAB
  0
ENDSEC
  0
SECTION
  2
BLOCKS
  0
BLOCK
  5
20
330
1F
100
AcDbEntity
  8
0
100
AcDbBlockBegin
  2
*MODEL_SPACE
 70
     0
 10
0.0
 20
0.0
 30
0.0
  3
*MODEL_SPACE
  1

  0
ENDBLK
  5
21
330
1F
100
AcDbEntity
  8
0
100
AcDbBlockEnd
  0
BLOCK
  5
1C
330
1B
100
AcDbEntity
 67
     1
  8
0
100
AcDbBlockBegin
  2
*PAPER_SPACE
  1

  0
ENDBLK
  5
1D
330
1B
100
AcDbEntity
 67
     1
  8
0
100
AcDbBlockEnd
  0
ENDSEC
  0
SECTION
  2
ENTITIES
  0
LWPOLYLINE
  5
100
100
AcDbEntity
  8
Layer_1
 62
1
100
AcDbPolyline
 90
209
 70
1
 10
15.514883
 20
64.856930
 30
0.0
 10
15.514883
 20
64.735044
 30
0.0
 10
15.514883
 20
64.613155
 30
0.0
 10
15.514883
 20
64.491269
 30
0.0
 10
15.514883
 20
64.369380
 30
0.0
 10
15.514883
 20
64.247494
 30
0.0
 10
15.514883
 20
64.125605
 30
0.0
 10
15.514883
 20
64.003716
 30
0.0
 10
15.514883
 20
63.881830
 30
0.0
 10
14.131125
 20
63.881830
 30
0.0
 10
12.747370
 20
63.881830
 30
0.0
 10
11.363611
 20
63.881830
 30
0.0
 10
9.979853
 20
63.881830
 30
0.0
 10
8.596097
 20
63.881830
 30
0.0
 10
7.212339
 20
63.881830
 30
0.0
 10
5.828584
 20
63.881830
 30
0.0
 10
4.444826
 20
63.881830
 30
0.0
 10
3.684578
 20
63.801470
 30
0.0
 10
2.980566
 20
63.572043
 30
0.0
 10
2.346698
 20
63.211022
 30
0.0
 10
1.796887
 20
62.735887
 30
0.0
 10
1.345041
 20
62.164113
 30
0.0
 10
1.005073
 20
61.513179
 30
0.0
 10
0.790889
 20
60.800553
 30
0.0
 10
0.716405
 20
60.043721
 30
0.0
 10
0.716405
 20
59.879253
 30
0.0
 10
0.716405
 20
59.714782
 30
0.0
 10
0.716405
 20
59.550315
 30
0.0
 10
0.716405
 20
59.385847
 30
0.0
 10
0.716405
 20
59.221376
 30
0.0
 10
0.716405
 20
59.056908
 30
0.0
 10
0.716405
 20
58.892435
 30
0.0
 10
0.716405
 20
58.727970
 30
0.0
 10
0.716405
 20
58.705025
 30
0.0
 10
0.716405
 20
58.682080
 30
0.0
 10
0.716405
 20
58.659136
 30
0.0
 10
0.716405
 20
58.636191
 30
0.0
 10
0.716405
 20
58.613246
 30
0.0
 10
0.716405
 20
58.590302
 30
0.0
 10
0.716405
 20
58.567357
 30
0.0
 10
0.716405
 20
58.544412
 30
0.0
 10
0.633101
 20
58.434721
 30
0.0
 10
0.549800
 20
58.325027
 30
0.0
 10
0.466497
 20
58.215338
 30
0.0
 10
0.383196
 20
58.105644
 30
0.0
 10
0.299893
 20
57.995950
 30
0.0
 10
0.216589
 20
57.886262
 30
0.0
 10
0.133288
 20
57.776568
 30
0.0
 10
0.049985
 20
57.666879
 30
0.0
 10
0.053428
 20
55.827061
 30
0.0
 10
0.056871
 20
53.987240
 30
0.0
 10
0.060314
 20
52.147422
 30
0.0
 10
0.063757
 20
50.307602
 30
0.0
 10
0.067200
 20
48.467784
 30
0.0
 10
0.070644
 20
46.627963
 30
0.0
 10
0.074087
 20
44.788142
 30
0.0
 10
0.077530
 20
42.948324
 30
0.0
 10
0.173923
 20
42.821203
 30
0.0
 10
0.270316
 20
42.694076
 30
0.0
 10
0.366712
 20
42.566952
 30
0.0
 10
0.463105
 20
42.439833
 30
0.0
 10
0.559498
 20
42.312706
 30
0.0
 10
0.655893
 20
42.185582
 30
0.0
 10
0.752286
 20
42.058461
 30
0.0
 10
0.848679
 20
41.931334
 30
0.0
 10
0.848679
 20
41.749780
 30
0.0
 10
0.848679
 20
41.568221
 30
0.0
 10
0.848679
 20
41.386664
 30
0.0
 10
0.848679
 20
41.205111
 30
0.0
 10
0.848679
 20
41.023549
 30
0.0
 10
0.848679
 20
40.841992
 30
0.0
 10
0.848679
 20
40.660439
 30
0.0
 10
0.848679
 20
40.478880
 30
0.0
 10
0.848679
 20
35.896765
 30
0.0
 10
0.848679
 20
31.314650
 30
0.0
 10
0.848679
 20
26.732535
 30
0.0
 10
0.848679
 20
22.150420
 30
0.0
 10
0.848679
 20
17.568306
 30
0.0
 10
0.848679
 20
12.986191
 30
0.0
 10
0.848679
 20
8.404067
 30
0.0
 10
0.848679
 20
3.821964
 30
0.0
 10
0.848679
 20
3.821738
 30
0.0
 10
0.848679
 20
3.821540
 30
0.0
 10
0.848679
 20
3.821315
 30
0.0
 10
0.848679
 20
3.821117
 30
0.0
 10
0.848679
 20
3.820891
 30
0.0
 10
0.848679
 20
3.820694
 30
0.0
 10
0.848679
 20
3.820468
 30
0.0
 10
0.848679
 20
3.820270
 30
0.0
 10
0.920909
 20
3.084066
 30
0.0
 10
1.123951
 20
2.387428
 30
0.0
 10
1.446299
 20
1.748449
 30
0.0
 10
1.876445
 20
1.185133
 30
0.0
 10
2.402877
 20
0.715572
 30
0.0
 10
3.014089
 20
0.357827
 30
0.0
 10
3.698568
 20
0.129933
 30
0.0
 10
4.444809
 20
0.049951
 30
0.0
 10
15.721504
 20
0.049951
 30
0.0
 10
26.998195
 20
0.049951
 30
0.0
 10
38.274889
 20
0.049951
 30
0.0
 10
49.551580
 20
0.049951
 30
0.0
 10
60.828274
 20
0.049951
 30
0.0
 10
72.104968
 20
0.049951
 30
0.0
 10
83.381660
 20
0.049951
 30
0.0
 10
94.658354
 20
0.049951
 30
0.0
 10
95.409875
 20
0.127872
 30
0.0
 10
96.108197
 20
0.350772
 30
0.0
 10
96.738839
 20
0.702449
 30
0.0
 10
97.287307
 20
1.166676
 30
0.0
 10
97.739117
 20
1.727198
 30
0.0
 10
98.079776
 20
2.367757
 30
0.0
 10
98.294795
 20
3.072156
 30
0.0
 10
98.369689
 20
3.824109
 30
0.0
 10
98.369689
 20
8.498076
 30
0.0
 10
98.369689
 20
13.172051
 30
0.0
 10
98.369689
 20
17.846012
 30
0.0
 10
98.369689
 20
22.519971
 30
0.0
 10
98.369689
 20
27.193932
 30
0.0
 10
98.369689
 20
31.867893
 30
0.0
 10
98.369689
 20
36.541854
 30
0.0
 10
98.369689
 20
41.215816
 30
0.0
 10
98.369689
 20
41.310558
 30
0.0
 10
98.369689
 20
41.405300
 30
0.0
 10
98.369689
 20
41.500039
 30
0.0
 10
98.369689
 20
41.594778
 30
0.0
 10
98.369689
 20
41.689520
 30
0.0
 10
98.369689
 20
41.784259
 30
0.0
 10
98.369689
 20
41.878998
 30
0.0
 10
98.369689
 20
41.973737
 30
0.0
 10
98.451268
 20
42.100932
 30
0.0
 10
98.532847
 20
42.228127
 30
0.0
 10
98.614429
 20
42.355319
 30
0.0
 10
98.696008
 20
42.482511
 30
0.0
 10
98.777587
 20
42.609703
 30
0.0
 10
98.859166
 20
42.736897
 30
0.0
 10
98.940748
 20
42.864092
 30
0.0
 10
99.022328
 20
42.991284
 30
0.0
 10
99.025771
 20
44.825246
 30
0.0
 10
99.029214
 20
46.659208
 30
0.0
 10
99.032657
 20
48.493170
 30
0.0
 10
99.036100
 20
50.327131
 30
0.0
 10
99.039543
 20
52.161093
 30
0.0
 10
99.042986
 20
53.995055
 30
0.0
 10
99.046429
 20
55.829017
 30
0.0
 10
99.049872
 20
57.662979
 30
0.0
 10
98.967672
 20
57.772741
 30
0.0
 10
98.885472
 20
57.882500
 30
0.0
 10
98.803272
 20
57.992262
 30
0.0
 10
98.721072
 20
58.102021
 30
0.0
 10
98.638872
 20
58.211782
 30
0.0
 10
98.556672
 20
58.321542
 30
0.0
 10
98.474472
 20
58.431303
 30
0.0
 10
98.392269
 20
58.541062
 30
0.0
 10
98.392269
 20
58.577102
 30
0.0
 10
98.392269
 20
58.613134
 30
0.0
 10
98.392269
 20
58.649170
 30
0.0
 10
98.392269
 20
58.685207
 30
0.0
 10
98.392269
 20
58.721242
 30
0.0
 10
98.392269
 20
58.757279
 30
0.0
 10
98.392269
 20
58.793315
 30
0.0
 10
98.392269
 20
58.829350
 30
0.0
 10
98.392269
 20
58.980384
 30
0.0
 10
98.392269
 20
59.131418
 30
0.0
 10
98.392269
 20
59.282452
 30
0.0
 10
98.392269
 20
59.433480
 30
0.0
 10
98.392269
 20
59.584514
 30
0.0
 10
98.392269
 20
59.735551
 30
0.0
 10
98.392269
 20
59.886582
 30
0.0
 10
98.392269
 20
60.037614
 30
0.0
 10
98.321225
 20
60.797528
 30
0.0
 10
98.108131
 20
61.512109
 30
0.0
 10
97.767474
 20
62.164102
 30
0.0
 10
97.313763
 20
62.736251
 30
0.0
 10
96.761499
 20
63.211296
 30
0.0
 10
96.125173
 20
63.571981
 30
0.0
 10
95.419287
 20
63.801047
 30
0.0
 10
94.658337
 20
63.881237
 30
0.0
 10
93.287671
 20
63.881237
 30
0.0
 10
91.917005
 20
63.881237
 30
0.0
 10
90.546339
 20
63.881237
 30
0.0
 10
89.175676
 20
63.881237
 30
0.0
 10
87.805010
 20
63.881237
 30
0.0
 10
86.434344
 20
63.881237
 30
0.0
 10
85.063679
 20
63.881237
 30
0.0
 10
83.693013
 20
63.881237
 30
0.0
 10
83.693013
 20
64.003194
 30
0.0
 10
83.693013
 20
64.125151
 30
0.0
 10
83.693013
 20
64.247108
 30
0.0
 10
83.693013
 20
64.369064
 30
0.0
 10
83.693013
 20
64.491021
 30
0.0
 10
83.693013
 20
64.612978
 30
0.0
 10
83.693013
 20
64.734931
 30
0.0
 10
83.693013
 20
64.856888
 30
0.0
 10
75.170743
 20
64.856888
 30
0.0
 10
66.648473
 20
64.856888
 30
0.0
 10
58.126202
 20
64.856888
 30
0.0
 10
49.603932
 20
64.856888
 30
0.0
 10
41.081659
 20
64.856888
 30
0.0
 10
32.559389
 20
64.856888
 30
0.0
 10
24.037119
 20
64.856888
 30
0.0
 10
15.514849
 20
64.856888
 30
0.0
 10
15.514846
 20
64.856894
 30
0.0
 10
15.514844
 20
64.856899
 30
0.0
 10
15.514841
 20
64.856902
 30
0.0
 10
15.514838
 20
64.856908
 30
0.0
 10
15.514835
 20
64.856914
 30
0.0
 10
15.514832
 20
64.856919
 30
0.0
 10
15.514829
 20
64.856922
 30
0.0
 10
15.514883
 20
64.856930
 30
0.0
  0
ENDSEC
  0
SECTION
  2
OBJECTS
  0
DICTIONARY
  5
C
330
0
100
AcDbDictionary
  3
ACAD_GROUP
350
D
  3
ACAD_MLINESTYLE
350
17
  0
DICTIONARY
  5
D
330
C
100
AcDbDictionary
  0
DICTIONARY
  5
1A
330
C
100
AcDbDictionary
  0
DICTIONARY
  5
17
330
C
100
AcDbDictionary
  3
STANDARD
350
18
  0
DICTIONARY
  5
19
330
C
100
AcDbDictionary
  0
ENDSEC
  0
EOF
