  0
SECTION
  2
HEADER
  9
$ACADVER
  1
AC1014
  9
$HANDSEED
  5
FFFF
  9
$MEASUREMENT
 70
     1
  0
ENDSEC
  0
SECTION
  2
TABLES
  0
TABLE
  2
VPORT
  5
8
330
0
100
AcDbSymbolTable
 70
     4
  0
VPORT
  5
2E
330
8
100
AcDbSymbolTableRecord
100
AcDbViewportTableRecord
  2
*ACTIVE
 70
     0
 10
0.0
 20
0.0
 11
1.0
 21
1.0
 12
210.0
 22
148.5
 13
0.0
 23
0.0
 14
10.0
 24
10.0
 15
10.0
 25
10.0
 16
0.0
 26
0.0
 36
1.0
 17
0.0
 27
0.0
 37
0.0
 40
341.0
 41
1.24
 42
50.0
 43
0.0
 44
0.0
 50
0.0
 51
0.0
 71
     0
 72
   100
 73
     1
 74
     3
 75
     0
 76
     0
 77
     0
 78
     0
  0
ENDTAB
  0
TABLE
  2
LTYPE
  5
5
330
0
100
AcDbSymbolTable
 70
     1
  0
LTYPE
  5
14
330
5
100
AcDbSymbolTableRecord
100
AcDbLinetypeTableRecord
  2
BYBLOCK
 70
     0
  3

 72
    65
 73
     0
 40
0.0
  0
LTYPE
  5
15
330
5
100
AcDbSymbolTableRecord
100
AcDbLinetypeTableRecord
  2
BYLAYER
 70
     0
  3

 72
    65
 73
     0
 40
0.0
  0
LTYPE
  5
16
330
5
100
AcDbSymbolTableRecord
100
AcDbLinetypeTableRecord
  2
CONTINUOUS
 70
     0
  3
Solid line
 72
    65
 73
     0
 40
0.0
  0
ENDTAB
  0
TABLE
  2
LAYER
  5
2
100
AcDbSymbolTable
 70
2
  0
LAYER
  5
50
100
AcDbSymbolTableRecord
100
AcDbLayerTableRecord
  2
0
 70
0
  6
CONTINUOUS
  0
LAYER
  5
51
100
AcDbSymbolTableRecord
100
AcDbLayerTableRecord
  2
Layer_1
 70
0
  6
CONTINUOUS
  0
ENDTAB
  0
TABLE
  2
STYLE
  5
3
330
0
100
AcDbSymbolTable
 70
     1
  0
STYLE
  5
11
330
3
100
AcDbSymbolTableRecord
100
AcDbTextStyleTableRecord
  2
STANDARD
 70
     0
 40
0.0
 41
1.0
 50
0.0
 71
     0
 42
2.5
  3
txt
  4

  0
ENDTAB
  0
TABLE
  2
VIEW
  5
6
330
0
100
AcDbSymbolTable
 70
     0
  0
ENDTAB
  0
TABLE
  2
UCS
  5
7
330
0
100
AcDbSymbolTable
 70
     0
  0
ENDTAB
  0
TABLE
  2
APPID
  5
9
330
0
100
AcDbSymbolTable
 70
     2
  0
APPID
  5
12
330
9
100
AcDbSymbolTableRecord
100
AcDbRegAppTableRecord
  2
ACAD
 70
     0
  0
ENDTAB
  0
TABLE
  2
DIMSTYLE
  5
A
330
0
100
AcDbSymbolTable
 70
     1
  0
DIMSTYLE
105
27
330
A
100
AcDbSymbolTableRecord
100
AcDbDimStyleTableRecord
  2
ISO-25
 70
     0
  3

  4

  5

  6

  7

 40
1.0
 41
2.5
 42
0.625
 43
3.75
 44
1.25
 45
0.0
 46
0.0
 47
0.0
 48
0.0
140
2.5
141
2.5
142
0.0
143
0.03937007874016
144
1.0
145
0.0
146
1.0
147
0.625
 71
     0
 72
     0
 73
     0
 74
     0
 75
     0
 76
     0
 77
     1
 78
     8
170
     0
171
     3
172
     1
173
     0
174
     0
175
     0
176
     0
177
     0
178
     0
270
     2
271
     2
272
     2
273
     2
274
     3
340
11
275
     0
280
     0
281
     0
282
     0
283
     0
284
     8
285
     0
286
     0
287
     3
288
     0
  0
ENDTAB
  0
TABLE
  2
BLOCK_RECORD
  5
1
330
0
100
AcDbSymbolTable
 70
     1
  0
BLOCK_RECORD
  5
1F
330
1
100
AcDbSymbolTableRecord
100
AcDbBlockTableRecord
  2
*MODEL_SPACE
  0
BLOCK_RECORD
  5
1B
330
1
100
AcDbSymbolTableRecord
100
AcDbBlockTableRecord
  2
*PAPER_SPACE
  0
ENDTAB
  0
ENDSEC
  0
SECTION
  2
BLOCKS
  0
BLOCK
  5
20
330
1F
100
AcDbEntity
  8
0
100
AcDbBlockBegin
  2
*MODEL_SPACE
 70
     0
 10
0.0
 20
0.0
 30
0.0
  3
*MODEL_SPACE
  1

  0
ENDBLK
  5
21
330
1F
100
AcDbEntity
  8
0
100
AcDbBlockEnd
  0
BLOCK
  5
1C
330
1B
100
AcDbEntity
 67
     1
  8
0
100
AcDbBlockBegin
  2
*PAPER_SPACE
  1

  0
ENDBLK
  5
1D
330
1B
100
AcDbEntity
 67
     1
  8
0
100
AcDbBlockEnd
  0
ENDSEC
  0
SECTION
  2
ENTITIES
  0
LWPOLYLINE
  5
100
100
AcDbEntity
  8
Layer_1
 62
1
100
AcDbPolyline
 90
33
 70
1
 10
34.465854
 20
29.460247
 30
0.0
 10
34.350468
 20
28.315647
 30
0.0
 10
34.019537
 20
27.249561
 30
0.0
 10
33.495899
 20
26.284829
 30
0.0
 10
32.802391
 20
25.444290
 30
0.0
 10
31.961854
 20
24.750782
 30
0.0
 10
30.997123
 20
24.227144
 30
0.0
 10
29.931037
 20
23.896213
 30
0.0
 10
28.786437
 20
23.780827
 30
0.0
 10
27.641836
 20
23.896213
 30
0.0
 10
26.575750
 20
24.227144
 30
0.0
 10
25.611019
 20
24.750782
 30
0.0
 10
24.770479
 20
25.444290
 30
0.0
 10
24.076972
 20
26.284829
 30
0.0
 10
23.553334
 20
27.249561
 30
0.0
 10
23.222403
 20
28.315647
 30
0.0
 10
23.107016
 20
29.460247
 30
0.0
 10
23.222403
 20
30.604847
 30
0.0
 10
23.553334
 20
31.670933
 30
0.0
 10
24.076972
 20
32.635665
 30
0.0
 10
24.770479
 20
33.476201
 30
0.0
 10
25.611019
 20
34.169709
 30
0.0
 10
26.575750
 20
34.693347
 30
0.0
 10
27.641836
 20
35.024278
 30
0.0
 10
28.786437
 20
35.139664
 30
0.0
 10
29.931037
 20
35.024278
 30
0.0
 10
30.997123
 20
34.693347
 30
0.0
 10
31.961852
 20
34.169709
 30
0.0
 10
32.802391
 20
33.476201
 30
0.0
 10
33.495899
 20
32.635662
 30
0.0
 10
34.019537
 20
31.670933
 30
0.0
 10
34.350468
 20
30.604847
 30
0.0
 10
34.465854
 20
29.460247
 30
0.0
  0
LWPOLYLINE
  5
101
100
AcDbEntity
  8
Layer_1
 62
1
100
AcDbPolyline
 90
33
 70
1
 10
75.992842
 20
29.460247
 30
0.0
 10
75.877455
 20
28.315647
 30
0.0
 10
75.546524
 20
27.249561
 30
0.0
 10
75.022886
 20
26.284829
 30
0.0
 10
74.329379
 20
25.444290
 30
0.0
 10
73.488839
 20
24.750782
 30
0.0
 10
72.524108
 20
24.227144
 30
0.0
 10
71.458022
 20
23.896213
 30
0.0
 10
70.313422
 20
23.780827
 30
0.0
 10
69.168821
 20
23.896213
 30
0.0
 10
68.102735
 20
24.227144
 30
0.0
 10
67.138004
 20
24.750782
 30
0.0
 10
66.297467
 20
25.444290
 30
0.0
 10
65.603960
 20
26.284829
 30
0.0
 10
65.080322
 20
27.249561
 30
0.0
 10
64.749391
 20
28.315647
 30
0.0
 10
64.634004
 20
29.460247
 30
0.0
 10
64.749391
 20
30.604847
 30
0.0
 10
65.080322
 20
31.670933
 30
0.0
 10
65.603960
 20
32.635662
 30
0.0
 10
66.297467
 20
33.476201
 30
0.0
 10
67.138007
 20
34.169709
 30
0.0
 10
68.102735
 20
34.693347
 30
0.0
 10
69.168821
 20
35.024278
 30
0.0
 10
70.313422
 20
35.139664
 30
0.0
 10
71.458022
 20
35.024278
 30
0.0
 10
72.524108
 20
34.693347
 30
0.0
 10
73.488839
 20
34.169709
 30
0.0
 10
74.329379
 20
33.476201
 30
0.0
 10
75.022886
 20
32.635665
 30
0.0
 10
75.546524
 20
31.670933
 30
0.0
 10
75.877455
 20
30.604847
 30
0.0
 10
75.992842
 20
29.460247
 30
0.0
  0
LWPOLYLINE
  5
102
100
AcDbEntity
  8
Layer_1
 62
1
100
AcDbPolyline
 90
225
 70
1
 10
31.344950
 20
33.632694
 30
0.0
 10
31.086782
 20
33.771352
 30
0.0
 10
30.829249
 20
33.889857
 30
0.0
 10
30.581604
 20
33.982912
 30
0.0
 10
30.353092
 20
34.045212
 30
0.0
 10
30.152965
 20
34.071459
 30
0.0
 10
29.990473
 20
34.056360
 30
0.0
 10
29.874866
 20
33.994607
 30
0.0
 10
29.815396
 20
33.880900
 30
0.0
 10
29.783576
 20
33.721907
 30
0.0
 10
29.751755
 20
33.562917
 30
0.0
 10
29.719935
 20
33.403924
 30
0.0
 10
29.688114
 20
33.244932
 30
0.0
 10
29.656294
 20
33.085942
 30
0.0
 10
29.624473
 20
32.926949
 30
0.0
 10
29.592652
 20
32.767959
 30
0.0
 10
29.560832
 20
32.608966
 30
0.0
 10
29.411243
 20
32.633520
 30
0.0
 10
29.260872
 20
32.650792
 30
0.0
 10
29.109982
 20
32.660811
 30
0.0
 10
28.958829
 20
32.663633
 30
0.0
 10
28.807680
 20
32.659117
 30
0.0
 10
28.656792
 20
32.647320
 30
0.0
 10
28.506430
 20
32.628270
 30
0.0
 10
28.356852
 20
32.601967
 30
0.0
 10
28.324873
 20
32.761894
 30
0.0
 10
28.292892
 20
32.921824
 30
0.0
 10
28.260913
 20
33.081751
 30
0.0
 10
28.228935
 20
33.241677
 30
0.0
 10
28.196956
 20
33.401604
 30
0.0
 10
28.164975
 20
33.561534
 30
0.0
 10
28.132996
 20
33.721461
 30
0.0
 10
28.101018
 20
33.881388
 30
0.0
 10
27.925930
 20
34.056843
 30
0.0
 10
27.563277
 20
34.045667
 30
0.0
 10
27.087069
 20
33.890255
 30
0.0
 10
26.571322
 20
33.633010
 30
0.0
 10
26.090043
 20
33.316322
 30
0.0
 10
25.717239
 20
32.982589
 30
0.0
 10
25.526925
 20
32.674205
 30
0.0
 10
25.593112
 20
32.433571
 30
0.0
 10
25.716347
 20
32.325245
 30
0.0
 10
25.839582
 20
32.216917
 30
0.0
 10
25.962820
 20
32.108589
 30
0.0
 10
26.086055
 20
32.000264
 30
0.0
 10
26.209291
 20
31.891938
 30
0.0
 10
26.332526
 20
31.783610
 30
0.0
 10
26.455764
 20
31.675282
 30
0.0
 10
26.578999
 20
31.566957
 30
0.0
 10
26.530180
 20
31.509372
 30
0.0
 10
26.482755
 20
31.450673
 30
0.0
 10
26.436739
 20
31.390881
 30
0.0
 10
26.392156
 20
31.330026
 30
0.0
 10
26.349022
 20
31.268131
 30
0.0
 10
26.307357
 20
31.205224
 30
0.0
 10
26.267177
 20
31.141332
 30
0.0
 10
26.228501
 20
31.076480
 30
0.0
 10
26.191810
 20
31.010581
 30
0.0
 10
26.156701
 20
30.943861
 30
0.0
 10
26.123187
 20
30.876353
 30
0.0
 10
26.091279
 20
30.808084
 30
0.0
 10
26.060994
 20
30.739080
 30
0.0
 10
26.032343
 20
30.669377
 30
0.0
 10
26.005334
 20
30.598999
 30
0.0
 10
25.979991
 20
30.527975
 30
0.0
 10
25.824433
 20
30.580503
 30
0.0
 10
25.668875
 20
30.633030
 30
0.0
 10
25.513316
 20
30.685557
 30
0.0
 10
25.357756
 20
30.738087
 30
0.0
 10
25.202197
 20
30.790614
 30
0.0
 10
25.046639
 20
30.843141
 30
0.0
 10
24.891081
 20
30.895669
 30
0.0
 10
24.735523
 20
30.948196
 30
0.0
 10
24.496030
 20
30.884335
 30
0.0
 10
24.324376
 20
30.564794
 30
0.0
 10
24.220852
 20
30.074845
 30
0.0
 10
24.185749
 20
29.499758
 30
0.0
 10
24.219359
 20
28.924798
 30
0.0
 10
24.321972
 20
28.435238
 30
0.0
 10
24.493876
 20
28.116344
 30
0.0
 10
24.735362
 20
28.053392
 30
0.0
 10
24.889682
 20
28.105546
 30
0.0
 10
25.044001
 20
28.157701
 30
0.0
 10
25.198320
 20
28.209856
 30
0.0
 10
25.352636
 20
28.262010
 30
0.0
 10
25.506955
 20
28.314165
 30
0.0
 10
25.661274
 20
28.366320
 30
0.0
 10
25.815593
 20
28.418474
 30
0.0
 10
25.969912
 20
28.470629
 30
0.0
 10
26.022036
 20
28.327808
 30
0.0
 10
26.080857
 20
28.187944
 30
0.0
 10
26.146236
 20
28.051269
 30
0.0
 10
26.218051
 20
27.918010
 30
0.0
 10
26.296170
 20
27.788393
 30
0.0
 10
26.380461
 20
27.662644
 30
0.0
 10
26.470795
 20
27.540995
 30
0.0
 10
26.567044
 20
27.423672
 30
0.0
 10
26.445262
 20
27.316619
 30
0.0
 10
26.323483
 20
27.209564
 30
0.0
 10
26.201702
 20
27.102512
 30
0.0
 10
26.079920
 20
26.995459
 30
0.0
 10
25.958141
 20
26.888404
 30
0.0
 10
25.836359
 20
26.781351
 30
0.0
 10
25.714580
 20
26.674296
 30
0.0
 10
25.592799
 20
26.567243
 30
0.0
 10
25.528379
 20
26.327902
 30
0.0
 10
25.719336
 20
26.019467
 30
0.0
 10
26.091957
 20
25.684825
 30
0.0
 10
26.572536
 20
25.366865
 30
0.0
 10
27.087357
 20
25.108476
 30
0.0
 10
27.562710
 20
24.952546
 30
0.0
 10
27.924883
 20
24.941962
 30
0.0
 10
28.100168
 20
25.119615
 30
0.0
 10
28.132034
 20
25.278687
 30
0.0
 10
28.163900
 20
25.437759
 30
0.0
 10
28.195768
 20
25.596831
 30
0.0
 10
28.227634
 20
25.755900
 30
0.0
 10
28.259500
 20
25.914971
 30
0.0
 10
28.291365
 20
26.074043
 30
0.0
 10
28.323234
 20
26.233115
 30
0.0
 10
28.355099
 20
26.392186
 30
0.0
 10
28.504889
 20
26.367548
 30
0.0
 10
28.655466
 20
26.350220
 30
0.0
 10
28.806565
 20
26.340173
 30
0.0
 10
28.957923
 20
26.337351
 30
0.0
 10
29.109285
 20
26.341866
 30
0.0
 10
29.260381
 20
26.353663
 30
0.0
 10
29.410952
 20
26.372741
 30
0.0
 10
29.560733
 20
26.399101
 30
0.0
 10
29.592712
 20
26.239174
 30
0.0
 10
29.624690
 20
26.079244
 30
0.0
 10
29.656672
 20
25.919318
 30
0.0
 10
29.688650
 20
25.759391
 30
0.0
 10
29.720629
 20
25.599464
 30
0.0
 10
29.752607
 20
25.439534
 30
0.0
 10
29.784589
 20
25.279607
 30
0.0
 10
29.816568
 20
25.119680
 30
0.0
 10
29.991830
 20
24.942024
 30
0.0
 10
30.353952
 20
24.952608
 30
0.0
 10
30.829229
 20
25.108521
 30
0.0
 10
31.343963
 20
25.366896
 30
0.0
 10
31.824452
 20
25.684839
 30
0.0
 10
32.196999
 20
26.019467
 30
0.0
 10
32.387903
 20
26.327893
 30
0.0
 10
32.323460
 20
26.567232
 30
0.0
 10
32.200143
 20
26.675605
 30
0.0
 10
32.076829
 20
26.783979
 30
0.0
 10
31.953512
 20
26.892352
 30
0.0
 10
31.830198
 20
27.000728
 30
0.0
 10
31.706881
 20
27.109101
 30
0.0
 10
31.583566
 20
27.217475
 30
0.0
 10
31.460249
 20
27.325848
 30
0.0
 10
31.336935
 20
27.434221
 30
0.0
 10
31.385754
 20
27.491806
 30
0.0
 10
31.433182
 20
27.550506
 30
0.0
 10
31.479195
 20
27.610294
 30
0.0
 10
31.523778
 20
27.671150
 30
0.0
 10
31.566913
 20
27.733044
 30
0.0
 10
31.608580
 20
27.795949
 30
0.0
 10
31.648760
 20
27.859841
 30
0.0
 10
31.687436
 20
27.924693
 30
0.0
 10
31.724187
 20
27.990665
 30
0.0
 10
31.759351
 20
28.057458
 30
0.0
 10
31.792919
 20
28.125045
 30
0.0
 10
31.824875
 20
28.193394
 30
0.0
 10
31.855203
 20
28.262479
 30
0.0
 10
31.883896
 20
28.332267
 30
0.0
 10
31.910933
 20
28.402729
 30
0.0
 10
31.936305
 20
28.473841
 30
0.0
 10
32.091942
 20
28.421265
 30
0.0
 10
32.247579
 20
28.368693
 30
0.0
 10
32.403216
 20
28.316118
 30
0.0
 10
32.558853
 20
28.263543
 30
0.0
 10
32.714493
 20
28.210970
 30
0.0
 10
32.870130
 20
28.158395
 30
0.0
 10
33.025767
 20
28.105823
 30
0.0
 10
33.181404
 20
28.053248
 30
0.0
 10
33.422876
 20
28.116220
 30
0.0
 10
33.594744
 20
28.435154
 30
0.0
 10
33.697304
 20
28.924773
 30
0.0
 10
33.730849
 20
29.499800
 30
0.0
 10
33.695678
 20
30.074958
 30
0.0
 10
33.592091
 20
30.564966
 30
0.0
 10
33.420379
 20
30.884546
 30
0.0
 10
33.180840
 20
30.948424
 30
0.0
 10
33.026521
 20
30.896270
 30
0.0
 10
32.872202
 20
30.844115
 30
0.0
 10
32.717883
 20
30.791958
 30
0.0
 10
32.563563
 20
30.739803
 30
0.0
 10
32.409244
 20
30.687648
 30
0.0
 10
32.254925
 20
30.635491
 30
0.0
 10
32.100606
 20
30.583336
 30
0.0
 10
31.946287
 20
30.531181
 30
0.0
 10
31.894031
 20
30.673853
 30
0.0
 10
31.835091
 20
30.813562
 30
0.0
 10
31.769599
 20
30.950081
 30
0.0
 10
31.697686
 20
31.083183
 30
0.0
 10
31.619482
 20
31.212638
 30
0.0
 10
31.535115
 20
31.338221
 30
0.0
 10
31.444716
 20
31.459707
 30
0.0
 10
31.348416
 20
31.576866
 30
0.0
 10
31.470195
 20
31.683918
 30
0.0
 10
31.591977
 20
31.790971
 30
0.0
 10
31.713758
 20
31.898023
 30
0.0
 10
31.835537
 20
32.005078
 30
0.0
 10
31.957316
 20
32.112131
 30
0.0
 10
32.079098
 20
32.219184
 30
0.0
 10
32.200877
 20
32.326236
 30
0.0
 10
32.322659
 20
32.433289
 30
0.0
 10
32.392452
 20
32.542489
 30
0.0
 10
32.388896
 20
32.673925
 30
0.0
 10
32.321225
 20
32.822301
 30
0.0
 10
32.198692
 20
32.982312
 30
0.0
 10
32.030544
 20
33.148660
 30
0.0
 10
31.826024
 20
33.316043
 30
0.0
 10
31.594378
 20
33.479159
 30
0.0
 10
31.344852
 20
33.632713
 30
0.0
 10
31.344863
 20
33.632713
 30
0.0
 10
31.344874
 20
33.632710
 30
0.0
 10
31.344886
 20
33.632710
 30
0.0
 10
31.344897
 20
33.632708
 30
0.0
 10
31.344911
 20
33.632708
 30
0.0
 10
31.344922
 20
33.632705
 30
0.0
 10
31.344934
 20
33.632702
 30
0.0
 10
31.344950
 20
33.632694
 30
0.0
  0
LWPOLYLINE
  5
103
100
AcDbEntity
  8
Layer_1
 62
1
100
AcDbPolyline
 90
225
 70
1
 10
72.638803
 20
33.632694
 30
0.0
 10
72.380634
 20
33.771352
 30
0.0
 10
72.123101
 20
33.889857
 30
0.0
 10
71.875457
 20
33.982912
 30
0.0
 10
71.646944
 20
34.045212
 30
0.0
 10
71.446818
 20
34.071459
 30
0.0
 10
71.284325
 20
34.056360
 30
0.0
 10
71.168719
 20
33.994607
 30
0.0
 10
71.109249
 20
33.880900
 30
0.0
 10
71.077428
 20
33.721907
 30
0.0
 10
71.045608
 20
33.562917
 30
0.0
 10
71.013787
 20
33.403924
 30
0.0
 10
70.981967
 20
33.244932
 30
0.0
 10
70.950146
 20
33.085942
 30
0.0
 10
70.918325
 20
32.926949
 30
0.0
 10
70.886505
 20
32.767959
 30
0.0
 10
70.854684
 20
32.608966
 30
0.0
 10
70.705095
 20
32.633520
 30
0.0
 10
70.554724
 20
32.650792
 30
0.0
 10
70.403834
 20
32.660811
 30
0.0
 10
70.252682
 20
32.663633
 30
0.0
 10
70.101532
 20
32.659117
 30
0.0
 10
69.950645
 20
32.647320
 30
0.0
 10
69.800282
 20
32.628270
 30
0.0
 10
69.650705
 20
32.601967
 30
0.0
 10
69.618726
 20
32.761894
 30
0.0
 10
69.586747
 20
32.921824
 30
0.0
 10
69.554766
 20
33.081751
 30
0.0
 10
69.522787
 20
33.241677
 30
0.0
 10
69.490809
 20
33.401604
 30
0.0
 10
69.458830
 20
33.561534
 30
0.0
 10
69.426849
 20
33.721461
 30
0.0
 10
69.394870
 20
33.881388
 30
0.0
 10
69.219782
 20
34.056843
 30
0.0
 10
68.857130
 20
34.045667
 30
0.0
 10
68.380922
 20
33.890255
 30
0.0
 10
67.865175
 20
33.633010
 30
0.0
 10
67.383896
 20
33.316322
 30
0.0
 10
67.011091
 20
32.982589
 30
0.0
 10
66.820778
 20
32.674205
 30
0.0
 10
66.886964
 20
32.433571
 30
0.0
 10
67.010200
 20
32.325245
 30
0.0
 10
67.133435
 20
32.216917
 30
0.0
 10
67.256673
 20
32.108589
 30
0.0
 10
67.379908
 20
32.000264
 30
0.0
 10
67.503143
 20
31.891938
 30
0.0
 10
67.626378
 20
31.783610
 30
0.0
 10
67.749616
 20
31.675282
 30
0.0
 10
67.872851
 20
31.566957
 30
0.0
 10
67.824033
 20
31.509372
 30
0.0
 10
67.776608
 20
31.450673
 30
0.0
 10
67.730592
 20
31.390881
 30
0.0
 10
67.686009
 20
31.330026
 30
0.0
 10
67.642874
 20
31.268131
 30
0.0
 10
67.601210
 20
31.205224
 30
0.0
 10
67.561030
 20
31.141332
 30
0.0
 10
67.522354
 20
31.076480
 30
0.0
 10
67.485662
 20
31.010581
 30
0.0
 10
67.450554
 20
30.943861
 30
0.0
 10
67.417040
 20
30.876353
 30
0.0
 10
67.385132
 20
30.808084
 30
0.0
 10
67.354847
 20
30.739080
 30
0.0
 10
67.326195
 20
30.669377
 30
0.0
 10
67.299187
 20
30.598999
 30
0.0
 10
67.273843
 20
30.527975
 30
0.0
 10
67.118285
 20
30.580503
 30
0.0
 10
66.962727
 20
30.633030
 30
0.0
 10
66.807169
 20
30.685557
 30
0.0
 10
66.651608
 20
30.738087
 30
0.0
 10
66.496050
 20
30.790614
 30
0.0
 10
66.340492
 20
30.843141
 30
0.0
 10
66.184934
 20
30.895669
 30
0.0
 10
66.029376
 20
30.948196
 30
0.0
 10
65.789882
 20
30.884335
 30
0.0
 10
65.618229
 20
30.564794
 30
0.0
 10
65.514704
 20
30.074845
 30
0.0
 10
65.479601
 20
29.499758
 30
0.0
 10
65.513211
 20
28.924798
 30
0.0
 10
65.615824
 20
28.435238
 30
0.0
 10
65.787729
 20
28.116344
 30
0.0
 10
66.029215
 20
28.053392
 30
0.0
 10
66.183534
 20
28.105546
 30
0.0
 10
66.337853
 20
28.157701
 30
0.0
 10
66.492172
 20
28.209856
 30
0.0
 10
66.646489
 20
28.262010
 30
0.0
 10
66.800808
 20
28.314165
 30
0.0
 10
66.955127
 20
28.366320
 30
0.0
 10
67.109446
 20
28.418474
 30
0.0
 10
67.263765
 20
28.470629
 30
0.0
 10
67.315889
 20
28.327808
 30
0.0
 10
67.374709
 20
28.187944
 30
0.0
 10
67.440089
 20
28.051269
 30
0.0
 10
67.511903
 20
27.918010
 30
0.0
 10
67.590022
 20
27.788393
 30
0.0
 10
67.674314
 20
27.662644
 30
0.0
 10
67.764647
 20
27.540995
 30
0.0
 10
67.860896
 20
27.423672
 30
0.0
 10
67.739115
 20
27.316619
 30
0.0
 10
67.617336
 20
27.209564
 30
0.0
 10
67.495554
 20
27.102512
 30
0.0
 10
67.373772
 20
26.995459
 30
0.0
 10
67.251993
 20
26.888404
 30
0.0
 10
67.130212
 20
26.781351
 30
0.0
 10
67.008433
 20
26.674296
 30
0.0
 10
66.886651
 20
26.567243
 30
0.0
 10
66.822231
 20
26.327902
 30
0.0
 10
67.013188
 20
26.019467
 30
0.0
 10
67.385809
 20
25.684825
 30
0.0
 10
67.866388
 20
25.366865
 30
0.0
 10
68.381210
 20
25.108476
 30
0.0
 10
68.856562
 20
24.952546
 30
0.0
 10
69.218735
 20
24.941962
 30
0.0
 10
69.394021
 20
25.119615
 30
0.0
 10
69.425886
 20
25.278687
 30
0.0
 10
69.457755
 20
25.437759
 30
0.0
 10
69.489621
 20
25.596831
 30
0.0
 10
69.521486
 20
25.755900
 30
0.0
 10
69.553352
 20
25.914971
 30
0.0
 10
69.585218
 20
26.074043
 30
0.0
 10
69.617086
 20
26.233115
 30
0.0
 10
69.648952
 20
26.392186
 30
0.0
 10
69.798741
 20
26.367548
 30
0.0
 10
69.949318
 20
26.350220
 30
0.0
 10
70.100417
 20
26.340173
 30
0.0
 10
70.251776
 20
26.337351
 30
0.0
 10
70.403137
 20
26.341866
 30
0.0
 10
70.554233
 20
26.353663
 30
0.0
 10
70.704805
 20
26.372741
 30
0.0
 10
70.854586
 20
26.399101
 30
0.0
 10
70.886564
 20
26.239174
 30
0.0
 10
70.918543
 20
26.079244
 30
0.0
 10
70.950524
 20
25.919318
 30
0.0
 10
70.982503
 20
25.759391
 30
0.0
 10
71.014481
 20
25.599464
 30
0.0
 10
71.046463
 20
25.439534
 30
0.0
 10
71.078441
 20
25.279607
 30
0.0
 10
71.110420
 20
25.119680
 30
0.0
 10
71.285683
 20
24.942024
 30
0.0
 10
71.647805
 20
24.952608
 30
0.0
 10
72.123081
 20
25.108521
 30
0.0
 10
72.637815
 20
25.366896
 30
0.0
 10
73.118304
 20
25.684839
 30
0.0
 10
73.490852
 20
26.019467
 30
0.0
 10
73.681755
 20
26.327893
 30
0.0
 10
73.617312
 20
26.567232
 30
0.0
 10
73.493998
 20
26.675605
 30
0.0
 10
73.370681
 20
26.783979
 30
0.0
 10
73.247364
 20
26.892352
 30
0.0
 10
73.124050
 20
27.000728
 30
0.0
 10
73.000733
 20
27.109101
 30
0.0
 10
72.877419
 20
27.217475
 30
0.0
 10
72.754105
 20
27.325848
 30
0.0
 10
72.630788
 20
27.434221
 30
0.0
 10
72.679607
 20
27.491806
 30
0.0
 10
72.727034
 20
27.550506
 30
0.0
 10
72.773048
 20
27.610294
 30
0.0
 10
72.817630
 20
27.671150
 30
0.0
 10
72.860765
 20
27.733044
 30
0.0
 10
72.902432
 20
27.795949
 30
0.0
 10
72.942612
 20
27.859841
 30
0.0
 10
72.981288
 20
27.924693
 30
0.0
 10
73.018039
 20
27.990665
 30
0.0
 10
73.053204
 20
28.057458
 30
0.0
 10
73.086771
 20
28.125045
 30
0.0
 10
73.118727
 20
28.193394
 30
0.0
 10
73.149055
 20
28.262479
 30
0.0
 10
73.177749
 20
28.332267
 30
0.0
 10
73.204785
 20
28.402729
 30
0.0
 10
73.230157
 20
28.473841
 30
0.0
 10
73.385794
 20
28.421265
 30
0.0
 10
73.541431
 20
28.368693
 30
0.0
 10
73.697068
 20
28.316118
 30
0.0
 10
73.852706
 20
28.263543
 30
0.0
 10
74.008345
 20
28.210970
 30
0.0
 10
74.163983
 20
28.158395
 30
0.0
 10
74.319620
 20
28.105823
 30
0.0
 10
74.475257
 20
28.053248
 30
0.0
 10
74.716729
 20
28.116220
 30
0.0
 10
74.888597
 20
28.435154
 30
0.0
 10
74.991156
 20
28.924773
 30
0.0
 10
75.024701
 20
29.499800
 30
0.0
 10
74.989531
 20
30.074958
 30
0.0
 10
74.885944
 20
30.564966
 30
0.0
 10
74.714231
 20
30.884546
 30
0.0
 10
74.474692
 20
30.948424
 30
0.0
 10
74.320373
 20
30.896270
 30
0.0
 10
74.166054
 20
30.844115
 30
0.0
 10
74.011735
 20
30.791958
 30
0.0
 10
73.857416
 20
30.739803
 30
0.0
 10
73.703097
 20
30.687648
 30
0.0
 10
73.548778
 20
30.635491
 30
0.0
 10
73.394459
 20
30.583336
 30
0.0
 10
73.240139
 20
30.531181
 30
0.0
 10
73.187883
 20
30.673853
 30
0.0
 10
73.128944
 20
30.813562
 30
0.0
 10
73.063451
 20
30.950081
 30
0.0
 10
72.991538
 20
31.083183
 30
0.0
 10
72.913335
 20
31.212638
 30
0.0
 10
72.828967
 20
31.338221
 30
0.0
 10
72.738568
 20
31.459707
 30
0.0
 10
72.642269
 20
31.576866
 30
0.0
 10
72.764050
 20
31.683918
 30
0.0
 10
72.885829
 20
31.790971
 30
0.0
 10
73.007611
 20
31.898023
 30
0.0
 10
73.129390
 20
32.005078
 30
0.0
 10
73.251169
 20
32.112131
 30
0.0
 10
73.372950
 20
32.219184
 30
0.0
 10
73.494729
 20
32.326236
 30
0.0
 10
73.616511
 20
32.433289
 30
0.0
 10
73.686305
 20
32.542489
 30
0.0
 10
73.682749
 20
32.673925
 30
0.0
 10
73.615077
 20
32.822301
 30
0.0
 10
73.492548
 20
32.982312
 30
0.0
 10
73.324400
 20
33.148660
 30
0.0
 10
73.119876
 20
33.316043
 30
0.0
 10
72.888234
 20
33.479159
 30
0.0
 10
72.638707
 20
33.632713
 30
0.0
 10
72.638718
 20
33.632713
 30
0.0
 10
72.638729
 20
33.632710
 30
0.0
 10
72.638741
 20
33.632710
 30
0.0
 10
72.638755
 20
33.632708
 30
0.0
 10
72.638766
 20
33.632708
 30
0.0
 10
72.638777
 20
33.632705
 30
0.0
 10
72.638789
 20
33.632702
 30
0.0
 10
72.638803
 20
33.632694
 30
0.0
  0
ENDSEC
  0
SECTION
  2
OBJECTS
  0
DICTIONARY
  5
C
330
0
100
AcDbDictionary
  3
ACAD_GROUP
350
D
  3
ACAD_MLINESTYLE
350
17
  0
DICTIONARY
  5
D
330
C
100
AcDbDictionary
  0
DICTIONARY
  5
1A
330
C
100
AcDbDictionary
  0
DICTIONARY
  5
17
330
C
100
AcDbDictionary
  3
STANDARD
350
18
  0
DICTIONARY
  5
19
330
C
100
AcDbDictionary
  0
ENDSEC
  0
EOF
