<?xml version="1.0" standalone="no"?>
<!DOCTYPE svg PUBLIC "-//W3C//DTD SVG 1.1//EN" "http://www.w3.org/Graphics/SVG/1.1/DTD/svg11.dtd">
<svg width="438" height="312" viewBox="0 -312 438 312" xmlns="http://www.w3.org/2000/svg" version="1.1">
<title>OpenSCAD Model</title>
<path d="
M 315.108,-250 L 327.6,-250 L 327.6,-245 L 410.4,-245 L 410.4,-250 L 422.892,-250
 L 422.892,-245 L 428.892,-245 L 428.892,-250 L 438,-250 L 438,-307 L 428.892,-307
 L 428.892,-312 L 422.892,-312 L 422.892,-307 L 315.108,-307 L 315.108,-312 L 309.108,-312
 L 309.108,-307 L 300,-307 L 300,-250 L 309.108,-250 L 309.108,-245 L 315.108,-245
 z
M 154,-256 L 0,-256 L 0,-250 L 154,-250 z
M 154,-244 L 0,-244 L 0,-238 L 154,-238 z
M 438,-221 L 433,-221 L 433,-219.75 L 430.5,-219.75 L 430.5,-225.25 L 433,-225.25
 L 433,-224 L 438,-224 L 438,-228.4 L 432,-228.4 L 432,-233.4 L 438,-233.4
 L 438,-240.4 L 300,-240.4 L 300,-233.4 L 306,-233.4 L 306,-228.4 L 300,-228.4
 L 300,-224 L 305,-224 L 305,-225.25 L 307.5,-225.25 L 307.5,-219.75 L 305,-219.75
 L 305,-221 L 300,-221 L 300,-200 L 438,-200 z
M 154,-232 L 0,-232 L 0,-226 L 154,-226 z
M 8.99208,-228.022 L 8.79326,-228.086 L 8.61221,-228.191 L 8.45685,-228.331 L 8.33397,-228.5 L 8.24893,-228.691
 L 8.20547,-228.895 L 8.20547,-229.105 L 8.24893,-229.309 L 8.33397,-229.5 L 8.45685,-229.669 L 8.61221,-229.809
 L 8.79326,-229.914 L 8.99208,-229.978 L 9.2,-230 L 9.4079,-229.978 L 9.60674,-229.914 L 9.78778,-229.809
 L 9.94313,-229.669 L 10.066,-229.5 L 10.151,-229.309 L 10.1945,-229.105 L 10.1945,-228.895 L 10.151,-228.691
 L 10.066,-228.5 L 9.94313,-228.331 L 9.78778,-228.191 L 9.60674,-228.086 L 9.4079,-228.022 L 9.2,-228
 z
M 77.9921,-228.022 L 77.7933,-228.086 L 77.6122,-228.191 L 77.4568,-228.331 L 77.334,-228.5 L 77.2489,-228.691
 L 77.2055,-228.895 L 77.2055,-229.105 L 77.2489,-229.309 L 77.334,-229.5 L 77.4568,-229.669 L 77.6122,-229.809
 L 77.7933,-229.914 L 77.9921,-229.978 L 78.2,-230 L 78.4079,-229.978 L 78.6067,-229.914 L 78.7878,-229.809
 L 78.9431,-229.669 L 79.066,-229.5 L 79.151,-229.309 L 79.1945,-229.105 L 79.1945,-228.895 L 79.151,-228.691
 L 79.066,-228.5 L 78.9431,-228.331 L 78.7878,-228.191 L 78.6067,-228.086 L 78.4079,-228.022 L 78.2,-228
 z
M 154,-220 L 0,-220 L 0,-214 L 154,-214 z
M 8.99208,-216.022 L 8.79326,-216.086 L 8.61221,-216.191 L 8.45685,-216.331 L 8.33397,-216.5 L 8.24893,-216.691
 L 8.20547,-216.895 L 8.20547,-217.105 L 8.24893,-217.309 L 8.33397,-217.5 L 8.45685,-217.669 L 8.61221,-217.809
 L 8.79326,-217.914 L 8.99208,-217.978 L 9.2,-218 L 9.4079,-217.978 L 9.60674,-217.914 L 9.78778,-217.809
 L 9.94313,-217.669 L 10.066,-217.5 L 10.151,-217.309 L 10.1945,-217.105 L 10.1945,-216.895 L 10.151,-216.691
 L 10.066,-216.5 L 9.94313,-216.331 L 9.78778,-216.191 L 9.60674,-216.086 L 9.4079,-216.022 L 9.2,-216
 z
M 77.9921,-216.022 L 77.7933,-216.086 L 77.6122,-216.191 L 77.4568,-216.331 L 77.334,-216.5 L 77.2489,-216.691
 L 77.2055,-216.895 L 77.2055,-217.105 L 77.2489,-217.309 L 77.334,-217.5 L 77.4568,-217.669 L 77.6122,-217.809
 L 77.7933,-217.914 L 77.9921,-217.978 L 78.2,-218 L 78.4079,-217.978 L 78.6067,-217.914 L 78.7878,-217.809
 L 78.9431,-217.669 L 79.066,-217.5 L 79.151,-217.309 L 79.1945,-217.105 L 79.1945,-216.895 L 79.151,-216.691
 L 79.066,-216.5 L 78.9431,-216.331 L 78.7878,-216.191 L 78.6067,-216.086 L 78.4079,-216.022 L 78.2,-216
 z
M 164,-205 L 0,-205 L 0,-160 L 164,-160 z
M 8.3432,-181.008 L 8.03647,-181.073 L 7.74998,-181.201 L 7.49629,-181.385 L 7.28647,-181.618 L 7.12967,-181.89
 L 7.03278,-182.188 L 7,-182.5 L 7.03278,-182.812 L 7.12967,-183.11 L 7.28647,-183.382 L 7.49629,-183.615
 L 7.75,-183.799 L 8.03647,-183.927 L 8.3432,-183.992 L 8.65678,-183.992 L 8.96352,-183.927 L 9.25,-183.799
 L 9.50369,-183.615 L 9.71352,-183.382 L 9.87032,-183.11 L 9.96721,-182.812 L 10,-182.5 L 9.96721,-182.188
 L 9.87032,-181.89 L 9.71352,-181.618 L 9.50369,-181.385 L 9.25,-181.201 L 8.96352,-181.073 L 8.65678,-181.008
 z
M 93.3432,-181.008 L 93.0365,-181.073 L 92.75,-181.201 L 92.4963,-181.385 L 92.2865,-181.618 L 92.1297,-181.89
 L 92.0328,-182.188 L 92,-182.5 L 92.0328,-182.812 L 92.1297,-183.11 L 92.2865,-183.382 L 92.4963,-183.615
 L 92.75,-183.799 L 93.0365,-183.927 L 93.3432,-183.992 L 93.6568,-183.992 L 93.9635,-183.927 L 94.25,-183.799
 L 94.5037,-183.615 L 94.7135,-183.382 L 94.8703,-183.11 L 94.9672,-182.812 L 95,-182.5 L 94.9672,-182.188
 L 94.8703,-181.89 L 94.7135,-181.618 L 94.5037,-181.385 L 94.25,-181.201 L 93.9635,-181.073 L 93.6568,-181.008
 z
M 155.343,-181.008 L 155.036,-181.073 L 154.75,-181.201 L 154.496,-181.385 L 154.286,-181.618 L 154.13,-181.89
 L 154.033,-182.188 L 154,-182.5 L 154.033,-182.812 L 154.13,-183.11 L 154.286,-183.382 L 154.496,-183.615
 L 154.75,-183.799 L 155.036,-183.927 L 155.343,-183.992 L 155.657,-183.992 L 155.964,-183.927 L 156.25,-183.799
 L 156.504,-183.615 L 156.714,-183.382 L 156.87,-183.11 L 156.967,-182.812 L 157,-182.5 L 156.967,-182.188
 L 156.87,-181.89 L 156.714,-181.618 L 156.504,-181.385 L 156.25,-181.201 L 155.964,-181.073 L 155.657,-181.008
 z
M 438,-171 L 433,-171 L 433,-169.75 L 430.5,-169.75 L 430.5,-175.25 L 433,-175.25
 L 433,-174 L 438,-174 L 438,-178.4 L 432,-178.4 L 432,-183.4 L 438,-183.4
 L 438,-192 L 300,-192 L 300,-183.4 L 306,-183.4 L 306,-178.4 L 300,-178.4
 L 300,-174 L 305,-174 L 305,-175.25 L 307.5,-175.25 L 307.5,-169.75 L 305,-169.75
 L 305,-171 L 300,-171 L 300,-150 L 438,-150 z
M 327.6,-165 L 327.6,-184.5 L 410.4,-184.5 L 410.4,-165 z
M 422.892,-165.8 L 422.892,-170.8 L 428.892,-170.8 L 428.892,-165.8 z
M 309.108,-165.8 L 309.108,-170.8 L 315.108,-170.8 L 315.108,-165.8 z
M 164,-145 L 0,-145 L 0,-100 L 164,-100 z
M 155.343,-121.008 L 155.036,-121.073 L 154.75,-121.201 L 154.496,-121.385 L 154.286,-121.618 L 154.13,-121.89
 L 154.033,-122.188 L 154,-122.5 L 154.033,-122.812 L 154.13,-123.11 L 154.286,-123.382 L 154.496,-123.615
 L 154.75,-123.799 L 155.036,-123.927 L 155.343,-123.992 L 155.657,-123.992 L 155.964,-123.927 L 156.25,-123.799
 L 156.504,-123.615 L 156.714,-123.382 L 156.87,-123.11 L 156.967,-122.812 L 157,-122.5 L 156.967,-122.188
 L 156.87,-121.89 L 156.714,-121.618 L 156.504,-121.385 L 156.25,-121.201 L 155.964,-121.073 L 155.657,-121.008
 z
M 93.3432,-121.008 L 93.0365,-121.073 L 92.75,-121.201 L 92.4963,-121.385 L 92.2865,-121.618 L 92.1297,-121.89
 L 92.0328,-122.188 L 92,-122.5 L 92.0328,-122.812 L 92.1297,-123.11 L 92.2865,-123.382 L 92.4963,-123.615
 L 92.75,-123.799 L 93.0365,-123.927 L 93.3432,-123.992 L 93.6568,-123.992 L 93.9635,-123.927 L 94.25,-123.799
 L 94.5037,-123.615 L 94.7135,-123.382 L 94.8703,-123.11 L 94.9672,-122.812 L 95,-122.5 L 94.9672,-122.188
 L 94.8703,-121.89 L 94.7135,-121.618 L 94.5037,-121.385 L 94.25,-121.201 L 93.9635,-121.073 L 93.6568,-121.008
 z
M 8.3432,-121.008 L 8.03647,-121.073 L 7.74998,-121.201 L 7.49629,-121.385 L 7.28647,-121.618 L 7.12967,-121.89
 L 7.03278,-122.188 L 7,-122.5 L 7.03278,-122.812 L 7.12967,-123.11 L 7.28647,-123.382 L 7.49629,-123.615
 L 7.75,-123.799 L 8.03647,-123.927 L 8.3432,-123.992 L 8.65678,-123.992 L 8.96352,-123.927 L 9.25,-123.799
 L 9.50369,-123.615 L 9.71352,-123.382 L 9.87032,-123.11 L 9.96721,-122.812 L 10,-122.5 L 9.96721,-122.188
 L 9.87032,-121.89 L 9.71352,-121.618 L 9.50369,-121.385 L 9.25,-121.201 L 8.96352,-121.073 L 8.65678,-121.008
 z
M 327.6,-127.15 L 410.4,-127.15 L 410.4,-106.9 L 438,-106.9 L 438,-121 L 433,-121
 L 433,-119.75 L 430.5,-119.75 L 430.5,-125.25 L 433,-125.25 L 433,-124 L 438,-124
 L 438,-128.4 L 432,-128.4 L 432,-133.4 L 438,-133.4 L 438,-140.4 L 300,-140.4
 L 300,-133.4 L 306,-133.4 L 306,-128.4 L 300,-128.4 L 300,-124 L 305,-124
 L 305,-125.25 L 307.5,-125.25 L 307.5,-119.75 L 305,-119.75 L 305,-121 L 300,-121
 L 300,-106.9 L 327.6,-106.9 z
M 309.108,-115.8 L 309.108,-120.8 L 315.108,-120.8 L 315.108,-115.8 z
M 422.892,-115.8 L 422.892,-120.8 L 428.892,-120.8 L 428.892,-115.8 z
M 138,-92 L 0,-92 L 0,-0 L 138,-0 z
M 134.895,-81.8055 L 134.691,-81.8489 L 134.5,-81.934 L 134.331,-82.0569 L 134.191,-82.2122 L 134.086,-82.3932
 L 134.022,-82.5921 L 134,-82.8 L 134.022,-83.0079 L 134.086,-83.2067 L 134.191,-83.3878 L 134.331,-83.5431
 L 134.5,-83.666 L 134.691,-83.7511 L 134.895,-83.7945 L 135.105,-83.7945 L 135.309,-83.7511 L 135.5,-83.666
 L 135.669,-83.5431 L 135.809,-83.3878 L 135.914,-83.2067 L 135.978,-83.0079 L 136,-82.8 L 135.978,-82.5921
 L 135.914,-82.3932 L 135.809,-82.2122 L 135.669,-82.0569 L 135.5,-81.934 L 135.309,-81.8489 L 135.105,-81.8055
 z
M 2.89546,-81.8055 L 2.69098,-81.8489 L 2.49998,-81.934 L 2.33086,-82.0569 L 2.19098,-82.2122 L 2.08644,-82.3932
 L 2.02185,-82.5921 L 2,-82.8 L 2.02185,-83.0079 L 2.08644,-83.2067 L 2.19098,-83.3878 L 2.33086,-83.5431
 L 2.5,-83.666 L 2.69098,-83.7511 L 2.89546,-83.7945 L 3.10452,-83.7945 L 3.30901,-83.7511 L 3.5,-83.666
 L 3.66913,-83.5431 L 3.80901,-83.3878 L 3.91354,-83.2067 L 3.97813,-83.0079 L 4,-82.8 L 3.97813,-82.5921
 L 3.91354,-82.3932 L 3.80901,-82.2122 L 3.66913,-82.0569 L 3.5,-81.934 L 3.30901,-81.8489 L 3.10452,-81.8055
 z
M 134.895,-8.20547 L 134.691,-8.24893 L 134.5,-8.33397 L 134.331,-8.45685 L 134.191,-8.61221 L 134.086,-8.79326
 L 134.022,-8.99208 L 134,-9.2 L 134.022,-9.4079 L 134.086,-9.60674 L 134.191,-9.78778 L 134.331,-9.94313
 L 134.5,-10.066 L 134.691,-10.151 L 134.895,-10.1945 L 135.105,-10.1945 L 135.309,-10.151 L 135.5,-10.066
 L 135.669,-9.94313 L 135.809,-9.78778 L 135.914,-9.60674 L 135.978,-9.4079 L 136,-9.2 L 135.978,-8.99208
 L 135.914,-8.79326 L 135.809,-8.61221 L 135.669,-8.45685 L 135.5,-8.33397 L 135.309,-8.24893 L 135.105,-8.20547
 z
M 2.89546,-8.20547 L 2.69098,-8.24893 L 2.49998,-8.33397 L 2.33086,-8.45685 L 2.19098,-8.61221 L 2.08644,-8.79326
 L 2.02185,-8.99208 L 2,-9.2 L 2.02185,-9.4079 L 2.08644,-9.60674 L 2.19098,-9.78778 L 2.33086,-9.94313
 L 2.5,-10.066 L 2.69098,-10.151 L 2.89546,-10.1945 L 3.10452,-10.1945 L 3.30901,-10.151 L 3.5,-10.066
 L 3.66913,-9.94313 L 3.80901,-9.78778 L 3.91354,-9.60674 L 3.97813,-9.4079 L 4,-9.2 L 3.97813,-8.99208
 L 3.91354,-8.79326 L 3.80901,-8.61221 L 3.66913,-8.45685 L 3.5,-8.33397 L 3.30901,-8.24893 L 3.10452,-8.20547
 z
M 438,-81.5 L 300,-81.5 L 300,-50 L 438,-50 z
M 346.477,-57.6274 L 345.455,-57.8447 L 344.5,-58.2699 L 343.654,-58.8843 L 342.955,-59.6611 L 342.432,-60.5663
 L 342.109,-61.5604 L 342,-62.6 L 342.109,-63.6396 L 342.432,-64.6337 L 342.955,-65.5389 L 343.654,-66.3157
 L 344.5,-66.9301 L 345.455,-67.3553 L 346.477,-67.5726 L 347.523,-67.5726 L 348.545,-67.3553 L 349.5,-66.9301
 L 350.346,-66.3157 L 351.045,-65.5389 L 351.568,-64.6337 L 351.891,-63.6396 L 352,-62.6 L 351.891,-61.5604
 L 351.568,-60.5663 L 351.045,-59.6611 L 350.346,-58.8843 L 349.5,-58.2699 L 348.545,-57.8447 L 347.523,-57.6274
 z
M 390.634,-59.1192 L 389.918,-59.2713 L 389.25,-59.5689 L 388.658,-59.999 L 388.168,-60.5427 L 387.803,-61.1764
 L 387.576,-61.8723 L 387.5,-62.6 L 387.576,-63.3277 L 387.803,-64.0236 L 388.168,-64.6572 L 388.658,-65.201
 L 389.25,-65.6311 L 389.918,-65.9287 L 390.634,-66.0808 L 391.366,-66.0808 L 392.082,-65.9287 L 392.75,-65.6311
 L 393.342,-65.201 L 393.832,-64.6572 L 394.197,-64.0236 L 394.424,-63.3277 L 394.5,-62.6 L 394.424,-61.8723
 L 394.197,-61.1764 L 393.832,-60.5427 L 393.342,-59.999 L 392.75,-59.5689 L 392.082,-59.2713 L 391.366,-59.1192
 z
M 378.634,-59.1192 L 377.918,-59.2713 L 377.25,-59.5689 L 376.658,-59.999 L 376.168,-60.5427 L 375.803,-61.1764
 L 375.576,-61.8723 L 375.5,-62.6 L 375.576,-63.3277 L 375.803,-64.0236 L 376.168,-64.6572 L 376.658,-65.201
 L 377.25,-65.6311 L 377.918,-65.9287 L 378.634,-66.0808 L 379.366,-66.0808 L 380.082,-65.9287 L 380.75,-65.6311
 L 381.342,-65.201 L 381.832,-64.6572 L 382.197,-64.0236 L 382.424,-63.3277 L 382.5,-62.6 L 382.424,-61.8723
 L 382.197,-61.1764 L 381.832,-60.5427 L 381.342,-59.999 L 380.75,-59.5689 L 380.082,-59.2713 L 379.366,-59.1192
 z
M 276,-65 L 150,-65 L 150,-0 L 276,-0 z
M 438,-36 L 300,-36 L 300,-0 L 438,-0 z
" stroke="black" fill="lightgray" stroke-width="0.5"/></svg>
