  0
SECTION
  2
BLOCKS
  0
ENDSEC
  0
SECTION
  2
ENTITIES
  0
LINE
  8
0
 10
317.108
 20
250
 11
327.6
 21
250
  0
LINE
  8
0
 10
327.6
 20
250
 11
327.6
 21
245
  0
LINE
  8
0
 10
327.6
 20
245
 11
410.4
 21
245
  0
LINE
  8
0
 10
410.4
 20
245
 11
410.4
 21
250
  0
LINE
  8
0
 10
410.4
 20
250
 11
420.892
 21
250
  0
LINE
  8
0
 10
420.892
 20
250
 11
420.892
 21
245
  0
LINE
  8
0
 10
420.892
 20
245
 11
428.892
 21
245
  0
LINE
  8
0
 10
428.892
 20
245
 11
428.892
 21
250
  0
LINE
  8
0
 10
428.892
 20
250
 11
438
 21
250
  0
LINE
  8
0
 10
438
 20
250
 11
438
 21
309
  0
LINE
  8
0
 10
438
 20
309
 11
428.892
 21
309
  0
LINE
  8
0
 10
428.892
 20
309
 11
428.892
 21
314
  0
LINE
  8
0
 10
428.892
 20
314
 11
420.892
 21
314
  0
LINE
  8
0
 10
420.892
 20
314
 11
420.892
 21
309
  0
LINE
  8
0
 10
420.892
 20
309
 11
317.108
 21
309
  0
LINE
  8
0
 10
317.108
 20
309
 11
317.108
 21
314
  0
LINE
  8
0
 10
317.108
 20
314
 11
309.108
 21
314
  0
LINE
  8
0
 10
309.108
 20
314
 11
309.108
 21
309
  0
LINE
  8
0
 10
309.108
 20
309
 11
300
 21
309
  0
LINE
  8
0
 10
300
 20
309
 11
300
 21
250
  0
LINE
  8
0
 10
300
 20
250
 11
309.108
 21
250
  0
LINE
  8
0
 10
309.108
 20
250
 11
309.108
 21
245
  0
LINE
  8
0
 10
309.108
 20
245
 11
317.108
 21
245
  0
LINE
  8
0
 10
317.108
 20
245
 11
317.108
 21
250
  0
LINE
  8
0
 10
160
 20
256
 11
0
 21
256
  0
LINE
  8
0
 10
0
 20
256
 11
0
 21
248
  0
LINE
  8
0
 10
0
 20
248
 11
160
 21
248
  0
LINE
  8
0
 10
160
 20
248
 11
160
 21
256
  0
LINE
  8
0
 10
438
 20
223.5
 11
434.667
 21
223.5
  0
LINE
  8
0
 10
434.667
 20
223.5
 11
434.667
 21
222.25
  0
LINE
  8
0
 10
434.667
 20
222.25
 11
432.167
 21
222.25
  0
LINE
  8
0
 10
432.167
 20
222.25
 11
432.167
 21
223.5
  0
LINE
  8
0
 10
432.167
 20
223.5
 11
429
 21
223.5
  0
LINE
  8
0
 10
429
 20
223.5
 11
429
 21
226.5
  0
LINE
  8
0
 10
429
 20
226.5
 11
432.167
 21
226.5
  0
LINE
  8
0
 10
432.167
 20
226.5
 11
432.167
 21
227.75
  0
LINE
  8
0
 10
432.167
 20
227.75
 11
434.667
 21
227.75
  0
LINE
  8
0
 10
434.667
 20
227.75
 11
434.667
 21
226.5
  0
LINE
  8
0
 10
434.667
 20
226.5
 11
438
 21
226.5
  0
LINE
  8
0
 10
438
 20
226.5
 11
438
 21
233.4
  0
LINE
  8
0
 10
438
 20
233.4
 11
430
 21
233.4
  0
LINE
  8
0
 10
430
 20
233.4
 11
430
 21
238.4
  0
LINE
  8
0
 10
430
 20
238.4
 11
438
 21
238.4
  0
LINE
  8
0
 10
438
 20
238.4
 11
438
 21
244.4
  0
LINE
  8
0
 10
438
 20
244.4
 11
300
 21
244.4
  0
LINE
  8
0
 10
300
 20
244.4
 11
300
 21
238.4
  0
LINE
  8
0
 10
300
 20
238.4
 11
308
 21
238.4
  0
LINE
  8
0
 10
308
 20
238.4
 11
308
 21
233.4
  0
LINE
  8
0
 10
308
 20
233.4
 11
300
 21
233.4
  0
LINE
  8
0
 10
300
 20
233.4
 11
300
 21
226.5
  0
LINE
  8
0
 10
300
 20
226.5
 11
303.333
 21
226.5
  0
LINE
  8
0
 10
303.333
 20
226.5
 11
303.333
 21
227.75
  0
LINE
  8
0
 10
303.333
 20
227.75
 11
305.833
 21
227.75
  0
LINE
  8
0
 10
305.833
 20
227.75
 11
305.833
 21
226.5
  0
LINE
  8
0
 10
305.833
 20
226.5
 11
309
 21
226.5
  0
LINE
  8
0
 10
309
 20
226.5
 11
309
 21
223.5
  0
LINE
  8
0
 10
309
 20
223.5
 11
305.833
 21
223.5
  0
LINE
  8
0
 10
305.833
 20
223.5
 11
305.833
 21
222.25
  0
LINE
  8
0
 10
305.833
 20
222.25
 11
303.333
 21
222.25
  0
LINE
  8
0
 10
303.333
 20
222.25
 11
303.333
 21
223.5
  0
LINE
  8
0
 10
303.333
 20
223.5
 11
300
 21
223.5
  0
LINE
  8
0
 10
300
 20
223.5
 11
300
 21
200
  0
LINE
  8
0
 10
300
 20
200
 11
438
 21
200
  0
LINE
  8
0
 10
438
 20
200
 11
438
 21
223.5
  0
LINE
  8
0
 10
160
 20
244
 11
0
 21
244
  0
LINE
  8
0
 10
0
 20
244
 11
0
 21
236
  0
LINE
  8
0
 10
0
 20
236
 11
160
 21
236
  0
LINE
  8
0
 10
160
 20
236
 11
160
 21
244
  0
LINE
  8
0
 10
160
 20
232
 11
0
 21
232
  0
LINE
  8
0
 10
0
 20
232
 11
0
 21
224
  0
LINE
  8
0
 10
0
 20
224
 11
160
 21
224
  0
LINE
  8
0
 10
160
 20
224
 11
160
 21
232
  0
LINE
  8
0
 10
84.2721
 20
227.022
 11
84.0733
 21
227.086
  0
LINE
  8
0
 10
84.0733
 20
227.086
 11
83.8922
 21
227.191
  0
LINE
  8
0
 10
83.8922
 20
227.191
 11
83.7368
 21
227.331
  0
LINE
  8
0
 10
83.7368
 20
227.331
 11
83.614
 21
227.5
  0
LINE
  8
0
 10
83.614
 20
227.5
 11
83.5289
 21
227.691
  0
LINE
  8
0
 10
83.5289
 20
227.691
 11
83.4855
 21
227.895
  0
LINE
  8
0
 10
83.4855
 20
227.895
 11
83.4855
 21
228.105
  0
LINE
  8
0
 10
83.4855
 20
228.105
 11
83.5289
 21
228.309
  0
LINE
  8
0
 10
83.5289
 20
228.309
 11
83.614
 21
228.5
  0
LINE
  8
0
 10
83.614
 20
228.5
 11
83.7368
 21
228.669
  0
LINE
  8
0
 10
83.7368
 20
228.669
 11
83.8922
 21
228.809
  0
LINE
  8
0
 10
83.8922
 20
228.809
 11
84.0733
 21
228.914
  0
LINE
  8
0
 10
84.0733
 20
228.914
 11
84.2721
 21
228.978
  0
LINE
  8
0
 10
84.2721
 20
228.978
 11
84.48
 21
229
  0
LINE
  8
0
 10
84.48
 20
229
 11
84.6879
 21
228.978
  0
LINE
  8
0
 10
84.6879
 20
228.978
 11
84.8867
 21
228.914
  0
LINE
  8
0
 10
84.8867
 20
228.914
 11
85.0678
 21
228.809
  0
LINE
  8
0
 10
85.0678
 20
228.809
 11
85.2231
 21
228.669
  0
LINE
  8
0
 10
85.2231
 20
228.669
 11
85.346
 21
228.5
  0
LINE
  8
0
 10
85.346
 20
228.5
 11
85.431
 21
228.309
  0
LINE
  8
0
 10
85.431
 20
228.309
 11
85.4745
 21
228.105
  0
LINE
  8
0
 10
85.4745
 20
228.105
 11
85.4745
 21
227.895
  0
LINE
  8
0
 10
85.4745
 20
227.895
 11
85.431
 21
227.691
  0
LINE
  8
0
 10
85.431
 20
227.691
 11
85.346
 21
227.5
  0
LINE
  8
0
 10
85.346
 20
227.5
 11
85.2231
 21
227.331
  0
LINE
  8
0
 10
85.2231
 20
227.331
 11
85.0678
 21
227.191
  0
LINE
  8
0
 10
85.0678
 20
227.191
 11
84.8867
 21
227.086
  0
LINE
  8
0
 10
84.8867
 20
227.086
 11
84.6879
 21
227.022
  0
LINE
  8
0
 10
84.6879
 20
227.022
 11
84.48
 21
227
  0
LINE
  8
0
 10
84.48
 20
227
 11
84.2721
 21
227.022
  0
LINE
  8
0
 10
9.39207
 20
227.022
 11
9.19325
 21
227.086
  0
LINE
  8
0
 10
9.19325
 20
227.086
 11
9.01221
 21
227.191
  0
LINE
  8
0
 10
9.01221
 20
227.191
 11
8.85684
 21
227.331
  0
LINE
  8
0
 10
8.85684
 20
227.331
 11
8.73396
 21
227.5
  0
LINE
  8
0
 10
8.73396
 20
227.5
 11
8.64894
 21
227.691
  0
LINE
  8
0
 10
8.64894
 20
227.691
 11
8.60547
 21
227.895
  0
LINE
  8
0
 10
8.60547
 20
227.895
 11
8.60547
 21
228.105
  0
LINE
  8
0
 10
8.60547
 20
228.105
 11
8.64894
 21
228.309
  0
LINE
  8
0
 10
8.64894
 20
228.309
 11
8.73396
 21
228.5
  0
LINE
  8
0
 10
8.73396
 20
228.5
 11
8.85684
 21
228.669
  0
LINE
  8
0
 10
8.85684
 20
228.669
 11
9.01221
 21
228.809
  0
LINE
  8
0
 10
9.01221
 20
228.809
 11
9.19325
 21
228.914
  0
LINE
  8
0
 10
9.19325
 20
228.914
 11
9.39207
 21
228.978
  0
LINE
  8
0
 10
9.39207
 20
228.978
 11
9.59999
 21
229
  0
LINE
  8
0
 10
9.59999
 20
229
 11
9.80791
 21
228.978
  0
LINE
  8
0
 10
9.80791
 20
228.978
 11
10.0067
 21
228.914
  0
LINE
  8
0
 10
10.0067
 20
228.914
 11
10.1878
 21
228.809
  0
LINE
  8
0
 10
10.1878
 20
228.809
 11
10.3431
 21
228.669
  0
LINE
  8
0
 10
10.3431
 20
228.669
 11
10.466
 21
228.5
  0
LINE
  8
0
 10
10.466
 20
228.5
 11
10.5511
 21
228.309
  0
LINE
  8
0
 10
10.5511
 20
228.309
 11
10.5945
 21
228.105
  0
LINE
  8
0
 10
10.5945
 20
228.105
 11
10.5945
 21
227.895
  0
LINE
  8
0
 10
10.5945
 20
227.895
 11
10.5511
 21
227.691
  0
LINE
  8
0
 10
10.5511
 20
227.691
 11
10.466
 21
227.5
  0
LINE
  8
0
 10
10.466
 20
227.5
 11
10.3431
 21
227.331
  0
LINE
  8
0
 10
10.3431
 20
227.331
 11
10.1878
 21
227.191
  0
LINE
  8
0
 10
10.1878
 20
227.191
 11
10.0067
 21
227.086
  0
LINE
  8
0
 10
10.0067
 20
227.086
 11
9.80791
 21
227.022
  0
LINE
  8
0
 10
9.80791
 20
227.022
 11
9.59999
 21
227
  0
LINE
  8
0
 10
9.59999
 20
227
 11
9.39207
 21
227.022
  0
LINE
  8
0
 10
150.512
 20
227.022
 11
150.313
 21
227.086
  0
LINE
  8
0
 10
150.313
 20
227.086
 11
150.132
 21
227.191
  0
LINE
  8
0
 10
150.132
 20
227.191
 11
149.977
 21
227.331
  0
LINE
  8
0
 10
149.977
 20
227.331
 11
149.854
 21
227.5
  0
LINE
  8
0
 10
149.854
 20
227.5
 11
149.769
 21
227.691
  0
LINE
  8
0
 10
149.769
 20
227.691
 11
149.725
 21
227.895
  0
LINE
  8
0
 10
149.725
 20
227.895
 11
149.725
 21
228.105
  0
LINE
  8
0
 10
149.725
 20
228.105
 11
149.769
 21
228.309
  0
LINE
  8
0
 10
149.769
 20
228.309
 11
149.854
 21
228.5
  0
LINE
  8
0
 10
149.854
 20
228.5
 11
149.977
 21
228.669
  0
LINE
  8
0
 10
149.977
 20
228.669
 11
150.132
 21
228.809
  0
LINE
  8
0
 10
150.132
 20
228.809
 11
150.313
 21
228.914
  0
LINE
  8
0
 10
150.313
 20
228.914
 11
150.512
 21
228.978
  0
LINE
  8
0
 10
150.512
 20
228.978
 11
150.72
 21
229
  0
LINE
  8
0
 10
150.72
 20
229
 11
150.928
 21
228.978
  0
LINE
  8
0
 10
150.928
 20
228.978
 11
151.127
 21
228.914
  0
LINE
  8
0
 10
151.127
 20
228.914
 11
151.308
 21
228.809
  0
LINE
  8
0
 10
151.308
 20
228.809
 11
151.463
 21
228.669
  0
LINE
  8
0
 10
151.463
 20
228.669
 11
151.586
 21
228.5
  0
LINE
  8
0
 10
151.586
 20
228.5
 11
151.671
 21
228.309
  0
LINE
  8
0
 10
151.671
 20
228.309
 11
151.715
 21
228.105
  0
LINE
  8
0
 10
151.715
 20
228.105
 11
151.715
 21
227.895
  0
LINE
  8
0
 10
151.715
 20
227.895
 11
151.671
 21
227.691
  0
LINE
  8
0
 10
151.671
 20
227.691
 11
151.586
 21
227.5
  0
LINE
  8
0
 10
151.586
 20
227.5
 11
151.463
 21
227.331
  0
LINE
  8
0
 10
151.463
 20
227.331
 11
151.308
 21
227.191
  0
LINE
  8
0
 10
151.308
 20
227.191
 11
151.127
 21
227.086
  0
LINE
  8
0
 10
151.127
 20
227.086
 11
150.928
 21
227.022
  0
LINE
  8
0
 10
150.928
 20
227.022
 11
150.72
 21
227
  0
LINE
  8
0
 10
150.72
 20
227
 11
150.512
 21
227.022
  0
LINE
  8
0
 10
160
 20
220
 11
0
 21
220
  0
LINE
  8
0
 10
0
 20
220
 11
0
 21
212
  0
LINE
  8
0
 10
0
 20
212
 11
160
 21
212
  0
LINE
  8
0
 10
160
 20
212
 11
160
 21
220
  0
LINE
  8
0
 10
9.39207
 20
215.022
 11
9.19325
 21
215.086
  0
LINE
  8
0
 10
9.19325
 20
215.086
 11
9.01221
 21
215.191
  0
LINE
  8
0
 10
9.01221
 20
215.191
 11
8.85684
 21
215.331
  0
LINE
  8
0
 10
8.85684
 20
215.331
 11
8.73396
 21
215.5
  0
LINE
  8
0
 10
8.73396
 20
215.5
 11
8.64894
 21
215.691
  0
LINE
  8
0
 10
8.64894
 20
215.691
 11
8.60547
 21
215.895
  0
LINE
  8
0
 10
8.60547
 20
215.895
 11
8.60547
 21
216.105
  0
LINE
  8
0
 10
8.60547
 20
216.105
 11
8.64894
 21
216.309
  0
LINE
  8
0
 10
8.64894
 20
216.309
 11
8.73396
 21
216.5
  0
LINE
  8
0
 10
8.73396
 20
216.5
 11
8.85684
 21
216.669
  0
LINE
  8
0
 10
8.85684
 20
216.669
 11
9.01221
 21
216.809
  0
LINE
  8
0
 10
9.01221
 20
216.809
 11
9.19325
 21
216.914
  0
LINE
  8
0
 10
9.19325
 20
216.914
 11
9.39207
 21
216.978
  0
LINE
  8
0
 10
9.39207
 20
216.978
 11
9.59999
 21
217
  0
LINE
  8
0
 10
9.59999
 20
217
 11
9.80791
 21
216.978
  0
LINE
  8
0
 10
9.80791
 20
216.978
 11
10.0067
 21
216.914
  0
LINE
  8
0
 10
10.0067
 20
216.914
 11
10.1878
 21
216.809
  0
LINE
  8
0
 10
10.1878
 20
216.809
 11
10.3431
 21
216.669
  0
LINE
  8
0
 10
10.3431
 20
216.669
 11
10.466
 21
216.5
  0
LINE
  8
0
 10
10.466
 20
216.5
 11
10.5511
 21
216.309
  0
LINE
  8
0
 10
10.5511
 20
216.309
 11
10.5945
 21
216.105
  0
LINE
  8
0
 10
10.5945
 20
216.105
 11
10.5945
 21
215.895
  0
LINE
  8
0
 10
10.5945
 20
215.895
 11
10.5511
 21
215.691
  0
LINE
  8
0
 10
10.5511
 20
215.691
 11
10.466
 21
215.5
  0
LINE
  8
0
 10
10.466
 20
215.5
 11
10.3431
 21
215.331
  0
LINE
  8
0
 10
10.3431
 20
215.331
 11
10.1878
 21
215.191
  0
LINE
  8
0
 10
10.1878
 20
215.191
 11
10.0067
 21
215.086
  0
LINE
  8
0
 10
10.0067
 20
215.086
 11
9.80791
 21
215.022
  0
LINE
  8
0
 10
9.80791
 20
215.022
 11
9.59999
 21
215
  0
LINE
  8
0
 10
9.59999
 20
215
 11
9.39207
 21
215.022
  0
LINE
  8
0
 10
84.2721
 20
215.022
 11
84.0733
 21
215.086
  0
LINE
  8
0
 10
84.0733
 20
215.086
 11
83.8922
 21
215.191
  0
LINE
  8
0
 10
83.8922
 20
215.191
 11
83.7368
 21
215.331
  0
LINE
  8
0
 10
83.7368
 20
215.331
 11
83.614
 21
215.5
  0
LINE
  8
0
 10
83.614
 20
215.5
 11
83.5289
 21
215.691
  0
LINE
  8
0
 10
83.5289
 20
215.691
 11
83.4855
 21
215.895
  0
LINE
  8
0
 10
83.4855
 20
215.895
 11
83.4855
 21
216.105
  0
LINE
  8
0
 10
83.4855
 20
216.105
 11
83.5289
 21
216.309
  0
LINE
  8
0
 10
83.5289
 20
216.309
 11
83.614
 21
216.5
  0
LINE
  8
0
 10
83.614
 20
216.5
 11
83.7368
 21
216.669
  0
LINE
  8
0
 10
83.7368
 20
216.669
 11
83.8922
 21
216.809
  0
LINE
  8
0
 10
83.8922
 20
216.809
 11
84.0733
 21
216.914
  0
LINE
  8
0
 10
84.0733
 20
216.914
 11
84.2721
 21
216.978
  0
LINE
  8
0
 10
84.2721
 20
216.978
 11
84.48
 21
217
  0
LINE
  8
0
 10
84.48
 20
217
 11
84.6879
 21
216.978
  0
LINE
  8
0
 10
84.6879
 20
216.978
 11
84.8867
 21
216.914
  0
LINE
  8
0
 10
84.8867
 20
216.914
 11
85.0678
 21
216.809
  0
LINE
  8
0
 10
85.0678
 20
216.809
 11
85.2231
 21
216.669
  0
LINE
  8
0
 10
85.2231
 20
216.669
 11
85.346
 21
216.5
  0
LINE
  8
0
 10
85.346
 20
216.5
 11
85.431
 21
216.309
  0
LINE
  8
0
 10
85.431
 20
216.309
 11
85.4745
 21
216.105
  0
LINE
  8
0
 10
85.4745
 20
216.105
 11
85.4745
 21
215.895
  0
LINE
  8
0
 10
85.4745
 20
215.895
 11
85.431
 21
215.691
  0
LINE
  8
0
 10
85.431
 20
215.691
 11
85.346
 21
215.5
  0
LINE
  8
0
 10
85.346
 20
215.5
 11
85.2231
 21
215.331
  0
LINE
  8
0
 10
85.2231
 20
215.331
 11
85.0678
 21
215.191
  0
LINE
  8
0
 10
85.0678
 20
215.191
 11
84.8867
 21
215.086
  0
LINE
  8
0
 10
84.8867
 20
215.086
 11
84.6879
 21
215.022
  0
LINE
  8
0
 10
84.6879
 20
215.022
 11
84.48
 21
215
  0
LINE
  8
0
 10
84.48
 20
215
 11
84.2721
 21
215.022
  0
LINE
  8
0
 10
150.512
 20
215.022
 11
150.313
 21
215.086
  0
LINE
  8
0
 10
150.313
 20
215.086
 11
150.132
 21
215.191
  0
LINE
  8
0
 10
150.132
 20
215.191
 11
149.977
 21
215.331
  0
LINE
  8
0
 10
149.977
 20
215.331
 11
149.854
 21
215.5
  0
LINE
  8
0
 10
149.854
 20
215.5
 11
149.769
 21
215.691
  0
LINE
  8
0
 10
149.769
 20
215.691
 11
149.725
 21
215.895
  0
LINE
  8
0
 10
149.725
 20
215.895
 11
149.725
 21
216.105
  0
LINE
  8
0
 10
149.725
 20
216.105
 11
149.769
 21
216.309
  0
LINE
  8
0
 10
149.769
 20
216.309
 11
149.854
 21
216.5
  0
LINE
  8
0
 10
149.854
 20
216.5
 11
149.977
 21
216.669
  0
LINE
  8
0
 10
149.977
 20
216.669
 11
150.132
 21
216.809
  0
LINE
  8
0
 10
150.132
 20
216.809
 11
150.313
 21
216.914
  0
LINE
  8
0
 10
150.313
 20
216.914
 11
150.512
 21
216.978
  0
LINE
  8
0
 10
150.512
 20
216.978
 11
150.72
 21
217
  0
LINE
  8
0
 10
150.72
 20
217
 11
150.928
 21
216.978
  0
LINE
  8
0
 10
150.928
 20
216.978
 11
151.127
 21
216.914
  0
LINE
  8
0
 10
151.127
 20
216.914
 11
151.308
 21
216.809
  0
LINE
  8
0
 10
151.308
 20
216.809
 11
151.463
 21
216.669
  0
LINE
  8
0
 10
151.463
 20
216.669
 11
151.586
 21
216.5
  0
LINE
  8
0
 10
151.586
 20
216.5
 11
151.671
 21
216.309
  0
LINE
  8
0
 10
151.671
 20
216.309
 11
151.715
 21
216.105
  0
LINE
  8
0
 10
151.715
 20
216.105
 11
151.715
 21
215.895
  0
LINE
  8
0
 10
151.715
 20
215.895
 11
151.671
 21
215.691
  0
LINE
  8
0
 10
151.671
 20
215.691
 11
151.586
 21
215.5
  0
LINE
  8
0
 10
151.586
 20
215.5
 11
151.463
 21
215.331
  0
LINE
  8
0
 10
151.463
 20
215.331
 11
151.308
 21
215.191
  0
LINE
  8
0
 10
151.308
 20
215.191
 11
151.127
 21
215.086
  0
LINE
  8
0
 10
151.127
 20
215.086
 11
150.928
 21
215.022
  0
LINE
  8
0
 10
150.928
 20
215.022
 11
150.72
 21
215
  0
LINE
  8
0
 10
150.72
 20
215
 11
150.512
 21
215.022
  0
LINE
  8
0
 10
170
 20
210
 11
0
 21
210
  0
LINE
  8
0
 10
0
 20
210
 11
0
 21
160
  0
LINE
  8
0
 10
0
 20
160
 11
170
 21
160
  0
LINE
  8
0
 10
170
 20
160
 11
170
 21
210
  0
LINE
  8
0
 10
162.343
 20
183.508
 11
162.036
 21
183.573
  0
LINE
  8
0
 10
162.036
 20
183.573
 11
161.75
 21
183.701
  0
LINE
  8
0
 10
161.75
 20
183.701
 11
161.496
 21
183.885
  0
LINE
  8
0
 10
161.496
 20
183.885
 11
161.286
 21
184.118
  0
LINE
  8
0
 10
161.286
 20
184.118
 11
161.13
 21
184.39
  0
LINE
  8
0
 10
161.13
 20
184.39
 11
161.033
 21
184.688
  0
LINE
  8
0
 10
161.033
 20
184.688
 11
161
 21
185
  0
LINE
  8
0
 10
161
 20
185
 11
161.033
 21
185.312
  0
LINE
  8
0
 10
161.033
 20
185.312
 11
161.13
 21
185.61
  0
LINE
  8
0
 10
161.13
 20
185.61
 11
161.286
 21
185.882
  0
LINE
  8
0
 10
161.286
 20
185.882
 11
161.496
 21
186.115
  0
LINE
  8
0
 10
161.496
 20
186.115
 11
161.75
 21
186.299
  0
LINE
  8
0
 10
161.75
 20
186.299
 11
162.036
 21
186.427
  0
LINE
  8
0
 10
162.036
 20
186.427
 11
162.343
 21
186.492
  0
LINE
  8
0
 10
162.343
 20
186.492
 11
162.657
 21
186.492
  0
LINE
  8
0
 10
162.657
 20
186.492
 11
162.964
 21
186.427
  0
LINE
  8
0
 10
162.964
 20
186.427
 11
163.25
 21
186.299
  0
LINE
  8
0
 10
163.25
 20
186.299
 11
163.504
 21
186.115
  0
LINE
  8
0
 10
163.504
 20
186.115
 11
163.714
 21
185.882
  0
LINE
  8
0
 10
163.714
 20
185.882
 11
163.87
 21
185.61
  0
LINE
  8
0
 10
163.87
 20
185.61
 11
163.967
 21
185.312
  0
LINE
  8
0
 10
163.967
 20
185.312
 11
164
 21
185
  0
LINE
  8
0
 10
164
 20
185
 11
163.967
 21
184.688
  0
LINE
  8
0
 10
163.967
 20
184.688
 11
163.87
 21
184.39
  0
LINE
  8
0
 10
163.87
 20
184.39
 11
163.714
 21
184.118
  0
LINE
  8
0
 10
163.714
 20
184.118
 11
163.504
 21
183.885
  0
LINE
  8
0
 10
163.504
 20
183.885
 11
163.25
 21
183.701
  0
LINE
  8
0
 10
163.25
 20
183.701
 11
162.964
 21
183.573
  0
LINE
  8
0
 10
162.964
 20
183.573
 11
162.657
 21
183.508
  0
LINE
  8
0
 10
162.657
 20
183.508
 11
162.343
 21
183.508
  0
LINE
  8
0
 10
98.3432
 20
183.508
 11
98.0365
 21
183.573
  0
LINE
  8
0
 10
98.0365
 20
183.573
 11
97.75
 21
183.701
  0
LINE
  8
0
 10
97.75
 20
183.701
 11
97.4963
 21
183.885
  0
LINE
  8
0
 10
97.4963
 20
183.885
 11
97.2865
 21
184.118
  0
LINE
  8
0
 10
97.2865
 20
184.118
 11
97.1297
 21
184.39
  0
LINE
  8
0
 10
97.1297
 20
184.39
 11
97.0328
 21
184.688
  0
LINE
  8
0
 10
97.0328
 20
184.688
 11
97
 21
185
  0
LINE
  8
0
 10
97
 20
185
 11
97.0328
 21
185.312
  0
LINE
  8
0
 10
97.0328
 20
185.312
 11
97.1297
 21
185.61
  0
LINE
  8
0
 10
97.1297
 20
185.61
 11
97.2865
 21
185.882
  0
LINE
  8
0
 10
97.2865
 20
185.882
 11
97.4963
 21
186.115
  0
LINE
  8
0
 10
97.4963
 20
186.115
 11
97.75
 21
186.299
  0
LINE
  8
0
 10
97.75
 20
186.299
 11
98.0365
 21
186.427
  0
LINE
  8
0
 10
98.0365
 20
186.427
 11
98.3432
 21
186.492
  0
LINE
  8
0
 10
98.3432
 20
186.492
 11
98.6568
 21
186.492
  0
LINE
  8
0
 10
98.6568
 20
186.492
 11
98.9635
 21
186.427
  0
LINE
  8
0
 10
98.9635
 20
186.427
 11
99.25
 21
186.299
  0
LINE
  8
0
 10
99.25
 20
186.299
 11
99.5037
 21
186.115
  0
LINE
  8
0
 10
99.5037
 20
186.115
 11
99.7135
 21
185.882
  0
LINE
  8
0
 10
99.7135
 20
185.882
 11
99.8703
 21
185.61
  0
LINE
  8
0
 10
99.8703
 20
185.61
 11
99.9672
 21
185.312
  0
LINE
  8
0
 10
99.9672
 20
185.312
 11
100
 21
185
  0
LINE
  8
0
 10
100
 20
185
 11
99.9672
 21
184.688
  0
LINE
  8
0
 10
99.9672
 20
184.688
 11
99.8703
 21
184.39
  0
LINE
  8
0
 10
99.8703
 20
184.39
 11
99.7135
 21
184.118
  0
LINE
  8
0
 10
99.7135
 20
184.118
 11
99.5037
 21
183.885
  0
LINE
  8
0
 10
99.5037
 20
183.885
 11
99.25
 21
183.701
  0
LINE
  8
0
 10
99.25
 20
183.701
 11
98.9635
 21
183.573
  0
LINE
  8
0
 10
98.9635
 20
183.573
 11
98.6568
 21
183.508
  0
LINE
  8
0
 10
98.6568
 20
183.508
 11
98.3432
 21
183.508
  0
LINE
  8
0
 10
7.3432
 20
183.508
 11
7.03647
 21
183.573
  0
LINE
  8
0
 10
7.03647
 20
183.573
 11
6.74998
 21
183.701
  0
LINE
  8
0
 10
6.74998
 20
183.701
 11
6.49629
 21
183.885
  0
LINE
  8
0
 10
6.49629
 20
183.885
 11
6.28647
 21
184.118
  0
LINE
  8
0
 10
6.28647
 20
184.118
 11
6.12967
 21
184.39
  0
LINE
  8
0
 10
6.12967
 20
184.39
 11
6.03278
 21
184.688
  0
LINE
  8
0
 10
6.03278
 20
184.688
 11
6
 21
185
  0
LINE
  8
0
 10
6
 20
185
 11
6.03278
 21
185.312
  0
LINE
  8
0
 10
6.03278
 20
185.312
 11
6.12967
 21
185.61
  0
LINE
  8
0
 10
6.12967
 20
185.61
 11
6.28647
 21
185.882
  0
LINE
  8
0
 10
6.28647
 20
185.882
 11
6.49629
 21
186.115
  0
LINE
  8
0
 10
6.49629
 20
186.115
 11
6.75
 21
186.299
  0
LINE
  8
0
 10
6.75
 20
186.299
 11
7.03647
 21
186.427
  0
LINE
  8
0
 10
7.03647
 20
186.427
 11
7.3432
 21
186.492
  0
LINE
  8
0
 10
7.3432
 20
186.492
 11
7.65678
 21
186.492
  0
LINE
  8
0
 10
7.65678
 20
186.492
 11
7.96352
 21
186.427
  0
LINE
  8
0
 10
7.96352
 20
186.427
 11
8.25
 21
186.299
  0
LINE
  8
0
 10
8.25
 20
186.299
 11
8.50369
 21
186.115
  0
LINE
  8
0
 10
8.50369
 20
186.115
 11
8.71352
 21
185.882
  0
LINE
  8
0
 10
8.71352
 20
185.882
 11
8.87032
 21
185.61
  0
LINE
  8
0
 10
8.87032
 20
185.61
 11
8.96721
 21
185.312
  0
LINE
  8
0
 10
8.96721
 20
185.312
 11
9
 21
185
  0
LINE
  8
0
 10
9
 20
185
 11
8.96721
 21
184.688
  0
LINE
  8
0
 10
8.96721
 20
184.688
 11
8.87032
 21
184.39
  0
LINE
  8
0
 10
8.87032
 20
184.39
 11
8.71352
 21
184.118
  0
LINE
  8
0
 10
8.71352
 20
184.118
 11
8.50369
 21
183.885
  0
LINE
  8
0
 10
8.50369
 20
183.885
 11
8.25
 21
183.701
  0
LINE
  8
0
 10
8.25
 20
183.701
 11
7.96352
 21
183.573
  0
LINE
  8
0
 10
7.96352
 20
183.573
 11
7.65678
 21
183.508
  0
LINE
  8
0
 10
7.65678
 20
183.508
 11
7.3432
 21
183.508
  0
LINE
  8
0
 10
438
 20
173.5
 11
434.667
 21
173.5
  0
LINE
  8
0
 10
434.667
 20
173.5
 11
434.667
 21
172.25
  0
LINE
  8
0
 10
434.667
 20
172.25
 11
432.167
 21
172.25
  0
LINE
  8
0
 10
432.167
 20
172.25
 11
432.167
 21
173.5
  0
LINE
  8
0
 10
432.167
 20
173.5
 11
429
 21
173.5
  0
LINE
  8
0
 10
429
 20
173.5
 11
429
 21
176.5
  0
LINE
  8
0
 10
429
 20
176.5
 11
432.167
 21
176.5
  0
LINE
  8
0
 10
432.167
 20
176.5
 11
432.167
 21
177.75
  0
LINE
  8
0
 10
432.167
 20
177.75
 11
434.667
 21
177.75
  0
LINE
  8
0
 10
434.667
 20
177.75
 11
434.667
 21
176.5
  0
LINE
  8
0
 10
434.667
 20
176.5
 11
438
 21
176.5
  0
LINE
  8
0
 10
438
 20
176.5
 11
438
 21
183.4
  0
LINE
  8
0
 10
438
 20
183.4
 11
430
 21
183.4
  0
LINE
  8
0
 10
430
 20
183.4
 11
430
 21
188.4
  0
LINE
  8
0
 10
430
 20
188.4
 11
438
 21
188.4
  0
LINE
  8
0
 10
438
 20
188.4
 11
438
 21
196
  0
LINE
  8
0
 10
438
 20
196
 11
300
 21
196
  0
LINE
  8
0
 10
300
 20
196
 11
300
 21
188.4
  0
LINE
  8
0
 10
300
 20
188.4
 11
308
 21
188.4
  0
LINE
  8
0
 10
308
 20
188.4
 11
308
 21
183.4
  0
LINE
  8
0
 10
308
 20
183.4
 11
300
 21
183.4
  0
LINE
  8
0
 10
300
 20
183.4
 11
300
 21
176.5
  0
LINE
  8
0
 10
300
 20
176.5
 11
303.333
 21
176.5
  0
LINE
  8
0
 10
303.333
 20
176.5
 11
303.333
 21
177.75
  0
LINE
  8
0
 10
303.333
 20
177.75
 11
305.833
 21
177.75
  0
LINE
  8
0
 10
305.833
 20
177.75
 11
305.833
 21
176.5
  0
LINE
  8
0
 10
305.833
 20
176.5
 11
309
 21
176.5
  0
LINE
  8
0
 10
309
 20
176.5
 11
309
 21
173.5
  0
LINE
  8
0
 10
309
 20
173.5
 11
305.833
 21
173.5
  0
LINE
  8
0
 10
305.833
 20
173.5
 11
305.833
 21
172.25
  0
LINE
  8
0
 10
305.833
 20
172.25
 11
303.333
 21
172.25
  0
LINE
  8
0
 10
303.333
 20
172.25
 11
303.333
 21
173.5
  0
LINE
  8
0
 10
303.333
 20
173.5
 11
300
 21
173.5
  0
LINE
  8
0
 10
300
 20
173.5
 11
300
 21
150
  0
LINE
  8
0
 10
300
 20
150
 11
438
 21
150
  0
LINE
  8
0
 10
438
 20
150
 11
438
 21
173.5
  0
LINE
  8
0
 10
327.6
 20
166.667
 11
327.6
 21
187.667
  0
LINE
  8
0
 10
327.6
 20
187.667
 11
410.4
 21
187.667
  0
LINE
  8
0
 10
410.4
 20
187.667
 11
410.4
 21
166.667
  0
LINE
  8
0
 10
410.4
 20
166.667
 11
327.6
 21
166.667
  0
LINE
  8
0
 10
309.108
 20
162.5
 11
309.108
 21
167.5
  0
LINE
  8
0
 10
309.108
 20
167.5
 11
317.108
 21
167.5
  0
LINE
  8
0
 10
317.108
 20
167.5
 11
317.108
 21
162.5
  0
LINE
  8
0
 10
317.108
 20
162.5
 11
309.108
 21
162.5
  0
LINE
  8
0
 10
420.892
 20
162.5
 11
420.892
 21
167.5
  0
LINE
  8
0
 10
420.892
 20
167.5
 11
428.892
 21
167.5
  0
LINE
  8
0
 10
428.892
 20
167.5
 11
428.892
 21
162.5
  0
LINE
  8
0
 10
428.892
 20
162.5
 11
420.892
 21
162.5
  0
LINE
  8
0
 10
170
 20
150
 11
0
 21
150
  0
LINE
  8
0
 10
0
 20
150
 11
0
 21
100
  0
LINE
  8
0
 10
0
 20
100
 11
170
 21
100
  0
LINE
  8
0
 10
170
 20
100
 11
170
 21
150
  0
LINE
  8
0
 10
7.3432
 20
123.508
 11
7.03647
 21
123.573
  0
LINE
  8
0
 10
7.03647
 20
123.573
 11
6.74998
 21
123.701
  0
LINE
  8
0
 10
6.74998
 20
123.701
 11
6.49629
 21
123.885
  0
LINE
  8
0
 10
6.49629
 20
123.885
 11
6.28647
 21
124.118
  0
LINE
  8
0
 10
6.28647
 20
124.118
 11
6.12967
 21
124.39
  0
LINE
  8
0
 10
6.12967
 20
124.39
 11
6.03278
 21
124.688
  0
LINE
  8
0
 10
6.03278
 20
124.688
 11
6
 21
125
  0
LINE
  8
0
 10
6
 20
125
 11
6.03278
 21
125.312
  0
LINE
  8
0
 10
6.03278
 20
125.312
 11
6.12967
 21
125.61
  0
LINE
  8
0
 10
6.12967
 20
125.61
 11
6.28647
 21
125.882
  0
LINE
  8
0
 10
6.28647
 20
125.882
 11
6.49629
 21
126.115
  0
LINE
  8
0
 10
6.49629
 20
126.115
 11
6.75
 21
126.299
  0
LINE
  8
0
 10
6.75
 20
126.299
 11
7.03647
 21
126.427
  0
LINE
  8
0
 10
7.03647
 20
126.427
 11
7.3432
 21
126.492
  0
LINE
  8
0
 10
7.3432
 20
126.492
 11
7.65678
 21
126.492
  0
LINE
  8
0
 10
7.65678
 20
126.492
 11
7.96352
 21
126.427
  0
LINE
  8
0
 10
7.96352
 20
126.427
 11
8.25
 21
126.299
  0
LINE
  8
0
 10
8.25
 20
126.299
 11
8.50369
 21
126.115
  0
LINE
  8
0
 10
8.50369
 20
126.115
 11
8.71352
 21
125.882
  0
LINE
  8
0
 10
8.71352
 20
125.882
 11
8.87032
 21
125.61
  0
LINE
  8
0
 10
8.87032
 20
125.61
 11
8.96721
 21
125.312
  0
LINE
  8
0
 10
8.96721
 20
125.312
 11
9
 21
125
  0
LINE
  8
0
 10
9
 20
125
 11
8.96721
 21
124.688
  0
LINE
  8
0
 10
8.96721
 20
124.688
 11
8.87032
 21
124.39
  0
LINE
  8
0
 10
8.87032
 20
124.39
 11
8.71352
 21
124.118
  0
LINE
  8
0
 10
8.71352
 20
124.118
 11
8.50369
 21
123.885
  0
LINE
  8
0
 10
8.50369
 20
123.885
 11
8.25
 21
123.701
  0
LINE
  8
0
 10
8.25
 20
123.701
 11
7.96352
 21
123.573
  0
LINE
  8
0
 10
7.96352
 20
123.573
 11
7.65678
 21
123.508
  0
LINE
  8
0
 10
7.65678
 20
123.508
 11
7.3432
 21
123.508
  0
LINE
  8
0
 10
98.3432
 20
123.508
 11
98.0365
 21
123.573
  0
LINE
  8
0
 10
98.0365
 20
123.573
 11
97.75
 21
123.701
  0
LINE
  8
0
 10
97.75
 20
123.701
 11
97.4963
 21
123.885
  0
LINE
  8
0
 10
97.4963
 20
123.885
 11
97.2865
 21
124.118
  0
LINE
  8
0
 10
97.2865
 20
124.118
 11
97.1297
 21
124.39
  0
LINE
  8
0
 10
97.1297
 20
124.39
 11
97.0328
 21
124.688
  0
LINE
  8
0
 10
97.0328
 20
124.688
 11
97
 21
125
  0
LINE
  8
0
 10
97
 20
125
 11
97.0328
 21
125.312
  0
LINE
  8
0
 10
97.0328
 20
125.312
 11
97.1297
 21
125.61
  0
LINE
  8
0
 10
97.1297
 20
125.61
 11
97.2865
 21
125.882
  0
LINE
  8
0
 10
97.2865
 20
125.882
 11
97.4963
 21
126.115
  0
LINE
  8
0
 10
97.4963
 20
126.115
 11
97.75
 21
126.299
  0
LINE
  8
0
 10
97.75
 20
126.299
 11
98.0365
 21
126.427
  0
LINE
  8
0
 10
98.0365
 20
126.427
 11
98.3432
 21
126.492
  0
LINE
  8
0
 10
98.3432
 20
126.492
 11
98.6568
 21
126.492
  0
LINE
  8
0
 10
98.6568
 20
126.492
 11
98.9635
 21
126.427
  0
LINE
  8
0
 10
98.9635
 20
126.427
 11
99.25
 21
126.299
  0
LINE
  8
0
 10
99.25
 20
126.299
 11
99.5037
 21
126.115
  0
LINE
  8
0
 10
99.5037
 20
126.115
 11
99.7135
 21
125.882
  0
LINE
  8
0
 10
99.7135
 20
125.882
 11
99.8703
 21
125.61
  0
LINE
  8
0
 10
99.8703
 20
125.61
 11
99.9672
 21
125.312
  0
LINE
  8
0
 10
99.9672
 20
125.312
 11
100
 21
125
  0
LINE
  8
0
 10
100
 20
125
 11
99.9672
 21
124.688
  0
LINE
  8
0
 10
99.9672
 20
124.688
 11
99.8703
 21
124.39
  0
LINE
  8
0
 10
99.8703
 20
124.39
 11
99.7135
 21
124.118
  0
LINE
  8
0
 10
99.7135
 20
124.118
 11
99.5037
 21
123.885
  0
LINE
  8
0
 10
99.5037
 20
123.885
 11
99.25
 21
123.701
  0
LINE
  8
0
 10
99.25
 20
123.701
 11
98.9635
 21
123.573
  0
LINE
  8
0
 10
98.9635
 20
123.573
 11
98.6568
 21
123.508
  0
LINE
  8
0
 10
98.6568
 20
123.508
 11
98.3432
 21
123.508
  0
LINE
  8
0
 10
162.343
 20
123.508
 11
162.036
 21
123.573
  0
LINE
  8
0
 10
162.036
 20
123.573
 11
161.75
 21
123.701
  0
LINE
  8
0
 10
161.75
 20
123.701
 11
161.496
 21
123.885
  0
LINE
  8
0
 10
161.496
 20
123.885
 11
161.286
 21
124.118
  0
LINE
  8
0
 10
161.286
 20
124.118
 11
161.13
 21
124.39
  0
LINE
  8
0
 10
161.13
 20
124.39
 11
161.033
 21
124.688
  0
LINE
  8
0
 10
161.033
 20
124.688
 11
161
 21
125
  0
LINE
  8
0
 10
161
 20
125
 11
161.033
 21
125.312
  0
LINE
  8
0
 10
161.033
 20
125.312
 11
161.13
 21
125.61
  0
LINE
  8
0
 10
161.13
 20
125.61
 11
161.286
 21
125.882
  0
LINE
  8
0
 10
161.286
 20
125.882
 11
161.496
 21
126.115
  0
LINE
  8
0
 10
161.496
 20
126.115
 11
161.75
 21
126.299
  0
LINE
  8
0
 10
161.75
 20
126.299
 11
162.036
 21
126.427
  0
LINE
  8
0
 10
162.036
 20
126.427
 11
162.343
 21
126.492
  0
LINE
  8
0
 10
162.343
 20
126.492
 11
162.657
 21
126.492
  0
LINE
  8
0
 10
162.657
 20
126.492
 11
162.964
 21
126.427
  0
LINE
  8
0
 10
162.964
 20
126.427
 11
163.25
 21
126.299
  0
LINE
  8
0
 10
163.25
 20
126.299
 11
163.504
 21
126.115
  0
LINE
  8
0
 10
163.504
 20
126.115
 11
163.714
 21
125.882
  0
LINE
  8
0
 10
163.714
 20
125.882
 11
163.87
 21
125.61
  0
LINE
  8
0
 10
163.87
 20
125.61
 11
163.967
 21
125.312
  0
LINE
  8
0
 10
163.967
 20
125.312
 11
164
 21
125
  0
LINE
  8
0
 10
164
 20
125
 11
163.967
 21
124.688
  0
LINE
  8
0
 10
163.967
 20
124.688
 11
163.87
 21
124.39
  0
LINE
  8
0
 10
163.87
 20
124.39
 11
163.714
 21
124.118
  0
LINE
  8
0
 10
163.714
 20
124.118
 11
163.504
 21
123.885
  0
LINE
  8
0
 10
163.504
 20
123.885
 11
163.25
 21
123.701
  0
LINE
  8
0
 10
163.25
 20
123.701
 11
162.964
 21
123.573
  0
LINE
  8
0
 10
162.964
 20
123.573
 11
162.657
 21
123.508
  0
LINE
  8
0
 10
162.657
 20
123.508
 11
162.343
 21
123.508
  0
LINE
  8
0
 10
327.6
 20
130.9
 11
410.4
 21
130.9
  0
LINE
  8
0
 10
410.4
 20
130.9
 11
410.4
 21
108.4
  0
LINE
  8
0
 10
410.4
 20
108.4
 11
438
 21
108.4
  0
LINE
  8
0
 10
438
 20
108.4
 11
438
 21
123.5
  0
LINE
  8
0
 10
438
 20
123.5
 11
434.667
 21
123.5
  0
LINE
  8
0
 10
434.667
 20
123.5
 11
434.667
 21
122.25
  0
LINE
  8
0
 10
434.667
 20
122.25
 11
432.167
 21
122.25
  0
LINE
  8
0
 10
432.167
 20
122.25
 11
432.167
 21
123.5
  0
LINE
  8
0
 10
432.167
 20
123.5
 11
429
 21
123.5
  0
LINE
  8
0
 10
429
 20
123.5
 11
429
 21
126.5
  0
LINE
  8
0
 10
429
 20
126.5
 11
432.167
 21
126.5
  0
LINE
  8
0
 10
432.167
 20
126.5
 11
432.167
 21
127.75
  0
LINE
  8
0
 10
432.167
 20
127.75
 11
434.667
 21
127.75
  0
LINE
  8
0
 10
434.667
 20
127.75
 11
434.667
 21
126.5
  0
LINE
  8
0
 10
434.667
 20
126.5
 11
438
 21
126.5
  0
LINE
  8
0
 10
438
 20
126.5
 11
438
 21
133.4
  0
LINE
  8
0
 10
438
 20
133.4
 11
430
 21
133.4
  0
LINE
  8
0
 10
430
 20
133.4
 11
430
 21
138.4
  0
LINE
  8
0
 10
430
 20
138.4
 11
438
 21
138.4
  0
LINE
  8
0
 10
438
 20
138.4
 11
438
 21
144.4
  0
LINE
  8
0
 10
438
 20
144.4
 11
300
 21
144.4
  0
LINE
  8
0
 10
300
 20
144.4
 11
300
 21
138.4
  0
LINE
  8
0
 10
300
 20
138.4
 11
308
 21
138.4
  0
LINE
  8
0
 10
308
 20
138.4
 11
308
 21
133.4
  0
LINE
  8
0
 10
308
 20
133.4
 11
300
 21
133.4
  0
LINE
  8
0
 10
300
 20
133.4
 11
300
 21
126.5
  0
LINE
  8
0
 10
300
 20
126.5
 11
303.333
 21
126.5
  0
LINE
  8
0
 10
303.333
 20
126.5
 11
303.333
 21
127.75
  0
LINE
  8
0
 10
303.333
 20
127.75
 11
305.833
 21
127.75
  0
LINE
  8
0
 10
305.833
 20
127.75
 11
305.833
 21
126.5
  0
LINE
  8
0
 10
305.833
 20
126.5
 11
309
 21
126.5
  0
LINE
  8
0
 10
309
 20
126.5
 11
309
 21
123.5
  0
LINE
  8
0
 10
309
 20
123.5
 11
305.833
 21
123.5
  0
LINE
  8
0
 10
305.833
 20
123.5
 11
305.833
 21
122.25
  0
LINE
  8
0
 10
305.833
 20
122.25
 11
303.333
 21
122.25
  0
LINE
  8
0
 10
303.333
 20
122.25
 11
303.333
 21
123.5
  0
LINE
  8
0
 10
303.333
 20
123.5
 11
300
 21
123.5
  0
LINE
  8
0
 10
300
 20
123.5
 11
300
 21
108.4
  0
LINE
  8
0
 10
300
 20
108.4
 11
327.6
 21
108.4
  0
LINE
  8
0
 10
327.6
 20
108.4
 11
327.6
 21
130.9
  0
LINE
  8
0
 10
420.892
 20
112.5
 11
420.892
 21
117.5
  0
LINE
  8
0
 10
420.892
 20
117.5
 11
428.892
 21
117.5
  0
LINE
  8
0
 10
428.892
 20
117.5
 11
428.892
 21
112.5
  0
LINE
  8
0
 10
428.892
 20
112.5
 11
420.892
 21
112.5
  0
LINE
  8
0
 10
309.108
 20
112.5
 11
309.108
 21
117.5
  0
LINE
  8
0
 10
309.108
 20
117.5
 11
317.108
 21
117.5
  0
LINE
  8
0
 10
317.108
 20
117.5
 11
317.108
 21
112.5
  0
LINE
  8
0
 10
317.108
 20
112.5
 11
309.108
 21
112.5
  0
LINE
  8
0
 10
138
 20
96
 11
0
 21
96
  0
LINE
  8
0
 10
0
 20
96
 11
0
 21
0
  0
LINE
  8
0
 10
0
 20
0
 11
138
 21
0
  0
LINE
  8
0
 10
138
 20
0
 11
138
 21
96
  0
LINE
  8
0
 10
438
 20
90
 11
300
 21
90
  0
LINE
  8
0
 10
300
 20
90
 11
300
 21
50
  0
LINE
  8
0
 10
300
 20
50
 11
438
 21
50
  0
LINE
  8
0
 10
438
 20
50
 11
438
 21
90
  0
LINE
  8
0
 10
346.477
 20
61.0274
 11
345.455
 21
61.2447
  0
LINE
  8
0
 10
345.455
 20
61.2447
 11
344.5
 21
61.6699
  0
LINE
  8
0
 10
344.5
 20
61.6699
 11
343.654
 21
62.2843
  0
LINE
  8
0
 10
343.654
 20
62.2843
 11
342.955
 21
63.0611
  0
LINE
  8
0
 10
342.955
 20
63.0611
 11
342.432
 21
63.9663
  0
LINE
  8
0
 10
342.432
 20
63.9663
 11
342.109
 21
64.9604
  0
LINE
  8
0
 10
342.109
 20
64.9604
 11
342
 21
66
  0
LINE
  8
0
 10
342
 20
66
 11
342.109
 21
67.0396
  0
LINE
  8
0
 10
342.109
 20
67.0396
 11
342.432
 21
68.0337
  0
LINE
  8
0
 10
342.432
 20
68.0337
 11
342.955
 21
68.9389
  0
LINE
  8
0
 10
342.955
 20
68.9389
 11
343.654
 21
69.7157
  0
LINE
  8
0
 10
343.654
 20
69.7157
 11
344.5
 21
70.3301
  0
LINE
  8
0
 10
344.5
 20
70.3301
 11
345.455
 21
70.7553
  0
LINE
  8
0
 10
345.455
 20
70.7553
 11
346.477
 21
70.9726
  0
LINE
  8
0
 10
346.477
 20
70.9726
 11
347.523
 21
70.9726
  0
LINE
  8
0
 10
347.523
 20
70.9726
 11
348.545
 21
70.7553
  0
LINE
  8
0
 10
348.545
 20
70.7553
 11
349.5
 21
70.3301
  0
LINE
  8
0
 10
349.5
 20
70.3301
 11
350.346
 21
69.7157
  0
LINE
  8
0
 10
350.346
 20
69.7157
 11
351.045
 21
68.9389
  0
LINE
  8
0
 10
351.045
 20
68.9389
 11
351.568
 21
68.0337
  0
LINE
  8
0
 10
351.568
 20
68.0337
 11
351.891
 21
67.0396
  0
LINE
  8
0
 10
351.891
 20
67.0396
 11
352
 21
66
  0
LINE
  8
0
 10
352
 20
66
 11
351.891
 21
64.9604
  0
LINE
  8
0
 10
351.891
 20
64.9604
 11
351.568
 21
63.9663
  0
LINE
  8
0
 10
351.568
 20
63.9663
 11
351.045
 21
63.0611
  0
LINE
  8
0
 10
351.045
 20
63.0611
 11
350.346
 21
62.2843
  0
LINE
  8
0
 10
350.346
 20
62.2843
 11
349.5
 21
61.6699
  0
LINE
  8
0
 10
349.5
 20
61.6699
 11
348.545
 21
61.2447
  0
LINE
  8
0
 10
348.545
 20
61.2447
 11
347.523
 21
61.0274
  0
LINE
  8
0
 10
347.523
 20
61.0274
 11
346.477
 21
61.0274
  0
LINE
  8
0
 10
378.634
 20
62.5192
 11
377.918
 21
62.6713
  0
LINE
  8
0
 10
377.918
 20
62.6713
 11
377.25
 21
62.9689
  0
LINE
  8
0
 10
377.25
 20
62.9689
 11
376.658
 21
63.399
  0
LINE
  8
0
 10
376.658
 20
63.399
 11
376.168
 21
63.9427
  0
LINE
  8
0
 10
376.168
 20
63.9427
 11
375.803
 21
64.5764
  0
LINE
  8
0
 10
375.803
 20
64.5764
 11
375.576
 21
65.2723
  0
LINE
  8
0
 10
375.576
 20
65.2723
 11
375.5
 21
66
  0
LINE
  8
0
 10
375.5
 20
66
 11
375.576
 21
66.7277
  0
LINE
  8
0
 10
375.576
 20
66.7277
 11
375.803
 21
67.4236
  0
LINE
  8
0
 10
375.803
 20
67.4236
 11
376.168
 21
68.0572
  0
LINE
  8
0
 10
376.168
 20
68.0572
 11
376.658
 21
68.601
  0
LINE
  8
0
 10
376.658
 20
68.601
 11
377.25
 21
69.0311
  0
LINE
  8
0
 10
377.25
 20
69.0311
 11
377.918
 21
69.3287
  0
LINE
  8
0
 10
377.918
 20
69.3287
 11
378.634
 21
69.4808
  0
LINE
  8
0
 10
378.634
 20
69.4808
 11
379.366
 21
69.4808
  0
LINE
  8
0
 10
379.366
 20
69.4808
 11
380.082
 21
69.3287
  0
LINE
  8
0
 10
380.082
 20
69.3287
 11
380.75
 21
69.0311
  0
LINE
  8
0
 10
380.75
 20
69.0311
 11
381.342
 21
68.601
  0
LINE
  8
0
 10
381.342
 20
68.601
 11
381.832
 21
68.0572
  0
LINE
  8
0
 10
381.832
 20
68.0572
 11
382.197
 21
67.4236
  0
LINE
  8
0
 10
382.197
 20
67.4236
 11
382.424
 21
66.7277
  0
LINE
  8
0
 10
382.424
 20
66.7277
 11
382.5
 21
66
  0
LINE
  8
0
 10
382.5
 20
66
 11
382.424
 21
65.2723
  0
LINE
  8
0
 10
382.424
 20
65.2723
 11
382.197
 21
64.5764
  0
LINE
  8
0
 10
382.197
 20
64.5764
 11
381.832
 21
63.9427
  0
LINE
  8
0
 10
381.832
 20
63.9427
 11
381.342
 21
63.399
  0
LINE
  8
0
 10
381.342
 20
63.399
 11
380.75
 21
62.9689
  0
LINE
  8
0
 10
380.75
 20
62.9689
 11
380.082
 21
62.6713
  0
LINE
  8
0
 10
380.082
 20
62.6713
 11
379.366
 21
62.5192
  0
LINE
  8
0
 10
379.366
 20
62.5192
 11
378.634
 21
62.5192
  0
LINE
  8
0
 10
390.634
 20
62.5192
 11
389.918
 21
62.6713
  0
LINE
  8
0
 10
389.918
 20
62.6713
 11
389.25
 21
62.9689
  0
LINE
  8
0
 10
389.25
 20
62.9689
 11
388.658
 21
63.399
  0
LINE
  8
0
 10
388.658
 20
63.399
 11
388.168
 21
63.9427
  0
LINE
  8
0
 10
388.168
 20
63.9427
 11
387.803
 21
64.5764
  0
LINE
  8
0
 10
387.803
 20
64.5764
 11
387.576
 21
65.2723
  0
LINE
  8
0
 10
387.576
 20
65.2723
 11
387.5
 21
66
  0
LINE
  8
0
 10
387.5
 20
66
 11
387.576
 21
66.7277
  0
LINE
  8
0
 10
387.576
 20
66.7277
 11
387.803
 21
67.4236
  0
LINE
  8
0
 10
387.803
 20
67.4236
 11
388.168
 21
68.0572
  0
LINE
  8
0
 10
388.168
 20
68.0572
 11
388.658
 21
68.601
  0
LINE
  8
0
 10
388.658
 20
68.601
 11
389.25
 21
69.0311
  0
LINE
  8
0
 10
389.25
 20
69.0311
 11
389.918
 21
69.3287
  0
LINE
  8
0
 10
389.918
 20
69.3287
 11
390.634
 21
69.4808
  0
LINE
  8
0
 10
390.634
 20
69.4808
 11
391.366
 21
69.4808
  0
LINE
  8
0
 10
391.366
 20
69.4808
 11
392.082
 21
69.3287
  0
LINE
  8
0
 10
392.082
 20
69.3287
 11
392.75
 21
69.0311
  0
LINE
  8
0
 10
392.75
 20
69.0311
 11
393.342
 21
68.601
  0
LINE
  8
0
 10
393.342
 20
68.601
 11
393.832
 21
68.0572
  0
LINE
  8
0
 10
393.832
 20
68.0572
 11
394.197
 21
67.4236
  0
LINE
  8
0
 10
394.197
 20
67.4236
 11
394.424
 21
66.7277
  0
LINE
  8
0
 10
394.424
 20
66.7277
 11
394.5
 21
66
  0
LINE
  8
0
 10
394.5
 20
66
 11
394.424
 21
65.2723
  0
LINE
  8
0
 10
394.424
 20
65.2723
 11
394.197
 21
64.5764
  0
LINE
  8
0
 10
394.197
 20
64.5764
 11
393.832
 21
63.9427
  0
LINE
  8
0
 10
393.832
 20
63.9427
 11
393.342
 21
63.399
  0
LINE
  8
0
 10
393.342
 20
63.399
 11
392.75
 21
62.9689
  0
LINE
  8
0
 10
392.75
 20
62.9689
 11
392.082
 21
62.6713
  0
LINE
  8
0
 10
392.082
 20
62.6713
 11
391.366
 21
62.5192
  0
LINE
  8
0
 10
391.366
 20
62.5192
 11
390.634
 21
62.5192
  0
LINE
  8
0
 10
272
 20
68
 11
150
 21
68
  0
LINE
  8
0
 10
150
 20
68
 11
150
 21
0
  0
LINE
  8
0
 10
150
 20
0
 11
272
 21
0
  0
LINE
  8
0
 10
272
 20
0
 11
272
 21
68
  0
LINE
  8
0
 10
438
 20
40
 11
300
 21
40
  0
LINE
  8
0
 10
300
 20
40
 11
300
 21
0
  0
LINE
  8
0
 10
300
 20
0
 11
438
 21
0
  0
LINE
  8
0
 10
438
 20
0
 11
438
 21
40
  0
ENDSEC
  0
SECTION
  2
OBJECTS
  0
DICTIONARY
  0
ENDSEC
  0
EOF
