<?xml version="1.0" encoding="UTF-8" standalone="no"?>
<svg
   xmlns:dc="http://purl.org/dc/elements/1.1/"
   xmlns:cc="http://creativecommons.org/ns#"
   xmlns:rdf="http://www.w3.org/1999/02/22-rdf-syntax-ns#"
   xmlns:svg="http://www.w3.org/2000/svg"
   xmlns="http://www.w3.org/2000/svg"
   xmlns:sodipodi="http://sodipodi.sourceforge.net/DTD/sodipodi-0.dtd"
   xmlns:inkscape="http://www.inkscape.org/namespaces/inkscape"
   width="399"
   height="292"
   viewBox="0 -292 399 292"
   version="1.1"
   id="svg2"
   inkscape:version="0.91 r13725"
   sodipodi:docname="DIMI_chistli_10x65_scaled.svg">
  <metadata
     id="metadata12">
    <rdf:RDF>
      <cc:Work
         rdf:about="">
        <dc:format>image/svg+xml</dc:format>
        <dc:type
           rdf:resource="http://purl.org/dc/dcmitype/StillImage" />
        <dc:title>OpenSCAD Model</dc:title>
      </cc:Work>
    </rdf:RDF>
  </metadata>
  <defs
     id="defs10" />
  <sodipodi:namedview
     pagecolor="#ffffff"
     bordercolor="#666666"
     borderopacity="1"
     objecttolerance="10"
     gridtolerance="10"
     guidetolerance="10"
     inkscape:pageopacity="0"
     inkscape:pageshadow="2"
     inkscape:window-width="1321"
     inkscape:window-height="744"
     id="namedview8"
     showgrid="false"
     inkscape:zoom="0.12848432"
     inkscape:cx="414.73049"
     inkscape:cy="-444.26853"
     inkscape:window-x="45"
     inkscape:window-y="24"
     inkscape:window-maximized="1"
     inkscape:current-layer="svg2" />
  <title
     id="title4">OpenSCAD Model</title>
  <path
     d="m 1108.0375,-886.46082 25.7457,0 0,10.62989 210.472,0 0,-10.62989 25.7456,0 0,10.62989 21.2598,0 0,-10.62989 23.1519,0 0,-138.18868 -23.1519,0 0,-10.6299 -21.2598,0 0,10.6299 -261.9633,0 0,-10.6299 -21.2598,0 0,10.6299 -23.1519,0 0,138.18868 23.1519,0 0,10.62989 21.2598,0 z m -728.26857,-21.25981 -379.133105,0 0,21.25981 379.133105,0 z m 0,42.5196 -379.133105,0 0,21.2598 379.133105,0 z m 1034.64357,81.4959 -10.6299,0 0,4.42913 -8.8582,0 0,-4.42913 -8.8583,0 0,-10.62989 8.8583,0 0,-4.42913 8.8582,0 0,4.42913 10.6299,0 0,-36.85033 -21.2598,0 0,-10.62989 21.2598,0 0,-10.62991 -350.7867,0 0,10.62991 21.2598,0 0,10.62989 -21.2598,0 0,36.85033 10.6299,0 0,-4.42913 8.8583,0 0,4.42913 8.8582,0 0,10.62989 -8.8582,0 0,4.42913 -8.8583,0 0,-4.42913 -10.6299,0 0,74.4093 350.7867,0 z m -1034.64357,-38.97629 -379.133105,0 0,21.25979 379.133105,0 z m -356.838378,14.09524 -0.704479,-0.22677 -0.64155,-0.37205 -0.550451,-0.49606 -0.435401,-0.59882 -0.301322,-0.67677 -0.153957,-0.72283 0,-0.74409 0.153957,-0.72283 0.301322,-0.67677 0.435401,-0.59882 0.550451,-0.49606 0.64155,-0.37205 0.704479,-0.22677 0.736723,-0.078 0.736652,0.078 0.704479,0.22677 0.64155,0.37205 0.550452,0.49606 0.4354,0.59882 0.301322,0.67677 0.153992,0.72283 0,0.74409 -0.153992,0.72283 -0.301322,0.67677 -0.4354,0.59882 -0.550452,0.49606 -0.64155,0.37205 -0.704479,0.22677 -0.736652,0.0779 z m 184.251668,0 -0.70441,-0.22677 -0.64169,-0.37205 -0.55027,-0.49606 -0.43547,-0.59882 -0.30154,-0.67677 -0.15378,-0.72283 0,-0.74409 0.15378,-0.72283 0.30154,-0.67677 0.43547,-0.59882 0.55027,-0.49606 0.64169,-0.37205 0.70441,-0.22677 0.73666,-0.078 0.73665,0.078 0.70441,0.22677 0.64169,0.37205 0.55027,0.49606 0.43547,0.59882 0.30118,0.67677 0.15414,0.72283 0,0.74409 -0.15414,0.72283 -0.30118,0.67677 -0.43547,0.59882 -0.55027,0.49606 -0.64169,0.37205 -0.70441,0.22677 -0.73665,0.0779 z m 172.58671,28.42435 -379.133105,0 0,21.25981 379.133105,0 z m -356.838378,14.09525 -0.704479,-0.22677 -0.64155,-0.37205 -0.550451,-0.49606 -0.435401,-0.59881 -0.301322,-0.67678 -0.153957,-0.72283 0,-0.74409 0.153957,-0.72283 0.301322,-0.67678 0.435401,-0.59881 0.550451,-0.49606 0.64155,-0.37205 0.704479,-0.22677 0.736723,-0.078 0.736652,0.078 0.704479,0.22677 0.64155,0.37205 0.550452,0.49606 0.4354,0.59881 0.301322,0.67678 0.153992,0.72283 0,0.74409 -0.153992,0.72283 -0.301322,0.67678 -0.4354,0.59881 -0.550452,0.49606 -0.64155,0.37205 -0.704479,0.22677 -0.736652,0.078 z m 184.251668,0 -0.70441,-0.22677 -0.64169,-0.37205 -0.55027,-0.49606 -0.43547,-0.59881 -0.30154,-0.67678 -0.15378,-0.72283 0,-0.74409 0.15378,-0.72283 0.30154,-0.67678 0.43547,-0.59881 0.55027,-0.49606 0.64169,-0.37205 0.70441,-0.22677 0.73666,-0.078 0.73665,0.078 0.70441,0.22677 0.64169,0.37205 0.55027,0.49606 0.43547,0.59881 0.30118,0.67678 0.15414,0.72283 0,0.74409 -0.15414,0.72283 -0.30118,0.67678 -0.43547,0.59881 -0.55027,0.49606 -0.64169,0.37205 -0.70441,0.22677 -0.73665,0.078 z m 193.84651,39.05425 -400.392905,0 0,159.4485 400.392905,0 z m -381.460344,85.01086 -1.086837,-0.23032 -1.01512,-0.45354 -0.8989,-0.65197 -0.743455,-0.82558 -0.555589,-0.96378 -0.343311,-1.05591 -0.116149,-1.10551 0.116149,-1.1055 0.343311,-1.05591 0.555589,-0.96378 0.743455,-0.82558 0.898971,-0.65197 1.015049,-0.45354 1.086837,-0.23032 1.111108,0 1.086871,0.23032 1.015085,0.45354 0.8989,0.65197 0.74349,0.82558 0.55559,0.96378 0.34331,1.05591 0.116185,1.1055 -0.116185,1.10551 -0.34331,1.05591 -0.55559,0.96378 -0.74349,0.82558 -0.8989,0.65197 -1.015085,0.45354 -1.086871,0.23032 z m 212.598004,0 -1.08673,-0.23032 -1.01516,-0.45354 -0.89894,-0.65197 -0.74338,-0.82558 -0.55559,-0.96378 -0.34334,-1.05591 -0.11622,-1.10551 0.11622,-1.1055 0.34334,-1.05591 0.55559,-0.96378 0.74338,-0.82558 0.89894,-0.65197 1.01516,-0.45354 1.08673,-0.23032 1.11117,0 1.08673,0.23032 1.01516,0.45354 0.89894,0.65197 0.74338,0.82558 0.55559,0.96378 0.34334,1.05591 0.11623,1.1055 -0.11623,1.10551 -0.34334,1.05591 -0.55559,0.96378 -0.74338,0.82558 -0.89894,0.65197 -1.01516,0.45354 -1.08673,0.23032 z m 148.81789,0 -1.0878,-0.23032 -1.01338,-0.45354 -0.9,-0.65197 -0.74409,-0.82558 -0.55276,-0.96378 -0.3437,-1.05591 -0.11692,-1.10551 0.11692,-1.1055 0.3437,-1.05591 0.55276,-0.96378 0.74409,-0.82558 0.9,-0.65197 1.01338,-0.45354 1.0878,-0.23032 1.11259,0 1.0878,0.23032 1.01338,0.45354 0.9,0.65197 0.74409,0.82558 0.55276,0.96378 0.3437,1.05591 0.11693,1.1055 -0.11693,1.10551 -0.3437,1.05591 -0.55276,0.96378 -0.74409,0.82558 -0.9,0.65197 -1.01338,0.45354 -1.0878,0.23032 z m 1033.42822,35.46135 -10.6299,0 0,4.42912 -8.8582,0 0,-4.42912 -8.8583,0 0,-10.6299 8.8583,0 0,-4.42913 8.8582,0 0,4.42913 10.6299,0 0,-36.85033 -21.2598,0 0,-10.6299 21.2598,0 0,-16.29918 -350.7867,0 0,16.29918 21.2598,0 0,10.6299 -21.2598,0 0,36.85033 10.6299,0 0,-4.42913 8.8583,0 0,4.42913 8.8582,0 0,10.6299 -8.8582,0 0,4.42912 -8.8583,0 0,-4.42912 -10.6299,0 0,74.4093 350.7867,0 z m -280.6293,21.25979 0,-69.09435 210.472,0 0,69.09435 z m 236.2176,4.25197 0,-10.62991 21.2598,0 0,10.62991 z m -283.2231,0 0,-10.62991 21.2598,0 0,10.62991 z m -685.74897,66.61404 -400.392905,0 0,159.44849 400.392905,0 z m -20.04445,85.01085 -1.0878,-0.23032 -1.01338,-0.45354 -0.9,-0.65197 -0.74409,-0.82558 -0.55276,-0.96378 -0.3437,-1.05591 -0.11692,-1.10551 0.11692,-1.1055 0.3437,-1.05591 0.55276,-0.96378 0.74409,-0.82558 0.9,-0.65197 1.01338,-0.45354 1.0878,-0.23032 1.11259,0 1.0878,0.23032 1.01338,0.45354 0.9,0.65197 0.74409,0.82558 0.55276,0.96378 0.3437,1.05591 0.11693,1.1055 -0.11693,1.10551 -0.3437,1.05591 -0.55276,0.96378 -0.74409,0.82558 -0.9,0.65197 -1.01338,0.45354 -1.0878,0.23032 z m -148.81789,0 -1.08673,-0.23032 -1.01516,-0.45354 -0.89894,-0.65197 -0.74338,-0.82558 -0.55559,-0.96378 -0.34334,-1.05591 -0.11622,-1.10551 0.11622,-1.1055 0.34334,-1.05591 0.55559,-0.96378 0.74338,-0.82558 0.89894,-0.65197 1.01516,-0.45354 1.08673,-0.23032 1.11117,0 1.08673,0.23032 1.01516,0.45354 0.89894,0.65197 0.74338,0.82558 0.55559,0.96378 0.34334,1.05591 0.11623,1.1055 -0.11623,1.10551 -0.34334,1.05591 -0.55559,0.96378 -0.74338,0.82558 -0.89894,0.65197 -1.01516,0.45354 -1.08673,0.23032 z m -212.598004,0 -1.086837,-0.23032 -1.01512,-0.45354 -0.8989,-0.65197 -0.743455,-0.82558 -0.555589,-0.96378 -0.343311,-1.05591 -0.116149,-1.10551 0.116149,-1.1055 0.343311,-1.05591 0.555589,-0.96378 0.743455,-0.82558 0.898971,-0.65197 1.015049,-0.45354 1.086837,-0.23032 1.111108,0 1.086871,0.23032 1.015085,0.45354 0.8989,0.65197 0.74349,0.82558 0.55559,0.96378 0.34331,1.05591 0.116185,1.1055 -0.116185,1.10551 -0.34331,1.05591 -0.55559,0.96378 -0.74349,0.82558 -0.8989,0.65197 -1.015085,0.45354 -1.086871,0.23032 z m 1114.214814,-4.93228 210.472,0 0,42.5196 70.1573,0 0,-37.55898 -10.6299,0 0,4.42913 -8.8582,0 0,-4.42913 -8.8583,0 0,-10.6299 8.8583,0 0,-4.42912 8.8582,0 0,4.42912 10.6299,0 0,-36.85032 -21.2598,0 0,-10.6299 21.2598,0 0,-10.6299 -350.7867,0 0,10.6299 21.2598,0 0,10.6299 -21.2598,0 0,36.85032 10.6299,0 0,-4.42912 8.8583,0 0,4.42912 8.8582,0 0,10.6299 -8.8582,0 0,4.42913 -8.8583,0 0,-4.42913 -10.6299,0 0,37.55898 70.1574,0 z m -47.0055,30.47238 0,-10.6299 21.2598,0 0,10.6299 z m 283.2231,0 0,-10.6299 21.2598,0 0,10.6299 z m 44.4117,114.44859 -350.7867,0 0,111.61395 350.7867,0 z m -255.1991,84.58779 -3.6212,-0.76996 -3.3839,-1.50661 -2.9976,-2.17701 -2.4768,-2.75243 -1.8531,-3.2074 -1.1445,-3.52239 -0.3862,-3.68362 0.3862,-3.68361 1.1445,-3.52239 1.8531,-3.2074 2.4768,-2.75243 2.9976,-2.17701 3.3839,-1.50661 3.6212,-0.76996 3.7063,0 3.6213,0.76996 3.3838,1.50661 2.9977,2.17701 2.4767,2.75243 1.8532,3.2074 1.1445,3.52239 0.3862,3.68361 -0.3862,3.68362 -1.1445,3.52239 -1.8532,3.2074 -2.4767,2.75243 -2.9977,2.17701 -3.3838,1.50661 -3.6213,0.76996 z m 156.4615,-5.2859 -2.537,-0.53893 -2.3669,-1.05449 -2.0976,-1.52397 -1.7363,-1.92649 -1.2933,-2.24539 -0.8043,-2.46579 -0.2693,-2.57846 0.2693,-2.57845 0.8043,-2.46579 1.2933,-2.24503 1.7363,-1.92685 2.0976,-1.52397 2.3669,-1.05449 2.537,-0.53893 2.5937,0 2.537,0.53893 2.367,1.05449 2.0976,1.52397 1.7362,1.92685 1.2933,2.24503 0.8043,2.46579 0.2693,2.57845 -0.2693,2.57846 -0.8043,2.46579 -1.2933,2.24539 -1.7362,1.92649 -2.0976,1.52397 -2.367,1.05449 -2.537,0.53893 z m -42.5196,0 -2.537,-0.53893 -2.3669,-1.05449 -2.0976,-1.52397 -1.7363,-1.92649 -1.2933,-2.24539 -0.8043,-2.46579 -0.2693,-2.57846 0.2693,-2.57845 0.8043,-2.46579 1.2933,-2.24503 1.7363,-1.92685 2.0976,-1.52397 2.3669,-1.05449 2.537,-0.53893 2.5937,0 2.537,0.53893 2.367,1.05449 2.0976,1.52397 1.7362,1.92685 1.2933,2.24503 0.8043,2.46579 0.2693,2.57845 -0.2693,2.57846 -0.8043,2.46579 -1.2933,2.24539 -1.7362,1.92649 -2.0976,1.52397 -2.367,1.05449 -2.537,0.53893 z m -921.73277,-20.83744 -350.786705,0 0,230.314505 350.786705,0 z m -11.00018,26.55527 -0.7246,-0.15378 -0.67677,-0.30154 -0.59918,-0.43547 -0.4957,-0.55027 -0.37063,-0.64169 -0.22855,-0.70441 -0.0776,-0.73666 0.0776,-0.73665 0.22855,-0.70441 0.37063,-0.64169 0.4957,-0.55027 0.59918,-0.43547 0.67677,-0.30118 0.7246,-0.15414 0.74055,0 0.7246,0.15414 0.67678,0.30118 0.59917,0.43547 0.4957,0.55027 0.37028,0.64169 0.2289,0.70441 0.0776,0.73665 -0.0776,0.73666 -0.2289,0.70441 -0.37028,0.64169 -0.4957,0.55027 -0.59917,0.43547 -0.67678,0.30154 -0.7246,0.15378 z m -329.527042,0 -0.724534,-0.15378 -0.6767699,-0.30154 -0.5992429,-0.43547 -0.4956368,-0.55027 -0.3704165,-0.64169 -0.2288618,-0.70441 -0.077421,-0.73666 0.077421,-0.73665 0.2288618,-0.70441 0.3704165,-0.64169 0.4956368,-0.55027 0.5993138,-0.43547 0.676699,-0.30118 0.724534,-0.15414 0.740763,0 0.724569,0.15414 0.676735,0.30118 0.599278,0.43547 0.495637,0.55027 0.370381,0.64169 0.228862,0.70441 0.07749,0.73665 -0.07749,0.73666 -0.228862,0.70441 -0.370381,0.64169 -0.495637,0.55027 -0.599278,0.43547 -0.676735,0.30154 -0.724569,0.15378 z m 329.527042,184.251668 -0.7246,-0.153957 -0.67677,-0.301322 -0.59918,-0.435401 -0.4957,-0.550451 -0.37063,-0.64155 -0.22855,-0.704479 -0.0776,-0.736723 0.0776,-0.736652 0.22855,-0.704479 0.37063,-0.64155 0.4957,-0.550452 0.59918,-0.4354 0.67677,-0.301322 0.7246,-0.153992 0.74055,0 0.7246,0.153992 0.67678,0.301322 0.59917,0.4354 0.4957,0.550452 0.37028,0.64155 0.2289,0.704479 0.0776,0.736652 -0.0776,0.736723 -0.2289,0.704479 -0.37028,0.64155 -0.4957,0.550451 -0.59917,0.435401 -0.67678,0.301322 -0.7246,0.153957 z m -329.527042,0 -0.724534,-0.153957 -0.6767699,-0.301322 -0.5992429,-0.435401 -0.4956368,-0.550451 -0.3704165,-0.64155 -0.2288618,-0.704479 -0.077421,-0.736723 0.077421,-0.736652 0.2288618,-0.704479 0.3704165,-0.64155 0.4956368,-0.550452 0.5993138,-0.4354 0.676699,-0.301322 0.724534,-0.153992 0.740763,0 0.724569,0.153992 0.676735,0.301322 0.599278,0.4354 0.495637,0.550452 0.370381,0.64155 0.228862,0.704479 0.07749,0.736652 -0.07749,0.736723 -0.228862,0.704479 -0.370381,0.64155 -0.495637,0.550451 -0.599278,0.435401 -0.676735,0.301322 -0.724569,0.153957 z m 872.022222,-139.940938 -350.78671,0 0,159.448505 350.78671,0 z m 531.49497,31.8897 -350.7867,0 0,127.558805 350.7867,0 z"
     id="path6"
     inkscape:connector-curvature="0"
     style="fill:#d3d3d3;stroke:#000000;stroke-width:1.77164996" />
</svg>
