<?xml version="1.0" encoding="UTF-8" standalone="no"?>
<svg
   xmlns:dc="http://purl.org/dc/elements/1.1/"
   xmlns:cc="http://creativecommons.org/ns#"
   xmlns:rdf="http://www.w3.org/1999/02/22-rdf-syntax-ns#"
   xmlns:svg="http://www.w3.org/2000/svg"
   xmlns="http://www.w3.org/2000/svg"
   xmlns:sodipodi="http://sodipodi.sourceforge.net/DTD/sodipodi-0.dtd"
   xmlns:inkscape="http://www.inkscape.org/namespaces/inkscape"
   width="438"
   height="310"
   viewBox="0 -310 438 310"
   version="1.1"
   id="svg2"
   inkscape:version="0.91 r13725"
   sodipodi:docname="DIMI_chistli_scaled.svg">
  <metadata
     id="metadata12">
    <rdf:RDF>
      <cc:Work
         rdf:about="">
        <dc:format>image/svg+xml</dc:format>
        <dc:type
           rdf:resource="http://purl.org/dc/dcmitype/StillImage" />
        <dc:title>OpenSCAD Model</dc:title>
      </cc:Work>
    </rdf:RDF>
  </metadata>
  <defs
     id="defs10" />
  <sodipodi:namedview
     pagecolor="#ffffff"
     bordercolor="#666666"
     borderopacity="1"
     objecttolerance="10"
     gridtolerance="10"
     guidetolerance="10"
     inkscape:pageopacity="0"
     inkscape:pageshadow="2"
     inkscape:window-width="1321"
     inkscape:window-height="744"
     id="namedview8"
     showgrid="false"
     inkscape:zoom="0.058521965"
     inkscape:cx="3854.1429"
     inkscape:cy="2374.1198"
     inkscape:window-x="45"
     inkscape:window-y="24"
     inkscape:window-maximized="1"
     inkscape:current-layer="svg2" />
  <title
     id="title4">OpenSCAD Model</title>
  <g
     id="g4212"
     transform="scale(12.543494,12.543494)">
    <path
       id="path4210"
       d="m 317.108,-250 10.492,0 0,3 82.8,0 0,-3 10.492,0 0,3 8,0 0,-3 9.108,0 0,-57 -9.108,0 0,-3 -8,0 0,3 -103.784,0 0,-3 -8,0 0,3 -9.108,0 0,57 9.108,0 0,3 8,0 z"
       inkscape:connector-curvature="0" />
    <path
       id="path4208"
       d="m 152,-256 -152,0 0,8 152,0 z"
       inkscape:connector-curvature="0" />
    <path
       id="path4206"
       d="m 152,-244 -152,0 0,8 152,0 z"
       inkscape:connector-curvature="0" />
    <path
       id="path4204"
       d="m 438,-221 -3,0 0,1.25 -2.5,0 0,-1.25 -2.5,0 0,-3 2.5,0 0,-1.25 2.5,0 0,1.25 3,0 0,-10.4 -8,0 0,-3 8,0 0,-3 -138,0 0,3 8,0 0,3 -8,0 0,10.4 3,0 0,-1.25 2.5,0 0,1.25 2.5,0 0,3 -2.5,0 0,1.25 -2.5,0 0,-1.25 -3,0 0,21 138,0 z"
       inkscape:connector-curvature="0" />
    <path
       id="path4202"
       d="m 152,-232 -152,0 0,8 152,0 z"
       inkscape:connector-curvature="0" />
    <path
       id="path4200"
       d="m 8.99208,-227.022 -0.19882,-0.064 -0.18105,-0.105 -0.15536,-0.14 -0.12288,-0.169 -0.08504,-0.191 -0.04346,-0.204 0,-0.21 0.04346,-0.204 0.08504,-0.191 0.12288,-0.169 0.15536,-0.14 0.18105,-0.105 0.19882,-0.064 L 9.2,-229 l 0.2079,0.022 0.19884,0.064 0.18104,0.105 0.15535,0.14 0.12287,0.169 0.085,0.191 0.0435,0.204 0,0.21 -0.0435,0.204 -0.085,0.191 -0.12287,0.169 -0.15535,0.14 -0.18104,0.105 -0.19884,0.064 L 9.2,-227 Z"
       inkscape:connector-curvature="0" />
    <path
       id="path4198"
       d="m 82.5921,-227.022 -0.1989,-0.064 -0.181,-0.105 -0.1553,-0.14 -0.1229,-0.169 -0.0851,-0.191 -0.0434,-0.204 0,-0.21 0.0434,-0.204 0.0851,-0.191 0.1229,-0.169 0.1553,-0.14 0.181,-0.105 0.1989,-0.064 0.2079,-0.022 0.2079,0.022 0.1988,0.064 0.1811,0.105 0.1553,0.14 0.1229,0.169 0.0851,0.191 0.0434,0.204 0,0.21 -0.0434,0.204 -0.0851,0.191 -0.1229,0.169 -0.1553,0.14 -0.1811,0.105 -0.1988,0.064 L 82.8,-227 Z"
       inkscape:connector-curvature="0" />
    <path
       id="path4196"
       d="m 152,-220 -152,0 0,8 152,0 z"
       inkscape:connector-curvature="0" />
    <path
       id="path4194"
       d="m 8.99208,-215.022 -0.19882,-0.064 -0.18105,-0.105 -0.15536,-0.14 -0.12288,-0.169 -0.08504,-0.191 -0.04346,-0.204 0,-0.21 0.04346,-0.204 0.08504,-0.191 0.12288,-0.169 0.15536,-0.14 0.18105,-0.105 0.19882,-0.064 L 9.2,-217 l 0.2079,0.022 0.19884,0.064 0.18104,0.105 0.15535,0.14 0.12287,0.169 0.085,0.191 0.0435,0.204 0,0.21 -0.0435,0.204 -0.085,0.191 -0.12287,0.169 -0.15535,0.14 -0.18104,0.105 -0.19884,0.064 L 9.2,-215 Z"
       inkscape:connector-curvature="0" />
    <path
       id="path4192"
       d="m 82.5921,-215.022 -0.1989,-0.064 -0.181,-0.105 -0.1553,-0.14 -0.1229,-0.169 -0.0851,-0.191 -0.0434,-0.204 0,-0.21 0.0434,-0.204 0.0851,-0.191 0.1229,-0.169 0.1553,-0.14 0.181,-0.105 0.1989,-0.064 0.2079,-0.022 0.2079,0.022 0.1988,0.064 0.1811,0.105 0.1553,0.14 0.1229,0.169 0.0851,0.191 0.0434,0.204 0,0.21 -0.0434,0.204 -0.0851,0.191 -0.1229,0.169 -0.1553,0.14 -0.1811,0.105 -0.1988,0.064 L 82.8,-215 Z"
       inkscape:connector-curvature="0" />
    <path
       id="path4190"
       d="m 158,-205 -158,0 0,45 158,0 z"
       inkscape:connector-curvature="0" />
    <path
       id="path4188"
       d="m 4.3432,-181.008 -0.30673,-0.065 -0.28649,-0.128 -0.25369,-0.184 -0.20982,-0.233 -0.1568,-0.272 -0.09689,-0.298 L 3,-182.5 l 0.03278,-0.312 0.09689,-0.298 0.1568,-0.272 0.20982,-0.233 0.25371,-0.184 0.28647,-0.128 0.30673,-0.065 0.31358,0 0.30674,0.065 0.28648,0.128 0.25369,0.184 0.20983,0.233 0.1568,0.272 0.09689,0.298 L 6,-182.5 l -0.03279,0.312 -0.09689,0.298 -0.1568,0.272 -0.20983,0.233 -0.25369,0.184 -0.28648,0.128 -0.30674,0.065 z"
       inkscape:connector-curvature="0" />
    <path
       id="path4186"
       d="m 93.3432,-181.008 -0.3067,-0.065 -0.2865,-0.128 -0.2537,-0.184 -0.2098,-0.233 -0.1568,-0.272 -0.0969,-0.298 L 92,-182.5 l 0.0328,-0.312 0.0969,-0.298 0.1568,-0.272 0.2098,-0.233 0.2537,-0.184 0.2865,-0.128 0.3067,-0.065 0.3136,0 0.3067,0.065 0.2865,0.128 0.2537,0.184 0.2098,0.233 0.1568,0.272 0.0969,0.298 0.0328,0.312 -0.0328,0.312 -0.0969,0.298 -0.1568,0.272 -0.2098,0.233 -0.2537,0.184 -0.2865,0.128 -0.3067,0.065 z"
       inkscape:connector-curvature="0" />
    <path
       id="path4184"
       d="m 153.343,-181.008 -0.307,-0.065 -0.286,-0.128 -0.254,-0.184 -0.21,-0.233 -0.156,-0.272 -0.097,-0.298 -0.033,-0.312 0.033,-0.312 0.097,-0.298 0.156,-0.272 0.21,-0.233 0.254,-0.184 0.286,-0.128 0.307,-0.065 0.314,0 0.307,0.065 0.286,0.128 0.254,0.184 0.21,0.233 0.156,0.272 0.097,0.298 0.033,0.312 -0.033,0.312 -0.097,0.298 -0.156,0.272 -0.21,0.233 -0.254,0.184 -0.286,0.128 -0.307,0.065 z"
       inkscape:connector-curvature="0" />
    <path
       id="path4182"
       d="m 438,-171 -3,0 0,1.25 -2.5,0 0,-1.25 -2.5,0 0,-3 2.5,0 0,-1.25 2.5,0 0,1.25 3,0 0,-10.4 -8,0 0,-3 8,0 0,-4.6 -138,0 0,4.6 8,0 0,3 -8,0 0,10.4 3,0 0,-1.25 2.5,0 0,1.25 2.5,0 0,3 -2.5,0 0,1.25 -2.5,0 0,-1.25 -3,0 0,21 138,0 z"
       inkscape:connector-curvature="0" />
    <path
       id="path4180"
       d="m 327.6,-165 0,-19.5 82.8,0 0,19.5 z"
       inkscape:connector-curvature="0" />
    <path
       id="path4178"
       d="m 420.892,-163.8 0,-3 8,0 0,3 z"
       inkscape:connector-curvature="0" />
    <path
       id="path4176"
       d="m 309.108,-163.8 0,-3 8,0 0,3 z"
       inkscape:connector-curvature="0" />
    <path
       id="path4174"
       d="m 158,-145 -158,0 0,45 158,0 z"
       inkscape:connector-curvature="0" />
    <path
       id="path4172"
       d="m 153.343,-121.008 -0.307,-0.065 -0.286,-0.128 -0.254,-0.184 -0.21,-0.233 -0.156,-0.272 -0.097,-0.298 -0.033,-0.312 0.033,-0.312 0.097,-0.298 0.156,-0.272 0.21,-0.233 0.254,-0.184 0.286,-0.128 0.307,-0.065 0.314,0 0.307,0.065 0.286,0.128 0.254,0.184 0.21,0.233 0.156,0.272 0.097,0.298 0.033,0.312 -0.033,0.312 -0.097,0.298 -0.156,0.272 -0.21,0.233 -0.254,0.184 -0.286,0.128 -0.307,0.065 z"
       inkscape:connector-curvature="0" />
    <path
       id="path4170"
       d="m 93.3432,-121.008 -0.3067,-0.065 -0.2865,-0.128 -0.2537,-0.184 -0.2098,-0.233 -0.1568,-0.272 -0.0969,-0.298 L 92,-122.5 l 0.0328,-0.312 0.0969,-0.298 0.1568,-0.272 0.2098,-0.233 0.2537,-0.184 0.2865,-0.128 0.3067,-0.065 0.3136,0 0.3067,0.065 0.2865,0.128 0.2537,0.184 0.2098,0.233 0.1568,0.272 0.0969,0.298 0.0328,0.312 -0.0328,0.312 -0.0969,0.298 -0.1568,0.272 -0.2098,0.233 -0.2537,0.184 -0.2865,0.128 -0.3067,0.065 z"
       inkscape:connector-curvature="0" />
    <path
       id="path4168"
       d="m 4.3432,-121.008 -0.30673,-0.065 -0.28649,-0.128 -0.25369,-0.184 -0.20982,-0.233 -0.1568,-0.272 -0.09689,-0.298 L 3,-122.5 l 0.03278,-0.312 0.09689,-0.298 0.1568,-0.272 0.20982,-0.233 0.25371,-0.184 0.28647,-0.128 0.30673,-0.065 0.31358,0 0.30674,0.065 0.28648,0.128 0.25369,0.184 0.20983,0.233 0.1568,0.272 0.09689,0.298 L 6,-122.5 l -0.03279,0.312 -0.09689,0.298 -0.1568,0.272 -0.20983,0.233 -0.25369,0.184 -0.28648,0.128 -0.30674,0.065 z"
       inkscape:connector-curvature="0" />
    <path
       id="path4166"
       d="m 327.6,-122.4 82.8,0 0,12 27.6,0 0,-10.6 -3,0 0,1.25 -2.5,0 0,-1.25 -2.5,0 0,-3 2.5,0 0,-1.25 2.5,0 0,1.25 3,0 0,-10.4 -8,0 0,-3 8,0 0,-3 -138,0 0,3 8,0 0,3 -8,0 0,10.4 3,0 0,-1.25 2.5,0 0,1.25 2.5,0 0,3 -2.5,0 0,1.25 -2.5,0 0,-1.25 -3,0 0,10.6 27.6,0 z"
       inkscape:connector-curvature="0" />
    <path
       id="path4164"
       d="m 309.108,-113.8 0,-3 8,0 0,3 z"
       inkscape:connector-curvature="0" />
    <path
       id="path4162"
       d="m 420.892,-113.8 0,-3 8,0 0,3 z"
       inkscape:connector-curvature="0" />
    <path
       id="path4160"
       d="M 138,-92 0,-92 0,0 138,0 Z"
       inkscape:connector-curvature="0" />
    <path
       id="path4158"
       d="m 133.895,-81.8055 -0.204,-0.0434 -0.191,-0.0851 -0.169,-0.1229 -0.14,-0.1553 -0.105,-0.181 -0.064,-0.1989 L 133,-82.8 l 0.022,-0.2079 0.064,-0.1988 0.105,-0.1811 0.14,-0.1553 0.169,-0.1229 0.191,-0.0851 0.204,-0.0434 0.21,0 0.204,0.0434 0.191,0.0851 0.169,0.1229 0.14,0.1553 0.105,0.1811 0.064,0.1988 0.022,0.2079 -0.022,0.2079 -0.064,0.1989 -0.105,0.181 -0.14,0.1553 -0.169,0.1229 -0.191,0.0851 -0.204,0.0434 z"
       inkscape:connector-curvature="0" />
    <path
       id="path4156"
       d="M 3.89546,-81.8055 3.69098,-81.8489 3.49998,-81.934 3.33086,-82.0569 3.19098,-82.2122 3.08644,-82.3932 3.02185,-82.5921 3,-82.8 l 0.02185,-0.2079 0.06459,-0.1988 0.10454,-0.1811 0.13988,-0.1553 0.16914,-0.1229 0.19098,-0.0851 0.20448,-0.0434 0.20906,0 0.20449,0.0434 0.19099,0.0851 0.16913,0.1229 0.13988,0.1553 0.10453,0.1811 0.06459,0.1988 L 5,-82.8 l -0.02187,0.2079 -0.06459,0.1989 -0.10453,0.181 -0.13988,0.1553 -0.16913,0.1229 -0.19099,0.0851 -0.20449,0.0434 z"
       inkscape:connector-curvature="0" />
    <path
       id="path4154"
       d="m 133.895,-8.20547 -0.204,-0.04346 -0.191,-0.08504 -0.169,-0.12288 -0.14,-0.15536 -0.105,-0.18105 -0.064,-0.19882 L 133,-9.2 l 0.022,-0.2079 0.064,-0.19884 0.105,-0.18104 0.14,-0.15535 0.169,-0.12287 0.191,-0.085 0.204,-0.0435 0.21,0 0.204,0.0435 0.191,0.085 0.169,0.12287 0.14,0.15535 0.105,0.18104 0.064,0.19884 0.022,0.2079 -0.022,0.20792 -0.064,0.19882 -0.105,0.18105 -0.14,0.15536 -0.169,0.12288 -0.191,0.08504 -0.204,0.04346 z"
       inkscape:connector-curvature="0" />
    <path
       id="path4152"
       d="M 3.89546,-8.20547 3.69098,-8.24893 3.49998,-8.33397 3.33086,-8.45685 3.19098,-8.61221 3.08644,-8.79326 3.02185,-8.99208 3,-9.2 3.02185,-9.4079 3.08644,-9.60674 3.19098,-9.78778 3.33086,-9.94313 3.5,-10.066 l 0.19098,-0.085 0.20448,-0.0435 0.20906,0 0.20449,0.0435 0.19099,0.085 0.16913,0.12287 0.13988,0.15535 0.10453,0.18104 L 4.97813,-9.4079 5,-9.2 4.97813,-8.99208 4.91354,-8.79326 4.80901,-8.61221 4.66913,-8.45685 4.5,-8.33397 4.30901,-8.24893 4.10452,-8.20547 Z"
       inkscape:connector-curvature="0" />
    <path
       id="path4150"
       d="m 438,-81.5 -138,0 0,31.5 138,0 z"
       inkscape:connector-curvature="0" />
    <path
       id="path4148"
       d="m 343.477,-60.7774 -1.022,-0.2173 -0.955,-0.4252 -0.846,-0.6144 -0.699,-0.7768 -0.523,-0.9052 -0.323,-0.9941 -0.109,-1.0396 0.109,-1.0396 0.323,-0.9941 0.523,-0.9052 0.699,-0.7768 0.846,-0.6144 0.955,-0.4252 1.022,-0.2173 1.046,0 1.022,0.2173 0.955,0.4252 0.846,0.6144 0.699,0.7768 0.523,0.9052 0.323,0.9941 0.109,1.0396 -0.109,1.0396 -0.323,0.9941 -0.523,0.9052 -0.699,0.7768 -0.846,0.6144 -0.955,0.4252 -1.022,0.2173 z"
       inkscape:connector-curvature="0" />
    <path
       id="path4146"
       d="m 393.634,-62.2692 -0.716,-0.1521 -0.668,-0.2976 -0.592,-0.4301 -0.49,-0.5437 -0.365,-0.6337 -0.227,-0.6959 -0.076,-0.7277 0.076,-0.7277 0.227,-0.6959 0.365,-0.6336 0.49,-0.5438 0.592,-0.4301 0.668,-0.2976 0.716,-0.1521 0.732,0 0.716,0.1521 0.668,0.2976 0.592,0.4301 0.49,0.5438 0.365,0.6336 0.227,0.6959 0.076,0.7277 -0.076,0.7277 -0.227,0.6959 -0.365,0.6337 -0.49,0.5437 -0.592,0.4301 -0.668,0.2976 -0.716,0.1521 z"
       inkscape:connector-curvature="0" />
    <path
       id="path4144"
       d="m 358.634,-62.2692 -0.716,-0.1521 -0.668,-0.2976 -0.592,-0.4301 -0.49,-0.5437 -0.365,-0.6337 -0.227,-0.6959 -0.076,-0.7277 0.076,-0.7277 0.227,-0.6959 0.365,-0.6336 0.49,-0.5438 0.592,-0.4301 0.668,-0.2976 0.716,-0.1521 0.732,0 0.716,0.1521 0.668,0.2976 0.592,0.4301 0.49,0.5438 0.365,0.6336 0.227,0.6959 0.076,0.7277 -0.076,0.7277 -0.227,0.6959 -0.365,0.6337 -0.49,0.5437 -0.592,0.4301 -0.668,0.2976 -0.716,0.1521 z"
       inkscape:connector-curvature="0" />
    <path
       id="path4142"
       d="m 288,-65 -138,0 0,65 138,0 z"
       inkscape:connector-curvature="0" />
    <path
       id="path6"
       d="m 438,-36 -138,0 0,36 138,0 z"
       inkscape:connector-curvature="0" />
  </g>
</svg>
