<?xml version="1.0" encoding="UTF-8" standalone="no"?>
<svg
   xmlns:dc="http://purl.org/dc/elements/1.1/"
   xmlns:cc="http://creativecommons.org/ns#"
   xmlns:rdf="http://www.w3.org/1999/02/22-rdf-syntax-ns#"
   xmlns:svg="http://www.w3.org/2000/svg"
   xmlns="http://www.w3.org/2000/svg"
   xmlns:sodipodi="http://sodipodi.sourceforge.net/DTD/sodipodi-0.dtd"
   xmlns:inkscape="http://www.inkscape.org/namespaces/inkscape"
   width="438"
   height="310"
   viewBox="0 -310 438 310"
   version="1.1"
   id="svg2"
   inkscape:version="0.91 r13725"
   sodipodi:docname="DIMI_chistli.svg">
  <metadata
     id="metadata12">
    <rdf:RDF>
      <cc:Work
         rdf:about="">
        <dc:format>image/svg+xml</dc:format>
        <dc:type
           rdf:resource="http://purl.org/dc/dcmitype/StillImage" />
      </cc:Work>
    </rdf:RDF>
  </metadata>
  <defs
     id="defs10" />
  <sodipodi:namedview
     pagecolor="#ffffff"
     bordercolor="#666666"
     borderopacity="1"
     objecttolerance="10"
     gridtolerance="10"
     guidetolerance="10"
     inkscape:pageopacity="0"
     inkscape:pageshadow="2"
     inkscape:window-width="1321"
     inkscape:window-height="744"
     id="namedview8"
     showgrid="false"
     inkscape:zoom="0.16552511"
     inkscape:cx="647.76529"
     inkscape:cy="177.08472"
     inkscape:window-x="45"
     inkscape:window-y="24"
     inkscape:window-maximized="1"
     inkscape:current-layer="svg2" />
  <title
     id="title4">OpenSCAD Model</title>
  <path
     style="fill:#d3d3d3;stroke:#000000;stroke-width:1.41734397"
     d="m 899.36088,-709.13067 29.7416,0 0,8.50406 234.71212,0 0,-8.50406 29.7416,0 0,8.50406 22.6775,0 0,-8.50406 25.8183,0 0,-161.57725 -25.8183,0 0,-8.504 -22.6775,0 0,8.504 -294.19532,0 0,-8.504 -22.67744,0 0,8.504 -25.8184,0 0,161.57725 25.8184,0 0,8.50406 22.67744,0 z"
     id="path4204"
     inkscape:connector-curvature="0" />
  <path
     style="fill:#d3d3d3;stroke:#000000;stroke-width:1.41734397"
     d="m 431.33125,-726.1388 -430.872578,0 0,22.6775 430.872578,0 z"
     id="path4202"
     inkscape:connector-curvature="0" />
  <path
     style="fill:#d3d3d3;stroke:#000000;stroke-width:1.41734397"
     d="m 431.33125,-692.12254 -430.872578,0 0,22.6775 430.872578,0 z"
     id="path4200"
     inkscape:connector-curvature="0" />
  <path
     style="fill:#d3d3d3;stroke:#000000;stroke-width:1.41734397"
     d="m 1242.052,-626.92472 -8.5041,0 0,3.54336 -7.0867,0 0,-3.54336 -7.0867,0 0,-8.50406 7.0867,0 0,-3.54336 7.0867,0 0,3.54336 8.5041,0 0,-29.48076 -22.6775,0 0,-8.50406 22.6775,0 0,-8.50406 -391.18696,0 0,8.50406 22.67752,0 0,8.50406 -22.67752,0 0,29.48076 8.50408,0 0,-3.54336 7.08672,0 0,3.54336 7.08672,0 0,8.50406 -7.08672,0 0,3.54336 -7.08672,0 0,-3.54336 -8.50408,0 0,59.52845 391.18696,0 z"
     id="path4198"
     inkscape:connector-curvature="0" />
  <path
     style="fill:#d3d3d3;stroke:#000000;stroke-width:1.41734397"
     d="m 431.33125,-658.10629 -430.872578,0 0,22.67751 430.872578,0 z"
     id="path4196"
     inkscape:connector-curvature="0" />
  <path
     style="fill:#d3d3d3;stroke:#000000;stroke-width:1.41734397"
     d="m 25.948414,-643.99521 -0.563593,-0.18142 -0.513221,-0.29764 -0.440397,-0.39686 -0.348326,-0.47906 -0.241062,-0.54143 -0.123196,-0.57828 0,-0.59528 0.123196,-0.57828 0.241062,-0.54142 0.348326,-0.47906 0.440397,-0.39686 0.513221,-0.29764 0.563593,-0.18142 0.589388,-0.0623 0.589332,0.0623 0.563648,0.18142 0.513192,0.29764 0.440369,0.39686 0.348299,0.47906 0.240948,0.54142 0.123309,0.57828 0,0.59528 -0.123309,0.57828 -0.240948,0.54143 -0.348299,0.47906 -0.440369,0.39686 -0.513192,0.29764 -0.563648,0.18142 -0.589332,0.0623 z"
     id="path4194"
     inkscape:connector-curvature="0" />
  <path
     style="fill:#d3d3d3;stroke:#000000;stroke-width:1.41734397"
     d="m 234.5815,-643.99521 -0.56381,-0.18142 -0.51308,-0.29764 -0.44023,-0.39686 -0.34838,-0.47906 -0.24123,-0.54143 -0.12303,-0.57828 0,-0.59528 0.12303,-0.57828 0.24123,-0.54142 0.34838,-0.47906 0.44023,-0.39686 0.51308,-0.29764 0.56381,-0.18142 0.58934,-0.0623 0.58933,0.0623 0.56353,0.18142 0.51337,0.29764 0.44023,0.39686 0.34838,0.47906 0.24123,0.54142 0.12303,0.57828 0,0.59528 -0.12303,0.57828 -0.24123,0.54143 -0.34838,0.47906 -0.44023,0.39686 -0.51337,0.29764 -0.56353,0.18142 -0.58933,0.0623 z"
     id="path4192"
     inkscape:connector-curvature="0" />
  <path
     style="fill:#d3d3d3;stroke:#000000;stroke-width:1.41734397"
     d="m 431.33125,-624.09003 -430.872578,0 0,22.6775 430.872578,0 z"
     id="path4190"
     inkscape:connector-curvature="0" />
  <path
     style="fill:#d3d3d3;stroke:#000000;stroke-width:1.41734397"
     d="m 25.948414,-609.97895 -0.563593,-0.18143 -0.513221,-0.29764 -0.440397,-0.39685 -0.348326,-0.47907 -0.241062,-0.54142 -0.123196,-0.57828 0,-0.59528 0.123196,-0.57828 0.241062,-0.54142 0.348326,-0.47907 0.440397,-0.39685 0.513221,-0.29764 0.563593,-0.18143 0.589388,-0.0623 0.589332,0.0623 0.563648,0.18143 0.513192,0.29764 0.440369,0.39685 0.348299,0.47907 0.240948,0.54142 0.123309,0.57828 0,0.59528 -0.123309,0.57828 -0.240948,0.54142 -0.348299,0.47907 -0.440369,0.39685 -0.513192,0.29764 -0.563648,0.18143 -0.589332,0.0623 z"
     id="path4188"
     inkscape:connector-curvature="0" />
  <path
     style="fill:#d3d3d3;stroke:#000000;stroke-width:1.41734397"
     d="m 234.5815,-609.97895 -0.56381,-0.18143 -0.51308,-0.29764 -0.44023,-0.39685 -0.34838,-0.47907 -0.24123,-0.54142 -0.12303,-0.57828 0,-0.59528 0.12303,-0.57828 0.24123,-0.54142 0.34838,-0.47907 0.44023,-0.39685 0.51308,-0.29764 0.56381,-0.18143 0.58934,-0.0623 0.58933,0.0623 0.56353,0.18143 0.51337,0.29764 0.44023,0.39685 0.34838,0.47907 0.24123,0.54142 0.12303,0.57828 0,0.59528 -0.12303,0.57828 -0.24123,0.54142 -0.34838,0.47907 -0.44023,0.39685 -0.51337,0.29764 -0.56353,0.18143 -0.58933,0.0623 z"
     id="path4186"
     inkscape:connector-curvature="0" />
  <path
     style="fill:#d3d3d3;stroke:#000000;stroke-width:1.41734397"
     d="m 448.33938,-581.56971 -447.880708,0 0,127.56096 447.880708,0 z"
     id="path4184"
     inkscape:connector-curvature="0" />
  <path
     style="fill:#d3d3d3;stroke:#000000;stroke-width:1.41734397"
     d="m 12.770289,-513.55988 -0.869484,-0.18426 -0.81211,-0.36284 -0.719132,-0.52157 -0.5947742,-0.66049 -0.4444792,-0.77103 -0.2746528,-0.84474 -0.092921,-0.88442 0.092921,-0.88443 0.2746528,-0.84473 0.4444792,-0.77103 0.5947742,-0.66049 0.719189,-0.52158 0.812053,-0.36284 0.869484,-0.18425 0.888901,0 0.869512,0.18425 0.812082,0.36284 0.719132,0.52158 0.594802,0.66049 0.44448,0.77103 0.274652,0.84473 0.09295,0.88443 -0.09295,0.88442 -0.274652,0.84474 -0.44448,0.77103 -0.594802,0.66049 -0.719132,0.52157 -0.812082,0.36284 -0.869512,0.18426 z"
     id="path4182"
     inkscape:connector-curvature="0" />
  <path
     style="fill:#d3d3d3;stroke:#000000;stroke-width:1.41734397"
     d="m 265.05752,-513.55988 -0.8694,-0.18426 -0.81214,-0.36284 -0.71916,-0.52157 -0.59472,-0.66049 -0.44448,-0.77103 -0.27468,-0.84474 -0.093,-0.88442 0.093,-0.88443 0.27468,-0.84473 0.44448,-0.77103 0.59472,-0.66049 0.71916,-0.52158 0.81214,-0.36284 0.8694,-0.18425 0.88896,0 0.8694,0.18425 0.81214,0.36284 0.71916,0.52158 0.59472,0.66049 0.44448,0.77103 0.27468,0.84473 0.093,0.88443 -0.093,0.88442 -0.27468,0.84474 -0.44448,0.77103 -0.59472,0.66049 -0.71916,0.52157 -0.81214,0.36284 -0.8694,0.18426 z"
     id="path4180"
     inkscape:connector-curvature="0" />
  <path
     style="fill:#d3d3d3;stroke:#000000;stroke-width:1.41734397"
     d="m 435.13823,-513.55988 -0.87025,-0.18426 -0.81072,-0.36284 -0.72,-0.52157 -0.59529,-0.66049 -0.44221,-0.77103 -0.27497,-0.84474 -0.0935,-0.88442 0.0935,-0.88443 0.27497,-0.84473 0.44221,-0.77103 0.59529,-0.66049 0.72,-0.52158 0.81072,-0.36284 0.87025,-0.18425 0.8901,0 0.87025,0.18425 0.81072,0.36284 0.72,0.52158 0.59529,0.66049 0.44221,0.77103 0.27497,0.84473 0.0935,0.88443 -0.0935,0.88442 -0.27497,0.84474 -0.44221,0.77103 -0.59529,0.66049 -0.72,0.52157 -0.81072,0.36284 -0.87025,0.18426 z"
     id="path4178"
     inkscape:connector-curvature="0" />
  <path
     style="fill:#d3d3d3;stroke:#000000;stroke-width:1.41734397"
     d="m 1242.052,-485.19032 -8.5041,0 0,3.54336 -7.0867,0 0,-3.54336 -7.0867,0 0,-8.50406 7.0867,0 0,-3.54336 7.0867,0 0,3.54336 8.5041,0 0,-29.48076 -22.6775,0 0,-8.50406 22.6775,0 0,-13.03957 -391.18696,0 0,13.03957 22.67752,0 0,8.50406 -22.67752,0 0,29.48076 8.50408,0 0,-3.54336 7.08672,0 0,3.54336 7.08672,0 0,8.50406 -7.08672,0 0,3.54336 -7.08672,0 0,-3.54336 -8.50408,0 0,59.52845 391.18696,0 z"
     id="path4176"
     inkscape:connector-curvature="0" />
  <path
     style="fill:#d3d3d3;stroke:#000000;stroke-width:1.41734397"
     d="m 929.10248,-468.18219 0,-55.27642 234.71212,0 0,55.27642 z"
     id="path4174"
     inkscape:connector-curvature="0" />
  <path
     style="fill:#d3d3d3;stroke:#000000;stroke-width:1.41734397"
     d="m 1193.5562,-464.78057 0,-8.50406 22.6775,0 0,8.50406 z"
     id="path4172"
     inkscape:connector-curvature="0" />
  <path
     style="fill:#d3d3d3;stroke:#000000;stroke-width:1.41734397"
     d="m 876.68344,-464.78057 0,-8.50406 22.67744,0 0,8.50406 z"
     id="path4170"
     inkscape:connector-curvature="0" />
  <path
     style="fill:#d3d3d3;stroke:#000000;stroke-width:1.41734397"
     d="m 448.33938,-411.48843 -447.880708,0 0,127.56096 447.880708,0 z"
     id="path4168"
     inkscape:connector-curvature="0" />
  <path
     style="fill:#d3d3d3;stroke:#000000;stroke-width:1.41734397"
     d="m 435.13823,-343.4786 -0.87025,-0.18426 -0.81072,-0.36284 -0.72,-0.52157 -0.59529,-0.66049 -0.44221,-0.77103 -0.27497,-0.84474 -0.0935,-0.88442 0.0935,-0.88443 0.27497,-0.84473 0.44221,-0.77103 0.59529,-0.66049 0.72,-0.52158 0.81072,-0.36284 0.87025,-0.18425 0.8901,0 0.87025,0.18425 0.81072,0.36284 0.72,0.52158 0.59529,0.66049 0.44221,0.77103 0.27497,0.84473 0.0935,0.88443 -0.0935,0.88442 -0.27497,0.84474 -0.44221,0.77103 -0.59529,0.66049 -0.72,0.52157 -0.81072,0.36284 -0.87025,0.18426 z"
     id="path4166"
     inkscape:connector-curvature="0" />
  <path
     style="fill:#d3d3d3;stroke:#000000;stroke-width:1.41734397"
     d="m 265.05752,-343.4786 -0.8694,-0.18426 -0.81214,-0.36284 -0.71916,-0.52157 -0.59472,-0.66049 -0.44448,-0.77103 -0.27468,-0.84474 -0.093,-0.88442 0.093,-0.88443 0.27468,-0.84473 0.44448,-0.77103 0.59472,-0.66049 0.71916,-0.52158 0.81214,-0.36284 0.8694,-0.18425 0.88896,0 0.8694,0.18425 0.81214,0.36284 0.71916,0.52158 0.59472,0.66049 0.44448,0.77103 0.27468,0.84473 0.093,0.88443 -0.093,0.88442 -0.27468,0.84474 -0.44448,0.77103 -0.59472,0.66049 -0.71916,0.52157 -0.81214,0.36284 -0.8694,0.18426 z"
     id="path4164"
     inkscape:connector-curvature="0" />
  <path
     style="fill:#d3d3d3;stroke:#000000;stroke-width:1.41734397"
     d="m 12.770289,-343.4786 -0.869484,-0.18426 -0.81211,-0.36284 -0.719132,-0.52157 -0.5947742,-0.66049 -0.4444792,-0.77103 -0.2746528,-0.84474 -0.092921,-0.88442 0.092921,-0.88443 0.2746528,-0.84473 0.4444792,-0.77103 0.5947742,-0.66049 0.719189,-0.52158 0.812053,-0.36284 0.869484,-0.18425 0.888901,0 0.869512,0.18425 0.812082,0.36284 0.719132,0.52158 0.594802,0.66049 0.44448,0.77103 0.274652,0.84473 0.09295,0.88443 -0.09295,0.88442 -0.274652,0.84474 -0.44448,0.77103 -0.594802,0.66049 -0.719132,0.52157 -0.812082,0.36284 -0.869512,0.18426 z"
     id="path4162"
     inkscape:connector-curvature="0" />
  <path
     style="fill:#d3d3d3;stroke:#000000;stroke-width:1.41734397"
     d="m 929.10248,-347.42448 234.71212,0 0,34.01626 78.2374,0 0,-30.0477 -8.5041,0 0,3.54336 -7.0867,0 0,-3.54336 -7.0867,0 0,-8.50406 7.0867,0 0,-3.54336 7.0867,0 0,3.54336 8.5041,0 0,-29.48076 -22.6775,0 0,-8.50406 22.6775,0 0,-8.50406 -391.18696,0 0,8.50406 22.67752,0 0,8.50406 -22.67752,0 0,29.48076 8.50408,0 0,-3.54336 7.08672,0 0,3.54336 7.08672,0 0,8.50406 -7.08672,0 0,3.54336 -7.08672,0 0,-3.54336 -8.50408,0 0,30.0477 78.23744,0 z"
     id="path4160"
     inkscape:connector-curvature="0" />
  <path
     style="fill:#d3d3d3;stroke:#000000;stroke-width:1.41734397"
     d="m 876.68344,-323.04617 0,-8.50406 22.67744,0 0,8.50406 z"
     id="path4158"
     inkscape:connector-curvature="0" />
  <path
     style="fill:#d3d3d3;stroke:#000000;stroke-width:1.41734397"
     d="m 1193.5562,-323.04617 0,-8.50406 22.6775,0 0,8.50406 z"
     id="path4156"
     inkscape:connector-curvature="0" />
  <path
     style="fill:#d3d3d3;stroke:#000000;stroke-width:1.41734397"
     d="m 391.64562,-261.24997 -391.186948,0 0,260.791298 391.186948,0 z"
     id="path4154"
     inkscape:connector-curvature="0" />
  <path
     style="fill:#d3d3d3;stroke:#000000;stroke-width:1.41734397"
     d="m 380.00922,-232.35174 -0.57828,-0.12303 -0.54142,-0.24123 -0.47906,-0.34838 -0.39686,-0.44023 -0.29764,-0.51308 -0.18142,-0.56381 -0.0623,-0.58934 0.0623,-0.58933 0.18142,-0.56353 0.29764,-0.51337 0.39686,-0.44023 0.47906,-0.34838 0.54142,-0.24123 0.57828,-0.12303 0.59528,0 0.57828,0.12303 0.54143,0.24123 0.47906,0.34838 0.39686,0.44023 0.29764,0.51337 0.18142,0.56353 0.0623,0.58933 -0.0623,0.58934 -0.18142,0.56381 -0.29764,0.51308 -0.39686,0.44023 -0.47906,0.34838 -0.54143,0.24123 -0.57828,0.12303 z"
     id="path4152"
     inkscape:connector-curvature="0" />
  <path
     style="fill:#d3d3d3;stroke:#000000;stroke-width:1.41734397"
     d="m 11.501086,-232.35174 -0.579637,-0.12303 -0.541426,-0.24123 -0.4794022,-0.34838 -0.396516,-0.44023 -0.2963384,-0.51308 -0.1830928,-0.56381 -0.061936,-0.58934 0.061936,-0.58933 0.1830928,-0.56353 0.2963384,-0.51337 0.396516,-0.44023 0.4794592,-0.34838 0.541369,-0.24123 0.579637,-0.12303 0.59262,0 0.579665,0.12303 0.541397,0.24123 0.47943,0.34838 0.396517,0.44023 0.29631,0.51337 0.183093,0.56353 0.06199,0.58933 -0.06199,0.58934 -0.183093,0.56381 -0.29631,0.51308 -0.396517,0.44023 -0.47943,0.34838 -0.541397,0.24123 -0.579665,0.12303 z"
     id="path4150"
     inkscape:connector-curvature="0" />
  <path
     style="fill:#d3d3d3;stroke:#000000;stroke-width:1.41734397"
     d="m 380.00922,-23.718619 -0.57828,-0.123196 -0.54142,-0.241062 -0.47906,-0.348326 -0.39686,-0.440397 -0.29764,-0.513221 -0.18142,-0.563593 -0.0623,-0.589388 0.0623,-0.589332 0.18142,-0.563648 0.29764,-0.513192 0.39686,-0.440369 0.47906,-0.348299 0.54142,-0.240948 0.57828,-0.123309 0.59528,0 0.57828,0.123309 0.54143,0.240948 0.47906,0.348299 0.39686,0.440369 0.29764,0.513192 0.18142,0.563648 0.0623,0.589332 -0.0623,0.589388 -0.18142,0.563593 -0.29764,0.513221 -0.39686,0.440397 -0.47906,0.348326 -0.54143,0.241062 -0.57828,0.123196 z"
     id="path4148"
     inkscape:connector-curvature="0" />
  <path
     style="fill:#d3d3d3;stroke:#000000;stroke-width:1.41734397"
     d="m 11.501086,-23.718619 -0.579637,-0.123196 -0.541426,-0.241062 -0.4794022,-0.348326 -0.396516,-0.440397 -0.2963384,-0.513221 -0.1830928,-0.563593 -0.061936,-0.589388 0.061936,-0.589332 0.1830928,-0.563648 0.2963384,-0.513192 0.396516,-0.440369 0.4794592,-0.348299 0.541369,-0.240948 0.579637,-0.123309 0.59262,0 0.579665,0.123309 0.541397,0.240948 0.47943,0.348299 0.396517,0.440369 0.29631,0.513192 0.183093,0.563648 0.06199,0.589332 -0.06199,0.589388 -0.183093,0.563593 -0.29631,0.513221 -0.396517,0.440397 -0.47943,0.348326 -0.541397,0.241062 -0.579665,0.123196 z"
     id="path4146"
     inkscape:connector-curvature="0" />
  <path
     style="fill:#d3d3d3;stroke:#000000;stroke-width:1.41734397"
     d="m 1242.052,-231.48574 -391.18696,0 0,89.29267 391.18696,0 z"
     id="path4144"
     inkscape:connector-curvature="0" />
  <path
     style="fill:#d3d3d3;stroke:#000000;stroke-width:1.41734397"
     d="m 974.1088,-172.74364 -2.89704,-0.61598 -2.70712,-1.20531 -2.39816,-1.74163 -1.98144,-2.20198 -1.48256,-2.56596 -0.9156,-2.81796 -0.30896,-2.94695 0.30896,-2.94694 0.9156,-2.81796 1.48256,-2.56596 1.98144,-2.20199 2.39816,-1.74163 2.70712,-1.20531 2.89704,-0.61598 2.96512,0 2.89704,0.61598 2.70712,1.20531 2.39816,1.74163 1.98144,2.20199 1.48248,2.56596 0.91568,2.81796 0.30896,2.94694 -0.30896,2.94695 -0.91568,2.81796 -1.48248,2.56596 -1.98144,2.20198 -2.39816,1.74163 -2.70712,1.20531 -2.89704,0.61598 z"
     id="path4142"
     inkscape:connector-curvature="0" />
  <path
     style="fill:#d3d3d3;stroke:#000000;stroke-width:1.41734397"
     d="m 1116.2882,-176.97242 -2.0296,-0.43116 -1.8936,-0.8436 -1.6781,-1.2192 -1.389,-1.54123 -1.0346,-1.79633 -0.6435,-1.97267 -0.2155,-2.0628 0.2155,-2.0628 0.6435,-1.97266 1.0346,-1.79606 1.389,-1.5415 1.6781,-1.2192 1.8936,-0.8436 2.0296,-0.43116 2.075,0 2.0297,0.43116 1.8936,0.8436 1.6781,1.2192 1.389,1.5415 1.0346,1.79606 0.6435,1.97266 0.2154,2.0628 -0.2154,2.0628 -0.6435,1.97267 -1.0346,1.79633 -1.389,1.54123 -1.6781,1.2192 -1.8936,0.8436 -2.0297,0.43116 z"
     id="path4140"
     inkscape:connector-curvature="0" />
  <path
     style="fill:#d3d3d3;stroke:#000000;stroke-width:1.41734397"
     d="m 1017.0742,-176.97242 -2.0296,-0.43116 -1.8936,-0.8436 -1.6782,-1.2192 -1.389,-1.54123 -1.0346,-1.79633 -0.6435,-1.97267 -0.2155,-2.0628 0.2155,-2.0628 0.6435,-1.97266 1.0346,-1.79606 1.389,-1.5415 1.6782,-1.2192 1.8936,-0.8436 2.0296,-0.43116 2.0749,0 2.0297,0.43116 1.8936,0.8436 1.6781,1.2192 1.389,1.5415 1.0347,1.79606 0.6434,1.97266 0.2154,2.0628 -0.2154,2.0628 -0.6434,1.97267 -1.0347,1.79633 -1.389,1.54123 -1.6781,1.2192 -1.8936,0.8436 -2.0297,0.43116 z"
     id="path4138"
     inkscape:connector-curvature="0" />
  <path
     style="fill:#d3d3d3;stroke:#000000;stroke-width:1.41734397"
     d="m 816.8488,-184.71339 -391.18693,0 0,184.254718 391.18693,0 z"
     id="path4136"
     inkscape:connector-curvature="0" />
  <path
     style="fill:#d3d3d3;stroke:#000000;stroke-width:1.41734397"
     d="m 1242.052,-102.50744 -391.18696,0 0,102.048768 391.18696,0 z"
     id="path6"
     inkscape:connector-curvature="0" />
</svg>
