<?xml version="1.0" standalone="no"?>
<!DOCTYPE svg PUBLIC "-//W3C//DTD SVG 1.1//EN" "http://www.w3.org/Graphics/SVG/1.1/DTD/svg11.dtd">
<svg width="399" height="292" viewBox="0 -292 399 292" xmlns="http://www.w3.org/2000/svg" version="1.1">
<title>OpenSCAD Model</title>
<path d="
M 312.534,-250 L 319.8,-250 L 319.8,-247 L 379.2,-247 L 379.2,-250 L 386.466,-250
 L 386.466,-247 L 392.466,-247 L 392.466,-250 L 399,-250 L 399,-289 L 392.466,-289
 L 392.466,-292 L 386.466,-292 L 386.466,-289 L 312.534,-289 L 312.534,-292 L 306.534,-292
 L 306.534,-289 L 300,-289 L 300,-250 L 306.534,-250 L 306.534,-247 L 312.534,-247
 z
M 107,-256 L 0,-256 L 0,-250 L 107,-250 z
M 107,-244 L 0,-244 L 0,-238 L 107,-238 z
M 399,-221 L 396,-221 L 396,-219.75 L 393.5,-219.75 L 393.5,-221 L 391,-221
 L 391,-224 L 393.5,-224 L 393.5,-225.25 L 396,-225.25 L 396,-224 L 399,-224
 L 399,-234.4 L 393,-234.4 L 393,-237.4 L 399,-237.4 L 399,-240.4 L 300,-240.4
 L 300,-237.4 L 306,-237.4 L 306,-234.4 L 300,-234.4 L 300,-224 L 303,-224
 L 303,-225.25 L 305.5,-225.25 L 305.5,-224 L 308,-224 L 308,-221 L 305.5,-221
 L 305.5,-219.75 L 303,-219.75 L 303,-221 L 300,-221 L 300,-200 L 399,-200
 z
M 107,-232 L 0,-232 L 0,-226 L 107,-226 z
M 6.29208,-228.022 L 6.09326,-228.086 L 5.9122,-228.191 L 5.75685,-228.331 L 5.63397,-228.5 L 5.54893,-228.691
 L 5.50548,-228.895 L 5.50548,-229.105 L 5.54893,-229.309 L 5.63397,-229.5 L 5.75685,-229.669 L 5.9122,-229.809
 L 6.09326,-229.914 L 6.29208,-229.978 L 6.5,-230 L 6.7079,-229.978 L 6.90672,-229.914 L 7.08778,-229.809
 L 7.24313,-229.669 L 7.36601,-229.5 L 7.45105,-229.309 L 7.49451,-229.105 L 7.49451,-228.895 L 7.45105,-228.691
 L 7.36601,-228.5 L 7.24313,-228.331 L 7.08778,-228.191 L 6.90672,-228.086 L 6.7079,-228.022 L 6.5,-228
 z
M 58.2921,-228.022 L 58.0933,-228.086 L 57.9122,-228.191 L 57.7569,-228.331 L 57.634,-228.5 L 57.5489,-228.691
 L 57.5055,-228.895 L 57.5055,-229.105 L 57.5489,-229.309 L 57.634,-229.5 L 57.7569,-229.669 L 57.9122,-229.809
 L 58.0933,-229.914 L 58.2921,-229.978 L 58.5,-230 L 58.7079,-229.978 L 58.9067,-229.914 L 59.0878,-229.809
 L 59.2431,-229.669 L 59.366,-229.5 L 59.451,-229.309 L 59.4945,-229.105 L 59.4945,-228.895 L 59.451,-228.691
 L 59.366,-228.5 L 59.2431,-228.331 L 59.0878,-228.191 L 58.9067,-228.086 L 58.7079,-228.022 L 58.5,-228
 z
M 107,-220 L 0,-220 L 0,-214 L 107,-214 z
M 6.29208,-216.022 L 6.09326,-216.086 L 5.9122,-216.191 L 5.75685,-216.331 L 5.63397,-216.5 L 5.54893,-216.691
 L 5.50548,-216.895 L 5.50548,-217.105 L 5.54893,-217.309 L 5.63397,-217.5 L 5.75685,-217.669 L 5.9122,-217.809
 L 6.09326,-217.914 L 6.29208,-217.978 L 6.5,-218 L 6.7079,-217.978 L 6.90672,-217.914 L 7.08778,-217.809
 L 7.24313,-217.669 L 7.36601,-217.5 L 7.45105,-217.309 L 7.49451,-217.105 L 7.49451,-216.895 L 7.45105,-216.691
 L 7.36601,-216.5 L 7.24313,-216.331 L 7.08778,-216.191 L 6.90672,-216.086 L 6.7079,-216.022 L 6.5,-216
 z
M 58.2921,-216.022 L 58.0933,-216.086 L 57.9122,-216.191 L 57.7569,-216.331 L 57.634,-216.5 L 57.5489,-216.691
 L 57.5055,-216.895 L 57.5055,-217.105 L 57.5489,-217.309 L 57.634,-217.5 L 57.7569,-217.669 L 57.9122,-217.809
 L 58.0933,-217.914 L 58.2921,-217.978 L 58.5,-218 L 58.7079,-217.978 L 58.9067,-217.914 L 59.0878,-217.809
 L 59.2431,-217.669 L 59.366,-217.5 L 59.451,-217.309 L 59.4945,-217.105 L 59.4945,-216.895 L 59.451,-216.691
 L 59.366,-216.5 L 59.2431,-216.331 L 59.0878,-216.191 L 58.9067,-216.086 L 58.7079,-216.022 L 58.5,-216
 z
M 113,-205 L 0,-205 L 0,-160 L 113,-160 z
M 5.3432,-181.008 L 5.03647,-181.073 L 4.74998,-181.201 L 4.49629,-181.385 L 4.28647,-181.618 L 4.12967,-181.89
 L 4.03278,-182.188 L 4,-182.5 L 4.03278,-182.812 L 4.12967,-183.11 L 4.28647,-183.382 L 4.49629,-183.615
 L 4.75,-183.799 L 5.03647,-183.927 L 5.3432,-183.992 L 5.65678,-183.992 L 5.96352,-183.927 L 6.25,-183.799
 L 6.50369,-183.615 L 6.71352,-183.382 L 6.87032,-183.11 L 6.96721,-182.812 L 7,-182.5 L 6.96721,-182.188
 L 6.87032,-181.89 L 6.71352,-181.618 L 6.50369,-181.385 L 6.25,-181.201 L 5.96352,-181.073 L 5.65678,-181.008
 z
M 65.3432,-181.008 L 65.0365,-181.073 L 64.75,-181.201 L 64.4963,-181.385 L 64.2865,-181.618 L 64.1297,-181.89
 L 64.0328,-182.188 L 64,-182.5 L 64.0328,-182.812 L 64.1297,-183.11 L 64.2865,-183.382 L 64.4963,-183.615
 L 64.75,-183.799 L 65.0365,-183.927 L 65.3432,-183.992 L 65.6568,-183.992 L 65.9635,-183.927 L 66.25,-183.799
 L 66.5037,-183.615 L 66.7135,-183.382 L 66.8703,-183.11 L 66.9672,-182.812 L 67,-182.5 L 66.9672,-182.188
 L 66.8703,-181.89 L 66.7135,-181.618 L 66.5037,-181.385 L 66.25,-181.201 L 65.9635,-181.073 L 65.6568,-181.008
 z
M 107.343,-181.008 L 107.036,-181.073 L 106.75,-181.201 L 106.496,-181.385 L 106.286,-181.618 L 106.13,-181.89
 L 106.033,-182.188 L 106,-182.5 L 106.033,-182.812 L 106.13,-183.11 L 106.286,-183.382 L 106.496,-183.615
 L 106.75,-183.799 L 107.036,-183.927 L 107.343,-183.992 L 107.657,-183.992 L 107.964,-183.927 L 108.25,-183.799
 L 108.504,-183.615 L 108.714,-183.382 L 108.87,-183.11 L 108.967,-182.812 L 109,-182.5 L 108.967,-182.188
 L 108.87,-181.89 L 108.714,-181.618 L 108.504,-181.385 L 108.25,-181.201 L 107.964,-181.073 L 107.657,-181.008
 z
M 399,-171 L 396,-171 L 396,-169.75 L 393.5,-169.75 L 393.5,-171 L 391,-171
 L 391,-174 L 393.5,-174 L 393.5,-175.25 L 396,-175.25 L 396,-174 L 399,-174
 L 399,-184.4 L 393,-184.4 L 393,-187.4 L 399,-187.4 L 399,-192 L 300,-192
 L 300,-187.4 L 306,-187.4 L 306,-184.4 L 300,-184.4 L 300,-174 L 303,-174
 L 303,-175.25 L 305.5,-175.25 L 305.5,-174 L 308,-174 L 308,-171 L 305.5,-171
 L 305.5,-169.75 L 303,-169.75 L 303,-171 L 300,-171 L 300,-150 L 399,-150
 z
M 319.8,-165 L 319.8,-184.5 L 379.2,-184.5 L 379.2,-165 z
M 386.466,-163.8 L 386.466,-166.8 L 392.466,-166.8 L 392.466,-163.8 z
M 306.534,-163.8 L 306.534,-166.8 L 312.534,-166.8 L 312.534,-163.8 z
M 113,-145 L 0,-145 L 0,-100 L 113,-100 z
M 107.343,-121.008 L 107.036,-121.073 L 106.75,-121.201 L 106.496,-121.385 L 106.286,-121.618 L 106.13,-121.89
 L 106.033,-122.188 L 106,-122.5 L 106.033,-122.812 L 106.13,-123.11 L 106.286,-123.382 L 106.496,-123.615
 L 106.75,-123.799 L 107.036,-123.927 L 107.343,-123.992 L 107.657,-123.992 L 107.964,-123.927 L 108.25,-123.799
 L 108.504,-123.615 L 108.714,-123.382 L 108.87,-123.11 L 108.967,-122.812 L 109,-122.5 L 108.967,-122.188
 L 108.87,-121.89 L 108.714,-121.618 L 108.504,-121.385 L 108.25,-121.201 L 107.964,-121.073 L 107.657,-121.008
 z
M 65.3432,-121.008 L 65.0365,-121.073 L 64.75,-121.201 L 64.4963,-121.385 L 64.2865,-121.618 L 64.1297,-121.89
 L 64.0328,-122.188 L 64,-122.5 L 64.0328,-122.812 L 64.1297,-123.11 L 64.2865,-123.382 L 64.4963,-123.615
 L 64.75,-123.799 L 65.0365,-123.927 L 65.3432,-123.992 L 65.6568,-123.992 L 65.9635,-123.927 L 66.25,-123.799
 L 66.5037,-123.615 L 66.7135,-123.382 L 66.8703,-123.11 L 66.9672,-122.812 L 67,-122.5 L 66.9672,-122.188
 L 66.8703,-121.89 L 66.7135,-121.618 L 66.5037,-121.385 L 66.25,-121.201 L 65.9635,-121.073 L 65.6568,-121.008
 z
M 5.3432,-121.008 L 5.03647,-121.073 L 4.74998,-121.201 L 4.49629,-121.385 L 4.28647,-121.618 L 4.12967,-121.89
 L 4.03278,-122.188 L 4,-122.5 L 4.03278,-122.812 L 4.12967,-123.11 L 4.28647,-123.382 L 4.49629,-123.615
 L 4.75,-123.799 L 5.03647,-123.927 L 5.3432,-123.992 L 5.65678,-123.992 L 5.96352,-123.927 L 6.25,-123.799
 L 6.50369,-123.615 L 6.71352,-123.382 L 6.87032,-123.11 L 6.96721,-122.812 L 7,-122.5 L 6.96721,-122.188
 L 6.87032,-121.89 L 6.71352,-121.618 L 6.50369,-121.385 L 6.25,-121.201 L 5.96352,-121.073 L 5.65678,-121.008
 z
M 319.8,-122.4 L 379.2,-122.4 L 379.2,-110.4 L 399,-110.4 L 399,-121 L 396,-121
 L 396,-119.75 L 393.5,-119.75 L 393.5,-121 L 391,-121 L 391,-124 L 393.5,-124
 L 393.5,-125.25 L 396,-125.25 L 396,-124 L 399,-124 L 399,-134.4 L 393,-134.4
 L 393,-137.4 L 399,-137.4 L 399,-140.4 L 300,-140.4 L 300,-137.4 L 306,-137.4
 L 306,-134.4 L 300,-134.4 L 300,-124 L 303,-124 L 303,-125.25 L 305.5,-125.25
 L 305.5,-124 L 308,-124 L 308,-121 L 305.5,-121 L 305.5,-119.75 L 303,-119.75
 L 303,-121 L 300,-121 L 300,-110.4 L 319.8,-110.4 z
M 306.534,-113.8 L 306.534,-116.8 L 312.534,-116.8 L 312.534,-113.8 z
M 386.466,-113.8 L 386.466,-116.8 L 392.466,-116.8 L 392.466,-113.8 z
M 399,-81.5 L 300,-81.5 L 300,-50 L 399,-50 z
M 326.977,-57.6274 L 325.955,-57.8447 L 325,-58.2699 L 324.154,-58.8843 L 323.455,-59.6611 L 322.932,-60.5663
 L 322.609,-61.5604 L 322.5,-62.6 L 322.609,-63.6396 L 322.932,-64.6337 L 323.455,-65.5389 L 324.154,-66.3157
 L 325,-66.9301 L 325.955,-67.3553 L 326.977,-67.5726 L 328.023,-67.5726 L 329.045,-67.3553 L 330,-66.9301
 L 330.846,-66.3157 L 331.545,-65.5389 L 332.068,-64.6337 L 332.391,-63.6396 L 332.5,-62.6 L 332.391,-61.5604
 L 332.068,-60.5663 L 331.545,-59.6611 L 330.846,-58.8843 L 330,-58.2699 L 329.045,-57.8447 L 328.023,-57.6274
 z
M 371.134,-59.1192 L 370.418,-59.2713 L 369.75,-59.5689 L 369.158,-59.999 L 368.668,-60.5427 L 368.303,-61.1764
 L 368.076,-61.8723 L 368,-62.6 L 368.076,-63.3277 L 368.303,-64.0236 L 368.668,-64.6572 L 369.158,-65.201
 L 369.75,-65.6311 L 370.418,-65.9287 L 371.134,-66.0808 L 371.866,-66.0808 L 372.582,-65.9287 L 373.25,-65.6311
 L 373.842,-65.201 L 374.332,-64.6572 L 374.697,-64.0236 L 374.924,-63.3277 L 375,-62.6 L 374.924,-61.8723
 L 374.697,-61.1764 L 374.332,-60.5427 L 373.842,-59.999 L 373.25,-59.5689 L 372.582,-59.2713 L 371.866,-59.1192
 z
M 359.134,-59.1192 L 358.418,-59.2713 L 357.75,-59.5689 L 357.158,-59.999 L 356.668,-60.5427 L 356.303,-61.1764
 L 356.076,-61.8723 L 356,-62.6 L 356.076,-63.3277 L 356.303,-64.0236 L 356.668,-64.6572 L 357.158,-65.201
 L 357.75,-65.6311 L 358.418,-65.9287 L 359.134,-66.0808 L 359.866,-66.0808 L 360.582,-65.9287 L 361.25,-65.6311
 L 361.842,-65.201 L 362.332,-64.6572 L 362.697,-64.0236 L 362.924,-63.3277 L 363,-62.6 L 362.924,-61.8723
 L 362.697,-61.1764 L 362.332,-60.5427 L 361.842,-59.999 L 361.25,-59.5689 L 360.582,-59.2713 L 359.866,-59.1192
 z
M 99,-65 L 0,-65 L 0,-0 L 99,-0 z
M 95.8955,-57.5055 L 95.691,-57.5489 L 95.5,-57.634 L 95.3309,-57.7569 L 95.191,-57.9122 L 95.0864,-58.0933
 L 95.0219,-58.2921 L 95,-58.5 L 95.0219,-58.7079 L 95.0864,-58.9067 L 95.191,-59.0878 L 95.3309,-59.2431
 L 95.5,-59.366 L 95.691,-59.451 L 95.8955,-59.4945 L 96.1045,-59.4945 L 96.309,-59.451 L 96.5,-59.366
 L 96.6691,-59.2431 L 96.809,-59.0878 L 96.9135,-58.9067 L 96.9781,-58.7079 L 97,-58.5 L 96.9781,-58.2921
 L 96.9135,-58.0933 L 96.809,-57.9122 L 96.6691,-57.7569 L 96.5,-57.634 L 96.309,-57.5489 L 96.1045,-57.5055
 z
M 2.89546,-57.5055 L 2.69098,-57.5489 L 2.49998,-57.634 L 2.33086,-57.7569 L 2.19098,-57.9122 L 2.08644,-58.0933
 L 2.02185,-58.2921 L 2,-58.5 L 2.02185,-58.7079 L 2.08644,-58.9067 L 2.19098,-59.0878 L 2.33086,-59.2431
 L 2.5,-59.366 L 2.69098,-59.451 L 2.89546,-59.4945 L 3.10452,-59.4945 L 3.30901,-59.451 L 3.5,-59.366
 L 3.66913,-59.2431 L 3.80901,-59.0878 L 3.91354,-58.9067 L 3.97813,-58.7079 L 4,-58.5 L 3.97813,-58.2921
 L 3.91354,-58.0933 L 3.80901,-57.9122 L 3.66913,-57.7569 L 3.5,-57.634 L 3.30901,-57.5489 L 3.10452,-57.5055
 z
M 95.8955,-5.50548 L 95.691,-5.54893 L 95.5,-5.63397 L 95.3309,-5.75685 L 95.191,-5.9122 L 95.0864,-6.09326
 L 95.0219,-6.29208 L 95,-6.5 L 95.0219,-6.7079 L 95.0864,-6.90672 L 95.191,-7.08778 L 95.3309,-7.24313
 L 95.5,-7.36601 L 95.691,-7.45105 L 95.8955,-7.49451 L 96.1045,-7.49451 L 96.309,-7.45105 L 96.5,-7.36601
 L 96.6691,-7.24313 L 96.809,-7.08778 L 96.9135,-6.90672 L 96.9781,-6.7079 L 97,-6.5 L 96.9781,-6.29208
 L 96.9135,-6.09326 L 96.809,-5.9122 L 96.6691,-5.75685 L 96.5,-5.63397 L 96.309,-5.54893 L 96.1045,-5.50548
 z
M 2.89546,-5.50548 L 2.69098,-5.54893 L 2.49998,-5.63397 L 2.33086,-5.75685 L 2.19098,-5.9122 L 2.08644,-6.09326
 L 2.02185,-6.29208 L 2,-6.5 L 2.02185,-6.7079 L 2.08644,-6.90672 L 2.19098,-7.08778 L 2.33086,-7.24313
 L 2.5,-7.36601 L 2.69098,-7.45105 L 2.89546,-7.49451 L 3.10452,-7.49451 L 3.30901,-7.45105 L 3.5,-7.36601
 L 3.66913,-7.24313 L 3.80901,-7.08778 L 3.91354,-6.90672 L 3.97813,-6.7079 L 4,-6.5 L 3.97813,-6.29208
 L 3.91354,-6.09326 L 3.80901,-5.9122 L 3.66913,-5.75685 L 3.5,-5.63397 L 3.30901,-5.54893 L 3.10452,-5.50548
 z
M 249,-45 L 150,-45 L 150,-0 L 249,-0 z
M 399,-36 L 300,-36 L 300,-0 L 399,-0 z
" stroke="black" fill="lightgray" stroke-width="0.5"/></svg>
