  0
SECTION
  2
BLOCKS
  0
ENDSEC
  0
SECTION
  2
ENTITIES
  0
LINE
  8
0
 10
316.712
 20
250
 11
326.4
 21
250
  0
LINE
  8
0
 10
326.4
 20
250
 11
326.4
 21
247
  0
LINE
  8
0
 10
326.4
 20
247
 11
405.6
 21
247
  0
LINE
  8
0
 10
405.6
 20
247
 11
405.6
 21
250
  0
LINE
  8
0
 10
405.6
 20
250
 11
415.288
 21
250
  0
LINE
  8
0
 10
415.288
 20
250
 11
415.288
 21
247
  0
LINE
  8
0
 10
415.288
 20
247
 11
423.288
 21
247
  0
LINE
  8
0
 10
423.288
 20
247
 11
423.288
 21
250
  0
LINE
  8
0
 10
423.288
 20
250
 11
432
 21
250
  0
LINE
  8
0
 10
432
 20
250
 11
432
 21
310
  0
LINE
  8
0
 10
432
 20
310
 11
423.288
 21
310
  0
LINE
  8
0
 10
423.288
 20
310
 11
423.288
 21
313
  0
LINE
  8
0
 10
423.288
 20
313
 11
415.288
 21
313
  0
LINE
  8
0
 10
415.288
 20
313
 11
415.288
 21
310
  0
LINE
  8
0
 10
415.288
 20
310
 11
316.712
 21
310
  0
LINE
  8
0
 10
316.712
 20
310
 11
316.712
 21
313
  0
LINE
  8
0
 10
316.712
 20
313
 11
308.712
 21
313
  0
LINE
  8
0
 10
308.712
 20
313
 11
308.712
 21
310
  0
LINE
  8
0
 10
308.712
 20
310
 11
300
 21
310
  0
LINE
  8
0
 10
300
 20
310
 11
300
 21
250
  0
LINE
  8
0
 10
300
 20
250
 11
308.712
 21
250
  0
LINE
  8
0
 10
308.712
 20
250
 11
308.712
 21
247
  0
LINE
  8
0
 10
308.712
 20
247
 11
316.712
 21
247
  0
LINE
  8
0
 10
316.712
 20
247
 11
316.712
 21
250
  0
LINE
  8
0
 10
157
 20
256
 11
0
 21
256
  0
LINE
  8
0
 10
0
 20
256
 11
0
 21
248
  0
LINE
  8
0
 10
0
 20
248
 11
157
 21
248
  0
LINE
  8
0
 10
157
 20
248
 11
157
 21
256
  0
LINE
  8
0
 10
157
 20
244
 11
0
 21
244
  0
LINE
  8
0
 10
0
 20
244
 11
0
 21
236
  0
LINE
  8
0
 10
0
 20
236
 11
157
 21
236
  0
LINE
  8
0
 10
157
 20
236
 11
157
 21
244
  0
LINE
  8
0
 10
432
 20
221
 11
429
 21
221
  0
LINE
  8
0
 10
429
 20
221
 11
429
 21
220
  0
LINE
  8
0
 10
429
 20
220
 11
426.5
 21
220
  0
LINE
  8
0
 10
426.5
 20
220
 11
426.5
 21
221
  0
LINE
  8
0
 10
426.5
 20
221
 11
421
 21
221
  0
LINE
  8
0
 10
421
 20
221
 11
421
 21
224
  0
LINE
  8
0
 10
421
 20
224
 11
426.5
 21
224
  0
LINE
  8
0
 10
426.5
 20
224
 11
426.5
 21
225
  0
LINE
  8
0
 10
426.5
 20
225
 11
429
 21
225
  0
LINE
  8
0
 10
429
 20
225
 11
429
 21
224
  0
LINE
  8
0
 10
429
 20
224
 11
432
 21
224
  0
LINE
  8
0
 10
432
 20
224
 11
432
 21
234.4
  0
LINE
  8
0
 10
432
 20
234.4
 11
424
 21
234.4
  0
LINE
  8
0
 10
424
 20
234.4
 11
424
 21
237.4
  0
LINE
  8
0
 10
424
 20
237.4
 11
432
 21
237.4
  0
LINE
  8
0
 10
432
 20
237.4
 11
432
 21
240.4
  0
LINE
  8
0
 10
432
 20
240.4
 11
300
 21
240.4
  0
LINE
  8
0
 10
300
 20
240.4
 11
300
 21
237.4
  0
LINE
  8
0
 10
300
 20
237.4
 11
308
 21
237.4
  0
LINE
  8
0
 10
308
 20
237.4
 11
308
 21
234.4
  0
LINE
  8
0
 10
308
 20
234.4
 11
300
 21
234.4
  0
LINE
  8
0
 10
300
 20
234.4
 11
300
 21
224
  0
LINE
  8
0
 10
300
 20
224
 11
303
 21
224
  0
LINE
  8
0
 10
303
 20
224
 11
303
 21
225
  0
LINE
  8
0
 10
303
 20
225
 11
305.5
 21
225
  0
LINE
  8
0
 10
305.5
 20
225
 11
305.5
 21
224
  0
LINE
  8
0
 10
305.5
 20
224
 11
311
 21
224
  0
LINE
  8
0
 10
311
 20
224
 11
311
 21
221
  0
LINE
  8
0
 10
311
 20
221
 11
305.5
 21
221
  0
LINE
  8
0
 10
305.5
 20
221
 11
305.5
 21
220
  0
LINE
  8
0
 10
305.5
 20
220
 11
303
 21
220
  0
LINE
  8
0
 10
303
 20
220
 11
303
 21
221
  0
LINE
  8
0
 10
303
 20
221
 11
300
 21
221
  0
LINE
  8
0
 10
300
 20
221
 11
300
 21
200
  0
LINE
  8
0
 10
300
 20
200
 11
432
 21
200
  0
LINE
  8
0
 10
432
 20
200
 11
432
 21
221
  0
LINE
  8
0
 10
157
 20
232
 11
0
 21
232
  0
LINE
  8
0
 10
0
 20
232
 11
0
 21
224
  0
LINE
  8
0
 10
0
 20
224
 11
157
 21
224
  0
LINE
  8
0
 10
157
 20
224
 11
157
 21
232
  0
LINE
  8
0
 10
9.19208
 20
227.022
 11
8.99326
 21
227.086
  0
LINE
  8
0
 10
8.99326
 20
227.086
 11
8.81221
 21
227.191
  0
LINE
  8
0
 10
8.81221
 20
227.191
 11
8.65685
 21
227.331
  0
LINE
  8
0
 10
8.65685
 20
227.331
 11
8.53397
 21
227.5
  0
LINE
  8
0
 10
8.53397
 20
227.5
 11
8.44893
 21
227.691
  0
LINE
  8
0
 10
8.44893
 20
227.691
 11
8.40547
 21
227.895
  0
LINE
  8
0
 10
8.40547
 20
227.895
 11
8.40547
 21
228.105
  0
LINE
  8
0
 10
8.40547
 20
228.105
 11
8.44893
 21
228.309
  0
LINE
  8
0
 10
8.44893
 20
228.309
 11
8.53397
 21
228.5
  0
LINE
  8
0
 10
8.53397
 20
228.5
 11
8.65685
 21
228.669
  0
LINE
  8
0
 10
8.65685
 20
228.669
 11
8.81221
 21
228.809
  0
LINE
  8
0
 10
8.81221
 20
228.809
 11
8.99326
 21
228.914
  0
LINE
  8
0
 10
8.99326
 20
228.914
 11
9.19208
 21
228.978
  0
LINE
  8
0
 10
9.19208
 20
228.978
 11
9.39999
 21
229
  0
LINE
  8
0
 10
9.39999
 20
229
 11
9.60791
 21
228.978
  0
LINE
  8
0
 10
9.60791
 20
228.978
 11
9.80673
 21
228.914
  0
LINE
  8
0
 10
9.80673
 20
228.914
 11
9.98778
 21
228.809
  0
LINE
  8
0
 10
9.98778
 20
228.809
 11
10.1431
 21
228.669
  0
LINE
  8
0
 10
10.1431
 20
228.669
 11
10.266
 21
228.5
  0
LINE
  8
0
 10
10.266
 20
228.5
 11
10.351
 21
228.309
  0
LINE
  8
0
 10
10.351
 20
228.309
 11
10.3945
 21
228.105
  0
LINE
  8
0
 10
10.3945
 20
228.105
 11
10.3945
 21
227.895
  0
LINE
  8
0
 10
10.3945
 20
227.895
 11
10.351
 21
227.691
  0
LINE
  8
0
 10
10.351
 20
227.691
 11
10.266
 21
227.5
  0
LINE
  8
0
 10
10.266
 20
227.5
 11
10.1431
 21
227.331
  0
LINE
  8
0
 10
10.1431
 20
227.331
 11
9.98778
 21
227.191
  0
LINE
  8
0
 10
9.98778
 20
227.191
 11
9.80673
 21
227.086
  0
LINE
  8
0
 10
9.80673
 20
227.086
 11
9.60791
 21
227.022
  0
LINE
  8
0
 10
9.60791
 20
227.022
 11
9.39999
 21
227
  0
LINE
  8
0
 10
9.39999
 20
227
 11
9.19208
 21
227.022
  0
LINE
  8
0
 10
79.6921
 20
227.022
 11
79.4933
 21
227.086
  0
LINE
  8
0
 10
79.4933
 20
227.086
 11
79.3122
 21
227.191
  0
LINE
  8
0
 10
79.3122
 20
227.191
 11
79.1568
 21
227.331
  0
LINE
  8
0
 10
79.1568
 20
227.331
 11
79.034
 21
227.5
  0
LINE
  8
0
 10
79.034
 20
227.5
 11
78.9489
 21
227.691
  0
LINE
  8
0
 10
78.9489
 20
227.691
 11
78.9055
 21
227.895
  0
LINE
  8
0
 10
78.9055
 20
227.895
 11
78.9055
 21
228.105
  0
LINE
  8
0
 10
78.9055
 20
228.105
 11
78.9489
 21
228.309
  0
LINE
  8
0
 10
78.9489
 20
228.309
 11
79.034
 21
228.5
  0
LINE
  8
0
 10
79.034
 20
228.5
 11
79.1568
 21
228.669
  0
LINE
  8
0
 10
79.1568
 20
228.669
 11
79.3122
 21
228.809
  0
LINE
  8
0
 10
79.3122
 20
228.809
 11
79.4933
 21
228.914
  0
LINE
  8
0
 10
79.4933
 20
228.914
 11
79.6921
 21
228.978
  0
LINE
  8
0
 10
79.6921
 20
228.978
 11
79.9
 21
229
  0
LINE
  8
0
 10
79.9
 20
229
 11
80.1079
 21
228.978
  0
LINE
  8
0
 10
80.1079
 20
228.978
 11
80.3067
 21
228.914
  0
LINE
  8
0
 10
80.3067
 20
228.914
 11
80.4878
 21
228.809
  0
LINE
  8
0
 10
80.4878
 20
228.809
 11
80.6431
 21
228.669
  0
LINE
  8
0
 10
80.6431
 20
228.669
 11
80.766
 21
228.5
  0
LINE
  8
0
 10
80.766
 20
228.5
 11
80.851
 21
228.309
  0
LINE
  8
0
 10
80.851
 20
228.309
 11
80.8945
 21
228.105
  0
LINE
  8
0
 10
80.8945
 20
228.105
 11
80.8945
 21
227.895
  0
LINE
  8
0
 10
80.8945
 20
227.895
 11
80.851
 21
227.691
  0
LINE
  8
0
 10
80.851
 20
227.691
 11
80.766
 21
227.5
  0
LINE
  8
0
 10
80.766
 20
227.5
 11
80.6431
 21
227.331
  0
LINE
  8
0
 10
80.6431
 20
227.331
 11
80.4878
 21
227.191
  0
LINE
  8
0
 10
80.4878
 20
227.191
 11
80.3067
 21
227.086
  0
LINE
  8
0
 10
80.3067
 20
227.086
 11
80.1079
 21
227.022
  0
LINE
  8
0
 10
80.1079
 20
227.022
 11
79.9
 21
227
  0
LINE
  8
0
 10
79.9
 20
227
 11
79.6921
 21
227.022
  0
LINE
  8
0
 10
157
 20
220
 11
0
 21
220
  0
LINE
  8
0
 10
0
 20
220
 11
0
 21
212
  0
LINE
  8
0
 10
0
 20
212
 11
157
 21
212
  0
LINE
  8
0
 10
157
 20
212
 11
157
 21
220
  0
LINE
  8
0
 10
9.19208
 20
215.022
 11
8.99326
 21
215.086
  0
LINE
  8
0
 10
8.99326
 20
215.086
 11
8.81221
 21
215.191
  0
LINE
  8
0
 10
8.81221
 20
215.191
 11
8.65685
 21
215.331
  0
LINE
  8
0
 10
8.65685
 20
215.331
 11
8.53397
 21
215.5
  0
LINE
  8
0
 10
8.53397
 20
215.5
 11
8.44893
 21
215.691
  0
LINE
  8
0
 10
8.44893
 20
215.691
 11
8.40547
 21
215.895
  0
LINE
  8
0
 10
8.40547
 20
215.895
 11
8.40547
 21
216.105
  0
LINE
  8
0
 10
8.40547
 20
216.105
 11
8.44893
 21
216.309
  0
LINE
  8
0
 10
8.44893
 20
216.309
 11
8.53397
 21
216.5
  0
LINE
  8
0
 10
8.53397
 20
216.5
 11
8.65685
 21
216.669
  0
LINE
  8
0
 10
8.65685
 20
216.669
 11
8.81221
 21
216.809
  0
LINE
  8
0
 10
8.81221
 20
216.809
 11
8.99326
 21
216.914
  0
LINE
  8
0
 10
8.99326
 20
216.914
 11
9.19208
 21
216.978
  0
LINE
  8
0
 10
9.19208
 20
216.978
 11
9.39999
 21
217
  0
LINE
  8
0
 10
9.39999
 20
217
 11
9.60791
 21
216.978
  0
LINE
  8
0
 10
9.60791
 20
216.978
 11
9.80673
 21
216.914
  0
LINE
  8
0
 10
9.80673
 20
216.914
 11
9.98778
 21
216.809
  0
LINE
  8
0
 10
9.98778
 20
216.809
 11
10.1431
 21
216.669
  0
LINE
  8
0
 10
10.1431
 20
216.669
 11
10.266
 21
216.5
  0
LINE
  8
0
 10
10.266
 20
216.5
 11
10.351
 21
216.309
  0
LINE
  8
0
 10
10.351
 20
216.309
 11
10.3945
 21
216.105
  0
LINE
  8
0
 10
10.3945
 20
216.105
 11
10.3945
 21
215.895
  0
LINE
  8
0
 10
10.3945
 20
215.895
 11
10.351
 21
215.691
  0
LINE
  8
0
 10
10.351
 20
215.691
 11
10.266
 21
215.5
  0
LINE
  8
0
 10
10.266
 20
215.5
 11
10.1431
 21
215.331
  0
LINE
  8
0
 10
10.1431
 20
215.331
 11
9.98778
 21
215.191
  0
LINE
  8
0
 10
9.98778
 20
215.191
 11
9.80673
 21
215.086
  0
LINE
  8
0
 10
9.80673
 20
215.086
 11
9.60791
 21
215.022
  0
LINE
  8
0
 10
9.60791
 20
215.022
 11
9.39999
 21
215
  0
LINE
  8
0
 10
9.39999
 20
215
 11
9.19208
 21
215.022
  0
LINE
  8
0
 10
79.6921
 20
215.022
 11
79.4933
 21
215.086
  0
LINE
  8
0
 10
79.4933
 20
215.086
 11
79.3122
 21
215.191
  0
LINE
  8
0
 10
79.3122
 20
215.191
 11
79.1568
 21
215.331
  0
LINE
  8
0
 10
79.1568
 20
215.331
 11
79.034
 21
215.5
  0
LINE
  8
0
 10
79.034
 20
215.5
 11
78.9489
 21
215.691
  0
LINE
  8
0
 10
78.9489
 20
215.691
 11
78.9055
 21
215.895
  0
LINE
  8
0
 10
78.9055
 20
215.895
 11
78.9055
 21
216.105
  0
LINE
  8
0
 10
78.9055
 20
216.105
 11
78.9489
 21
216.309
  0
LINE
  8
0
 10
78.9489
 20
216.309
 11
79.034
 21
216.5
  0
LINE
  8
0
 10
79.034
 20
216.5
 11
79.1568
 21
216.669
  0
LINE
  8
0
 10
79.1568
 20
216.669
 11
79.3122
 21
216.809
  0
LINE
  8
0
 10
79.3122
 20
216.809
 11
79.4933
 21
216.914
  0
LINE
  8
0
 10
79.4933
 20
216.914
 11
79.6921
 21
216.978
  0
LINE
  8
0
 10
79.6921
 20
216.978
 11
79.9
 21
217
  0
LINE
  8
0
 10
79.9
 20
217
 11
80.1079
 21
216.978
  0
LINE
  8
0
 10
80.1079
 20
216.978
 11
80.3067
 21
216.914
  0
LINE
  8
0
 10
80.3067
 20
216.914
 11
80.4878
 21
216.809
  0
LINE
  8
0
 10
80.4878
 20
216.809
 11
80.6431
 21
216.669
  0
LINE
  8
0
 10
80.6431
 20
216.669
 11
80.766
 21
216.5
  0
LINE
  8
0
 10
80.766
 20
216.5
 11
80.851
 21
216.309
  0
LINE
  8
0
 10
80.851
 20
216.309
 11
80.8945
 21
216.105
  0
LINE
  8
0
 10
80.8945
 20
216.105
 11
80.8945
 21
215.895
  0
LINE
  8
0
 10
80.8945
 20
215.895
 11
80.851
 21
215.691
  0
LINE
  8
0
 10
80.851
 20
215.691
 11
80.766
 21
215.5
  0
LINE
  8
0
 10
80.766
 20
215.5
 11
80.6431
 21
215.331
  0
LINE
  8
0
 10
80.6431
 20
215.331
 11
80.4878
 21
215.191
  0
LINE
  8
0
 10
80.4878
 20
215.191
 11
80.3067
 21
215.086
  0
LINE
  8
0
 10
80.3067
 20
215.086
 11
80.1079
 21
215.022
  0
LINE
  8
0
 10
80.1079
 20
215.022
 11
79.9
 21
215
  0
LINE
  8
0
 10
79.9
 20
215
 11
79.6921
 21
215.022
  0
LINE
  8
0
 10
163
 20
205
 11
0
 21
205
  0
LINE
  8
0
 10
0
 20
205
 11
0
 21
160
  0
LINE
  8
0
 10
0
 20
160
 11
163
 21
160
  0
LINE
  8
0
 10
163
 20
160
 11
163
 21
205
  0
LINE
  8
0
 10
5.3432
 20
181.008
 11
5.03647
 21
181.073
  0
LINE
  8
0
 10
5.03647
 20
181.073
 11
4.74998
 21
181.201
  0
LINE
  8
0
 10
4.74998
 20
181.201
 11
4.49629
 21
181.385
  0
LINE
  8
0
 10
4.49629
 20
181.385
 11
4.28647
 21
181.618
  0
LINE
  8
0
 10
4.28647
 20
181.618
 11
4.12967
 21
181.89
  0
LINE
  8
0
 10
4.12967
 20
181.89
 11
4.03278
 21
182.188
  0
LINE
  8
0
 10
4.03278
 20
182.188
 11
4
 21
182.5
  0
LINE
  8
0
 10
4
 20
182.5
 11
4.03278
 21
182.812
  0
LINE
  8
0
 10
4.03278
 20
182.812
 11
4.12967
 21
183.11
  0
LINE
  8
0
 10
4.12967
 20
183.11
 11
4.28647
 21
183.382
  0
LINE
  8
0
 10
4.28647
 20
183.382
 11
4.49629
 21
183.615
  0
LINE
  8
0
 10
4.49629
 20
183.615
 11
4.75
 21
183.799
  0
LINE
  8
0
 10
4.75
 20
183.799
 11
5.03647
 21
183.927
  0
LINE
  8
0
 10
5.03647
 20
183.927
 11
5.3432
 21
183.992
  0
LINE
  8
0
 10
5.3432
 20
183.992
 11
5.65678
 21
183.992
  0
LINE
  8
0
 10
5.65678
 20
183.992
 11
5.96352
 21
183.927
  0
LINE
  8
0
 10
5.96352
 20
183.927
 11
6.25
 21
183.799
  0
LINE
  8
0
 10
6.25
 20
183.799
 11
6.50369
 21
183.615
  0
LINE
  8
0
 10
6.50369
 20
183.615
 11
6.71352
 21
183.382
  0
LINE
  8
0
 10
6.71352
 20
183.382
 11
6.87032
 21
183.11
  0
LINE
  8
0
 10
6.87032
 20
183.11
 11
6.96721
 21
182.812
  0
LINE
  8
0
 10
6.96721
 20
182.812
 11
7
 21
182.5
  0
LINE
  8
0
 10
7
 20
182.5
 11
6.96721
 21
182.188
  0
LINE
  8
0
 10
6.96721
 20
182.188
 11
6.87032
 21
181.89
  0
LINE
  8
0
 10
6.87032
 20
181.89
 11
6.71352
 21
181.618
  0
LINE
  8
0
 10
6.71352
 20
181.618
 11
6.50369
 21
181.385
  0
LINE
  8
0
 10
6.50369
 20
181.385
 11
6.25
 21
181.201
  0
LINE
  8
0
 10
6.25
 20
181.201
 11
5.96352
 21
181.073
  0
LINE
  8
0
 10
5.96352
 20
181.073
 11
5.65678
 21
181.008
  0
LINE
  8
0
 10
5.65678
 20
181.008
 11
5.3432
 21
181.008
  0
LINE
  8
0
 10
94.3432
 20
181.008
 11
94.0365
 21
181.073
  0
LINE
  8
0
 10
94.0365
 20
181.073
 11
93.75
 21
181.201
  0
LINE
  8
0
 10
93.75
 20
181.201
 11
93.4963
 21
181.385
  0
LINE
  8
0
 10
93.4963
 20
181.385
 11
93.2865
 21
181.618
  0
LINE
  8
0
 10
93.2865
 20
181.618
 11
93.1297
 21
181.89
  0
LINE
  8
0
 10
93.1297
 20
181.89
 11
93.0328
 21
182.188
  0
LINE
  8
0
 10
93.0328
 20
182.188
 11
93
 21
182.5
  0
LINE
  8
0
 10
93
 20
182.5
 11
93.0328
 21
182.812
  0
LINE
  8
0
 10
93.0328
 20
182.812
 11
93.1297
 21
183.11
  0
LINE
  8
0
 10
93.1297
 20
183.11
 11
93.2865
 21
183.382
  0
LINE
  8
0
 10
93.2865
 20
183.382
 11
93.4963
 21
183.615
  0
LINE
  8
0
 10
93.4963
 20
183.615
 11
93.75
 21
183.799
  0
LINE
  8
0
 10
93.75
 20
183.799
 11
94.0365
 21
183.927
  0
LINE
  8
0
 10
94.0365
 20
183.927
 11
94.3432
 21
183.992
  0
LINE
  8
0
 10
94.3432
 20
183.992
 11
94.6568
 21
183.992
  0
LINE
  8
0
 10
94.6568
 20
183.992
 11
94.9635
 21
183.927
  0
LINE
  8
0
 10
94.9635
 20
183.927
 11
95.25
 21
183.799
  0
LINE
  8
0
 10
95.25
 20
183.799
 11
95.5037
 21
183.615
  0
LINE
  8
0
 10
95.5037
 20
183.615
 11
95.7135
 21
183.382
  0
LINE
  8
0
 10
95.7135
 20
183.382
 11
95.8703
 21
183.11
  0
LINE
  8
0
 10
95.8703
 20
183.11
 11
95.9672
 21
182.812
  0
LINE
  8
0
 10
95.9672
 20
182.812
 11
96
 21
182.5
  0
LINE
  8
0
 10
96
 20
182.5
 11
95.9672
 21
182.188
  0
LINE
  8
0
 10
95.9672
 20
182.188
 11
95.8703
 21
181.89
  0
LINE
  8
0
 10
95.8703
 20
181.89
 11
95.7135
 21
181.618
  0
LINE
  8
0
 10
95.7135
 20
181.618
 11
95.5037
 21
181.385
  0
LINE
  8
0
 10
95.5037
 20
181.385
 11
95.25
 21
181.201
  0
LINE
  8
0
 10
95.25
 20
181.201
 11
94.9635
 21
181.073
  0
LINE
  8
0
 10
94.9635
 20
181.073
 11
94.6568
 21
181.008
  0
LINE
  8
0
 10
94.6568
 20
181.008
 11
94.3432
 21
181.008
  0
LINE
  8
0
 10
157.343
 20
181.008
 11
157.036
 21
181.073
  0
LINE
  8
0
 10
157.036
 20
181.073
 11
156.75
 21
181.201
  0
LINE
  8
0
 10
156.75
 20
181.201
 11
156.496
 21
181.385
  0
LINE
  8
0
 10
156.496
 20
181.385
 11
156.286
 21
181.618
  0
LINE
  8
0
 10
156.286
 20
181.618
 11
156.13
 21
181.89
  0
LINE
  8
0
 10
156.13
 20
181.89
 11
156.033
 21
182.188
  0
LINE
  8
0
 10
156.033
 20
182.188
 11
156
 21
182.5
  0
LINE
  8
0
 10
156
 20
182.5
 11
156.033
 21
182.812
  0
LINE
  8
0
 10
156.033
 20
182.812
 11
156.13
 21
183.11
  0
LINE
  8
0
 10
156.13
 20
183.11
 11
156.286
 21
183.382
  0
LINE
  8
0
 10
156.286
 20
183.382
 11
156.496
 21
183.615
  0
LINE
  8
0
 10
156.496
 20
183.615
 11
156.75
 21
183.799
  0
LINE
  8
0
 10
156.75
 20
183.799
 11
157.036
 21
183.927
  0
LINE
  8
0
 10
157.036
 20
183.927
 11
157.343
 21
183.992
  0
LINE
  8
0
 10
157.343
 20
183.992
 11
157.657
 21
183.992
  0
LINE
  8
0
 10
157.657
 20
183.992
 11
157.964
 21
183.927
  0
LINE
  8
0
 10
157.964
 20
183.927
 11
158.25
 21
183.799
  0
LINE
  8
0
 10
158.25
 20
183.799
 11
158.504
 21
183.615
  0
LINE
  8
0
 10
158.504
 20
183.615
 11
158.714
 21
183.382
  0
LINE
  8
0
 10
158.714
 20
183.382
 11
158.87
 21
183.11
  0
LINE
  8
0
 10
158.87
 20
183.11
 11
158.967
 21
182.812
  0
LINE
  8
0
 10
158.967
 20
182.812
 11
159
 21
182.5
  0
LINE
  8
0
 10
159
 20
182.5
 11
158.967
 21
182.188
  0
LINE
  8
0
 10
158.967
 20
182.188
 11
158.87
 21
181.89
  0
LINE
  8
0
 10
158.87
 20
181.89
 11
158.714
 21
181.618
  0
LINE
  8
0
 10
158.714
 20
181.618
 11
158.504
 21
181.385
  0
LINE
  8
0
 10
158.504
 20
181.385
 11
158.25
 21
181.201
  0
LINE
  8
0
 10
158.25
 20
181.201
 11
157.964
 21
181.073
  0
LINE
  8
0
 10
157.964
 20
181.073
 11
157.657
 21
181.008
  0
LINE
  8
0
 10
157.657
 20
181.008
 11
157.343
 21
181.008
  0
LINE
  8
0
 10
432
 20
171
 11
429
 21
171
  0
LINE
  8
0
 10
429
 20
171
 11
429
 21
170
  0
LINE
  8
0
 10
429
 20
170
 11
426.5
 21
170
  0
LINE
  8
0
 10
426.5
 20
170
 11
426.5
 21
171
  0
LINE
  8
0
 10
426.5
 20
171
 11
421
 21
171
  0
LINE
  8
0
 10
421
 20
171
 11
421
 21
174
  0
LINE
  8
0
 10
421
 20
174
 11
426.5
 21
174
  0
LINE
  8
0
 10
426.5
 20
174
 11
426.5
 21
175
  0
LINE
  8
0
 10
426.5
 20
175
 11
429
 21
175
  0
LINE
  8
0
 10
429
 20
175
 11
429
 21
174
  0
LINE
  8
0
 10
429
 20
174
 11
432
 21
174
  0
LINE
  8
0
 10
432
 20
174
 11
432
 21
184.4
  0
LINE
  8
0
 10
432
 20
184.4
 11
424
 21
184.4
  0
LINE
  8
0
 10
424
 20
184.4
 11
424
 21
187.4
  0
LINE
  8
0
 10
424
 20
187.4
 11
432
 21
187.4
  0
LINE
  8
0
 10
432
 20
187.4
 11
432
 21
192
  0
LINE
  8
0
 10
432
 20
192
 11
300
 21
192
  0
LINE
  8
0
 10
300
 20
192
 11
300
 21
187.4
  0
LINE
  8
0
 10
300
 20
187.4
 11
308
 21
187.4
  0
LINE
  8
0
 10
308
 20
187.4
 11
308
 21
184.4
  0
LINE
  8
0
 10
308
 20
184.4
 11
300
 21
184.4
  0
LINE
  8
0
 10
300
 20
184.4
 11
300
 21
174
  0
LINE
  8
0
 10
300
 20
174
 11
303
 21
174
  0
LINE
  8
0
 10
303
 20
174
 11
303
 21
175
  0
LINE
  8
0
 10
303
 20
175
 11
305.5
 21
175
  0
LINE
  8
0
 10
305.5
 20
175
 11
305.5
 21
174
  0
LINE
  8
0
 10
305.5
 20
174
 11
311
 21
174
  0
LINE
  8
0
 10
311
 20
174
 11
311
 21
171
  0
LINE
  8
0
 10
311
 20
171
 11
305.5
 21
171
  0
LINE
  8
0
 10
305.5
 20
171
 11
305.5
 21
170
  0
LINE
  8
0
 10
305.5
 20
170
 11
303
 21
170
  0
LINE
  8
0
 10
303
 20
170
 11
303
 21
171
  0
LINE
  8
0
 10
303
 20
171
 11
300
 21
171
  0
LINE
  8
0
 10
300
 20
171
 11
300
 21
150
  0
LINE
  8
0
 10
300
 20
150
 11
432
 21
150
  0
LINE
  8
0
 10
432
 20
150
 11
432
 21
171
  0
LINE
  8
0
 10
326.4
 20
165
 11
326.4
 21
184.5
  0
LINE
  8
0
 10
326.4
 20
184.5
 11
405.6
 21
184.5
  0
LINE
  8
0
 10
405.6
 20
184.5
 11
405.6
 21
165
  0
LINE
  8
0
 10
405.6
 20
165
 11
326.4
 21
165
  0
LINE
  8
0
 10
415.288
 20
163.8
 11
415.288
 21
166.8
  0
LINE
  8
0
 10
415.288
 20
166.8
 11
423.288
 21
166.8
  0
LINE
  8
0
 10
423.288
 20
166.8
 11
423.288
 21
163.8
  0
LINE
  8
0
 10
423.288
 20
163.8
 11
415.288
 21
163.8
  0
LINE
  8
0
 10
308.712
 20
163.8
 11
308.712
 21
166.8
  0
LINE
  8
0
 10
308.712
 20
166.8
 11
316.712
 21
166.8
  0
LINE
  8
0
 10
316.712
 20
166.8
 11
316.712
 21
163.8
  0
LINE
  8
0
 10
316.712
 20
163.8
 11
308.712
 21
163.8
  0
LINE
  8
0
 10
163
 20
145
 11
0
 21
145
  0
LINE
  8
0
 10
0
 20
145
 11
0
 21
100
  0
LINE
  8
0
 10
0
 20
100
 11
163
 21
100
  0
LINE
  8
0
 10
163
 20
100
 11
163
 21
145
  0
LINE
  8
0
 10
157.343
 20
121.008
 11
157.036
 21
121.073
  0
LINE
  8
0
 10
157.036
 20
121.073
 11
156.75
 21
121.201
  0
LINE
  8
0
 10
156.75
 20
121.201
 11
156.496
 21
121.385
  0
LINE
  8
0
 10
156.496
 20
121.385
 11
156.286
 21
121.618
  0
LINE
  8
0
 10
156.286
 20
121.618
 11
156.13
 21
121.89
  0
LINE
  8
0
 10
156.13
 20
121.89
 11
156.033
 21
122.188
  0
LINE
  8
0
 10
156.033
 20
122.188
 11
156
 21
122.5
  0
LINE
  8
0
 10
156
 20
122.5
 11
156.033
 21
122.812
  0
LINE
  8
0
 10
156.033
 20
122.812
 11
156.13
 21
123.11
  0
LINE
  8
0
 10
156.13
 20
123.11
 11
156.286
 21
123.382
  0
LINE
  8
0
 10
156.286
 20
123.382
 11
156.496
 21
123.615
  0
LINE
  8
0
 10
156.496
 20
123.615
 11
156.75
 21
123.799
  0
LINE
  8
0
 10
156.75
 20
123.799
 11
157.036
 21
123.927
  0
LINE
  8
0
 10
157.036
 20
123.927
 11
157.343
 21
123.992
  0
LINE
  8
0
 10
157.343
 20
123.992
 11
157.657
 21
123.992
  0
LINE
  8
0
 10
157.657
 20
123.992
 11
157.964
 21
123.927
  0
LINE
  8
0
 10
157.964
 20
123.927
 11
158.25
 21
123.799
  0
LINE
  8
0
 10
158.25
 20
123.799
 11
158.504
 21
123.615
  0
LINE
  8
0
 10
158.504
 20
123.615
 11
158.714
 21
123.382
  0
LINE
  8
0
 10
158.714
 20
123.382
 11
158.87
 21
123.11
  0
LINE
  8
0
 10
158.87
 20
123.11
 11
158.967
 21
122.812
  0
LINE
  8
0
 10
158.967
 20
122.812
 11
159
 21
122.5
  0
LINE
  8
0
 10
159
 20
122.5
 11
158.967
 21
122.188
  0
LINE
  8
0
 10
158.967
 20
122.188
 11
158.87
 21
121.89
  0
LINE
  8
0
 10
158.87
 20
121.89
 11
158.714
 21
121.618
  0
LINE
  8
0
 10
158.714
 20
121.618
 11
158.504
 21
121.385
  0
LINE
  8
0
 10
158.504
 20
121.385
 11
158.25
 21
121.201
  0
LINE
  8
0
 10
158.25
 20
121.201
 11
157.964
 21
121.073
  0
LINE
  8
0
 10
157.964
 20
121.073
 11
157.657
 21
121.008
  0
LINE
  8
0
 10
157.657
 20
121.008
 11
157.343
 21
121.008
  0
LINE
  8
0
 10
94.3432
 20
121.008
 11
94.0365
 21
121.073
  0
LINE
  8
0
 10
94.0365
 20
121.073
 11
93.75
 21
121.201
  0
LINE
  8
0
 10
93.75
 20
121.201
 11
93.4963
 21
121.385
  0
LINE
  8
0
 10
93.4963
 20
121.385
 11
93.2865
 21
121.618
  0
LINE
  8
0
 10
93.2865
 20
121.618
 11
93.1297
 21
121.89
  0
LINE
  8
0
 10
93.1297
 20
121.89
 11
93.0328
 21
122.188
  0
LINE
  8
0
 10
93.0328
 20
122.188
 11
93
 21
122.5
  0
LINE
  8
0
 10
93
 20
122.5
 11
93.0328
 21
122.812
  0
LINE
  8
0
 10
93.0328
 20
122.812
 11
93.1297
 21
123.11
  0
LINE
  8
0
 10
93.1297
 20
123.11
 11
93.2865
 21
123.382
  0
LINE
  8
0
 10
93.2865
 20
123.382
 11
93.4963
 21
123.615
  0
LINE
  8
0
 10
93.4963
 20
123.615
 11
93.75
 21
123.799
  0
LINE
  8
0
 10
93.75
 20
123.799
 11
94.0365
 21
123.927
  0
LINE
  8
0
 10
94.0365
 20
123.927
 11
94.3432
 21
123.992
  0
LINE
  8
0
 10
94.3432
 20
123.992
 11
94.6568
 21
123.992
  0
LINE
  8
0
 10
94.6568
 20
123.992
 11
94.9635
 21
123.927
  0
LINE
  8
0
 10
94.9635
 20
123.927
 11
95.25
 21
123.799
  0
LINE
  8
0
 10
95.25
 20
123.799
 11
95.5037
 21
123.615
  0
LINE
  8
0
 10
95.5037
 20
123.615
 11
95.7135
 21
123.382
  0
LINE
  8
0
 10
95.7135
 20
123.382
 11
95.8703
 21
123.11
  0
LINE
  8
0
 10
95.8703
 20
123.11
 11
95.9672
 21
122.812
  0
LINE
  8
0
 10
95.9672
 20
122.812
 11
96
 21
122.5
  0
LINE
  8
0
 10
96
 20
122.5
 11
95.9672
 21
122.188
  0
LINE
  8
0
 10
95.9672
 20
122.188
 11
95.8703
 21
121.89
  0
LINE
  8
0
 10
95.8703
 20
121.89
 11
95.7135
 21
121.618
  0
LINE
  8
0
 10
95.7135
 20
121.618
 11
95.5037
 21
121.385
  0
LINE
  8
0
 10
95.5037
 20
121.385
 11
95.25
 21
121.201
  0
LINE
  8
0
 10
95.25
 20
121.201
 11
94.9635
 21
121.073
  0
LINE
  8
0
 10
94.9635
 20
121.073
 11
94.6568
 21
121.008
  0
LINE
  8
0
 10
94.6568
 20
121.008
 11
94.3432
 21
121.008
  0
LINE
  8
0
 10
5.3432
 20
121.008
 11
5.03647
 21
121.073
  0
LINE
  8
0
 10
5.03647
 20
121.073
 11
4.74998
 21
121.201
  0
LINE
  8
0
 10
4.74998
 20
121.201
 11
4.49629
 21
121.385
  0
LINE
  8
0
 10
4.49629
 20
121.385
 11
4.28647
 21
121.618
  0
LINE
  8
0
 10
4.28647
 20
121.618
 11
4.12967
 21
121.89
  0
LINE
  8
0
 10
4.12967
 20
121.89
 11
4.03278
 21
122.188
  0
LINE
  8
0
 10
4.03278
 20
122.188
 11
4
 21
122.5
  0
LINE
  8
0
 10
4
 20
122.5
 11
4.03278
 21
122.812
  0
LINE
  8
0
 10
4.03278
 20
122.812
 11
4.12967
 21
123.11
  0
LINE
  8
0
 10
4.12967
 20
123.11
 11
4.28647
 21
123.382
  0
LINE
  8
0
 10
4.28647
 20
123.382
 11
4.49629
 21
123.615
  0
LINE
  8
0
 10
4.49629
 20
123.615
 11
4.75
 21
123.799
  0
LINE
  8
0
 10
4.75
 20
123.799
 11
5.03647
 21
123.927
  0
LINE
  8
0
 10
5.03647
 20
123.927
 11
5.3432
 21
123.992
  0
LINE
  8
0
 10
5.3432
 20
123.992
 11
5.65678
 21
123.992
  0
LINE
  8
0
 10
5.65678
 20
123.992
 11
5.96352
 21
123.927
  0
LINE
  8
0
 10
5.96352
 20
123.927
 11
6.25
 21
123.799
  0
LINE
  8
0
 10
6.25
 20
123.799
 11
6.50369
 21
123.615
  0
LINE
  8
0
 10
6.50369
 20
123.615
 11
6.71352
 21
123.382
  0
LINE
  8
0
 10
6.71352
 20
123.382
 11
6.87032
 21
123.11
  0
LINE
  8
0
 10
6.87032
 20
123.11
 11
6.96721
 21
122.812
  0
LINE
  8
0
 10
6.96721
 20
122.812
 11
7
 21
122.5
  0
LINE
  8
0
 10
7
 20
122.5
 11
6.96721
 21
122.188
  0
LINE
  8
0
 10
6.96721
 20
122.188
 11
6.87032
 21
121.89
  0
LINE
  8
0
 10
6.87032
 20
121.89
 11
6.71352
 21
121.618
  0
LINE
  8
0
 10
6.71352
 20
121.618
 11
6.50369
 21
121.385
  0
LINE
  8
0
 10
6.50369
 20
121.385
 11
6.25
 21
121.201
  0
LINE
  8
0
 10
6.25
 20
121.201
 11
5.96352
 21
121.073
  0
LINE
  8
0
 10
5.96352
 20
121.073
 11
5.65678
 21
121.008
  0
LINE
  8
0
 10
5.65678
 20
121.008
 11
5.3432
 21
121.008
  0
LINE
  8
0
 10
326.4
 20
129.15
 11
405.6
 21
129.15
  0
LINE
  8
0
 10
405.6
 20
129.15
 11
405.6
 21
108.9
  0
LINE
  8
0
 10
405.6
 20
108.9
 11
432
 21
108.9
  0
LINE
  8
0
 10
432
 20
108.9
 11
432
 21
121
  0
LINE
  8
0
 10
432
 20
121
 11
429
 21
121
  0
LINE
  8
0
 10
429
 20
121
 11
429
 21
120
  0
LINE
  8
0
 10
429
 20
120
 11
426.5
 21
120
  0
LINE
  8
0
 10
426.5
 20
120
 11
426.5
 21
121
  0
LINE
  8
0
 10
426.5
 20
121
 11
421
 21
121
  0
LINE
  8
0
 10
421
 20
121
 11
421
 21
124
  0
LINE
  8
0
 10
421
 20
124
 11
426.5
 21
124
  0
LINE
  8
0
 10
426.5
 20
124
 11
426.5
 21
125
  0
LINE
  8
0
 10
426.5
 20
125
 11
429
 21
125
  0
LINE
  8
0
 10
429
 20
125
 11
429
 21
124
  0
LINE
  8
0
 10
429
 20
124
 11
432
 21
124
  0
LINE
  8
0
 10
432
 20
124
 11
432
 21
134.4
  0
LINE
  8
0
 10
432
 20
134.4
 11
424
 21
134.4
  0
LINE
  8
0
 10
424
 20
134.4
 11
424
 21
137.4
  0
LINE
  8
0
 10
424
 20
137.4
 11
432
 21
137.4
  0
LINE
  8
0
 10
432
 20
137.4
 11
432
 21
140.4
  0
LINE
  8
0
 10
432
 20
140.4
 11
300
 21
140.4
  0
LINE
  8
0
 10
300
 20
140.4
 11
300
 21
137.4
  0
LINE
  8
0
 10
300
 20
137.4
 11
308
 21
137.4
  0
LINE
  8
0
 10
308
 20
137.4
 11
308
 21
134.4
  0
LINE
  8
0
 10
308
 20
134.4
 11
300
 21
134.4
  0
LINE
  8
0
 10
300
 20
134.4
 11
300
 21
124
  0
LINE
  8
0
 10
300
 20
124
 11
303
 21
124
  0
LINE
  8
0
 10
303
 20
124
 11
303
 21
125
  0
LINE
  8
0
 10
303
 20
125
 11
305.5
 21
125
  0
LINE
  8
0
 10
305.5
 20
125
 11
305.5
 21
124
  0
LINE
  8
0
 10
305.5
 20
124
 11
311
 21
124
  0
LINE
  8
0
 10
311
 20
124
 11
311
 21
121
  0
LINE
  8
0
 10
311
 20
121
 11
305.5
 21
121
  0
LINE
  8
0
 10
305.5
 20
121
 11
305.5
 21
120
  0
LINE
  8
0
 10
305.5
 20
120
 11
303
 21
120
  0
LINE
  8
0
 10
303
 20
120
 11
303
 21
121
  0
LINE
  8
0
 10
303
 20
121
 11
300
 21
121
  0
LINE
  8
0
 10
300
 20
121
 11
300
 21
108.9
  0
LINE
  8
0
 10
300
 20
108.9
 11
326.4
 21
108.9
  0
LINE
  8
0
 10
326.4
 20
108.9
 11
326.4
 21
129.15
  0
LINE
  8
0
 10
308.712
 20
113.8
 11
308.712
 21
116.8
  0
LINE
  8
0
 10
308.712
 20
116.8
 11
316.712
 21
116.8
  0
LINE
  8
0
 10
316.712
 20
116.8
 11
316.712
 21
113.8
  0
LINE
  8
0
 10
316.712
 20
113.8
 11
308.712
 21
113.8
  0
LINE
  8
0
 10
415.288
 20
113.8
 11
415.288
 21
116.8
  0
LINE
  8
0
 10
415.288
 20
116.8
 11
423.288
 21
116.8
  0
LINE
  8
0
 10
423.288
 20
116.8
 11
423.288
 21
113.8
  0
LINE
  8
0
 10
423.288
 20
113.8
 11
415.288
 21
113.8
  0
LINE
  8
0
 10
132
 20
94
 11
0
 21
94
  0
LINE
  8
0
 10
0
 20
94
 11
0
 21
0
  0
LINE
  8
0
 10
0
 20
0
 11
132
 21
0
  0
LINE
  8
0
 10
132
 20
0
 11
132
 21
94
  0
LINE
  8
0
 10
127.895
 20
83.6055
 11
127.691
 21
83.6489
  0
LINE
  8
0
 10
127.691
 20
83.6489
 11
127.5
 21
83.734
  0
LINE
  8
0
 10
127.5
 20
83.734
 11
127.331
 21
83.8568
  0
LINE
  8
0
 10
127.331
 20
83.8568
 11
127.191
 21
84.0122
  0
LINE
  8
0
 10
127.191
 20
84.0122
 11
127.086
 21
84.1933
  0
LINE
  8
0
 10
127.086
 20
84.1933
 11
127.022
 21
84.3921
  0
LINE
  8
0
 10
127.022
 20
84.3921
 11
127
 21
84.6
  0
LINE
  8
0
 10
127
 20
84.6
 11
127.022
 21
84.8079
  0
LINE
  8
0
 10
127.022
 20
84.8079
 11
127.086
 21
85.0067
  0
LINE
  8
0
 10
127.086
 20
85.0067
 11
127.191
 21
85.1878
  0
LINE
  8
0
 10
127.191
 20
85.1878
 11
127.331
 21
85.3431
  0
LINE
  8
0
 10
127.331
 20
85.3431
 11
127.5
 21
85.466
  0
LINE
  8
0
 10
127.5
 20
85.466
 11
127.691
 21
85.5511
  0
LINE
  8
0
 10
127.691
 20
85.5511
 11
127.895
 21
85.5945
  0
LINE
  8
0
 10
127.895
 20
85.5945
 11
128.105
 21
85.5945
  0
LINE
  8
0
 10
128.105
 20
85.5945
 11
128.309
 21
85.5511
  0
LINE
  8
0
 10
128.309
 20
85.5511
 11
128.5
 21
85.466
  0
LINE
  8
0
 10
128.5
 20
85.466
 11
128.669
 21
85.3431
  0
LINE
  8
0
 10
128.669
 20
85.3431
 11
128.809
 21
85.1878
  0
LINE
  8
0
 10
128.809
 20
85.1878
 11
128.914
 21
85.0067
  0
LINE
  8
0
 10
128.914
 20
85.0067
 11
128.978
 21
84.8079
  0
LINE
  8
0
 10
128.978
 20
84.8079
 11
129
 21
84.6
  0
LINE
  8
0
 10
129
 20
84.6
 11
128.978
 21
84.3921
  0
LINE
  8
0
 10
128.978
 20
84.3921
 11
128.914
 21
84.1933
  0
LINE
  8
0
 10
128.914
 20
84.1933
 11
128.809
 21
84.0122
  0
LINE
  8
0
 10
128.809
 20
84.0122
 11
128.669
 21
83.8568
  0
LINE
  8
0
 10
128.669
 20
83.8568
 11
128.5
 21
83.734
  0
LINE
  8
0
 10
128.5
 20
83.734
 11
128.309
 21
83.6489
  0
LINE
  8
0
 10
128.309
 20
83.6489
 11
128.105
 21
83.6055
  0
LINE
  8
0
 10
128.105
 20
83.6055
 11
127.895
 21
83.6055
  0
LINE
  8
0
 10
3.89546
 20
83.6055
 11
3.69098
 21
83.6489
  0
LINE
  8
0
 10
3.69098
 20
83.6489
 11
3.49998
 21
83.734
  0
LINE
  8
0
 10
3.49998
 20
83.734
 11
3.33086
 21
83.8568
  0
LINE
  8
0
 10
3.33086
 20
83.8568
 11
3.19098
 21
84.0122
  0
LINE
  8
0
 10
3.19098
 20
84.0122
 11
3.08644
 21
84.1933
  0
LINE
  8
0
 10
3.08644
 20
84.1933
 11
3.02185
 21
84.3921
  0
LINE
  8
0
 10
3.02185
 20
84.3921
 11
3
 21
84.6
  0
LINE
  8
0
 10
3
 20
84.6
 11
3.02185
 21
84.8079
  0
LINE
  8
0
 10
3.02185
 20
84.8079
 11
3.08644
 21
85.0067
  0
LINE
  8
0
 10
3.08644
 20
85.0067
 11
3.19098
 21
85.1878
  0
LINE
  8
0
 10
3.19098
 20
85.1878
 11
3.33086
 21
85.3431
  0
LINE
  8
0
 10
3.33086
 20
85.3431
 11
3.5
 21
85.466
  0
LINE
  8
0
 10
3.5
 20
85.466
 11
3.69098
 21
85.5511
  0
LINE
  8
0
 10
3.69098
 20
85.5511
 11
3.89546
 21
85.5945
  0
LINE
  8
0
 10
3.89546
 20
85.5945
 11
4.10452
 21
85.5945
  0
LINE
  8
0
 10
4.10452
 20
85.5945
 11
4.30901
 21
85.5511
  0
LINE
  8
0
 10
4.30901
 20
85.5511
 11
4.5
 21
85.466
  0
LINE
  8
0
 10
4.5
 20
85.466
 11
4.66913
 21
85.3431
  0
LINE
  8
0
 10
4.66913
 20
85.3431
 11
4.80901
 21
85.1878
  0
LINE
  8
0
 10
4.80901
 20
85.1878
 11
4.91354
 21
85.0067
  0
LINE
  8
0
 10
4.91354
 20
85.0067
 11
4.97813
 21
84.8079
  0
LINE
  8
0
 10
4.97813
 20
84.8079
 11
5
 21
84.6
  0
LINE
  8
0
 10
5
 20
84.6
 11
4.97813
 21
84.3921
  0
LINE
  8
0
 10
4.97813
 20
84.3921
 11
4.91354
 21
84.1933
  0
LINE
  8
0
 10
4.91354
 20
84.1933
 11
4.80901
 21
84.0122
  0
LINE
  8
0
 10
4.80901
 20
84.0122
 11
4.66913
 21
83.8568
  0
LINE
  8
0
 10
4.66913
 20
83.8568
 11
4.5
 21
83.734
  0
LINE
  8
0
 10
4.5
 20
83.734
 11
4.30901
 21
83.6489
  0
LINE
  8
0
 10
4.30901
 20
83.6489
 11
4.10452
 21
83.6055
  0
LINE
  8
0
 10
4.10452
 20
83.6055
 11
3.89546
 21
83.6055
  0
LINE
  8
0
 10
127.895
 20
8.40547
 11
127.691
 21
8.44893
  0
LINE
  8
0
 10
127.691
 20
8.44893
 11
127.5
 21
8.53397
  0
LINE
  8
0
 10
127.5
 20
8.53397
 11
127.331
 21
8.65685
  0
LINE
  8
0
 10
127.331
 20
8.65685
 11
127.191
 21
8.81221
  0
LINE
  8
0
 10
127.191
 20
8.81221
 11
127.086
 21
8.99326
  0
LINE
  8
0
 10
127.086
 20
8.99326
 11
127.022
 21
9.19208
  0
LINE
  8
0
 10
127.022
 20
9.19208
 11
127
 21
9.39999
  0
LINE
  8
0
 10
127
 20
9.39999
 11
127.022
 21
9.60791
  0
LINE
  8
0
 10
127.022
 20
9.60791
 11
127.086
 21
9.80673
  0
LINE
  8
0
 10
127.086
 20
9.80673
 11
127.191
 21
9.98778
  0
LINE
  8
0
 10
127.191
 20
9.98778
 11
127.331
 21
10.1431
  0
LINE
  8
0
 10
127.331
 20
10.1431
 11
127.5
 21
10.266
  0
LINE
  8
0
 10
127.5
 20
10.266
 11
127.691
 21
10.351
  0
LINE
  8
0
 10
127.691
 20
10.351
 11
127.895
 21
10.3945
  0
LINE
  8
0
 10
127.895
 20
10.3945
 11
128.105
 21
10.3945
  0
LINE
  8
0
 10
128.105
 20
10.3945
 11
128.309
 21
10.351
  0
LINE
  8
0
 10
128.309
 20
10.351
 11
128.5
 21
10.266
  0
LINE
  8
0
 10
128.5
 20
10.266
 11
128.669
 21
10.1431
  0
LINE
  8
0
 10
128.669
 20
10.1431
 11
128.809
 21
9.98778
  0
LINE
  8
0
 10
128.809
 20
9.98778
 11
128.914
 21
9.80673
  0
LINE
  8
0
 10
128.914
 20
9.80673
 11
128.978
 21
9.60791
  0
LINE
  8
0
 10
128.978
 20
9.60791
 11
129
 21
9.39999
  0
LINE
  8
0
 10
129
 20
9.39999
 11
128.978
 21
9.19208
  0
LINE
  8
0
 10
128.978
 20
9.19208
 11
128.914
 21
8.99326
  0
LINE
  8
0
 10
128.914
 20
8.99326
 11
128.809
 21
8.81221
  0
LINE
  8
0
 10
128.809
 20
8.81221
 11
128.669
 21
8.65685
  0
LINE
  8
0
 10
128.669
 20
8.65685
 11
128.5
 21
8.53397
  0
LINE
  8
0
 10
128.5
 20
8.53397
 11
128.309
 21
8.44893
  0
LINE
  8
0
 10
128.309
 20
8.44893
 11
128.105
 21
8.40547
  0
LINE
  8
0
 10
128.105
 20
8.40547
 11
127.895
 21
8.40547
  0
LINE
  8
0
 10
3.89546
 20
8.40547
 11
3.69098
 21
8.44893
  0
LINE
  8
0
 10
3.69098
 20
8.44893
 11
3.49998
 21
8.53397
  0
LINE
  8
0
 10
3.49998
 20
8.53397
 11
3.33086
 21
8.65685
  0
LINE
  8
0
 10
3.33086
 20
8.65685
 11
3.19098
 21
8.81221
  0
LINE
  8
0
 10
3.19098
 20
8.81221
 11
3.08644
 21
8.99326
  0
LINE
  8
0
 10
3.08644
 20
8.99326
 11
3.02185
 21
9.19208
  0
LINE
  8
0
 10
3.02185
 20
9.19208
 11
3
 21
9.39999
  0
LINE
  8
0
 10
3
 20
9.39999
 11
3.02185
 21
9.60791
  0
LINE
  8
0
 10
3.02185
 20
9.60791
 11
3.08644
 21
9.80673
  0
LINE
  8
0
 10
3.08644
 20
9.80673
 11
3.19098
 21
9.98778
  0
LINE
  8
0
 10
3.19098
 20
9.98778
 11
3.33086
 21
10.1431
  0
LINE
  8
0
 10
3.33086
 20
10.1431
 11
3.5
 21
10.266
  0
LINE
  8
0
 10
3.5
 20
10.266
 11
3.69098
 21
10.351
  0
LINE
  8
0
 10
3.69098
 20
10.351
 11
3.89546
 21
10.3945
  0
LINE
  8
0
 10
3.89546
 20
10.3945
 11
4.10452
 21
10.3945
  0
LINE
  8
0
 10
4.10452
 20
10.3945
 11
4.30901
 21
10.351
  0
LINE
  8
0
 10
4.30901
 20
10.351
 11
4.5
 21
10.266
  0
LINE
  8
0
 10
4.5
 20
10.266
 11
4.66913
 21
10.1431
  0
LINE
  8
0
 10
4.66913
 20
10.1431
 11
4.80901
 21
9.98778
  0
LINE
  8
0
 10
4.80901
 20
9.98778
 11
4.91354
 21
9.80673
  0
LINE
  8
0
 10
4.91354
 20
9.80673
 11
4.97813
 21
9.60791
  0
LINE
  8
0
 10
4.97813
 20
9.60791
 11
5
 21
9.39999
  0
LINE
  8
0
 10
5
 20
9.39999
 11
4.97813
 21
9.19208
  0
LINE
  8
0
 10
4.97813
 20
9.19208
 11
4.91354
 21
8.99326
  0
LINE
  8
0
 10
4.91354
 20
8.99326
 11
4.80901
 21
8.81221
  0
LINE
  8
0
 10
4.80901
 20
8.81221
 11
4.66913
 21
8.65685
  0
LINE
  8
0
 10
4.66913
 20
8.65685
 11
4.5
 21
8.53397
  0
LINE
  8
0
 10
4.5
 20
8.53397
 11
4.30901
 21
8.44893
  0
LINE
  8
0
 10
4.30901
 20
8.44893
 11
4.10452
 21
8.40547
  0
LINE
  8
0
 10
4.10452
 20
8.40547
 11
3.89546
 21
8.40547
  0
LINE
  8
0
 10
432
 20
81.5
 11
300
 21
81.5
  0
LINE
  8
0
 10
300
 20
81.5
 11
300
 21
50
  0
LINE
  8
0
 10
300
 20
50
 11
432
 21
50
  0
LINE
  8
0
 10
432
 20
50
 11
432
 21
81.5
  0
LINE
  8
0
 10
343.477
 20
57.6274
 11
342.455
 21
57.8447
  0
LINE
  8
0
 10
342.455
 20
57.8447
 11
341.5
 21
58.2699
  0
LINE
  8
0
 10
341.5
 20
58.2699
 11
340.654
 21
58.8843
  0
LINE
  8
0
 10
340.654
 20
58.8843
 11
339.955
 21
59.6611
  0
LINE
  8
0
 10
339.955
 20
59.6611
 11
339.432
 21
60.5663
  0
LINE
  8
0
 10
339.432
 20
60.5663
 11
339.109
 21
61.5604
  0
LINE
  8
0
 10
339.109
 20
61.5604
 11
339
 21
62.6
  0
LINE
  8
0
 10
339
 20
62.6
 11
339.109
 21
63.6396
  0
LINE
  8
0
 10
339.109
 20
63.6396
 11
339.432
 21
64.6337
  0
LINE
  8
0
 10
339.432
 20
64.6337
 11
339.955
 21
65.5389
  0
LINE
  8
0
 10
339.955
 20
65.5389
 11
340.654
 21
66.3157
  0
LINE
  8
0
 10
340.654
 20
66.3157
 11
341.5
 21
66.9301
  0
LINE
  8
0
 10
341.5
 20
66.9301
 11
342.455
 21
67.3553
  0
LINE
  8
0
 10
342.455
 20
67.3553
 11
343.477
 21
67.5726
  0
LINE
  8
0
 10
343.477
 20
67.5726
 11
344.523
 21
67.5726
  0
LINE
  8
0
 10
344.523
 20
67.5726
 11
345.545
 21
67.3553
  0
LINE
  8
0
 10
345.545
 20
67.3553
 11
346.5
 21
66.9301
  0
LINE
  8
0
 10
346.5
 20
66.9301
 11
347.346
 21
66.3157
  0
LINE
  8
0
 10
347.346
 20
66.3157
 11
348.045
 21
65.5389
  0
LINE
  8
0
 10
348.045
 20
65.5389
 11
348.568
 21
64.6337
  0
LINE
  8
0
 10
348.568
 20
64.6337
 11
348.891
 21
63.6396
  0
LINE
  8
0
 10
348.891
 20
63.6396
 11
349
 21
62.6
  0
LINE
  8
0
 10
349
 20
62.6
 11
348.891
 21
61.5604
  0
LINE
  8
0
 10
348.891
 20
61.5604
 11
348.568
 21
60.5663
  0
LINE
  8
0
 10
348.568
 20
60.5663
 11
348.045
 21
59.6611
  0
LINE
  8
0
 10
348.045
 20
59.6611
 11
347.346
 21
58.8843
  0
LINE
  8
0
 10
347.346
 20
58.8843
 11
346.5
 21
58.2699
  0
LINE
  8
0
 10
346.5
 20
58.2699
 11
345.545
 21
57.8447
  0
LINE
  8
0
 10
345.545
 20
57.8447
 11
344.523
 21
57.6274
  0
LINE
  8
0
 10
344.523
 20
57.6274
 11
343.477
 21
57.6274
  0
LINE
  8
0
 10
387.634
 20
59.1192
 11
386.918
 21
59.2713
  0
LINE
  8
0
 10
386.918
 20
59.2713
 11
386.25
 21
59.5689
  0
LINE
  8
0
 10
386.25
 20
59.5689
 11
385.658
 21
59.999
  0
LINE
  8
0
 10
385.658
 20
59.999
 11
385.168
 21
60.5427
  0
LINE
  8
0
 10
385.168
 20
60.5427
 11
384.803
 21
61.1764
  0
LINE
  8
0
 10
384.803
 20
61.1764
 11
384.576
 21
61.8723
  0
LINE
  8
0
 10
384.576
 20
61.8723
 11
384.5
 21
62.6
  0
LINE
  8
0
 10
384.5
 20
62.6
 11
384.576
 21
63.3277
  0
LINE
  8
0
 10
384.576
 20
63.3277
 11
384.803
 21
64.0236
  0
LINE
  8
0
 10
384.803
 20
64.0236
 11
385.168
 21
64.6572
  0
LINE
  8
0
 10
385.168
 20
64.6572
 11
385.658
 21
65.201
  0
LINE
  8
0
 10
385.658
 20
65.201
 11
386.25
 21
65.6311
  0
LINE
  8
0
 10
386.25
 20
65.6311
 11
386.918
 21
65.9287
  0
LINE
  8
0
 10
386.918
 20
65.9287
 11
387.634
 21
66.0808
  0
LINE
  8
0
 10
387.634
 20
66.0808
 11
388.366
 21
66.0808
  0
LINE
  8
0
 10
388.366
 20
66.0808
 11
389.082
 21
65.9287
  0
LINE
  8
0
 10
389.082
 20
65.9287
 11
389.75
 21
65.6311
  0
LINE
  8
0
 10
389.75
 20
65.6311
 11
390.342
 21
65.201
  0
LINE
  8
0
 10
390.342
 20
65.201
 11
390.832
 21
64.6572
  0
LINE
  8
0
 10
390.832
 20
64.6572
 11
391.197
 21
64.0236
  0
LINE
  8
0
 10
391.197
 20
64.0236
 11
391.424
 21
63.3277
  0
LINE
  8
0
 10
391.424
 20
63.3277
 11
391.5
 21
62.6
  0
LINE
  8
0
 10
391.5
 20
62.6
 11
391.424
 21
61.8723
  0
LINE
  8
0
 10
391.424
 20
61.8723
 11
391.197
 21
61.1764
  0
LINE
  8
0
 10
391.197
 20
61.1764
 11
390.832
 21
60.5427
  0
LINE
  8
0
 10
390.832
 20
60.5427
 11
390.342
 21
59.999
  0
LINE
  8
0
 10
390.342
 20
59.999
 11
389.75
 21
59.5689
  0
LINE
  8
0
 10
389.75
 20
59.5689
 11
389.082
 21
59.2713
  0
LINE
  8
0
 10
389.082
 20
59.2713
 11
388.366
 21
59.1192
  0
LINE
  8
0
 10
388.366
 20
59.1192
 11
387.634
 21
59.1192
  0
LINE
  8
0
 10
375.634
 20
59.1192
 11
374.918
 21
59.2713
  0
LINE
  8
0
 10
374.918
 20
59.2713
 11
374.25
 21
59.5689
  0
LINE
  8
0
 10
374.25
 20
59.5689
 11
373.658
 21
59.999
  0
LINE
  8
0
 10
373.658
 20
59.999
 11
373.168
 21
60.5427
  0
LINE
  8
0
 10
373.168
 20
60.5427
 11
372.803
 21
61.1764
  0
LINE
  8
0
 10
372.803
 20
61.1764
 11
372.576
 21
61.8723
  0
LINE
  8
0
 10
372.576
 20
61.8723
 11
372.5
 21
62.6
  0
LINE
  8
0
 10
372.5
 20
62.6
 11
372.576
 21
63.3277
  0
LINE
  8
0
 10
372.576
 20
63.3277
 11
372.803
 21
64.0236
  0
LINE
  8
0
 10
372.803
 20
64.0236
 11
373.168
 21
64.6572
  0
LINE
  8
0
 10
373.168
 20
64.6572
 11
373.658
 21
65.201
  0
LINE
  8
0
 10
373.658
 20
65.201
 11
374.25
 21
65.6311
  0
LINE
  8
0
 10
374.25
 20
65.6311
 11
374.918
 21
65.9287
  0
LINE
  8
0
 10
374.918
 20
65.9287
 11
375.634
 21
66.0808
  0
LINE
  8
0
 10
375.634
 20
66.0808
 11
376.366
 21
66.0808
  0
LINE
  8
0
 10
376.366
 20
66.0808
 11
377.082
 21
65.9287
  0
LINE
  8
0
 10
377.082
 20
65.9287
 11
377.75
 21
65.6311
  0
LINE
  8
0
 10
377.75
 20
65.6311
 11
378.342
 21
65.201
  0
LINE
  8
0
 10
378.342
 20
65.201
 11
378.832
 21
64.6572
  0
LINE
  8
0
 10
378.832
 20
64.6572
 11
379.197
 21
64.0236
  0
LINE
  8
0
 10
379.197
 20
64.0236
 11
379.424
 21
63.3277
  0
LINE
  8
0
 10
379.424
 20
63.3277
 11
379.5
 21
62.6
  0
LINE
  8
0
 10
379.5
 20
62.6
 11
379.424
 21
61.8723
  0
LINE
  8
0
 10
379.424
 20
61.8723
 11
379.197
 21
61.1764
  0
LINE
  8
0
 10
379.197
 20
61.1764
 11
378.832
 21
60.5427
  0
LINE
  8
0
 10
378.832
 20
60.5427
 11
378.342
 21
59.999
  0
LINE
  8
0
 10
378.342
 20
59.999
 11
377.75
 21
59.5689
  0
LINE
  8
0
 10
377.75
 20
59.5689
 11
377.082
 21
59.2713
  0
LINE
  8
0
 10
377.082
 20
59.2713
 11
376.366
 21
59.1192
  0
LINE
  8
0
 10
376.366
 20
59.1192
 11
375.634
 21
59.1192
  0
LINE
  8
0
 10
266
 20
68
 11
150
 21
68
  0
LINE
  8
0
 10
150
 20
68
 11
150
 21
0
  0
LINE
  8
0
 10
150
 20
0
 11
266
 21
0
  0
LINE
  8
0
 10
266
 20
0
 11
266
 21
68
  0
LINE
  8
0
 10
432
 20
36
 11
300
 21
36
  0
LINE
  8
0
 10
300
 20
36
 11
300
 21
0
  0
LINE
  8
0
 10
300
 20
0
 11
432
 21
0
  0
LINE
  8
0
 10
432
 20
0
 11
432
 21
36
  0
ENDSEC
  0
SECTION
  2
OBJECTS
  0
DICTIONARY
  0
ENDSEC
  0
EOF
