  0
SECTION
  2
BLOCKS
  0
ENDSEC
  0
SECTION
  2
ENTITIES
  0
LINE
  8
0
 10
317.108
 20
250
 11
327.6
 21
250
  0
LINE
  8
0
 10
327.6
 20
250
 11
327.6
 21
247
  0
LINE
  8
0
 10
327.6
 20
247
 11
410.4
 21
247
  0
LINE
  8
0
 10
410.4
 20
247
 11
410.4
 21
250
  0
LINE
  8
0
 10
410.4
 20
250
 11
420.892
 21
250
  0
LINE
  8
0
 10
420.892
 20
250
 11
420.892
 21
247
  0
LINE
  8
0
 10
420.892
 20
247
 11
428.892
 21
247
  0
LINE
  8
0
 10
428.892
 20
247
 11
428.892
 21
250
  0
LINE
  8
0
 10
428.892
 20
250
 11
438
 21
250
  0
LINE
  8
0
 10
438
 20
250
 11
438
 21
307
  0
LINE
  8
0
 10
438
 20
307
 11
428.892
 21
307
  0
LINE
  8
0
 10
428.892
 20
307
 11
428.892
 21
310
  0
LINE
  8
0
 10
428.892
 20
310
 11
420.892
 21
310
  0
LINE
  8
0
 10
420.892
 20
310
 11
420.892
 21
307
  0
LINE
  8
0
 10
420.892
 20
307
 11
317.108
 21
307
  0
LINE
  8
0
 10
317.108
 20
307
 11
317.108
 21
310
  0
LINE
  8
0
 10
317.108
 20
310
 11
309.108
 21
310
  0
LINE
  8
0
 10
309.108
 20
310
 11
309.108
 21
307
  0
LINE
  8
0
 10
309.108
 20
307
 11
300
 21
307
  0
LINE
  8
0
 10
300
 20
307
 11
300
 21
250
  0
LINE
  8
0
 10
300
 20
250
 11
309.108
 21
250
  0
LINE
  8
0
 10
309.108
 20
250
 11
309.108
 21
247
  0
LINE
  8
0
 10
309.108
 20
247
 11
317.108
 21
247
  0
LINE
  8
0
 10
317.108
 20
247
 11
317.108
 21
250
  0
LINE
  8
0
 10
152
 20
256
 11
0
 21
256
  0
LINE
  8
0
 10
0
 20
256
 11
0
 21
248
  0
LINE
  8
0
 10
0
 20
248
 11
152
 21
248
  0
LINE
  8
0
 10
152
 20
248
 11
152
 21
256
  0
LINE
  8
0
 10
152
 20
244
 11
0
 21
244
  0
LINE
  8
0
 10
0
 20
244
 11
0
 21
236
  0
LINE
  8
0
 10
0
 20
236
 11
152
 21
236
  0
LINE
  8
0
 10
152
 20
236
 11
152
 21
244
  0
LINE
  8
0
 10
438
 20
221
 11
435
 21
221
  0
LINE
  8
0
 10
435
 20
221
 11
435
 21
219.75
  0
LINE
  8
0
 10
435
 20
219.75
 11
432.5
 21
219.75
  0
LINE
  8
0
 10
432.5
 20
219.75
 11
432.5
 21
221
  0
LINE
  8
0
 10
432.5
 20
221
 11
430
 21
221
  0
LINE
  8
0
 10
430
 20
221
 11
430
 21
224
  0
LINE
  8
0
 10
430
 20
224
 11
432.5
 21
224
  0
LINE
  8
0
 10
432.5
 20
224
 11
432.5
 21
225.25
  0
LINE
  8
0
 10
432.5
 20
225.25
 11
435
 21
225.25
  0
LINE
  8
0
 10
435
 20
225.25
 11
435
 21
224
  0
LINE
  8
0
 10
435
 20
224
 11
438
 21
224
  0
LINE
  8
0
 10
438
 20
224
 11
438
 21
234.4
  0
LINE
  8
0
 10
438
 20
234.4
 11
430
 21
234.4
  0
LINE
  8
0
 10
430
 20
234.4
 11
430
 21
237.4
  0
LINE
  8
0
 10
430
 20
237.4
 11
438
 21
237.4
  0
LINE
  8
0
 10
438
 20
237.4
 11
438
 21
240.4
  0
LINE
  8
0
 10
438
 20
240.4
 11
300
 21
240.4
  0
LINE
  8
0
 10
300
 20
240.4
 11
300
 21
237.4
  0
LINE
  8
0
 10
300
 20
237.4
 11
308
 21
237.4
  0
LINE
  8
0
 10
308
 20
237.4
 11
308
 21
234.4
  0
LINE
  8
0
 10
308
 20
234.4
 11
300
 21
234.4
  0
LINE
  8
0
 10
300
 20
234.4
 11
300
 21
224
  0
LINE
  8
0
 10
300
 20
224
 11
303
 21
224
  0
LINE
  8
0
 10
303
 20
224
 11
303
 21
225.25
  0
LINE
  8
0
 10
303
 20
225.25
 11
305.5
 21
225.25
  0
LINE
  8
0
 10
305.5
 20
225.25
 11
305.5
 21
224
  0
LINE
  8
0
 10
305.5
 20
224
 11
308
 21
224
  0
LINE
  8
0
 10
308
 20
224
 11
308
 21
221
  0
LINE
  8
0
 10
308
 20
221
 11
305.5
 21
221
  0
LINE
  8
0
 10
305.5
 20
221
 11
305.5
 21
219.75
  0
LINE
  8
0
 10
305.5
 20
219.75
 11
303
 21
219.75
  0
LINE
  8
0
 10
303
 20
219.75
 11
303
 21
221
  0
LINE
  8
0
 10
303
 20
221
 11
300
 21
221
  0
LINE
  8
0
 10
300
 20
221
 11
300
 21
200
  0
LINE
  8
0
 10
300
 20
200
 11
438
 21
200
  0
LINE
  8
0
 10
438
 20
200
 11
438
 21
221
  0
LINE
  8
0
 10
152
 20
232
 11
0
 21
232
  0
LINE
  8
0
 10
0
 20
232
 11
0
 21
224
  0
LINE
  8
0
 10
0
 20
224
 11
152
 21
224
  0
LINE
  8
0
 10
152
 20
224
 11
152
 21
232
  0
LINE
  8
0
 10
8.99208
 20
227.022
 11
8.79326
 21
227.086
  0
LINE
  8
0
 10
8.79326
 20
227.086
 11
8.61221
 21
227.191
  0
LINE
  8
0
 10
8.61221
 20
227.191
 11
8.45685
 21
227.331
  0
LINE
  8
0
 10
8.45685
 20
227.331
 11
8.33397
 21
227.5
  0
LINE
  8
0
 10
8.33397
 20
227.5
 11
8.24893
 21
227.691
  0
LINE
  8
0
 10
8.24893
 20
227.691
 11
8.20547
 21
227.895
  0
LINE
  8
0
 10
8.20547
 20
227.895
 11
8.20547
 21
228.105
  0
LINE
  8
0
 10
8.20547
 20
228.105
 11
8.24893
 21
228.309
  0
LINE
  8
0
 10
8.24893
 20
228.309
 11
8.33397
 21
228.5
  0
LINE
  8
0
 10
8.33397
 20
228.5
 11
8.45685
 21
228.669
  0
LINE
  8
0
 10
8.45685
 20
228.669
 11
8.61221
 21
228.809
  0
LINE
  8
0
 10
8.61221
 20
228.809
 11
8.79326
 21
228.914
  0
LINE
  8
0
 10
8.79326
 20
228.914
 11
8.99208
 21
228.978
  0
LINE
  8
0
 10
8.99208
 20
228.978
 11
9.2
 21
229
  0
LINE
  8
0
 10
9.2
 20
229
 11
9.4079
 21
228.978
  0
LINE
  8
0
 10
9.4079
 20
228.978
 11
9.60674
 21
228.914
  0
LINE
  8
0
 10
9.60674
 20
228.914
 11
9.78778
 21
228.809
  0
LINE
  8
0
 10
9.78778
 20
228.809
 11
9.94313
 21
228.669
  0
LINE
  8
0
 10
9.94313
 20
228.669
 11
10.066
 21
228.5
  0
LINE
  8
0
 10
10.066
 20
228.5
 11
10.151
 21
228.309
  0
LINE
  8
0
 10
10.151
 20
228.309
 11
10.1945
 21
228.105
  0
LINE
  8
0
 10
10.1945
 20
228.105
 11
10.1945
 21
227.895
  0
LINE
  8
0
 10
10.1945
 20
227.895
 11
10.151
 21
227.691
  0
LINE
  8
0
 10
10.151
 20
227.691
 11
10.066
 21
227.5
  0
LINE
  8
0
 10
10.066
 20
227.5
 11
9.94313
 21
227.331
  0
LINE
  8
0
 10
9.94313
 20
227.331
 11
9.78778
 21
227.191
  0
LINE
  8
0
 10
9.78778
 20
227.191
 11
9.60674
 21
227.086
  0
LINE
  8
0
 10
9.60674
 20
227.086
 11
9.4079
 21
227.022
  0
LINE
  8
0
 10
9.4079
 20
227.022
 11
9.2
 21
227
  0
LINE
  8
0
 10
9.2
 20
227
 11
8.99208
 21
227.022
  0
LINE
  8
0
 10
82.5921
 20
227.022
 11
82.3932
 21
227.086
  0
LINE
  8
0
 10
82.3932
 20
227.086
 11
82.2122
 21
227.191
  0
LINE
  8
0
 10
82.2122
 20
227.191
 11
82.0569
 21
227.331
  0
LINE
  8
0
 10
82.0569
 20
227.331
 11
81.934
 21
227.5
  0
LINE
  8
0
 10
81.934
 20
227.5
 11
81.8489
 21
227.691
  0
LINE
  8
0
 10
81.8489
 20
227.691
 11
81.8055
 21
227.895
  0
LINE
  8
0
 10
81.8055
 20
227.895
 11
81.8055
 21
228.105
  0
LINE
  8
0
 10
81.8055
 20
228.105
 11
81.8489
 21
228.309
  0
LINE
  8
0
 10
81.8489
 20
228.309
 11
81.934
 21
228.5
  0
LINE
  8
0
 10
81.934
 20
228.5
 11
82.0569
 21
228.669
  0
LINE
  8
0
 10
82.0569
 20
228.669
 11
82.2122
 21
228.809
  0
LINE
  8
0
 10
82.2122
 20
228.809
 11
82.3932
 21
228.914
  0
LINE
  8
0
 10
82.3932
 20
228.914
 11
82.5921
 21
228.978
  0
LINE
  8
0
 10
82.5921
 20
228.978
 11
82.8
 21
229
  0
LINE
  8
0
 10
82.8
 20
229
 11
83.0079
 21
228.978
  0
LINE
  8
0
 10
83.0079
 20
228.978
 11
83.2067
 21
228.914
  0
LINE
  8
0
 10
83.2067
 20
228.914
 11
83.3878
 21
228.809
  0
LINE
  8
0
 10
83.3878
 20
228.809
 11
83.5431
 21
228.669
  0
LINE
  8
0
 10
83.5431
 20
228.669
 11
83.666
 21
228.5
  0
LINE
  8
0
 10
83.666
 20
228.5
 11
83.7511
 21
228.309
  0
LINE
  8
0
 10
83.7511
 20
228.309
 11
83.7945
 21
228.105
  0
LINE
  8
0
 10
83.7945
 20
228.105
 11
83.7945
 21
227.895
  0
LINE
  8
0
 10
83.7945
 20
227.895
 11
83.7511
 21
227.691
  0
LINE
  8
0
 10
83.7511
 20
227.691
 11
83.666
 21
227.5
  0
LINE
  8
0
 10
83.666
 20
227.5
 11
83.5431
 21
227.331
  0
LINE
  8
0
 10
83.5431
 20
227.331
 11
83.3878
 21
227.191
  0
LINE
  8
0
 10
83.3878
 20
227.191
 11
83.2067
 21
227.086
  0
LINE
  8
0
 10
83.2067
 20
227.086
 11
83.0079
 21
227.022
  0
LINE
  8
0
 10
83.0079
 20
227.022
 11
82.8
 21
227
  0
LINE
  8
0
 10
82.8
 20
227
 11
82.5921
 21
227.022
  0
LINE
  8
0
 10
152
 20
220
 11
0
 21
220
  0
LINE
  8
0
 10
0
 20
220
 11
0
 21
212
  0
LINE
  8
0
 10
0
 20
212
 11
152
 21
212
  0
LINE
  8
0
 10
152
 20
212
 11
152
 21
220
  0
LINE
  8
0
 10
8.99208
 20
215.022
 11
8.79326
 21
215.086
  0
LINE
  8
0
 10
8.79326
 20
215.086
 11
8.61221
 21
215.191
  0
LINE
  8
0
 10
8.61221
 20
215.191
 11
8.45685
 21
215.331
  0
LINE
  8
0
 10
8.45685
 20
215.331
 11
8.33397
 21
215.5
  0
LINE
  8
0
 10
8.33397
 20
215.5
 11
8.24893
 21
215.691
  0
LINE
  8
0
 10
8.24893
 20
215.691
 11
8.20547
 21
215.895
  0
LINE
  8
0
 10
8.20547
 20
215.895
 11
8.20547
 21
216.105
  0
LINE
  8
0
 10
8.20547
 20
216.105
 11
8.24893
 21
216.309
  0
LINE
  8
0
 10
8.24893
 20
216.309
 11
8.33397
 21
216.5
  0
LINE
  8
0
 10
8.33397
 20
216.5
 11
8.45685
 21
216.669
  0
LINE
  8
0
 10
8.45685
 20
216.669
 11
8.61221
 21
216.809
  0
LINE
  8
0
 10
8.61221
 20
216.809
 11
8.79326
 21
216.914
  0
LINE
  8
0
 10
8.79326
 20
216.914
 11
8.99208
 21
216.978
  0
LINE
  8
0
 10
8.99208
 20
216.978
 11
9.2
 21
217
  0
LINE
  8
0
 10
9.2
 20
217
 11
9.4079
 21
216.978
  0
LINE
  8
0
 10
9.4079
 20
216.978
 11
9.60674
 21
216.914
  0
LINE
  8
0
 10
9.60674
 20
216.914
 11
9.78778
 21
216.809
  0
LINE
  8
0
 10
9.78778
 20
216.809
 11
9.94313
 21
216.669
  0
LINE
  8
0
 10
9.94313
 20
216.669
 11
10.066
 21
216.5
  0
LINE
  8
0
 10
10.066
 20
216.5
 11
10.151
 21
216.309
  0
LINE
  8
0
 10
10.151
 20
216.309
 11
10.1945
 21
216.105
  0
LINE
  8
0
 10
10.1945
 20
216.105
 11
10.1945
 21
215.895
  0
LINE
  8
0
 10
10.1945
 20
215.895
 11
10.151
 21
215.691
  0
LINE
  8
0
 10
10.151
 20
215.691
 11
10.066
 21
215.5
  0
LINE
  8
0
 10
10.066
 20
215.5
 11
9.94313
 21
215.331
  0
LINE
  8
0
 10
9.94313
 20
215.331
 11
9.78778
 21
215.191
  0
LINE
  8
0
 10
9.78778
 20
215.191
 11
9.60674
 21
215.086
  0
LINE
  8
0
 10
9.60674
 20
215.086
 11
9.4079
 21
215.022
  0
LINE
  8
0
 10
9.4079
 20
215.022
 11
9.2
 21
215
  0
LINE
  8
0
 10
9.2
 20
215
 11
8.99208
 21
215.022
  0
LINE
  8
0
 10
82.5921
 20
215.022
 11
82.3932
 21
215.086
  0
LINE
  8
0
 10
82.3932
 20
215.086
 11
82.2122
 21
215.191
  0
LINE
  8
0
 10
82.2122
 20
215.191
 11
82.0569
 21
215.331
  0
LINE
  8
0
 10
82.0569
 20
215.331
 11
81.934
 21
215.5
  0
LINE
  8
0
 10
81.934
 20
215.5
 11
81.8489
 21
215.691
  0
LINE
  8
0
 10
81.8489
 20
215.691
 11
81.8055
 21
215.895
  0
LINE
  8
0
 10
81.8055
 20
215.895
 11
81.8055
 21
216.105
  0
LINE
  8
0
 10
81.8055
 20
216.105
 11
81.8489
 21
216.309
  0
LINE
  8
0
 10
81.8489
 20
216.309
 11
81.934
 21
216.5
  0
LINE
  8
0
 10
81.934
 20
216.5
 11
82.0569
 21
216.669
  0
LINE
  8
0
 10
82.0569
 20
216.669
 11
82.2122
 21
216.809
  0
LINE
  8
0
 10
82.2122
 20
216.809
 11
82.3932
 21
216.914
  0
LINE
  8
0
 10
82.3932
 20
216.914
 11
82.5921
 21
216.978
  0
LINE
  8
0
 10
82.5921
 20
216.978
 11
82.8
 21
217
  0
LINE
  8
0
 10
82.8
 20
217
 11
83.0079
 21
216.978
  0
LINE
  8
0
 10
83.0079
 20
216.978
 11
83.2067
 21
216.914
  0
LINE
  8
0
 10
83.2067
 20
216.914
 11
83.3878
 21
216.809
  0
LINE
  8
0
 10
83.3878
 20
216.809
 11
83.5431
 21
216.669
  0
LINE
  8
0
 10
83.5431
 20
216.669
 11
83.666
 21
216.5
  0
LINE
  8
0
 10
83.666
 20
216.5
 11
83.7511
 21
216.309
  0
LINE
  8
0
 10
83.7511
 20
216.309
 11
83.7945
 21
216.105
  0
LINE
  8
0
 10
83.7945
 20
216.105
 11
83.7945
 21
215.895
  0
LINE
  8
0
 10
83.7945
 20
215.895
 11
83.7511
 21
215.691
  0
LINE
  8
0
 10
83.7511
 20
215.691
 11
83.666
 21
215.5
  0
LINE
  8
0
 10
83.666
 20
215.5
 11
83.5431
 21
215.331
  0
LINE
  8
0
 10
83.5431
 20
215.331
 11
83.3878
 21
215.191
  0
LINE
  8
0
 10
83.3878
 20
215.191
 11
83.2067
 21
215.086
  0
LINE
  8
0
 10
83.2067
 20
215.086
 11
83.0079
 21
215.022
  0
LINE
  8
0
 10
83.0079
 20
215.022
 11
82.8
 21
215
  0
LINE
  8
0
 10
82.8
 20
215
 11
82.5921
 21
215.022
  0
LINE
  8
0
 10
158
 20
205
 11
0
 21
205
  0
LINE
  8
0
 10
0
 20
205
 11
0
 21
160
  0
LINE
  8
0
 10
0
 20
160
 11
158
 21
160
  0
LINE
  8
0
 10
158
 20
160
 11
158
 21
205
  0
LINE
  8
0
 10
4.3432
 20
181.008
 11
4.03647
 21
181.073
  0
LINE
  8
0
 10
4.03647
 20
181.073
 11
3.74998
 21
181.201
  0
LINE
  8
0
 10
3.74998
 20
181.201
 11
3.49629
 21
181.385
  0
LINE
  8
0
 10
3.49629
 20
181.385
 11
3.28647
 21
181.618
  0
LINE
  8
0
 10
3.28647
 20
181.618
 11
3.12967
 21
181.89
  0
LINE
  8
0
 10
3.12967
 20
181.89
 11
3.03278
 21
182.188
  0
LINE
  8
0
 10
3.03278
 20
182.188
 11
3
 21
182.5
  0
LINE
  8
0
 10
3
 20
182.5
 11
3.03278
 21
182.812
  0
LINE
  8
0
 10
3.03278
 20
182.812
 11
3.12967
 21
183.11
  0
LINE
  8
0
 10
3.12967
 20
183.11
 11
3.28647
 21
183.382
  0
LINE
  8
0
 10
3.28647
 20
183.382
 11
3.49629
 21
183.615
  0
LINE
  8
0
 10
3.49629
 20
183.615
 11
3.75
 21
183.799
  0
LINE
  8
0
 10
3.75
 20
183.799
 11
4.03647
 21
183.927
  0
LINE
  8
0
 10
4.03647
 20
183.927
 11
4.3432
 21
183.992
  0
LINE
  8
0
 10
4.3432
 20
183.992
 11
4.65678
 21
183.992
  0
LINE
  8
0
 10
4.65678
 20
183.992
 11
4.96352
 21
183.927
  0
LINE
  8
0
 10
4.96352
 20
183.927
 11
5.25
 21
183.799
  0
LINE
  8
0
 10
5.25
 20
183.799
 11
5.50369
 21
183.615
  0
LINE
  8
0
 10
5.50369
 20
183.615
 11
5.71352
 21
183.382
  0
LINE
  8
0
 10
5.71352
 20
183.382
 11
5.87032
 21
183.11
  0
LINE
  8
0
 10
5.87032
 20
183.11
 11
5.96721
 21
182.812
  0
LINE
  8
0
 10
5.96721
 20
182.812
 11
6
 21
182.5
  0
LINE
  8
0
 10
6
 20
182.5
 11
5.96721
 21
182.188
  0
LINE
  8
0
 10
5.96721
 20
182.188
 11
5.87032
 21
181.89
  0
LINE
  8
0
 10
5.87032
 20
181.89
 11
5.71352
 21
181.618
  0
LINE
  8
0
 10
5.71352
 20
181.618
 11
5.50369
 21
181.385
  0
LINE
  8
0
 10
5.50369
 20
181.385
 11
5.25
 21
181.201
  0
LINE
  8
0
 10
5.25
 20
181.201
 11
4.96352
 21
181.073
  0
LINE
  8
0
 10
4.96352
 20
181.073
 11
4.65678
 21
181.008
  0
LINE
  8
0
 10
4.65678
 20
181.008
 11
4.3432
 21
181.008
  0
LINE
  8
0
 10
93.3432
 20
181.008
 11
93.0365
 21
181.073
  0
LINE
  8
0
 10
93.0365
 20
181.073
 11
92.75
 21
181.201
  0
LINE
  8
0
 10
92.75
 20
181.201
 11
92.4963
 21
181.385
  0
LINE
  8
0
 10
92.4963
 20
181.385
 11
92.2865
 21
181.618
  0
LINE
  8
0
 10
92.2865
 20
181.618
 11
92.1297
 21
181.89
  0
LINE
  8
0
 10
92.1297
 20
181.89
 11
92.0328
 21
182.188
  0
LINE
  8
0
 10
92.0328
 20
182.188
 11
92
 21
182.5
  0
LINE
  8
0
 10
92
 20
182.5
 11
92.0328
 21
182.812
  0
LINE
  8
0
 10
92.0328
 20
182.812
 11
92.1297
 21
183.11
  0
LINE
  8
0
 10
92.1297
 20
183.11
 11
92.2865
 21
183.382
  0
LINE
  8
0
 10
92.2865
 20
183.382
 11
92.4963
 21
183.615
  0
LINE
  8
0
 10
92.4963
 20
183.615
 11
92.75
 21
183.799
  0
LINE
  8
0
 10
92.75
 20
183.799
 11
93.0365
 21
183.927
  0
LINE
  8
0
 10
93.0365
 20
183.927
 11
93.3432
 21
183.992
  0
LINE
  8
0
 10
93.3432
 20
183.992
 11
93.6568
 21
183.992
  0
LINE
  8
0
 10
93.6568
 20
183.992
 11
93.9635
 21
183.927
  0
LINE
  8
0
 10
93.9635
 20
183.927
 11
94.25
 21
183.799
  0
LINE
  8
0
 10
94.25
 20
183.799
 11
94.5037
 21
183.615
  0
LINE
  8
0
 10
94.5037
 20
183.615
 11
94.7135
 21
183.382
  0
LINE
  8
0
 10
94.7135
 20
183.382
 11
94.8703
 21
183.11
  0
LINE
  8
0
 10
94.8703
 20
183.11
 11
94.9672
 21
182.812
  0
LINE
  8
0
 10
94.9672
 20
182.812
 11
95
 21
182.5
  0
LINE
  8
0
 10
95
 20
182.5
 11
94.9672
 21
182.188
  0
LINE
  8
0
 10
94.9672
 20
182.188
 11
94.8703
 21
181.89
  0
LINE
  8
0
 10
94.8703
 20
181.89
 11
94.7135
 21
181.618
  0
LINE
  8
0
 10
94.7135
 20
181.618
 11
94.5037
 21
181.385
  0
LINE
  8
0
 10
94.5037
 20
181.385
 11
94.25
 21
181.201
  0
LINE
  8
0
 10
94.25
 20
181.201
 11
93.9635
 21
181.073
  0
LINE
  8
0
 10
93.9635
 20
181.073
 11
93.6568
 21
181.008
  0
LINE
  8
0
 10
93.6568
 20
181.008
 11
93.3432
 21
181.008
  0
LINE
  8
0
 10
153.343
 20
181.008
 11
153.036
 21
181.073
  0
LINE
  8
0
 10
153.036
 20
181.073
 11
152.75
 21
181.201
  0
LINE
  8
0
 10
152.75
 20
181.201
 11
152.496
 21
181.385
  0
LINE
  8
0
 10
152.496
 20
181.385
 11
152.286
 21
181.618
  0
LINE
  8
0
 10
152.286
 20
181.618
 11
152.13
 21
181.89
  0
LINE
  8
0
 10
152.13
 20
181.89
 11
152.033
 21
182.188
  0
LINE
  8
0
 10
152.033
 20
182.188
 11
152
 21
182.5
  0
LINE
  8
0
 10
152
 20
182.5
 11
152.033
 21
182.812
  0
LINE
  8
0
 10
152.033
 20
182.812
 11
152.13
 21
183.11
  0
LINE
  8
0
 10
152.13
 20
183.11
 11
152.286
 21
183.382
  0
LINE
  8
0
 10
152.286
 20
183.382
 11
152.496
 21
183.615
  0
LINE
  8
0
 10
152.496
 20
183.615
 11
152.75
 21
183.799
  0
LINE
  8
0
 10
152.75
 20
183.799
 11
153.036
 21
183.927
  0
LINE
  8
0
 10
153.036
 20
183.927
 11
153.343
 21
183.992
  0
LINE
  8
0
 10
153.343
 20
183.992
 11
153.657
 21
183.992
  0
LINE
  8
0
 10
153.657
 20
183.992
 11
153.964
 21
183.927
  0
LINE
  8
0
 10
153.964
 20
183.927
 11
154.25
 21
183.799
  0
LINE
  8
0
 10
154.25
 20
183.799
 11
154.504
 21
183.615
  0
LINE
  8
0
 10
154.504
 20
183.615
 11
154.714
 21
183.382
  0
LINE
  8
0
 10
154.714
 20
183.382
 11
154.87
 21
183.11
  0
LINE
  8
0
 10
154.87
 20
183.11
 11
154.967
 21
182.812
  0
LINE
  8
0
 10
154.967
 20
182.812
 11
155
 21
182.5
  0
LINE
  8
0
 10
155
 20
182.5
 11
154.967
 21
182.188
  0
LINE
  8
0
 10
154.967
 20
182.188
 11
154.87
 21
181.89
  0
LINE
  8
0
 10
154.87
 20
181.89
 11
154.714
 21
181.618
  0
LINE
  8
0
 10
154.714
 20
181.618
 11
154.504
 21
181.385
  0
LINE
  8
0
 10
154.504
 20
181.385
 11
154.25
 21
181.201
  0
LINE
  8
0
 10
154.25
 20
181.201
 11
153.964
 21
181.073
  0
LINE
  8
0
 10
153.964
 20
181.073
 11
153.657
 21
181.008
  0
LINE
  8
0
 10
153.657
 20
181.008
 11
153.343
 21
181.008
  0
LINE
  8
0
 10
438
 20
171
 11
435
 21
171
  0
LINE
  8
0
 10
435
 20
171
 11
435
 21
169.75
  0
LINE
  8
0
 10
435
 20
169.75
 11
432.5
 21
169.75
  0
LINE
  8
0
 10
432.5
 20
169.75
 11
432.5
 21
171
  0
LINE
  8
0
 10
432.5
 20
171
 11
430
 21
171
  0
LINE
  8
0
 10
430
 20
171
 11
430
 21
174
  0
LINE
  8
0
 10
430
 20
174
 11
432.5
 21
174
  0
LINE
  8
0
 10
432.5
 20
174
 11
432.5
 21
175.25
  0
LINE
  8
0
 10
432.5
 20
175.25
 11
435
 21
175.25
  0
LINE
  8
0
 10
435
 20
175.25
 11
435
 21
174
  0
LINE
  8
0
 10
435
 20
174
 11
438
 21
174
  0
LINE
  8
0
 10
438
 20
174
 11
438
 21
184.4
  0
LINE
  8
0
 10
438
 20
184.4
 11
430
 21
184.4
  0
LINE
  8
0
 10
430
 20
184.4
 11
430
 21
187.4
  0
LINE
  8
0
 10
430
 20
187.4
 11
438
 21
187.4
  0
LINE
  8
0
 10
438
 20
187.4
 11
438
 21
192
  0
LINE
  8
0
 10
438
 20
192
 11
300
 21
192
  0
LINE
  8
0
 10
300
 20
192
 11
300
 21
187.4
  0
LINE
  8
0
 10
300
 20
187.4
 11
308
 21
187.4
  0
LINE
  8
0
 10
308
 20
187.4
 11
308
 21
184.4
  0
LINE
  8
0
 10
308
 20
184.4
 11
300
 21
184.4
  0
LINE
  8
0
 10
300
 20
184.4
 11
300
 21
174
  0
LINE
  8
0
 10
300
 20
174
 11
303
 21
174
  0
LINE
  8
0
 10
303
 20
174
 11
303
 21
175.25
  0
LINE
  8
0
 10
303
 20
175.25
 11
305.5
 21
175.25
  0
LINE
  8
0
 10
305.5
 20
175.25
 11
305.5
 21
174
  0
LINE
  8
0
 10
305.5
 20
174
 11
308
 21
174
  0
LINE
  8
0
 10
308
 20
174
 11
308
 21
171
  0
LINE
  8
0
 10
308
 20
171
 11
305.5
 21
171
  0
LINE
  8
0
 10
305.5
 20
171
 11
305.5
 21
169.75
  0
LINE
  8
0
 10
305.5
 20
169.75
 11
303
 21
169.75
  0
LINE
  8
0
 10
303
 20
169.75
 11
303
 21
171
  0
LINE
  8
0
 10
303
 20
171
 11
300
 21
171
  0
LINE
  8
0
 10
300
 20
171
 11
300
 21
150
  0
LINE
  8
0
 10
300
 20
150
 11
438
 21
150
  0
LINE
  8
0
 10
438
 20
150
 11
438
 21
171
  0
LINE
  8
0
 10
327.6
 20
165
 11
327.6
 21
184.5
  0
LINE
  8
0
 10
327.6
 20
184.5
 11
410.4
 21
184.5
  0
LINE
  8
0
 10
410.4
 20
184.5
 11
410.4
 21
165
  0
LINE
  8
0
 10
410.4
 20
165
 11
327.6
 21
165
  0
LINE
  8
0
 10
420.892
 20
163.8
 11
420.892
 21
166.8
  0
LINE
  8
0
 10
420.892
 20
166.8
 11
428.892
 21
166.8
  0
LINE
  8
0
 10
428.892
 20
166.8
 11
428.892
 21
163.8
  0
LINE
  8
0
 10
428.892
 20
163.8
 11
420.892
 21
163.8
  0
LINE
  8
0
 10
309.108
 20
163.8
 11
309.108
 21
166.8
  0
LINE
  8
0
 10
309.108
 20
166.8
 11
317.108
 21
166.8
  0
LINE
  8
0
 10
317.108
 20
166.8
 11
317.108
 21
163.8
  0
LINE
  8
0
 10
317.108
 20
163.8
 11
309.108
 21
163.8
  0
LINE
  8
0
 10
158
 20
145
 11
0
 21
145
  0
LINE
  8
0
 10
0
 20
145
 11
0
 21
100
  0
LINE
  8
0
 10
0
 20
100
 11
158
 21
100
  0
LINE
  8
0
 10
158
 20
100
 11
158
 21
145
  0
LINE
  8
0
 10
153.343
 20
121.008
 11
153.036
 21
121.073
  0
LINE
  8
0
 10
153.036
 20
121.073
 11
152.75
 21
121.201
  0
LINE
  8
0
 10
152.75
 20
121.201
 11
152.496
 21
121.385
  0
LINE
  8
0
 10
152.496
 20
121.385
 11
152.286
 21
121.618
  0
LINE
  8
0
 10
152.286
 20
121.618
 11
152.13
 21
121.89
  0
LINE
  8
0
 10
152.13
 20
121.89
 11
152.033
 21
122.188
  0
LINE
  8
0
 10
152.033
 20
122.188
 11
152
 21
122.5
  0
LINE
  8
0
 10
152
 20
122.5
 11
152.033
 21
122.812
  0
LINE
  8
0
 10
152.033
 20
122.812
 11
152.13
 21
123.11
  0
LINE
  8
0
 10
152.13
 20
123.11
 11
152.286
 21
123.382
  0
LINE
  8
0
 10
152.286
 20
123.382
 11
152.496
 21
123.615
  0
LINE
  8
0
 10
152.496
 20
123.615
 11
152.75
 21
123.799
  0
LINE
  8
0
 10
152.75
 20
123.799
 11
153.036
 21
123.927
  0
LINE
  8
0
 10
153.036
 20
123.927
 11
153.343
 21
123.992
  0
LINE
  8
0
 10
153.343
 20
123.992
 11
153.657
 21
123.992
  0
LINE
  8
0
 10
153.657
 20
123.992
 11
153.964
 21
123.927
  0
LINE
  8
0
 10
153.964
 20
123.927
 11
154.25
 21
123.799
  0
LINE
  8
0
 10
154.25
 20
123.799
 11
154.504
 21
123.615
  0
LINE
  8
0
 10
154.504
 20
123.615
 11
154.714
 21
123.382
  0
LINE
  8
0
 10
154.714
 20
123.382
 11
154.87
 21
123.11
  0
LINE
  8
0
 10
154.87
 20
123.11
 11
154.967
 21
122.812
  0
LINE
  8
0
 10
154.967
 20
122.812
 11
155
 21
122.5
  0
LINE
  8
0
 10
155
 20
122.5
 11
154.967
 21
122.188
  0
LINE
  8
0
 10
154.967
 20
122.188
 11
154.87
 21
121.89
  0
LINE
  8
0
 10
154.87
 20
121.89
 11
154.714
 21
121.618
  0
LINE
  8
0
 10
154.714
 20
121.618
 11
154.504
 21
121.385
  0
LINE
  8
0
 10
154.504
 20
121.385
 11
154.25
 21
121.201
  0
LINE
  8
0
 10
154.25
 20
121.201
 11
153.964
 21
121.073
  0
LINE
  8
0
 10
153.964
 20
121.073
 11
153.657
 21
121.008
  0
LINE
  8
0
 10
153.657
 20
121.008
 11
153.343
 21
121.008
  0
LINE
  8
0
 10
93.3432
 20
121.008
 11
93.0365
 21
121.073
  0
LINE
  8
0
 10
93.0365
 20
121.073
 11
92.75
 21
121.201
  0
LINE
  8
0
 10
92.75
 20
121.201
 11
92.4963
 21
121.385
  0
LINE
  8
0
 10
92.4963
 20
121.385
 11
92.2865
 21
121.618
  0
LINE
  8
0
 10
92.2865
 20
121.618
 11
92.1297
 21
121.89
  0
LINE
  8
0
 10
92.1297
 20
121.89
 11
92.0328
 21
122.188
  0
LINE
  8
0
 10
92.0328
 20
122.188
 11
92
 21
122.5
  0
LINE
  8
0
 10
92
 20
122.5
 11
92.0328
 21
122.812
  0
LINE
  8
0
 10
92.0328
 20
122.812
 11
92.1297
 21
123.11
  0
LINE
  8
0
 10
92.1297
 20
123.11
 11
92.2865
 21
123.382
  0
LINE
  8
0
 10
92.2865
 20
123.382
 11
92.4963
 21
123.615
  0
LINE
  8
0
 10
92.4963
 20
123.615
 11
92.75
 21
123.799
  0
LINE
  8
0
 10
92.75
 20
123.799
 11
93.0365
 21
123.927
  0
LINE
  8
0
 10
93.0365
 20
123.927
 11
93.3432
 21
123.992
  0
LINE
  8
0
 10
93.3432
 20
123.992
 11
93.6568
 21
123.992
  0
LINE
  8
0
 10
93.6568
 20
123.992
 11
93.9635
 21
123.927
  0
LINE
  8
0
 10
93.9635
 20
123.927
 11
94.25
 21
123.799
  0
LINE
  8
0
 10
94.25
 20
123.799
 11
94.5037
 21
123.615
  0
LINE
  8
0
 10
94.5037
 20
123.615
 11
94.7135
 21
123.382
  0
LINE
  8
0
 10
94.7135
 20
123.382
 11
94.8703
 21
123.11
  0
LINE
  8
0
 10
94.8703
 20
123.11
 11
94.9672
 21
122.812
  0
LINE
  8
0
 10
94.9672
 20
122.812
 11
95
 21
122.5
  0
LINE
  8
0
 10
95
 20
122.5
 11
94.9672
 21
122.188
  0
LINE
  8
0
 10
94.9672
 20
122.188
 11
94.8703
 21
121.89
  0
LINE
  8
0
 10
94.8703
 20
121.89
 11
94.7135
 21
121.618
  0
LINE
  8
0
 10
94.7135
 20
121.618
 11
94.5037
 21
121.385
  0
LINE
  8
0
 10
94.5037
 20
121.385
 11
94.25
 21
121.201
  0
LINE
  8
0
 10
94.25
 20
121.201
 11
93.9635
 21
121.073
  0
LINE
  8
0
 10
93.9635
 20
121.073
 11
93.6568
 21
121.008
  0
LINE
  8
0
 10
93.6568
 20
121.008
 11
93.3432
 21
121.008
  0
LINE
  8
0
 10
4.3432
 20
121.008
 11
4.03647
 21
121.073
  0
LINE
  8
0
 10
4.03647
 20
121.073
 11
3.74998
 21
121.201
  0
LINE
  8
0
 10
3.74998
 20
121.201
 11
3.49629
 21
121.385
  0
LINE
  8
0
 10
3.49629
 20
121.385
 11
3.28647
 21
121.618
  0
LINE
  8
0
 10
3.28647
 20
121.618
 11
3.12967
 21
121.89
  0
LINE
  8
0
 10
3.12967
 20
121.89
 11
3.03278
 21
122.188
  0
LINE
  8
0
 10
3.03278
 20
122.188
 11
3
 21
122.5
  0
LINE
  8
0
 10
3
 20
122.5
 11
3.03278
 21
122.812
  0
LINE
  8
0
 10
3.03278
 20
122.812
 11
3.12967
 21
123.11
  0
LINE
  8
0
 10
3.12967
 20
123.11
 11
3.28647
 21
123.382
  0
LINE
  8
0
 10
3.28647
 20
123.382
 11
3.49629
 21
123.615
  0
LINE
  8
0
 10
3.49629
 20
123.615
 11
3.75
 21
123.799
  0
LINE
  8
0
 10
3.75
 20
123.799
 11
4.03647
 21
123.927
  0
LINE
  8
0
 10
4.03647
 20
123.927
 11
4.3432
 21
123.992
  0
LINE
  8
0
 10
4.3432
 20
123.992
 11
4.65678
 21
123.992
  0
LINE
  8
0
 10
4.65678
 20
123.992
 11
4.96352
 21
123.927
  0
LINE
  8
0
 10
4.96352
 20
123.927
 11
5.25
 21
123.799
  0
LINE
  8
0
 10
5.25
 20
123.799
 11
5.50369
 21
123.615
  0
LINE
  8
0
 10
5.50369
 20
123.615
 11
5.71352
 21
123.382
  0
LINE
  8
0
 10
5.71352
 20
123.382
 11
5.87032
 21
123.11
  0
LINE
  8
0
 10
5.87032
 20
123.11
 11
5.96721
 21
122.812
  0
LINE
  8
0
 10
5.96721
 20
122.812
 11
6
 21
122.5
  0
LINE
  8
0
 10
6
 20
122.5
 11
5.96721
 21
122.188
  0
LINE
  8
0
 10
5.96721
 20
122.188
 11
5.87032
 21
121.89
  0
LINE
  8
0
 10
5.87032
 20
121.89
 11
5.71352
 21
121.618
  0
LINE
  8
0
 10
5.71352
 20
121.618
 11
5.50369
 21
121.385
  0
LINE
  8
0
 10
5.50369
 20
121.385
 11
5.25
 21
121.201
  0
LINE
  8
0
 10
5.25
 20
121.201
 11
4.96352
 21
121.073
  0
LINE
  8
0
 10
4.96352
 20
121.073
 11
4.65678
 21
121.008
  0
LINE
  8
0
 10
4.65678
 20
121.008
 11
4.3432
 21
121.008
  0
LINE
  8
0
 10
327.6
 20
122.4
 11
410.4
 21
122.4
  0
LINE
  8
0
 10
410.4
 20
122.4
 11
410.4
 21
110.4
  0
LINE
  8
0
 10
410.4
 20
110.4
 11
438
 21
110.4
  0
LINE
  8
0
 10
438
 20
110.4
 11
438
 21
121
  0
LINE
  8
0
 10
438
 20
121
 11
435
 21
121
  0
LINE
  8
0
 10
435
 20
121
 11
435
 21
119.75
  0
LINE
  8
0
 10
435
 20
119.75
 11
432.5
 21
119.75
  0
LINE
  8
0
 10
432.5
 20
119.75
 11
432.5
 21
121
  0
LINE
  8
0
 10
432.5
 20
121
 11
430
 21
121
  0
LINE
  8
0
 10
430
 20
121
 11
430
 21
124
  0
LINE
  8
0
 10
430
 20
124
 11
432.5
 21
124
  0
LINE
  8
0
 10
432.5
 20
124
 11
432.5
 21
125.25
  0
LINE
  8
0
 10
432.5
 20
125.25
 11
435
 21
125.25
  0
LINE
  8
0
 10
435
 20
125.25
 11
435
 21
124
  0
LINE
  8
0
 10
435
 20
124
 11
438
 21
124
  0
LINE
  8
0
 10
438
 20
124
 11
438
 21
134.4
  0
LINE
  8
0
 10
438
 20
134.4
 11
430
 21
134.4
  0
LINE
  8
0
 10
430
 20
134.4
 11
430
 21
137.4
  0
LINE
  8
0
 10
430
 20
137.4
 11
438
 21
137.4
  0
LINE
  8
0
 10
438
 20
137.4
 11
438
 21
140.4
  0
LINE
  8
0
 10
438
 20
140.4
 11
300
 21
140.4
  0
LINE
  8
0
 10
300
 20
140.4
 11
300
 21
137.4
  0
LINE
  8
0
 10
300
 20
137.4
 11
308
 21
137.4
  0
LINE
  8
0
 10
308
 20
137.4
 11
308
 21
134.4
  0
LINE
  8
0
 10
308
 20
134.4
 11
300
 21
134.4
  0
LINE
  8
0
 10
300
 20
134.4
 11
300
 21
124
  0
LINE
  8
0
 10
300
 20
124
 11
303
 21
124
  0
LINE
  8
0
 10
303
 20
124
 11
303
 21
125.25
  0
LINE
  8
0
 10
303
 20
125.25
 11
305.5
 21
125.25
  0
LINE
  8
0
 10
305.5
 20
125.25
 11
305.5
 21
124
  0
LINE
  8
0
 10
305.5
 20
124
 11
308
 21
124
  0
LINE
  8
0
 10
308
 20
124
 11
308
 21
121
  0
LINE
  8
0
 10
308
 20
121
 11
305.5
 21
121
  0
LINE
  8
0
 10
305.5
 20
121
 11
305.5
 21
119.75
  0
LINE
  8
0
 10
305.5
 20
119.75
 11
303
 21
119.75
  0
LINE
  8
0
 10
303
 20
119.75
 11
303
 21
121
  0
LINE
  8
0
 10
303
 20
121
 11
300
 21
121
  0
LINE
  8
0
 10
300
 20
121
 11
300
 21
110.4
  0
LINE
  8
0
 10
300
 20
110.4
 11
327.6
 21
110.4
  0
LINE
  8
0
 10
327.6
 20
110.4
 11
327.6
 21
122.4
  0
LINE
  8
0
 10
309.108
 20
113.8
 11
309.108
 21
116.8
  0
LINE
  8
0
 10
309.108
 20
116.8
 11
317.108
 21
116.8
  0
LINE
  8
0
 10
317.108
 20
116.8
 11
317.108
 21
113.8
  0
LINE
  8
0
 10
317.108
 20
113.8
 11
309.108
 21
113.8
  0
LINE
  8
0
 10
420.892
 20
113.8
 11
420.892
 21
116.8
  0
LINE
  8
0
 10
420.892
 20
116.8
 11
428.892
 21
116.8
  0
LINE
  8
0
 10
428.892
 20
116.8
 11
428.892
 21
113.8
  0
LINE
  8
0
 10
428.892
 20
113.8
 11
420.892
 21
113.8
  0
LINE
  8
0
 10
138
 20
92
 11
0
 21
92
  0
LINE
  8
0
 10
0
 20
92
 11
0
 21
0
  0
LINE
  8
0
 10
0
 20
0
 11
138
 21
0
  0
LINE
  8
0
 10
138
 20
0
 11
138
 21
92
  0
LINE
  8
0
 10
133.895
 20
81.8055
 11
133.691
 21
81.8489
  0
LINE
  8
0
 10
133.691
 20
81.8489
 11
133.5
 21
81.934
  0
LINE
  8
0
 10
133.5
 20
81.934
 11
133.331
 21
82.0569
  0
LINE
  8
0
 10
133.331
 20
82.0569
 11
133.191
 21
82.2122
  0
LINE
  8
0
 10
133.191
 20
82.2122
 11
133.086
 21
82.3932
  0
LINE
  8
0
 10
133.086
 20
82.3932
 11
133.022
 21
82.5921
  0
LINE
  8
0
 10
133.022
 20
82.5921
 11
133
 21
82.8
  0
LINE
  8
0
 10
133
 20
82.8
 11
133.022
 21
83.0079
  0
LINE
  8
0
 10
133.022
 20
83.0079
 11
133.086
 21
83.2067
  0
LINE
  8
0
 10
133.086
 20
83.2067
 11
133.191
 21
83.3878
  0
LINE
  8
0
 10
133.191
 20
83.3878
 11
133.331
 21
83.5431
  0
LINE
  8
0
 10
133.331
 20
83.5431
 11
133.5
 21
83.666
  0
LINE
  8
0
 10
133.5
 20
83.666
 11
133.691
 21
83.7511
  0
LINE
  8
0
 10
133.691
 20
83.7511
 11
133.895
 21
83.7945
  0
LINE
  8
0
 10
133.895
 20
83.7945
 11
134.105
 21
83.7945
  0
LINE
  8
0
 10
134.105
 20
83.7945
 11
134.309
 21
83.7511
  0
LINE
  8
0
 10
134.309
 20
83.7511
 11
134.5
 21
83.666
  0
LINE
  8
0
 10
134.5
 20
83.666
 11
134.669
 21
83.5431
  0
LINE
  8
0
 10
134.669
 20
83.5431
 11
134.809
 21
83.3878
  0
LINE
  8
0
 10
134.809
 20
83.3878
 11
134.914
 21
83.2067
  0
LINE
  8
0
 10
134.914
 20
83.2067
 11
134.978
 21
83.0079
  0
LINE
  8
0
 10
134.978
 20
83.0079
 11
135
 21
82.8
  0
LINE
  8
0
 10
135
 20
82.8
 11
134.978
 21
82.5921
  0
LINE
  8
0
 10
134.978
 20
82.5921
 11
134.914
 21
82.3932
  0
LINE
  8
0
 10
134.914
 20
82.3932
 11
134.809
 21
82.2122
  0
LINE
  8
0
 10
134.809
 20
82.2122
 11
134.669
 21
82.0569
  0
LINE
  8
0
 10
134.669
 20
82.0569
 11
134.5
 21
81.934
  0
LINE
  8
0
 10
134.5
 20
81.934
 11
134.309
 21
81.8489
  0
LINE
  8
0
 10
134.309
 20
81.8489
 11
134.105
 21
81.8055
  0
LINE
  8
0
 10
134.105
 20
81.8055
 11
133.895
 21
81.8055
  0
LINE
  8
0
 10
3.89546
 20
81.8055
 11
3.69098
 21
81.8489
  0
LINE
  8
0
 10
3.69098
 20
81.8489
 11
3.49998
 21
81.934
  0
LINE
  8
0
 10
3.49998
 20
81.934
 11
3.33086
 21
82.0569
  0
LINE
  8
0
 10
3.33086
 20
82.0569
 11
3.19098
 21
82.2122
  0
LINE
  8
0
 10
3.19098
 20
82.2122
 11
3.08644
 21
82.3932
  0
LINE
  8
0
 10
3.08644
 20
82.3932
 11
3.02185
 21
82.5921
  0
LINE
  8
0
 10
3.02185
 20
82.5921
 11
3
 21
82.8
  0
LINE
  8
0
 10
3
 20
82.8
 11
3.02185
 21
83.0079
  0
LINE
  8
0
 10
3.02185
 20
83.0079
 11
3.08644
 21
83.2067
  0
LINE
  8
0
 10
3.08644
 20
83.2067
 11
3.19098
 21
83.3878
  0
LINE
  8
0
 10
3.19098
 20
83.3878
 11
3.33086
 21
83.5431
  0
LINE
  8
0
 10
3.33086
 20
83.5431
 11
3.5
 21
83.666
  0
LINE
  8
0
 10
3.5
 20
83.666
 11
3.69098
 21
83.7511
  0
LINE
  8
0
 10
3.69098
 20
83.7511
 11
3.89546
 21
83.7945
  0
LINE
  8
0
 10
3.89546
 20
83.7945
 11
4.10452
 21
83.7945
  0
LINE
  8
0
 10
4.10452
 20
83.7945
 11
4.30901
 21
83.7511
  0
LINE
  8
0
 10
4.30901
 20
83.7511
 11
4.5
 21
83.666
  0
LINE
  8
0
 10
4.5
 20
83.666
 11
4.66913
 21
83.5431
  0
LINE
  8
0
 10
4.66913
 20
83.5431
 11
4.80901
 21
83.3878
  0
LINE
  8
0
 10
4.80901
 20
83.3878
 11
4.91354
 21
83.2067
  0
LINE
  8
0
 10
4.91354
 20
83.2067
 11
4.97813
 21
83.0079
  0
LINE
  8
0
 10
4.97813
 20
83.0079
 11
5
 21
82.8
  0
LINE
  8
0
 10
5
 20
82.8
 11
4.97813
 21
82.5921
  0
LINE
  8
0
 10
4.97813
 20
82.5921
 11
4.91354
 21
82.3932
  0
LINE
  8
0
 10
4.91354
 20
82.3932
 11
4.80901
 21
82.2122
  0
LINE
  8
0
 10
4.80901
 20
82.2122
 11
4.66913
 21
82.0569
  0
LINE
  8
0
 10
4.66913
 20
82.0569
 11
4.5
 21
81.934
  0
LINE
  8
0
 10
4.5
 20
81.934
 11
4.30901
 21
81.8489
  0
LINE
  8
0
 10
4.30901
 20
81.8489
 11
4.10452
 21
81.8055
  0
LINE
  8
0
 10
4.10452
 20
81.8055
 11
3.89546
 21
81.8055
  0
LINE
  8
0
 10
133.895
 20
8.20547
 11
133.691
 21
8.24893
  0
LINE
  8
0
 10
133.691
 20
8.24893
 11
133.5
 21
8.33397
  0
LINE
  8
0
 10
133.5
 20
8.33397
 11
133.331
 21
8.45685
  0
LINE
  8
0
 10
133.331
 20
8.45685
 11
133.191
 21
8.61221
  0
LINE
  8
0
 10
133.191
 20
8.61221
 11
133.086
 21
8.79326
  0
LINE
  8
0
 10
133.086
 20
8.79326
 11
133.022
 21
8.99208
  0
LINE
  8
0
 10
133.022
 20
8.99208
 11
133
 21
9.2
  0
LINE
  8
0
 10
133
 20
9.2
 11
133.022
 21
9.4079
  0
LINE
  8
0
 10
133.022
 20
9.4079
 11
133.086
 21
9.60674
  0
LINE
  8
0
 10
133.086
 20
9.60674
 11
133.191
 21
9.78778
  0
LINE
  8
0
 10
133.191
 20
9.78778
 11
133.331
 21
9.94313
  0
LINE
  8
0
 10
133.331
 20
9.94313
 11
133.5
 21
10.066
  0
LINE
  8
0
 10
133.5
 20
10.066
 11
133.691
 21
10.151
  0
LINE
  8
0
 10
133.691
 20
10.151
 11
133.895
 21
10.1945
  0
LINE
  8
0
 10
133.895
 20
10.1945
 11
134.105
 21
10.1945
  0
LINE
  8
0
 10
134.105
 20
10.1945
 11
134.309
 21
10.151
  0
LINE
  8
0
 10
134.309
 20
10.151
 11
134.5
 21
10.066
  0
LINE
  8
0
 10
134.5
 20
10.066
 11
134.669
 21
9.94313
  0
LINE
  8
0
 10
134.669
 20
9.94313
 11
134.809
 21
9.78778
  0
LINE
  8
0
 10
134.809
 20
9.78778
 11
134.914
 21
9.60674
  0
LINE
  8
0
 10
134.914
 20
9.60674
 11
134.978
 21
9.4079
  0
LINE
  8
0
 10
134.978
 20
9.4079
 11
135
 21
9.2
  0
LINE
  8
0
 10
135
 20
9.2
 11
134.978
 21
8.99208
  0
LINE
  8
0
 10
134.978
 20
8.99208
 11
134.914
 21
8.79326
  0
LINE
  8
0
 10
134.914
 20
8.79326
 11
134.809
 21
8.61221
  0
LINE
  8
0
 10
134.809
 20
8.61221
 11
134.669
 21
8.45685
  0
LINE
  8
0
 10
134.669
 20
8.45685
 11
134.5
 21
8.33397
  0
LINE
  8
0
 10
134.5
 20
8.33397
 11
134.309
 21
8.24893
  0
LINE
  8
0
 10
134.309
 20
8.24893
 11
134.105
 21
8.20547
  0
LINE
  8
0
 10
134.105
 20
8.20547
 11
133.895
 21
8.20547
  0
LINE
  8
0
 10
3.89546
 20
8.20547
 11
3.69098
 21
8.24893
  0
LINE
  8
0
 10
3.69098
 20
8.24893
 11
3.49998
 21
8.33397
  0
LINE
  8
0
 10
3.49998
 20
8.33397
 11
3.33086
 21
8.45685
  0
LINE
  8
0
 10
3.33086
 20
8.45685
 11
3.19098
 21
8.61221
  0
LINE
  8
0
 10
3.19098
 20
8.61221
 11
3.08644
 21
8.79326
  0
LINE
  8
0
 10
3.08644
 20
8.79326
 11
3.02185
 21
8.99208
  0
LINE
  8
0
 10
3.02185
 20
8.99208
 11
3
 21
9.2
  0
LINE
  8
0
 10
3
 20
9.2
 11
3.02185
 21
9.4079
  0
LINE
  8
0
 10
3.02185
 20
9.4079
 11
3.08644
 21
9.60674
  0
LINE
  8
0
 10
3.08644
 20
9.60674
 11
3.19098
 21
9.78778
  0
LINE
  8
0
 10
3.19098
 20
9.78778
 11
3.33086
 21
9.94313
  0
LINE
  8
0
 10
3.33086
 20
9.94313
 11
3.5
 21
10.066
  0
LINE
  8
0
 10
3.5
 20
10.066
 11
3.69098
 21
10.151
  0
LINE
  8
0
 10
3.69098
 20
10.151
 11
3.89546
 21
10.1945
  0
LINE
  8
0
 10
3.89546
 20
10.1945
 11
4.10452
 21
10.1945
  0
LINE
  8
0
 10
4.10452
 20
10.1945
 11
4.30901
 21
10.151
  0
LINE
  8
0
 10
4.30901
 20
10.151
 11
4.5
 21
10.066
  0
LINE
  8
0
 10
4.5
 20
10.066
 11
4.66913
 21
9.94313
  0
LINE
  8
0
 10
4.66913
 20
9.94313
 11
4.80901
 21
9.78778
  0
LINE
  8
0
 10
4.80901
 20
9.78778
 11
4.91354
 21
9.60674
  0
LINE
  8
0
 10
4.91354
 20
9.60674
 11
4.97813
 21
9.4079
  0
LINE
  8
0
 10
4.97813
 20
9.4079
 11
5
 21
9.2
  0
LINE
  8
0
 10
5
 20
9.2
 11
4.97813
 21
8.99208
  0
LINE
  8
0
 10
4.97813
 20
8.99208
 11
4.91354
 21
8.79326
  0
LINE
  8
0
 10
4.91354
 20
8.79326
 11
4.80901
 21
8.61221
  0
LINE
  8
0
 10
4.80901
 20
8.61221
 11
4.66913
 21
8.45685
  0
LINE
  8
0
 10
4.66913
 20
8.45685
 11
4.5
 21
8.33397
  0
LINE
  8
0
 10
4.5
 20
8.33397
 11
4.30901
 21
8.24893
  0
LINE
  8
0
 10
4.30901
 20
8.24893
 11
4.10452
 21
8.20547
  0
LINE
  8
0
 10
4.10452
 20
8.20547
 11
3.89546
 21
8.20547
  0
LINE
  8
0
 10
438
 20
81.5
 11
300
 21
81.5
  0
LINE
  8
0
 10
300
 20
81.5
 11
300
 21
50
  0
LINE
  8
0
 10
300
 20
50
 11
438
 21
50
  0
LINE
  8
0
 10
438
 20
50
 11
438
 21
81.5
  0
LINE
  8
0
 10
343.477
 20
60.7774
 11
342.455
 21
60.9947
  0
LINE
  8
0
 10
342.455
 20
60.9947
 11
341.5
 21
61.4199
  0
LINE
  8
0
 10
341.5
 20
61.4199
 11
340.654
 21
62.0343
  0
LINE
  8
0
 10
340.654
 20
62.0343
 11
339.955
 21
62.8111
  0
LINE
  8
0
 10
339.955
 20
62.8111
 11
339.432
 21
63.7163
  0
LINE
  8
0
 10
339.432
 20
63.7163
 11
339.109
 21
64.7104
  0
LINE
  8
0
 10
339.109
 20
64.7104
 11
339
 21
65.75
  0
LINE
  8
0
 10
339
 20
65.75
 11
339.109
 21
66.7896
  0
LINE
  8
0
 10
339.109
 20
66.7896
 11
339.432
 21
67.7837
  0
LINE
  8
0
 10
339.432
 20
67.7837
 11
339.955
 21
68.6889
  0
LINE
  8
0
 10
339.955
 20
68.6889
 11
340.654
 21
69.4657
  0
LINE
  8
0
 10
340.654
 20
69.4657
 11
341.5
 21
70.0801
  0
LINE
  8
0
 10
341.5
 20
70.0801
 11
342.455
 21
70.5053
  0
LINE
  8
0
 10
342.455
 20
70.5053
 11
343.477
 21
70.7226
  0
LINE
  8
0
 10
343.477
 20
70.7226
 11
344.523
 21
70.7226
  0
LINE
  8
0
 10
344.523
 20
70.7226
 11
345.545
 21
70.5053
  0
LINE
  8
0
 10
345.545
 20
70.5053
 11
346.5
 21
70.0801
  0
LINE
  8
0
 10
346.5
 20
70.0801
 11
347.346
 21
69.4657
  0
LINE
  8
0
 10
347.346
 20
69.4657
 11
348.045
 21
68.6889
  0
LINE
  8
0
 10
348.045
 20
68.6889
 11
348.568
 21
67.7837
  0
LINE
  8
0
 10
348.568
 20
67.7837
 11
348.891
 21
66.7896
  0
LINE
  8
0
 10
348.891
 20
66.7896
 11
349
 21
65.75
  0
LINE
  8
0
 10
349
 20
65.75
 11
348.891
 21
64.7104
  0
LINE
  8
0
 10
348.891
 20
64.7104
 11
348.568
 21
63.7163
  0
LINE
  8
0
 10
348.568
 20
63.7163
 11
348.045
 21
62.8111
  0
LINE
  8
0
 10
348.045
 20
62.8111
 11
347.346
 21
62.0343
  0
LINE
  8
0
 10
347.346
 20
62.0343
 11
346.5
 21
61.4199
  0
LINE
  8
0
 10
346.5
 20
61.4199
 11
345.545
 21
60.9947
  0
LINE
  8
0
 10
345.545
 20
60.9947
 11
344.523
 21
60.7774
  0
LINE
  8
0
 10
344.523
 20
60.7774
 11
343.477
 21
60.7774
  0
LINE
  8
0
 10
393.634
 20
62.2692
 11
392.918
 21
62.4213
  0
LINE
  8
0
 10
392.918
 20
62.4213
 11
392.25
 21
62.7189
  0
LINE
  8
0
 10
392.25
 20
62.7189
 11
391.658
 21
63.149
  0
LINE
  8
0
 10
391.658
 20
63.149
 11
391.168
 21
63.6927
  0
LINE
  8
0
 10
391.168
 20
63.6927
 11
390.803
 21
64.3264
  0
LINE
  8
0
 10
390.803
 20
64.3264
 11
390.576
 21
65.0223
  0
LINE
  8
0
 10
390.576
 20
65.0223
 11
390.5
 21
65.75
  0
LINE
  8
0
 10
390.5
 20
65.75
 11
390.576
 21
66.4777
  0
LINE
  8
0
 10
390.576
 20
66.4777
 11
390.803
 21
67.1736
  0
LINE
  8
0
 10
390.803
 20
67.1736
 11
391.168
 21
67.8072
  0
LINE
  8
0
 10
391.168
 20
67.8072
 11
391.658
 21
68.351
  0
LINE
  8
0
 10
391.658
 20
68.351
 11
392.25
 21
68.7811
  0
LINE
  8
0
 10
392.25
 20
68.7811
 11
392.918
 21
69.0787
  0
LINE
  8
0
 10
392.918
 20
69.0787
 11
393.634
 21
69.2308
  0
LINE
  8
0
 10
393.634
 20
69.2308
 11
394.366
 21
69.2308
  0
LINE
  8
0
 10
394.366
 20
69.2308
 11
395.082
 21
69.0787
  0
LINE
  8
0
 10
395.082
 20
69.0787
 11
395.75
 21
68.7811
  0
LINE
  8
0
 10
395.75
 20
68.7811
 11
396.342
 21
68.351
  0
LINE
  8
0
 10
396.342
 20
68.351
 11
396.832
 21
67.8072
  0
LINE
  8
0
 10
396.832
 20
67.8072
 11
397.197
 21
67.1736
  0
LINE
  8
0
 10
397.197
 20
67.1736
 11
397.424
 21
66.4777
  0
LINE
  8
0
 10
397.424
 20
66.4777
 11
397.5
 21
65.75
  0
LINE
  8
0
 10
397.5
 20
65.75
 11
397.424
 21
65.0223
  0
LINE
  8
0
 10
397.424
 20
65.0223
 11
397.197
 21
64.3264
  0
LINE
  8
0
 10
397.197
 20
64.3264
 11
396.832
 21
63.6927
  0
LINE
  8
0
 10
396.832
 20
63.6927
 11
396.342
 21
63.149
  0
LINE
  8
0
 10
396.342
 20
63.149
 11
395.75
 21
62.7189
  0
LINE
  8
0
 10
395.75
 20
62.7189
 11
395.082
 21
62.4213
  0
LINE
  8
0
 10
395.082
 20
62.4213
 11
394.366
 21
62.2692
  0
LINE
  8
0
 10
394.366
 20
62.2692
 11
393.634
 21
62.2692
  0
LINE
  8
0
 10
358.634
 20
62.2692
 11
357.918
 21
62.4213
  0
LINE
  8
0
 10
357.918
 20
62.4213
 11
357.25
 21
62.7189
  0
LINE
  8
0
 10
357.25
 20
62.7189
 11
356.658
 21
63.149
  0
LINE
  8
0
 10
356.658
 20
63.149
 11
356.168
 21
63.6927
  0
LINE
  8
0
 10
356.168
 20
63.6927
 11
355.803
 21
64.3264
  0
LINE
  8
0
 10
355.803
 20
64.3264
 11
355.576
 21
65.0223
  0
LINE
  8
0
 10
355.576
 20
65.0223
 11
355.5
 21
65.75
  0
LINE
  8
0
 10
355.5
 20
65.75
 11
355.576
 21
66.4777
  0
LINE
  8
0
 10
355.576
 20
66.4777
 11
355.803
 21
67.1736
  0
LINE
  8
0
 10
355.803
 20
67.1736
 11
356.168
 21
67.8072
  0
LINE
  8
0
 10
356.168
 20
67.8072
 11
356.658
 21
68.351
  0
LINE
  8
0
 10
356.658
 20
68.351
 11
357.25
 21
68.7811
  0
LINE
  8
0
 10
357.25
 20
68.7811
 11
357.918
 21
69.0787
  0
LINE
  8
0
 10
357.918
 20
69.0787
 11
358.634
 21
69.2308
  0
LINE
  8
0
 10
358.634
 20
69.2308
 11
359.366
 21
69.2308
  0
LINE
  8
0
 10
359.366
 20
69.2308
 11
360.082
 21
69.0787
  0
LINE
  8
0
 10
360.082
 20
69.0787
 11
360.75
 21
68.7811
  0
LINE
  8
0
 10
360.75
 20
68.7811
 11
361.342
 21
68.351
  0
LINE
  8
0
 10
361.342
 20
68.351
 11
361.832
 21
67.8072
  0
LINE
  8
0
 10
361.832
 20
67.8072
 11
362.197
 21
67.1736
  0
LINE
  8
0
 10
362.197
 20
67.1736
 11
362.424
 21
66.4777
  0
LINE
  8
0
 10
362.424
 20
66.4777
 11
362.5
 21
65.75
  0
LINE
  8
0
 10
362.5
 20
65.75
 11
362.424
 21
65.0223
  0
LINE
  8
0
 10
362.424
 20
65.0223
 11
362.197
 21
64.3264
  0
LINE
  8
0
 10
362.197
 20
64.3264
 11
361.832
 21
63.6927
  0
LINE
  8
0
 10
361.832
 20
63.6927
 11
361.342
 21
63.149
  0
LINE
  8
0
 10
361.342
 20
63.149
 11
360.75
 21
62.7189
  0
LINE
  8
0
 10
360.75
 20
62.7189
 11
360.082
 21
62.4213
  0
LINE
  8
0
 10
360.082
 20
62.4213
 11
359.366
 21
62.2692
  0
LINE
  8
0
 10
359.366
 20
62.2692
 11
358.634
 21
62.2692
  0
LINE
  8
0
 10
288
 20
65
 11
150
 21
65
  0
LINE
  8
0
 10
150
 20
65
 11
150
 21
0
  0
LINE
  8
0
 10
150
 20
0
 11
288
 21
0
  0
LINE
  8
0
 10
288
 20
0
 11
288
 21
65
  0
LINE
  8
0
 10
438
 20
36
 11
300
 21
36
  0
LINE
  8
0
 10
300
 20
36
 11
300
 21
0
  0
LINE
  8
0
 10
300
 20
0
 11
438
 21
0
  0
LINE
  8
0
 10
438
 20
0
 11
438
 21
36
  0
ENDSEC
  0
SECTION
  2
OBJECTS
  0
DICTIONARY
  0
ENDSEC
  0
EOF
