  0
SECTION
  2
BLOCKS
  0
ENDSEC
  0
SECTION
  2
ENTITIES
  0
LINE
  8
0
 10
317.108
 20
250
 11
327.6
 21
250
  0
LINE
  8
0
 10
327.6
 20
250
 11
327.6
 21
245
  0
LINE
  8
0
 10
327.6
 20
245
 11
410.4
 21
245
  0
LINE
  8
0
 10
410.4
 20
245
 11
410.4
 21
250
  0
LINE
  8
0
 10
410.4
 20
250
 11
420.892
 21
250
  0
LINE
  8
0
 10
420.892
 20
250
 11
420.892
 21
245
  0
LINE
  8
0
 10
420.892
 20
245
 11
428.892
 21
245
  0
LINE
  8
0
 10
428.892
 20
245
 11
428.892
 21
250
  0
LINE
  8
0
 10
428.892
 20
250
 11
438
 21
250
  0
LINE
  8
0
 10
438
 20
250
 11
438
 21
309
  0
LINE
  8
0
 10
438
 20
309
 11
428.892
 21
309
  0
LINE
  8
0
 10
428.892
 20
309
 11
428.892
 21
314
  0
LINE
  8
0
 10
428.892
 20
314
 11
420.892
 21
314
  0
LINE
  8
0
 10
420.892
 20
314
 11
420.892
 21
309
  0
LINE
  8
0
 10
420.892
 20
309
 11
317.108
 21
309
  0
LINE
  8
0
 10
317.108
 20
309
 11
317.108
 21
314
  0
LINE
  8
0
 10
317.108
 20
314
 11
309.108
 21
314
  0
LINE
  8
0
 10
309.108
 20
314
 11
309.108
 21
309
  0
LINE
  8
0
 10
309.108
 20
309
 11
300
 21
309
  0
LINE
  8
0
 10
300
 20
309
 11
300
 21
250
  0
LINE
  8
0
 10
300
 20
250
 11
309.108
 21
250
  0
LINE
  8
0
 10
309.108
 20
250
 11
309.108
 21
245
  0
LINE
  8
0
 10
309.108
 20
245
 11
317.108
 21
245
  0
LINE
  8
0
 10
317.108
 20
245
 11
317.108
 21
250
  0
LINE
  8
0
 10
160
 20
256
 11
0
 21
256
  0
LINE
  8
0
 10
0
 20
256
 11
0
 21
248
  0
LINE
  8
0
 10
0
 20
248
 11
160
 21
248
  0
LINE
  8
0
 10
160
 20
248
 11
160
 21
256
  0
LINE
  8
0
 10
160
 20
244
 11
0
 21
244
  0
LINE
  8
0
 10
0
 20
244
 11
0
 21
236
  0
LINE
  8
0
 10
0
 20
236
 11
160
 21
236
  0
LINE
  8
0
 10
160
 20
236
 11
160
 21
244
  0
LINE
  8
0
 10
438
 20
221
 11
434.667
 21
221
  0
LINE
  8
0
 10
434.667
 20
221
 11
434.667
 21
219.75
  0
LINE
  8
0
 10
434.667
 20
219.75
 11
432.167
 21
219.75
  0
LINE
  8
0
 10
432.167
 20
219.75
 11
432.167
 21
221
  0
LINE
  8
0
 10
432.167
 20
221
 11
429
 21
221
  0
LINE
  8
0
 10
429
 20
221
 11
429
 21
224
  0
LINE
  8
0
 10
429
 20
224
 11
432.167
 21
224
  0
LINE
  8
0
 10
432.167
 20
224
 11
432.167
 21
225.25
  0
LINE
  8
0
 10
432.167
 20
225.25
 11
434.667
 21
225.25
  0
LINE
  8
0
 10
434.667
 20
225.25
 11
434.667
 21
224
  0
LINE
  8
0
 10
434.667
 20
224
 11
438
 21
224
  0
LINE
  8
0
 10
438
 20
224
 11
438
 21
228.4
  0
LINE
  8
0
 10
438
 20
228.4
 11
430
 21
228.4
  0
LINE
  8
0
 10
430
 20
228.4
 11
430
 21
233.4
  0
LINE
  8
0
 10
430
 20
233.4
 11
438
 21
233.4
  0
LINE
  8
0
 10
438
 20
233.4
 11
438
 21
239.4
  0
LINE
  8
0
 10
438
 20
239.4
 11
300
 21
239.4
  0
LINE
  8
0
 10
300
 20
239.4
 11
300
 21
233.4
  0
LINE
  8
0
 10
300
 20
233.4
 11
308
 21
233.4
  0
LINE
  8
0
 10
308
 20
233.4
 11
308
 21
228.4
  0
LINE
  8
0
 10
308
 20
228.4
 11
300
 21
228.4
  0
LINE
  8
0
 10
300
 20
228.4
 11
300
 21
224
  0
LINE
  8
0
 10
300
 20
224
 11
303.333
 21
224
  0
LINE
  8
0
 10
303.333
 20
224
 11
303.333
 21
225.25
  0
LINE
  8
0
 10
303.333
 20
225.25
 11
305.833
 21
225.25
  0
LINE
  8
0
 10
305.833
 20
225.25
 11
305.833
 21
224
  0
LINE
  8
0
 10
305.833
 20
224
 11
309
 21
224
  0
LINE
  8
0
 10
309
 20
224
 11
309
 21
221
  0
LINE
  8
0
 10
309
 20
221
 11
305.833
 21
221
  0
LINE
  8
0
 10
305.833
 20
221
 11
305.833
 21
219.75
  0
LINE
  8
0
 10
305.833
 20
219.75
 11
303.333
 21
219.75
  0
LINE
  8
0
 10
303.333
 20
219.75
 11
303.333
 21
221
  0
LINE
  8
0
 10
303.333
 20
221
 11
300
 21
221
  0
LINE
  8
0
 10
300
 20
221
 11
300
 21
200
  0
LINE
  8
0
 10
300
 20
200
 11
438
 21
200
  0
LINE
  8
0
 10
438
 20
200
 11
438
 21
221
  0
LINE
  8
0
 10
160
 20
232
 11
0
 21
232
  0
LINE
  8
0
 10
0
 20
232
 11
0
 21
224
  0
LINE
  8
0
 10
0
 20
224
 11
160
 21
224
  0
LINE
  8
0
 10
160
 20
224
 11
160
 21
232
  0
LINE
  8
0
 10
9.39207
 20
227.022
 11
9.19325
 21
227.086
  0
LINE
  8
0
 10
9.19325
 20
227.086
 11
9.01221
 21
227.191
  0
LINE
  8
0
 10
9.01221
 20
227.191
 11
8.85684
 21
227.331
  0
LINE
  8
0
 10
8.85684
 20
227.331
 11
8.73396
 21
227.5
  0
LINE
  8
0
 10
8.73396
 20
227.5
 11
8.64894
 21
227.691
  0
LINE
  8
0
 10
8.64894
 20
227.691
 11
8.60547
 21
227.895
  0
LINE
  8
0
 10
8.60547
 20
227.895
 11
8.60547
 21
228.105
  0
LINE
  8
0
 10
8.60547
 20
228.105
 11
8.64894
 21
228.309
  0
LINE
  8
0
 10
8.64894
 20
228.309
 11
8.73396
 21
228.5
  0
LINE
  8
0
 10
8.73396
 20
228.5
 11
8.85684
 21
228.669
  0
LINE
  8
0
 10
8.85684
 20
228.669
 11
9.01221
 21
228.809
  0
LINE
  8
0
 10
9.01221
 20
228.809
 11
9.19325
 21
228.914
  0
LINE
  8
0
 10
9.19325
 20
228.914
 11
9.39207
 21
228.978
  0
LINE
  8
0
 10
9.39207
 20
228.978
 11
9.59999
 21
229
  0
LINE
  8
0
 10
9.59999
 20
229
 11
9.80791
 21
228.978
  0
LINE
  8
0
 10
9.80791
 20
228.978
 11
10.0067
 21
228.914
  0
LINE
  8
0
 10
10.0067
 20
228.914
 11
10.1878
 21
228.809
  0
LINE
  8
0
 10
10.1878
 20
228.809
 11
10.3431
 21
228.669
  0
LINE
  8
0
 10
10.3431
 20
228.669
 11
10.466
 21
228.5
  0
LINE
  8
0
 10
10.466
 20
228.5
 11
10.5511
 21
228.309
  0
LINE
  8
0
 10
10.5511
 20
228.309
 11
10.5945
 21
228.105
  0
LINE
  8
0
 10
10.5945
 20
228.105
 11
10.5945
 21
227.895
  0
LINE
  8
0
 10
10.5945
 20
227.895
 11
10.5511
 21
227.691
  0
LINE
  8
0
 10
10.5511
 20
227.691
 11
10.466
 21
227.5
  0
LINE
  8
0
 10
10.466
 20
227.5
 11
10.3431
 21
227.331
  0
LINE
  8
0
 10
10.3431
 20
227.331
 11
10.1878
 21
227.191
  0
LINE
  8
0
 10
10.1878
 20
227.191
 11
10.0067
 21
227.086
  0
LINE
  8
0
 10
10.0067
 20
227.086
 11
9.80791
 21
227.022
  0
LINE
  8
0
 10
9.80791
 20
227.022
 11
9.59999
 21
227
  0
LINE
  8
0
 10
9.59999
 20
227
 11
9.39207
 21
227.022
  0
LINE
  8
0
 10
84.2721
 20
227.022
 11
84.0733
 21
227.086
  0
LINE
  8
0
 10
84.0733
 20
227.086
 11
83.8922
 21
227.191
  0
LINE
  8
0
 10
83.8922
 20
227.191
 11
83.7368
 21
227.331
  0
LINE
  8
0
 10
83.7368
 20
227.331
 11
83.614
 21
227.5
  0
LINE
  8
0
 10
83.614
 20
227.5
 11
83.5289
 21
227.691
  0
LINE
  8
0
 10
83.5289
 20
227.691
 11
83.4855
 21
227.895
  0
LINE
  8
0
 10
83.4855
 20
227.895
 11
83.4855
 21
228.105
  0
LINE
  8
0
 10
83.4855
 20
228.105
 11
83.5289
 21
228.309
  0
LINE
  8
0
 10
83.5289
 20
228.309
 11
83.614
 21
228.5
  0
LINE
  8
0
 10
83.614
 20
228.5
 11
83.7368
 21
228.669
  0
LINE
  8
0
 10
83.7368
 20
228.669
 11
83.8922
 21
228.809
  0
LINE
  8
0
 10
83.8922
 20
228.809
 11
84.0733
 21
228.914
  0
LINE
  8
0
 10
84.0733
 20
228.914
 11
84.2721
 21
228.978
  0
LINE
  8
0
 10
84.2721
 20
228.978
 11
84.48
 21
229
  0
LINE
  8
0
 10
84.48
 20
229
 11
84.6879
 21
228.978
  0
LINE
  8
0
 10
84.6879
 20
228.978
 11
84.8867
 21
228.914
  0
LINE
  8
0
 10
84.8867
 20
228.914
 11
85.0678
 21
228.809
  0
LINE
  8
0
 10
85.0678
 20
228.809
 11
85.2231
 21
228.669
  0
LINE
  8
0
 10
85.2231
 20
228.669
 11
85.346
 21
228.5
  0
LINE
  8
0
 10
85.346
 20
228.5
 11
85.431
 21
228.309
  0
LINE
  8
0
 10
85.431
 20
228.309
 11
85.4745
 21
228.105
  0
LINE
  8
0
 10
85.4745
 20
228.105
 11
85.4745
 21
227.895
  0
LINE
  8
0
 10
85.4745
 20
227.895
 11
85.431
 21
227.691
  0
LINE
  8
0
 10
85.431
 20
227.691
 11
85.346
 21
227.5
  0
LINE
  8
0
 10
85.346
 20
227.5
 11
85.2231
 21
227.331
  0
LINE
  8
0
 10
85.2231
 20
227.331
 11
85.0678
 21
227.191
  0
LINE
  8
0
 10
85.0678
 20
227.191
 11
84.8867
 21
227.086
  0
LINE
  8
0
 10
84.8867
 20
227.086
 11
84.6879
 21
227.022
  0
LINE
  8
0
 10
84.6879
 20
227.022
 11
84.48
 21
227
  0
LINE
  8
0
 10
84.48
 20
227
 11
84.2721
 21
227.022
  0
LINE
  8
0
 10
150.512
 20
227.022
 11
150.313
 21
227.086
  0
LINE
  8
0
 10
150.313
 20
227.086
 11
150.132
 21
227.191
  0
LINE
  8
0
 10
150.132
 20
227.191
 11
149.977
 21
227.331
  0
LINE
  8
0
 10
149.977
 20
227.331
 11
149.854
 21
227.5
  0
LINE
  8
0
 10
149.854
 20
227.5
 11
149.769
 21
227.691
  0
LINE
  8
0
 10
149.769
 20
227.691
 11
149.725
 21
227.895
  0
LINE
  8
0
 10
149.725
 20
227.895
 11
149.725
 21
228.105
  0
LINE
  8
0
 10
149.725
 20
228.105
 11
149.769
 21
228.309
  0
LINE
  8
0
 10
149.769
 20
228.309
 11
149.854
 21
228.5
  0
LINE
  8
0
 10
149.854
 20
228.5
 11
149.977
 21
228.669
  0
LINE
  8
0
 10
149.977
 20
228.669
 11
150.132
 21
228.809
  0
LINE
  8
0
 10
150.132
 20
228.809
 11
150.313
 21
228.914
  0
LINE
  8
0
 10
150.313
 20
228.914
 11
150.512
 21
228.978
  0
LINE
  8
0
 10
150.512
 20
228.978
 11
150.72
 21
229
  0
LINE
  8
0
 10
150.72
 20
229
 11
150.928
 21
228.978
  0
LINE
  8
0
 10
150.928
 20
228.978
 11
151.127
 21
228.914
  0
LINE
  8
0
 10
151.127
 20
228.914
 11
151.308
 21
228.809
  0
LINE
  8
0
 10
151.308
 20
228.809
 11
151.463
 21
228.669
  0
LINE
  8
0
 10
151.463
 20
228.669
 11
151.586
 21
228.5
  0
LINE
  8
0
 10
151.586
 20
228.5
 11
151.671
 21
228.309
  0
LINE
  8
0
 10
151.671
 20
228.309
 11
151.715
 21
228.105
  0
LINE
  8
0
 10
151.715
 20
228.105
 11
151.715
 21
227.895
  0
LINE
  8
0
 10
151.715
 20
227.895
 11
151.671
 21
227.691
  0
LINE
  8
0
 10
151.671
 20
227.691
 11
151.586
 21
227.5
  0
LINE
  8
0
 10
151.586
 20
227.5
 11
151.463
 21
227.331
  0
LINE
  8
0
 10
151.463
 20
227.331
 11
151.308
 21
227.191
  0
LINE
  8
0
 10
151.308
 20
227.191
 11
151.127
 21
227.086
  0
LINE
  8
0
 10
151.127
 20
227.086
 11
150.928
 21
227.022
  0
LINE
  8
0
 10
150.928
 20
227.022
 11
150.72
 21
227
  0
LINE
  8
0
 10
150.72
 20
227
 11
150.512
 21
227.022
  0
LINE
  8
0
 10
160
 20
220
 11
0
 21
220
  0
LINE
  8
0
 10
0
 20
220
 11
0
 21
212
  0
LINE
  8
0
 10
0
 20
212
 11
160
 21
212
  0
LINE
  8
0
 10
160
 20
212
 11
160
 21
220
  0
LINE
  8
0
 10
9.39207
 20
215.022
 11
9.19325
 21
215.086
  0
LINE
  8
0
 10
9.19325
 20
215.086
 11
9.01221
 21
215.191
  0
LINE
  8
0
 10
9.01221
 20
215.191
 11
8.85684
 21
215.331
  0
LINE
  8
0
 10
8.85684
 20
215.331
 11
8.73396
 21
215.5
  0
LINE
  8
0
 10
8.73396
 20
215.5
 11
8.64894
 21
215.691
  0
LINE
  8
0
 10
8.64894
 20
215.691
 11
8.60547
 21
215.895
  0
LINE
  8
0
 10
8.60547
 20
215.895
 11
8.60547
 21
216.105
  0
LINE
  8
0
 10
8.60547
 20
216.105
 11
8.64894
 21
216.309
  0
LINE
  8
0
 10
8.64894
 20
216.309
 11
8.73396
 21
216.5
  0
LINE
  8
0
 10
8.73396
 20
216.5
 11
8.85684
 21
216.669
  0
LINE
  8
0
 10
8.85684
 20
216.669
 11
9.01221
 21
216.809
  0
LINE
  8
0
 10
9.01221
 20
216.809
 11
9.19325
 21
216.914
  0
LINE
  8
0
 10
9.19325
 20
216.914
 11
9.39207
 21
216.978
  0
LINE
  8
0
 10
9.39207
 20
216.978
 11
9.59999
 21
217
  0
LINE
  8
0
 10
9.59999
 20
217
 11
9.80791
 21
216.978
  0
LINE
  8
0
 10
9.80791
 20
216.978
 11
10.0067
 21
216.914
  0
LINE
  8
0
 10
10.0067
 20
216.914
 11
10.1878
 21
216.809
  0
LINE
  8
0
 10
10.1878
 20
216.809
 11
10.3431
 21
216.669
  0
LINE
  8
0
 10
10.3431
 20
216.669
 11
10.466
 21
216.5
  0
LINE
  8
0
 10
10.466
 20
216.5
 11
10.5511
 21
216.309
  0
LINE
  8
0
 10
10.5511
 20
216.309
 11
10.5945
 21
216.105
  0
LINE
  8
0
 10
10.5945
 20
216.105
 11
10.5945
 21
215.895
  0
LINE
  8
0
 10
10.5945
 20
215.895
 11
10.5511
 21
215.691
  0
LINE
  8
0
 10
10.5511
 20
215.691
 11
10.466
 21
215.5
  0
LINE
  8
0
 10
10.466
 20
215.5
 11
10.3431
 21
215.331
  0
LINE
  8
0
 10
10.3431
 20
215.331
 11
10.1878
 21
215.191
  0
LINE
  8
0
 10
10.1878
 20
215.191
 11
10.0067
 21
215.086
  0
LINE
  8
0
 10
10.0067
 20
215.086
 11
9.80791
 21
215.022
  0
LINE
  8
0
 10
9.80791
 20
215.022
 11
9.59999
 21
215
  0
LINE
  8
0
 10
9.59999
 20
215
 11
9.39207
 21
215.022
  0
LINE
  8
0
 10
84.2721
 20
215.022
 11
84.0733
 21
215.086
  0
LINE
  8
0
 10
84.0733
 20
215.086
 11
83.8922
 21
215.191
  0
LINE
  8
0
 10
83.8922
 20
215.191
 11
83.7368
 21
215.331
  0
LINE
  8
0
 10
83.7368
 20
215.331
 11
83.614
 21
215.5
  0
LINE
  8
0
 10
83.614
 20
215.5
 11
83.5289
 21
215.691
  0
LINE
  8
0
 10
83.5289
 20
215.691
 11
83.4855
 21
215.895
  0
LINE
  8
0
 10
83.4855
 20
215.895
 11
83.4855
 21
216.105
  0
LINE
  8
0
 10
83.4855
 20
216.105
 11
83.5289
 21
216.309
  0
LINE
  8
0
 10
83.5289
 20
216.309
 11
83.614
 21
216.5
  0
LINE
  8
0
 10
83.614
 20
216.5
 11
83.7368
 21
216.669
  0
LINE
  8
0
 10
83.7368
 20
216.669
 11
83.8922
 21
216.809
  0
LINE
  8
0
 10
83.8922
 20
216.809
 11
84.0733
 21
216.914
  0
LINE
  8
0
 10
84.0733
 20
216.914
 11
84.2721
 21
216.978
  0
LINE
  8
0
 10
84.2721
 20
216.978
 11
84.48
 21
217
  0
LINE
  8
0
 10
84.48
 20
217
 11
84.6879
 21
216.978
  0
LINE
  8
0
 10
84.6879
 20
216.978
 11
84.8867
 21
216.914
  0
LINE
  8
0
 10
84.8867
 20
216.914
 11
85.0678
 21
216.809
  0
LINE
  8
0
 10
85.0678
 20
216.809
 11
85.2231
 21
216.669
  0
LINE
  8
0
 10
85.2231
 20
216.669
 11
85.346
 21
216.5
  0
LINE
  8
0
 10
85.346
 20
216.5
 11
85.431
 21
216.309
  0
LINE
  8
0
 10
85.431
 20
216.309
 11
85.4745
 21
216.105
  0
LINE
  8
0
 10
85.4745
 20
216.105
 11
85.4745
 21
215.895
  0
LINE
  8
0
 10
85.4745
 20
215.895
 11
85.431
 21
215.691
  0
LINE
  8
0
 10
85.431
 20
215.691
 11
85.346
 21
215.5
  0
LINE
  8
0
 10
85.346
 20
215.5
 11
85.2231
 21
215.331
  0
LINE
  8
0
 10
85.2231
 20
215.331
 11
85.0678
 21
215.191
  0
LINE
  8
0
 10
85.0678
 20
215.191
 11
84.8867
 21
215.086
  0
LINE
  8
0
 10
84.8867
 20
215.086
 11
84.6879
 21
215.022
  0
LINE
  8
0
 10
84.6879
 20
215.022
 11
84.48
 21
215
  0
LINE
  8
0
 10
84.48
 20
215
 11
84.2721
 21
215.022
  0
LINE
  8
0
 10
150.512
 20
215.022
 11
150.313
 21
215.086
  0
LINE
  8
0
 10
150.313
 20
215.086
 11
150.132
 21
215.191
  0
LINE
  8
0
 10
150.132
 20
215.191
 11
149.977
 21
215.331
  0
LINE
  8
0
 10
149.977
 20
215.331
 11
149.854
 21
215.5
  0
LINE
  8
0
 10
149.854
 20
215.5
 11
149.769
 21
215.691
  0
LINE
  8
0
 10
149.769
 20
215.691
 11
149.725
 21
215.895
  0
LINE
  8
0
 10
149.725
 20
215.895
 11
149.725
 21
216.105
  0
LINE
  8
0
 10
149.725
 20
216.105
 11
149.769
 21
216.309
  0
LINE
  8
0
 10
149.769
 20
216.309
 11
149.854
 21
216.5
  0
LINE
  8
0
 10
149.854
 20
216.5
 11
149.977
 21
216.669
  0
LINE
  8
0
 10
149.977
 20
216.669
 11
150.132
 21
216.809
  0
LINE
  8
0
 10
150.132
 20
216.809
 11
150.313
 21
216.914
  0
LINE
  8
0
 10
150.313
 20
216.914
 11
150.512
 21
216.978
  0
LINE
  8
0
 10
150.512
 20
216.978
 11
150.72
 21
217
  0
LINE
  8
0
 10
150.72
 20
217
 11
150.928
 21
216.978
  0
LINE
  8
0
 10
150.928
 20
216.978
 11
151.127
 21
216.914
  0
LINE
  8
0
 10
151.127
 20
216.914
 11
151.308
 21
216.809
  0
LINE
  8
0
 10
151.308
 20
216.809
 11
151.463
 21
216.669
  0
LINE
  8
0
 10
151.463
 20
216.669
 11
151.586
 21
216.5
  0
LINE
  8
0
 10
151.586
 20
216.5
 11
151.671
 21
216.309
  0
LINE
  8
0
 10
151.671
 20
216.309
 11
151.715
 21
216.105
  0
LINE
  8
0
 10
151.715
 20
216.105
 11
151.715
 21
215.895
  0
LINE
  8
0
 10
151.715
 20
215.895
 11
151.671
 21
215.691
  0
LINE
  8
0
 10
151.671
 20
215.691
 11
151.586
 21
215.5
  0
LINE
  8
0
 10
151.586
 20
215.5
 11
151.463
 21
215.331
  0
LINE
  8
0
 10
151.463
 20
215.331
 11
151.308
 21
215.191
  0
LINE
  8
0
 10
151.308
 20
215.191
 11
151.127
 21
215.086
  0
LINE
  8
0
 10
151.127
 20
215.086
 11
150.928
 21
215.022
  0
LINE
  8
0
 10
150.928
 20
215.022
 11
150.72
 21
215
  0
LINE
  8
0
 10
150.72
 20
215
 11
150.512
 21
215.022
  0
LINE
  8
0
 10
170
 20
205
 11
0
 21
205
  0
LINE
  8
0
 10
0
 20
205
 11
0
 21
160
  0
LINE
  8
0
 10
0
 20
160
 11
170
 21
160
  0
LINE
  8
0
 10
170
 20
160
 11
170
 21
205
  0
LINE
  8
0
 10
162.343
 20
181.008
 11
162.036
 21
181.073
  0
LINE
  8
0
 10
162.036
 20
181.073
 11
161.75
 21
181.201
  0
LINE
  8
0
 10
161.75
 20
181.201
 11
161.496
 21
181.385
  0
LINE
  8
0
 10
161.496
 20
181.385
 11
161.286
 21
181.618
  0
LINE
  8
0
 10
161.286
 20
181.618
 11
161.13
 21
181.89
  0
LINE
  8
0
 10
161.13
 20
181.89
 11
161.033
 21
182.188
  0
LINE
  8
0
 10
161.033
 20
182.188
 11
161
 21
182.5
  0
LINE
  8
0
 10
161
 20
182.5
 11
161.033
 21
182.812
  0
LINE
  8
0
 10
161.033
 20
182.812
 11
161.13
 21
183.11
  0
LINE
  8
0
 10
161.13
 20
183.11
 11
161.286
 21
183.382
  0
LINE
  8
0
 10
161.286
 20
183.382
 11
161.496
 21
183.615
  0
LINE
  8
0
 10
161.496
 20
183.615
 11
161.75
 21
183.799
  0
LINE
  8
0
 10
161.75
 20
183.799
 11
162.036
 21
183.927
  0
LINE
  8
0
 10
162.036
 20
183.927
 11
162.343
 21
183.992
  0
LINE
  8
0
 10
162.343
 20
183.992
 11
162.657
 21
183.992
  0
LINE
  8
0
 10
162.657
 20
183.992
 11
162.964
 21
183.927
  0
LINE
  8
0
 10
162.964
 20
183.927
 11
163.25
 21
183.799
  0
LINE
  8
0
 10
163.25
 20
183.799
 11
163.504
 21
183.615
  0
LINE
  8
0
 10
163.504
 20
183.615
 11
163.714
 21
183.382
  0
LINE
  8
0
 10
163.714
 20
183.382
 11
163.87
 21
183.11
  0
LINE
  8
0
 10
163.87
 20
183.11
 11
163.967
 21
182.812
  0
LINE
  8
0
 10
163.967
 20
182.812
 11
164
 21
182.5
  0
LINE
  8
0
 10
164
 20
182.5
 11
163.967
 21
182.188
  0
LINE
  8
0
 10
163.967
 20
182.188
 11
163.87
 21
181.89
  0
LINE
  8
0
 10
163.87
 20
181.89
 11
163.714
 21
181.618
  0
LINE
  8
0
 10
163.714
 20
181.618
 11
163.504
 21
181.385
  0
LINE
  8
0
 10
163.504
 20
181.385
 11
163.25
 21
181.201
  0
LINE
  8
0
 10
163.25
 20
181.201
 11
162.964
 21
181.073
  0
LINE
  8
0
 10
162.964
 20
181.073
 11
162.657
 21
181.008
  0
LINE
  8
0
 10
162.657
 20
181.008
 11
162.343
 21
181.008
  0
LINE
  8
0
 10
98.3432
 20
181.008
 11
98.0365
 21
181.073
  0
LINE
  8
0
 10
98.0365
 20
181.073
 11
97.75
 21
181.201
  0
LINE
  8
0
 10
97.75
 20
181.201
 11
97.4963
 21
181.385
  0
LINE
  8
0
 10
97.4963
 20
181.385
 11
97.2865
 21
181.618
  0
LINE
  8
0
 10
97.2865
 20
181.618
 11
97.1297
 21
181.89
  0
LINE
  8
0
 10
97.1297
 20
181.89
 11
97.0328
 21
182.188
  0
LINE
  8
0
 10
97.0328
 20
182.188
 11
97
 21
182.5
  0
LINE
  8
0
 10
97
 20
182.5
 11
97.0328
 21
182.812
  0
LINE
  8
0
 10
97.0328
 20
182.812
 11
97.1297
 21
183.11
  0
LINE
  8
0
 10
97.1297
 20
183.11
 11
97.2865
 21
183.382
  0
LINE
  8
0
 10
97.2865
 20
183.382
 11
97.4963
 21
183.615
  0
LINE
  8
0
 10
97.4963
 20
183.615
 11
97.75
 21
183.799
  0
LINE
  8
0
 10
97.75
 20
183.799
 11
98.0365
 21
183.927
  0
LINE
  8
0
 10
98.0365
 20
183.927
 11
98.3432
 21
183.992
  0
LINE
  8
0
 10
98.3432
 20
183.992
 11
98.6568
 21
183.992
  0
LINE
  8
0
 10
98.6568
 20
183.992
 11
98.9635
 21
183.927
  0
LINE
  8
0
 10
98.9635
 20
183.927
 11
99.25
 21
183.799
  0
LINE
  8
0
 10
99.25
 20
183.799
 11
99.5037
 21
183.615
  0
LINE
  8
0
 10
99.5037
 20
183.615
 11
99.7135
 21
183.382
  0
LINE
  8
0
 10
99.7135
 20
183.382
 11
99.8703
 21
183.11
  0
LINE
  8
0
 10
99.8703
 20
183.11
 11
99.9672
 21
182.812
  0
LINE
  8
0
 10
99.9672
 20
182.812
 11
100
 21
182.5
  0
LINE
  8
0
 10
100
 20
182.5
 11
99.9672
 21
182.188
  0
LINE
  8
0
 10
99.9672
 20
182.188
 11
99.8703
 21
181.89
  0
LINE
  8
0
 10
99.8703
 20
181.89
 11
99.7135
 21
181.618
  0
LINE
  8
0
 10
99.7135
 20
181.618
 11
99.5037
 21
181.385
  0
LINE
  8
0
 10
99.5037
 20
181.385
 11
99.25
 21
181.201
  0
LINE
  8
0
 10
99.25
 20
181.201
 11
98.9635
 21
181.073
  0
LINE
  8
0
 10
98.9635
 20
181.073
 11
98.6568
 21
181.008
  0
LINE
  8
0
 10
98.6568
 20
181.008
 11
98.3432
 21
181.008
  0
LINE
  8
0
 10
7.3432
 20
181.008
 11
7.03647
 21
181.073
  0
LINE
  8
0
 10
7.03647
 20
181.073
 11
6.74998
 21
181.201
  0
LINE
  8
0
 10
6.74998
 20
181.201
 11
6.49629
 21
181.385
  0
LINE
  8
0
 10
6.49629
 20
181.385
 11
6.28647
 21
181.618
  0
LINE
  8
0
 10
6.28647
 20
181.618
 11
6.12967
 21
181.89
  0
LINE
  8
0
 10
6.12967
 20
181.89
 11
6.03278
 21
182.188
  0
LINE
  8
0
 10
6.03278
 20
182.188
 11
6
 21
182.5
  0
LINE
  8
0
 10
6
 20
182.5
 11
6.03278
 21
182.812
  0
LINE
  8
0
 10
6.03278
 20
182.812
 11
6.12967
 21
183.11
  0
LINE
  8
0
 10
6.12967
 20
183.11
 11
6.28647
 21
183.382
  0
LINE
  8
0
 10
6.28647
 20
183.382
 11
6.49629
 21
183.615
  0
LINE
  8
0
 10
6.49629
 20
183.615
 11
6.75
 21
183.799
  0
LINE
  8
0
 10
6.75
 20
183.799
 11
7.03647
 21
183.927
  0
LINE
  8
0
 10
7.03647
 20
183.927
 11
7.3432
 21
183.992
  0
LINE
  8
0
 10
7.3432
 20
183.992
 11
7.65678
 21
183.992
  0
LINE
  8
0
 10
7.65678
 20
183.992
 11
7.96352
 21
183.927
  0
LINE
  8
0
 10
7.96352
 20
183.927
 11
8.25
 21
183.799
  0
LINE
  8
0
 10
8.25
 20
183.799
 11
8.50369
 21
183.615
  0
LINE
  8
0
 10
8.50369
 20
183.615
 11
8.71352
 21
183.382
  0
LINE
  8
0
 10
8.71352
 20
183.382
 11
8.87032
 21
183.11
  0
LINE
  8
0
 10
8.87032
 20
183.11
 11
8.96721
 21
182.812
  0
LINE
  8
0
 10
8.96721
 20
182.812
 11
9
 21
182.5
  0
LINE
  8
0
 10
9
 20
182.5
 11
8.96721
 21
182.188
  0
LINE
  8
0
 10
8.96721
 20
182.188
 11
8.87032
 21
181.89
  0
LINE
  8
0
 10
8.87032
 20
181.89
 11
8.71352
 21
181.618
  0
LINE
  8
0
 10
8.71352
 20
181.618
 11
8.50369
 21
181.385
  0
LINE
  8
0
 10
8.50369
 20
181.385
 11
8.25
 21
181.201
  0
LINE
  8
0
 10
8.25
 20
181.201
 11
7.96352
 21
181.073
  0
LINE
  8
0
 10
7.96352
 20
181.073
 11
7.65678
 21
181.008
  0
LINE
  8
0
 10
7.65678
 20
181.008
 11
7.3432
 21
181.008
  0
LINE
  8
0
 10
438
 20
171
 11
434.667
 21
171
  0
LINE
  8
0
 10
434.667
 20
171
 11
434.667
 21
169.75
  0
LINE
  8
0
 10
434.667
 20
169.75
 11
432.167
 21
169.75
  0
LINE
  8
0
 10
432.167
 20
169.75
 11
432.167
 21
171
  0
LINE
  8
0
 10
432.167
 20
171
 11
429
 21
171
  0
LINE
  8
0
 10
429
 20
171
 11
429
 21
174
  0
LINE
  8
0
 10
429
 20
174
 11
432.167
 21
174
  0
LINE
  8
0
 10
432.167
 20
174
 11
432.167
 21
175.25
  0
LINE
  8
0
 10
432.167
 20
175.25
 11
434.667
 21
175.25
  0
LINE
  8
0
 10
434.667
 20
175.25
 11
434.667
 21
174
  0
LINE
  8
0
 10
434.667
 20
174
 11
438
 21
174
  0
LINE
  8
0
 10
438
 20
174
 11
438
 21
178.4
  0
LINE
  8
0
 10
438
 20
178.4
 11
430
 21
178.4
  0
LINE
  8
0
 10
430
 20
178.4
 11
430
 21
183.4
  0
LINE
  8
0
 10
430
 20
183.4
 11
438
 21
183.4
  0
LINE
  8
0
 10
438
 20
183.4
 11
438
 21
191
  0
LINE
  8
0
 10
438
 20
191
 11
300
 21
191
  0
LINE
  8
0
 10
300
 20
191
 11
300
 21
183.4
  0
LINE
  8
0
 10
300
 20
183.4
 11
308
 21
183.4
  0
LINE
  8
0
 10
308
 20
183.4
 11
308
 21
178.4
  0
LINE
  8
0
 10
308
 20
178.4
 11
300
 21
178.4
  0
LINE
  8
0
 10
300
 20
178.4
 11
300
 21
174
  0
LINE
  8
0
 10
300
 20
174
 11
303.333
 21
174
  0
LINE
  8
0
 10
303.333
 20
174
 11
303.333
 21
175.25
  0
LINE
  8
0
 10
303.333
 20
175.25
 11
305.833
 21
175.25
  0
LINE
  8
0
 10
305.833
 20
175.25
 11
305.833
 21
174
  0
LINE
  8
0
 10
305.833
 20
174
 11
309
 21
174
  0
LINE
  8
0
 10
309
 20
174
 11
309
 21
171
  0
LINE
  8
0
 10
309
 20
171
 11
305.833
 21
171
  0
LINE
  8
0
 10
305.833
 20
171
 11
305.833
 21
169.75
  0
LINE
  8
0
 10
305.833
 20
169.75
 11
303.333
 21
169.75
  0
LINE
  8
0
 10
303.333
 20
169.75
 11
303.333
 21
171
  0
LINE
  8
0
 10
303.333
 20
171
 11
300
 21
171
  0
LINE
  8
0
 10
300
 20
171
 11
300
 21
150
  0
LINE
  8
0
 10
300
 20
150
 11
438
 21
150
  0
LINE
  8
0
 10
438
 20
150
 11
438
 21
171
  0
LINE
  8
0
 10
327.6
 20
165
 11
327.6
 21
183.5
  0
LINE
  8
0
 10
327.6
 20
183.5
 11
410.4
 21
183.5
  0
LINE
  8
0
 10
410.4
 20
183.5
 11
410.4
 21
165
  0
LINE
  8
0
 10
410.4
 20
165
 11
327.6
 21
165
  0
LINE
  8
0
 10
420.892
 20
164
 11
420.892
 21
169
  0
LINE
  8
0
 10
420.892
 20
169
 11
428.892
 21
169
  0
LINE
  8
0
 10
428.892
 20
169
 11
428.892
 21
164
  0
LINE
  8
0
 10
428.892
 20
164
 11
420.892
 21
164
  0
LINE
  8
0
 10
309.108
 20
164
 11
309.108
 21
169
  0
LINE
  8
0
 10
309.108
 20
169
 11
317.108
 21
169
  0
LINE
  8
0
 10
317.108
 20
169
 11
317.108
 21
164
  0
LINE
  8
0
 10
317.108
 20
164
 11
309.108
 21
164
  0
LINE
  8
0
 10
170
 20
145
 11
0
 21
145
  0
LINE
  8
0
 10
0
 20
145
 11
0
 21
100
  0
LINE
  8
0
 10
0
 20
100
 11
170
 21
100
  0
LINE
  8
0
 10
170
 20
100
 11
170
 21
145
  0
LINE
  8
0
 10
7.3432
 20
121.008
 11
7.03647
 21
121.073
  0
LINE
  8
0
 10
7.03647
 20
121.073
 11
6.74998
 21
121.201
  0
LINE
  8
0
 10
6.74998
 20
121.201
 11
6.49629
 21
121.385
  0
LINE
  8
0
 10
6.49629
 20
121.385
 11
6.28647
 21
121.618
  0
LINE
  8
0
 10
6.28647
 20
121.618
 11
6.12967
 21
121.89
  0
LINE
  8
0
 10
6.12967
 20
121.89
 11
6.03278
 21
122.188
  0
LINE
  8
0
 10
6.03278
 20
122.188
 11
6
 21
122.5
  0
LINE
  8
0
 10
6
 20
122.5
 11
6.03278
 21
122.812
  0
LINE
  8
0
 10
6.03278
 20
122.812
 11
6.12967
 21
123.11
  0
LINE
  8
0
 10
6.12967
 20
123.11
 11
6.28647
 21
123.382
  0
LINE
  8
0
 10
6.28647
 20
123.382
 11
6.49629
 21
123.615
  0
LINE
  8
0
 10
6.49629
 20
123.615
 11
6.75
 21
123.799
  0
LINE
  8
0
 10
6.75
 20
123.799
 11
7.03647
 21
123.927
  0
LINE
  8
0
 10
7.03647
 20
123.927
 11
7.3432
 21
123.992
  0
LINE
  8
0
 10
7.3432
 20
123.992
 11
7.65678
 21
123.992
  0
LINE
  8
0
 10
7.65678
 20
123.992
 11
7.96352
 21
123.927
  0
LINE
  8
0
 10
7.96352
 20
123.927
 11
8.25
 21
123.799
  0
LINE
  8
0
 10
8.25
 20
123.799
 11
8.50369
 21
123.615
  0
LINE
  8
0
 10
8.50369
 20
123.615
 11
8.71352
 21
123.382
  0
LINE
  8
0
 10
8.71352
 20
123.382
 11
8.87032
 21
123.11
  0
LINE
  8
0
 10
8.87032
 20
123.11
 11
8.96721
 21
122.812
  0
LINE
  8
0
 10
8.96721
 20
122.812
 11
9
 21
122.5
  0
LINE
  8
0
 10
9
 20
122.5
 11
8.96721
 21
122.188
  0
LINE
  8
0
 10
8.96721
 20
122.188
 11
8.87032
 21
121.89
  0
LINE
  8
0
 10
8.87032
 20
121.89
 11
8.71352
 21
121.618
  0
LINE
  8
0
 10
8.71352
 20
121.618
 11
8.50369
 21
121.385
  0
LINE
  8
0
 10
8.50369
 20
121.385
 11
8.25
 21
121.201
  0
LINE
  8
0
 10
8.25
 20
121.201
 11
7.96352
 21
121.073
  0
LINE
  8
0
 10
7.96352
 20
121.073
 11
7.65678
 21
121.008
  0
LINE
  8
0
 10
7.65678
 20
121.008
 11
7.3432
 21
121.008
  0
LINE
  8
0
 10
98.3432
 20
121.008
 11
98.0365
 21
121.073
  0
LINE
  8
0
 10
98.0365
 20
121.073
 11
97.75
 21
121.201
  0
LINE
  8
0
 10
97.75
 20
121.201
 11
97.4963
 21
121.385
  0
LINE
  8
0
 10
97.4963
 20
121.385
 11
97.2865
 21
121.618
  0
LINE
  8
0
 10
97.2865
 20
121.618
 11
97.1297
 21
121.89
  0
LINE
  8
0
 10
97.1297
 20
121.89
 11
97.0328
 21
122.188
  0
LINE
  8
0
 10
97.0328
 20
122.188
 11
97
 21
122.5
  0
LINE
  8
0
 10
97
 20
122.5
 11
97.0328
 21
122.812
  0
LINE
  8
0
 10
97.0328
 20
122.812
 11
97.1297
 21
123.11
  0
LINE
  8
0
 10
97.1297
 20
123.11
 11
97.2865
 21
123.382
  0
LINE
  8
0
 10
97.2865
 20
123.382
 11
97.4963
 21
123.615
  0
LINE
  8
0
 10
97.4963
 20
123.615
 11
97.75
 21
123.799
  0
LINE
  8
0
 10
97.75
 20
123.799
 11
98.0365
 21
123.927
  0
LINE
  8
0
 10
98.0365
 20
123.927
 11
98.3432
 21
123.992
  0
LINE
  8
0
 10
98.3432
 20
123.992
 11
98.6568
 21
123.992
  0
LINE
  8
0
 10
98.6568
 20
123.992
 11
98.9635
 21
123.927
  0
LINE
  8
0
 10
98.9635
 20
123.927
 11
99.25
 21
123.799
  0
LINE
  8
0
 10
99.25
 20
123.799
 11
99.5037
 21
123.615
  0
LINE
  8
0
 10
99.5037
 20
123.615
 11
99.7135
 21
123.382
  0
LINE
  8
0
 10
99.7135
 20
123.382
 11
99.8703
 21
123.11
  0
LINE
  8
0
 10
99.8703
 20
123.11
 11
99.9672
 21
122.812
  0
LINE
  8
0
 10
99.9672
 20
122.812
 11
100
 21
122.5
  0
LINE
  8
0
 10
100
 20
122.5
 11
99.9672
 21
122.188
  0
LINE
  8
0
 10
99.9672
 20
122.188
 11
99.8703
 21
121.89
  0
LINE
  8
0
 10
99.8703
 20
121.89
 11
99.7135
 21
121.618
  0
LINE
  8
0
 10
99.7135
 20
121.618
 11
99.5037
 21
121.385
  0
LINE
  8
0
 10
99.5037
 20
121.385
 11
99.25
 21
121.201
  0
LINE
  8
0
 10
99.25
 20
121.201
 11
98.9635
 21
121.073
  0
LINE
  8
0
 10
98.9635
 20
121.073
 11
98.6568
 21
121.008
  0
LINE
  8
0
 10
98.6568
 20
121.008
 11
98.3432
 21
121.008
  0
LINE
  8
0
 10
162.343
 20
121.008
 11
162.036
 21
121.073
  0
LINE
  8
0
 10
162.036
 20
121.073
 11
161.75
 21
121.201
  0
LINE
  8
0
 10
161.75
 20
121.201
 11
161.496
 21
121.385
  0
LINE
  8
0
 10
161.496
 20
121.385
 11
161.286
 21
121.618
  0
LINE
  8
0
 10
161.286
 20
121.618
 11
161.13
 21
121.89
  0
LINE
  8
0
 10
161.13
 20
121.89
 11
161.033
 21
122.188
  0
LINE
  8
0
 10
161.033
 20
122.188
 11
161
 21
122.5
  0
LINE
  8
0
 10
161
 20
122.5
 11
161.033
 21
122.812
  0
LINE
  8
0
 10
161.033
 20
122.812
 11
161.13
 21
123.11
  0
LINE
  8
0
 10
161.13
 20
123.11
 11
161.286
 21
123.382
  0
LINE
  8
0
 10
161.286
 20
123.382
 11
161.496
 21
123.615
  0
LINE
  8
0
 10
161.496
 20
123.615
 11
161.75
 21
123.799
  0
LINE
  8
0
 10
161.75
 20
123.799
 11
162.036
 21
123.927
  0
LINE
  8
0
 10
162.036
 20
123.927
 11
162.343
 21
123.992
  0
LINE
  8
0
 10
162.343
 20
123.992
 11
162.657
 21
123.992
  0
LINE
  8
0
 10
162.657
 20
123.992
 11
162.964
 21
123.927
  0
LINE
  8
0
 10
162.964
 20
123.927
 11
163.25
 21
123.799
  0
LINE
  8
0
 10
163.25
 20
123.799
 11
163.504
 21
123.615
  0
LINE
  8
0
 10
163.504
 20
123.615
 11
163.714
 21
123.382
  0
LINE
  8
0
 10
163.714
 20
123.382
 11
163.87
 21
123.11
  0
LINE
  8
0
 10
163.87
 20
123.11
 11
163.967
 21
122.812
  0
LINE
  8
0
 10
163.967
 20
122.812
 11
164
 21
122.5
  0
LINE
  8
0
 10
164
 20
122.5
 11
163.967
 21
122.188
  0
LINE
  8
0
 10
163.967
 20
122.188
 11
163.87
 21
121.89
  0
LINE
  8
0
 10
163.87
 20
121.89
 11
163.714
 21
121.618
  0
LINE
  8
0
 10
163.714
 20
121.618
 11
163.504
 21
121.385
  0
LINE
  8
0
 10
163.504
 20
121.385
 11
163.25
 21
121.201
  0
LINE
  8
0
 10
163.25
 20
121.201
 11
162.964
 21
121.073
  0
LINE
  8
0
 10
162.964
 20
121.073
 11
162.657
 21
121.008
  0
LINE
  8
0
 10
162.657
 20
121.008
 11
162.343
 21
121.008
  0
LINE
  8
0
 10
327.6
 20
127.15
 11
410.4
 21
127.15
  0
LINE
  8
0
 10
410.4
 20
127.15
 11
410.4
 21
106.9
  0
LINE
  8
0
 10
410.4
 20
106.9
 11
438
 21
106.9
  0
LINE
  8
0
 10
438
 20
106.9
 11
438
 21
121
  0
LINE
  8
0
 10
438
 20
121
 11
434.667
 21
121
  0
LINE
  8
0
 10
434.667
 20
121
 11
434.667
 21
119.75
  0
LINE
  8
0
 10
434.667
 20
119.75
 11
432.167
 21
119.75
  0
LINE
  8
0
 10
432.167
 20
119.75
 11
432.167
 21
121
  0
LINE
  8
0
 10
432.167
 20
121
 11
429
 21
121
  0
LINE
  8
0
 10
429
 20
121
 11
429
 21
124
  0
LINE
  8
0
 10
429
 20
124
 11
432.167
 21
124
  0
LINE
  8
0
 10
432.167
 20
124
 11
432.167
 21
125.25
  0
LINE
  8
0
 10
432.167
 20
125.25
 11
434.667
 21
125.25
  0
LINE
  8
0
 10
434.667
 20
125.25
 11
434.667
 21
124
  0
LINE
  8
0
 10
434.667
 20
124
 11
438
 21
124
  0
LINE
  8
0
 10
438
 20
124
 11
438
 21
128.4
  0
LINE
  8
0
 10
438
 20
128.4
 11
430
 21
128.4
  0
LINE
  8
0
 10
430
 20
128.4
 11
430
 21
133.4
  0
LINE
  8
0
 10
430
 20
133.4
 11
438
 21
133.4
  0
LINE
  8
0
 10
438
 20
133.4
 11
438
 21
139.4
  0
LINE
  8
0
 10
438
 20
139.4
 11
300
 21
139.4
  0
LINE
  8
0
 10
300
 20
139.4
 11
300
 21
133.4
  0
LINE
  8
0
 10
300
 20
133.4
 11
308
 21
133.4
  0
LINE
  8
0
 10
308
 20
133.4
 11
308
 21
128.4
  0
LINE
  8
0
 10
308
 20
128.4
 11
300
 21
128.4
  0
LINE
  8
0
 10
300
 20
128.4
 11
300
 21
124
  0
LINE
  8
0
 10
300
 20
124
 11
303.333
 21
124
  0
LINE
  8
0
 10
303.333
 20
124
 11
303.333
 21
125.25
  0
LINE
  8
0
 10
303.333
 20
125.25
 11
305.833
 21
125.25
  0
LINE
  8
0
 10
305.833
 20
125.25
 11
305.833
 21
124
  0
LINE
  8
0
 10
305.833
 20
124
 11
309
 21
124
  0
LINE
  8
0
 10
309
 20
124
 11
309
 21
121
  0
LINE
  8
0
 10
309
 20
121
 11
305.833
 21
121
  0
LINE
  8
0
 10
305.833
 20
121
 11
305.833
 21
119.75
  0
LINE
  8
0
 10
305.833
 20
119.75
 11
303.333
 21
119.75
  0
LINE
  8
0
 10
303.333
 20
119.75
 11
303.333
 21
121
  0
LINE
  8
0
 10
303.333
 20
121
 11
300
 21
121
  0
LINE
  8
0
 10
300
 20
121
 11
300
 21
106.9
  0
LINE
  8
0
 10
300
 20
106.9
 11
327.6
 21
106.9
  0
LINE
  8
0
 10
327.6
 20
106.9
 11
327.6
 21
127.15
  0
LINE
  8
0
 10
420.892
 20
114
 11
420.892
 21
119
  0
LINE
  8
0
 10
420.892
 20
119
 11
428.892
 21
119
  0
LINE
  8
0
 10
428.892
 20
119
 11
428.892
 21
114
  0
LINE
  8
0
 10
428.892
 20
114
 11
420.892
 21
114
  0
LINE
  8
0
 10
309.108
 20
114
 11
309.108
 21
119
  0
LINE
  8
0
 10
309.108
 20
119
 11
317.108
 21
119
  0
LINE
  8
0
 10
317.108
 20
119
 11
317.108
 21
114
  0
LINE
  8
0
 10
317.108
 20
114
 11
309.108
 21
114
  0
LINE
  8
0
 10
138
 20
96
 11
0
 21
96
  0
LINE
  8
0
 10
0
 20
96
 11
0
 21
0
  0
LINE
  8
0
 10
0
 20
0
 11
138
 21
0
  0
LINE
  8
0
 10
138
 20
0
 11
138
 21
96
  0
LINE
  8
0
 10
438
 20
81.5
 11
300
 21
81.5
  0
LINE
  8
0
 10
300
 20
81.5
 11
300
 21
50
  0
LINE
  8
0
 10
300
 20
50
 11
438
 21
50
  0
LINE
  8
0
 10
438
 20
50
 11
438
 21
81.5
  0
LINE
  8
0
 10
346.477
 20
57.6274
 11
345.455
 21
57.8447
  0
LINE
  8
0
 10
345.455
 20
57.8447
 11
344.5
 21
58.2699
  0
LINE
  8
0
 10
344.5
 20
58.2699
 11
343.654
 21
58.8843
  0
LINE
  8
0
 10
343.654
 20
58.8843
 11
342.955
 21
59.6611
  0
LINE
  8
0
 10
342.955
 20
59.6611
 11
342.432
 21
60.5663
  0
LINE
  8
0
 10
342.432
 20
60.5663
 11
342.109
 21
61.5604
  0
LINE
  8
0
 10
342.109
 20
61.5604
 11
342
 21
62.6
  0
LINE
  8
0
 10
342
 20
62.6
 11
342.109
 21
63.6396
  0
LINE
  8
0
 10
342.109
 20
63.6396
 11
342.432
 21
64.6337
  0
LINE
  8
0
 10
342.432
 20
64.6337
 11
342.955
 21
65.5389
  0
LINE
  8
0
 10
342.955
 20
65.5389
 11
343.654
 21
66.3157
  0
LINE
  8
0
 10
343.654
 20
66.3157
 11
344.5
 21
66.9301
  0
LINE
  8
0
 10
344.5
 20
66.9301
 11
345.455
 21
67.3553
  0
LINE
  8
0
 10
345.455
 20
67.3553
 11
346.477
 21
67.5726
  0
LINE
  8
0
 10
346.477
 20
67.5726
 11
347.523
 21
67.5726
  0
LINE
  8
0
 10
347.523
 20
67.5726
 11
348.545
 21
67.3553
  0
LINE
  8
0
 10
348.545
 20
67.3553
 11
349.5
 21
66.9301
  0
LINE
  8
0
 10
349.5
 20
66.9301
 11
350.346
 21
66.3157
  0
LINE
  8
0
 10
350.346
 20
66.3157
 11
351.045
 21
65.5389
  0
LINE
  8
0
 10
351.045
 20
65.5389
 11
351.568
 21
64.6337
  0
LINE
  8
0
 10
351.568
 20
64.6337
 11
351.891
 21
63.6396
  0
LINE
  8
0
 10
351.891
 20
63.6396
 11
352
 21
62.6
  0
LINE
  8
0
 10
352
 20
62.6
 11
351.891
 21
61.5604
  0
LINE
  8
0
 10
351.891
 20
61.5604
 11
351.568
 21
60.5663
  0
LINE
  8
0
 10
351.568
 20
60.5663
 11
351.045
 21
59.6611
  0
LINE
  8
0
 10
351.045
 20
59.6611
 11
350.346
 21
58.8843
  0
LINE
  8
0
 10
350.346
 20
58.8843
 11
349.5
 21
58.2699
  0
LINE
  8
0
 10
349.5
 20
58.2699
 11
348.545
 21
57.8447
  0
LINE
  8
0
 10
348.545
 20
57.8447
 11
347.523
 21
57.6274
  0
LINE
  8
0
 10
347.523
 20
57.6274
 11
346.477
 21
57.6274
  0
LINE
  8
0
 10
378.634
 20
59.1192
 11
377.918
 21
59.2713
  0
LINE
  8
0
 10
377.918
 20
59.2713
 11
377.25
 21
59.5689
  0
LINE
  8
0
 10
377.25
 20
59.5689
 11
376.658
 21
59.999
  0
LINE
  8
0
 10
376.658
 20
59.999
 11
376.168
 21
60.5427
  0
LINE
  8
0
 10
376.168
 20
60.5427
 11
375.803
 21
61.1764
  0
LINE
  8
0
 10
375.803
 20
61.1764
 11
375.576
 21
61.8723
  0
LINE
  8
0
 10
375.576
 20
61.8723
 11
375.5
 21
62.6
  0
LINE
  8
0
 10
375.5
 20
62.6
 11
375.576
 21
63.3277
  0
LINE
  8
0
 10
375.576
 20
63.3277
 11
375.803
 21
64.0236
  0
LINE
  8
0
 10
375.803
 20
64.0236
 11
376.168
 21
64.6572
  0
LINE
  8
0
 10
376.168
 20
64.6572
 11
376.658
 21
65.201
  0
LINE
  8
0
 10
376.658
 20
65.201
 11
377.25
 21
65.6311
  0
LINE
  8
0
 10
377.25
 20
65.6311
 11
377.918
 21
65.9287
  0
LINE
  8
0
 10
377.918
 20
65.9287
 11
378.634
 21
66.0808
  0
LINE
  8
0
 10
378.634
 20
66.0808
 11
379.366
 21
66.0808
  0
LINE
  8
0
 10
379.366
 20
66.0808
 11
380.082
 21
65.9287
  0
LINE
  8
0
 10
380.082
 20
65.9287
 11
380.75
 21
65.6311
  0
LINE
  8
0
 10
380.75
 20
65.6311
 11
381.342
 21
65.201
  0
LINE
  8
0
 10
381.342
 20
65.201
 11
381.832
 21
64.6572
  0
LINE
  8
0
 10
381.832
 20
64.6572
 11
382.197
 21
64.0236
  0
LINE
  8
0
 10
382.197
 20
64.0236
 11
382.424
 21
63.3277
  0
LINE
  8
0
 10
382.424
 20
63.3277
 11
382.5
 21
62.6
  0
LINE
  8
0
 10
382.5
 20
62.6
 11
382.424
 21
61.8723
  0
LINE
  8
0
 10
382.424
 20
61.8723
 11
382.197
 21
61.1764
  0
LINE
  8
0
 10
382.197
 20
61.1764
 11
381.832
 21
60.5427
  0
LINE
  8
0
 10
381.832
 20
60.5427
 11
381.342
 21
59.999
  0
LINE
  8
0
 10
381.342
 20
59.999
 11
380.75
 21
59.5689
  0
LINE
  8
0
 10
380.75
 20
59.5689
 11
380.082
 21
59.2713
  0
LINE
  8
0
 10
380.082
 20
59.2713
 11
379.366
 21
59.1192
  0
LINE
  8
0
 10
379.366
 20
59.1192
 11
378.634
 21
59.1192
  0
LINE
  8
0
 10
390.634
 20
59.1192
 11
389.918
 21
59.2713
  0
LINE
  8
0
 10
389.918
 20
59.2713
 11
389.25
 21
59.5689
  0
LINE
  8
0
 10
389.25
 20
59.5689
 11
388.658
 21
59.999
  0
LINE
  8
0
 10
388.658
 20
59.999
 11
388.168
 21
60.5427
  0
LINE
  8
0
 10
388.168
 20
60.5427
 11
387.803
 21
61.1764
  0
LINE
  8
0
 10
387.803
 20
61.1764
 11
387.576
 21
61.8723
  0
LINE
  8
0
 10
387.576
 20
61.8723
 11
387.5
 21
62.6
  0
LINE
  8
0
 10
387.5
 20
62.6
 11
387.576
 21
63.3277
  0
LINE
  8
0
 10
387.576
 20
63.3277
 11
387.803
 21
64.0236
  0
LINE
  8
0
 10
387.803
 20
64.0236
 11
388.168
 21
64.6572
  0
LINE
  8
0
 10
388.168
 20
64.6572
 11
388.658
 21
65.201
  0
LINE
  8
0
 10
388.658
 20
65.201
 11
389.25
 21
65.6311
  0
LINE
  8
0
 10
389.25
 20
65.6311
 11
389.918
 21
65.9287
  0
LINE
  8
0
 10
389.918
 20
65.9287
 11
390.634
 21
66.0808
  0
LINE
  8
0
 10
390.634
 20
66.0808
 11
391.366
 21
66.0808
  0
LINE
  8
0
 10
391.366
 20
66.0808
 11
392.082
 21
65.9287
  0
LINE
  8
0
 10
392.082
 20
65.9287
 11
392.75
 21
65.6311
  0
LINE
  8
0
 10
392.75
 20
65.6311
 11
393.342
 21
65.201
  0
LINE
  8
0
 10
393.342
 20
65.201
 11
393.832
 21
64.6572
  0
LINE
  8
0
 10
393.832
 20
64.6572
 11
394.197
 21
64.0236
  0
LINE
  8
0
 10
394.197
 20
64.0236
 11
394.424
 21
63.3277
  0
LINE
  8
0
 10
394.424
 20
63.3277
 11
394.5
 21
62.6
  0
LINE
  8
0
 10
394.5
 20
62.6
 11
394.424
 21
61.8723
  0
LINE
  8
0
 10
394.424
 20
61.8723
 11
394.197
 21
61.1764
  0
LINE
  8
0
 10
394.197
 20
61.1764
 11
393.832
 21
60.5427
  0
LINE
  8
0
 10
393.832
 20
60.5427
 11
393.342
 21
59.999
  0
LINE
  8
0
 10
393.342
 20
59.999
 11
392.75
 21
59.5689
  0
LINE
  8
0
 10
392.75
 20
59.5689
 11
392.082
 21
59.2713
  0
LINE
  8
0
 10
392.082
 20
59.2713
 11
391.366
 21
59.1192
  0
LINE
  8
0
 10
391.366
 20
59.1192
 11
390.634
 21
59.1192
  0
LINE
  8
0
 10
272
 20
68
 11
150
 21
68
  0
LINE
  8
0
 10
150
 20
68
 11
150
 21
0
  0
LINE
  8
0
 10
150
 20
0
 11
272
 21
0
  0
LINE
  8
0
 10
272
 20
0
 11
272
 21
68
  0
LINE
  8
0
 10
438
 20
36
 11
300
 21
36
  0
LINE
  8
0
 10
300
 20
36
 11
300
 21
0
  0
LINE
  8
0
 10
300
 20
0
 11
438
 21
0
  0
LINE
  8
0
 10
438
 20
0
 11
438
 21
36
  0
ENDSEC
  0
SECTION
  2
OBJECTS
  0
DICTIONARY
  0
ENDSEC
  0
EOF
