  0
SECTION
  2
HEADER
  9
$ACADVER
  1
AC1014
  9
$HANDSEED
  5
FFFF
  9
$MEASUREMENT
 70
     1
  0
ENDSEC
  0
SECTION
  2
TABLES
  0
TABLE
  2
VPORT
  5
8
330
0
100
AcDbSymbolTable
 70
     4
  0
VPORT
  5
2E
330
8
100
AcDbSymbolTableRecord
100
AcDbViewportTableRecord
  2
*ACTIVE
 70
     0
 10
0.0
 20
0.0
 11
1.0
 21
1.0
 12
210.0
 22
148.5
 13
0.0
 23
0.0
 14
10.0
 24
10.0
 15
10.0
 25
10.0
 16
0.0
 26
0.0
 36
1.0
 17
0.0
 27
0.0
 37
0.0
 40
341.0
 41
1.24
 42
50.0
 43
0.0
 44
0.0
 50
0.0
 51
0.0
 71
     0
 72
   100
 73
     1
 74
     3
 75
     0
 76
     0
 77
     0
 78
     0
  0
ENDTAB
  0
TABLE
  2
LTYPE
  5
5
330
0
100
AcDbSymbolTable
 70
     1
  0
LTYPE
  5
14
330
5
100
AcDbSymbolTableRecord
100
AcDbLinetypeTableRecord
  2
BYBLOCK
 70
     0
  3

 72
    65
 73
     0
 40
0.0
  0
LTYPE
  5
15
330
5
100
AcDbSymbolTableRecord
100
AcDbLinetypeTableRecord
  2
BYLAYER
 70
     0
  3

 72
    65
 73
     0
 40
0.0
  0
LTYPE
  5
16
330
5
100
AcDbSymbolTableRecord
100
AcDbLinetypeTableRecord
  2
CONTINUOUS
 70
     0
  3
Solid line
 72
    65
 73
     0
 40
0.0
  0
ENDTAB
  0
TABLE
  2
LAYER
  5
2
100
AcDbSymbolTable
 70
2
  0
LAYER
  5
50
100
AcDbSymbolTableRecord
100
AcDbLayerTableRecord
  2
0
 70
0
  6
CONTINUOUS
  0
LAYER
  5
51
100
AcDbSymbolTableRecord
100
AcDbLayerTableRecord
  2
Layer_1
 70
0
  6
CONTINUOUS
  0
ENDTAB
  0
TABLE
  2
STYLE
  5
3
330
0
100
AcDbSymbolTable
 70
     1
  0
STYLE
  5
11
330
3
100
AcDbSymbolTableRecord
100
AcDbTextStyleTableRecord
  2
STANDARD
 70
     0
 40
0.0
 41
1.0
 50
0.0
 71
     0
 42
2.5
  3
txt
  4

  0
ENDTAB
  0
TABLE
  2
VIEW
  5
6
330
0
100
AcDbSymbolTable
 70
     0
  0
ENDTAB
  0
TABLE
  2
UCS
  5
7
330
0
100
AcDbSymbolTable
 70
     0
  0
ENDTAB
  0
TABLE
  2
APPID
  5
9
330
0
100
AcDbSymbolTable
 70
     2
  0
APPID
  5
12
330
9
100
AcDbSymbolTableRecord
100
AcDbRegAppTableRecord
  2
ACAD
 70
     0
  0
ENDTAB
  0
TABLE
  2
DIMSTYLE
  5
A
330
0
100
AcDbSymbolTable
 70
     1
  0
DIMSTYLE
105
27
330
A
100
AcDbSymbolTableRecord
100
AcDbDimStyleTableRecord
  2
ISO-25
 70
     0
  3

  4

  5

  6

  7

 40
1.0
 41
2.5
 42
0.625
 43
3.75
 44
1.25
 45
0.0
 46
0.0
 47
0.0
 48
0.0
140
2.5
141
2.5
142
0.0
143
0.03937007874016
144
1.0
145
0.0
146
1.0
147
0.625
 71
     0
 72
     0
 73
     0
 74
     0
 75
     0
 76
     0
 77
     1
 78
     8
170
     0
171
     3
172
     1
173
     0
174
     0
175
     0
176
     0
177
     0
178
     0
270
     2
271
     2
272
     2
273
     2
274
     3
340
11
275
     0
280
     0
281
     0
282
     0
283
     0
284
     8
285
     0
286
     0
287
     3
288
     0
  0
ENDTAB
  0
TABLE
  2
BLOCK_RECORD
  5
1
330
0
100
AcDbSymbolTable
 70
     1
  0
BLOCK_RECORD
  5
1F
330
1
100
AcDbSymbolTableRecord
100
AcDbBlockTableRecord
  2
*MODEL_SPACE
  0
BLOCK_RECORD
  5
1B
330
1
100
AcDbSymbolTableRecord
100
AcDbBlockTableRecord
  2
*PAPER_SPACE
  0
ENDTAB
  0
ENDSEC
  0
SECTION
  2
BLOCKS
  0
BLOCK
  5
20
330
1F
100
AcDbEntity
  8
0
100
AcDbBlockBegin
  2
*MODEL_SPACE
 70
     0
 10
0.0
 20
0.0
 30
0.0
  3
*MODEL_SPACE
  1

  0
ENDBLK
  5
21
330
1F
100
AcDbEntity
  8
0
100
AcDbBlockEnd
  0
BLOCK
  5
1C
330
1B
100
AcDbEntity
 67
     1
  8
0
100
AcDbBlockBegin
  2
*PAPER_SPACE
  1

  0
ENDBLK
  5
1D
330
1B
100
AcDbEntity
 67
     1
  8
0
100
AcDbBlockEnd
  0
ENDSEC
  0
SECTION
  2
ENTITIES
  0
LWPOLYLINE
  5
100
100
AcDbEntity
  8
Layer_1
 62
6
100
AcDbPolyline
 90
41
 70
1
 10
61.491063
 20
29.984281
 30
0.0
 10
61.412191
 20
29.831116
 30
0.0
 10
61.348428
 20
29.694837
 30
0.0
 10
61.298260
 20
29.569922
 30
0.0
 10
61.260163
 20
29.450861
 30
0.0
 10
61.232618
 20
29.332130
 30
0.0
 10
61.214104
 20
29.208221
 30
0.0
 10
61.203126
 20
29.073609
 30
0.0
 10
61.198131
 20
28.922784
 30
0.0
 10
61.045855
 20
28.441262
 30
0.0
 10
60.797872
 20
28.264323
 30
0.0
 10
61.189424
 20
27.604521
 30
0.0
 10
62.709264
 20
26.959124
 30
0.0
 10
63.335761
 20
26.851834
 30
0.0
 10
64.340765
 20
26.951922
 30
0.0
 10
64.954215
 20
27.511704
 30
0.0
 10
66.194155
 20
28.850239
 30
0.0
 10
66.193591
 20
28.850239
 30
0.0
 10
66.193027
 20
28.850239
 30
0.0
 10
66.192462
 20
28.850239
 30
0.0
 10
66.191898
 20
28.850239
 30
0.0
 10
66.191333
 20
28.850239
 30
0.0
 10
66.190769
 20
28.850239
 30
0.0
 10
66.190204
 20
28.850239
 30
0.0
 10
66.189640
 20
28.850239
 30
0.0
 10
65.891266
 20
30.007302
 30
0.0
 10
65.432395
 20
30.832706
 30
0.0
 10
64.852000
 20
31.347242
 30
0.0
 10
64.189046
 20
31.571688
 30
0.0
 10
63.482499
 20
31.526831
 30
0.0
 10
62.771333
 20
31.233456
 30
0.0
 10
62.094514
 20
30.712344
 30
0.0
 10
61.491010
 20
29.984281
 30
0.0
 10
61.491007
 20
29.984281
 30
0.0
 10
61.491004
 20
29.984281
 30
0.0
 10
61.491001
 20
29.984281
 30
0.0
 10
61.490998
 20
29.984281
 30
0.0
 10
61.490995
 20
29.984281
 30
0.0
 10
61.490993
 20
29.984281
 30
0.0
 10
61.490990
 20
29.984281
 30
0.0
 10
61.491063
 20
29.984281
 30
0.0
  0
LWPOLYLINE
  5
101
100
AcDbEntity
  8
Layer_1
 62
6
100
AcDbPolyline
 90
43
 70
1
 10
63.179127
 20
29.583991
 30
0.0
 10
63.194734
 20
29.591639
 30
0.0
 10
63.227808
 20
29.592204
 30
0.0
 10
63.269368
 20
29.588365
 30
0.0
 10
63.310445
 20
29.583201
 30
0.0
 10
63.349957
 20
29.574226
 30
0.0
 10
63.393120
 20
29.560820
 30
0.0
 10
63.440426
 20
29.548628
 30
0.0
 10
63.492369
 20
29.543323
 30
0.0
 10
63.492544
 20
29.543323
 30
0.0
 10
63.492721
 20
29.543323
 30
0.0
 10
63.492896
 20
29.543323
 30
0.0
 10
63.493074
 20
29.543323
 30
0.0
 10
63.493249
 20
29.543323
 30
0.0
 10
63.493427
 20
29.543323
 30
0.0
 10
63.493602
 20
29.543323
 30
0.0
 10
63.493780
 20
29.543323
 30
0.0
 10
63.428510
 20
28.574637
 30
0.0
 10
62.614929
 20
28.638496
 30
0.0
 10
62.598588
 20
28.770006
 30
0.0
 10
62.596895
 20
28.889010
 30
0.0
 10
62.610865
 20
28.997705
 30
0.0
 10
62.641373
 20
29.098298
 30
0.0
 10
62.689325
 20
29.192989
 30
0.0
 10
62.755633
 20
29.283977
 30
0.0
 10
62.841211
 20
29.373464
 30
0.0
 10
62.946971
 20
29.463654
 30
0.0
 10
62.979483
 20
29.488603
 30
0.0
 10
63.010107
 20
29.510616
 30
0.0
 10
63.039289
 20
29.529751
 30
0.0
 10
63.067455
 20
29.546035
 30
0.0
 10
63.095084
 20
29.559553
 30
0.0
 10
63.122601
 20
29.570334
 30
0.0
 10
63.150428
 20
29.578462
 30
0.0
 10
63.179026
 20
29.583994
 30
0.0
 10
63.179031
 20
29.584011
 30
0.0
 10
63.179037
 20
29.584028
 30
0.0
 10
63.179043
 20
29.584045
 30
0.0
 10
63.179046
 20
29.584059
 30
0.0
 10
63.179051
 20
29.584076
 30
0.0
 10
63.179057
 20
29.584093
 30
0.0
 10
63.179063
 20
29.584109
 30
0.0
 10
63.179127
 20
29.583991
 30
0.0
  0
LWPOLYLINE
  5
102
100
AcDbEntity
  8
Layer_1
 62
6
100
AcDbPolyline
 90
20
 70
1
 10
20.820948
 20
29.100985
 30
0.0
 10
20.571507
 20
29.041585
 30
0.0
 10
20.304662
 20
28.887884
 30
0.0
 10
20.034921
 20
28.850027
 30
0.0
 10
19.617255
 20
28.121992
 30
0.0
 10
20.892006
 20
27.673886
 30
0.0
 10
21.224104
 20
27.543349
 30
0.0
 10
21.302416
 20
27.512898
 30
0.0
 10
21.435839
 20
27.470564
 30
0.0
 10
21.927466
 20
27.245802
 30
0.0
 10
22.762796
 20
26.455394
 30
0.0
 10
24.711899
 20
25.292319
 30
0.0
 10
25.906881
 20
25.749113
 30
0.0
 10
25.793766
 20
27.039828
 30
0.0
 10
23.770701
 20
28.514685
 30
0.0
 10
22.977428
 20
28.788824
 30
0.0
 10
21.850601
 20
28.894705
 30
0.0
 10
21.010927
 20
29.031030
 30
0.0
 10
20.820948
 20
29.100829
 30
0.0
 10
20.820948
 20
29.100985
 30
0.0
  0
LWPOLYLINE
  5
103
100
AcDbEntity
  8
Layer_1
 62
6
100
AcDbPolyline
 90
76
 70
1
 10
76.325422
 20
28.332335
 30
0.0
 10
76.147041
 20
28.284815
 30
0.0
 10
75.755486
 20
27.645285
 30
0.0
 10
75.310263
 20
27.115943
 30
0.0
 10
75.020221
 20
27.500271
 30
0.0
 10
74.206645
 20
28.306571
 30
0.0
 10
73.832489
 20
28.096288
 30
0.0
 10
73.585951
 20
27.887494
 30
0.0
 10
73.380016
 20
27.675726
 30
0.0
 10
73.175532
 20
27.598879
 30
0.0
 10
72.214034
 20
27.787401
 30
0.0
 10
71.828276
 20
27.910659
 30
0.0
 10
70.971190
 20
28.061540
 30
0.0
 10
70.969779
 20
26.959347
 30
0.0
 10
70.929175
 20
23.963149
 30
0.0
 10
69.957527
 20
20.413050
 30
0.0
 10
69.083039
 20
18.868532
 30
0.0
 10
67.834394
 20
17.013630
 30
0.0
 10
65.266048
 20
14.635312
 30
0.0
 10
63.461965
 20
13.346064
 30
0.0
 10
62.414901
 20
12.596256
 30
0.0
 10
61.234419
 20
11.846533
 30
0.0
 10
60.481752
 20
11.376718
 30
0.0
 10
60.314978
 20
11.263547
 30
0.0
 10
58.602262
 20
10.146878
 30
0.0
 10
57.766932
 20
9.687194
 30
0.0
 10
56.606753
 20
9.012824
 30
0.0
 10
53.877427
 20
7.603153
 30
0.0
 10
53.562730
 20
7.681498
 30
0.0
 10
52.924625
 20
7.759814
 30
0.0
 10
51.671629
 20
7.350846
 30
0.0
 10
51.230761
 20
7.075312
 30
0.0
 10
50.882705
 20
6.796872
 30
0.0
 10
50.916041
 20
5.855661
 30
0.0
 10
52.147281
 20
5.981814
 30
0.0
 10
52.747672
 20
6.144290
 30
0.0
 10
54.599611
 20
6.545976
 30
0.0
 10
54.738832
 20
6.318308
 30
0.0
 10
54.827297
 20
5.933978
 30
0.0
 10
55.825049
 20
5.900732
 30
0.0
 10
56.441396
 20
6.261835
 30
0.0
 10
57.066448
 20
6.638884
 30
0.0
 10
57.381146
 20
6.753438
 30
0.0
 10
57.793004
 20
6.888284
 30
0.0
 10
57.730636
 20
6.762130
 30
0.0
 10
57.389832
 20
6.504038
 30
0.0
 10
57.185346
 20
5.916706
 30
0.0
 10
57.495694
 20
5.674502
 30
0.0
 10
58.998132
 20
6.269116
 30
0.0
 10
59.774001
 20
6.611311
 30
0.0
 10
60.162663
 20
6.707012
 30
0.0
 10
60.471561
 20
6.678198
 30
0.0
 10
61.035692
 20
6.588310
 30
0.0
 10
62.293043
 20
7.130713
 30
0.0
 10
63.255996
 20
7.693379
 30
0.0
 10
63.476426
 20
7.867454
 30
0.0
 10
63.704112
 20
7.976222
 30
0.0
 10
63.867984
 20
8.012572
 30
0.0
 10
64.094219
 20
8.092328
 30
0.0
 10
66.442136
 20
9.155290
 30
0.0
 10
67.486296
 20
9.767261
 30
0.0
 10
68.167905
 20
10.225562
 30
0.0
 10
69.587677
 20
11.236312
 30
0.0
 10
70.465061
 20
11.886044
 30
0.0
 10
71.236580
 20
12.548787
 30
0.0
 10
72.089318
 20
13.329046
 30
0.0
 10
72.920293
 20
14.265883
 30
0.0
 10
74.515545
 20
16.322335
 30
0.0
 10
74.766432
 20
16.696508
 30
0.0
 10
74.989766
 20
17.073560
 30
0.0
 10
75.408877
 20
17.866765
 30
0.0
 10
76.774994
 20
21.543113
 30
0.0
 10
77.098390
 20
24.086824
 30
0.0
 10
76.912761
 20
28.121355
 30
0.0
 10
76.325425
 20
28.333044
 30
0.0
 10
76.325422
 20
28.332335
 30
0.0
  0
LWPOLYLINE
  5
104
100
AcDbEntity
  8
Layer_1
 62
6
100
AcDbPolyline
 90
45
 70
1
 10
55.884493
 20
27.222942
 30
0.0
 10
55.298605
 20
26.716842
 30
0.0
 10
55.371151
 20
26.470253
 30
0.0
 10
55.617689
 20
25.885821
 30
0.0
 10
55.822167
 20
25.214364
 30
0.0
 10
56.013596
 20
24.970747
 30
0.0
 10
56.218080
 20
24.550185
 30
0.0
 10
56.336997
 20
24.403684
 30
0.0
 10
56.656043
 20
23.946890
 30
0.0
 10
57.221634
 20
23.207267
 30
0.0
 10
58.729866
 20
22.615557
 30
0.0
 10
60.529597
 20
22.437207
 30
0.0
 10
61.624518
 20
22.450556
 30
0.0
 10
61.105333
 20
20.930674
 30
0.0
 10
59.794335
 20
17.785163
 30
0.0
 10
59.684118
 20
17.616894
 30
0.0
 10
58.805284
 20
16.468357
 30
0.0
 10
57.996051
 20
15.715712
 30
0.0
 10
57.489923
 20
15.315386
 30
0.0
 10
57.176681
 20
14.896353
 30
0.0
 10
56.851832
 20
14.410550
 30
0.0
 10
56.661852
 20
13.844836
 30
0.0
 10
56.963499
 20
13.472218
 30
0.0
 10
57.884385
 20
13.721561
 30
0.0
 10
58.403566
 20
14.191433
 30
0.0
 10
59.046017
 20
14.687467
 30
0.0
 10
60.271462
 20
15.512603
 30
0.0
 10
61.650620
 20
16.433559
 30
0.0
 10
63.531564
 20
18.411606
 30
0.0
 10
64.176916
 20
19.264386
 30
0.0
 10
65.750406
 20
22.044472
 30
0.0
 10
65.985345
 20
23.072707
 30
0.0
 10
65.979418
 20
23.072707
 30
0.0
 10
65.874999
 20
26.389379
 30
0.0
 10
65.470385
 20
26.675025
 30
0.0
 10
64.360964
 20
26.325521
 30
0.0
 10
63.090563
 20
25.957159
 30
0.0
 10
62.758458
 20
25.893306
 30
0.0
 10
62.207377
 20
25.656962
 30
0.0
 10
59.766649
 20
25.633961
 30
0.0
 10
57.704426
 20
25.794937
 30
0.0
 10
57.057631
 20
26.074795
 30
0.0
 10
56.802390
 20
26.437360
 30
0.0
 10
55.884394
 20
27.223388
 30
0.0
 10
55.884493
 20
27.222942
 30
0.0
  0
LWPOLYLINE
  5
105
100
AcDbEntity
  8
Layer_1
 62
6
100
AcDbPolyline
 90
5
 70
1
 10
50.042987
 20
26.889407
 30
0.0
 10
49.958873
 20
26.806761
 30
0.0
 10
50.042987
 20
26.722636
 30
0.0
 10
50.125650
 20
26.806761
 30
0.0
 10
50.042987
 20
26.889407
 30
0.0
  0
LWPOLYLINE
  5
106
100
AcDbEntity
  8
Layer_1
 62
6
100
AcDbPolyline
 90
23
 70
1
 10
18.546994
 20
26.760355
 30
0.0
 10
17.610147
 20
26.608065
 30
0.0
 10
17.296895
 20
26.207775
 30
0.0
 10
17.701506
 20
25.848097
 30
0.0
 10
18.091616
 20
25.719051
 30
0.0
 10
18.507834
 20
25.590002
 30
0.0
 10
19.511388
 20
25.408680
 30
0.0
 10
19.824640
 20
25.367853
 30
0.0
 10
19.888422
 20
25.295088
 30
0.0
 10
19.956585
 20
25.249794
 30
0.0
 10
21.006554
 20
24.527624
 30
0.0
 10
21.302394
 20
24.298485
 30
0.0
 10
21.492374
 20
24.067856
 30
0.0
 10
23.979512
 20
22.983115
 30
0.0
 10
23.979512
 20
22.983115
 30
0.0
 10
23.811287
 20
24.214355
 30
0.0
 10
23.328362
 20
24.756766
 30
0.0
 10
22.942604
 20
25.323821
 30
0.0
 10
22.017355
 20
25.928527
 30
0.0
 10
21.348802
 20
26.143188
 30
0.0
 10
19.678142
 20
26.643498
 30
0.0
 10
18.546972
 20
26.758066
 30
0.0
 10
18.546994
 20
26.760355
 30
0.0
  0
LWPOLYLINE
  5
107
100
AcDbEntity
  8
Layer_1
 62
6
100
AcDbPolyline
 90
48
 70
1
 10
51.778913
 20
26.381819
 30
0.0
 10
51.394600
 20
26.290415
 30
0.0
 10
51.378626
 20
25.574036
 30
0.0
 10
51.725232
 20
24.342800
 30
0.0
 10
52.006582
 20
21.836807
 30
0.0
 10
51.678826
 20
17.033620
 30
0.0
 10
51.543958
 20
16.198304
 30
0.0
 10
51.063926
 20
14.278244
 30
0.0
 10
50.836243
 20
13.901196
 30
0.0
 10
49.625301
 20
12.246470
 30
0.0
 10
48.697157
 20
11.675027
 30
0.0
 10
47.564534
 20
11.773720
 30
0.0
 10
46.852476
 20
12.062236
 30
0.0
 10
45.296387
 20
12.492963
 30
0.0
 10
44.427693
 20
12.672823
 30
0.0
 10
43.941876
 20
12.133299
 30
0.0
 10
44.036135
 20
11.630125
 30
0.0
 10
44.102813
 20
11.199398
 30
0.0
 10
44.096858
 20
11.002181
 30
0.0
 10
44.360801
 20
10.364048
 30
0.0
 10
45.819726
 20
9.724504
 30
0.0
 10
47.533899
 20
8.835532
 30
0.0
 10
48.142991
 20
8.346808
 30
0.0
 10
48.460587
 20
8.124953
 30
0.0
 10
49.691832
 20
7.626041
 30
0.0
 10
52.495120
 20
10.162485
 30
0.0
 10
52.880878
 20
10.935520
 30
0.0
 10
54.397811
 20
14.276833
 30
0.0
 10
55.312905
 20
17.899480
 30
0.0
 10
55.597148
 20
19.072664
 30
0.0
 10
56.013367
 20
20.830310
 30
0.0
 10
56.261350
 20
21.944103
 30
0.0
 10
56.259939
 20
21.944103
 30
0.0
 10
56.145368
 20
22.640212
 30
0.0
 10
55.645047
 20
22.827326
 30
0.0
 10
55.302791
 20
22.818407
 30
0.0
 10
55.302791
 20
23.395560
 30
0.0
 10
55.088161
 20
24.187383
 30
0.0
 10
54.628440
 20
24.365806
 30
0.0
 10
54.383350
 20
24.696450
 30
0.0
 10
53.682889
 20
25.456341
 30
0.0
 10
53.342083
 20
25.324394
 30
0.0
 10
53.091196
 20
25.337771
 30
0.0
 10
52.760544
 20
25.472611
 30
0.0
 10
52.482101
 20
25.872901
 30
0.0
 10
52.241363
 20
26.168721
 30
0.0
 10
51.778747
 20
26.381898
 30
0.0
 10
51.778913
 20
26.381819
 30
0.0
  0
LWPOLYLINE
  5
108
100
AcDbEntity
  8
Layer_1
 62
6
100
AcDbPolyline
 90
50
 70
1
 10
39.525950
 20
25.720535
 30
0.0
 10
38.294714
 20
24.754672
 30
0.0
 10
35.819173
 20
22.561952
 30
0.0
 10
35.472573
 20
22.379219
 30
0.0
 10
35.584240
 20
22.859180
 30
0.0
 10
35.713312
 20
23.527736
 30
0.0
 10
35.688674
 20
24.010672
 30
0.0
 10
35.456636
 20
24.512460
 30
0.0
 10
34.251505
 20
24.170235
 30
0.0
 10
33.189937
 20
23.298597
 30
0.0
 10
32.966604
 20
23.220337
 30
0.0
 10
32.691056
 20
23.024534
 30
0.0
 10
32.142873
 20
22.725822
 30
0.0
 10
31.680254
 20
22.742134
 30
0.0
 10
31.593240
 20
23.088669
 30
0.0
 10
31.570069
 20
23.648522
 30
0.0
 10
31.449699
 20
24.230060
 30
0.0
 10
30.591167
 20
24.580976
 30
0.0
 10
29.765986
 20
24.296738
 30
0.0
 10
29.359928
 20
24.048741
 30
0.0
 10
27.708120
 20
22.801536
 30
0.0
 10
26.736464
 20
21.941554
 30
0.0
 10
26.009905
 20
21.296236
 30
0.0
 10
26.031662
 20
20.719047
 30
0.0
 10
26.965613
 20
19.731464
 30
0.0
 10
27.986571
 20
20.149167
 30
0.0
 10
28.839298
 20
20.790105
 30
0.0
 10
28.869742
 20
20.433398
 30
0.0
 10
29.684771
 20
19.428394
 30
0.0
 10
31.081339
 20
19.393375
 30
0.0
 10
32.501103
 20
20.222883
 30
0.0
 10
32.614227
 20
20.289730
 30
0.0
 10
32.953576
 20
20.466599
 30
0.0
 10
33.181262
 20
20.252008
 30
0.0
 10
33.130473
 20
19.731331
 30
0.0
 10
33.400215
 20
19.071464
 30
0.0
 10
33.667059
 20
18.996108
 30
0.0
 10
34.882351
 20
19.261499
 30
0.0
 10
37.820507
 20
21.394706
 30
0.0
 10
38.700789
 20
22.201083
 30
0.0
 10
39.389648
 20
23.004482
 30
0.0
 10
39.597025
 20
23.375743
 30
0.0
 10
39.749301
 20
23.755684
 30
0.0
 10
39.988592
 20
24.311160
 30
0.0
 10
39.990003
 20
24.311160
 30
0.0
 10
40.268449
 20
24.930420
 30
0.0
 10
39.889941
 20
25.553982
 30
0.0
 10
39.769573
 20
25.638112
 30
0.0
 10
39.525931
 20
25.720753
 30
0.0
 10
39.525950
 20
25.720535
 30
0.0
  0
LWPOLYLINE
  5
109
100
AcDbEntity
  8
Layer_1
 62
6
100
AcDbPolyline
 90
33
 70
1
 10
67.370280
 20
24.364551
 30
0.0
 10
66.981618
 20
24.044011
 30
0.0
 10
66.926522
 20
22.963650
 30
0.0
 10
66.755394
 20
21.324845
 30
0.0
 10
66.598769
 20
20.824547
 30
0.0
 10
66.224604
 20
19.874643
 30
0.0
 10
66.188390
 20
19.707881
 30
0.0
 10
66.105735
 20
19.539615
 30
0.0
 10
66.027421
 20
19.414963
 30
0.0
 10
65.875146
 20
19.290223
 30
0.0
 10
65.619907
 20
18.791314
 30
0.0
 10
63.924598
 20
16.700098
 30
0.0
 10
64.007249
 20
15.686406
 30
0.0
 10
64.968761
 20
15.767616
 30
0.0
 10
65.218191
 20
16.056191
 30
0.0
 10
65.461831
 20
16.076144
 30
0.0
 10
65.820039
 20
15.854281
 30
0.0
 10
66.311661
 20
15.910711
 30
0.0
 10
67.885158
 20
17.501640
 30
0.0
 10
68.755297
 20
19.162123
 30
0.0
 10
68.990227
 20
19.705937
 30
0.0
 10
69.336835
 20
20.750128
 30
0.0
 10
69.885018
 20
22.239541
 30
0.0
 10
70.008290
 20
22.573077
 30
0.0
 10
70.153313
 20
22.858723
 30
0.0
 10
70.154724
 20
22.858723
 30
0.0
 10
70.262039
 20
23.997151
 30
0.0
 10
69.892237
 20
24.261113
 30
0.0
 10
69.148266
 20
23.881166
 30
0.0
 10
68.772659
 20
23.549044
 30
0.0
 10
68.327437
 20
23.785456
 30
0.0
 10
67.370291
 20
24.362617
 30
0.0
 10
67.370280
 20
24.364551
 30
0.0
  0
LWPOLYLINE
  5
10a
100
AcDbEntity
  8
Layer_1
 62
6
100
AcDbPolyline
 90
29
 70
1
 10
44.503131
 20
24.225330
 30
0.0
 10
44.159424
 20
24.102073
 30
0.0
 10
44.287042
 20
23.300082
 30
0.0
 10
44.300109
 20
22.793987
 30
0.0
 10
43.860692
 20
22.373349
 30
0.0
 10
43.734519
 20
22.126836
 30
0.0
 10
43.609802
 20
21.936900
 30
0.0
 10
44.075330
 20
20.850658
 30
0.0
 10
43.934651
 20
20.566426
 30
0.0
 10
43.627207
 20
20.009534
 30
0.0
 10
43.534392
 20
19.733992
 30
0.0
 10
43.550338
 20
18.981303
 30
0.0
 10
43.850535
 20
18.494007
 30
0.0
 10
44.234848
 20
17.825450
 30
0.0
 10
44.703272
 20
16.991597
 30
0.0
 10
47.312224
 20
14.769847
 30
0.0
 10
48.143205
 20
14.682810
 30
0.0
 10
48.974180
 20
15.138201
 30
0.0
 10
49.185917
 20
15.409357
 30
0.0
 10
50.077805
 20
16.682721
 30
0.0
 10
50.079216
 20
16.682721
 30
0.0
 10
49.861679
 20
18.704296
 30
0.0
 10
49.600640
 20
19.288806
 30
0.0
 10
48.978493
 20
19.918131
 30
0.0
 10
46.739350
 20
22.086219
 30
0.0
 10
46.041790
 20
22.899792
 30
0.0
 10
45.529858
 20
23.527736
 30
0.0
 10
44.503103
 20
24.228229
 30
0.0
 10
44.503131
 20
24.225330
 30
0.0
  0
LWPOLYLINE
  5
10b
100
AcDbEntity
  8
Layer_1
 62
6
100
AcDbPolyline
 90
120
 70
1
 10
20.037824
 20
24.004878
 30
0.0
 10
19.296756
 20
23.722128
 30
0.0
 10
18.599200
 20
23.381314
 30
0.0
 10
18.519439
 20
23.578528
 30
0.0
 10
17.196833
 20
23.629017
 30
0.0
 10
16.622542
 20
23.486902
 30
0.0
 10
15.840866
 20
23.395498
 30
0.0
 10
16.003291
 20
22.668945
 30
0.0
 10
16.209228
 20
21.875715
 30
0.0
 10
15.487013
 20
20.609646
 30
0.0
 10
14.947531
 20
20.065829
 30
0.0
 10
14.642981
 20
19.722111
 30
0.0
 10
13.680035
 20
20.631411
 30
0.0
 10
12.490852
 20
22.139607
 30
0.0
 10
12.093487
 20
22.931423
 30
0.0
 10
11.385774
 20
23.027133
 30
0.0
 10
11.369811
 20
22.416639
 30
0.0
 10
11.452476
 20
22.254177
 30
0.0
 10
11.149373
 20
22.297973
 30
0.0
 10
10.695459
 20
22.372223
 30
0.0
 10
10.585240
 20
21.706635
 30
0.0
 10
10.678054
 20
21.239591
 30
0.0
 10
10.170478
 20
21.194298
 30
0.0
 10
9.455517
 20
20.682431
 30
0.0
 10
9.900729
 20
20.250278
 30
0.0
 10
10.493873
 20
19.823843
 30
0.0
 10
11.162427
 20
19.287299
 30
0.0
 10
12.076070
 20
18.451984
 30
0.0
 10
12.572048
 20
17.929932
 30
0.0
 10
12.105072
 20
17.738481
 30
0.0
 10
11.282796
 20
17.489002
 30
0.0
 10
10.670800
 20
17.320823
 30
0.0
 10
9.178522
 20
17.055387
 30
0.0
 10
8.615836
 20
16.936498
 30
0.0
 10
8.353342
 20
16.862249
 30
0.0
 10
8.012542
 20
16.028352
 30
0.0
 10
8.492564
 20
15.839825
 30
0.0
 10
9.116158
 20
15.498988
 30
0.0
 10
9.063960
 20
15.467072
 30
0.0
 10
8.699956
 20
15.246673
 30
0.0
 10
8.873979
 20
14.952290
 30
0.0
 10
9.048010
 20
14.765191
 30
0.0
 10
8.859478
 20
14.601304
 30
0.0
 10
8.669498
 20
14.437418
 30
0.0
 10
8.836274
 20
14.214039
 30
0.0
 10
9.246685
 20
13.921120
 30
0.0
 10
11.361117
 20
14.070557
 30
0.0
 10
12.196446
 20
14.222816
 30
0.0
 10
12.750437
 20
14.421472
 30
0.0
 10
14.010679
 20
14.908760
 30
0.0
 10
14.126697
 20
14.949541
 30
0.0
 10
14.273173
 20
15.017895
 30
0.0
 10
14.661828
 20
15.099105
 30
0.0
 10
15.118653
 20
15.007701
 30
0.0
 10
15.431898
 20
14.690148
 30
0.0
 10
15.830710
 20
14.228940
 30
0.0
 10
16.129462
 20
13.831543
 30
0.0
 10
14.394990
 20
13.068753
 30
0.0
 10
13.540808
 20
12.790341
 30
0.0
 10
10.257493
 20
12.535042
 30
0.0
 10
9.383011
 20
12.333536
 30
0.0
 10
9.591843
 20
11.936139
 30
0.0
 10
9.825327
 20
11.750521
 30
0.0
 10
9.636803
 20
11.624368
 30
0.0
 10
9.561385
 20
11.002181
 30
0.0
 10
10.989859
 20
10.599026
 30
0.0
 10
11.227694
 20
10.433729
 30
0.0
 10
11.925257
 20
10.098703
 30
0.0
 10
12.086227
 20
9.910150
 30
0.0
 10
12.131224
 20
9.902530
 30
0.0
 10
12.731614
 20
10.038843
 30
0.0
 10
12.782403
 20
9.931486
 30
0.0
 10
12.875217
 20
10.006924
 30
0.0
 10
13.062301
 20
10.041948
 30
0.0
 10
13.131875
 20
10.084055
 30
0.0
 10
14.177485
 20
10.303032
 30
0.0
 10
16.886508
 20
11.168889
 30
0.0
 10
18.629675
 20
10.236371
 30
0.0
 10
18.971929
 20
9.419902
 30
0.0
 10
19.425852
 20
8.427891
 30
0.0
 10
19.676740
 20
7.968207
 30
0.0
 10
20.106003
 20
6.960307
 30
0.0
 10
20.475813
 20
6.116321
 30
0.0
 10
21.667899
 20
5.421603
 30
0.0
 10
22.159526
 20
5.964006
 30
0.0
 10
22.249438
 20
6.306229
 30
0.0
 10
22.482929
 20
6.210499
 30
0.0
 10
22.861433
 20
5.652207
 30
0.0
 10
23.669208
 20
5.396965
 30
0.0
 10
23.981013
 20
5.630476
 30
0.0
 10
25.090435
 20
5.615518
 30
0.0
 10
25.725628
 20
5.337049
 30
0.0
 10
26.259311
 20
5.805425
 30
0.0
 10
26.259311
 20
5.805425
 30
0.0
 10
25.940266
 20
7.006224
 30
0.0
 10
24.481335
 20
8.517412
 30
0.0
 10
23.060116
 20
10.058966
 30
0.0
 10
22.559787
 20
10.930581
 30
0.0
 10
22.162429
 20
11.557030
 30
0.0
 10
21.827421
 20
12.128417
 30
0.0
 10
21.206731
 20
13.081199
 30
0.0
 10
20.857221
 20
13.703330
 30
0.0
 10
21.667899
 20
14.287812
 30
0.0
 10
22.684507
 20
15.057909
 30
0.0
 10
24.210146
 20
17.904650
 30
0.0
 10
23.683710
 20
18.700867
 30
0.0
 10
23.222541
 20
18.471736
 30
0.0
 10
23.006462
 20
18.325232
 30
0.0
 10
21.814376
 20
19.082265
 30
0.0
 10
21.377858
 20
18.876319
 30
0.0
 10
20.749905
 20
18.548557
 30
0.0
 10
19.266330
 20
16.068719
 30
0.0
 10
18.889265
 20
15.652478
 30
0.0
 10
18.349784
 20
16.231092
 30
0.0
 10
17.810301
 20
16.811211
 30
0.0
 10
18.490453
 20
17.502949
 30
0.0
 10
20.216222
 20
20.426599
 30
0.0
 10
20.493218
 20
23.815809
 30
0.0
 10
20.037847
 20
24.002846
 30
0.0
 10
20.037824
 20
24.004878
 30
0.0
  0
LWPOLYLINE
  5
10c
100
AcDbEntity
  8
Layer_1
 62
6
100
AcDbPolyline
 90
29
 70
1
 10
42.005840
 20
21.773028
 30
0.0
 10
40.512108
 20
21.462654
 30
0.0
 10
38.919762
 20
20.251698
 30
0.0
 10
36.761826
 20
18.469360
 30
0.0
 10
34.714101
 20
17.786309
 30
0.0
 10
34.425509
 20
17.731389
 30
0.0
 10
33.611936
 20
17.580583
 30
0.0
 10
33.001387
 20
17.534527
 30
0.0
 10
32.615626
 20
17.534527
 30
0.0
 10
32.222615
 20
17.417058
 30
0.0
 10
32.002182
 20
17.286513
 30
0.0
 10
31.870215
 20
16.996519
 30
0.0
 10
32.498160
 20
16.008890
 30
0.0
 10
32.918722
 20
15.554973
 30
0.0
 10
33.551027
 20
14.961866
 30
0.0
 10
35.089711
 20
14.937482
 30
0.0
 10
35.758264
 20
15.115857
 30
0.0
 10
36.302098
 20
15.287008
 30
0.0
 10
38.342567
 20
15.994661
 30
0.0
 10
40.645520
 20
16.915529
 30
0.0
 10
41.853564
 20
18.481812
 30
0.0
 10
42.050792
 20
18.816843
 30
0.0
 10
42.813616
 20
19.821845
 30
0.0
 10
42.815027
 20
19.821845
 30
0.0
 10
42.845479
 20
21.244485
 30
0.0
 10
42.678708
 20
21.363366
 30
0.0
 10
42.334998
 20
21.669427
 30
0.0
 10
42.005806
 20
21.775238
 30
0.0
 10
42.005840
 20
21.773028
 30
0.0
  0
LWPOLYLINE
  5
10d
100
AcDbEntity
  8
Layer_1
 62
6
100
AcDbPolyline
 90
7
 70
1
 10
69.863216
 20
21.511958
 30
0.0
 10
69.838578
 20
21.465920
 30
0.0
 10
69.922692
 20
21.377491
 30
0.0
 10
70.005358
 20
21.413883
 30
0.0
 10
69.922692
 20
21.502318
 30
0.0
 10
69.863216
 20
21.512703
 30
0.0
 10
69.863216
 20
21.511958
 30
0.0
  0
LWPOLYLINE
  5
10e
100
AcDbEntity
  8
Layer_1
 62
6
100
AcDbPolyline
 90
8
 70
1
 10
74.978167
 20
19.620866
 30
0.0
 10
74.849098
 20
19.245277
 30
0.0
 10
74.537299
 20
18.578140
 30
0.0
 10
73.617847
 20
16.984329
 30
0.0
 10
73.661377
 20
17.135220
 30
0.0
 10
74.342983
 20
18.430219
 30
0.0
 10
74.978184
 20
19.620866
 30
0.0
 10
74.978167
 20
19.620866
 30
0.0
  0
LWPOLYLINE
  5
10f
100
AcDbEntity
  8
Layer_1
 62
6
100
AcDbPolyline
 90
38
 70
1
 10
29.343917
 20
18.972613
 30
0.0
 10
28.987163
 20
18.495469
 30
0.0
 10
28.855196
 20
18.349009
 30
0.0
 10
27.993758
 20
18.377821
 30
0.0
 10
27.753020
 20
18.148691
 30
0.0
 10
26.732061
 20
16.850768
 30
0.0
 10
26.547887
 20
16.491090
 30
0.0
 10
26.402859
 20
16.824614
 30
0.0
 10
24.629235
 20
17.741184
 30
0.0
 10
24.202868
 20
16.721730
 30
0.0
 10
24.693046
 20
15.634009
 30
0.0
 10
25.128116
 20
14.778393
 30
0.0
 10
24.784413
 20
14.685576
 30
0.0
 10
24.066549
 20
14.677956
 30
0.0
 10
23.397996
 20
14.283437
 30
0.0
 10
23.210919
 20
13.983238
 30
0.0
 10
23.155824
 20
12.889796
 30
0.0
 10
25.238342
 20
12.021144
 30
0.0
 10
25.863392
 20
12.273479
 30
0.0
 10
26.112833
 20
12.041408
 30
0.0
 10
26.574002
 20
10.652084
 30
0.0
 10
27.391927
 20
10.391028
 30
0.0
 10
28.189552
 20
10.589713
 30
0.0
 10
28.038732
 20
11.963091
 30
0.0
 10
27.383232
 20
13.288632
 30
0.0
 10
27.650070
 20
13.955721
 30
0.0
 10
28.070638
 20
14.518359
 30
0.0
 10
28.367934
 20
14.150003
 30
0.0
 10
28.510052
 20
13.606189
 30
0.0
 10
28.708734
 20
13.039148
 30
0.0
 10
29.486058
 20
12.599812
 30
0.0
 10
29.916778
 20
13.466940
 30
0.0
 10
30.119803
 20
16.174549
 30
0.0
 10
30.189376
 20
18.172942
 30
0.0
 10
30.195331
 20
18.172942
 30
0.0
 10
29.552877
 20
18.972043
 30
0.0
 10
29.344044
 20
18.972043
 30
0.0
 10
29.343917
 20
18.972613
 30
0.0
  0
LWPOLYLINE
  5
110
100
AcDbEntity
  8
Layer_1
 62
6
100
AcDbPolyline
 90
7
 70
1
 10
73.496032
 20
16.823330
 30
0.0
 10
73.511977
 20
16.810037
 30
0.0
 10
72.665040
 20
15.644079
 30
0.0
 10
72.846319
 20
15.942848
 30
0.0
 10
73.323442
 20
16.608432
 30
0.0
 10
73.496020
 20
16.823113
 30
0.0
 10
73.496032
 20
16.823330
 30
0.0
  0
LWPOLYLINE
  5
111
100
AcDbEntity
  8
Layer_1
 62
6
100
AcDbPolyline
 90
49
 70
1
 10
41.743348
 20
16.617514
 30
0.0
 10
41.187909
 20
16.282482
 30
0.0
 10
40.665832
 20
15.993952
 30
0.0
 10
40.081389
 20
15.616901
 30
0.0
 10
36.845937
 20
13.941892
 30
0.0
 10
36.490631
 20
13.950641
 30
0.0
 10
32.814311
 20
13.850537
 30
0.0
 10
32.583721
 20
13.894422
 30
0.0
 10
32.398092
 20
13.980020
 30
0.0
 10
31.668630
 20
14.027546
 30
0.0
 10
31.709244
 20
13.219742
 30
0.0
 10
31.255321
 20
12.651290
 30
0.0
 10
31.071140
 20
12.496096
 30
0.0
 10
33.732309
 20
10.812386
 30
0.0
 10
34.522678
 20
10.983526
 30
0.0
 10
35.965655
 20
11.064693
 30
0.0
 10
37.775535
 20
11.479475
 30
0.0
 10
38.330973
 20
11.670878
 30
0.0
 10
38.255558
 20
11.407000
 30
0.0
 10
38.180148
 20
11.128532
 30
0.0
 10
36.461632
 20
9.597081
 30
0.0
 10
35.381212
 20
8.684910
 30
0.0
 10
34.106462
 20
7.597226
 30
0.0
 10
33.871529
 20
7.426086
 30
0.0
 10
32.498165
 20
6.801105
 30
0.0
 10
31.931130
 20
6.596635
 30
0.0
 10
31.904996
 20
5.564012
 30
0.0
 10
32.680865
 20
5.627823
 30
0.0
 10
33.594508
 20
5.997703
 30
0.0
 10
34.055679
 20
6.157187
 30
0.0
 10
34.615467
 20
6.542985
 30
0.0
 10
35.218762
 20
6.831557
 30
0.0
 10
35.923573
 20
6.851595
 30
0.0
 10
36.029440
 20
6.925848
 30
0.0
 10
39.050259
 20
8.458738
 30
0.0
 10
39.473725
 20
8.802456
 30
0.0
 10
41.211091
 20
10.600663
 30
0.0
 10
41.519994
 20
11.018380
 30
0.0
 10
42.411881
 20
12.400479
 30
0.0
 10
42.546750
 20
12.467337
 30
0.0
 10
42.578666
 20
12.502333
 30
0.0
 10
43.925927
 20
15.237467
 30
0.0
 10
43.924516
 20
15.237467
 30
0.0
 10
44.295774
 20
15.948046
 30
0.0
 10
43.699735
 20
16.448375
 30
0.0
 10
42.527948
 20
16.117732
 30
0.0
 10
42.356820
 20
16.108870
 30
0.0
 10
41.743379
 20
16.616425
 30
0.0
 10
41.743348
 20
16.617514
 30
0.0
  0
LWPOLYLINE
  5
112
100
AcDbEntity
  8
Layer_1
 62
6
100
AcDbPolyline
 90
6
 70
1
 10
53.291489
 20
15.616901
 30
0.0
 10
53.211730
 20
15.194854
 30
0.0
 10
53.184157
 20
15.319591
 30
0.0
 10
53.269721
 20
15.605242
 30
0.0
 10
53.291480
 20
15.617208
 30
0.0
 10
53.291489
 20
15.616901
 30
0.0
  0
LWPOLYLINE
  5
113
100
AcDbEntity
  8
Layer_1
 62
6
100
AcDbPolyline
 90
6
 70
1
 10
72.567887
 20
15.529883
 30
0.0
 10
72.364851
 20
15.271717
 30
0.0
 10
72.135721
 20
15.070115
 30
0.0
 10
72.338757
 20
15.299245
 30
0.0
 10
72.567887
 20
15.528376
 30
0.0
 10
72.567887
 20
15.529883
 30
0.0
  0
LWPOLYLINE
  5
114
100
AcDbEntity
  8
Layer_1
 62
6
100
AcDbPolyline
 90
4
 70
1
 10
72.093667
 20
14.939567
 30
0.0
 10
71.204675
 20
13.967998
 30
0.0
 10
71.632496
 20
14.494370
 30
0.0
 10
72.093667
 20
14.939567
 30
0.0
  0
LWPOLYLINE
  5
115
100
AcDbEntity
  8
Layer_1
 62
6
100
AcDbPolyline
 90
6
 70
1
 10
11.706273
 20
14.929379
 30
0.0
 10
11.379975
 20
14.810490
 30
0.0
 10
10.998567
 20
14.790537
 30
0.0
 10
11.323417
 20
14.908006
 30
0.0
 10
11.706273
 20
14.929286
 30
0.0
 10
11.706273
 20
14.929379
 30
0.0
  0
LWPOLYLINE
  5
116
100
AcDbEntity
  8
Layer_1
 62
6
100
AcDbPolyline
 90
7
 70
1
 10
71.064004
 20
13.859116
 30
0.0
 10
71.064004
 20
13.859116
 30
0.0
 10
70.859523
 20
13.573479
 30
0.0
 10
70.631837
 20
13.412471
 30
0.0
 10
70.834874
 20
13.637261
 30
0.0
 10
71.064004
 20
13.860584
 30
0.0
 10
71.064004
 20
13.859116
 30
0.0
  0
LWPOLYLINE
  5
117
100
AcDbEntity
  8
Layer_1
 62
6
100
AcDbPolyline
 90
4
 70
1
 10
47.515247
 20
10.739714
 30
0.0
 10
47.724080
 20
10.739714
 30
0.0
 10
47.619660
 20
10.697155
 30
0.0
 10
47.515247
 20
10.739714
 30
0.0
  0
LWPOLYLINE
  5
118
100
AcDbEntity
  8
Layer_1
 62
6
100
AcDbPolyline
 90
6
 70
1
 10
55.772826
 20
6.902423
 30
0.0
 10
55.169531
 20
6.592035
 30
0.0
 10
55.463937
 20
6.831360
 30
0.0
 10
55.460832
 20
6.831360
 30
0.0
 10
55.772631
 20
6.901125
 30
0.0
 10
55.772826
 20
6.902423
 30
0.0
  0
LWPOLYLINE
  5
119
100
AcDbEntity
  8
Layer_1
 62
6
100
AcDbPolyline
 90
15
 70
1
 10
49.784852
 20
6.344018
 30
0.0
 10
49.082940
 20
6.139633
 30
0.0
 10
48.623220
 20
5.998917
 30
0.0
 10
47.741484
 20
6.006537
 30
0.0
 10
47.827046
 20
5.310436
 30
0.0
 10
48.494148
 20
5.069728
 30
0.0
 10
48.956764
 20
4.996943
 30
0.0
 10
49.325129
 20
4.985090
 30
0.0
 10
49.464352
 20
5.059343
 30
0.0
 10
49.581816
 20
5.089907
 30
0.0
 10
49.686235
 20
5.127584
 30
0.0
 10
50.479511
 20
5.551058
 30
0.0
 10
50.360588
 20
6.173246
 30
0.0
 10
49.784852
 20
6.347292
 30
0.0
 10
49.784852
 20
6.344018
 30
0.0
  0
LWPOLYLINE
  5
11a
100
AcDbEntity
  8
Layer_1
 62
6
100
AcDbPolyline
 90
12
 70
1
 10
46.067921
 20
5.569657
 30
0.0
 10
45.613997
 20
5.546515
 30
0.0
 10
44.822172
 20
5.475254
 30
0.0
 10
44.253689
 20
5.146013
 30
0.0
 10
44.294292
 20
4.912531
 30
0.0
 10
44.400162
 20
4.671767
 30
0.0
 10
44.529225
 20
4.622773
 30
0.0
 10
44.629296
 20
4.615153
 30
0.0
 10
46.195536
 20
4.764533
 30
0.0
 10
46.617551
 20
5.186597
 30
0.0
 10
46.067921
 20
5.566524
 30
0.0
 10
46.067921
 20
5.569657
 30
0.0
  0
LWPOLYLINE
  5
11b
100
AcDbEntity
  8
Layer_1
 62
6
100
AcDbPolyline
 90
9
 70
1
 10
42.984739
 20
5.495404
 30
0.0
 10
42.680193
 20
5.325760
 30
0.0
 10
42.765754
 20
4.665868
 30
0.0
 10
43.282043
 20
4.503393
 30
0.0
 10
43.624288
 20
4.689039
 30
0.0
 10
43.625699
 20
4.689039
 30
0.0
 10
43.412512
 20
5.331518
 30
0.0
 10
42.984688
 20
5.495404
 30
0.0
 10
42.984739
 20
5.495404
 30
0.0
  0
LWPOLYLINE
  5
11c
100
AcDbEntity
  8
Layer_1
 62
6
100
AcDbPolyline
 90
7
 70
1
 10
51.784713
 20
4.918175
 30
0.0
 10
51.397498
 20
4.696320
 30
0.0
 10
51.504810
 20
4.181434
 30
0.0
 10
51.973234
 20
4.004565
 30
0.0
 10
52.344495
 20
4.227860
 30
0.0
 10
52.232828
 20
4.818156
 30
0.0
 10
51.784713
 20
4.918175
 30
0.0
  0
ENDSEC
  0
SECTION
  2
OBJECTS
  0
DICTIONARY
  5
C
330
0
100
AcDbDictionary
  3
ACAD_GROUP
350
D
  3
ACAD_MLINESTYLE
350
17
  0
DICTIONARY
  5
D
330
C
100
AcDbDictionary
  0
DICTIONARY
  5
1A
330
C
100
AcDbDictionary
  0
DICTIONARY
  5
17
330
C
100
AcDbDictionary
  3
STANDARD
350
18
  0
DICTIONARY
  5
19
330
C
100
AcDbDictionary
  0
ENDSEC
  0
EOF
