<?xml version="1.0" encoding="UTF-8" standalone="no"?>
<!-- Created with Inkscape (http://www.inkscape.org/) -->

<svg
   xmlns:dc="http://purl.org/dc/elements/1.1/"
   xmlns:cc="http://creativecommons.org/ns#"
   xmlns:rdf="http://www.w3.org/1999/02/22-rdf-syntax-ns#"
   xmlns:svg="http://www.w3.org/2000/svg"
   xmlns="http://www.w3.org/2000/svg"
   xmlns:sodipodi="http://sodipodi.sourceforge.net/DTD/sodipodi-0.dtd"
   xmlns:inkscape="http://www.inkscape.org/namespaces/inkscape"
   width="88mm"
   height="37mm"
   viewBox="0 0 311.81102 131.10236"
   id="svg6570"
   version="1.1"
   inkscape:version="0.91 r13725"
   sodipodi:docname="GarLampli_logo.svg">
  <defs
     id="defs6572" />
  <sodipodi:namedview
     id="base"
     pagecolor="#ffffff"
     bordercolor="#666666"
     borderopacity="1.0"
     inkscape:pageopacity="0.0"
     inkscape:pageshadow="2"
     inkscape:zoom="1.4"
     inkscape:cx="209.32308"
     inkscape:cy="72.897702"
     inkscape:document-units="px"
     inkscape:current-layer="layer1"
     showgrid="false"
     inkscape:window-width="1321"
     inkscape:window-height="744"
     inkscape:window-x="45"
     inkscape:window-y="24"
     inkscape:window-maximized="1" />
  <metadata
     id="metadata6575">
    <rdf:RDF>
      <cc:Work
         rdf:about="">
        <dc:format>image/svg+xml</dc:format>
        <dc:type
           rdf:resource="http://purl.org/dc/dcmitype/StillImage" />
        <dc:title></dc:title>
      </cc:Work>
    </rdf:RDF>
  </metadata>
  <g
     inkscape:label="Layer 1"
     inkscape:groupmode="layer"
     id="layer1"
     transform="translate(0,-921.25984)">
    <rect
       style="color:#000000;clip-rule:nonzero;display:inline;overflow:visible;visibility:visible;opacity:1;isolation:auto;mix-blend-mode:normal;color-interpolation:sRGB;color-interpolation-filters:linearRGB;solid-color:#000000;solid-opacity:1;fill:#ffffff;fill-opacity:1;fill-rule:nonzero;stroke:#000000;stroke-width:0.1;stroke-linecap:butt;stroke-linejoin:miter;stroke-miterlimit:4;stroke-dasharray:none;stroke-dashoffset:0;stroke-opacity:1;color-rendering:auto;image-rendering:auto;shape-rendering:auto;text-rendering:auto;enable-background:accumulate"
       id="rect7124"
       width="311.79855"
       height="131.08989"
       x="-1.1501588e-05"
       y="921.27234" />
    <path
       style="display:inline;opacity:1;fill:#e2c700;fill-opacity:1;stroke:#950862;stroke-width:2.63096023;stroke-miterlimit:4;stroke-dasharray:none;stroke-opacity:1"
       d="m 223.72468,946.22707 -0.27947,0.54271 -0.22593,0.48288 -0.17776,0.44261 -0.13499,0.42187 -0.0976,0.4207 -0.0656,0.43905 -0.0389,0.47697 -0.0177,0.53442 -0.53956,1.70618 -0.87868,0.62695 1.38739,2.33788 5.38526,2.28684 2.21987,0.38016 3.56104,-0.35464 2.17364,-1.98348 4.39349,-4.74284 -0.002,0 -0.002,0 -0.002,0 -0.002,0 -0.002,0 -0.002,0 -0.002,0 -0.002,0 -1.05723,-4.09983 -1.62592,-2.92466 -2.05652,-1.82316 -2.34905,-0.79528 -2.50351,0.15894 -2.51988,1.03952 -2.39818,1.84646 -2.1384,2.57975 -1e-5,0 -1e-5,0 -1e-5,0 -1e-5,0 -1e-5,0 -10e-6,0 -1e-5,0 z m 5.98133,1.41835 0.0553,-0.0271 0.11719,-0.002 0.14726,0.0136 0.14555,0.0183 0.14,0.0318 0.15294,0.0475 0.16762,0.0432 0.18405,0.0188 6.2e-4,0 6.3e-4,0 6.2e-4,0 6.3e-4,0 6.2e-4,0 6.3e-4,0 6.2e-4,0 6.3e-4,0 -0.23127,3.43235 -2.88277,-0.22627 -0.0579,-0.46598 -0.006,-0.42167 0.0495,-0.38514 0.1081,-0.35643 0.16991,-0.33552 0.23495,-0.3224 0.30323,-0.31708 0.37474,-0.31957 0.1152,-0.0884 0.10851,-0.078 0.1034,-0.0678 0.0998,-0.0577 0.0979,-0.0479 0.0975,-0.0382 0.0986,-0.0288 0.10133,-0.0196 2e-5,-6e-5 2e-5,-6e-5 2e-5,-6e-5 1e-5,-5e-5 2e-5,-6e-5 2e-5,-6e-5 2e-5,-6e-5 z m -150.08804,1.71144 -0.883846,0.21047 -0.945514,0.54461 -0.955775,0.13414 -1.479916,2.57965 4.516833,1.58778 1.176724,0.46253 0.277486,0.1079 0.472758,0.15 1.741985,0.7964 2.959831,2.80066 6.90627,4.12113 4.23419,-1.61856 -0.4008,-4.5734 -7.168343,-5.22587 -2.810812,-0.97136 -3.992693,-0.37517 -2.975221,-0.48304 -0.673157,-0.24732 z m 196.6694,2.72356 -0.63206,0.16838 -1.3874,2.26605 -1.57756,1.87562 -1.02771,-1.36179 -2.88275,-2.85697 -1.32575,0.7451 -0.87356,0.73982 -0.72969,0.75036 -0.72455,0.27229 -3.40688,-0.66799 -1.36686,-0.43674 -3.03692,-0.53462 -0.005,3.90541 -0.14387,10.61645 -3.44285,12.57909 -3.09858,5.4727 -4.42433,6.57249 -9.10044,8.42713 -6.39242,4.5682 -3.71007,2.6568 -4.18281,2.6565 -2.66693,1.6647 -0.59093,0.401 -6.06868,3.9567 -2.95983,1.6288 -4.11087,2.3895 -9.67084,4.9949 -1.11507,-0.2776 -2.261,-0.2775 -4.43975,1.4491 -1.56213,0.9763 -1.23327,0.9866 0.11812,3.335 4.36266,-0.447 2.12737,-0.5757 6.56199,-1.4233 0.4933,0.8067 0.31346,1.3618 3.53534,0.1178 2.18391,-1.2795 2.21475,-1.336 1.11507,-0.4059 1.45934,-0.4778 -0.22099,0.447 -1.20757,0.9145 -0.72456,2.0811 1.09966,0.8582 5.3236,-2.1069 2.74914,-1.2125 1.37715,-0.3391 1.09452,0.1021 1.99889,0.3185 4.45518,-1.9219 3.41204,-1.9937 0.78105,-0.6168 0.80676,-0.3854 0.58065,-0.1288 0.80162,-0.2826 8.31939,-3.7664 3.69978,-2.1684 2.41515,-1.6239 5.03069,-3.5814 3.10884,-2.3022 2.73373,-2.3483 3.02151,-2.7647 2.9444,-3.3195 5.65247,-7.28666 0.88897,-1.32581 0.79134,-1.33601 1.48504,-2.81057 4.84057,-13.02643 1.14589,-9.01315 -0.65774,-14.29558 -2.08111,-0.75008 z m -72.42849,3.93092 -2.07598,1.79327 0.25705,0.87374 0.87356,2.07082 0.72453,2.37918 0.67829,0.86321 0.72455,1.49018 0.42136,0.5191 1.13048,1.61856 2.00406,2.62071 5.34413,2.09661 6.377,0.63195 3.87964,-0.0473 -1.83963,5.38541 -4.64527,11.14551 -0.39053,0.59623 -3.11398,4.06962 -2.86736,2.66685 -1.79337,1.41848 -1.10991,1.48476 -1.15104,1.72137 -0.67316,2.0045 1.06883,1.3203 3.26298,-0.8835 1.83962,-1.6649 2.2764,-1.7576 4.34213,-2.92373 4.88678,-3.26323 6.66476,-7.00883 2.28668,-3.02166 5.57536,-9.8507 0.83246,-3.64335 -0.021,0 -0.36999,-11.75199 -1.43367,-1.01213 -3.93102,1.2384 -4.50142,1.30522 -1.17675,0.22625 -1.95265,0.83744 -8.64825,0.0815 -7.30709,-0.57039 -2.29179,-0.99162 -0.9044,-1.28468 -3.25274,-2.78514 z m -20.69825,1.18182 -0.29804,0.29284 0.29804,0.29808 0.2929,-0.29808 z m -111.599977,0.45727 -3.319535,0.53961 -1.109949,1.41835 1.433662,1.27445 1.38228,0.45725 1.474786,0.45726 3.5559,0.64248 1.109949,0.14466 0.226,0.25783 0.241522,0.16049 3.720363,2.55887 1.048253,0.81191 0.673157,0.81719 8.812695,3.84357 0,0 -0.596075,-4.36266 -1.71115,-1.92193 -1.366862,-2.00925 -3.27844,-2.14266 -2.36889,-0.76061 -5.919661,-1.77275 -4.008083,-0.40595 z m 117.750897,1.34127 -1.36174,0.32387 -0.0566,2.53835 1.22813,4.36265 0.99691,8.8795 -1.16134,17.01917 -0.47788,2.95978 -1.7009,6.80338 -0.80675,1.336 -4.29074,5.8632 -3.2887,2.0248 -4.01323,-0.3497 -2.52304,-1.0223 -5.5137,-1.5262 -3.07805,-0.6373 -1.7214,1.9117 0.33399,1.7829 0.23626,1.5262 -0.0211,0.6988 0.93523,2.2611 5.16942,2.2661 6.07384,3.1499 2.1582,1.7317 1.12534,0.7861 4.36268,1.7678 9.93291,-8.9874 1.36686,-2.7391 5.37496,-11.8393 3.24246,-12.83617 1.00716,-4.15695 1.47479,-6.22788 0.87868,-3.94651 -0.005,0 -0.40596,-2.46653 -1.77279,-0.663 -1.21272,0.0316 0,-2.04503 -0.7605,-2.80567 -1.62893,-0.63221 -0.86843,-1.17157 -2.48195,-2.69253 -1.20758,0.46753 -0.88897,-0.0474 -1.1716,-0.47778 -0.98661,-1.41835 -0.85301,-1.04818 -1.63919,-0.75535 z m -43.41601,2.34313 -4.36265,3.42235 -8.7716,7.76948 -1.22811,0.64748 0.39567,-1.70065 0.45734,-2.3689 -0.0873,-1.71119 -0.82218,-1.77799 -4.27015,1.21261 -3.76146,3.08848 -0.79134,0.2773 -0.97635,0.69379 -1.94238,1.05843 -1.6392,-0.0578 -0.30832,-1.22788 -0.0821,-1.98373 -0.42651,-2.06057 -3.04204,-1.2434 -2.92387,1.00714 -1.43879,0.87873 -5.85286,4.41923 -3.44287,3.04718 -2.574434,2.28656 0.0771,2.04516 3.309284,3.49931 3.61757,-1.48005 3.02147,-2.27104 0.10787,1.26392 2.8879,3.56104 4.94847,0.12408 5.03066,-2.9392 0.40083,-0.23686 1.20242,-0.6267 0.80676,0.76036 -0.17996,1.84492 0.95578,2.33811 0.94551,0.26701 4.30615,-0.94036 10.41079,-7.55861 3.11911,-2.85724 2.44084,-2.84669 0.7348,-1.31549 0.53956,-1.34625 0.84788,-1.96822 0.005,0 0.98662,-2.19423 -1.34117,-2.20947 -0.4265,-0.2981 -0.8633,-0.29282 z m 98.66101,4.80467 -1.37715,1.13577 -0.19522,3.82805 -0.60636,5.80679 -0.55497,1.77271 -1.32578,3.3658 -0.12832,0.59089 -0.29287,0.59622 -0.27749,0.44168 -0.53956,0.44199 -0.90439,1.76779 -6.007,7.40982 0.29286,3.59182 3.40693,-0.28775 0.88381,-1.02251 0.86329,-0.0707 1.26924,0.78613 1.74197,-0.19995 5.57538,-5.63715 3.08317,-5.8836 0.83243,-1.9269 1.22814,-3.69989 1.94238,-5.27745 0.43679,-1.18182 0.51386,-1.01213 0.005,0 0.38025,-4.0338 -1.31032,-0.9353 -2.63612,1.34627 -1.33089,1.17681 -1.57756,-0.83768 -3.39146,-2.04506 z m -81.02533,0.4933 -1.21786,0.43674 0.45219,2.8417 0.0463,1.79325 -1.55699,1.49045 -0.44707,0.87347 -0.44191,0.673 1.64951,3.84889 -0.49847,1.00712 -1.08937,1.97324 -0.32887,0.97633 0.0565,2.66701 1.06369,1.72664 1.36174,2.3689 1.65977,2.9546 9.24432,7.87236 2.94442,0.3084 2.9444,-1.61361 0.75025,-0.96079 3.16023,-4.51192 0.005,0 -0.7708,-7.16306 -0.92494,-2.0711 -2.20446,-2.22989 -7.93397,-7.6822 -2.47167,-2.88274 -1.81393,-2.225 -3.63811,-2.48206 z m -86.688098,0.78113 -2.625831,1.00187 -2.471654,1.20761 -0.282618,-0.69879 -4.686399,-0.1789 -2.03489,0.50356 -2.769717,0.32387 0.575522,2.5744 0.729697,2.81066 -2.55903,4.48607 -1.91155,1.92691 -1.079115,1.2179 -3.412013,-3.22193 -4.213641,-5.344 -1.407985,-2.80565 -2.507647,-0.33913 -0.05656,2.16317 0.292906,0.57565 -1.073984,-0.15518 -1.608359,-0.26309 -0.390539,2.35838 0.32887,1.65488 -1.798499,0.16049 -2.533326,1.8137 1.577524,1.53125 2.101691,1.51099 2.36889,1.90114 3.237318,2.95978 1.757402,1.84979 -1.654637,0.67837 -2.913579,0.88398 -2.168489,0.59591 -5.287599,0.94052 -1.993769,0.42126 -0.930096,0.26309 -1.207559,2.95475 1.700865,0.66801 2.209585,1.20769 -0.184956,0.11309 -1.289776,0.78094 0.616617,1.04309 0.616646,0.66297 -0.668027,0.5807 -0.673159,0.5807 0.59094,0.7915 1.454212,1.0379 7.49208,-0.5295 2.95983,-0.5395 1.96296,-0.7039 4.465423,-1.72663 0.411088,-0.1445 0.51901,-0.2422 1.377122,-0.28775 1.618673,0.32387 1.109922,1.12521 1.413115,1.6342 1.058568,1.4081 -6.145766,2.7028 -3.026629,0.9865 -11.633792,0.9046 -3.09856,0.714 0.739958,1.4081 0.827304,0.6577 -0.668,0.447 -0.267227,2.2046 5.061521,1.4285 0.842723,0.5857 2.471681,1.1871 0.570365,0.6681 0.159437,0.027 2.127368,-0.483 0.179959,0.3804 0.32887,-0.2673 0.662895,-0.1241 0.246523,-0.1492 3.704917,-0.7759 9.598902,-3.068 6.176573,3.3042 1.212714,2.893 1.608386,3.515 0.888975,1.6288 1.52101,3.5713 1.310351,2.9905 4.223927,2.4616 1.741986,-1.9219 0.318583,-1.2126 0.827331,0.3392 1.341158,1.9782 2.862195,0.9044 1.104823,-0.8274 3.93102,0.053 2.25068,0.9867 1.891,-1.6596 0,0 -1.13047,-4.2548 -5.16944,-5.3546 -5.035815,-5.4622 -1.77282,-3.0884 -1.407959,-2.2197 -1.187036,-2.0246 -2.199298,-3.376 -1.23842,-2.2044 2.872482,-2.071 3.602153,-2.72871 5.405803,-10.08688 -1.86532,-2.82124 -1.634063,0.81188 -0.765635,0.51911 -4.223927,-2.6824 -1.546717,0.72973 -2.225029,1.16136 -5.256764,8.78683 -1.336054,1.47487 -1.91155,-2.05021 -1.911551,-2.05554 2.409986,-2.45104 6.114931,-10.35939 0.981479,-12.00901 -1.613516,-0.66273 z m 77.839428,7.90813 -5.29275,1.09975 -5.64217,4.29079 -7.64623,6.31537 -7.25572,2.42026 -1.02257,0.1946 -2.88274,0.53435 -2.16336,0.16319 -1.36687,0 -1.39256,0.41623 -0.78106,0.46256 -0.4676,1.02754 2.225,3.49947 1.49018,1.60837 2.24045,2.10156 5.45203,0.0864 2.36889,-0.63204 1.92697,-0.60644 7.23001,-2.50743 8.16007,-3.26292 4.28047,-5.54982 0.69884,-1.18712 2.70292,-3.56103 0.005,0 0.1079,-5.04085 -0.59092,-0.42123 -1.21787,-1.08447 -1.16643,-0.37492 z m 98.70724,0.92505 -0.0873,0.16313 0.29804,0.31333 0.29291,-0.12895 -0.29291,-0.31335 -0.21074,-0.0368 z m 18.12384,6.70072 -0.45733,1.33083 -1.1048,2.36387 -3.2579,5.64736 0.15424,-0.53465 2.41514,-4.58858 2.25071,-4.21883 z m -161.69616,2.29696 -1.26409,1.69067 -0.4676,0.51895 -3.05234,-0.10209 -0.85301,0.81188 -3.61757,4.59894 -0.652584,1.27445 -0.51388,-1.18178 -6.28449,-3.24769 -1.51076,3.61224 1.73686,3.85413 1.54158,3.03171 -1.21784,0.3289 -2.54361,0.027 -2.368892,1.3979 -0.662871,1.0637 -0.195218,3.8744 7.379001,3.0779 2.21474,-0.8941 0.88385,0.8223 1.634064,4.9228 2.89816,0.925 2.82623,-0.704 -0.5344,-4.8663 -2.32264,-4.6968 0.94549,-2.3637 1.4902,-1.9936 1.05341,1.3052 0.50357,1.9269 0.70399,2.0092 2.7543,1.5567 1.52617,-3.0725 0.71938,-9.59391 0.24652,-7.08092 0.0211,0 -2.27641,-2.83146 -0.73996,0 z m 156.4445,7.61557 0.0565,0.0471 -3.00096,4.13135 0.64233,-1.05863 1.69059,-2.35837 0.6115,-0.76068 z m -112.50951,0.72927 -1.96809,1.18712 -1.84988,1.02235 -2.07086,1.33601 -11.4642,5.93509 -1.25896,-0.031 -13.02633,0.3547 -0.81705,-0.1555 -0.65774,-0.3033 -2.58471,-0.1684 0.14391,2.8623 -1.60839,2.0142 -0.65261,0.5499 9.42934,5.9659 2.80052,-0.6064 5.11291,-0.2876 6.41296,-1.4697 1.96809,-0.6782 -0.26722,0.935 -0.2672,0.9867 -6.08923,5.4264 -3.82826,3.2321 -4.51683,3.854 -0.83244,0.6064 -4.86625,2.2145 -2.00918,0.7245 -0.0926,3.6589 2.74914,-0.2261 3.23732,-1.3106 1.63407,-0.5651 1.9835,-1.367 2.13766,-1.0225 2.49736,-0.071 0.37512,-0.2631 10.70369,-5.4315 1.50047,-1.2179 6.15602,-6.3716 1.09454,-1.4801 3.16023,-4.8972 0.47788,-0.2369 0.11309,-0.124 4.77376,-9.69144 -0.005,0 1.31548,-2.5178 -2.11195,-1.77282 -4.152,1.17157 -0.60636,0.0314 -2.17361,-1.79842 z m 40.91861,3.54548 -0.28261,1.49544 -0.0977,-0.44198 0.30318,-1.01215 0.0771,-0.0424 z m 68.3022,0.30833 -0.71942,0.91476 -0.81188,0.71434 0.71942,-0.81188 0.81188,-0.81188 z m -1.68031,2.09167 -3.14997,3.44259 1.5159,-1.8651 z m -213.97108,0.0361 -1.156176,0.42126 -1.351446,0.0707 1.151045,-0.41626 1.356577,-0.0754 z m 210.32267,3.79229 0,0 -0.72454,1.0121 -0.80676,0.5705 0.71942,-0.7965 0.81188,-0.7913 z m -83.44048,11.053 0.73996,0 -0.36999,0.1508 z m 29.25914,13.5967 -2.13766,1.0998 1.04317,-0.848 -0.011,0 1.1048,-0.2472 z m -21.21723,1.9786 -2.48709,0.7242 -1.62893,0.4986 -3.12426,-0.027 0.30317,2.4665 2.36375,0.8529 1.63919,0.2579 1.30523,0.042 0.49331,-0.2631 0.41621,-0.1083 0.36999,-0.1335 2.81082,-1.5005 -0.42138,-2.2046 -2.04001,-0.6167 z m -13.17023,2.7438 -1.60839,0.082 -2.80568,0.2525 -2.01431,1.1666 0.14387,0.8273 0.37513,0.8531 0.45731,0.1736 0.35458,0.027 5.54967,-0.5293 1.49533,-1.4955 -1.94751,-1.3462 z m -10.92466,0.2631 -1.0791,0.6011 0.30317,2.3382 1.82937,0.5757 1.21268,-0.6578 0.005,0 -0.75539,-2.2765 -1.51591,-0.5807 z m 31.18101,2.0453 -1.37202,0.7861 0.38024,1.8244 1.65977,0.6267 1.31549,-0.7912 -0.39567,-2.0916 z"
       id="path12555"
       inkscape:connector-curvature="0"
       sodipodi:nodetypes="ccccccccccccccccccccccccccccccccccccccccccccccccccccccccccccccccccccccccccccccccccccccccccccccccccccccccccccccccccccccccccccccccccccccccccccccccccccccccccccccccccccccccccccccccccccccccccccccccscccccccccccccccccccccccccccccccccccccccccccccccccccccccccccccccccccccccccccccccccccccccccccccccccccccccccccccccccccccccccccccccccccccccccccccccccccccccccccccccccccccccccccccccccccccccccccccccccccccccccccccccccccccccccccccccccccccccsccccccccccccccccsccccccccccccccccccccccccccccccccccccccccccccccccccccccccccccccccccccccccccccccccccccsccccccccccccccccccccccccccccccccccccccccccccccccccccccccscccccccccccccccccccccccccccccccccccccccccccccccccccccccccccccccccccccccccccccccccccccccccccccccsccccccccccccccccscccccccccccccccccccccccccccccccccccccccccccccccccccccccc" />
  </g>
</svg>
