<?xml version="1.0" standalone="no"?>
<!DOCTYPE svg PUBLIC "-//W3C//DTD SVG 1.1//EN" "http://www.w3.org/Graphics/SVG/1.1/DTD/svg11.dtd">
<svg width="392" height="306" viewBox="0 -306 392 306" xmlns="http://www.w3.org/2000/svg" version="1.1">
<title>OpenSCAD Model</title>
<path d="
M 310.072,-250 L 318.4,-250 L 318.4,-247 L 373.6,-247 L 373.6,-250 L 381.928,-250
 L 381.928,-247 L 385.928,-247 L 385.928,-250 L 392,-250 L 392,-303 L 385.928,-303
 L 385.928,-306 L 381.928,-306 L 381.928,-303 L 310.072,-303 L 310.072,-306 L 306.072,-306
 L 306.072,-303 L 300,-303 L 300,-250 L 306.072,-250 L 306.072,-247 L 310.072,-247
 z
M 85,-268 L 50,-268 L 50,-264 L 85,-264 z
M 35,-268 L 0,-268 L 0,-264 L 35,-264 z
M 94,-256 L 0,-256 L 0,-252 L 94,-252 z
M 94,-244 L 0,-244 L 0,-240 L 94,-240 z
M 94,-232 L 0,-232 L 0,-228 L 94,-228 z
M 392,-214.36 L 389,-214.36 L 389,-214.08 L 386.5,-214.08 L 386.5,-214.36 L 384,-214.36
 L 384,-215.8 L 386.5,-215.8 L 386.5,-216.08 L 389,-216.08 L 389,-215.8 L 392,-215.8
 L 392,-218 L 388,-218 L 388,-221 L 304,-221 L 304,-218 L 300,-218
 L 300,-215.64 L 303,-215.64 L 303,-215.92 L 305.5,-215.92 L 305.5,-215.64 L 308,-215.64
 L 308,-214.2 L 305.5,-214.2 L 305.5,-213.92 L 303,-213.92 L 303,-214.2 L 300,-214.2
 L 300,-200 L 392,-200 z
M 94,-220 L 0,-220 L 0,-216 L 94,-216 z
M 100,-190 L 0,-190 L 0,-160 L 100,-160 z
M 39.4164,-174.204 L 39.2528,-174.239 L 39.1,-174.307 L 38.9647,-174.405 L 38.8528,-174.53 L 38.7691,-174.675
 L 38.7175,-174.834 L 38.7,-175 L 38.7175,-175.166 L 38.7691,-175.325 L 38.8528,-175.47 L 38.9647,-175.595
 L 39.1,-175.693 L 39.2528,-175.761 L 39.4164,-175.796 L 39.5836,-175.796 L 39.7472,-175.761 L 39.9,-175.693
 L 40.0353,-175.595 L 40.1472,-175.47 L 40.2308,-175.325 L 40.2825,-175.166 L 40.3,-175 L 40.2825,-174.834
 L 40.2308,-174.675 L 40.1472,-174.53 L 40.0353,-174.405 L 39.9,-174.307 L 39.7472,-174.239 L 39.5836,-174.204
 z
M 4.41637,-174.204 L 4.25278,-174.239 L 4.09999,-174.307 L 3.96469,-174.405 L 3.85278,-174.53 L 3.76915,-174.675
 L 3.71747,-174.834 L 3.7,-175 L 3.71747,-175.166 L 3.76915,-175.325 L 3.85278,-175.47 L 3.96469,-175.595
 L 4.09999,-175.693 L 4.25278,-175.761 L 4.41637,-175.796 L 4.58362,-175.796 L 4.74721,-175.761 L 4.89999,-175.693
 L 5.03529,-175.595 L 5.1472,-175.47 L 5.23083,-175.325 L 5.28252,-175.166 L 5.29999,-175 L 5.28252,-174.834
 L 5.23083,-174.675 L 5.1472,-174.53 L 5.03529,-174.405 L 4.89999,-174.307 L 4.74721,-174.239 L 4.58362,-174.204
 z
M 95.4164,-174.204 L 95.2528,-174.239 L 95.1,-174.307 L 94.9647,-174.405 L 94.8528,-174.53 L 94.7691,-174.675
 L 94.7175,-174.834 L 94.7,-175 L 94.7175,-175.166 L 94.7691,-175.325 L 94.8528,-175.47 L 94.9647,-175.595
 L 95.1,-175.693 L 95.2528,-175.761 L 95.4164,-175.796 L 95.5836,-175.796 L 95.7472,-175.761 L 95.9,-175.693
 L 96.0353,-175.595 L 96.1472,-175.47 L 96.2308,-175.325 L 96.2825,-175.166 L 96.3,-175 L 96.2825,-174.834
 L 96.2308,-174.675 L 96.1472,-174.53 L 96.0353,-174.405 L 95.9,-174.307 L 95.7472,-174.239 L 95.5836,-174.204
 z
M 392,-164.36 L 389,-164.36 L 389,-164.08 L 386.5,-164.08 L 386.5,-164.36 L 384,-164.36
 L 384,-165.8 L 386.5,-165.8 L 386.5,-166.08 L 389,-166.08 L 389,-165.8 L 392,-165.8
 L 392,-168 L 388,-168 L 388,-171 L 392,-171 L 392,-177 L 300,-177
 L 300,-171 L 304,-171 L 304,-168 L 300,-168 L 300,-165.64 L 303,-165.64
 L 303,-165.92 L 305.5,-165.92 L 305.5,-165.64 L 308,-165.64 L 308,-164.2 L 305.5,-164.2
 L 305.5,-163.92 L 303,-163.92 L 303,-164.2 L 300,-164.2 L 300,-150 L 392,-150
 z
M 318.4,-157.5 L 318.4,-171 L 373.6,-171 L 373.6,-157.5 z
M 306.072,-154.5 L 306.072,-157.5 L 310.072,-157.5 L 310.072,-154.5 z
M 381.928,-154.5 L 381.928,-157.5 L 385.928,-157.5 L 385.928,-154.5 z
M 100,-130 L 0,-130 L 0,-100 L 100,-100 z
M 95.4164,-114.204 L 95.2528,-114.239 L 95.1,-114.307 L 94.9647,-114.405 L 94.8528,-114.53 L 94.7691,-114.675
 L 94.7175,-114.834 L 94.7,-115 L 94.7175,-115.166 L 94.7691,-115.325 L 94.8528,-115.47 L 94.9647,-115.595
 L 95.1,-115.693 L 95.2528,-115.761 L 95.4164,-115.796 L 95.5836,-115.796 L 95.7472,-115.761 L 95.9,-115.693
 L 96.0353,-115.595 L 96.1472,-115.47 L 96.2308,-115.325 L 96.2825,-115.166 L 96.3,-115 L 96.2825,-114.834
 L 96.2308,-114.675 L 96.1472,-114.53 L 96.0353,-114.405 L 95.9,-114.307 L 95.7472,-114.239 L 95.5836,-114.204
 z
M 39.4164,-114.204 L 39.2528,-114.239 L 39.1,-114.307 L 38.9647,-114.405 L 38.8528,-114.53 L 38.7691,-114.675
 L 38.7175,-114.834 L 38.7,-115 L 38.7175,-115.166 L 38.7691,-115.325 L 38.8528,-115.47 L 38.9647,-115.595
 L 39.1,-115.693 L 39.2528,-115.761 L 39.4164,-115.796 L 39.5836,-115.796 L 39.7472,-115.761 L 39.9,-115.693
 L 40.0353,-115.595 L 40.1472,-115.47 L 40.2308,-115.325 L 40.2825,-115.166 L 40.3,-115 L 40.2825,-114.834
 L 40.2308,-114.675 L 40.1472,-114.53 L 40.0353,-114.405 L 39.9,-114.307 L 39.7472,-114.239 L 39.5836,-114.204
 z
M 4.41637,-114.204 L 4.25278,-114.239 L 4.09999,-114.307 L 3.96469,-114.405 L 3.85278,-114.53 L 3.76915,-114.675
 L 3.71747,-114.834 L 3.7,-115 L 3.71747,-115.166 L 3.76915,-115.325 L 3.85278,-115.47 L 3.96469,-115.595
 L 4.09999,-115.693 L 4.25278,-115.761 L 4.41637,-115.796 L 4.58362,-115.796 L 4.74721,-115.761 L 4.89999,-115.693
 L 5.03529,-115.595 L 5.1472,-115.47 L 5.23083,-115.325 L 5.28252,-115.166 L 5.29999,-115 L 5.28252,-114.834
 L 5.23083,-114.675 L 5.1472,-114.53 L 5.03529,-114.405 L 4.89999,-114.307 L 4.74721,-114.239 L 4.58362,-114.204
 z
M 318.4,-112 L 373.6,-112 L 373.6,-100 L 392,-100 L 392,-114.36 L 389,-114.36
 L 389,-114.08 L 386.5,-114.08 L 386.5,-114.36 L 384,-114.36 L 384,-115.8 L 386.5,-115.8
 L 386.5,-116.08 L 389,-116.08 L 389,-115.8 L 392,-115.8 L 392,-118 L 388,-118
 L 388,-121 L 392,-121 L 392,-127 L 300,-127 L 300,-121 L 304,-121
 L 304,-118 L 300,-118 L 300,-115.64 L 303,-115.64 L 303,-115.92 L 305.5,-115.92
 L 305.5,-115.64 L 308,-115.64 L 308,-114.2 L 305.5,-114.2 L 305.5,-113.92 L 303,-113.92
 L 303,-114.2 L 300,-114.2 L 300,-100 L 318.4,-100 z
M 318.4,-121 L 318.4,-124 L 373.6,-124 L 373.6,-121 z
M 381.928,-104.5 L 381.928,-107.5 L 385.928,-107.5 L 385.928,-104.5 z
M 306.072,-104.5 L 306.072,-107.5 L 310.072,-107.5 L 310.072,-104.5 z
M 392,-75.5 L 300,-75.5 L 300,-50 L 392,-50 z
M 335.582,-53.6719 L 334.764,-53.8458 L 334,-54.1859 L 333.323,-54.6774 L 332.764,-55.2989 L 332.346,-56.023
 L 332.087,-56.8183 L 332,-57.65 L 332.087,-58.4816 L 332.346,-59.2769 L 332.764,-60.0011 L 333.323,-60.6226
 L 334,-61.1141 L 334.764,-61.4542 L 335.582,-61.6281 L 336.418,-61.6281 L 337.236,-61.4542 L 338,-61.1141
 L 338.677,-60.6226 L 339.236,-60.0011 L 339.654,-59.2769 L 339.913,-58.4816 L 340,-57.65 L 339.913,-56.8183
 L 339.654,-56.023 L 339.236,-55.2989 L 338.677,-54.6774 L 338,-54.1859 L 337.236,-53.8458 L 336.418,-53.6719
 z
M 365.582,-53.6719 L 364.764,-53.8458 L 364,-54.1859 L 363.323,-54.6774 L 362.764,-55.2989 L 362.346,-56.023
 L 362.087,-56.8183 L 362,-57.65 L 362.087,-58.4816 L 362.346,-59.2769 L 362.764,-60.0011 L 363.323,-60.6226
 L 364,-61.1141 L 364.764,-61.4542 L 365.582,-61.6281 L 366.418,-61.6281 L 367.236,-61.4542 L 368,-61.1141
 L 368.677,-60.6226 L 369.236,-60.0011 L 369.654,-59.2769 L 369.913,-58.4816 L 370,-57.65 L 369.913,-56.8183
 L 369.654,-56.023 L 369.236,-55.2989 L 368.677,-54.6774 L 368,-54.1859 L 367.236,-53.8458 L 366.418,-53.6719
 z
M 323.634,-54.1692 L 322.918,-54.3213 L 322.25,-54.6189 L 321.658,-55.049 L 321.168,-55.5927 L 320.803,-56.2264
 L 320.576,-56.9223 L 320.5,-57.65 L 320.576,-58.3777 L 320.803,-59.0736 L 321.168,-59.7072 L 321.658,-60.251
 L 322.25,-60.6811 L 322.918,-60.9787 L 323.634,-61.1308 L 324.366,-61.1308 L 325.082,-60.9787 L 325.75,-60.6811
 L 326.342,-60.251 L 326.832,-59.7072 L 327.197,-59.0736 L 327.424,-58.3777 L 327.5,-57.65 L 327.424,-56.9223
 L 327.197,-56.2264 L 326.832,-55.5927 L 326.342,-55.049 L 325.75,-54.6189 L 325.082,-54.3213 L 324.366,-54.1692
 z
M 346,-54.59 L 346,-60.59 L 356,-60.59 L 356,-54.59 z
M 84,-58 L 0,-58 L 0,-0 L 84,-0 z
M 32.8877,-5.05273 L 31.1504,-5.61816 L 29.5312,-6.40039 L 27.9189,-7.46094 L 26.2012,-8.86621 L 24.9688,-10.0557
 L 23.8486,-11.3506 L 22.833,-12.7598 L 21.917,-14.29 L 20.9521,-16.0596 L 19.9365,-15.082 L 18.6162,-13.9131
 L 17.457,-13.1406 L 16.3311,-12.6982 L 15.1084,-12.5156 L 14.374,-12.4854 L 13.875,-12.5254 L 13.4043,-12.6787
 L 12.7539,-12.9873 L 10.7871,-14.4053 L 8.84082,-16.6094 L 7.09863,-19.3525 L 5.74219,-22.3906 L 4.98047,-25.1074
 L 4.6416,-27.6729 L 4.73438,-29.9033 L 5.26953,-31.6172 L 5.49414,-31.9658 L 5.78906,-32.3135 L 6.1582,-32.6631
 L 7.36523,-33.625 L 7.69141,-34.1494 L 7.64648,-34.877 L 7.29492,-36.0928 L 6.79199,-37.8623 L 6.47949,-39.416
 L 6.31934,-40.9961 L 6.27637,-42.8457 L 6.32422,-44.79 L 6.48242,-46.2969 L 6.77637,-47.5273 L 7.23438,-48.6445
 L 7.66602,-49.4092 L 8.14941,-49.9824 L 8.78027,-50.4561 L 9.6582,-50.9219 L 11.9922,-51.7441 L 14.7188,-52.1973
 L 17.748,-52.2744 L 20.9893,-51.9668 L 22.6025,-51.665 L 23.9824,-51.2373 L 25.4502,-50.5557 L 27.3281,-49.4951
 L 28.1641,-49.0186 L 28.8242,-48.6777 L 29.3096,-48.4736 L 29.6182,-48.4053 L 29.8848,-48.4541 L 30.2822,-48.5889
 L 30.7588,-48.7881 L 31.2617,-49.0322 L 32.4053,-49.5811 L 33.3809,-49.9111 L 34.3926,-50.0732 L 35.6406,-50.1152
 L 36.8682,-50.0713 L 37.9131,-49.9307 L 38.8428,-49.6797 L 39.7236,-49.3037 L 41.2812,-48.3389 L 42.752,-47.084
 L 44.0264,-45.6465 L 44.998,-44.1328 L 45.9326,-41.9805 L 46.5459,-39.7305 L 46.8535,-37.2979 L 46.874,-34.5967
 L 46.8359,-33.1875 L 46.8965,-32.4111 L 47.1006,-32.0811 L 47.4932,-32.0127 L 48.1973,-32.2881 L 49.4648,-33.0928
 L 51.252,-34.3984 L 53.5146,-36.1738 L 54.8936,-37.2842 L 54.4072,-38.4082 L 53.8555,-39.8408 L 53.5117,-41.2021
 L 53.334,-42.7217 L 53.2803,-44.6279 L 53.3232,-46.5127 L 53.4736,-47.9912 L 53.7539,-49.2012 L 54.1865,-50.2773
 L 54.6377,-51.0371 L 55.3232,-51.4346 L 56.6729,-51.5859 L 59.1191,-51.6074 L 61.6592,-51.5605 L 63.6787,-51.4043
 L 65.4854,-51.1025 L 67.3867,-50.6182 L 68.7324,-50.1416 L 70.2148,-49.4736 L 71.6367,-48.709 L 72.8037,-47.9453
 L 73.917,-47.0332 L 75.1045,-45.9355 L 76.1982,-44.8184 L 77.0264,-43.8457 L 78.0293,-42.2949 L 78.7236,-40.749
 L 79.0664,-39.333 L 79.0127,-38.1719 L 78.2559,-36.9238 L 76.7109,-35.5928 L 74.5146,-34.2783 L 71.8057,-33.0771
 L 70.2383,-32.4805 L 69.875,-31.1338 L 69.1992,-29.0801 L 68.166,-26.6416 L 66.7451,-23.752 L 64.9072,-20.3467
 L 62.2324,-16.0391 L 59.4766,-12.6152 L 56.5107,-9.93555 L 53.2041,-7.86426 L 51.3662,-6.9834 L 49.5664,-6.28125
 L 47.5908,-5.68262 L 45.2217,-5.11328 L 44.2061,-4.91406 L 43.1377,-4.7998 L 41.5615,-4.7373 L 39.0205,-4.69727
 L 34.46,-4.6416 z
M 242,-35 L 223.6,-35 L 223.6,-38 L 168.4,-38 L 168.4,-35 L 150,-35
 L 150,-0 L 242,-0 z
M 239.895,-27.5055 L 239.691,-27.5489 L 239.5,-27.634 L 239.331,-27.7569 L 239.191,-27.9122 L 239.086,-28.0933
 L 239.022,-28.2921 L 239,-28.5 L 239.022,-28.7079 L 239.086,-28.9067 L 239.191,-29.0878 L 239.331,-29.2431
 L 239.5,-29.366 L 239.691,-29.451 L 239.895,-29.4945 L 240.105,-29.4945 L 240.309,-29.451 L 240.5,-29.366
 L 240.669,-29.2431 L 240.809,-29.0878 L 240.914,-28.9067 L 240.978,-28.7079 L 241,-28.5 L 240.978,-28.2921
 L 240.914,-28.0933 L 240.809,-27.9122 L 240.669,-27.7569 L 240.5,-27.634 L 240.309,-27.5489 L 240.105,-27.5055
 z
M 151.895,-27.5055 L 151.691,-27.5489 L 151.5,-27.634 L 151.331,-27.7569 L 151.191,-27.9122 L 151.086,-28.0933
 L 151.022,-28.2921 L 151,-28.5 L 151.022,-28.7079 L 151.086,-28.9067 L 151.191,-29.0878 L 151.331,-29.2431
 L 151.5,-29.366 L 151.691,-29.451 L 151.895,-29.4945 L 152.105,-29.4945 L 152.309,-29.451 L 152.5,-29.366
 L 152.669,-29.2431 L 152.809,-29.0878 L 152.914,-28.9067 L 152.978,-28.7079 L 153,-28.5 L 152.978,-28.2921
 L 152.914,-28.0933 L 152.809,-27.9122 L 152.669,-27.7569 L 152.5,-27.634 L 152.309,-27.5489 L 152.105,-27.5055
 z
M 239.895,-4.70547 L 239.691,-4.74893 L 239.5,-4.83397 L 239.331,-4.95685 L 239.191,-5.11221 L 239.086,-5.29326
 L 239.022,-5.49208 L 239,-5.7 L 239.022,-5.9079 L 239.086,-6.10674 L 239.191,-6.28778 L 239.331,-6.44313
 L 239.5,-6.56602 L 239.691,-6.65105 L 239.895,-6.69452 L 240.105,-6.69452 L 240.309,-6.65105 L 240.5,-6.56602
 L 240.669,-6.44313 L 240.809,-6.28778 L 240.914,-6.10674 L 240.978,-5.9079 L 241,-5.7 L 240.978,-5.49208
 L 240.914,-5.29326 L 240.809,-5.11221 L 240.669,-4.95685 L 240.5,-4.83397 L 240.309,-4.74893 L 240.105,-4.70547
 z
M 151.895,-4.70547 L 151.691,-4.74893 L 151.5,-4.83397 L 151.331,-4.95685 L 151.191,-5.11221 L 151.086,-5.29326
 L 151.022,-5.49208 L 151,-5.7 L 151.022,-5.9079 L 151.086,-6.10674 L 151.191,-6.28778 L 151.331,-6.44313
 L 151.5,-6.56602 L 151.691,-6.65105 L 151.895,-6.69452 L 152.105,-6.69452 L 152.309,-6.65105 L 152.5,-6.56602
 L 152.669,-6.44313 L 152.809,-6.28778 L 152.914,-6.10674 L 152.978,-5.9079 L 153,-5.7 L 152.978,-5.49208
 L 152.914,-5.29326 L 152.809,-5.11221 L 152.669,-4.95685 L 152.5,-4.83397 L 152.309,-4.74893 L 152.105,-4.70547
 z
M 392,-25.5 L 300,-25.5 L 300,-0 L 392,-0 z
" stroke="black" fill="lightgray" stroke-width="0.5"/></svg>
