<?xml version="1.0" standalone="no"?>
<!DOCTYPE svg PUBLIC "-//W3C//DTD SVG 1.1//EN" "http://www.w3.org/Graphics/SVG/1.1/DTD/svg11.dtd">
<svg width="388" height="298" viewBox="0 -298 388 298" xmlns="http://www.w3.org/2000/svg" version="1.1">
<title>OpenSCAD Model</title>
<path d="
M 309.808,-250 L 317.6,-250 L 317.6,-247 L 370.4,-247 L 370.4,-250 L 378.192,-250
 L 378.192,-247 L 382.192,-247 L 382.192,-250 L 388,-250 L 388,-295 L 382.192,-295
 L 382.192,-298 L 378.192,-298 L 378.192,-295 L 309.808,-295 L 309.808,-298 L 305.808,-298
 L 305.808,-295 L 300,-295 L 300,-250 L 305.808,-250 L 305.808,-247 L 309.808,-247
 z
M 85,-256 L 0,-256 L 0,-252 L 85,-252 z
M 85,-244 L 0,-244 L 0,-240 L 85,-240 z
M 85,-232 L 0,-232 L 0,-228 L 85,-228 z
M 3.49208,-229.022 L 3.29326,-229.086 L 3.11221,-229.191 L 2.95685,-229.331 L 2.83397,-229.5 L 2.74893,-229.691
 L 2.70547,-229.895 L 2.70547,-230.105 L 2.74893,-230.309 L 2.83397,-230.5 L 2.95685,-230.669 L 3.11221,-230.809
 L 3.29326,-230.914 L 3.49208,-230.978 L 3.7,-231 L 3.9079,-230.978 L 4.10674,-230.914 L 4.28778,-230.809
 L 4.44313,-230.669 L 4.56602,-230.5 L 4.65105,-230.309 L 4.69452,-230.105 L 4.69452,-229.895 L 4.65105,-229.691
 L 4.56602,-229.5 L 4.44313,-229.331 L 4.28778,-229.191 L 4.10674,-229.086 L 3.9079,-229.022 L 3.7,-229
 z
M 31.2421,-229.022 L 31.0433,-229.086 L 30.8622,-229.191 L 30.7068,-229.331 L 30.584,-229.5 L 30.4989,-229.691
 L 30.4555,-229.895 L 30.4555,-230.105 L 30.4989,-230.309 L 30.584,-230.5 L 30.7068,-230.669 L 30.8622,-230.809
 L 31.0433,-230.914 L 31.2421,-230.978 L 31.45,-231 L 31.6579,-230.978 L 31.8567,-230.914 L 32.0378,-230.809
 L 32.1931,-230.669 L 32.316,-230.5 L 32.401,-230.309 L 32.4445,-230.105 L 32.4445,-229.895 L 32.401,-229.691
 L 32.316,-229.5 L 32.1931,-229.331 L 32.0378,-229.191 L 31.8567,-229.086 L 31.6579,-229.022 L 31.45,-229
 z
M 388,-214 L 382.5,-214 L 382.5,-216 L 388,-216 L 388,-219.4 L 384,-219.4
 L 384,-222.4 L 388,-222.4 L 388,-225.4 L 300,-225.4 L 300,-222.4 L 304,-222.4
 L 304,-219.4 L 300,-219.4 L 300,-216 L 305.5,-216 L 305.5,-214 L 300,-214
 L 300,-200 L 388,-200 z
M 85,-220 L 0,-220 L 0,-216 L 85,-216 z
M 3.49208,-217.022 L 3.29326,-217.086 L 3.11221,-217.191 L 2.95685,-217.331 L 2.83397,-217.5 L 2.74893,-217.691
 L 2.70547,-217.895 L 2.70547,-218.105 L 2.74893,-218.309 L 2.83397,-218.5 L 2.95685,-218.669 L 3.11221,-218.809
 L 3.29326,-218.914 L 3.49208,-218.978 L 3.7,-219 L 3.9079,-218.978 L 4.10674,-218.914 L 4.28778,-218.809
 L 4.44313,-218.669 L 4.56602,-218.5 L 4.65105,-218.309 L 4.69452,-218.105 L 4.69452,-217.895 L 4.65105,-217.691
 L 4.56602,-217.5 L 4.44313,-217.331 L 4.28778,-217.191 L 4.10674,-217.086 L 3.9079,-217.022 L 3.7,-217
 z
M 31.2421,-217.022 L 31.0433,-217.086 L 30.8622,-217.191 L 30.7068,-217.331 L 30.584,-217.5 L 30.4989,-217.691
 L 30.4555,-217.895 L 30.4555,-218.105 L 30.4989,-218.309 L 30.584,-218.5 L 30.7068,-218.669 L 30.8622,-218.809
 L 31.0433,-218.914 L 31.2421,-218.978 L 31.45,-219 L 31.6579,-218.978 L 31.8567,-218.914 L 32.0378,-218.809
 L 32.1931,-218.669 L 32.316,-218.5 L 32.401,-218.309 L 32.4445,-218.105 L 32.4445,-217.895 L 32.401,-217.691
 L 32.316,-217.5 L 32.1931,-217.331 L 32.0378,-217.191 L 31.8567,-217.086 L 31.6579,-217.022 L 31.45,-217
 z
M 91,-190 L 0,-190 L 0,-160 L 91,-160 z
M 85.3955,-174.005 L 85.191,-174.049 L 85,-174.134 L 84.8309,-174.257 L 84.691,-174.412 L 84.5864,-174.593
 L 84.5219,-174.792 L 84.5,-175 L 84.5219,-175.208 L 84.5864,-175.407 L 84.691,-175.588 L 84.8309,-175.743
 L 85,-175.866 L 85.191,-175.951 L 85.3955,-175.995 L 85.6045,-175.995 L 85.809,-175.951 L 86,-175.866
 L 86.1691,-175.743 L 86.309,-175.588 L 86.4135,-175.407 L 86.4781,-175.208 L 86.5,-175 L 86.4781,-174.792
 L 86.4135,-174.593 L 86.309,-174.412 L 86.1691,-174.257 L 86,-174.134 L 85.809,-174.049 L 85.6045,-174.005
 z
M 37.3955,-174.005 L 37.191,-174.049 L 37,-174.134 L 36.8309,-174.257 L 36.691,-174.412 L 36.5864,-174.593
 L 36.5219,-174.792 L 36.5,-175 L 36.5219,-175.208 L 36.5864,-175.407 L 36.691,-175.588 L 36.8309,-175.743
 L 37,-175.866 L 37.191,-175.951 L 37.3955,-175.995 L 37.6045,-175.995 L 37.809,-175.951 L 38,-175.866
 L 38.1691,-175.743 L 38.309,-175.588 L 38.4135,-175.407 L 38.4781,-175.208 L 38.5,-175 L 38.4781,-174.792
 L 38.4135,-174.593 L 38.309,-174.412 L 38.1691,-174.257 L 38,-174.134 L 37.809,-174.049 L 37.6045,-174.005
 z
M 5.39546,-174.005 L 5.19098,-174.049 L 5,-174.134 L 4.83086,-174.257 L 4.69098,-174.412 L 4.58644,-174.593
 L 4.52185,-174.792 L 4.5,-175 L 4.52185,-175.208 L 4.58644,-175.407 L 4.69098,-175.588 L 4.83086,-175.743
 L 5,-175.866 L 5.19098,-175.951 L 5.39546,-175.995 L 5.60452,-175.995 L 5.80901,-175.951 L 6,-175.866
 L 6.16913,-175.743 L 6.30901,-175.588 L 6.41354,-175.407 L 6.47813,-175.208 L 6.5,-175 L 6.47813,-174.792
 L 6.41354,-174.593 L 6.30901,-174.412 L 6.16913,-174.257 L 6,-174.134 L 5.80901,-174.049 L 5.60452,-174.005
 z
M 388,-164 L 382.5,-164 L 382.5,-166 L 388,-166 L 388,-169.4 L 384,-169.4
 L 384,-172.4 L 388,-172.4 L 388,-177 L 300,-177 L 300,-172.4 L 304,-172.4
 L 304,-169.4 L 300,-169.4 L 300,-166 L 305.5,-166 L 305.5,-164 L 300,-164
 L 300,-150 L 388,-150 z
M 317.6,-160 L 317.6,-172 L 370.4,-172 L 370.4,-160 z
M 305.808,-160.2 L 305.808,-163.2 L 309.808,-163.2 L 309.808,-160.2 z
M 378.192,-160.2 L 378.192,-163.2 L 382.192,-163.2 L 382.192,-160.2 z
M 91,-130 L 0,-130 L 0,-100 L 91,-100 z
M 5.39546,-114.005 L 5.19098,-114.049 L 5,-114.134 L 4.83086,-114.257 L 4.69098,-114.412 L 4.58644,-114.593
 L 4.52185,-114.792 L 4.5,-115 L 4.52185,-115.208 L 4.58644,-115.407 L 4.69098,-115.588 L 4.83086,-115.743
 L 5,-115.866 L 5.19098,-115.951 L 5.39546,-115.995 L 5.60452,-115.995 L 5.80901,-115.951 L 6,-115.866
 L 6.16913,-115.743 L 6.30901,-115.588 L 6.41354,-115.407 L 6.47813,-115.208 L 6.5,-115 L 6.47813,-114.792
 L 6.41354,-114.593 L 6.30901,-114.412 L 6.16913,-114.257 L 6,-114.134 L 5.80901,-114.049 L 5.60452,-114.005
 z
M 37.3955,-114.005 L 37.191,-114.049 L 37,-114.134 L 36.8309,-114.257 L 36.691,-114.412 L 36.5864,-114.593
 L 36.5219,-114.792 L 36.5,-115 L 36.5219,-115.208 L 36.5864,-115.407 L 36.691,-115.588 L 36.8309,-115.743
 L 37,-115.866 L 37.191,-115.951 L 37.3955,-115.995 L 37.6045,-115.995 L 37.809,-115.951 L 38,-115.866
 L 38.1691,-115.743 L 38.309,-115.588 L 38.4135,-115.407 L 38.4781,-115.208 L 38.5,-115 L 38.4781,-114.792
 L 38.4135,-114.593 L 38.309,-114.412 L 38.1691,-114.257 L 38,-114.134 L 37.809,-114.049 L 37.6045,-114.005
 z
M 85.3955,-114.005 L 85.191,-114.049 L 85,-114.134 L 84.8309,-114.257 L 84.691,-114.412 L 84.5864,-114.593
 L 84.5219,-114.792 L 84.5,-115 L 84.5219,-115.208 L 84.5864,-115.407 L 84.691,-115.588 L 84.8309,-115.743
 L 85,-115.866 L 85.191,-115.951 L 85.3955,-115.995 L 85.6045,-115.995 L 85.809,-115.951 L 86,-115.866
 L 86.1691,-115.743 L 86.309,-115.588 L 86.4135,-115.407 L 86.4781,-115.208 L 86.5,-115 L 86.4781,-114.792
 L 86.4135,-114.593 L 86.309,-114.412 L 86.1691,-114.257 L 86,-114.134 L 85.809,-114.049 L 85.6045,-114.005
 z
M 317.6,-117.9 L 370.4,-117.9 L 370.4,-104.4 L 388,-104.4 L 388,-114 L 382.5,-114
 L 382.5,-116 L 388,-116 L 388,-119.4 L 384,-119.4 L 384,-122.4 L 388,-122.4
 L 388,-125.4 L 300,-125.4 L 300,-122.4 L 304,-122.4 L 304,-119.4 L 300,-119.4
 L 300,-116 L 305.5,-116 L 305.5,-114 L 300,-114 L 300,-104.4 L 317.6,-104.4
 z
M 378.192,-110.2 L 378.192,-113.2 L 382.192,-113.2 L 382.192,-110.2 z
M 305.808,-110.2 L 305.808,-113.2 L 309.808,-113.2 L 309.808,-110.2 z
M 388,-71 L 300,-71 L 300,-50 L 388,-50 z
M 321.477,-53.4274 L 320.455,-53.6447 L 319.5,-54.0699 L 318.654,-54.6843 L 317.955,-55.4611 L 317.432,-56.3663
 L 317.109,-57.3604 L 317,-58.4 L 317.109,-59.4395 L 317.432,-60.4337 L 317.955,-61.3389 L 318.654,-62.1157
 L 319.5,-62.7301 L 320.455,-63.1553 L 321.477,-63.3726 L 322.523,-63.3726 L 323.545,-63.1553 L 324.5,-62.7301
 L 325.346,-62.1157 L 326.045,-61.3389 L 326.568,-60.4337 L 326.891,-59.4395 L 327,-58.4 L 326.891,-57.3604
 L 326.568,-56.3663 L 326.045,-55.4611 L 325.346,-54.6843 L 324.5,-54.0699 L 323.545,-53.6447 L 322.523,-53.4274
 z
M 353.634,-54.9192 L 352.918,-55.0713 L 352.25,-55.3689 L 351.658,-55.799 L 351.168,-56.3427 L 350.803,-56.9764
 L 350.576,-57.6723 L 350.5,-58.4 L 350.576,-59.1277 L 350.803,-59.8236 L 351.168,-60.4572 L 351.658,-61.001
 L 352.25,-61.4311 L 352.918,-61.7287 L 353.634,-61.8808 L 354.366,-61.8808 L 355.082,-61.7287 L 355.75,-61.4311
 L 356.342,-61.001 L 356.832,-60.4572 L 357.197,-59.8236 L 357.424,-59.1277 L 357.5,-58.4 L 357.424,-57.6723
 L 357.197,-56.9764 L 356.832,-56.3427 L 356.342,-55.799 L 355.75,-55.3689 L 355.082,-55.0713 L 354.366,-54.9192
 z
M 365.634,-54.9192 L 364.918,-55.0713 L 364.25,-55.3689 L 363.658,-55.799 L 363.168,-56.3427 L 362.803,-56.9764
 L 362.576,-57.6723 L 362.5,-58.4 L 362.576,-59.1277 L 362.803,-59.8236 L 363.168,-60.4572 L 363.658,-61.001
 L 364.25,-61.4311 L 364.918,-61.7287 L 365.634,-61.8808 L 366.366,-61.8808 L 367.082,-61.7287 L 367.75,-61.4311
 L 368.342,-61.001 L 368.832,-60.4572 L 369.197,-59.8236 L 369.424,-59.1277 L 369.5,-58.4 L 369.424,-57.6723
 L 369.197,-56.9764 L 368.832,-56.3427 L 368.342,-55.799 L 367.75,-55.3689 L 367.082,-55.0713 L 366.366,-54.9192
 z
M 230,-50 L 150,-50 L 150,-0 L 230,-0 z
M 88,-37 L 0,-37 L 0,-0 L 88,-0 z
M 1.89546,-32.3055 L 1.69098,-32.3489 L 1.49998,-32.434 L 1.33086,-32.5569 L 1.19098,-32.7122 L 1.08644,-32.8932
 L 1.02185,-33.0921 L 1,-33.3 L 1.02185,-33.5079 L 1.08644,-33.7067 L 1.19098,-33.8878 L 1.33086,-34.0431
 L 1.5,-34.166 L 1.69098,-34.2511 L 1.89546,-34.2945 L 2.10452,-34.2945 L 2.30901,-34.2511 L 2.5,-34.166
 L 2.66913,-34.0431 L 2.80901,-33.8878 L 2.91354,-33.7067 L 2.97813,-33.5079 L 3,-33.3 L 2.97813,-33.0921
 L 2.91354,-32.8932 L 2.80901,-32.7122 L 2.66913,-32.5569 L 2.5,-32.434 L 2.30901,-32.3489 L 2.10452,-32.3055
 z
M 85.8955,-32.3055 L 85.691,-32.3489 L 85.5,-32.434 L 85.3309,-32.5569 L 85.191,-32.7122 L 85.0864,-32.8932
 L 85.0219,-33.0921 L 85,-33.3 L 85.0219,-33.5079 L 85.0864,-33.7067 L 85.191,-33.8878 L 85.3309,-34.0431
 L 85.5,-34.166 L 85.691,-34.2511 L 85.8955,-34.2945 L 86.1045,-34.2945 L 86.309,-34.2511 L 86.5,-34.166
 L 86.6691,-34.0431 L 86.809,-33.8878 L 86.9135,-33.7067 L 86.9781,-33.5079 L 87,-33.3 L 86.9781,-33.0921
 L 86.9135,-32.8932 L 86.809,-32.7122 L 86.6691,-32.5569 L 86.5,-32.434 L 86.309,-32.3489 L 86.1045,-32.3055
 z
M 1.89546,-2.70547 L 1.69098,-2.74893 L 1.49998,-2.83397 L 1.33086,-2.95685 L 1.19098,-3.11221 L 1.08644,-3.29326
 L 1.02185,-3.49208 L 1,-3.7 L 1.02185,-3.9079 L 1.08644,-4.10674 L 1.19098,-4.28778 L 1.33086,-4.44313
 L 1.5,-4.56602 L 1.69098,-4.65105 L 1.89546,-4.69452 L 2.10452,-4.69452 L 2.30901,-4.65105 L 2.5,-4.56602
 L 2.66913,-4.44313 L 2.80901,-4.28778 L 2.91354,-4.10674 L 2.97813,-3.9079 L 3,-3.7 L 2.97813,-3.49208
 L 2.91354,-3.29326 L 2.80901,-3.11221 L 2.66913,-2.95685 L 2.5,-2.83397 L 2.30901,-2.74893 L 2.10452,-2.70547
 z
M 85.8955,-2.70547 L 85.691,-2.74893 L 85.5,-2.83397 L 85.3309,-2.95685 L 85.191,-3.11221 L 85.0864,-3.29326
 L 85.0219,-3.49208 L 85,-3.7 L 85.0219,-3.9079 L 85.0864,-4.10674 L 85.191,-4.28778 L 85.3309,-4.44313
 L 85.5,-4.56602 L 85.691,-4.65105 L 85.8955,-4.69452 L 86.1045,-4.69452 L 86.309,-4.65105 L 86.5,-4.56602
 L 86.6691,-4.44313 L 86.809,-4.28778 L 86.9135,-4.10674 L 86.9781,-3.9079 L 87,-3.7 L 86.9781,-3.49208
 L 86.9135,-3.29326 L 86.809,-3.11221 L 86.6691,-2.95685 L 86.5,-2.83397 L 86.309,-2.74893 L 86.1045,-2.70547
 z
M 388,-24 L 300,-24 L 300,-0 L 388,-0 z
" stroke="black" fill="lightgray" stroke-width="0.5"/></svg>
