  0
SECTION
  2
HEADER
  9
$ACADVER
  1
AC1014
  9
$HANDSEED
  5
FFFF
  9
$MEASUREMENT
 70
     1
  0
ENDSEC
  0
SECTION
  2
TABLES
  0
TABLE
  2
VPORT
  5
8
330
0
100
AcDbSymbolTable
 70
     4
  0
VPORT
  5
2E
330
8
100
AcDbSymbolTableRecord
100
AcDbViewportTableRecord
  2
*ACTIVE
 70
     0
 10
0.0
 20
0.0
 11
1.0
 21
1.0
 12
210.0
 22
148.5
 13
0.0
 23
0.0
 14
10.0
 24
10.0
 15
10.0
 25
10.0
 16
0.0
 26
0.0
 36
1.0
 17
0.0
 27
0.0
 37
0.0
 40
341.0
 41
1.24
 42
50.0
 43
0.0
 44
0.0
 50
0.0
 51
0.0
 71
     0
 72
   100
 73
     1
 74
     3
 75
     0
 76
     0
 77
     0
 78
     0
  0
ENDTAB
  0
TABLE
  2
LTYPE
  5
5
330
0
100
AcDbSymbolTable
 70
     1
  0
LTYPE
  5
14
330
5
100
AcDbSymbolTableRecord
100
AcDbLinetypeTableRecord
  2
BYBLOCK
 70
     0
  3

 72
    65
 73
     0
 40
0.0
  0
LTYPE
  5
15
330
5
100
AcDbSymbolTableRecord
100
AcDbLinetypeTableRecord
  2
BYLAYER
 70
     0
  3

 72
    65
 73
     0
 40
0.0
  0
LTYPE
  5
16
330
5
100
AcDbSymbolTableRecord
100
AcDbLinetypeTableRecord
  2
CONTINUOUS
 70
     0
  3
Solid line
 72
    65
 73
     0
 40
0.0
  0
ENDTAB
  0
TABLE
  2
LAYER
  5
2
100
AcDbSymbolTable
 70
2
  0
LAYER
  5
50
100
AcDbSymbolTableRecord
100
AcDbLayerTableRecord
  2
0
 70
0
  6
CONTINUOUS
  0
LAYER
  5
51
100
AcDbSymbolTableRecord
100
AcDbLayerTableRecord
  2
Layer_1
 70
0
  6
CONTINUOUS
  0
ENDTAB
  0
TABLE
  2
STYLE
  5
3
330
0
100
AcDbSymbolTable
 70
     1
  0
STYLE
  5
11
330
3
100
AcDbSymbolTableRecord
100
AcDbTextStyleTableRecord
  2
STANDARD
 70
     0
 40
0.0
 41
1.0
 50
0.0
 71
     0
 42
2.5
  3
txt
  4

  0
ENDTAB
  0
TABLE
  2
VIEW
  5
6
330
0
100
AcDbSymbolTable
 70
     0
  0
ENDTAB
  0
TABLE
  2
UCS
  5
7
330
0
100
AcDbSymbolTable
 70
     0
  0
ENDTAB
  0
TABLE
  2
APPID
  5
9
330
0
100
AcDbSymbolTable
 70
     2
  0
APPID
  5
12
330
9
100
AcDbSymbolTableRecord
100
AcDbRegAppTableRecord
  2
ACAD
 70
     0
  0
ENDTAB
  0
TABLE
  2
DIMSTYLE
  5
A
330
0
100
AcDbSymbolTable
 70
     1
  0
DIMSTYLE
105
27
330
A
100
AcDbSymbolTableRecord
100
AcDbDimStyleTableRecord
  2
ISO-25
 70
     0
  3

  4

  5

  6

  7

 40
1.0
 41
2.5
 42
0.625
 43
3.75
 44
1.25
 45
0.0
 46
0.0
 47
0.0
 48
0.0
140
2.5
141
2.5
142
0.0
143
0.03937007874016
144
1.0
145
0.0
146
1.0
147
0.625
 71
     0
 72
     0
 73
     0
 74
     0
 75
     0
 76
     0
 77
     1
 78
     8
170
     0
171
     3
172
     1
173
     0
174
     0
175
     0
176
     0
177
     0
178
     0
270
     2
271
     2
272
     2
273
     2
274
     3
340
11
275
     0
280
     0
281
     0
282
     0
283
     0
284
     8
285
     0
286
     0
287
     3
288
     0
  0
ENDTAB
  0
TABLE
  2
BLOCK_RECORD
  5
1
330
0
100
AcDbSymbolTable
 70
     1
  0
BLOCK_RECORD
  5
1F
330
1
100
AcDbSymbolTableRecord
100
AcDbBlockTableRecord
  2
*MODEL_SPACE
  0
BLOCK_RECORD
  5
1B
330
1
100
AcDbSymbolTableRecord
100
AcDbBlockTableRecord
  2
*PAPER_SPACE
  0
ENDTAB
  0
ENDSEC
  0
SECTION
  2
BLOCKS
  0
BLOCK
  5
20
330
1F
100
AcDbEntity
  8
0
100
AcDbBlockBegin
  2
*MODEL_SPACE
 70
     0
 10
0.0
 20
0.0
 30
0.0
  3
*MODEL_SPACE
  1

  0
ENDBLK
  5
21
330
1F
100
AcDbEntity
  8
0
100
AcDbBlockEnd
  0
BLOCK
  5
1C
330
1B
100
AcDbEntity
 67
     1
  8
0
100
AcDbBlockBegin
  2
*PAPER_SPACE
  1

  0
ENDBLK
  5
1D
330
1B
100
AcDbEntity
 67
     1
  8
0
100
AcDbBlockEnd
  0
ENDSEC
  0
SECTION
  2
ENTITIES
  0
LWPOLYLINE
  5
100
100
AcDbEntity
  8
Layer_1
 62
7
100
AcDbPolyline
 90
165
 70
1
 10
28.387587
 20
0.552390
 30
0.0
 10
26.650286
 20
1.118444
 30
0.0
 10
25.031378
 20
1.900171
 30
0.0
 10
23.418887
 20
2.961383
 30
0.0
 10
21.700851
 20
4.365975
 30
0.0
 10
20.469125
 20
5.555541
 30
0.0
 10
19.348493
 20
6.851054
 30
0.0
 10
18.332995
 20
8.260049
 30
0.0
 10
17.416676
 20
9.790032
 30
0.0
 10
17.175429
 20
10.232418
 30
0.0
 10
16.934182
 20
10.674804
 30
0.0
 10
16.692935
 20
11.117187
 30
0.0
 10
16.451689
 20
11.559574
 30
0.0
 10
16.198013
 20
11.315237
 30
0.0
 10
15.944336
 20
11.070903
 30
0.0
 10
15.690660
 20
10.826566
 30
0.0
 10
15.436984
 20
10.582230
 30
0.0
 10
14.116338
 20
9.412616
 30
0.0
 10
12.957412
 20
8.640738
 30
0.0
 10
11.831103
 20
8.197932
 30
0.0
 10
10.608311
 20
8.015644
 30
0.0
 10
9.874231
 20
7.984995
 30
0.0
 10
9.375228
 20
8.025691
 30
0.0
 10
8.904139
 20
8.179192
 30
0.0
 10
8.253803
 20
8.486984
 30
0.0
 10
6.286822
 20
9.905661
 30
0.0
 10
4.340822
 20
12.109145
 30
0.0
 10
2.598398
 20
14.852537
 30
0.0
 10
1.242142
 20
17.890927
 30
0.0
 10
0.480484
 20
20.607542
 30
0.0
 10
0.141499
 20
23.172770
 30
0.0
 10
0.234575
 20
25.403522
 30
0.0
 10
0.769100
 20
27.116718
 30
0.0
 10
0.993991
 20
27.465627
 30
0.0
 10
1.289146
 20
27.813268
 30
0.0
 10
1.657960
 20
28.163212
 30
0.0
 10
2.103833
 20
28.519027
 30
0.0
 10
2.864768
 20
29.124721
 30
0.0
 10
3.190940
 20
29.649346
 30
0.0
 10
3.146276
 20
30.377361
 30
0.0
 10
2.794706
 20
31.593231
 30
0.0
 10
2.292378
 20
33.362519
 30
0.0
 10
1.979588
 20
34.915771
 30
0.0
 10
1.819688
 20
36.495933
 30
0.0
 10
1.776029
 20
38.345954
 30
0.0
 10
1.824315
 20
40.290459
 30
0.0
 10
1.982249
 20
41.796733
 30
0.0
 10
2.276672
 20
43.027165
 30
0.0
 10
2.734425
 20
44.144136
 30
0.0
 10
3.165977
 20
44.908746
 30
0.0
 10
3.648961
 20
45.482309
 30
0.0
 10
4.280607
 20
45.956197
 30
0.0
 10
5.158147
 20
46.421782
 30
0.0
 10
7.491967
 20
47.243929
 30
0.0
 10
10.218470
 20
47.697616
 30
0.0
 10
13.247566
 20
47.774530
 30
0.0
 10
16.489162
 20
47.466371
 30
0.0
 10
18.102390
 20
47.165511
 30
0.0
 10
19.482305
 20
46.736906
 30
0.0
 10
20.950369
 20
46.055240
 30
0.0
 10
22.828047
 20
44.995191
 30
0.0
 10
23.663630
 20
44.518831
 30
0.0
 10
24.324318
 20
44.178138
 30
0.0
 10
24.809374
 20
43.973465
 30
0.0
 10
25.118051
 20
43.905161
 30
0.0
 10
25.384311
 20
43.954333
 30
0.0
 10
25.781863
 20
44.088541
 30
0.0
 10
26.258401
 20
44.287832
 30
0.0
 10
26.761618
 20
44.532245
 30
0.0
 10
27.905013
 20
45.081272
 30
0.0
 10
28.881236
 20
45.411511
 30
0.0
 10
29.892455
 20
45.572976
 30
0.0
 10
31.140829
 20
45.615685
 30
0.0
 10
32.368572
 20
45.571675
 30
0.0
 10
33.413259
 20
45.430697
 30
0.0
 10
34.342394
 20
45.179333
 30
0.0
 10
35.223486
 20
44.804163
 30
0.0
 10
36.781220
 20
43.838577
 30
0.0
 10
38.251672
 20
42.584088
 30
0.0
 10
39.526706
 20
41.146707
 30
0.0
 10
40.498197
 20
39.632461
 30
0.0
 10
41.432528
 20
37.480765
 30
0.0
 10
42.045540
 20
35.230819
 30
0.0
 10
42.353952
 20
32.797626
 30
0.0
 10
42.374498
 20
30.096192
 30
0.0
 10
42.335850
 20
28.687796
 30
0.0
 10
42.396466
 20
27.911329
 30
0.0
 10
42.600733
 20
27.581405
 30
0.0
 10
42.993036
 20
27.512631
 30
0.0
 10
43.697635
 20
27.787778
 30
0.0
 10
44.965134
 20
28.593135
 30
0.0
 10
46.751942
 20
29.898585
 30
0.0
 10
49.014478
 20
31.674003
 30
0.0
 10
49.359354
 20
31.951521
 30
0.0
 10
49.704232
 20
32.229041
 30
0.0
 10
50.049108
 20
32.506559
 30
0.0
 10
50.393984
 20
32.784079
 30
0.0
 10
50.272219
 20
33.065062
 30
0.0
 10
50.150454
 20
33.346045
 30
0.0
 10
50.028686
 20
33.627029
 30
0.0
 10
49.906922
 20
33.908012
 30
0.0
 10
49.355445
 20
35.340411
 30
0.0
 10
49.011462
 20
36.702272
 30
0.0
 10
48.833619
 20
38.221937
 30
0.0
 10
48.780567
 20
40.127752
 30
0.0
 10
48.822934
 20
42.012853
 30
0.0
 10
48.973364
 20
43.491618
 30
0.0
 10
49.253778
 20
44.700799
 30
0.0
 10
49.686094
 20
45.777155
 30
0.0
 10
50.137655
 20
46.536957
 30
0.0
 10
50.822815
 20
46.934343
 30
0.0
 10
52.172994
 20
47.085617
 30
0.0
 10
54.619621
 20
47.107066
 30
0.0
 10
57.159528
 20
47.060442
 30
0.0
 10
59.178500
 20
46.904656
 30
0.0
 10
60.984917
 20
46.602819
 30
0.0
 10
62.887157
 20
46.118038
 30
0.0
 10
64.232897
 20
45.642033
 30
0.0
 10
65.714623
 20
44.973590
 30
0.0
 10
67.136783
 20
44.209199
 30
0.0
 10
68.303820
 20
43.445354
 30
0.0
 10
69.416704
 20
42.533036
 30
0.0
 10
70.604882
 20
41.435457
 30
0.0
 10
71.698123
 20
40.317905
 30
0.0
 10
72.526195
 20
39.345667
 30
0.0
 10
73.529252
 20
37.795270
 30
0.0
 10
74.224038
 20
36.249011
 30
0.0
 10
74.566500
 20
34.832702
 30
0.0
 10
74.512590
 20
33.672153
 30
0.0
 10
73.755876
 20
32.423430
 30
0.0
 10
72.210650
 20
31.093096
 30
0.0
 10
70.014750
 20
29.778596
 30
0.0
 10
67.306015
 20
28.577376
 30
0.0
 10
66.914019
 20
28.428044
 30
0.0
 10
66.522024
 20
28.278709
 30
0.0
 10
66.130029
 20
28.129377
 30
0.0
 10
65.738033
 20
27.980041
 30
0.0
 10
65.647285
 20
27.643387
 30
0.0
 10
65.556536
 20
27.306733
 30
0.0
 10
65.465785
 20
26.970075
 30
0.0
 10
65.375036
 20
26.633421
 30
0.0
 10
64.698933
 20
24.579865
 30
0.0
 10
63.665602
 20
22.141174
 30
0.0
 10
62.244924
 20
19.251964
 30
0.0
 10
60.406779
 20
15.846854
 30
0.0
 10
57.732453
 20
11.539175
 30
0.0
 10
54.976807
 20
8.114814
 30
0.0
 10
52.010462
 20
5.435735
 30
0.0
 10
48.704054
 20
3.363998
 30
0.0
 10
46.865836
 20
2.483324
 30
0.0
 10
45.066528
 20
1.780845
 30
0.0
 10
43.090372
 20
1.182223
 30
0.0
 10
40.721604
 20
0.613122
 30
0.0
 10
39.706256
 20
0.414522
 30
0.0
 10
38.637980
 20
0.299375
 30
0.0
 10
37.061351
 20
0.237117
 30
0.0
 10
34.520951
 20
0.197239
 30
0.0
 10
33.380601
 20
0.183410
 30
0.0
 10
32.240251
 20
0.169299
 30
0.0
 10
31.099901
 20
0.155188
 30
0.0
 10
29.959551
 20
0.141359
 30
0.0
 10
29.566562
 20
0.244116
 30
0.0
 10
29.173573
 20
0.346873
 30
0.0
 10
28.780582
 20
0.449659
 30
0.0
 10
28.387587
 20
0.552390
 30
0.0
  0
ENDSEC
  0
SECTION
  2
OBJECTS
  0
DICTIONARY
  5
C
330
0
100
AcDbDictionary
  3
ACAD_GROUP
350
D
  3
ACAD_MLINESTYLE
350
17
  0
DICTIONARY
  5
D
330
C
100
AcDbDictionary
  0
DICTIONARY
  5
1A
330
C
100
AcDbDictionary
  0
DICTIONARY
  5
17
330
C
100
AcDbDictionary
  3
STANDARD
350
18
  0
DICTIONARY
  5
19
330
C
100
AcDbDictionary
  0
ENDSEC
  0
EOF
