<?xml version="1.0" standalone="no"?>
<!DOCTYPE svg PUBLIC "-//W3C//DTD SVG 1.1//EN" "http://www.w3.org/Graphics/SVG/1.1/DTD/svg11.dtd">
<svg width="392" height="306" viewBox="0 -306 392 306" xmlns="http://www.w3.org/2000/svg" version="1.1">
<title>OpenSCAD Model</title>
<path d="
M 310.072,-250 L 318.4,-250 L 318.4,-247 L 373.6,-247 L 373.6,-250 L 381.928,-250
 L 381.928,-247 L 385.928,-247 L 385.928,-250 L 392,-250 L 392,-303 L 385.928,-303
 L 385.928,-306 L 381.928,-306 L 381.928,-303 L 310.072,-303 L 310.072,-306 L 306.072,-306
 L 306.072,-303 L 300,-303 L 300,-250 L 306.072,-250 L 306.072,-247 L 310.072,-247
 z
M 94,-256 L 0,-256 L 0,-252 L 94,-252 z
M 94,-244 L 0,-244 L 0,-240 L 94,-240 z
M 94,-232 L 0,-232 L 0,-228 L 94,-228 z
M 392,-214.25 L 389,-214.25 L 389,-214 L 386.5,-214 L 386.5,-214.25 L 384,-214.25
 L 384,-215.75 L 386.5,-215.75 L 386.5,-216 L 389,-216 L 389,-215.75 L 392,-215.75
 L 392,-218 L 388,-218 L 388,-221 L 304,-221 L 304,-218 L 300,-218
 L 300,-215.75 L 303,-215.75 L 303,-216 L 305.5,-216 L 305.5,-215.75 L 308,-215.75
 L 308,-214.25 L 305.5,-214.25 L 305.5,-214 L 303,-214 L 303,-214.25 L 300,-214.25
 L 300,-200 L 392,-200 z
M 94,-220 L 0,-220 L 0,-216 L 94,-216 z
M 100,-190 L 0,-190 L 0,-160 L 100,-160 z
M 5.4216,-174.254 L 5.26823,-174.287 L 5.125,-174.35 L 4.99814,-174.443 L 4.89323,-174.559 L 4.81483,-174.695
 L 4.76639,-174.844 L 4.75,-175 L 4.76639,-175.156 L 4.81483,-175.305 L 4.89323,-175.441 L 4.99814,-175.557
 L 5.125,-175.65 L 5.26823,-175.713 L 5.4216,-175.746 L 5.57838,-175.746 L 5.73175,-175.713 L 5.875,-175.65
 L 6.00185,-175.557 L 6.10675,-175.441 L 6.18515,-175.305 L 6.2336,-175.156 L 6.25,-175 L 6.2336,-174.844
 L 6.18515,-174.695 L 6.10675,-174.559 L 6.00185,-174.443 L 5.875,-174.35 L 5.73175,-174.287 L 5.57838,-174.254
 z
M 38.4216,-174.254 L 38.2682,-174.287 L 38.125,-174.35 L 37.9981,-174.443 L 37.8932,-174.559 L 37.8148,-174.695
 L 37.7664,-174.844 L 37.75,-175 L 37.7664,-175.156 L 37.8148,-175.305 L 37.8932,-175.441 L 37.9981,-175.557
 L 38.125,-175.65 L 38.2682,-175.713 L 38.4216,-175.746 L 38.5784,-175.746 L 38.7318,-175.713 L 38.875,-175.65
 L 39.0018,-175.557 L 39.1068,-175.441 L 39.1852,-175.305 L 39.2336,-175.156 L 39.25,-175 L 39.2336,-174.844
 L 39.1852,-174.695 L 39.1068,-174.559 L 39.0018,-174.443 L 38.875,-174.35 L 38.7318,-174.287 L 38.5784,-174.254
 z
M 94.4216,-174.254 L 94.2682,-174.287 L 94.125,-174.35 L 93.9981,-174.443 L 93.8932,-174.559 L 93.8148,-174.695
 L 93.7664,-174.844 L 93.75,-175 L 93.7664,-175.156 L 93.8148,-175.305 L 93.8932,-175.441 L 93.9981,-175.557
 L 94.125,-175.65 L 94.2682,-175.713 L 94.4216,-175.746 L 94.5784,-175.746 L 94.7318,-175.713 L 94.875,-175.65
 L 95.0018,-175.557 L 95.1068,-175.441 L 95.1852,-175.305 L 95.2336,-175.156 L 95.25,-175 L 95.2336,-174.844
 L 95.1852,-174.695 L 95.1068,-174.559 L 95.0018,-174.443 L 94.875,-174.35 L 94.7318,-174.287 L 94.5784,-174.254
 z
M 392,-164.25 L 389,-164.25 L 389,-164 L 386.5,-164 L 386.5,-164.25 L 384,-164.25
 L 384,-165.75 L 386.5,-165.75 L 386.5,-166 L 389,-166 L 389,-165.75 L 392,-165.75
 L 392,-168 L 388,-168 L 388,-171 L 392,-171 L 392,-177 L 300,-177
 L 300,-171 L 304,-171 L 304,-168 L 300,-168 L 300,-165.75 L 303,-165.75
 L 303,-166 L 305.5,-166 L 305.5,-165.75 L 308,-165.75 L 308,-164.25 L 305.5,-164.25
 L 305.5,-164 L 303,-164 L 303,-164.25 L 300,-164.25 L 300,-150 L 392,-150
 z
M 318.4,-160 L 318.4,-172 L 373.6,-172 L 373.6,-160 z
M 381.928,-157.5 L 381.928,-160.5 L 385.928,-160.5 L 385.928,-157.5 z
M 306.072,-157.5 L 306.072,-160.5 L 310.072,-160.5 L 310.072,-157.5 z
M 100,-130 L 0,-130 L 0,-100 L 100,-100 z
M 94.4216,-114.254 L 94.2682,-114.287 L 94.125,-114.35 L 93.9981,-114.443 L 93.8932,-114.559 L 93.8148,-114.695
 L 93.7664,-114.844 L 93.75,-115 L 93.7664,-115.156 L 93.8148,-115.305 L 93.8932,-115.441 L 93.9981,-115.557
 L 94.125,-115.65 L 94.2682,-115.713 L 94.4216,-115.746 L 94.5784,-115.746 L 94.7318,-115.713 L 94.875,-115.65
 L 95.0018,-115.557 L 95.1068,-115.441 L 95.1852,-115.305 L 95.2336,-115.156 L 95.25,-115 L 95.2336,-114.844
 L 95.1852,-114.695 L 95.1068,-114.559 L 95.0018,-114.443 L 94.875,-114.35 L 94.7318,-114.287 L 94.5784,-114.254
 z
M 38.4216,-114.254 L 38.2682,-114.287 L 38.125,-114.35 L 37.9981,-114.443 L 37.8932,-114.559 L 37.8148,-114.695
 L 37.7664,-114.844 L 37.75,-115 L 37.7664,-115.156 L 37.8148,-115.305 L 37.8932,-115.441 L 37.9981,-115.557
 L 38.125,-115.65 L 38.2682,-115.713 L 38.4216,-115.746 L 38.5784,-115.746 L 38.7318,-115.713 L 38.875,-115.65
 L 39.0018,-115.557 L 39.1068,-115.441 L 39.1852,-115.305 L 39.2336,-115.156 L 39.25,-115 L 39.2336,-114.844
 L 39.1852,-114.695 L 39.1068,-114.559 L 39.0018,-114.443 L 38.875,-114.35 L 38.7318,-114.287 L 38.5784,-114.254
 z
M 5.4216,-114.254 L 5.26823,-114.287 L 5.125,-114.35 L 4.99814,-114.443 L 4.89323,-114.559 L 4.81483,-114.695
 L 4.76639,-114.844 L 4.75,-115 L 4.76639,-115.156 L 4.81483,-115.305 L 4.89323,-115.441 L 4.99814,-115.557
 L 5.125,-115.65 L 5.26823,-115.713 L 5.4216,-115.746 L 5.57838,-115.746 L 5.73175,-115.713 L 5.875,-115.65
 L 6.00185,-115.557 L 6.10675,-115.441 L 6.18515,-115.305 L 6.2336,-115.156 L 6.25,-115 L 6.2336,-114.844
 L 6.18515,-114.695 L 6.10675,-114.559 L 6.00185,-114.443 L 5.875,-114.35 L 5.73175,-114.287 L 5.57838,-114.254
 z
M 318.4,-115 L 373.6,-115 L 373.6,-100 L 392,-100 L 392,-114.25 L 389,-114.25
 L 389,-114 L 386.5,-114 L 386.5,-114.25 L 384,-114.25 L 384,-115.75 L 386.5,-115.75
 L 386.5,-116 L 389,-116 L 389,-115.75 L 392,-115.75 L 392,-118 L 388,-118
 L 388,-121 L 392,-121 L 392,-127 L 300,-127 L 300,-121 L 304,-121
 L 304,-118 L 300,-118 L 300,-115.75 L 303,-115.75 L 303,-116 L 305.5,-116
 L 305.5,-115.75 L 308,-115.75 L 308,-114.25 L 305.5,-114.25 L 305.5,-114 L 303,-114
 L 303,-114.25 L 300,-114.25 L 300,-100 L 318.4,-100 z
M 318.4,-121 L 318.4,-124 L 373.6,-124 L 373.6,-121 z
M 381.928,-107.5 L 381.928,-110.5 L 385.928,-110.5 L 385.928,-107.5 z
M 306.072,-107.5 L 306.072,-110.5 L 310.072,-110.5 L 310.072,-107.5 z
M 392,-74 L 300,-74 L 300,-50 L 392,-50 z
M 323.582,-55.6219 L 322.764,-55.7958 L 322,-56.1359 L 321.323,-56.6274 L 320.764,-57.2489 L 320.346,-57.9731
 L 320.087,-58.7683 L 320,-59.6 L 320.087,-60.4316 L 320.346,-61.2269 L 320.764,-61.9511 L 321.323,-62.5726
 L 322,-63.0641 L 322.764,-63.4042 L 323.582,-63.5781 L 324.418,-63.5781 L 325.236,-63.4042 L 326,-63.0641
 L 326.677,-62.5726 L 327.236,-61.9511 L 327.654,-61.2269 L 327.913,-60.4316 L 328,-59.6 L 327.913,-58.7683
 L 327.654,-57.9731 L 327.236,-57.2489 L 326.677,-56.6274 L 326,-56.1359 L 325.236,-55.7958 L 324.418,-55.6219
 z
M 355.686,-56.6164 L 355.073,-56.7468 L 354.5,-57.0019 L 353.993,-57.3706 L 353.573,-57.8366 L 353.259,-58.3798
 L 353.066,-58.9763 L 353,-59.6 L 353.066,-60.2237 L 353.259,-60.8202 L 353.573,-61.3633 L 353.993,-61.8294
 L 354.5,-62.1981 L 355.073,-62.4532 L 355.686,-62.5836 L 356.314,-62.5836 L 356.927,-62.4532 L 357.5,-62.1981
 L 358.007,-61.8294 L 358.427,-61.3633 L 358.741,-60.8202 L 358.934,-60.2237 L 359,-59.6 L 358.934,-58.9763
 L 358.741,-58.3798 L 358.427,-57.8366 L 358.007,-57.3706 L 357.5,-57.0019 L 356.927,-56.7468 L 356.314,-56.6164
 z
M 367.686,-56.6164 L 367.073,-56.7468 L 366.5,-57.0019 L 365.993,-57.3706 L 365.573,-57.8366 L 365.259,-58.3798
 L 365.066,-58.9763 L 365,-59.6 L 365.066,-60.2237 L 365.259,-60.8202 L 365.573,-61.3633 L 365.993,-61.8294
 L 366.5,-62.1981 L 367.073,-62.4532 L 367.686,-62.5836 L 368.314,-62.5836 L 368.927,-62.4532 L 369.5,-62.1981
 L 370.007,-61.8294 L 370.427,-61.3633 L 370.741,-60.8202 L 370.934,-60.2237 L 371,-59.6 L 370.934,-58.9763
 L 370.741,-58.3798 L 370.427,-57.8366 L 370.007,-57.3706 L 369.5,-57.0019 L 368.927,-56.7468 L 368.314,-56.6164
 z
M 234,-58 L 150,-58 L 150,-0 L 234,-0 z
M 182.888,-5.05273 L 181.15,-5.61816 L 179.531,-6.40039 L 177.919,-7.46094 L 176.201,-8.86621 L 174.969,-10.0557
 L 173.849,-11.3506 L 172.833,-12.7598 L 171.917,-14.29 L 170.952,-16.0596 L 169.937,-15.082 L 168.616,-13.9131
 L 167.457,-13.1406 L 166.331,-12.6982 L 165.108,-12.5156 L 164.374,-12.4854 L 163.875,-12.5254 L 163.404,-12.6787
 L 162.754,-12.9873 L 160.787,-14.4053 L 158.841,-16.6094 L 157.099,-19.3525 L 155.742,-22.3906 L 154.98,-25.1074
 L 154.642,-27.6729 L 154.734,-29.9033 L 155.27,-31.6172 L 155.494,-31.9658 L 155.789,-32.3135 L 156.158,-32.6631
 L 157.365,-33.625 L 157.691,-34.1494 L 157.646,-34.877 L 157.295,-36.0928 L 156.792,-37.8623 L 156.479,-39.416
 L 156.319,-40.9961 L 156.276,-42.8457 L 156.324,-44.79 L 156.482,-46.2969 L 156.776,-47.5273 L 157.234,-48.6445
 L 157.666,-49.4092 L 158.149,-49.9824 L 158.78,-50.4561 L 159.658,-50.9219 L 161.992,-51.7441 L 164.719,-52.1973
 L 167.748,-52.2744 L 170.989,-51.9668 L 172.603,-51.665 L 173.982,-51.2373 L 175.45,-50.5557 L 177.328,-49.4951
 L 178.164,-49.0186 L 178.824,-48.6777 L 179.31,-48.4736 L 179.618,-48.4053 L 179.885,-48.4541 L 180.282,-48.5889
 L 180.759,-48.7881 L 181.262,-49.0322 L 182.405,-49.5811 L 183.381,-49.9111 L 184.393,-50.0732 L 185.641,-50.1152
 L 186.868,-50.0713 L 187.913,-49.9307 L 188.843,-49.6797 L 189.724,-49.3037 L 191.281,-48.3389 L 192.752,-47.084
 L 194.026,-45.6465 L 194.998,-44.1328 L 195.933,-41.9805 L 196.546,-39.7305 L 196.854,-37.2979 L 196.874,-34.5967
 L 196.836,-33.1875 L 196.896,-32.4111 L 197.101,-32.0811 L 197.493,-32.0127 L 198.197,-32.2881 L 199.465,-33.0928
 L 201.252,-34.3984 L 203.515,-36.1738 L 204.894,-37.2842 L 204.407,-38.4082 L 203.855,-39.8408 L 203.512,-41.2021
 L 203.334,-42.7217 L 203.28,-44.6279 L 203.323,-46.5127 L 203.474,-47.9912 L 203.754,-49.2012 L 204.187,-50.2773
 L 204.638,-51.0371 L 205.323,-51.4346 L 206.673,-51.5859 L 209.119,-51.6074 L 211.659,-51.5605 L 213.679,-51.4043
 L 215.485,-51.1025 L 217.387,-50.6182 L 218.732,-50.1416 L 220.215,-49.4736 L 221.637,-48.709 L 222.804,-47.9453
 L 223.917,-47.0332 L 225.104,-45.9355 L 226.198,-44.8184 L 227.026,-43.8457 L 228.029,-42.2949 L 228.724,-40.749
 L 229.066,-39.333 L 229.013,-38.1719 L 228.256,-36.9238 L 226.711,-35.5928 L 224.515,-34.2783 L 221.806,-33.0771
 L 220.238,-32.4805 L 219.875,-31.1338 L 219.199,-29.0801 L 218.166,-26.6416 L 216.745,-23.752 L 214.907,-20.3467
 L 212.232,-16.0391 L 209.477,-12.6152 L 206.511,-9.93555 L 203.204,-7.86426 L 201.366,-6.9834 L 199.566,-6.28125
 L 197.591,-5.68262 L 195.222,-5.11328 L 194.206,-4.91406 L 193.138,-4.7998 L 191.562,-4.7373 L 189.021,-4.69727
 L 184.46,-4.6416 z
M 92,-35 L 73.6,-35 L 73.6,-38 L 18.4,-38 L 18.4,-35 L 0,-35
 L 0,-0 L 92,-0 z
M 89.8955,-27.5055 L 89.691,-27.5489 L 89.5,-27.634 L 89.3309,-27.7569 L 89.191,-27.9122 L 89.0864,-28.0933
 L 89.0219,-28.2921 L 89,-28.5 L 89.0219,-28.7079 L 89.0864,-28.9067 L 89.191,-29.0878 L 89.3309,-29.2431
 L 89.5,-29.366 L 89.691,-29.451 L 89.8955,-29.4945 L 90.1045,-29.4945 L 90.309,-29.451 L 90.5,-29.366
 L 90.6691,-29.2431 L 90.809,-29.0878 L 90.9135,-28.9067 L 90.9781,-28.7079 L 91,-28.5 L 90.9781,-28.2921
 L 90.9135,-28.0933 L 90.809,-27.9122 L 90.6691,-27.7569 L 90.5,-27.634 L 90.309,-27.5489 L 90.1045,-27.5055
 z
M 1.89546,-27.5055 L 1.69098,-27.5489 L 1.49998,-27.634 L 1.33086,-27.7569 L 1.19098,-27.9122 L 1.08644,-28.0933
 L 1.02185,-28.2921 L 1,-28.5 L 1.02185,-28.7079 L 1.08644,-28.9067 L 1.19098,-29.0878 L 1.33086,-29.2431
 L 1.5,-29.366 L 1.69098,-29.451 L 1.89546,-29.4945 L 2.10452,-29.4945 L 2.30901,-29.451 L 2.5,-29.366
 L 2.66913,-29.2431 L 2.80901,-29.0878 L 2.91354,-28.9067 L 2.97813,-28.7079 L 3,-28.5 L 2.97813,-28.2921
 L 2.91354,-28.0933 L 2.80901,-27.9122 L 2.66913,-27.7569 L 2.5,-27.634 L 2.30901,-27.5489 L 2.10452,-27.5055
 z
M 89.8955,-4.70547 L 89.691,-4.74893 L 89.5,-4.83397 L 89.3309,-4.95685 L 89.191,-5.11221 L 89.0864,-5.29326
 L 89.0219,-5.49208 L 89,-5.7 L 89.0219,-5.9079 L 89.0864,-6.10674 L 89.191,-6.28778 L 89.3309,-6.44313
 L 89.5,-6.56602 L 89.691,-6.65105 L 89.8955,-6.69452 L 90.1045,-6.69452 L 90.309,-6.65105 L 90.5,-6.56602
 L 90.6691,-6.44313 L 90.809,-6.28778 L 90.9135,-6.10674 L 90.9781,-5.9079 L 91,-5.7 L 90.9781,-5.49208
 L 90.9135,-5.29326 L 90.809,-5.11221 L 90.6691,-4.95685 L 90.5,-4.83397 L 90.309,-4.74893 L 90.1045,-4.70547
 z
M 1.89546,-4.70547 L 1.69098,-4.74893 L 1.49998,-4.83397 L 1.33086,-4.95685 L 1.19098,-5.11221 L 1.08644,-5.29326
 L 1.02185,-5.49208 L 1,-5.7 L 1.02185,-5.9079 L 1.08644,-6.10674 L 1.19098,-6.28778 L 1.33086,-6.44313
 L 1.5,-6.56602 L 1.69098,-6.65105 L 1.89546,-6.69452 L 2.10452,-6.69452 L 2.30901,-6.65105 L 2.5,-6.56602
 L 2.66913,-6.44313 L 2.80901,-6.28778 L 2.91354,-6.10674 L 2.97813,-5.9079 L 3,-5.7 L 2.97813,-5.49208
 L 2.91354,-5.29326 L 2.80901,-5.11221 L 2.66913,-4.95685 L 2.5,-4.83397 L 2.30901,-4.74893 L 2.10452,-4.70547
 z
M 392,-25.5 L 300,-25.5 L 300,-0 L 392,-0 z
" stroke="black" fill="lightgray" stroke-width="0.5"/></svg>
