solid OpenSCAD_Model
  facet normal 0 0 -1
    outer loop
      vertex 5.64453 46.1104 1.6
      vertex 21.6387 48.3291 1.6
      vertex 21.5938 46.1104 1.6
    endloop
  endfacet
  facet normal -0 0 -1
    outer loop
      vertex 21.6387 48.3291 1.6
      vertex 5.64453 46.1104 1.6
      vertex 18.7197 58.5566 1.6
    endloop
  endfacet
  facet normal 0 0 -1
    outer loop
      vertex 0.716797 58.5439 1.6
      vertex 18.7197 58.5566 1.6
      vertex 5.64453 46.1104 1.6
    endloop
  endfacet
  facet normal 0 -0 -1
    outer loop
      vertex 4.44531 63.8818 1.6
      vertex 18.7197 58.5566 1.6
      vertex 0.716797 58.5439 1.6
    endloop
  endfacet
  facet normal 0 0 -1
    outer loop
      vertex 36.8477 5.44238 1.6
      vertex 44.9727 0.0499992 1.6
      vertex 44.9727 0.0498047 1.6
    endloop
  endfacet
  facet normal 0 0 -1
    outer loop
      vertex 44.9727 0.0499992 1.6
      vertex 36.8477 5.44238 1.6
      vertex 44.9727 10.05 1.6
    endloop
  endfacet
  facet normal 0 0 -1
    outer loop
      vertex 36.8477 11.8311 1.6
      vertex 44.9727 10.05 1.6
      vertex 36.8477 5.44238 1.6
    endloop
  endfacet
  facet normal 0 0 -1
    outer loop
      vertex 4.44434 0.0498047 1.6
      vertex 36.8477 5.44238 1.6
      vertex 44.9727 0.0498047 1.6
    endloop
  endfacet
  facet normal 0 0 -1
    outer loop
      vertex 0.848633 41.9316 1.6
      vertex 5.64453 46.1104 1.6
      vertex 5.64453 8.87012 1.6
    endloop
  endfacet
  facet normal -0 0 -1
    outer loop
      vertex 36.8477 5.44238 1.6
      vertex 4.44434 0.0498047 1.6
      vertex 9.07129 5.44238 1.6
    endloop
  endfacet
  facet normal 0 0 -1
    outer loop
      vertex 0.848633 3.82031 1.6
      vertex 9.07129 5.44238 1.6
      vertex 4.44434 0.0498047 1.6
    endloop
  endfacet
  facet normal -0 0 -1
    outer loop
      vertex 9.07129 5.44238 1.6
      vertex 0.848633 3.82031 1.6
      vertex 5.64453 8.87012 1.6
    endloop
  endfacet
  facet normal 0 0 -1
    outer loop
      vertex 1.87598 1.18555 1.6
      vertex 4.44434 0.0498047 1.6
      vertex 3.69824 0.129883 1.6
    endloop
  endfacet
  facet normal 0 0 -1
    outer loop
      vertex 0.0771484 42.9482 1.6
      vertex 5.64453 46.1104 1.6
      vertex 0.848633 41.9316 1.6
    endloop
  endfacet
  facet normal 0 0 -1
    outer loop
      vertex 2.40332 0.71582 1.6
      vertex 3.69824 0.129883 1.6
      vertex 3.01367 0.357422 1.6
    endloop
  endfacet
  facet normal 0 0 -1
    outer loop
      vertex 18.7197 58.5566 1.6
      vertex 4.44531 63.8818 1.6
      vertex 15.5146 63.8818 1.6
    endloop
  endfacet
  facet normal 0 0 -1
    outer loop
      vertex 1.87598 1.18555 1.6
      vertex 3.69824 0.129883 1.6
      vertex 2.40332 0.71582 1.6
    endloop
  endfacet
  facet normal 0 0 -1
    outer loop
      vertex 0.716797 60.0439 1.6
      vertex 4.44531 63.8818 1.6
      vertex 0.716797 58.5439 1.6
    endloop
  endfacet
  facet normal 0 0 -1
    outer loop
      vertex 4.44434 0.0498047 1.6
      vertex 1.87598 1.18555 1.6
      vertex 1.44629 1.74805 1.6
    endloop
  endfacet
  facet normal 0 0 -1
    outer loop
      vertex 4.44531 63.8818 1.6
      vertex 0.716797 60.0439 1.6
      vertex 3.68457 63.8018 1.6
    endloop
  endfacet
  facet normal 0 0 -1
    outer loop
      vertex 4.44434 0.0498047 1.6
      vertex 1.44629 1.74805 1.6
      vertex 1.12402 2.3877 1.6
    endloop
  endfacet
  facet normal 0 0 -1
    outer loop
      vertex 3.68457 63.8018 1.6
      vertex 0.716797 60.0439 1.6
      vertex 2.98047 63.5723 1.6
    endloop
  endfacet
  facet normal 0 0 -1
    outer loop
      vertex 4.44434 0.0498047 1.6
      vertex 1.12402 2.3877 1.6
      vertex 0.848633 3.82031 1.6
    endloop
  endfacet
  facet normal 0 0 -1
    outer loop
      vertex 2.98047 63.5723 1.6
      vertex 0.716797 60.0439 1.6
      vertex 2.34668 63.2109 1.6
    endloop
  endfacet
  facet normal 0 0 -1
    outer loop
      vertex 0.848633 3.82031 1.6
      vertex 1.12402 2.3877 1.6
      vertex 0.920898 3.08398 1.6
    endloop
  endfacet
  facet normal -0 0 -1
    outer loop
      vertex 5.64453 8.87012 1.6
      vertex 0.848633 3.82031 1.6
      vertex 0.848633 41.9316 1.6
    endloop
  endfacet
  facet normal 0 0 -1
    outer loop
      vertex 2.34668 63.2109 1.6
      vertex 0.716797 60.0439 1.6
      vertex 1.79688 62.7363 1.6
    endloop
  endfacet
  facet normal 0 0 -1
    outer loop
      vertex 1.79688 62.7363 1.6
      vertex 0.716797 60.0439 1.6
      vertex 1.34473 62.1641 1.6
    endloop
  endfacet
  facet normal 0 0 -1
    outer loop
      vertex 1.34473 62.1641 1.6
      vertex 0.716797 60.0439 1.6
      vertex 1.00488 61.5127 1.6
    endloop
  endfacet
  facet normal 0 0 -1
    outer loop
      vertex 0.0498047 57.667 1.6
      vertex 5.64453 46.1104 1.6
      vertex 0.0771484 42.9482 1.6
    endloop
  endfacet
  facet normal 0 0 -1
    outer loop
      vertex 5.64453 46.1104 1.6
      vertex 0.0498047 57.667 1.6
      vertex 0.716797 58.5439 1.6
    endloop
  endfacet
  facet normal 0 0 -1
    outer loop
      vertex 44.9727 0.0499992 1.6
      vertex 54.167 10.05 1.6
      vertex 54.167 0.0499992 1.6
    endloop
  endfacet
  facet normal -0 0 -1
    outer loop
      vertex 54.167 10.05 1.6
      vertex 44.9727 0.0499992 1.6
      vertex 44.9727 10.05 1.6
    endloop
  endfacet
  facet normal 0 0 -1
    outer loop
      vertex 93.9395 8.125 1.6
      vertex 98.3701 41.9736 1.6
      vertex 98.3701 3.82422 1.6
    endloop
  endfacet
  facet normal 0 0 -1
    outer loop
      vertex 94.6582 0.0498047 1.6
      vertex 98.3701 3.82422 1.6
      vertex 98.2949 3.07227 1.6
    endloop
  endfacet
  facet normal 0 0 -1
    outer loop
      vertex 98.3701 41.9736 1.6
      vertex 93.9395 45.8076 1.6
      vertex 98.3213 60.7979 1.6
    endloop
  endfacet
  facet normal 0 0 -1
    outer loop
      vertex 94.6582 0.0498047 1.6
      vertex 98.2949 3.07227 1.6
      vertex 98.0801 2.36816 1.6
    endloop
  endfacet
  facet normal 0 -0 -1
    outer loop
      vertex 94.6582 63.8809 1.6
      vertex 98.3213 60.7979 1.6
      vertex 93.9395 45.8076 1.6
    endloop
  endfacet
  facet normal 0 0 -1
    outer loop
      vertex 94.6582 0.0498047 1.6
      vertex 98.0801 2.36816 1.6
      vertex 97.7393 1.72754 1.6
    endloop
  endfacet
  facet normal 0 0 -1
    outer loop
      vertex 98.3213 60.7979 1.6
      vertex 94.6582 63.8809 1.6
      vertex 98.1084 61.5117 1.6
    endloop
  endfacet
  facet normal 0 0 -1
    outer loop
      vertex 94.6582 0.0498047 1.6
      vertex 97.7393 1.72754 1.6
      vertex 97.2871 1.16699 1.6
    endloop
  endfacet
  facet normal 0 0 -1
    outer loop
      vertex 98.1084 61.5117 1.6
      vertex 94.6582 63.8809 1.6
      vertex 97.7676 62.1641 1.6
    endloop
  endfacet
  facet normal 0 0 -1
    outer loop
      vertex 94.6582 0.0498047 1.6
      vertex 97.2871 1.16699 1.6
      vertex 96.7393 0.702148 1.6
    endloop
  endfacet
  facet normal 0 0 -1
    outer loop
      vertex 97.7676 62.1641 1.6
      vertex 94.6582 63.8809 1.6
      vertex 97.3135 62.7363 1.6
    endloop
  endfacet
  facet normal 0 0 -1
    outer loop
      vertex 94.6582 0.0498047 1.6
      vertex 96.7393 0.702148 1.6
      vertex 96.1084 0.350586 1.6
    endloop
  endfacet
  facet normal 0 0 -1
    outer loop
      vertex 97.3135 62.7363 1.6
      vertex 94.6582 63.8809 1.6
      vertex 96.7617 63.2109 1.6
    endloop
  endfacet
  facet normal 0 0 -1
    outer loop
      vertex 94.6582 0.0498047 1.6
      vertex 96.1084 0.350586 1.6
      vertex 95.4102 0.12793 1.6
    endloop
  endfacet
  facet normal -0 0 -1
    outer loop
      vertex 98.3701 3.82422 1.6
      vertex 94.6582 0.0498047 1.6
      vertex 90.6592 4.84473 1.6
    endloop
  endfacet
  facet normal 0 0 -1
    outer loop
      vertex 96.7617 63.2109 1.6
      vertex 94.6582 63.8809 1.6
      vertex 96.125 63.5723 1.6
    endloop
  endfacet
  facet normal -0 0 -1
    outer loop
      vertex 98.3701 41.9736 1.6
      vertex 93.9395 8.125 1.6
      vertex 93.9395 45.8076 1.6
    endloop
  endfacet
  facet normal 0 0 -1
    outer loop
      vertex 98.3701 3.82422 1.6
      vertex 90.6592 4.84473 1.6
      vertex 93.9395 8.125 1.6
    endloop
  endfacet
  facet normal 0 0 -1
    outer loop
      vertex 94.6582 0.0498047 1.6
      vertex 61.8643 4.84473 1.6
      vertex 90.6592 4.84473 1.6
    endloop
  endfacet
  facet normal 0 0 -1
    outer loop
      vertex 54.167 0.0498047 1.6
      vertex 61.8643 4.84473 1.6
      vertex 94.6582 0.0498047 1.6
    endloop
  endfacet
  facet normal 0 0 -1
    outer loop
      vertex 54.167 0.0499992 1.6
      vertex 61.8643 4.84473 1.6
      vertex 54.167 0.0498047 1.6
    endloop
  endfacet
  facet normal 0 0 -1
    outer loop
      vertex 54.167 10.05 1.6
      vertex 61.8643 4.84473 1.6
      vertex 54.167 0.0499992 1.6
    endloop
  endfacet
  facet normal 0 0 -1
    outer loop
      vertex 61.8643 4.84473 1.6
      vertex 54.167 10.05 1.6
      vertex 61.8643 11.5459 1.6
    endloop
  endfacet
  facet normal -0 0 -1
    outer loop
      vertex 61.8643 11.5459 1.6
      vertex 54.167 10.05 1.6
      vertex 54.167 11.5459 1.6
    endloop
  endfacet
  facet normal 0 0 -1
    outer loop
      vertex 99.0225 42.9912 1.6
      vertex 98.3926 58.541 1.6
      vertex 99.0498 57.6631 1.6
    endloop
  endfacet
  facet normal 0 0 -1
    outer loop
      vertex 98.3701 41.9736 1.6
      vertex 98.3926 58.541 1.6
      vertex 99.0225 42.9912 1.6
    endloop
  endfacet
  facet normal 0 0 -1
    outer loop
      vertex 98.3213 60.7979 1.6
      vertex 98.3926 58.541 1.6
      vertex 98.3701 41.9736 1.6
    endloop
  endfacet
  facet normal 0 0 -1
    outer loop
      vertex 98.3926 58.541 1.6
      vertex 98.3213 60.7979 1.6
      vertex 98.3926 60.0381 1.6
    endloop
  endfacet
  facet normal 0 0 -1
    outer loop
      vertex 96.125 63.5723 1.6
      vertex 94.6582 63.8809 1.6
      vertex 95.4189 63.8008 1.6
    endloop
  endfacet
  facet normal 0 0 -1
    outer loop
      vertex 80.0303 58.5566 1.6
      vertex 94.6582 63.8809 1.6
      vertex 93.9395 45.8076 1.6
    endloop
  endfacet
  facet normal 0 0 -1
    outer loop
      vertex 78.4775 61.2051 1.6
      vertex 83.6934 63.8809 1.6
      vertex 80.0303 58.5566 1.6
    endloop
  endfacet
  facet normal -0 0 -1
    outer loop
      vertex 94.6582 63.8809 1.6
      vertex 80.0303 58.5566 1.6
      vertex 83.6934 63.8809 1.6
    endloop
  endfacet
  facet normal 0 0 -1
    outer loop
      vertex 93.9395 45.8076 1.6
      vertex 77.21 48.4277 1.6
      vertex 80.0303 58.5566 1.6
    endloop
  endfacet
  facet normal 0 -0 -1
    outer loop
      vertex 77.21 48.4277 1.6
      vertex 93.9395 45.8076 1.6
      vertex 77.1719 45.8076 1.6
    endloop
  endfacet
  facet normal -0 0 -1
    outer loop
      vertex 83.6934 63.8809 1.6
      vertex 78.4775 61.2051 1.6
      vertex 83.6934 64.8564 1.6
    endloop
  endfacet
  facet normal 0 0 -1
    outer loop
      vertex 15.5146 64.8564 1.6
      vertex 78.4775 61.2051 1.6
      vertex 20.0762 61.2051 1.6
    endloop
  endfacet
  facet normal 0 0 -1
    outer loop
      vertex 15.5146 63.8818 1.6
      vertex 20.0762 61.2051 1.6
      vertex 18.7197 58.5566 1.6
    endloop
  endfacet
  facet normal 0 0 -1
    outer loop
      vertex 15.5146 64.8564 1.6
      vertex 20.0762 61.2051 1.6
      vertex 15.5146 63.8818 1.6
    endloop
  endfacet
  facet normal 0 0 -1
    outer loop
      vertex 78.4775 61.2051 1.6
      vertex 15.5146 64.8564 1.6
      vertex 83.6934 64.8564 1.6
    endloop
  endfacet
  facet normal 0 0 -1
    outer loop
      vertex 44.9727 10.05 1.6
      vertex 36.8477 11.8311 1.6
      vertex 44.9727 11.8311 1.6
    endloop
  endfacet
  facet normal 0 0 -1
    outer loop
      vertex 1.00488 61.5127 1.6
      vertex 0.716797 60.0439 1.6
      vertex 0.791016 60.8008 1.6
    endloop
  endfacet
  facet normal 0 0 1
    outer loop
      vertex 61.8643 11.5459 11.1
      vertex 54.167 11.5459 11.1
      vertex 61.8643 4.84473 11.1
    endloop
  endfacet
  facet normal 0 0 1
    outer loop
      vertex 83.5 64.8564 11.1
      vertex 80.0303 58.5566 11.1
      vertex 83.5 50 11.1
    endloop
  endfacet
  facet normal 0 0 1
    outer loop
      vertex 83.5 64.8564 11.1
      vertex 78.4775 61.2051 11.1
      vertex 80.0303 58.5566 11.1
    endloop
  endfacet
  facet normal -0 0 1
    outer loop
      vertex 15.5146 64.8564 11.1
      vertex 78.4775 61.2051 11.1
      vertex 83.5 64.8564 11.1
    endloop
  endfacet
  facet normal -0 0 1
    outer loop
      vertex 15.5146 63.8818 11.1
      vertex 20.0762 61.2051 11.1
      vertex 15.5146 64.8564 11.1
    endloop
  endfacet
  facet normal 0 0 1
    outer loop
      vertex 78.4775 61.2051 11.1
      vertex 15.5146 64.8564 11.1
      vertex 20.0762 61.2051 11.1
    endloop
  endfacet
  facet normal 0 0 1
    outer loop
      vertex 96.5 63.3595 11.1
      vertex 98.3926 58.541 11.1
      vertex 98.3926 60.0381 11.1
    endloop
  endfacet
  facet normal 0 0 1
    outer loop
      vertex 96.5 63.3595 11.1
      vertex 98.3926 60.0381 11.1
      vertex 98.3213 60.7979 11.1
    endloop
  endfacet
  facet normal 0 0 1
    outer loop
      vertex 98.3926 58.541 11.1
      vertex 96.5 50 11.1
      vertex 98.3701 41.9736 11.1
    endloop
  endfacet
  facet normal -0 0 1
    outer loop
      vertex 93.9395 45.8076 11.1
      vertex 98.3701 41.9736 11.1
      vertex 96.5 50 11.1
    endloop
  endfacet
  facet normal 0 0 1
    outer loop
      vertex 96.5 63.3595 11.1
      vertex 98.3213 60.7979 11.1
      vertex 98.1084 61.5117 11.1
    endloop
  endfacet
  facet normal 0 0 1
    outer loop
      vertex 93.9395 8.125 11.1
      vertex 98.3701 41.9736 11.1
      vertex 93.9395 45.8076 11.1
    endloop
  endfacet
  facet normal 0 0 1
    outer loop
      vertex 96.5 63.3595 11.1
      vertex 98.1084 61.5117 11.1
      vertex 97.7676 62.1641 11.1
    endloop
  endfacet
  facet normal 0 0 1
    outer loop
      vertex 98.3701 41.9736 11.1
      vertex 93.9395 8.125 11.1
      vertex 98.3701 3.82422 11.1
    endloop
  endfacet
  facet normal 0 0 1
    outer loop
      vertex 96.5 63.3595 11.1
      vertex 97.7676 62.1641 11.1
      vertex 97.3135 62.7363 11.1
    endloop
  endfacet
  facet normal -0 0 1
    outer loop
      vertex 90.6592 4.84473 11.1
      vertex 98.3701 3.82422 11.1
      vertex 93.9395 8.125 11.1
    endloop
  endfacet
  facet normal 0 0 1
    outer loop
      vertex 96.5 63.3595 11.1
      vertex 97.3135 62.7363 11.1
      vertex 96.7617 63.2109 11.1
    endloop
  endfacet
  facet normal 0 0 1
    outer loop
      vertex 98.3701 3.82422 11.1
      vertex 94.6582 0.0498047 11.1
      vertex 98.2949 3.07227 11.1
    endloop
  endfacet
  facet normal 0 0 1
    outer loop
      vertex 98.3926 58.541 11.1
      vertex 96.5 63.3595 11.1
      vertex 96.5 50 11.1
    endloop
  endfacet
  facet normal 0 0 1
    outer loop
      vertex 98.2949 3.07227 11.1
      vertex 94.6582 0.0498047 11.1
      vertex 98.0801 2.36816 11.1
    endloop
  endfacet
  facet normal 0 0 1
    outer loop
      vertex 98.0801 2.36816 11.1
      vertex 94.6582 0.0498047 11.1
      vertex 97.7393 1.72754 11.1
    endloop
  endfacet
  facet normal 0 0 1
    outer loop
      vertex 97.7393 1.72754 11.1
      vertex 94.6582 0.0498047 11.1
      vertex 97.2871 1.16699 11.1
    endloop
  endfacet
  facet normal 0 0 1
    outer loop
      vertex 97.2871 1.16699 11.1
      vertex 94.6582 0.0498047 11.1
      vertex 96.7393 0.702148 11.1
    endloop
  endfacet
  facet normal 0 -0 1
    outer loop
      vertex 94.6582 0.0498047 11.1
      vertex 98.3701 3.82422 11.1
      vertex 90.6592 4.84473 11.1
    endloop
  endfacet
  facet normal -0 0 1
    outer loop
      vertex 83.5 50 11.1
      vertex 93.9395 45.8076 11.1
      vertex 96.5 50 11.1
    endloop
  endfacet
  facet normal 0 0 1
    outer loop
      vertex 77.21 48.4277 11.1
      vertex 83.5 50 11.1
      vertex 80.0303 58.5566 11.1
    endloop
  endfacet
  facet normal 0 0 1
    outer loop
      vertex 77.1719 45.8076 11.1
      vertex 83.5 50 11.1
      vertex 77.21 48.4277 11.1
    endloop
  endfacet
  facet normal 0 0 1
    outer loop
      vertex 83.5 50 11.1
      vertex 77.1719 45.8076 11.1
      vertex 93.9395 45.8076 11.1
    endloop
  endfacet
  facet normal 0 0 1
    outer loop
      vertex 98.3926 58.541 11.1
      vertex 99.0225 42.9912 11.1
      vertex 99.0498 57.6631 11.1
    endloop
  endfacet
  facet normal 0 0 1
    outer loop
      vertex 99.0225 42.9912 11.1
      vertex 98.3926 58.541 11.1
      vertex 98.3701 41.9736 11.1
    endloop
  endfacet
  facet normal 0 0 1
    outer loop
      vertex 96.7393 0.702148 11.1
      vertex 94.6582 0.0498047 11.1
      vertex 96.1084 0.350586 11.1
    endloop
  endfacet
  facet normal 0 0 1
    outer loop
      vertex 96.1084 0.350586 11.1
      vertex 94.6582 0.0498047 11.1
      vertex 95.4102 0.12793 11.1
    endloop
  endfacet
  facet normal -0 0 1
    outer loop
      vertex 61.8643 4.84473 11.1
      vertex 94.6582 0.0498047 11.1
      vertex 90.6592 4.84473 11.1
    endloop
  endfacet
  facet normal 0 0 1
    outer loop
      vertex 61.8643 4.84473 11.1
      vertex 54.167 0.0498047 11.1
      vertex 94.6582 0.0498047 11.1
    endloop
  endfacet
  facet normal 0 0 1
    outer loop
      vertex 54.167 0.0498047 11.1
      vertex 61.8643 4.84473 11.1
      vertex 54.167 11.5459 11.1
    endloop
  endfacet
  facet normal -0 0 1
    outer loop
      vertex 15.5 50 11.1
      vertex 21.6387 48.3291 11.1
      vertex 18.7197 58.5566 11.1
    endloop
  endfacet
  facet normal 0 0 1
    outer loop
      vertex 20.0762 61.2051 11.1
      vertex 15.5146 63.8818 11.1
      vertex 18.7197 58.5566 11.1
    endloop
  endfacet
  facet normal -0 0 1
    outer loop
      vertex 15.5 63.8818 11.1
      vertex 18.7197 58.5566 11.1
      vertex 15.5146 63.8818 11.1
    endloop
  endfacet
  facet normal 0 0 1
    outer loop
      vertex 18.7197 58.5566 11.1
      vertex 15.5 63.8818 11.1
      vertex 15.5 50 11.1
    endloop
  endfacet
  facet normal 0 0 1
    outer loop
      vertex 21.6387 48.3291 11.1
      vertex 15.5 50 11.1
      vertex 21.5938 46.1104 11.1
    endloop
  endfacet
  facet normal 0 0 1
    outer loop
      vertex 15.5 50 11.1
      vertex 5.64453 46.1104 11.1
      vertex 21.5938 46.1104 11.1
    endloop
  endfacet
  facet normal -0 0 1
    outer loop
      vertex 0.848633 41.9316 11.1
      vertex 5.64453 8.87012 11.1
      vertex 5.64453 46.1104 11.1
    endloop
  endfacet
  facet normal 0 0 1
    outer loop
      vertex 5.64453 8.87012 11.1
      vertex 0.848633 3.82031 11.1
      vertex 4.44434 0.0498047 11.1
    endloop
  endfacet
  facet normal -0 -0 1
    outer loop
      vertex 1.12402 2.3877 11.1
      vertex 4.44434 0.0498047 11.1
      vertex 0.848633 3.82031 11.1
    endloop
  endfacet
  facet normal -0 0 1
    outer loop
      vertex 2.5 50 11.1
      vertex 5.64453 46.1104 11.1
      vertex 15.5 50 11.1
    endloop
  endfacet
  facet normal 0 0 1
    outer loop
      vertex 0.0771484 42.9482 11.1
      vertex 5.64453 46.1104 11.1
      vertex 2.5 50 11.1
    endloop
  endfacet
  facet normal 0 0 1
    outer loop
      vertex 5.64453 8.87012 11.1
      vertex 0.848633 41.9316 11.1
      vertex 0.848633 3.82031 11.1
    endloop
  endfacet
  facet normal -0 0 1
    outer loop
      vertex 0.716797 58.5439 11.1
      vertex 2.5 50 11.1
      vertex 2.5 63.2983 11.1
    endloop
  endfacet
  facet normal 0 0 1
    outer loop
      vertex 1.79688 62.7363 11.1
      vertex 2.5 63.2983 11.1
      vertex 2.34668 63.2109 11.1
    endloop
  endfacet
  facet normal -0 -0 1
    outer loop
      vertex 1.44629 1.74805 11.1
      vertex 4.44434 0.0498047 11.1
      vertex 1.12402 2.3877 11.1
    endloop
  endfacet
  facet normal 0 0 1
    outer loop
      vertex 1.34473 62.1641 11.1
      vertex 2.5 63.2983 11.1
      vertex 1.79688 62.7363 11.1
    endloop
  endfacet
  facet normal 0 0 1
    outer loop
      vertex 3.69824 0.129883 11.1
      vertex 2.40332 0.71582 11.1
      vertex 3.01367 0.357422 11.1
    endloop
  endfacet
  facet normal 0 0 1
    outer loop
      vertex 2.5 63.2983 11.1
      vertex 1.34473 62.1641 11.1
      vertex 0.716797 60.0439 11.1
    endloop
  endfacet
  facet normal 0 0 1
    outer loop
      vertex 3.69824 0.129883 11.1
      vertex 1.87598 1.18555 11.1
      vertex 2.40332 0.71582 11.1
    endloop
  endfacet
  facet normal 0 0 1
    outer loop
      vertex 0.716797 60.0439 11.1
      vertex 1.34473 62.1641 11.1
      vertex 1.00488 61.5127 11.1
    endloop
  endfacet
  facet normal 0 0 1
    outer loop
      vertex 4.44434 0.0498047 11.1
      vertex 1.87598 1.18555 11.1
      vertex 3.69824 0.129883 11.1
    endloop
  endfacet
  facet normal -0 -0 1
    outer loop
      vertex 1.87598 1.18555 11.1
      vertex 4.44434 0.0498047 11.1
      vertex 1.44629 1.74805 11.1
    endloop
  endfacet
  facet normal 0 0 1
    outer loop
      vertex 0.716797 60.0439 11.1
      vertex 1.00488 61.5127 11.1
      vertex 0.791016 60.8008 11.1
    endloop
  endfacet
  facet normal 0 0 1
    outer loop
      vertex 2.5 63.2983 11.1
      vertex 0.716797 60.0439 11.1
      vertex 0.716797 58.5439 11.1
    endloop
  endfacet
  facet normal -0 0 1
    outer loop
      vertex 0.0498047 57.667 11.1
      vertex 2.5 50 11.1
      vertex 0.716797 58.5439 11.1
    endloop
  endfacet
  facet normal 0 0 1
    outer loop
      vertex 5.64453 46.1104 11.1
      vertex 0.0771484 42.9482 11.1
      vertex 0.848633 41.9316 11.1
    endloop
  endfacet
  facet normal 0 0 1
    outer loop
      vertex 2.5 50 11.1
      vertex 0.0498047 57.667 11.1
      vertex 0.0771484 42.9482 11.1
    endloop
  endfacet
  facet normal 0 0 1
    outer loop
      vertex 36.8477 5.44238 11.1
      vertex 44.9727 11.8311 11.1
      vertex 36.8477 11.8311 11.1
    endloop
  endfacet
  facet normal 0 0 1
    outer loop
      vertex 44.9727 11.8311 11.1
      vertex 36.8477 5.44238 11.1
      vertex 44.9727 0.0498047 11.1
    endloop
  endfacet
  facet normal 0 0 1
    outer loop
      vertex 4.44434 0.0498047 11.1
      vertex 36.8477 5.44238 11.1
      vertex 9.07129 5.44238 11.1
    endloop
  endfacet
  facet normal 0 0 1
    outer loop
      vertex 36.8477 5.44238 11.1
      vertex 4.44434 0.0498047 11.1
      vertex 44.9727 0.0498047 11.1
    endloop
  endfacet
  facet normal 0 0 1
    outer loop
      vertex 4.44434 0.0498047 11.1
      vertex 9.07129 5.44238 11.1
      vertex 5.64453 8.87012 11.1
    endloop
  endfacet
  facet normal 0 0 1
    outer loop
      vertex 1.12402 2.3877 11.1
      vertex 0.848633 3.82031 11.1
      vertex 0.920898 3.08398 11.1
    endloop
  endfacet
  facet normal 0.303809 -0.952733 0
    outer loop
      vertex 95.4102 0.12793 1.6
      vertex 96.1084 0.350586 11.1
      vertex 95.4102 0.12793 11.1
    endloop
  endfacet
  facet normal 0.303809 -0.952733 0
    outer loop
      vertex 96.1084 0.350586 11.1
      vertex 95.4102 0.12793 1.6
      vertex 96.1084 0.350586 1.6
    endloop
  endfacet
  facet normal 0.486791 -0.873519 0
    outer loop
      vertex 96.1084 0.350586 1.6
      vertex 96.7393 0.702148 11.1
      vertex 96.1084 0.350586 11.1
    endloop
  endfacet
  facet normal 0.486791 -0.873519 0
    outer loop
      vertex 96.7393 0.702148 11.1
      vertex 96.1084 0.350586 1.6
      vertex 96.7393 0.702148 1.6
    endloop
  endfacet
  facet normal 0.646977 -0.762509 0
    outer loop
      vertex 96.7393 0.702148 1.6
      vertex 97.2871 1.16699 11.1
      vertex 96.7393 0.702148 11.1
    endloop
  endfacet
  facet normal 0.646977 -0.762509 0
    outer loop
      vertex 97.2871 1.16699 11.1
      vertex 96.7393 0.702148 1.6
      vertex 97.2871 1.16699 1.6
    endloop
  endfacet
  facet normal 0.778349 -0.627832 0
    outer loop
      vertex 97.2871 1.16699 11.1
      vertex 97.7393 1.72754 1.6
      vertex 97.7393 1.72754 11.1
    endloop
  endfacet
  facet normal 0.778349 -0.627832 0
    outer loop
      vertex 97.7393 1.72754 1.6
      vertex 97.2871 1.16699 11.1
      vertex 97.2871 1.16699 1.6
    endloop
  endfacet
  facet normal 0.882837 -0.46968 0
    outer loop
      vertex 97.7393 1.72754 11.1
      vertex 98.0801 2.36816 1.6
      vertex 98.0801 2.36816 11.1
    endloop
  endfacet
  facet normal 0.882837 -0.46968 0
    outer loop
      vertex 98.0801 2.36816 1.6
      vertex 97.7393 1.72754 11.1
      vertex 97.7393 1.72754 1.6
    endloop
  endfacet
  facet normal 0.956465 -0.291848 0
    outer loop
      vertex 98.0801 2.36816 11.1
      vertex 98.2949 3.07227 1.6
      vertex 98.2949 3.07227 11.1
    endloop
  endfacet
  facet normal 0.956465 -0.291848 0
    outer loop
      vertex 98.2949 3.07227 1.6
      vertex 98.0801 2.36816 11.1
      vertex 98.0801 2.36816 1.6
    endloop
  endfacet
  facet normal 0.995037 -0.0995037 0
    outer loop
      vertex 98.2949 3.07227 11.1
      vertex 98.3701 3.82422 1.6
      vertex 98.3701 3.82422 11.1
    endloop
  endfacet
  facet normal 0.995037 -0.0995037 0
    outer loop
      vertex 98.3701 3.82422 1.6
      vertex 98.2949 3.07227 11.1
      vertex 98.2949 3.07227 1.6
    endloop
  endfacet
  facet normal 1 -0 0
    outer loop
      vertex 98.3701 3.82422 11.1
      vertex 98.3701 41.9736 1.6
      vertex 98.3701 41.9736 11.1
    endloop
  endfacet
  facet normal 1 0 0
    outer loop
      vertex 98.3701 41.9736 1.6
      vertex 98.3701 3.82422 11.1
      vertex 98.3701 3.82422 1.6
    endloop
  endfacet
  facet normal 0.84186 -0.539695 0
    outer loop
      vertex 98.3701 41.9736 11.1
      vertex 99.0225 42.9912 1.6
      vertex 99.0225 42.9912 11.1
    endloop
  endfacet
  facet normal 0.84186 -0.539695 0
    outer loop
      vertex 99.0225 42.9912 1.6
      vertex 98.3701 41.9736 11.1
      vertex 98.3701 41.9736 1.6
    endloop
  endfacet
  facet normal 0.999998 -0.00186368 0
    outer loop
      vertex 99.0225 42.9912 11.1
      vertex 99.0498 57.6631 1.6
      vertex 99.0498 57.6631 11.1
    endloop
  endfacet
  facet normal 0.999998 -0.00186368 0
    outer loop
      vertex 99.0498 57.6631 1.6
      vertex 99.0225 42.9912 11.1
      vertex 99.0225 42.9912 1.6
    endloop
  endfacet
  facet normal 0.800534 0.599287 0
    outer loop
      vertex 99.0498 57.6631 11.1
      vertex 98.3926 58.541 1.6
      vertex 98.3926 58.541 11.1
    endloop
  endfacet
  facet normal 0.800534 0.599287 0
    outer loop
      vertex 98.3926 58.541 1.6
      vertex 99.0498 57.6631 11.1
      vertex 99.0498 57.6631 1.6
    endloop
  endfacet
  facet normal 1 -0 0
    outer loop
      vertex 98.3926 58.541 11.1
      vertex 98.3926 60.0381 1.6
      vertex 98.3926 60.0381 11.1
    endloop
  endfacet
  facet normal 1 0 0
    outer loop
      vertex 98.3926 60.0381 1.6
      vertex 98.3926 58.541 11.1
      vertex 98.3926 58.541 1.6
    endloop
  endfacet
  facet normal 0.995627 0.09342 0
    outer loop
      vertex 98.3926 60.0381 11.1
      vertex 98.3213 60.7979 1.6
      vertex 98.3213 60.7979 11.1
    endloop
  endfacet
  facet normal 0.995627 0.09342 0
    outer loop
      vertex 98.3213 60.7979 1.6
      vertex 98.3926 60.0381 11.1
      vertex 98.3926 60.0381 1.6
    endloop
  endfacet
  facet normal 0.958294 0.285784 0
    outer loop
      vertex 98.3213 60.7979 11.1
      vertex 98.1084 61.5117 1.6
      vertex 98.1084 61.5117 11.1
    endloop
  endfacet
  facet normal 0.958294 0.285784 0
    outer loop
      vertex 98.1084 61.5117 1.6
      vertex 98.3213 60.7979 11.1
      vertex 98.3213 60.7979 1.6
    endloop
  endfacet
  facet normal 0.886324 0.463065 0
    outer loop
      vertex 98.1084 61.5117 11.1
      vertex 97.7676 62.1641 1.6
      vertex 97.7676 62.1641 11.1
    endloop
  endfacet
  facet normal 0.886324 0.463065 0
    outer loop
      vertex 97.7676 62.1641 1.6
      vertex 98.1084 61.5117 11.1
      vertex 98.1084 61.5117 1.6
    endloop
  endfacet
  facet normal 0.783341 0.621593 0
    outer loop
      vertex 97.7676 62.1641 11.1
      vertex 97.3135 62.7363 1.6
      vertex 97.3135 62.7363 11.1
    endloop
  endfacet
  facet normal 0.783341 0.621593 0
    outer loop
      vertex 97.3135 62.7363 1.6
      vertex 97.7676 62.1641 11.1
      vertex 97.7676 62.1641 1.6
    endloop
  endfacet
  facet normal 0.652116 0.758119 -0
    outer loop
      vertex 97.3135 62.7363 1.6
      vertex 96.7617 63.2109 11.1
      vertex 97.3135 62.7363 11.1
    endloop
  endfacet
  facet normal 0.652116 0.758119 0
    outer loop
      vertex 96.7617 63.2109 11.1
      vertex 97.3135 62.7363 1.6
      vertex 96.7617 63.2109 1.6
    endloop
  endfacet
  facet normal 0.493551 0.869717 0
    outer loop
      vertex 96.7617 63.2109 11.1
      vertex 96.5 63.3595 4.1
      vertex 96.5 63.3595 11.1
    endloop
  endfacet
  facet normal 0.493551 0.869717 -0
    outer loop
      vertex 96.7617 63.2109 1.6
      vertex 96.5 63.3595 4.1
      vertex 96.7617 63.2109 11.1
    endloop
  endfacet
  facet normal 0.493551 0.869717 -1.62832e-08
    outer loop
      vertex 96.125 63.5723 1.6
      vertex 96.5 63.3595 4.1
      vertex 96.7617 63.2109 1.6
    endloop
  endfacet
  facet normal 0.493551 0.869717 0
    outer loop
      vertex 96.5 63.3595 4.1
      vertex 96.125 63.5723 1.6
      vertex 96.125 63.5723 4.1
    endloop
  endfacet
  facet normal 0.307925 0.951411 -0
    outer loop
      vertex 96.125 63.5723 1.6
      vertex 95.4189 63.8008 4.1
      vertex 96.125 63.5723 4.1
    endloop
  endfacet
  facet normal 0.307925 0.951411 0
    outer loop
      vertex 95.4189 63.8008 4.1
      vertex 96.125 63.5723 1.6
      vertex 95.4189 63.8008 1.6
    endloop
  endfacet
  facet normal 0.104685 0.994505 -0
    outer loop
      vertex 95.4189 63.8008 1.6
      vertex 94.6582 63.8809 4.1
      vertex 95.4189 63.8008 4.1
    endloop
  endfacet
  facet normal 0.104685 0.994505 0
    outer loop
      vertex 94.6582 63.8809 4.1
      vertex 95.4189 63.8008 1.6
      vertex 94.6582 63.8809 1.6
    endloop
  endfacet
  facet normal 0 1 -0
    outer loop
      vertex 94.6582 63.8809 1.6
      vertex 83.6934 63.8809 4.1
      vertex 94.6582 63.8809 4.1
    endloop
  endfacet
  facet normal 0 1 0
    outer loop
      vertex 83.6934 63.8809 4.1
      vertex 94.6582 63.8809 1.6
      vertex 83.6934 63.8809 1.6
    endloop
  endfacet
  facet normal 1 -0 0
    outer loop
      vertex 83.6934 63.8809 4.1
      vertex 83.6934 64.8564 1.6
      vertex 83.6934 64.8564 4.1
    endloop
  endfacet
  facet normal 1 0 0
    outer loop
      vertex 83.6934 64.8564 1.6
      vertex 83.6934 63.8809 4.1
      vertex 83.6934 63.8809 1.6
    endloop
  endfacet
  facet normal 0 1 -0
    outer loop
      vertex 83.6934 64.8564 1.6
      vertex 83.5 64.8564 4.1
      vertex 83.6934 64.8564 4.1
    endloop
  endfacet
  facet normal 0 1 0
    outer loop
      vertex 83.6934 64.8564 1.6
      vertex 68.3 64.8564 2.55
      vertex 80.3 64.8564 2.55
    endloop
  endfacet
  facet normal 0 1 0
    outer loop
      vertex 68.3 64.8564 2.55
      vertex 83.6934 64.8564 1.6
      vertex 57.5 64.8564 2.55
    endloop
  endfacet
  facet normal 0 1 0
    outer loop
      vertex 57.5 64.8564 2.55
      vertex 83.6934 64.8564 1.6
      vertex 41.5 64.8564 2.55
    endloop
  endfacet
  facet normal 0 1 0
    outer loop
      vertex 15.5146 64.8564 1.6
      vertex 41.5 64.8564 2.55
      vertex 83.6934 64.8564 1.6
    endloop
  endfacet
  facet normal 0 1 0
    outer loop
      vertex 41.5 64.8564 2.55
      vertex 15.5146 64.8564 1.6
      vertex 31 64.8564 2.55
    endloop
  endfacet
  facet normal 0 1 0
    outer loop
      vertex 83.5 64.8564 4.1
      vertex 83.6934 64.8564 1.6
      vertex 80.3 64.8564 2.55
    endloop
  endfacet
  facet normal 0 1 0
    outer loop
      vertex 41.5 64.8564 10.15
      vertex 38 64.8564 9.2
      vertex 31 64.8564 10.15
    endloop
  endfacet
  facet normal 0 1 0
    outer loop
      vertex 41.5 64.8564 10.15
      vertex 38 64.8564 3.5
      vertex 38 64.8564 9.2
    endloop
  endfacet
  facet normal 0 1 0
    outer loop
      vertex 31 64.8564 2.55
      vertex 38 64.8564 3.5
      vertex 41.5 64.8564 2.55
    endloop
  endfacet
  facet normal 0 1 -0
    outer loop
      vertex 41.5 64.8564 2.55
      vertex 38 64.8564 3.5
      vertex 41.5 64.8564 10.15
    endloop
  endfacet
  facet normal 0 1 0
    outer loop
      vertex 61 64.8564 9.2
      vertex 68.3 64.8564 10.15
      vertex 65 64.8564 9.2
    endloop
  endfacet
  facet normal 0 1 0
    outer loop
      vertex 68.3 64.8564 10.15
      vertex 65 64.8564 3.5
      vertex 65 64.8564 9.2
    endloop
  endfacet
  facet normal 0 1 0
    outer loop
      vertex 65 64.8564 3.5
      vertex 68.3 64.8564 2.55
      vertex 61 64.8564 3.5
    endloop
  endfacet
  facet normal 0 1 -0
    outer loop
      vertex 68.3 64.8564 2.55
      vertex 65 64.8564 3.5
      vertex 68.3 64.8564 10.15
    endloop
  endfacet
  facet normal 0 1 0
    outer loop
      vertex 68.3 64.8564 10.15
      vertex 83.5 64.8564 11.1
      vertex 80.3 64.8564 10.15
    endloop
  endfacet
  facet normal 0 1 -0
    outer loop
      vertex 83.5 64.8564 4.1
      vertex 80.3 64.8564 10.15
      vertex 83.5 64.8564 11.1
    endloop
  endfacet
  facet normal 0 1 0
    outer loop
      vertex 80.3 64.8564 10.15
      vertex 83.5 64.8564 4.1
      vertex 80.3 64.8564 2.55
    endloop
  endfacet
  facet normal 0 1 0
    outer loop
      vertex 57.5 64.8564 10.15
      vertex 83.5 64.8564 11.1
      vertex 68.3 64.8564 10.15
    endloop
  endfacet
  facet normal 0 1 0
    outer loop
      vertex 83.5 64.8564 11.1
      vertex 57.5 64.8564 10.15
      vertex 15.5146 64.8564 11.1
    endloop
  endfacet
  facet normal 0 1 -0
    outer loop
      vertex 41.5 64.8564 10.15
      vertex 15.5146 64.8564 11.1
      vertex 57.5 64.8564 10.15
    endloop
  endfacet
  facet normal 0 1 -0
    outer loop
      vertex 31 64.8564 10.15
      vertex 15.5146 64.8564 11.1
      vertex 41.5 64.8564 10.15
    endloop
  endfacet
  facet normal 0 1 -0
    outer loop
      vertex 19 64.8564 10.15
      vertex 15.5146 64.8564 11.1
      vertex 31 64.8564 10.15
    endloop
  endfacet
  facet normal 0 1 -0
    outer loop
      vertex 19 64.8564 2.55
      vertex 15.5146 64.8564 11.1
      vertex 19 64.8564 10.15
    endloop
  endfacet
  facet normal 0 1 0
    outer loop
      vertex 19 64.8564 2.55
      vertex 15.5146 64.8564 1.6
      vertex 15.5146 64.8564 11.1
    endloop
  endfacet
  facet normal 0 1 0
    outer loop
      vertex 31 64.8564 2.55
      vertex 15.5146 64.8564 1.6
      vertex 19 64.8564 2.55
    endloop
  endfacet
  facet normal 0 1 0
    outer loop
      vertex 68.3 64.8564 10.15
      vertex 61 64.8564 9.2
      vertex 57.5 64.8564 10.15
    endloop
  endfacet
  facet normal 0 1 -0
    outer loop
      vertex 61 64.8564 3.5
      vertex 57.5 64.8564 10.15
      vertex 61 64.8564 9.2
    endloop
  endfacet
  facet normal 0 1 0
    outer loop
      vertex 61 64.8564 3.5
      vertex 57.5 64.8564 2.55
      vertex 57.5 64.8564 10.15
    endloop
  endfacet
  facet normal 0 1 0
    outer loop
      vertex 57.5 64.8564 2.55
      vertex 61 64.8564 3.5
      vertex 68.3 64.8564 2.55
    endloop
  endfacet
  facet normal 0 1 -0
    outer loop
      vertex 34 64.8564 9.2
      vertex 31 64.8564 10.15
      vertex 38 64.8564 9.2
    endloop
  endfacet
  facet normal 0 1 -0
    outer loop
      vertex 34 64.8564 3.5
      vertex 31 64.8564 10.15
      vertex 34 64.8564 9.2
    endloop
  endfacet
  facet normal 0 1 0
    outer loop
      vertex 34 64.8564 3.5
      vertex 31 64.8564 2.55
      vertex 31 64.8564 10.15
    endloop
  endfacet
  facet normal 0 1 0
    outer loop
      vertex 38 64.8564 3.5
      vertex 31 64.8564 2.55
      vertex 34 64.8564 3.5
    endloop
  endfacet
  facet normal -1 0 0
    outer loop
      vertex 15.5146 63.8818 1.6
      vertex 15.5146 64.8564 11.1
      vertex 15.5146 64.8564 1.6
    endloop
  endfacet
  facet normal -1 -0 0
    outer loop
      vertex 15.5146 64.8564 11.1
      vertex 15.5146 63.8818 1.6
      vertex 15.5146 63.8818 11.1
    endloop
  endfacet
  facet normal 0 1 0
    outer loop
      vertex 15.5146 63.8818 11.1
      vertex 15.5 63.8818 4.1
      vertex 15.5 63.8818 11.1
    endloop
  endfacet
  facet normal 0 1 -0
    outer loop
      vertex 15.5146 63.8818 1.6
      vertex 15.5 63.8818 4.1
      vertex 15.5146 63.8818 11.1
    endloop
  endfacet
  facet normal 0 1 0
    outer loop
      vertex 15.5146 63.8818 1.6
      vertex 4.44531 63.8818 4.1
      vertex 15.5 63.8818 4.1
    endloop
  endfacet
  facet normal 0 1 0
    outer loop
      vertex 4.44531 63.8818 4.1
      vertex 15.5146 63.8818 1.6
      vertex 4.44531 63.8818 1.6
    endloop
  endfacet
  facet normal -0.104685 0.994505 0
    outer loop
      vertex 4.44531 63.8818 1.6
      vertex 3.68457 63.8018 4.1
      vertex 4.44531 63.8818 4.1
    endloop
  endfacet
  facet normal -0.104685 0.994505 0
    outer loop
      vertex 3.68457 63.8018 4.1
      vertex 4.44531 63.8818 1.6
      vertex 3.68457 63.8018 1.6
    endloop
  endfacet
  facet normal -0.309891 0.950772 0
    outer loop
      vertex 3.68457 63.8018 1.6
      vertex 2.98047 63.5723 4.1
      vertex 3.68457 63.8018 4.1
    endloop
  endfacet
  facet normal -0.309891 0.950772 0
    outer loop
      vertex 2.98047 63.5723 4.1
      vertex 3.68457 63.8018 1.6
      vertex 2.98047 63.5723 1.6
    endloop
  endfacet
  facet normal -0.495273 0.868738 0
    outer loop
      vertex 2.98047 63.5723 4.1
      vertex 2.98047 63.5723 1.6
      vertex 2.5 63.2983 4.1
    endloop
  endfacet
  facet normal -0.495277 0.868735 0
    outer loop
      vertex 2.5 63.2983 4.1
      vertex 2.34668 63.2109 11.1
      vertex 2.5 63.2983 11.1
    endloop
  endfacet
  facet normal -0.495277 0.868735 0
    outer loop
      vertex 2.5 63.2983 4.1
      vertex 2.34668 63.2109 1.6
      vertex 2.34668 63.2109 11.1
    endloop
  endfacet
  facet normal -0.495274 0.868737 -2.98206e-07
    outer loop
      vertex 2.34668 63.2109 1.6
      vertex 2.5 63.2983 4.1
      vertex 2.98047 63.5723 1.6
    endloop
  endfacet
  facet normal -0.653445 0.756974 0
    outer loop
      vertex 2.34668 63.2109 1.6
      vertex 1.79688 62.7363 11.1
      vertex 2.34668 63.2109 11.1
    endloop
  endfacet
  facet normal -0.653445 0.756974 0
    outer loop
      vertex 1.79688 62.7363 11.1
      vertex 2.34668 63.2109 1.6
      vertex 1.79688 62.7363 1.6
    endloop
  endfacet
  facet normal -0.784643 0.619948 0
    outer loop
      vertex 1.34473 62.1641 1.6
      vertex 1.79688 62.7363 11.1
      vertex 1.79688 62.7363 1.6
    endloop
  endfacet
  facet normal -0.784643 0.619948 0
    outer loop
      vertex 1.79688 62.7363 11.1
      vertex 1.34473 62.1641 1.6
      vertex 1.34473 62.1641 11.1
    endloop
  endfacet
  facet normal -0.886585 0.462566 0
    outer loop
      vertex 1.00488 61.5127 1.6
      vertex 1.34473 62.1641 11.1
      vertex 1.34473 62.1641 1.6
    endloop
  endfacet
  facet normal -0.886585 0.462566 0
    outer loop
      vertex 1.34473 62.1641 11.1
      vertex 1.00488 61.5127 1.6
      vertex 1.00488 61.5127 11.1
    endloop
  endfacet
  facet normal -0.957718 0.287709 0
    outer loop
      vertex 0.791016 60.8008 1.6
      vertex 1.00488 61.5127 11.1
      vertex 1.00488 61.5127 1.6
    endloop
  endfacet
  facet normal -0.957718 0.287709 0
    outer loop
      vertex 1.00488 61.5127 11.1
      vertex 0.791016 60.8008 1.6
      vertex 0.791016 60.8008 11.1
    endloop
  endfacet
  facet normal -0.995226 0.0975964 0
    outer loop
      vertex 0.716797 60.0439 1.6
      vertex 0.791016 60.8008 11.1
      vertex 0.791016 60.8008 1.6
    endloop
  endfacet
  facet normal -0.995226 0.0975964 0
    outer loop
      vertex 0.791016 60.8008 11.1
      vertex 0.716797 60.0439 1.6
      vertex 0.716797 60.0439 11.1
    endloop
  endfacet
  facet normal -1 0 0
    outer loop
      vertex 0.716797 58.5439 1.6
      vertex 0.716797 60.0439 11.1
      vertex 0.716797 60.0439 1.6
    endloop
  endfacet
  facet normal -1 -0 0
    outer loop
      vertex 0.716797 60.0439 11.1
      vertex 0.716797 58.5439 1.6
      vertex 0.716797 58.5439 11.1
    endloop
  endfacet
  facet normal -0.79594 0.605375 0
    outer loop
      vertex 0.0498047 57.667 1.6
      vertex 0.716797 58.5439 11.1
      vertex 0.716797 58.5439 1.6
    endloop
  endfacet
  facet normal -0.79594 0.605375 0
    outer loop
      vertex 0.716797 58.5439 11.1
      vertex 0.0498047 57.667 1.6
      vertex 0.0498047 57.667 11.1
    endloop
  endfacet
  facet normal -0.999998 -0.00185775 0
    outer loop
      vertex 0.0771484 42.9482 1.6
      vertex 0.0498047 57.667 11.1
      vertex 0.0498047 57.667 1.6
    endloop
  endfacet
  facet normal -0.999998 -0.00185775 0
    outer loop
      vertex 0.0498047 57.667 11.1
      vertex 0.0771484 42.9482 1.6
      vertex 0.0771484 42.9482 11.1
    endloop
  endfacet
  facet normal -0.79659 -0.60452 0
    outer loop
      vertex 0.848633 41.9316 1.6
      vertex 0.0771484 42.9482 11.1
      vertex 0.0771484 42.9482 1.6
    endloop
  endfacet
  facet normal -0.79659 -0.60452 0
    outer loop
      vertex 0.0771484 42.9482 11.1
      vertex 0.848633 41.9316 1.6
      vertex 0.848633 41.9316 11.1
    endloop
  endfacet
  facet normal -1 0 0
    outer loop
      vertex 0.848633 3.82031 1.6
      vertex 0.848633 41.9316 11.1
      vertex 0.848633 41.9316 1.6
    endloop
  endfacet
  facet normal -1 -0 0
    outer loop
      vertex 0.848633 41.9316 11.1
      vertex 0.848633 3.82031 1.6
      vertex 0.848633 3.82031 11.1
    endloop
  endfacet
  facet normal -0.995218 -0.097674 0
    outer loop
      vertex 0.920898 3.08398 1.6
      vertex 0.848633 3.82031 11.1
      vertex 0.848633 3.82031 1.6
    endloop
  endfacet
  facet normal -0.995218 -0.097674 0
    outer loop
      vertex 0.848633 3.82031 11.1
      vertex 0.920898 3.08398 1.6
      vertex 0.920898 3.08398 11.1
    endloop
  endfacet
  facet normal -0.959985 -0.280052 0
    outer loop
      vertex 1.12402 2.3877 1.6
      vertex 0.920898 3.08398 11.1
      vertex 0.920898 3.08398 1.6
    endloop
  endfacet
  facet normal -0.959985 -0.280052 0
    outer loop
      vertex 0.920898 3.08398 11.1
      vertex 1.12402 2.3877 1.6
      vertex 1.12402 2.3877 11.1
    endloop
  endfacet
  facet normal -0.89306 -0.449938 0
    outer loop
      vertex 1.44629 1.74805 1.6
      vertex 1.12402 2.3877 11.1
      vertex 1.12402 2.3877 1.6
    endloop
  endfacet
  facet normal -0.89306 -0.449938 0
    outer loop
      vertex 1.12402 2.3877 11.1
      vertex 1.44629 1.74805 1.6
      vertex 1.44629 1.74805 11.1
    endloop
  endfacet
  facet normal -0.794671 -0.60704 0
    outer loop
      vertex 1.87598 1.18555 1.6
      vertex 1.44629 1.74805 11.1
      vertex 1.44629 1.74805 1.6
    endloop
  endfacet
  facet normal -0.794671 -0.60704 0
    outer loop
      vertex 1.44629 1.74805 11.1
      vertex 1.87598 1.18555 1.6
      vertex 1.87598 1.18555 11.1
    endloop
  endfacet
  facet normal -0.665136 -0.746722 0
    outer loop
      vertex 1.87598 1.18555 1.6
      vertex 2.40332 0.71582 11.1
      vertex 1.87598 1.18555 11.1
    endloop
  endfacet
  facet normal -0.665136 -0.746722 -0
    outer loop
      vertex 2.40332 0.71582 11.1
      vertex 1.87598 1.18555 1.6
      vertex 2.40332 0.71582 1.6
    endloop
  endfacet
  facet normal -0.506357 -0.862324 0
    outer loop
      vertex 2.40332 0.71582 1.6
      vertex 3.01367 0.357422 11.1
      vertex 2.40332 0.71582 11.1
    endloop
  endfacet
  facet normal -0.506357 -0.862324 -0
    outer loop
      vertex 3.01367 0.357422 11.1
      vertex 2.40332 0.71582 1.6
      vertex 3.01367 0.357422 1.6
    endloop
  endfacet
  facet normal -0.315415 -0.948954 0
    outer loop
      vertex 3.01367 0.357422 1.6
      vertex 3.69824 0.129883 11.1
      vertex 3.01367 0.357422 11.1
    endloop
  endfacet
  facet normal -0.315415 -0.948954 -0
    outer loop
      vertex 3.69824 0.129883 11.1
      vertex 3.01367 0.357422 1.6
      vertex 3.69824 0.129883 1.6
    endloop
  endfacet
  facet normal -0.106717 -0.994289 0
    outer loop
      vertex 3.69824 0.129883 1.6
      vertex 4.44434 0.0498047 11.1
      vertex 3.69824 0.129883 11.1
    endloop
  endfacet
  facet normal -0.106717 -0.994289 -0
    outer loop
      vertex 4.44434 0.0498047 11.1
      vertex 3.69824 0.129883 1.6
      vertex 4.44434 0.0498047 1.6
    endloop
  endfacet
  facet normal 0 -1 0
    outer loop
      vertex 54.167 0.0498047 11.1
      vertex 83 0.0498047 8.35
      vertex 94.6582 0.0498047 11.1
    endloop
  endfacet
  facet normal 0 -1 0
    outer loop
      vertex 60 0.0498047 6.85
      vertex 54.167 0.0498047 11.1
      vertex 56 0.0498047 6.85
    endloop
  endfacet
  facet normal 0 -1 0
    outer loop
      vertex 54.167 0.0498047 11.1
      vertex 56 0.0498047 5.85
      vertex 56 0.0498047 6.85
    endloop
  endfacet
  facet normal 0 -1 0
    outer loop
      vertex 54.167 0.0498047 1.6
      vertex 60 0.0498047 5.85
      vertex 56 0.0498047 5.85
    endloop
  endfacet
  facet normal 0 -1 0
    outer loop
      vertex 94.6582 0.0498047 1.6
      vertex 83 0.0498047 4.35
      vertex 54.167 0.0498047 1.6
    endloop
  endfacet
  facet normal 0 -1 -0
    outer loop
      vertex 60 0.0498047 5.85
      vertex 54.167 0.0498047 1.6
      vertex 83 0.0498047 4.35
    endloop
  endfacet
  facet normal 0 -1 0
    outer loop
      vertex 54.167 0.0498047 1.6
      vertex 56 0.0498047 5.85
      vertex 54.167 0.0498047 11.1
    endloop
  endfacet
  facet normal 0 -1 0
    outer loop
      vertex 91 0.0498047 8.35
      vertex 94.6582 0.0498047 11.1
      vertex 83 0.0498047 8.35
    endloop
  endfacet
  facet normal 0 -1 0
    outer loop
      vertex 91 0.0498047 4.35
      vertex 94.6582 0.0498047 11.1
      vertex 91 0.0498047 8.35
    endloop
  endfacet
  facet normal 0 -1 0
    outer loop
      vertex 91 0.0498047 4.35
      vertex 94.6582 0.0498047 1.6
      vertex 94.6582 0.0498047 11.1
    endloop
  endfacet
  facet normal 0 -1 0
    outer loop
      vertex 83 0.0498047 4.35
      vertex 94.6582 0.0498047 1.6
      vertex 91 0.0498047 4.35
    endloop
  endfacet
  facet normal 0 -1 0
    outer loop
      vertex 54.167 0.0498047 11.1
      vertex 60 0.0498047 6.85
      vertex 83 0.0498047 8.35
    endloop
  endfacet
  facet normal 0 -1 0
    outer loop
      vertex 60 0.0498047 5.85
      vertex 83 0.0498047 8.35
      vertex 60 0.0498047 6.85
    endloop
  endfacet
  facet normal 0 -1 -0
    outer loop
      vertex 83 0.0498047 8.35
      vertex 60 0.0498047 5.85
      vertex 83 0.0498047 4.35
    endloop
  endfacet
  facet normal 0 -1 0
    outer loop
      vertex 41.5 0.0498047 5.85
      vertex 41.5 0.0498047 4.35
      vertex 43 0.0498047 5.85
    endloop
  endfacet
  facet normal 0 -1 0
    outer loop
      vertex 16 0.0498047 8.35
      vertex 39 0.0498047 6.85
      vertex 40.5 0.0498047 8.35
    endloop
  endfacet
  facet normal 0 -1 0
    outer loop
      vertex 16 0.0498047 8.35
      vertex 39 0.0498047 5.85
      vertex 39 0.0498047 6.85
    endloop
  endfacet
  facet normal 0 -1 0
    outer loop
      vertex 16 0.0498047 4.35
      vertex 39 0.0498047 5.85
      vertex 16 0.0498047 8.35
    endloop
  endfacet
  facet normal 0 -1 0
    outer loop
      vertex 40.5 0.0498047 4.35
      vertex 39 0.0498047 5.85
      vertex 16 0.0498047 4.35
    endloop
  endfacet
  facet normal 0 -1 0
    outer loop
      vertex 39 0.0498047 5.85
      vertex 40.5 0.0498047 4.35
      vertex 40.5 0.0498047 5.85
    endloop
  endfacet
  facet normal 0 -1 0
    outer loop
      vertex 16 0.0498047 8.35
      vertex 4.44434 0.0498047 11.1
      vertex 8 0.0498047 8.35
    endloop
  endfacet
  facet normal 0 -1 0
    outer loop
      vertex 4.44434 0.0498047 11.1
      vertex 8 0.0498047 4.35
      vertex 8 0.0498047 8.35
    endloop
  endfacet
  facet normal 0 -1 0
    outer loop
      vertex 4.44434 0.0498047 1.6
      vertex 16 0.0498047 4.35
      vertex 8 0.0498047 4.35
    endloop
  endfacet
  facet normal 0 -1 0
    outer loop
      vertex 44.9727 0.0498047 1.6
      vertex 16 0.0498047 4.35
      vertex 4.44434 0.0498047 1.6
    endloop
  endfacet
  facet normal 0 -1 0
    outer loop
      vertex 16 0.0498047 4.35
      vertex 44.9727 0.0498047 1.6
      vertex 40.5 0.0498047 4.35
    endloop
  endfacet
  facet normal 0 -1 0
    outer loop
      vertex 4.44434 0.0498047 1.6
      vertex 8 0.0498047 4.35
      vertex 4.44434 0.0498047 11.1
    endloop
  endfacet
  facet normal 0 -1 0
    outer loop
      vertex 4.44434 0.0498047 11.1
      vertex 16 0.0498047 8.35
      vertex 44.9727 0.0498047 11.1
    endloop
  endfacet
  facet normal 0 -1 0
    outer loop
      vertex 40.5 0.0498047 8.35
      vertex 44.9727 0.0498047 11.1
      vertex 16 0.0498047 8.35
    endloop
  endfacet
  facet normal 0 -1 0
    outer loop
      vertex 41.5 0.0498047 8.35
      vertex 44.9727 0.0498047 11.1
      vertex 40.5 0.0498047 8.35
    endloop
  endfacet
  facet normal 0 -1 0
    outer loop
      vertex 43 0.0498047 6.85
      vertex 41.5 0.0498047 8.35
      vertex 41.5 0.0498047 6.85
    endloop
  endfacet
  facet normal 0 -1 0
    outer loop
      vertex 41.5 0.0498047 8.35
      vertex 43 0.0498047 6.85
      vertex 44.9727 0.0498047 11.1
    endloop
  endfacet
  facet normal 0 -1 0
    outer loop
      vertex 43 0.0498047 5.85
      vertex 44.9727 0.0498047 11.1
      vertex 43 0.0498047 6.85
    endloop
  endfacet
  facet normal 0 -1 0
    outer loop
      vertex 43 0.0498047 5.85
      vertex 44.9727 0.0498047 1.6
      vertex 44.9727 0.0498047 11.1
    endloop
  endfacet
  facet normal 0 -1 0
    outer loop
      vertex 41.5 0.0498047 4.35
      vertex 44.9727 0.0498047 1.6
      vertex 43 0.0498047 5.85
    endloop
  endfacet
  facet normal 0 -1 0
    outer loop
      vertex 40.5 0.0498047 4.35
      vertex 44.9727 0.0498047 1.6
      vertex 41.5 0.0498047 4.35
    endloop
  endfacet
  facet normal 0 -1 -0
    outer loop
      vertex 40.5 0.0498047 8.35
      vertex 39 0.0498047 6.85
      vertex 40.5 0.0498047 6.85
    endloop
  endfacet
  facet normal 0.10334 -0.994646 0
    outer loop
      vertex 94.6582 0.0498047 1.6
      vertex 95.4102 0.12793 11.1
      vertex 94.6582 0.0498047 11.1
    endloop
  endfacet
  facet normal 0.10334 -0.994646 0
    outer loop
      vertex 95.4102 0.12793 11.1
      vertex 94.6582 0.0498047 1.6
      vertex 95.4102 0.12793 1.6
    endloop
  endfacet
  facet normal 0 1 -0
    outer loop
      vertex 61.8643 11.5459 1.6
      vertex 54.167 11.5459 11.1
      vertex 61.8643 11.5459 11.1
    endloop
  endfacet
  facet normal 0 1 0
    outer loop
      vertex 54.167 11.5459 11.1
      vertex 61.8643 11.5459 1.6
      vertex 54.167 11.5459 1.6
    endloop
  endfacet
  facet normal 1 -0 0
    outer loop
      vertex 61.8643 4.84473 11.1
      vertex 61.8643 11.5459 1.6
      vertex 61.8643 11.5459 11.1
    endloop
  endfacet
  facet normal 1 0 0
    outer loop
      vertex 61.8643 11.5459 1.6
      vertex 61.8643 4.84473 11.1
      vertex 61.8643 4.84473 1.6
    endloop
  endfacet
  facet normal 0 1 -0
    outer loop
      vertex 90.6592 4.84473 1.6
      vertex 61.8643 4.84473 11.1
      vertex 90.6592 4.84473 11.1
    endloop
  endfacet
  facet normal 0 1 0
    outer loop
      vertex 61.8643 4.84473 11.1
      vertex 90.6592 4.84473 1.6
      vertex 61.8643 4.84473 1.6
    endloop
  endfacet
  facet normal -0.707107 0.707107 0
    outer loop
      vertex 90.6592 4.84473 1.6
      vertex 93.9395 8.125 11.1
      vertex 93.9395 8.125 1.6
    endloop
  endfacet
  facet normal -0.707107 0.707107 0
    outer loop
      vertex 93.9395 8.125 11.1
      vertex 90.6592 4.84473 1.6
      vertex 90.6592 4.84473 11.1
    endloop
  endfacet
  facet normal -1 0 0
    outer loop
      vertex 93.9395 8.125 1.6
      vertex 93.9395 45.8076 11.1
      vertex 93.9395 45.8076 1.6
    endloop
  endfacet
  facet normal -1 -0 0
    outer loop
      vertex 93.9395 45.8076 11.1
      vertex 93.9395 8.125 1.6
      vertex 93.9395 8.125 11.1
    endloop
  endfacet
  facet normal 0 -1 0
    outer loop
      vertex 77.1719 45.8076 1.6
      vertex 93.9395 45.8076 11.1
      vertex 77.1719 45.8076 11.1
    endloop
  endfacet
  facet normal 0 -1 -0
    outer loop
      vertex 93.9395 45.8076 11.1
      vertex 77.1719 45.8076 1.6
      vertex 93.9395 45.8076 1.6
    endloop
  endfacet
  facet normal -0.999894 0.0145344 0
    outer loop
      vertex 77.1719 45.8076 1.6
      vertex 77.21 48.4277 11.1
      vertex 77.21 48.4277 1.6
    endloop
  endfacet
  facet normal -0.999894 0.0145344 0
    outer loop
      vertex 77.21 48.4277 11.1
      vertex 77.1719 45.8076 1.6
      vertex 77.1719 45.8076 11.1
    endloop
  endfacet
  facet normal -0.963353 0.268238 0
    outer loop
      vertex 77.21 48.4277 1.6
      vertex 80.0303 58.5566 11.1
      vertex 80.0303 58.5566 1.6
    endloop
  endfacet
  facet normal -0.963353 0.268238 0
    outer loop
      vertex 80.0303 58.5566 11.1
      vertex 77.21 48.4277 1.6
      vertex 77.21 48.4277 11.1
    endloop
  endfacet
  facet normal -0.862669 -0.505768 0
    outer loop
      vertex 80.0303 58.5566 1.6
      vertex 78.4775 61.2051 11.1
      vertex 78.4775 61.2051 1.6
    endloop
  endfacet
  facet normal -0.862669 -0.505768 0
    outer loop
      vertex 78.4775 61.2051 11.1
      vertex 80.0303 58.5566 1.6
      vertex 80.0303 58.5566 11.1
    endloop
  endfacet
  facet normal 0 -1 0
    outer loop
      vertex 20.0762 61.2051 1.6
      vertex 78.4775 61.2051 11.1
      vertex 20.0762 61.2051 11.1
    endloop
  endfacet
  facet normal 0 -1 -0
    outer loop
      vertex 78.4775 61.2051 11.1
      vertex 20.0762 61.2051 1.6
      vertex 78.4775 61.2051 1.6
    endloop
  endfacet
  facet normal 0.890053 -0.455857 0
    outer loop
      vertex 18.7197 58.5566 11.1
      vertex 20.0762 61.2051 1.6
      vertex 20.0762 61.2051 11.1
    endloop
  endfacet
  facet normal 0.890053 -0.455857 0
    outer loop
      vertex 20.0762 61.2051 1.6
      vertex 18.7197 58.5566 11.1
      vertex 18.7197 58.5566 1.6
    endloop
  endfacet
  facet normal 0.961604 0.274442 0
    outer loop
      vertex 21.6387 48.3291 11.1
      vertex 18.7197 58.5566 1.6
      vertex 18.7197 58.5566 11.1
    endloop
  endfacet
  facet normal 0.961604 0.274442 0
    outer loop
      vertex 18.7197 58.5566 1.6
      vertex 21.6387 48.3291 11.1
      vertex 21.6387 48.3291 1.6
    endloop
  endfacet
  facet normal 0.999795 -0.0202423 0
    outer loop
      vertex 21.5938 46.1104 11.1
      vertex 21.6387 48.3291 1.6
      vertex 21.6387 48.3291 11.1
    endloop
  endfacet
  facet normal 0.999795 -0.0202423 0
    outer loop
      vertex 21.6387 48.3291 1.6
      vertex 21.5938 46.1104 11.1
      vertex 21.5938 46.1104 1.6
    endloop
  endfacet
  facet normal 0 -1 0
    outer loop
      vertex 5.64453 46.1104 1.6
      vertex 21.5938 46.1104 11.1
      vertex 5.64453 46.1104 11.1
    endloop
  endfacet
  facet normal 0 -1 -0
    outer loop
      vertex 21.5938 46.1104 11.1
      vertex 5.64453 46.1104 1.6
      vertex 21.5938 46.1104 1.6
    endloop
  endfacet
  facet normal 1 -0 0
    outer loop
      vertex 5.64453 8.87012 11.1
      vertex 5.64453 46.1104 1.6
      vertex 5.64453 46.1104 11.1
    endloop
  endfacet
  facet normal 1 0 0
    outer loop
      vertex 5.64453 46.1104 1.6
      vertex 5.64453 8.87012 11.1
      vertex 5.64453 8.87012 1.6
    endloop
  endfacet
  facet normal 0.707208 0.707006 0
    outer loop
      vertex 9.07129 5.44238 11.1
      vertex 5.64453 8.87012 1.6
      vertex 5.64453 8.87012 11.1
    endloop
  endfacet
  facet normal 0.707208 0.707006 0
    outer loop
      vertex 5.64453 8.87012 1.6
      vertex 9.07129 5.44238 11.1
      vertex 9.07129 5.44238 1.6
    endloop
  endfacet
  facet normal 0 1 -0
    outer loop
      vertex 36.8477 5.44238 1.6
      vertex 9.07129 5.44238 11.1
      vertex 36.8477 5.44238 11.1
    endloop
  endfacet
  facet normal 0 1 0
    outer loop
      vertex 9.07129 5.44238 11.1
      vertex 36.8477 5.44238 1.6
      vertex 9.07129 5.44238 1.6
    endloop
  endfacet
  facet normal -1 0 0
    outer loop
      vertex 36.8477 5.44238 1.6
      vertex 36.8477 11.8311 11.1
      vertex 36.8477 11.8311 1.6
    endloop
  endfacet
  facet normal -1 -0 0
    outer loop
      vertex 36.8477 11.8311 11.1
      vertex 36.8477 5.44238 1.6
      vertex 36.8477 5.44238 11.1
    endloop
  endfacet
  facet normal 0 1 -0
    outer loop
      vertex 44.9727 11.8311 1.6
      vertex 36.8477 11.8311 11.1
      vertex 44.9727 11.8311 11.1
    endloop
  endfacet
  facet normal 0 1 0
    outer loop
      vertex 36.8477 11.8311 11.1
      vertex 44.9727 11.8311 1.6
      vertex 36.8477 11.8311 1.6
    endloop
  endfacet
  facet normal 1 0 0
    outer loop
      vertex 44.9727 11.8311 11.1
      vertex 44.9727 10.05 4.1
      vertex 44.9727 11.8311 1.6
    endloop
  endfacet
  facet normal 1 -0 0
    outer loop
      vertex 44.9727 0.0498047 11.1
      vertex 44.9727 10.05 4.1
      vertex 44.9727 11.8311 11.1
    endloop
  endfacet
  facet normal 1 0 0
    outer loop
      vertex 44.9727 10.05 4.1
      vertex 44.9727 0.0498047 11.1
      vertex 44.9727 0.0499992 4.1
    endloop
  endfacet
  facet normal 1 0 0
    outer loop
      vertex 44.9727 0.0498047 1.6
      vertex 44.9727 0.0499992 4.1
      vertex 44.9727 0.0498047 11.1
    endloop
  endfacet
  facet normal 1 0 0
    outer loop
      vertex 44.9727 0.0499992 4.1
      vertex 44.9727 0.0498047 1.6
      vertex 44.9727 0.0499992 1.6
    endloop
  endfacet
  facet normal 1 0 0
    outer loop
      vertex 44.9727 11.8311 1.6
      vertex 44.9727 10.05 4.1
      vertex 44.9727 10.05 1.6
    endloop
  endfacet
  facet normal -1 0 0
    outer loop
      vertex 54.167 0.0499992 1.6
      vertex 54.167 0.0498047 1.6
      vertex 54.167 0.0499992 4.1
    endloop
  endfacet
  facet normal -1 0 0
    outer loop
      vertex 54.167 10.05 4.1
      vertex 54.167 11.5459 1.6
      vertex 54.167 10.05 1.6
    endloop
  endfacet
  facet normal -1 0 0
    outer loop
      vertex 54.167 11.5459 1.6
      vertex 54.167 10.05 4.1
      vertex 54.167 11.5459 11.1
    endloop
  endfacet
  facet normal -1 0 0
    outer loop
      vertex 54.167 0.0498047 11.1
      vertex 54.167 10.05 4.1
      vertex 54.167 0.0499992 4.1
    endloop
  endfacet
  facet normal -1 0 0
    outer loop
      vertex 54.167 10.05 4.1
      vertex 54.167 0.0498047 11.1
      vertex 54.167 11.5459 11.1
    endloop
  endfacet
  facet normal -1 0 0
    outer loop
      vertex 54.167 0.0498047 11.1
      vertex 54.167 0.0499992 4.1
      vertex 54.167 0.0498047 1.6
    endloop
  endfacet
  facet normal 1 -0 0
    outer loop
      vertex 19 62 10.15
      vertex 19 64.8564 2.55
      vertex 19 64.8564 10.15
    endloop
  endfacet
  facet normal 1 0 0
    outer loop
      vertex 19 64.8564 2.55
      vertex 19 62 10.15
      vertex 19 62 2.55
    endloop
  endfacet
  facet normal 0 0 -1
    outer loop
      vertex 19 62 10.15
      vertex 31 64.8564 10.15
      vertex 31 62 10.15
    endloop
  endfacet
  facet normal -0 0 -1
    outer loop
      vertex 31 64.8564 10.15
      vertex 19 62 10.15
      vertex 19 64.8564 10.15
    endloop
  endfacet
  facet normal -1 0 0
    outer loop
      vertex 31 62 2.55
      vertex 31 64.8564 10.15
      vertex 31 64.8564 2.55
    endloop
  endfacet
  facet normal -1 -0 0
    outer loop
      vertex 31 64.8564 10.15
      vertex 31 62 2.55
      vertex 31 62 10.15
    endloop
  endfacet
  facet normal -0 0 1
    outer loop
      vertex 19 64.8564 2.55
      vertex 31 62 2.55
      vertex 31 64.8564 2.55
    endloop
  endfacet
  facet normal 0 0 1
    outer loop
      vertex 31 62 2.55
      vertex 19 64.8564 2.55
      vertex 19 62 2.55
    endloop
  endfacet
  facet normal 0 1 -0
    outer loop
      vertex 31 62 2.55
      vertex 19 62 10.15
      vertex 31 62 10.15
    endloop
  endfacet
  facet normal 0 1 0
    outer loop
      vertex 19 62 10.15
      vertex 31 62 2.55
      vertex 19 62 2.55
    endloop
  endfacet
  facet normal 1 -0 0
    outer loop
      vertex 41.5 62 10.15
      vertex 41.5 64.8564 2.55
      vertex 41.5 64.8564 10.15
    endloop
  endfacet
  facet normal 1 0 0
    outer loop
      vertex 41.5 64.8564 2.55
      vertex 41.5 62 10.15
      vertex 41.5 62 2.55
    endloop
  endfacet
  facet normal 0 0 -1
    outer loop
      vertex 41.5 62 10.15
      vertex 57.5 64.8564 10.15
      vertex 57.5 62 10.15
    endloop
  endfacet
  facet normal -0 0 -1
    outer loop
      vertex 57.5 64.8564 10.15
      vertex 41.5 62 10.15
      vertex 41.5 64.8564 10.15
    endloop
  endfacet
  facet normal -1 0 0
    outer loop
      vertex 57.5 62 2.55
      vertex 57.5 64.8564 10.15
      vertex 57.5 64.8564 2.55
    endloop
  endfacet
  facet normal -1 -0 0
    outer loop
      vertex 57.5 64.8564 10.15
      vertex 57.5 62 2.55
      vertex 57.5 62 10.15
    endloop
  endfacet
  facet normal -0 0 1
    outer loop
      vertex 41.5 64.8564 2.55
      vertex 57.5 62 2.55
      vertex 57.5 64.8564 2.55
    endloop
  endfacet
  facet normal 0 0 1
    outer loop
      vertex 57.5 62 2.55
      vertex 41.5 64.8564 2.55
      vertex 41.5 62 2.55
    endloop
  endfacet
  facet normal 0 1 -0
    outer loop
      vertex 57.5 62 2.55
      vertex 41.5 62 10.15
      vertex 57.5 62 10.15
    endloop
  endfacet
  facet normal 0 1 0
    outer loop
      vertex 41.5 62 10.15
      vertex 57.5 62 2.55
      vertex 41.5 62 2.55
    endloop
  endfacet
  facet normal 1 -0 0
    outer loop
      vertex 68.3 62 10.15
      vertex 68.3 64.8564 2.55
      vertex 68.3 64.8564 10.15
    endloop
  endfacet
  facet normal 1 0 0
    outer loop
      vertex 68.3 64.8564 2.55
      vertex 68.3 62 10.15
      vertex 68.3 62 2.55
    endloop
  endfacet
  facet normal 0 0 -1
    outer loop
      vertex 68.3 62 10.15
      vertex 80.3 64.8564 10.15
      vertex 80.3 62 10.15
    endloop
  endfacet
  facet normal -0 0 -1
    outer loop
      vertex 80.3 64.8564 10.15
      vertex 68.3 62 10.15
      vertex 68.3 64.8564 10.15
    endloop
  endfacet
  facet normal -1 0 0
    outer loop
      vertex 80.3 62 2.55
      vertex 80.3 64.8564 10.15
      vertex 80.3 64.8564 2.55
    endloop
  endfacet
  facet normal -1 -0 0
    outer loop
      vertex 80.3 64.8564 10.15
      vertex 80.3 62 2.55
      vertex 80.3 62 10.15
    endloop
  endfacet
  facet normal -0 0 1
    outer loop
      vertex 68.3 64.8564 2.55
      vertex 80.3 62 2.55
      vertex 80.3 64.8564 2.55
    endloop
  endfacet
  facet normal 0 0 1
    outer loop
      vertex 80.3 62 2.55
      vertex 68.3 64.8564 2.55
      vertex 68.3 62 2.55
    endloop
  endfacet
  facet normal 0 1 -0
    outer loop
      vertex 80.3 62 2.55
      vertex 68.3 62 10.15
      vertex 80.3 62 10.15
    endloop
  endfacet
  facet normal 0 1 0
    outer loop
      vertex 68.3 62 10.15
      vertex 80.3 62 2.55
      vertex 68.3 62 2.55
    endloop
  endfacet
  facet normal 1 -0 0
    outer loop
      vertex 34 63 9.2
      vertex 34 64.8564 3.5
      vertex 34 64.8564 9.2
    endloop
  endfacet
  facet normal 1 0 0
    outer loop
      vertex 34 64.8564 3.5
      vertex 34 63 9.2
      vertex 34 63 3.5
    endloop
  endfacet
  facet normal 0 0 -1
    outer loop
      vertex 34 63 9.2
      vertex 38 64.8564 9.2
      vertex 38 63 9.2
    endloop
  endfacet
  facet normal -0 0 -1
    outer loop
      vertex 38 64.8564 9.2
      vertex 34 63 9.2
      vertex 34 64.8564 9.2
    endloop
  endfacet
  facet normal -1 0 0
    outer loop
      vertex 38 63 3.5
      vertex 38 64.8564 9.2
      vertex 38 64.8564 3.5
    endloop
  endfacet
  facet normal -1 -0 0
    outer loop
      vertex 38 64.8564 9.2
      vertex 38 63 3.5
      vertex 38 63 9.2
    endloop
  endfacet
  facet normal -0 0 1
    outer loop
      vertex 34 64.8564 3.5
      vertex 38 63 3.5
      vertex 38 64.8564 3.5
    endloop
  endfacet
  facet normal 0 0 1
    outer loop
      vertex 38 63 3.5
      vertex 34 64.8564 3.5
      vertex 34 63 3.5
    endloop
  endfacet
  facet normal 0 1 -0
    outer loop
      vertex 38 63 3.5
      vertex 34 63 9.2
      vertex 38 63 9.2
    endloop
  endfacet
  facet normal 0 1 0
    outer loop
      vertex 34 63 9.2
      vertex 38 63 3.5
      vertex 34 63 3.5
    endloop
  endfacet
  facet normal 1 -0 0
    outer loop
      vertex 61 63 9.2
      vertex 61 64.8564 3.5
      vertex 61 64.8564 9.2
    endloop
  endfacet
  facet normal 1 0 0
    outer loop
      vertex 61 64.8564 3.5
      vertex 61 63 9.2
      vertex 61 63 3.5
    endloop
  endfacet
  facet normal 0 0 -1
    outer loop
      vertex 61 63 9.2
      vertex 65 64.8564 9.2
      vertex 65 63 9.2
    endloop
  endfacet
  facet normal -0 0 -1
    outer loop
      vertex 65 64.8564 9.2
      vertex 61 63 9.2
      vertex 61 64.8564 9.2
    endloop
  endfacet
  facet normal -1 0 0
    outer loop
      vertex 65 63 3.5
      vertex 65 64.8564 9.2
      vertex 65 64.8564 3.5
    endloop
  endfacet
  facet normal -1 -0 0
    outer loop
      vertex 65 64.8564 9.2
      vertex 65 63 3.5
      vertex 65 63 9.2
    endloop
  endfacet
  facet normal -0 0 1
    outer loop
      vertex 61 64.8564 3.5
      vertex 65 63 3.5
      vertex 65 64.8564 3.5
    endloop
  endfacet
  facet normal 0 0 1
    outer loop
      vertex 65 63 3.5
      vertex 61 64.8564 3.5
      vertex 61 63 3.5
    endloop
  endfacet
  facet normal 0 1 -0
    outer loop
      vertex 65 63 3.5
      vertex 61 63 9.2
      vertex 65 63 9.2
    endloop
  endfacet
  facet normal 0 1 0
    outer loop
      vertex 61 63 9.2
      vertex 65 63 3.5
      vertex 61 63 3.5
    endloop
  endfacet
  facet normal -0 0 1
    outer loop
      vertex 44.9727 10.05 4.1
      vertex 54.167 0.0499992 4.1
      vertex 54.167 10.05 4.1
    endloop
  endfacet
  facet normal 0 0 1
    outer loop
      vertex 54.167 0.0499992 4.1
      vertex 44.9727 10.05 4.1
      vertex 44.9727 0.0499992 4.1
    endloop
  endfacet
  facet normal 0 1 -0
    outer loop
      vertex 54.167 10.05 1.6
      vertex 44.9727 10.05 4.1
      vertex 54.167 10.05 4.1
    endloop
  endfacet
  facet normal 0 1 0
    outer loop
      vertex 44.9727 10.05 4.1
      vertex 54.167 10.05 1.6
      vertex 44.9727 10.05 1.6
    endloop
  endfacet
  facet normal 0 -1 0
    outer loop
      vertex 44.9727 0.0499992 1.6
      vertex 54.167 0.0499992 4.1
      vertex 44.9727 0.0499992 4.1
    endloop
  endfacet
  facet normal 0 -1 -0
    outer loop
      vertex 54.167 0.0499992 4.1
      vertex 44.9727 0.0499992 1.6
      vertex 54.167 0.0499992 1.6
    endloop
  endfacet
  facet normal 1 -0 0
    outer loop
      vertex 2.5 50 11.1
      vertex 2.5 63.2983 4.1
      vertex 2.5 63.2983 11.1
    endloop
  endfacet
  facet normal 1 0 0
    outer loop
      vertex 2.5 63.2983 4.1
      vertex 2.5 50 11.1
      vertex 2.5 50 4.1
    endloop
  endfacet
  facet normal -1 0 0
    outer loop
      vertex 15.5 50 4.1
      vertex 15.5 63.8818 11.1
      vertex 15.5 63.8818 4.1
    endloop
  endfacet
  facet normal -1 -0 0
    outer loop
      vertex 15.5 63.8818 11.1
      vertex 15.5 50 4.1
      vertex 15.5 50 11.1
    endloop
  endfacet
  facet normal -0 0 1
    outer loop
      vertex 4.44531 63.8818 4.1
      vertex 15.5 50 4.1
      vertex 15.5 63.8818 4.1
    endloop
  endfacet
  facet normal 0 0 1
    outer loop
      vertex 2.5 63.2983 4.1
      vertex 4.44531 63.8818 4.1
      vertex 3.68457 63.8018 4.1
    endloop
  endfacet
  facet normal 0 0 1
    outer loop
      vertex 2.5 63.2983 4.1
      vertex 3.68457 63.8018 4.1
      vertex 2.98047 63.5723 4.1
    endloop
  endfacet
  facet normal 0 0 1
    outer loop
      vertex 4.44531 63.8818 4.1
      vertex 2.5 63.2983 4.1
      vertex 2.5 50 4.1
    endloop
  endfacet
  facet normal 0 0 1
    outer loop
      vertex 4.44531 63.8818 4.1
      vertex 2.5 50 4.1
      vertex 15.5 50 4.1
    endloop
  endfacet
  facet normal 0 1 -0
    outer loop
      vertex 15.5 50 4.1
      vertex 2.5 50 11.1
      vertex 15.5 50 11.1
    endloop
  endfacet
  facet normal 0 1 0
    outer loop
      vertex 2.5 50 11.1
      vertex 15.5 50 4.1
      vertex 2.5 50 4.1
    endloop
  endfacet
  facet normal 1 -0 0
    outer loop
      vertex 83.5 50 11.1
      vertex 83.5 64.8564 4.1
      vertex 83.5 64.8564 11.1
    endloop
  endfacet
  facet normal 1 0 0
    outer loop
      vertex 83.5 64.8564 4.1
      vertex 83.5 50 11.1
      vertex 83.5 50 4.1
    endloop
  endfacet
  facet normal -1 0 0
    outer loop
      vertex 96.5 50 4.1
      vertex 96.5 63.3595 11.1
      vertex 96.5 63.3595 4.1
    endloop
  endfacet
  facet normal -1 -0 0
    outer loop
      vertex 96.5 63.3595 11.1
      vertex 96.5 50 4.1
      vertex 96.5 50 11.1
    endloop
  endfacet
  facet normal 0 0 1
    outer loop
      vertex 83.6934 64.8564 4.1
      vertex 83.5 64.8564 4.1
      vertex 83.6934 63.8809 4.1
    endloop
  endfacet
  facet normal 0 0 1
    outer loop
      vertex 95.4189 63.8008 4.1
      vertex 96.5 63.3595 4.1
      vertex 96.125 63.5723 4.1
    endloop
  endfacet
  facet normal 0 0 1
    outer loop
      vertex 96.5 63.3595 4.1
      vertex 95.4189 63.8008 4.1
      vertex 94.6582 63.8809 4.1
    endloop
  endfacet
  facet normal 0 0 1
    outer loop
      vertex 96.5 63.3595 4.1
      vertex 94.6582 63.8809 4.1
      vertex 96.5 50 4.1
    endloop
  endfacet
  facet normal 0 0 1
    outer loop
      vertex 83.5 50 4.1
      vertex 94.6582 63.8809 4.1
      vertex 83.6934 63.8809 4.1
    endloop
  endfacet
  facet normal 0 0 1
    outer loop
      vertex 94.6582 63.8809 4.1
      vertex 83.5 50 4.1
      vertex 96.5 50 4.1
    endloop
  endfacet
  facet normal 0 0 1
    outer loop
      vertex 83.5 50 4.1
      vertex 83.6934 63.8809 4.1
      vertex 83.5 64.8564 4.1
    endloop
  endfacet
  facet normal 0 1 -0
    outer loop
      vertex 96.5 50 4.1
      vertex 83.5 50 11.1
      vertex 96.5 50 11.1
    endloop
  endfacet
  facet normal 0 1 0
    outer loop
      vertex 83.5 50 11.1
      vertex 96.5 50 4.1
      vertex 83.5 50 4.1
    endloop
  endfacet
  facet normal 1 -0 0
    outer loop
      vertex 8 0.0498047 8.35
      vertex 8 0.25 4.35
      vertex 8 0.25 8.35
    endloop
  endfacet
  facet normal 1 0 0
    outer loop
      vertex 8 0.25 4.35
      vertex 8 0.0498047 8.35
      vertex 8 0.0498047 4.35
    endloop
  endfacet
  facet normal 0 0 -1
    outer loop
      vertex 16 0.0498047 8.35
      vertex 12 0.25 8.35
      vertex 16 1.5 8.35
    endloop
  endfacet
  facet normal 0 0 -1
    outer loop
      vertex 8 0.0498047 8.35
      vertex 12 0.25 8.35
      vertex 16 0.0498047 8.35
    endloop
  endfacet
  facet normal -0 0 -1
    outer loop
      vertex 12 0.25 8.35
      vertex 8 0.0498047 8.35
      vertex 8 0.25 8.35
    endloop
  endfacet
  facet normal -0 0 -1
    outer loop
      vertex 16 1.5 8.35
      vertex 12 0.25 8.35
      vertex 12 1.5 8.35
    endloop
  endfacet
  facet normal 1 -0 0
    outer loop
      vertex 12 0.25 8.35
      vertex 12 1.5 4.35
      vertex 12 1.5 8.35
    endloop
  endfacet
  facet normal 1 0 0
    outer loop
      vertex 12 1.5 4.35
      vertex 12 0.25 8.35
      vertex 12 0.25 4.35
    endloop
  endfacet
  facet normal 0 -1 0
    outer loop
      vertex 8 0.25 4.35
      vertex 12 0.25 8.35
      vertex 8 0.25 8.35
    endloop
  endfacet
  facet normal 0 -1 -0
    outer loop
      vertex 12 0.25 8.35
      vertex 8 0.25 4.35
      vertex 12 0.25 4.35
    endloop
  endfacet
  facet normal 0 0 1
    outer loop
      vertex 12 0.25 4.35
      vertex 16 1.5 4.35
      vertex 12 1.5 4.35
    endloop
  endfacet
  facet normal 0 0 1
    outer loop
      vertex 16 1.5 4.35
      vertex 12 0.25 4.35
      vertex 16 0.0498047 4.35
    endloop
  endfacet
  facet normal 0 0 1
    outer loop
      vertex 8 0.0498047 4.35
      vertex 12 0.25 4.35
      vertex 8 0.25 4.35
    endloop
  endfacet
  facet normal 0 0 1
    outer loop
      vertex 12 0.25 4.35
      vertex 8 0.0498047 4.35
      vertex 16 0.0498047 4.35
    endloop
  endfacet
  facet normal -1 0 0
    outer loop
      vertex 16 0.0498047 4.35
      vertex 16 1.5 8.35
      vertex 16 1.5 4.35
    endloop
  endfacet
  facet normal -1 -0 0
    outer loop
      vertex 16 1.5 8.35
      vertex 16 0.0498047 4.35
      vertex 16 0.0498047 8.35
    endloop
  endfacet
  facet normal 0 -1 0
    outer loop
      vertex 12 1.5 4.35
      vertex 16 1.5 8.35
      vertex 12 1.5 8.35
    endloop
  endfacet
  facet normal 0 -1 -0
    outer loop
      vertex 16 1.5 8.35
      vertex 12 1.5 4.35
      vertex 16 1.5 4.35
    endloop
  endfacet
  facet normal -1 0 0
    outer loop
      vertex 87 0.25 4.35
      vertex 87 1.5 8.35
      vertex 87 1.5 4.35
    endloop
  endfacet
  facet normal -1 -0 0
    outer loop
      vertex 87 1.5 8.35
      vertex 87 0.25 4.35
      vertex 87 0.25 8.35
    endloop
  endfacet
  facet normal 0 0 -1
    outer loop
      vertex 91 0.0498047 8.35
      vertex 87 0.25 8.35
      vertex 91 0.25 8.35
    endloop
  endfacet
  facet normal 0 0 -1
    outer loop
      vertex 83 0.0498047 8.35
      vertex 87 0.25 8.35
      vertex 91 0.0498047 8.35
    endloop
  endfacet
  facet normal 0 0 -1
    outer loop
      vertex 83 1.5 8.35
      vertex 87 0.25 8.35
      vertex 83 0.0498047 8.35
    endloop
  endfacet
  facet normal 0 0 -1
    outer loop
      vertex 87 0.25 8.35
      vertex 83 1.5 8.35
      vertex 87 1.5 8.35
    endloop
  endfacet
  facet normal -1 0 0
    outer loop
      vertex 91 0.0498047 4.35
      vertex 91 0.25 8.35
      vertex 91 0.25 4.35
    endloop
  endfacet
  facet normal -1 -0 0
    outer loop
      vertex 91 0.25 8.35
      vertex 91 0.0498047 4.35
      vertex 91 0.0498047 8.35
    endloop
  endfacet
  facet normal 0 0 1
    outer loop
      vertex 87 1.5 4.35
      vertex 83 1.5 4.35
      vertex 87 0.25 4.35
    endloop
  endfacet
  facet normal -0 0 1
    outer loop
      vertex 87 0.25 4.35
      vertex 91 0.0498047 4.35
      vertex 91 0.25 4.35
    endloop
  endfacet
  facet normal 0 0 1
    outer loop
      vertex 87 0.25 4.35
      vertex 83 0.0498047 4.35
      vertex 91 0.0498047 4.35
    endloop
  endfacet
  facet normal 0 0 1
    outer loop
      vertex 83 0.0498047 4.35
      vertex 87 0.25 4.35
      vertex 83 1.5 4.35
    endloop
  endfacet
  facet normal 0 -1 0
    outer loop
      vertex 87 0.25 4.35
      vertex 91 0.25 8.35
      vertex 87 0.25 8.35
    endloop
  endfacet
  facet normal 0 -1 -0
    outer loop
      vertex 91 0.25 8.35
      vertex 87 0.25 4.35
      vertex 91 0.25 4.35
    endloop
  endfacet
  facet normal 1 -0 0
    outer loop
      vertex 83 0.0498047 8.35
      vertex 83 1.5 4.35
      vertex 83 1.5 8.35
    endloop
  endfacet
  facet normal 1 0 0
    outer loop
      vertex 83 1.5 4.35
      vertex 83 0.0498047 8.35
      vertex 83 0.0498047 4.35
    endloop
  endfacet
  facet normal 0 -1 0
    outer loop
      vertex 83 1.5 4.35
      vertex 87 1.5 8.35
      vertex 83 1.5 8.35
    endloop
  endfacet
  facet normal 0 -1 -0
    outer loop
      vertex 87 1.5 8.35
      vertex 83 1.5 4.35
      vertex 87 1.5 4.35
    endloop
  endfacet
  facet normal 1 -0 0
    outer loop
      vertex 39 0.0498047 6.85
      vertex 39 1 5.85
      vertex 39 1 6.85
    endloop
  endfacet
  facet normal 1 0 0
    outer loop
      vertex 39 1 5.85
      vertex 39 0.0498047 6.85
      vertex 39 0.0498047 5.85
    endloop
  endfacet
  facet normal 0 0 -1
    outer loop
      vertex 41.5 0.0498047 6.85
      vertex 43 1 6.85
      vertex 43 0.0498047 6.85
    endloop
  endfacet
  facet normal -0 0 -1
    outer loop
      vertex 43 1 6.85
      vertex 41.5 0.0498047 6.85
      vertex 41.5 1 6.85
    endloop
  endfacet
  facet normal 0 0 -1
    outer loop
      vertex 39 0.0498047 6.85
      vertex 40.5 1 6.85
      vertex 40.5 0.0498047 6.85
    endloop
  endfacet
  facet normal -0 0 -1
    outer loop
      vertex 40.5 1 6.85
      vertex 39 0.0498047 6.85
      vertex 39 1 6.85
    endloop
  endfacet
  facet normal -1 0 0
    outer loop
      vertex 43 0.0498047 5.85
      vertex 43 1 6.85
      vertex 43 1 5.85
    endloop
  endfacet
  facet normal -1 -0 0
    outer loop
      vertex 43 1 6.85
      vertex 43 0.0498047 5.85
      vertex 43 0.0498047 6.85
    endloop
  endfacet
  facet normal -0 0 1
    outer loop
      vertex 39 1 5.85
      vertex 40.5 0.0498047 5.85
      vertex 40.5 1 5.85
    endloop
  endfacet
  facet normal 0 0 1
    outer loop
      vertex 40.5 0.0498047 5.85
      vertex 39 1 5.85
      vertex 39 0.0498047 5.85
    endloop
  endfacet
  facet normal -0 0 1
    outer loop
      vertex 41.5 1 5.85
      vertex 43 0.0498047 5.85
      vertex 43 1 5.85
    endloop
  endfacet
  facet normal 0 0 1
    outer loop
      vertex 43 0.0498047 5.85
      vertex 41.5 1 5.85
      vertex 41.5 0.0498047 5.85
    endloop
  endfacet
  facet normal 0 -1 0
    outer loop
      vertex 40.5 1 4.35
      vertex 41.5 1 5.85
      vertex 40.5 1 5.85
    endloop
  endfacet
  facet normal 0 -1 -0
    outer loop
      vertex 41.5 1 5.85
      vertex 40.5 1 4.35
      vertex 41.5 1 4.35
    endloop
  endfacet
  facet normal 0 -1 0
    outer loop
      vertex 40.5 1 5.85
      vertex 40.5 1 6.85
      vertex 39 1 6.85
    endloop
  endfacet
  facet normal 0 -1 0
    outer loop
      vertex 40.5 1 6.85
      vertex 40.5 1 5.85
      vertex 41.5 1 6.85
    endloop
  endfacet
  facet normal 0 -1 0
    outer loop
      vertex 40.5 1 5.85
      vertex 39 1 6.85
      vertex 39 1 5.85
    endloop
  endfacet
  facet normal 0 -1 0
    outer loop
      vertex 41.5 1 5.85
      vertex 41.5 1 6.85
      vertex 40.5 1 5.85
    endloop
  endfacet
  facet normal 0 -1 0
    outer loop
      vertex 41.5 1 6.85
      vertex 41.5 1 5.85
      vertex 43 1 6.85
    endloop
  endfacet
  facet normal 0 -1 -0
    outer loop
      vertex 43 1 6.85
      vertex 41.5 1 5.85
      vertex 43 1 5.85
    endloop
  endfacet
  facet normal 0 -1 0
    outer loop
      vertex 40.5 1 6.85
      vertex 41.5 1 8.35
      vertex 40.5 1 8.35
    endloop
  endfacet
  facet normal 0 -1 -0
    outer loop
      vertex 41.5 1 8.35
      vertex 40.5 1 6.85
      vertex 41.5 1 6.85
    endloop
  endfacet
  facet normal 1 -0 0
    outer loop
      vertex 40.5 0.0498047 5.85
      vertex 40.5 1 4.35
      vertex 40.5 1 5.85
    endloop
  endfacet
  facet normal 1 0 0
    outer loop
      vertex 40.5 1 4.35
      vertex 40.5 0.0498047 5.85
      vertex 40.5 0.0498047 4.35
    endloop
  endfacet
  facet normal 1 -0 0
    outer loop
      vertex 40.5 0.0498047 8.35
      vertex 40.5 1 6.85
      vertex 40.5 1 8.35
    endloop
  endfacet
  facet normal 1 0 0
    outer loop
      vertex 40.5 1 6.85
      vertex 40.5 0.0498047 8.35
      vertex 40.5 0.0498047 6.85
    endloop
  endfacet
  facet normal 0 0 -1
    outer loop
      vertex 40.5 0.0498047 8.35
      vertex 41.5 1 8.35
      vertex 41.5 0.0498047 8.35
    endloop
  endfacet
  facet normal -0 0 -1
    outer loop
      vertex 41.5 1 8.35
      vertex 40.5 0.0498047 8.35
      vertex 40.5 1 8.35
    endloop
  endfacet
  facet normal -1 0 0
    outer loop
      vertex 41.5 0.0498047 6.85
      vertex 41.5 1 8.35
      vertex 41.5 1 6.85
    endloop
  endfacet
  facet normal -1 -0 0
    outer loop
      vertex 41.5 1 8.35
      vertex 41.5 0.0498047 6.85
      vertex 41.5 0.0498047 8.35
    endloop
  endfacet
  facet normal -1 0 0
    outer loop
      vertex 41.5 0.0498047 4.35
      vertex 41.5 1 5.85
      vertex 41.5 1 4.35
    endloop
  endfacet
  facet normal -1 -0 0
    outer loop
      vertex 41.5 1 5.85
      vertex 41.5 0.0498047 4.35
      vertex 41.5 0.0498047 5.85
    endloop
  endfacet
  facet normal -0 0 1
    outer loop
      vertex 40.5 1 4.35
      vertex 41.5 0.0498047 4.35
      vertex 41.5 1 4.35
    endloop
  endfacet
  facet normal 0 0 1
    outer loop
      vertex 41.5 0.0498047 4.35
      vertex 40.5 1 4.35
      vertex 40.5 0.0498047 4.35
    endloop
  endfacet
  facet normal 1 -0 0
    outer loop
      vertex 56 0.0498047 6.85
      vertex 56 1 5.85
      vertex 56 1 6.85
    endloop
  endfacet
  facet normal 1 0 0
    outer loop
      vertex 56 1 5.85
      vertex 56 0.0498047 6.85
      vertex 56 0.0498047 5.85
    endloop
  endfacet
  facet normal 0 0 -1
    outer loop
      vertex 56 0.0498047 6.85
      vertex 60 1 6.85
      vertex 60 0.0498047 6.85
    endloop
  endfacet
  facet normal -0 0 -1
    outer loop
      vertex 60 1 6.85
      vertex 56 0.0498047 6.85
      vertex 56 1 6.85
    endloop
  endfacet
  facet normal -1 0 0
    outer loop
      vertex 60 0.0498047 5.85
      vertex 60 1 6.85
      vertex 60 1 5.85
    endloop
  endfacet
  facet normal -1 -0 0
    outer loop
      vertex 60 1 6.85
      vertex 60 0.0498047 5.85
      vertex 60 0.0498047 6.85
    endloop
  endfacet
  facet normal 0 -1 0
    outer loop
      vertex 56 1 5.85
      vertex 60 1 6.85
      vertex 56 1 6.85
    endloop
  endfacet
  facet normal 0 -1 -0
    outer loop
      vertex 60 1 6.85
      vertex 56 1 5.85
      vertex 60 1 5.85
    endloop
  endfacet
  facet normal -0 0 1
    outer loop
      vertex 56 1 5.85
      vertex 60 0.0498047 5.85
      vertex 60 1 5.85
    endloop
  endfacet
  facet normal 0 0 1
    outer loop
      vertex 60 0.0498047 5.85
      vertex 56 1 5.85
      vertex 56 0.0498047 5.85
    endloop
  endfacet
endsolid OpenSCAD_Model
