  0
SECTION
  2
HEADER
  9
$ACADVER
  1
AC1014
  9
$HANDSEED
  5
FFFF
  9
$MEASUREMENT
 70
     1
  0
ENDSEC
  0
SECTION
  2
TABLES
  0
TABLE
  2
VPORT
  5
8
330
0
100
AcDbSymbolTable
 70
     4
  0
VPORT
  5
2E
330
8
100
AcDbSymbolTableRecord
100
AcDbViewportTableRecord
  2
*ACTIVE
 70
     0
 10
0.0
 20
0.0
 11
1.0
 21
1.0
 12
210.0
 22
148.5
 13
0.0
 23
0.0
 14
10.0
 24
10.0
 15
10.0
 25
10.0
 16
0.0
 26
0.0
 36
1.0
 17
0.0
 27
0.0
 37
0.0
 40
341.0
 41
1.24
 42
50.0
 43
0.0
 44
0.0
 50
0.0
 51
0.0
 71
     0
 72
   100
 73
     1
 74
     3
 75
     0
 76
     0
 77
     0
 78
     0
  0
ENDTAB
  0
TABLE
  2
LTYPE
  5
5
330
0
100
AcDbSymbolTable
 70
     1
  0
LTYPE
  5
14
330
5
100
AcDbSymbolTableRecord
100
AcDbLinetypeTableRecord
  2
BYBLOCK
 70
     0
  3

 72
    65
 73
     0
 40
0.0
  0
LTYPE
  5
15
330
5
100
AcDbSymbolTableRecord
100
AcDbLinetypeTableRecord
  2
BYLAYER
 70
     0
  3

 72
    65
 73
     0
 40
0.0
  0
LTYPE
  5
16
330
5
100
AcDbSymbolTableRecord
100
AcDbLinetypeTableRecord
  2
CONTINUOUS
 70
     0
  3
Solid line
 72
    65
 73
     0
 40
0.0
  0
ENDTAB
  0
TABLE
  2
LAYER
  5
2
100
AcDbSymbolTable
 70
2
  0
LAYER
  5
50
100
AcDbSymbolTableRecord
100
AcDbLayerTableRecord
  2
0
 70
0
  6
CONTINUOUS
  0
LAYER
  5
51
100
AcDbSymbolTableRecord
100
AcDbLayerTableRecord
  2
Layer_1
 70
0
  6
CONTINUOUS
  0
ENDTAB
  0
TABLE
  2
STYLE
  5
3
330
0
100
AcDbSymbolTable
 70
     1
  0
STYLE
  5
11
330
3
100
AcDbSymbolTableRecord
100
AcDbTextStyleTableRecord
  2
STANDARD
 70
     0
 40
0.0
 41
1.0
 50
0.0
 71
     0
 42
2.5
  3
txt
  4

  0
ENDTAB
  0
TABLE
  2
VIEW
  5
6
330
0
100
AcDbSymbolTable
 70
     0
  0
ENDTAB
  0
TABLE
  2
UCS
  5
7
330
0
100
AcDbSymbolTable
 70
     0
  0
ENDTAB
  0
TABLE
  2
APPID
  5
9
330
0
100
AcDbSymbolTable
 70
     2
  0
APPID
  5
12
330
9
100
AcDbSymbolTableRecord
100
AcDbRegAppTableRecord
  2
ACAD
 70
     0
  0
ENDTAB
  0
TABLE
  2
DIMSTYLE
  5
A
330
0
100
AcDbSymbolTable
 70
     1
  0
DIMSTYLE
105
27
330
A
100
AcDbSymbolTableRecord
100
AcDbDimStyleTableRecord
  2
ISO-25
 70
     0
  3

  4

  5

  6

  7

 40
1.0
 41
2.5
 42
0.625
 43
3.75
 44
1.25
 45
0.0
 46
0.0
 47
0.0
 48
0.0
140
2.5
141
2.5
142
0.0
143
0.03937007874016
144
1.0
145
0.0
146
1.0
147
0.625
 71
     0
 72
     0
 73
     0
 74
     0
 75
     0
 76
     0
 77
     1
 78
     8
170
     0
171
     3
172
     1
173
     0
174
     0
175
     0
176
     0
177
     0
178
     0
270
     2
271
     2
272
     2
273
     2
274
     3
340
11
275
     0
280
     0
281
     0
282
     0
283
     0
284
     8
285
     0
286
     0
287
     3
288
     0
  0
ENDTAB
  0
TABLE
  2
BLOCK_RECORD
  5
1
330
0
100
AcDbSymbolTable
 70
     1
  0
BLOCK_RECORD
  5
1F
330
1
100
AcDbSymbolTableRecord
100
AcDbBlockTableRecord
  2
*MODEL_SPACE
  0
BLOCK_RECORD
  5
1B
330
1
100
AcDbSymbolTableRecord
100
AcDbBlockTableRecord
  2
*PAPER_SPACE
  0
ENDTAB
  0
ENDSEC
  0
SECTION
  2
BLOCKS
  0
BLOCK
  5
20
330
1F
100
AcDbEntity
  8
0
100
AcDbBlockBegin
  2
*MODEL_SPACE
 70
     0
 10
0.0
 20
0.0
 30
0.0
  3
*MODEL_SPACE
  1

  0
ENDBLK
  5
21
330
1F
100
AcDbEntity
  8
0
100
AcDbBlockEnd
  0
BLOCK
  5
1C
330
1B
100
AcDbEntity
 67
     1
  8
0
100
AcDbBlockBegin
  2
*PAPER_SPACE
  1

  0
ENDBLK
  5
1D
330
1B
100
AcDbEntity
 67
     1
  8
0
100
AcDbBlockEnd
  0
ENDSEC
  0
SECTION
  2
ENTITIES
  0
LWPOLYLINE
  5
100
100
AcDbEntity
  8
Layer_1
 62
1
100
AcDbPolyline
 90
209
 70
1
 10
68.027132
 20
269.627483
 30
0.0
 10
68.027132
 20
269.505596
 30
0.0
 10
68.027132
 20
269.383708
 30
0.0
 10
68.027132
 20
269.261821
 30
0.0
 10
68.027132
 20
269.139934
 30
0.0
 10
68.027132
 20
269.018046
 30
0.0
 10
68.027132
 20
268.896159
 30
0.0
 10
68.027132
 20
268.774270
 30
0.0
 10
68.027132
 20
268.652384
 30
0.0
 10
66.643374
 20
268.652384
 30
0.0
 10
65.259619
 20
268.652384
 30
0.0
 10
63.875861
 20
268.652384
 30
0.0
 10
62.492103
 20
268.652384
 30
0.0
 10
61.108347
 20
268.652384
 30
0.0
 10
59.724589
 20
268.652384
 30
0.0
 10
58.340834
 20
268.652384
 30
0.0
 10
56.957076
 20
268.652384
 30
0.0
 10
56.196828
 20
268.572024
 30
0.0
 10
55.492817
 20
268.342597
 30
0.0
 10
54.858948
 20
267.981575
 30
0.0
 10
54.309137
 20
267.506440
 30
0.0
 10
53.857291
 20
266.934666
 30
0.0
 10
53.517323
 20
266.283729
 30
0.0
 10
53.303139
 20
265.571104
 30
0.0
 10
53.228655
 20
264.814271
 30
0.0
 10
53.228655
 20
264.649804
 30
0.0
 10
53.228655
 20
264.485333
 30
0.0
 10
53.228655
 20
264.320865
 30
0.0
 10
53.228655
 20
264.156397
 30
0.0
 10
53.228655
 20
263.991927
 30
0.0
 10
53.228655
 20
263.827459
 30
0.0
 10
53.228655
 20
263.662988
 30
0.0
 10
53.228655
 20
263.498520
 30
0.0
 10
53.228655
 20
263.475576
 30
0.0
 10
53.228655
 20
263.452631
 30
0.0
 10
53.228655
 20
263.429686
 30
0.0
 10
53.228655
 20
263.406742
 30
0.0
 10
53.228655
 20
263.383797
 30
0.0
 10
53.228655
 20
263.360852
 30
0.0
 10
53.228655
 20
263.337908
 30
0.0
 10
53.228655
 20
263.314963
 30
0.0
 10
53.145351
 20
263.205272
 30
0.0
 10
53.062051
 20
263.095580
 30
0.0
 10
52.978747
 20
262.985889
 30
0.0
 10
52.895446
 20
262.876195
 30
0.0
 10
52.812143
 20
262.766504
 30
0.0
 10
52.728839
 20
262.656812
 30
0.0
 10
52.645539
 20
262.547121
 30
0.0
 10
52.562235
 20
262.437430
 30
0.0
 10
52.565678
 20
260.597612
 30
0.0
 10
52.569121
 20
258.757791
 30
0.0
 10
52.572564
 20
256.917973
 30
0.0
 10
52.576008
 20
255.078152
 30
0.0
 10
52.579451
 20
253.238334
 30
0.0
 10
52.582894
 20
251.398516
 30
0.0
 10
52.586337
 20
249.558696
 30
0.0
 10
52.589780
 20
247.718878
 30
0.0
 10
52.686173
 20
247.591753
 30
0.0
 10
52.782566
 20
247.464629
 30
0.0
 10
52.878962
 20
247.337505
 30
0.0
 10
52.975355
 20
247.210384
 30
0.0
 10
53.071748
 20
247.083260
 30
0.0
 10
53.168144
 20
246.956135
 30
0.0
 10
53.264537
 20
246.829011
 30
0.0
 10
53.360930
 20
246.701887
 30
0.0
 10
53.360930
 20
246.520331
 30
0.0
 10
53.360930
 20
246.338774
 30
0.0
 10
53.360930
 20
246.157218
 30
0.0
 10
53.360930
 20
245.975662
 30
0.0
 10
53.360930
 20
245.794102
 30
0.0
 10
53.360930
 20
245.612546
 30
0.0
 10
53.360930
 20
245.430990
 30
0.0
 10
53.360930
 20
245.249433
 30
0.0
 10
53.360930
 20
240.667318
 30
0.0
 10
53.360930
 20
236.085204
 30
0.0
 10
53.360930
 20
231.503089
 30
0.0
 10
53.360930
 20
226.920974
 30
0.0
 10
53.360930
 20
222.338859
 30
0.0
 10
53.360930
 20
217.756744
 30
0.0
 10
53.360930
 20
213.174629
 30
0.0
 10
53.360930
 20
208.592514
 30
0.0
 10
53.360930
 20
208.592303
 30
0.0
 10
53.360930
 20
208.592091
 30
0.0
 10
53.360930
 20
208.591879
 30
0.0
 10
53.360930
 20
208.591668
 30
0.0
 10
53.360930
 20
208.591456
 30
0.0
 10
53.360930
 20
208.591244
 30
0.0
 10
53.360930
 20
208.591033
 30
0.0
 10
53.360930
 20
208.590821
 30
0.0
 10
53.433159
 20
207.854622
 30
0.0
 10
53.636201
 20
207.157999
 30
0.0
 10
53.958549
 20
206.519005
 30
0.0
 10
54.388695
 20
205.955701
 30
0.0
 10
54.915127
 20
205.486140
 30
0.0
 10
55.526339
 20
205.128383
 30
0.0
 10
56.210818
 20
204.900489
 30
0.0
 10
56.957059
 20
204.820510
 30
0.0
 10
68.233753
 20
204.820510
 30
0.0
 10
79.510444
 20
204.820510
 30
0.0
 10
90.787138
 20
204.820510
 30
0.0
 10
102.063829
 20
204.820510
 30
0.0
 10
113.340523
 20
204.820510
 30
0.0
 10
124.617218
 20
204.820510
 30
0.0
 10
135.893909
 20
204.820510
 30
0.0
 10
147.170603
 20
204.820510
 30
0.0
 10
147.922121
 20
204.898423
 30
0.0
 10
148.620443
 20
205.121342
 30
0.0
 10
149.251086
 20
205.473025
 30
0.0
 10
149.799554
 20
205.937241
 30
0.0
 10
150.251363
 20
206.497751
 30
0.0
 10
150.592022
 20
207.138316
 30
0.0
 10
150.807042
 20
207.842706
 30
0.0
 10
150.881935
 20
208.594682
 30
0.0
 10
150.881935
 20
213.268643
 30
0.0
 10
150.881935
 20
217.942604
 30
0.0
 10
150.881935
 20
222.616566
 30
0.0
 10
150.881935
 20
227.290524
 30
0.0
 10
150.881935
 20
231.964485
 30
0.0
 10
150.881935
 20
236.638447
 30
0.0
 10
150.881935
 20
241.312408
 30
0.0
 10
150.881935
 20
245.986369
 30
0.0
 10
150.881935
 20
246.081108
 30
0.0
 10
150.881935
 20
246.175850
 30
0.0
 10
150.881935
 20
246.270589
 30
0.0
 10
150.881935
 20
246.365329
 30
0.0
 10
150.881935
 20
246.460071
 30
0.0
 10
150.881935
 20
246.554810
 30
0.0
 10
150.881935
 20
246.649552
 30
0.0
 10
150.881935
 20
246.744291
 30
0.0
 10
150.963514
 20
246.871483
 30
0.0
 10
151.045093
 20
246.998678
 30
0.0
 10
151.126675
 20
247.125870
 30
0.0
 10
151.208255
 20
247.253064
 30
0.0
 10
151.289834
 20
247.380256
 30
0.0
 10
151.371413
 20
247.507448
 30
0.0
 10
151.452995
 20
247.634643
 30
0.0
 10
151.534574
 20
247.761835
 30
0.0
 10
151.538017
 20
249.595797
 30
0.0
 10
151.541460
 20
251.429758
 30
0.0
 10
151.544903
 20
253.263720
 30
0.0
 10
151.548346
 20
255.097682
 30
0.0
 10
151.551790
 20
256.931644
 30
0.0
 10
151.555233
 20
258.765606
 30
0.0
 10
151.558676
 20
260.599568
 30
0.0
 10
151.562119
 20
262.433529
 30
0.0
 10
151.479919
 20
262.543291
 30
0.0
 10
151.397719
 20
262.653050
 30
0.0
 10
151.315519
 20
262.762812
 30
0.0
 10
151.233319
 20
262.872571
 30
0.0
 10
151.151119
 20
262.982333
 30
0.0
 10
151.068919
 20
263.092095
 30
0.0
 10
150.986719
 20
263.201854
 30
0.0
 10
150.904519
 20
263.311616
 30
0.0
 10
150.904519
 20
263.347653
 30
0.0
 10
150.904519
 20
263.383687
 30
0.0
 10
150.904519
 20
263.419724
 30
0.0
 10
150.904519
 20
263.455758
 30
0.0
 10
150.904519
 20
263.491795
 30
0.0
 10
150.904519
 20
263.527832
 30
0.0
 10
150.904519
 20
263.563866
 30
0.0
 10
150.904519
 20
263.599903
 30
0.0
 10
150.904519
 20
263.750937
 30
0.0
 10
150.904519
 20
263.901968
 30
0.0
 10
150.904519
 20
264.053002
 30
0.0
 10
150.904519
 20
264.204034
 30
0.0
 10
150.904519
 20
264.355068
 30
0.0
 10
150.904519
 20
264.506102
 30
0.0
 10
150.904519
 20
264.657133
 30
0.0
 10
150.904519
 20
264.808167
 30
0.0
 10
150.833475
 20
265.568079
 30
0.0
 10
150.620377
 20
266.282660
 30
0.0
 10
150.279724
 20
266.934655
 30
0.0
 10
149.826012
 20
267.506804
 30
0.0
 10
149.273745
 20
267.981849
 30
0.0
 10
148.637419
 20
268.342535
 30
0.0
 10
147.931533
 20
268.571600
 30
0.0
 10
147.170586
 20
268.651791
 30
0.0
 10
145.799920
 20
268.651791
 30
0.0
 10
144.429254
 20
268.651791
 30
0.0
 10
143.058588
 20
268.651791
 30
0.0
 10
141.687925
 20
268.651791
 30
0.0
 10
140.317260
 20
268.651791
 30
0.0
 10
138.946594
 20
268.651791
 30
0.0
 10
137.575928
 20
268.651791
 30
0.0
 10
136.205262
 20
268.651791
 30
0.0
 10
136.205262
 20
268.773748
 30
0.0
 10
136.205262
 20
268.895704
 30
0.0
 10
136.205262
 20
269.017660
 30
0.0
 10
136.205262
 20
269.139616
 30
0.0
 10
136.205262
 20
269.261572
 30
0.0
 10
136.205262
 20
269.383529
 30
0.0
 10
136.205262
 20
269.505485
 30
0.0
 10
136.205262
 20
269.627441
 30
0.0
 10
127.682992
 20
269.627441
 30
0.0
 10
119.160722
 20
269.627441
 30
0.0
 10
110.638452
 20
269.627441
 30
0.0
 10
102.116182
 20
269.627441
 30
0.0
 10
93.593909
 20
269.627441
 30
0.0
 10
85.071639
 20
269.627441
 30
0.0
 10
76.549369
 20
269.627441
 30
0.0
 10
68.027098
 20
269.627441
 30
0.0
 10
68.027096
 20
269.627446
 30
0.0
 10
68.027093
 20
269.627451
 30
0.0
 10
68.027090
 20
269.627456
 30
0.0
 10
68.027087
 20
269.627461
 30
0.0
 10
68.027084
 20
269.627466
 30
0.0
 10
68.027082
 20
269.627471
 30
0.0
 10
68.027079
 20
269.627476
 30
0.0
 10
68.027132
 20
269.627483
 30
0.0
  0
LWPOLYLINE
  5
101
100
AcDbEntity
  8
Layer_1
 62
1
100
AcDbPolyline
 90
33
 70
1
 10
74.396544
 20
266.237112
 30
0.0
 10
74.366013
 20
265.934248
 30
0.0
 10
74.278445
 20
265.652158
 30
0.0
 10
74.139888
 20
265.396885
 30
0.0
 10
73.956384
 20
265.174477
 30
0.0
 10
73.733973
 20
264.990974
 30
0.0
 10
73.478703
 20
264.852417
 30
0.0
 10
73.196614
 20
264.764852
 30
0.0
 10
72.893747
 20
264.734321
 30
0.0
 10
72.590883
 20
264.764852
 30
0.0
 10
72.308793
 20
264.852419
 30
0.0
 10
72.053523
 20
264.990974
 30
0.0
 10
71.831115
 20
265.174480
 30
0.0
 10
71.647609
 20
265.396888
 30
0.0
 10
71.509055
 20
265.652158
 30
0.0
 10
71.421487
 20
265.934248
 30
0.0
 10
71.390956
 20
266.237112
 30
0.0
 10
71.421487
 20
266.539979
 30
0.0
 10
71.509052
 20
266.822068
 30
0.0
 10
71.647609
 20
267.077338
 30
0.0
 10
71.831113
 20
267.299749
 30
0.0
 10
72.053521
 20
267.483253
 30
0.0
 10
72.308791
 20
267.621810
 30
0.0
 10
72.590883
 20
267.709378
 30
0.0
 10
72.893747
 20
267.739908
 30
0.0
 10
73.196614
 20
267.709378
 30
0.0
 10
73.478703
 20
267.621812
 30
0.0
 10
73.733976
 20
267.483255
 30
0.0
 10
73.956384
 20
267.299749
 30
0.0
 10
74.139891
 20
267.077341
 30
0.0
 10
74.278448
 20
266.822068
 30
0.0
 10
74.366013
 20
266.539979
 30
0.0
 10
74.396544
 20
266.237112
 30
0.0
  0
LWPOLYLINE
  5
102
100
AcDbEntity
  8
Layer_1
 62
1
100
AcDbPolyline
 90
33
 70
1
 10
132.733429
 20
266.237112
 30
0.0
 10
132.702898
 20
265.934248
 30
0.0
 10
132.615330
 20
265.652158
 30
0.0
 10
132.476776
 20
265.396888
 30
0.0
 10
132.293270
 20
265.174480
 30
0.0
 10
132.070862
 20
264.990974
 30
0.0
 10
131.815592
 20
264.852419
 30
0.0
 10
131.533502
 20
264.764852
 30
0.0
 10
131.230638
 20
264.734321
 30
0.0
 10
130.927771
 20
264.764852
 30
0.0
 10
130.645682
 20
264.852417
 30
0.0
 10
130.390412
 20
264.990974
 30
0.0
 10
130.168001
 20
265.174477
 30
0.0
 10
129.984497
 20
265.396885
 30
0.0
 10
129.845940
 20
265.652155
 30
0.0
 10
129.758372
 20
265.934248
 30
0.0
 10
129.727841
 20
266.237112
 30
0.0
 10
129.758372
 20
266.539979
 30
0.0
 10
129.845937
 20
266.822068
 30
0.0
 10
129.984494
 20
267.077341
 30
0.0
 10
130.168001
 20
267.299749
 30
0.0
 10
130.390409
 20
267.483255
 30
0.0
 10
130.645682
 20
267.621812
 30
0.0
 10
130.927771
 20
267.709378
 30
0.0
 10
131.230638
 20
267.739908
 30
0.0
 10
131.533502
 20
267.709378
 30
0.0
 10
131.815594
 20
267.621810
 30
0.0
 10
132.070864
 20
267.483253
 30
0.0
 10
132.293273
 20
267.299749
 30
0.0
 10
132.476776
 20
267.077338
 30
0.0
 10
132.615333
 20
266.822068
 30
0.0
 10
132.702898
 20
266.539979
 30
0.0
 10
132.733429
 20
266.237112
 30
0.0
  0
LWPOLYLINE
  5
103
100
AcDbEntity
  8
Layer_1
 62
1
100
AcDbPolyline
 90
225
 70
1
 10
83.801898
 20
237.954277
 30
0.0
 10
83.543730
 20
238.092935
 30
0.0
 10
83.286196
 20
238.211440
 30
0.0
 10
83.038552
 20
238.304495
 30
0.0
 10
82.810040
 20
238.366795
 30
0.0
 10
82.609913
 20
238.393042
 30
0.0
 10
82.447421
 20
238.377943
 30
0.0
 10
82.331814
 20
238.316190
 30
0.0
 10
82.272344
 20
238.202483
 30
0.0
 10
82.240524
 20
238.043490
 30
0.0
 10
82.208703
 20
237.884500
 30
0.0
 10
82.176882
 20
237.725507
 30
0.0
 10
82.145062
 20
237.566515
 30
0.0
 10
82.113241
 20
237.407525
 30
0.0
 10
82.081421
 20
237.248532
 30
0.0
 10
82.049600
 20
237.089542
 30
0.0
 10
82.017780
 20
236.930549
 30
0.0
 10
81.868191
 20
236.955103
 30
0.0
 10
81.717820
 20
236.972375
 30
0.0
 10
81.566930
 20
236.982394
 30
0.0
 10
81.415777
 20
236.985216
 30
0.0
 10
81.264627
 20
236.980700
 30
0.0
 10
81.113740
 20
236.968903
 30
0.0
 10
80.963378
 20
236.949853
 30
0.0
 10
80.813800
 20
236.923550
 30
0.0
 10
80.781821
 20
237.083477
 30
0.0
 10
80.749840
 20
237.243407
 30
0.0
 10
80.717861
 20
237.403334
 30
0.0
 10
80.685883
 20
237.563261
 30
0.0
 10
80.653904
 20
237.723187
 30
0.0
 10
80.621923
 20
237.883117
 30
0.0
 10
80.589944
 20
238.043044
 30
0.0
 10
80.557965
 20
238.202971
 30
0.0
 10
80.382878
 20
238.378426
 30
0.0
 10
80.020225
 20
238.367250
 30
0.0
 10
79.544017
 20
238.211838
 30
0.0
 10
79.028270
 20
237.954593
 30
0.0
 10
78.546991
 20
237.637906
 30
0.0
 10
78.174187
 20
237.304172
 30
0.0
 10
77.983873
 20
236.995788
 30
0.0
 10
78.050060
 20
236.755154
 30
0.0
 10
78.173295
 20
236.646829
 30
0.0
 10
78.296530
 20
236.538500
 30
0.0
 10
78.419768
 20
236.430172
 30
0.0
 10
78.543003
 20
236.321847
 30
0.0
 10
78.666238
 20
236.213522
 30
0.0
 10
78.789474
 20
236.105193
 30
0.0
 10
78.912712
 20
235.996865
 30
0.0
 10
79.035947
 20
235.888540
 30
0.0
 10
78.987128
 20
235.830955
 30
0.0
 10
78.939703
 20
235.772256
 30
0.0
 10
78.893687
 20
235.712464
 30
0.0
 10
78.849104
 20
235.651609
 30
0.0
 10
78.805969
 20
235.589714
 30
0.0
 10
78.764305
 20
235.526807
 30
0.0
 10
78.724125
 20
235.462915
 30
0.0
 10
78.685449
 20
235.398063
 30
0.0
 10
78.648758
 20
235.332164
 30
0.0
 10
78.613649
 20
235.265444
 30
0.0
 10
78.580135
 20
235.197936
 30
0.0
 10
78.548227
 20
235.129667
 30
0.0
 10
78.517942
 20
235.060663
 30
0.0
 10
78.489291
 20
234.990960
 30
0.0
 10
78.462282
 20
234.920582
 30
0.0
 10
78.436938
 20
234.849558
 30
0.0
 10
78.281380
 20
234.902086
 30
0.0
 10
78.125822
 20
234.954613
 30
0.0
 10
77.970264
 20
235.007140
 30
0.0
 10
77.814703
 20
235.059670
 30
0.0
 10
77.659145
 20
235.112197
 30
0.0
 10
77.503587
 20
235.164724
 30
0.0
 10
77.348029
 20
235.217252
 30
0.0
 10
77.192471
 20
235.269779
 30
0.0
 10
76.952977
 20
235.205918
 30
0.0
 10
76.781324
 20
234.886377
 30
0.0
 10
76.677799
 20
234.396428
 30
0.0
 10
76.642697
 20
233.821341
 30
0.0
 10
76.676306
 20
233.246381
 30
0.0
 10
76.778920
 20
232.756821
 30
0.0
 10
76.950824
 20
232.437927
 30
0.0
 10
77.192310
 20
232.374975
 30
0.0
 10
77.346629
 20
232.427129
 30
0.0
 10
77.500948
 20
232.479284
 30
0.0
 10
77.655268
 20
232.531439
 30
0.0
 10
77.809584
 20
232.583593
 30
0.0
 10
77.963903
 20
232.635748
 30
0.0
 10
78.118222
 20
232.687903
 30
0.0
 10
78.272541
 20
232.740057
 30
0.0
 10
78.426860
 20
232.792212
 30
0.0
 10
78.478984
 20
232.649391
 30
0.0
 10
78.537805
 20
232.509527
 30
0.0
 10
78.603184
 20
232.372852
 30
0.0
 10
78.674999
 20
232.239593
 30
0.0
 10
78.753118
 20
232.109977
 30
0.0
 10
78.837409
 20
231.984227
 30
0.0
 10
78.927743
 20
231.862578
 30
0.0
 10
79.023992
 20
231.745255
 30
0.0
 10
78.902210
 20
231.638203
 30
0.0
 10
78.780431
 20
231.531147
 30
0.0
 10
78.658649
 20
231.424095
 30
0.0
 10
78.536868
 20
231.317042
 30
0.0
 10
78.415089
 20
231.209987
 30
0.0
 10
78.293307
 20
231.102934
 30
0.0
 10
78.171528
 20
230.995879
 30
0.0
 10
78.049747
 20
230.888826
 30
0.0
 10
77.985326
 20
230.649485
 30
0.0
 10
78.176284
 20
230.341050
 30
0.0
 10
78.548905
 20
230.006408
 30
0.0
 10
79.029484
 20
229.688448
 30
0.0
 10
79.544305
 20
229.430059
 30
0.0
 10
80.019658
 20
229.274129
 30
0.0
 10
80.381831
 20
229.263545
 30
0.0
 10
80.557116
 20
229.441199
 30
0.0
 10
80.588982
 20
229.600270
 30
0.0
 10
80.620847
 20
229.759342
 30
0.0
 10
80.652716
 20
229.918414
 30
0.0
 10
80.684582
 20
230.077483
 30
0.0
 10
80.716447
 20
230.236554
 30
0.0
 10
80.748313
 20
230.395626
 30
0.0
 10
80.780182
 20
230.554698
 30
0.0
 10
80.812047
 20
230.713770
 30
0.0
 10
80.961837
 20
230.689132
 30
0.0
 10
81.112414
 20
230.671803
 30
0.0
 10
81.263513
 20
230.661756
 30
0.0
 10
81.414871
 20
230.658934
 30
0.0
 10
81.566233
 20
230.663449
 30
0.0
 10
81.717329
 20
230.675246
 30
0.0
 10
81.867900
 20
230.694324
 30
0.0
 10
82.017681
 20
230.720684
 30
0.0
 10
82.049660
 20
230.560757
 30
0.0
 10
82.081638
 20
230.400827
 30
0.0
 10
82.113620
 20
230.240901
 30
0.0
 10
82.145598
 20
230.080974
 30
0.0
 10
82.177577
 20
229.921047
 30
0.0
 10
82.209555
 20
229.761117
 30
0.0
 10
82.241537
 20
229.601190
 30
0.0
 10
82.273515
 20
229.441263
 30
0.0
 10
82.448778
 20
229.263607
 30
0.0
 10
82.810900
 20
229.274191
 30
0.0
 10
83.286177
 20
229.430104
 30
0.0
 10
83.800910
 20
229.688479
 30
0.0
 10
84.281399
 20
230.006422
 30
0.0
 10
84.653947
 20
230.341050
 30
0.0
 10
84.844850
 20
230.649477
 30
0.0
 10
84.780408
 20
230.888815
 30
0.0
 10
84.657091
 20
230.997188
 30
0.0
 10
84.533777
 20
231.105562
 30
0.0
 10
84.410460
 20
231.213935
 30
0.0
 10
84.287146
 20
231.322311
 30
0.0
 10
84.163829
 20
231.430685
 30
0.0
 10
84.040514
 20
231.539058
 30
0.0
 10
83.917197
 20
231.647431
 30
0.0
 10
83.793883
 20
231.755805
 30
0.0
 10
83.842702
 20
231.813389
 30
0.0
 10
83.890129
 20
231.872089
 30
0.0
 10
83.936143
 20
231.931877
 30
0.0
 10
83.980726
 20
231.992733
 30
0.0
 10
84.023860
 20
232.054627
 30
0.0
 10
84.065528
 20
232.117532
 30
0.0
 10
84.105708
 20
232.181424
 30
0.0
 10
84.144383
 20
232.246276
 30
0.0
 10
84.181134
 20
232.312248
 30
0.0
 10
84.216299
 20
232.379042
 30
0.0
 10
84.249867
 20
232.446628
 30
0.0
 10
84.281823
 20
232.514977
 30
0.0
 10
84.312150
 20
232.584062
 30
0.0
 10
84.340844
 20
232.653850
 30
0.0
 10
84.367881
 20
232.724312
 30
0.0
 10
84.393253
 20
232.795424
 30
0.0
 10
84.548890
 20
232.742849
 30
0.0
 10
84.704527
 20
232.690276
 30
0.0
 10
84.860164
 20
232.637701
 30
0.0
 10
85.015801
 20
232.585126
 30
0.0
 10
85.171441
 20
232.532554
 30
0.0
 10
85.327078
 20
232.479978
 30
0.0
 10
85.482715
 20
232.427406
 30
0.0
 10
85.638352
 20
232.374831
 30
0.0
 10
85.879824
 20
232.437803
 30
0.0
 10
86.051692
 20
232.756737
 30
0.0
 10
86.154252
 20
233.246356
 30
0.0
 10
86.187796
 20
233.821383
 30
0.0
 10
86.152626
 20
234.396541
 30
0.0
 10
86.049039
 20
234.886549
 30
0.0
 10
85.877327
 20
235.206129
 30
0.0
 10
85.637788
 20
235.270007
 30
0.0
 10
85.483469
 20
235.217853
 30
0.0
 10
85.329149
 20
235.165698
 30
0.0
 10
85.174830
 20
235.113541
 30
0.0
 10
85.020511
 20
235.061386
 30
0.0
 10
84.866192
 20
235.009231
 30
0.0
 10
84.711873
 20
234.957074
 30
0.0
 10
84.557554
 20
234.904919
 30
0.0
 10
84.403235
 20
234.852764
 30
0.0
 10
84.350979
 20
234.995436
 30
0.0
 10
84.292039
 20
235.135145
 30
0.0
 10
84.226547
 20
235.271664
 30
0.0
 10
84.154634
 20
235.404766
 30
0.0
 10
84.076430
 20
235.534221
 30
0.0
 10
83.992062
 20
235.659804
 30
0.0
 10
83.901664
 20
235.781290
 30
0.0
 10
83.805364
 20
235.898449
 30
0.0
 10
83.927143
 20
236.005501
 30
0.0
 10
84.048925
 20
236.112554
 30
0.0
 10
84.170706
 20
236.219606
 30
0.0
 10
84.292485
 20
236.326662
 30
0.0
 10
84.414264
 20
236.433714
 30
0.0
 10
84.536046
 20
236.540767
 30
0.0
 10
84.657825
 20
236.647819
 30
0.0
 10
84.779606
 20
236.754872
 30
0.0
 10
84.849400
 20
236.864072
 30
0.0
 10
84.845844
 20
236.995508
 30
0.0
 10
84.778173
 20
237.143884
 30
0.0
 10
84.655640
 20
237.303896
 30
0.0
 10
84.487492
 20
237.470243
 30
0.0
 10
84.282971
 20
237.637626
 30
0.0
 10
84.051326
 20
237.800742
 30
0.0
 10
83.801799
 20
237.954296
 30
0.0
 10
83.801811
 20
237.954296
 30
0.0
 10
83.801822
 20
237.954294
 30
0.0
 10
83.801833
 20
237.954294
 30
0.0
 10
83.801845
 20
237.954291
 30
0.0
 10
83.801859
 20
237.954291
 30
0.0
 10
83.801870
 20
237.954288
 30
0.0
 10
83.801881
 20
237.954285
 30
0.0
 10
83.801898
 20
237.954277
 30
0.0
  0
LWPOLYLINE
  5
104
100
AcDbEntity
  8
Layer_1
 62
1
100
AcDbPolyline
 90
225
 70
1
 10
125.095754
 20
237.954277
 30
0.0
 10
124.837585
 20
238.092935
 30
0.0
 10
124.580052
 20
238.211440
 30
0.0
 10
124.332407
 20
238.304495
 30
0.0
 10
124.103895
 20
238.366795
 30
0.0
 10
123.903768
 20
238.393042
 30
0.0
 10
123.741276
 20
238.377943
 30
0.0
 10
123.625669
 20
238.316190
 30
0.0
 10
123.566199
 20
238.202483
 30
0.0
 10
123.534379
 20
238.043490
 30
0.0
 10
123.502558
 20
237.884500
 30
0.0
 10
123.470738
 20
237.725507
 30
0.0
 10
123.438917
 20
237.566515
 30
0.0
 10
123.407097
 20
237.407525
 30
0.0
 10
123.375276
 20
237.248532
 30
0.0
 10
123.343456
 20
237.089542
 30
0.0
 10
123.311635
 20
236.930549
 30
0.0
 10
123.162046
 20
236.955103
 30
0.0
 10
123.011675
 20
236.972375
 30
0.0
 10
122.860785
 20
236.982394
 30
0.0
 10
122.709632
 20
236.985216
 30
0.0
 10
122.558483
 20
236.980700
 30
0.0
 10
122.407595
 20
236.968903
 30
0.0
 10
122.257233
 20
236.949853
 30
0.0
 10
122.107655
 20
236.923550
 30
0.0
 10
122.075677
 20
237.083477
 30
0.0
 10
122.043698
 20
237.243407
 30
0.0
 10
122.011717
 20
237.403334
 30
0.0
 10
121.979738
 20
237.563261
 30
0.0
 10
121.947759
 20
237.723187
 30
0.0
 10
121.915781
 20
237.883117
 30
0.0
 10
121.883799
 20
238.043044
 30
0.0
 10
121.851821
 20
238.202971
 30
0.0
 10
121.676733
 20
238.378426
 30
0.0
 10
121.314080
 20
238.367250
 30
0.0
 10
120.837873
 20
238.211838
 30
0.0
 10
120.322126
 20
237.954593
 30
0.0
 10
119.840846
 20
237.637906
 30
0.0
 10
119.468042
 20
237.304172
 30
0.0
 10
119.277728
 20
236.995788
 30
0.0
 10
119.343915
 20
236.755154
 30
0.0
 10
119.467150
 20
236.646829
 30
0.0
 10
119.590385
 20
236.538500
 30
0.0
 10
119.713623
 20
236.430172
 30
0.0
 10
119.836859
 20
236.321847
 30
0.0
 10
119.960094
 20
236.213522
 30
0.0
 10
120.083329
 20
236.105193
 30
0.0
 10
120.206567
 20
235.996865
 30
0.0
 10
120.329802
 20
235.888540
 30
0.0
 10
120.280983
 20
235.830955
 30
0.0
 10
120.233559
 20
235.772256
 30
0.0
 10
120.187542
 20
235.712464
 30
0.0
 10
120.142960
 20
235.651609
 30
0.0
 10
120.099825
 20
235.589714
 30
0.0
 10
120.058160
 20
235.526807
 30
0.0
 10
120.017980
 20
235.462915
 30
0.0
 10
119.979305
 20
235.398063
 30
0.0
 10
119.942613
 20
235.332164
 30
0.0
 10
119.907504
 20
235.265444
 30
0.0
 10
119.873990
 20
235.197936
 30
0.0
 10
119.842082
 20
235.129667
 30
0.0
 10
119.811797
 20
235.060663
 30
0.0
 10
119.783146
 20
234.990960
 30
0.0
 10
119.756137
 20
234.920582
 30
0.0
 10
119.730794
 20
234.849558
 30
0.0
 10
119.575236
 20
234.902086
 30
0.0
 10
119.419678
 20
234.954613
 30
0.0
 10
119.264120
 20
235.007140
 30
0.0
 10
119.108559
 20
235.059670
 30
0.0
 10
118.953001
 20
235.112197
 30
0.0
 10
118.797443
 20
235.164724
 30
0.0
 10
118.641884
 20
235.217252
 30
0.0
 10
118.486326
 20
235.269779
 30
0.0
 10
118.246833
 20
235.205918
 30
0.0
 10
118.075179
 20
234.886377
 30
0.0
 10
117.971655
 20
234.396428
 30
0.0
 10
117.936552
 20
233.821341
 30
0.0
 10
117.970162
 20
233.246381
 30
0.0
 10
118.072775
 20
232.756821
 30
0.0
 10
118.244679
 20
232.437927
 30
0.0
 10
118.486166
 20
232.374975
 30
0.0
 10
118.640485
 20
232.427129
 30
0.0
 10
118.794804
 20
232.479284
 30
0.0
 10
118.949123
 20
232.531439
 30
0.0
 10
119.103439
 20
232.583593
 30
0.0
 10
119.257758
 20
232.635748
 30
0.0
 10
119.412077
 20
232.687903
 30
0.0
 10
119.566396
 20
232.740057
 30
0.0
 10
119.720716
 20
232.792212
 30
0.0
 10
119.772839
 20
232.649391
 30
0.0
 10
119.831660
 20
232.509527
 30
0.0
 10
119.897040
 20
232.372852
 30
0.0
 10
119.968854
 20
232.239593
 30
0.0
 10
120.046973
 20
232.109977
 30
0.0
 10
120.131264
 20
231.984227
 30
0.0
 10
120.221598
 20
231.862578
 30
0.0
 10
120.317847
 20
231.745255
 30
0.0
 10
120.196065
 20
231.638203
 30
0.0
 10
120.074286
 20
231.531147
 30
0.0
 10
119.952505
 20
231.424095
 30
0.0
 10
119.830723
 20
231.317042
 30
0.0
 10
119.708944
 20
231.209987
 30
0.0
 10
119.587162
 20
231.102934
 30
0.0
 10
119.465384
 20
230.995879
 30
0.0
 10
119.343602
 20
230.888826
 30
0.0
 10
119.279182
 20
230.649485
 30
0.0
 10
119.470139
 20
230.341050
 30
0.0
 10
119.842760
 20
230.006408
 30
0.0
 10
120.323339
 20
229.688448
 30
0.0
 10
120.838160
 20
229.430059
 30
0.0
 10
121.313513
 20
229.274129
 30
0.0
 10
121.675686
 20
229.263545
 30
0.0
 10
121.850971
 20
229.441199
 30
0.0
 10
121.882837
 20
229.600270
 30
0.0
 10
121.914706
 20
229.759342
 30
0.0
 10
121.946571
 20
229.918414
 30
0.0
 10
121.978437
 20
230.077483
 30
0.0
 10
122.010303
 20
230.236554
 30
0.0
 10
122.042168
 20
230.395626
 30
0.0
 10
122.074037
 20
230.554698
 30
0.0
 10
122.105903
 20
230.713770
 30
0.0
 10
122.255692
 20
230.689132
 30
0.0
 10
122.406269
 20
230.671803
 30
0.0
 10
122.557368
 20
230.661756
 30
0.0
 10
122.708726
 20
230.658934
 30
0.0
 10
122.860088
 20
230.663449
 30
0.0
 10
123.011184
 20
230.675246
 30
0.0
 10
123.161755
 20
230.694324
 30
0.0
 10
123.311536
 20
230.720684
 30
0.0
 10
123.343515
 20
230.560757
 30
0.0
 10
123.375493
 20
230.400827
 30
0.0
 10
123.407475
 20
230.240901
 30
0.0
 10
123.439453
 20
230.080974
 30
0.0
 10
123.471432
 20
229.921047
 30
0.0
 10
123.503413
 20
229.761117
 30
0.0
 10
123.535392
 20
229.601190
 30
0.0
 10
123.567371
 20
229.441263
 30
0.0
 10
123.742633
 20
229.263607
 30
0.0
 10
124.104756
 20
229.274191
 30
0.0
 10
124.580032
 20
229.430104
 30
0.0
 10
125.094766
 20
229.688479
 30
0.0
 10
125.575255
 20
230.006422
 30
0.0
 10
125.947802
 20
230.341050
 30
0.0
 10
126.138706
 20
230.649477
 30
0.0
 10
126.074263
 20
230.888815
 30
0.0
 10
125.950949
 20
230.997188
 30
0.0
 10
125.827632
 20
231.105562
 30
0.0
 10
125.704315
 20
231.213935
 30
0.0
 10
125.581001
 20
231.322311
 30
0.0
 10
125.457684
 20
231.430685
 30
0.0
 10
125.334370
 20
231.539058
 30
0.0
 10
125.211055
 20
231.647431
 30
0.0
 10
125.087738
 20
231.755805
 30
0.0
 10
125.136557
 20
231.813389
 30
0.0
 10
125.183985
 20
231.872089
 30
0.0
 10
125.229998
 20
231.931877
 30
0.0
 10
125.274581
 20
231.992733
 30
0.0
 10
125.317716
 20
232.054627
 30
0.0
 10
125.359383
 20
232.117532
 30
0.0
 10
125.399563
 20
232.181424
 30
0.0
 10
125.438239
 20
232.246276
 30
0.0
 10
125.474990
 20
232.312248
 30
0.0
 10
125.510155
 20
232.379042
 30
0.0
 10
125.543722
 20
232.446628
 30
0.0
 10
125.575678
 20
232.514977
 30
0.0
 10
125.606006
 20
232.584062
 30
0.0
 10
125.634699
 20
232.653850
 30
0.0
 10
125.661736
 20
232.724312
 30
0.0
 10
125.687108
 20
232.795424
 30
0.0
 10
125.842745
 20
232.742849
 30
0.0
 10
125.998382
 20
232.690276
 30
0.0
 10
126.154019
 20
232.637701
 30
0.0
 10
126.309656
 20
232.585126
 30
0.0
 10
126.465296
 20
232.532554
 30
0.0
 10
126.620933
 20
232.479978
 30
0.0
 10
126.776570
 20
232.427406
 30
0.0
 10
126.932207
 20
232.374831
 30
0.0
 10
127.173680
 20
232.437803
 30
0.0
 10
127.345547
 20
232.756737
 30
0.0
 10
127.448107
 20
233.246356
 30
0.0
 10
127.481652
 20
233.821383
 30
0.0
 10
127.446481
 20
234.396541
 30
0.0
 10
127.342894
 20
234.886549
 30
0.0
 10
127.171182
 20
235.206129
 30
0.0
 10
126.931643
 20
235.270007
 30
0.0
 10
126.777324
 20
235.217853
 30
0.0
 10
126.623005
 20
235.165698
 30
0.0
 10
126.468686
 20
235.113541
 30
0.0
 10
126.314367
 20
235.061386
 30
0.0
 10
126.160047
 20
235.009231
 30
0.0
 10
126.005728
 20
234.957074
 30
0.0
 10
125.851409
 20
234.904919
 30
0.0
 10
125.697090
 20
234.852764
 30
0.0
 10
125.644834
 20
234.995436
 30
0.0
 10
125.585895
 20
235.135145
 30
0.0
 10
125.520402
 20
235.271664
 30
0.0
 10
125.448489
 20
235.404766
 30
0.0
 10
125.370285
 20
235.534221
 30
0.0
 10
125.285918
 20
235.659804
 30
0.0
 10
125.195519
 20
235.781290
 30
0.0
 10
125.099219
 20
235.898449
 30
0.0
 10
125.221001
 20
236.005501
 30
0.0
 10
125.342780
 20
236.112554
 30
0.0
 10
125.464562
 20
236.219606
 30
0.0
 10
125.586340
 20
236.326662
 30
0.0
 10
125.708119
 20
236.433714
 30
0.0
 10
125.829901
 20
236.540767
 30
0.0
 10
125.951680
 20
236.647819
 30
0.0
 10
126.073462
 20
236.754872
 30
0.0
 10
126.143255
 20
236.864072
 30
0.0
 10
126.139699
 20
236.995508
 30
0.0
 10
126.072028
 20
237.143884
 30
0.0
 10
125.949496
 20
237.303896
 30
0.0
 10
125.781348
 20
237.470243
 30
0.0
 10
125.576827
 20
237.637626
 30
0.0
 10
125.345182
 20
237.800742
 30
0.0
 10
125.095655
 20
237.954296
 30
0.0
 10
125.095666
 20
237.954296
 30
0.0
 10
125.095677
 20
237.954294
 30
0.0
 10
125.095689
 20
237.954294
 30
0.0
 10
125.095703
 20
237.954291
 30
0.0
 10
125.095714
 20
237.954291
 30
0.0
 10
125.095725
 20
237.954288
 30
0.0
 10
125.095737
 20
237.954285
 30
0.0
 10
125.095754
 20
237.954277
 30
0.0
  0
ENDSEC
  0
SECTION
  2
OBJECTS
  0
DICTIONARY
  5
C
330
0
100
AcDbDictionary
  3
ACAD_GROUP
350
D
  3
ACAD_MLINESTYLE
350
17
  0
DICTIONARY
  5
D
330
C
100
AcDbDictionary
  0
DICTIONARY
  5
1A
330
C
100
AcDbDictionary
  0
DICTIONARY
  5
17
330
C
100
AcDbDictionary
  3
STANDARD
350
18
  0
DICTIONARY
  5
19
330
C
100
AcDbDictionary
  0
ENDSEC
  0
EOF
