  0
SECTION
  2
HEADER
  9
$ACADVER
  1
AC1014
  9
$HANDSEED
  5
FFFF
  9
$MEASUREMENT
 70
     1
  0
ENDSEC
  0
SECTION
  2
TABLES
  0
TABLE
  2
VPORT
  5
8
330
0
100
AcDbSymbolTable
 70
     4
  0
VPORT
  5
2E
330
8
100
AcDbSymbolTableRecord
100
AcDbViewportTableRecord
  2
*ACTIVE
 70
     0
 10
0.0
 20
0.0
 11
1.0
 21
1.0
 12
210.0
 22
148.5
 13
0.0
 23
0.0
 14
10.0
 24
10.0
 15
10.0
 25
10.0
 16
0.0
 26
0.0
 36
1.0
 17
0.0
 27
0.0
 37
0.0
 40
341.0
 41
1.24
 42
50.0
 43
0.0
 44
0.0
 50
0.0
 51
0.0
 71
     0
 72
   100
 73
     1
 74
     3
 75
     0
 76
     0
 77
     0
 78
     0
  0
ENDTAB
  0
TABLE
  2
LTYPE
  5
5
330
0
100
AcDbSymbolTable
 70
     1
  0
LTYPE
  5
14
330
5
100
AcDbSymbolTableRecord
100
AcDbLinetypeTableRecord
  2
BYBLOCK
 70
     0
  3

 72
    65
 73
     0
 40
0.0
  0
LTYPE
  5
15
330
5
100
AcDbSymbolTableRecord
100
AcDbLinetypeTableRecord
  2
BYLAYER
 70
     0
  3

 72
    65
 73
     0
 40
0.0
  0
LTYPE
  5
16
330
5
100
AcDbSymbolTableRecord
100
AcDbLinetypeTableRecord
  2
CONTINUOUS
 70
     0
  3
Solid line
 72
    65
 73
     0
 40
0.0
  0
ENDTAB
  0
TABLE
  2
LAYER
  5
2
100
AcDbSymbolTable
 70
2
  0
LAYER
  5
50
100
AcDbSymbolTableRecord
100
AcDbLayerTableRecord
  2
0
 70
0
  6
CONTINUOUS
  0
LAYER
  5
51
100
AcDbSymbolTableRecord
100
AcDbLayerTableRecord
  2
Layer_1
 70
0
  6
CONTINUOUS
  0
ENDTAB
  0
TABLE
  2
STYLE
  5
3
330
0
100
AcDbSymbolTable
 70
     1
  0
STYLE
  5
11
330
3
100
AcDbSymbolTableRecord
100
AcDbTextStyleTableRecord
  2
STANDARD
 70
     0
 40
0.0
 41
1.0
 50
0.0
 71
     0
 42
2.5
  3
txt
  4

  0
ENDTAB
  0
TABLE
  2
VIEW
  5
6
330
0
100
AcDbSymbolTable
 70
     0
  0
ENDTAB
  0
TABLE
  2
UCS
  5
7
330
0
100
AcDbSymbolTable
 70
     0
  0
ENDTAB
  0
TABLE
  2
APPID
  5
9
330
0
100
AcDbSymbolTable
 70
     2
  0
APPID
  5
12
330
9
100
AcDbSymbolTableRecord
100
AcDbRegAppTableRecord
  2
ACAD
 70
     0
  0
ENDTAB
  0
TABLE
  2
DIMSTYLE
  5
A
330
0
100
AcDbSymbolTable
 70
     1
  0
DIMSTYLE
105
27
330
A
100
AcDbSymbolTableRecord
100
AcDbDimStyleTableRecord
  2
ISO-25
 70
     0
  3

  4

  5

  6

  7

 40
1.0
 41
2.5
 42
0.625
 43
3.75
 44
1.25
 45
0.0
 46
0.0
 47
0.0
 48
0.0
140
2.5
141
2.5
142
0.0
143
0.03937007874016
144
1.0
145
0.0
146
1.0
147
0.625
 71
     0
 72
     0
 73
     0
 74
     0
 75
     0
 76
     0
 77
     1
 78
     8
170
     0
171
     3
172
     1
173
     0
174
     0
175
     0
176
     0
177
     0
178
     0
270
     2
271
     2
272
     2
273
     2
274
     3
340
11
275
     0
280
     0
281
     0
282
     0
283
     0
284
     8
285
     0
286
     0
287
     3
288
     0
  0
ENDTAB
  0
TABLE
  2
BLOCK_RECORD
  5
1
330
0
100
AcDbSymbolTable
 70
     1
  0
BLOCK_RECORD
  5
1F
330
1
100
AcDbSymbolTableRecord
100
AcDbBlockTableRecord
  2
*MODEL_SPACE
  0
BLOCK_RECORD
  5
1B
330
1
100
AcDbSymbolTableRecord
100
AcDbBlockTableRecord
  2
*PAPER_SPACE
  0
ENDTAB
  0
ENDSEC
  0
SECTION
  2
BLOCKS
  0
BLOCK
  5
20
330
1F
100
AcDbEntity
  8
0
100
AcDbBlockBegin
  2
*MODEL_SPACE
 70
     0
 10
0.0
 20
0.0
 30
0.0
  3
*MODEL_SPACE
  1

  0
ENDBLK
  5
21
330
1F
100
AcDbEntity
  8
0
100
AcDbBlockEnd
  0
BLOCK
  5
1C
330
1B
100
AcDbEntity
 67
     1
  8
0
100
AcDbBlockBegin
  2
*PAPER_SPACE
  1

  0
ENDBLK
  5
1D
330
1B
100
AcDbEntity
 67
     1
  8
0
100
AcDbBlockEnd
  0
ENDSEC
  0
SECTION
  2
ENTITIES
  0
LWPOLYLINE
  5
100
100
AcDbEntity
  8
Layer_1
 62
7
100
AcDbPolyline
 90
132
 70
1
 10
82.928680
 20
62.220372
 30
0.0
 10
79.551338
 20
48.660136
 30
0.0
 10
77.632447
 20
48.660136
 30
0.0
 10
75.713548
 20
48.660136
 30
0.0
 10
75.692494
 20
54.031110
 30
0.0
 10
75.671440
 20
59.402084
 30
0.0
 10
74.668854
 20
59.425029
 30
0.0
 10
73.666268
 20
59.447973
 30
0.0
 10
73.668526
 20
59.098283
 30
0.0
 10
73.952732
 20
58.544379
 30
0.0
 10
74.234675
 20
58.340158
 30
0.0
 10
74.236933
 20
57.502858
 30
0.0
 10
74.239191
 20
56.665558
 30
0.0
 10
73.461674
 20
56.665558
 30
0.0
 10
72.684160
 20
56.665558
 30
0.0
 10
72.684160
 20
57.686655
 30
0.0
 10
72.684160
 20
58.707752
 30
0.0
 10
72.929688
 20
58.707752
 30
0.0
 10
73.175221
 20
59.075347
 30
0.0
 10
73.175221
 20
59.442944
 30
0.0
 10
70.269766
 20
59.442944
 30
0.0
 10
67.364308
 20
59.442944
 30
0.0
 10
67.365437
 20
59.095771
 30
0.0
 10
67.651892
 20
58.564045
 30
0.0
 10
67.937332
 20
58.379500
 30
0.0
 10
67.937332
 20
57.522529
 30
0.0
 10
67.937332
 20
56.665558
 30
0.0
 10
67.159813
 20
56.665558
 30
0.0
 10
66.382299
 20
56.665558
 30
0.0
 10
66.382299
 20
57.686655
 30
0.0
 10
66.382299
 20
58.707752
 30
0.0
 10
66.627829
 20
58.707752
 30
0.0
 10
66.873360
 20
59.075347
 30
0.0
 10
66.873360
 20
59.442944
 30
0.0
 10
63.967902
 20
59.442944
 30
0.0
 10
61.062447
 20
59.442944
 30
0.0
 10
61.062447
 20
59.075347
 30
0.0
 10
61.160271
 20
58.707752
 30
0.0
 10
61.487648
 20
58.488251
 30
0.0
 10
61.717197
 20
57.467151
 30
0.0
 10
61.717197
 20
56.665558
 30
0.0
 10
60.898758
 20
56.665558
 30
0.0
 10
60.080322
 20
56.665558
 30
0.0
 10
60.080322
 20
57.686655
 30
0.0
 10
60.080322
 20
58.707752
 30
0.0
 10
60.325849
 20
58.707752
 30
0.0
 10
60.571383
 20
59.076394
 30
0.0
 10
60.571383
 20
59.445035
 30
0.0
 10
57.686386
 20
59.423558
 30
0.0
 10
54.801392
 20
59.402081
 30
0.0
 10
54.776218
 20
59.054911
 30
0.0
 10
54.853583
 20
58.707735
 30
0.0
 10
55.185666
 20
58.488234
 30
0.0
 10
55.415217
 20
57.467134
 30
0.0
 10
55.415217
 20
56.665539
 30
0.0
 10
54.596778
 20
56.665539
 30
0.0
 10
53.778336
 20
56.665539
 30
0.0
 10
53.778336
 20
57.686638
 30
0.0
 10
53.778336
 20
58.707735
 30
0.0
 10
54.023870
 20
58.707735
 30
0.0
 10
54.269400
 20
59.076377
 30
0.0
 10
54.269400
 20
59.445018
 30
0.0
 10
51.384406
 20
59.423541
 30
0.0
 10
48.499406
 20
59.402064
 30
0.0
 10
48.474232
 20
59.054894
 30
0.0
 10
48.551595
 20
58.707718
 30
0.0
 10
48.883680
 20
58.488217
 30
0.0
 10
49.113226
 20
57.467118
 30
0.0
 10
49.113226
 20
56.665525
 30
0.0
 10
48.340385
 20
56.665525
 30
0.0
 10
47.567551
 20
56.665525
 30
0.0
 10
47.542405
 20
57.686771
 30
0.0
 10
47.517259
 20
58.708015
 30
0.0
 10
47.742331
 20
58.707871
 30
0.0
 10
47.967398
 20
59.075316
 30
0.0
 10
47.967398
 20
59.442910
 30
0.0
 10
45.102862
 20
59.442910
 30
0.0
 10
42.238329
 20
59.442910
 30
0.0
 10
42.238329
 20
59.113664
 30
0.0
 10
42.524782
 20
58.533387
 30
0.0
 10
42.811234
 20
58.282356
 30
0.0
 10
42.811234
 20
57.473939
 30
0.0
 10
42.811234
 20
56.665525
 30
0.0
 10
42.033718
 20
56.665525
 30
0.0
 10
41.256204
 20
56.665525
 30
0.0
 10
41.256204
 20
57.686621
 30
0.0
 10
41.256204
 20
58.707718
 30
0.0
 10
41.506442
 20
58.707718
 30
0.0
 10
41.731509
 20
59.054894
 30
0.0
 10
41.706334
 20
59.402064
 30
0.0
 10
38.821337
 20
59.423541
 30
0.0
 10
35.936343
 20
59.445018
 30
0.0
 10
35.936343
 20
59.114725
 30
0.0
 10
36.222796
 20
58.533404
 30
0.0
 10
36.509249
 20
58.282373
 30
0.0
 10
36.509249
 20
57.473956
 30
0.0
 10
36.509249
 20
56.665539
 30
0.0
 10
35.731729
 20
56.665539
 30
0.0
 10
34.954213
 20
56.665539
 30
0.0
 10
34.954213
 20
57.686638
 30
0.0
 10
34.954213
 20
58.707735
 30
0.0
 10
35.204451
 20
58.707735
 30
0.0
 10
35.429526
 20
59.054911
 30
0.0
 10
35.404352
 20
59.402081
 30
0.0
 10
32.519355
 20
59.423558
 30
0.0
 10
29.634361
 20
59.445035
 30
0.0
 10
29.634361
 20
59.114742
 30
0.0
 10
29.920816
 20
58.533421
 30
0.0
 10
30.207269
 20
58.282390
 30
0.0
 10
30.207269
 20
57.473973
 30
0.0
 10
30.207269
 20
56.665558
 30
0.0
 10
29.429750
 20
56.665558
 30
0.0
 10
28.652236
 20
56.665558
 30
0.0
 10
28.652236
 20
57.686655
 30
0.0
 10
28.652236
 20
58.707752
 30
0.0
 10
28.902474
 20
58.707752
 30
0.0
 10
29.127543
 20
59.054928
 30
0.0
 10
29.102369
 20
59.402098
 30
0.0
 10
26.299214
 20
59.423603
 30
0.0
 10
23.496061
 20
59.445109
 30
0.0
 10
23.496061
 20
55.390165
 30
0.0
 10
23.496061
 20
51.335224
 30
0.0
 10
23.080642
 20
50.659105
 30
0.0
 10
22.794189
 20
49.734076
 30
0.0
 10
22.726335
 20
48.965077
 30
0.0
 10
21.466250
 20
48.678551
 30
0.0
 10
19.466890
 20
48.824553
 30
0.0
 10
15.661949
 20
64.032639
 30
0.0
 10
16.574765
 20
64.610106
 30
0.0
 10
79.338551
 20
64.701763
 30
0.0
 10
83.094376
 20
64.691716
 30
0.0
 10
82.928680
 20
62.220372
 30
0.0
  0
LWPOLYLINE
  5
101
100
AcDbEntity
  8
Layer_1
 62
7
100
AcDbPolyline
 90
140
 70
1
 10
56.561126
 20
48.741766
 30
0.0
 10
41.793823
 20
48.741766
 30
0.0
 10
26.947433
 20
48.719555
 30
0.0
 10
26.419367
 20
48.706940
 30
0.0
 10
25.615432
 20
48.758925
 30
0.0
 10
25.624153
 20
49.844544
 30
0.0
 10
25.787839
 20
50.510707
 30
0.0
 10
25.787839
 20
51.029016
 30
0.0
 10
25.501387
 20
51.029016
 30
0.0
 10
25.214934
 20
51.029016
 30
0.0
 10
25.214934
 20
52.050113
 30
0.0
 10
25.214934
 20
53.071213
 30
0.0
 10
25.992450
 20
53.071213
 30
0.0
 10
26.769966
 20
53.071213
 30
0.0
 10
26.769966
 20
52.050113
 30
0.0
 10
26.769966
 20
51.029016
 30
0.0
 10
26.524433
 20
51.029016
 30
0.0
 10
26.278902
 20
50.626912
 30
0.0
 10
26.564077
 20
50.130872
 30
0.0
 10
27.179186
 20
49.425085
 30
0.0
 10
27.179186
 20
49.231884
 30
0.0
 10
29.634502
 20
49.231884
 30
0.0
 10
32.089818
 20
49.231884
 30
0.0
 10
32.089818
 20
50.130452
 30
0.0
 10
32.089818
 20
51.029016
 30
0.0
 10
31.803365
 20
51.029016
 30
0.0
 10
31.516910
 20
51.029016
 30
0.0
 10
31.516910
 20
52.050113
 30
0.0
 10
31.516910
 20
53.071213
 30
0.0
 10
32.294429
 20
53.071213
 30
0.0
 10
33.071943
 20
53.071213
 30
0.0
 10
33.071943
 20
52.050113
 30
0.0
 10
33.071943
 20
51.029016
 30
0.0
 10
32.826415
 20
51.029016
 30
0.0
 10
32.580879
 20
51.029016
 30
0.0
 10
32.580879
 20
50.130452
 30
0.0
 10
32.580879
 20
49.231884
 30
0.0
 10
35.486337
 20
49.231884
 30
0.0
 10
38.391795
 20
49.231884
 30
0.0
 10
38.391795
 20
50.130452
 30
0.0
 10
38.391795
 20
51.029016
 30
0.0
 10
38.105345
 20
51.029016
 30
0.0
 10
37.818887
 20
51.029016
 30
0.0
 10
37.818887
 20
52.050113
 30
0.0
 10
37.818887
 20
53.071213
 30
0.0
 10
38.596406
 20
53.071213
 30
0.0
 10
39.373920
 20
53.071213
 30
0.0
 10
39.373920
 20
52.050113
 30
0.0
 10
39.373920
 20
51.029016
 30
0.0
 10
39.128392
 20
51.029016
 30
0.0
 10
38.882859
 20
51.029016
 30
0.0
 10
38.882859
 20
50.130452
 30
0.0
 10
38.882859
 20
49.231884
 30
0.0
 10
41.788314
 20
49.231884
 30
0.0
 10
44.693775
 20
49.231884
 30
0.0
 10
44.693775
 20
50.130452
 30
0.0
 10
44.693775
 20
51.029016
 30
0.0
 10
44.407322
 20
51.029016
 30
0.0
 10
44.120867
 20
51.029016
 30
0.0
 10
44.120867
 20
52.050113
 30
0.0
 10
44.120867
 20
53.071213
 30
0.0
 10
44.898386
 20
53.071213
 30
0.0
 10
45.675900
 20
53.071213
 30
0.0
 10
45.675900
 20
52.050113
 30
0.0
 10
45.675900
 20
51.029016
 30
0.0
 10
45.430369
 20
51.029016
 30
0.0
 10
45.184836
 20
51.029016
 30
0.0
 10
45.184836
 20
50.130452
 30
0.0
 10
45.184836
 20
49.231884
 30
0.0
 10
48.090294
 20
49.231884
 30
0.0
 10
50.995752
 20
49.231884
 30
0.0
 10
50.995752
 20
50.130452
 30
0.0
 10
50.995752
 20
51.029016
 30
0.0
 10
50.668377
 20
51.029016
 30
0.0
 10
50.341002
 20
51.029016
 30
0.0
 10
50.341002
 20
52.050113
 30
0.0
 10
50.341002
 20
53.071213
 30
0.0
 10
51.159438
 20
53.071213
 30
0.0
 10
51.977877
 20
53.071213
 30
0.0
 10
51.977877
 20
52.050113
 30
0.0
 10
51.977877
 20
51.029016
 30
0.0
 10
51.732349
 20
51.029016
 30
0.0
 10
51.486813
 20
51.029016
 30
0.0
 10
51.486813
 20
50.130452
 30
0.0
 10
51.486813
 20
49.231884
 30
0.0
 10
54.395040
 20
49.231884
 30
0.0
 10
57.303269
 20
49.231884
 30
0.0
 10
57.280042
 20
50.110027
 30
0.0
 10
57.256815
 20
50.988173
 30
0.0
 10
56.949902
 20
51.013517
 30
0.0
 10
56.642988
 20
51.038860
 30
0.0
 10
56.642988
 20
52.055027
 30
0.0
 10
56.642988
 20
53.071190
 30
0.0
 10
57.461424
 20
53.071190
 30
0.0
 10
58.279863
 20
53.071190
 30
0.0
 10
58.279863
 20
52.050093
 30
0.0
 10
58.279863
 20
51.028996
 30
0.0
 10
57.993410
 20
51.028996
 30
0.0
 10
57.706960
 20
51.028996
 30
0.0
 10
57.706960
 20
50.129402
 30
0.0
 10
57.706960
 20
49.229802
 30
0.0
 10
60.632879
 20
49.251250
 30
0.0
 10
63.558793
 20
49.272699
 30
0.0
 10
63.558793
 20
50.130421
 30
0.0
 10
63.558793
 20
50.988142
 30
0.0
 10
63.251879
 20
51.013486
 30
0.0
 10
62.944965
 20
51.038829
 30
0.0
 10
62.944965
 20
52.054998
 30
0.0
 10
62.944965
 20
53.071165
 30
0.0
 10
63.763404
 20
53.071165
 30
0.0
 10
64.581845
 20
53.071165
 30
0.0
 10
64.581845
 20
52.050065
 30
0.0
 10
64.581845
 20
51.028968
 30
0.0
 10
64.295390
 20
51.028968
 30
0.0
 10
64.008937
 20
51.028968
 30
0.0
 10
64.008937
 20
50.130404
 30
0.0
 10
64.008937
 20
49.231836
 30
0.0
 10
66.914395
 20
49.231836
 30
0.0
 10
69.819853
 20
49.231836
 30
0.0
 10
69.819853
 20
50.130404
 30
0.0
 10
69.819853
 20
51.028968
 30
0.0
 10
69.533395
 20
51.028968
 30
0.0
 10
69.246942
 20
51.028968
 30
0.0
 10
69.246942
 20
52.053023
 30
0.0
 10
69.246942
 20
53.077080
 30
0.0
 10
70.044920
 20
53.053712
 30
0.0
 10
70.842900
 20
53.030316
 30
0.0
 10
70.865873
 20
52.029641
 30
0.0
 10
70.888846
 20
51.028963
 30
0.0
 10
70.599876
 20
51.028963
 30
0.0
 10
70.310903
 20
51.028963
 30
0.0
 10
70.310903
 20
50.130398
 30
0.0
 10
70.310903
 20
49.231831
 30
0.0
 10
72.029625
 20
49.231831
 30
0.0
 10
73.748347
 20
49.231831
 30
0.0
 10
73.748347
 20
48.986769
 30
0.0
 10
73.748347
 20
48.741704
 30
0.0
 10
65.441195
 20
48.741704
 30
0.0
 10
57.134038
 20
48.741704
 30
0.0
 10
56.561126
 20
48.741766
 30
0.0
  0
LWPOLYLINE
  5
102
100
AcDbEntity
  8
Layer_1
 62
7
100
AcDbPolyline
 90
30
 70
1
 10
23.515851
 20
48.609847
 30
0.0
 10
23.250511
 20
49.432959
 30
0.0
 10
23.782370
 20
50.095298
 30
0.0
 10
24.307250
 20
52.990003
 30
0.0
 10
24.355405
 20
55.073046
 30
0.0
 10
24.723703
 20
55.079029
 30
0.0
 10
25.480758
 20
55.310652
 30
0.0
 10
25.869516
 20
55.536294
 30
0.0
 10
25.869516
 20
56.101125
 30
0.0
 10
25.869516
 20
56.665956
 30
0.0
 10
25.542141
 20
56.665956
 30
0.0
 10
25.214766
 20
56.665956
 30
0.0
 10
25.214766
 20
57.646210
 30
0.0
 10
25.214766
 20
58.626467
 30
0.0
 10
25.992283
 20
58.626467
 30
0.0
 10
26.769800
 20
58.626467
 30
0.0
 10
26.769800
 20
57.646210
 30
0.0
 10
26.769800
 20
56.665956
 30
0.0
 10
26.565189
 20
56.665956
 30
0.0
 10
26.359432
 20
55.951189
 30
0.0
 10
26.358303
 20
55.236419
 30
0.0
 10
25.699164
 20
54.882628
 30
0.0
 10
24.922796
 20
54.573733
 30
0.0
 10
24.805564
 20
52.902119
 30
0.0
 10
24.672606
 20
50.657301
 30
0.0
 10
24.539649
 20
50.129001
 30
0.0
 10
24.754451
 20
49.914608
 30
0.0
 10
24.843218
 20
48.787870
 30
0.0
 10
24.717183
 20
48.486801
 30
0.0
 10
23.515851
 20
48.609847
 30
0.0
  0
LWPOLYLINE
  5
103
100
AcDbEntity
  8
Layer_1
 62
7
100
AcDbPolyline
 90
37
 70
1
 10
28.652199
 20
52.050593
 30
0.0
 10
28.652199
 20
53.071693
 30
0.0
 10
28.938652
 20
53.071693
 30
0.0
 10
29.225110
 20
53.071693
 30
0.0
 10
29.226804
 20
53.459709
 30
0.0
 10
29.785539
 20
54.455883
 30
0.0
 10
30.342617
 20
55.064040
 30
0.0
 10
30.827393
 20
55.070616
 30
0.0
 10
31.700927
 20
55.275193
 30
0.0
 10
32.089685
 20
55.473184
 30
0.0
 10
32.089685
 20
56.069567
 30
0.0
 10
32.089685
 20
56.665948
 30
0.0
 10
31.803230
 20
56.665948
 30
0.0
 10
31.516777
 20
56.665948
 30
0.0
 10
31.516777
 20
57.646202
 30
0.0
 10
31.516777
 20
58.626455
 30
0.0
 10
32.294294
 20
58.626455
 30
0.0
 10
33.071813
 20
58.626455
 30
0.0
 10
33.071813
 20
57.646202
 30
0.0
 10
33.071813
 20
56.665948
 30
0.0
 10
32.870386
 20
56.665948
 30
0.0
 10
32.645319
 20
55.952767
 30
0.0
 10
32.621669
 20
55.239594
 30
0.0
 10
32.048763
 20
54.921002
 30
0.0
 10
30.984794
 20
54.551818
 30
0.0
 10
30.104972
 20
54.084309
 30
0.0
 10
29.716211
 20
53.369542
 30
0.0
 10
29.961744
 20
53.071681
 30
0.0
 10
30.207275
 20
53.071681
 30
0.0
 10
30.207275
 20
52.050584
 30
0.0
 10
30.207275
 20
51.029485
 30
0.0
 10
29.429761
 20
51.029485
 30
0.0
 10
28.652241
 20
51.029485
 30
0.0
 10
28.652241
 20
52.050584
 30
0.0
 10
28.652205
 20
52.050593
 30
0.0
 10
28.652205
 20
52.050593
 30
0.0
 10
28.652199
 20
52.050593
 30
0.0
  0
LWPOLYLINE
  5
104
100
AcDbEntity
  8
Layer_1
 62
7
100
AcDbPolyline
 90
37
 70
1
 10
34.954176
 20
52.050593
 30
0.0
 10
34.954176
 20
53.071693
 30
0.0
 10
35.240635
 20
53.071693
 30
0.0
 10
35.527087
 20
53.071693
 30
0.0
 10
35.527087
 20
53.465356
 30
0.0
 10
36.082630
 20
54.459224
 30
0.0
 10
37.044294
 20
55.050962
 30
0.0
 10
37.921020
 20
55.256584
 30
0.0
 10
38.391620
 20
55.470680
 30
0.0
 10
38.391620
 20
56.068320
 30
0.0
 10
38.391620
 20
56.665959
 30
0.0
 10
38.105170
 20
56.665959
 30
0.0
 10
37.818712
 20
56.665959
 30
0.0
 10
37.818712
 20
57.640608
 30
0.0
 10
37.818712
 20
58.615254
 30
0.0
 10
38.596412
 20
58.641275
 30
0.0
 10
39.374112
 20
58.667296
 30
0.0
 10
39.373951
 20
57.666620
 30
0.0
 10
39.373745
 20
56.665945
 30
0.0
 10
39.128217
 20
56.665945
 30
0.0
 10
38.882684
 20
56.665945
 30
0.0
 10
38.882684
 20
55.931665
 30
0.0
 10
38.882684
 20
55.197385
 30
0.0
 10
38.229749
 20
54.869725
 30
0.0
 10
37.181389
 20
54.542059
 30
0.0
 10
36.402055
 20
54.098228
 30
0.0
 10
36.018148
 20
53.363039
 30
0.0
 10
36.263679
 20
53.071679
 30
0.0
 10
36.509212
 20
53.071679
 30
0.0
 10
36.509212
 20
52.050579
 30
0.0
 10
36.509212
 20
51.029482
 30
0.0
 10
35.731696
 20
51.029482
 30
0.0
 10
34.954176
 20
51.029482
 30
0.0
 10
34.954176
 20
52.050579
 30
0.0
 10
34.954176
 20
52.050593
 30
0.0
 10
34.954176
 20
52.050593
 30
0.0
 10
34.954176
 20
52.050593
 30
0.0
  0
LWPOLYLINE
  5
105
100
AcDbEntity
  8
Layer_1
 62
7
100
AcDbPolyline
 90
37
 70
1
 10
41.256156
 20
52.050593
 30
0.0
 10
41.256156
 20
53.071693
 30
0.0
 10
41.501689
 20
53.071693
 30
0.0
 10
41.747220
 20
53.433104
 30
0.0
 10
42.348271
 20
54.430449
 30
0.0
 10
42.949320
 20
55.066383
 30
0.0
 10
43.396007
 20
55.055969
 30
0.0
 10
44.247686
 20
55.263526
 30
0.0
 10
44.652675
 20
55.481526
 30
0.0
 10
44.676720
 20
56.073750
 30
0.0
 10
44.700766
 20
56.665982
 30
0.0
 10
44.410726
 20
56.665982
 30
0.0
 10
44.120689
 20
56.665982
 30
0.0
 10
44.120689
 20
57.646233
 30
0.0
 10
44.120689
 20
58.626489
 30
0.0
 10
44.898208
 20
58.626489
 30
0.0
 10
45.675722
 20
58.626489
 30
0.0
 10
45.675722
 20
57.646233
 30
0.0
 10
45.675722
 20
56.665982
 30
0.0
 10
45.430189
 20
56.665982
 30
0.0
 10
45.184661
 20
56.665982
 30
0.0
 10
45.184661
 20
55.931702
 30
0.0
 10
45.184661
 20
55.197419
 30
0.0
 10
44.531723
 20
54.869759
 30
0.0
 10
43.475851
 20
54.542096
 30
0.0
 10
42.655597
 20
54.061299
 30
0.0
 10
42.238278
 20
53.326110
 30
0.0
 10
42.524736
 20
53.071715
 30
0.0
 10
42.811189
 20
53.071715
 30
0.0
 10
42.811189
 20
52.050615
 30
0.0
 10
42.811189
 20
51.029519
 30
0.0
 10
42.033670
 20
51.029519
 30
0.0
 10
41.256153
 20
51.029519
 30
0.0
 10
41.256153
 20
52.050615
 30
0.0
 10
41.256156
 20
52.050593
 30
0.0
 10
41.256156
 20
52.050593
 30
0.0
 10
41.256156
 20
52.050593
 30
0.0
  0
LWPOLYLINE
  5
106
100
AcDbEntity
  8
Layer_1
 62
7
100
AcDbPolyline
 90
37
 70
1
 10
47.542351
 20
52.050432
 30
0.0
 10
47.567497
 20
53.071679
 30
0.0
 10
47.808351
 20
53.071679
 30
0.0
 10
48.049205
 20
53.449574
 30
0.0
 10
48.649001
 20
54.439852
 30
0.0
 10
49.248802
 20
55.052232
 30
0.0
 10
49.733434
 20
55.062618
 30
0.0
 10
50.606827
 20
55.301099
 30
0.0
 10
50.995583
 20
55.529185
 30
0.0
 10
50.995583
 20
56.097558
 30
0.0
 10
50.995583
 20
56.665928
 30
0.0
 10
50.668205
 20
56.665928
 30
0.0
 10
50.340830
 20
56.665928
 30
0.0
 10
50.340830
 20
57.646182
 30
0.0
 10
50.340830
 20
58.626438
 30
0.0
 10
51.159269
 20
58.626438
 30
0.0
 10
51.977708
 20
58.626438
 30
0.0
 10
51.977708
 20
57.646182
 30
0.0
 10
51.977708
 20
56.665928
 30
0.0
 10
51.732177
 20
56.665928
 30
0.0
 10
51.486644
 20
56.665928
 30
0.0
 10
51.486644
 20
55.946470
 30
0.0
 10
51.486644
 20
55.227012
 30
0.0
 10
50.842641
 20
54.884530
 30
0.0
 10
49.785219
 20
54.542059
 30
0.0
 10
48.956033
 20
54.076472
 30
0.0
 10
48.540269
 20
53.341280
 30
0.0
 10
48.826719
 20
53.071679
 30
0.0
 10
49.113172
 20
53.071679
 30
0.0
 10
49.113172
 20
52.050579
 30
0.0
 10
49.113172
 20
51.029482
 30
0.0
 10
48.315194
 20
51.029321
 30
0.0
 10
47.517219
 20
51.029152
 30
0.0
 10
47.542365
 20
52.050404
 30
0.0
 10
47.542351
 20
52.050432
 30
0.0
 10
47.542351
 20
52.050432
 30
0.0
 10
47.542351
 20
52.050432
 30
0.0
  0
LWPOLYLINE
  5
107
100
AcDbEntity
  8
Layer_1
 62
7
100
AcDbPolyline
 90
36
 70
1
 10
53.778271
 20
52.050593
 30
0.0
 10
53.778271
 20
53.071693
 30
0.0
 10
54.064721
 20
53.071693
 30
0.0
 10
54.351174
 20
53.071693
 30
0.0
 10
54.351174
 20
53.461755
 30
0.0
 10
54.962247
 20
54.457652
 30
0.0
 10
56.005758
 20
55.055495
 30
0.0
 10
56.867874
 20
55.290910
 30
0.0
 10
57.297554
 20
55.534319
 30
0.0
 10
57.297554
 20
56.100137
 30
0.0
 10
57.297554
 20
56.665959
 30
0.0
 10
56.970182
 20
56.665959
 30
0.0
 10
56.642807
 20
56.665959
 30
0.0
 10
56.642807
 20
57.646210
 30
0.0
 10
56.642807
 20
58.626467
 30
0.0
 10
57.461243
 20
58.626467
 30
0.0
 10
58.279679
 20
58.626467
 30
0.0
 10
58.279679
 20
57.646210
 30
0.0
 10
58.279679
 20
56.665959
 30
0.0
 10
58.034151
 20
56.665959
 30
0.0
 10
57.788618
 20
56.665959
 30
0.0
 10
57.788618
 20
55.946501
 30
0.0
 10
57.788618
 20
55.227041
 30
0.0
 10
57.144615
 20
54.884558
 30
0.0
 10
56.092516
 20
54.542073
 30
0.0
 10
55.263333
 20
54.097681
 30
0.0
 10
54.842238
 20
53.362492
 30
0.0
 10
55.128693
 20
53.071693
 30
0.0
 10
55.415146
 20
53.071693
 30
0.0
 10
55.415146
 20
52.050593
 30
0.0
 10
55.415146
 20
51.029496
 30
0.0
 10
54.596710
 20
51.029496
 30
0.0
 10
53.778271
 20
51.029496
 30
0.0
 10
53.778271
 20
52.050593
 30
0.0
 10
53.778271
 20
52.050593
 30
0.0
 10
53.778271
 20
52.050593
 30
0.0
  0
LWPOLYLINE
  5
108
100
AcDbEntity
  8
Layer_1
 62
7
100
AcDbPolyline
 90
38
 70
1
 10
60.080248
 20
52.050593
 30
0.0
 10
60.080248
 20
53.071693
 30
0.0
 10
60.366701
 20
53.071693
 30
0.0
 10
60.653154
 20
53.071693
 30
0.0
 10
60.655694
 20
53.459709
 30
0.0
 10
61.245854
 20
54.457505
 30
0.0
 10
61.833407
 20
55.067286
 30
0.0
 10
62.286763
 20
55.060682
 30
0.0
 10
63.169794
 20
55.295999
 30
0.0
 10
63.599472
 20
55.537934
 30
0.0
 10
63.599472
 20
56.101952
 30
0.0
 10
63.599472
 20
56.665970
 30
0.0
 10
63.272097
 20
56.665970
 30
0.0
 10
62.944722
 20
56.665970
 30
0.0
 10
62.944558
 20
57.666646
 30
0.0
 10
62.944392
 20
58.667321
 30
0.0
 10
63.763014
 20
58.641470
 30
0.0
 10
64.581597
 20
58.615618
 30
0.0
 10
64.581597
 20
57.640786
 30
0.0
 10
64.581597
 20
56.665962
 30
0.0
 10
64.336066
 20
56.665962
 30
0.0
 10
64.090533
 20
56.665962
 30
0.0
 10
64.090451
 20
55.951192
 30
0.0
 10
64.090372
 20
55.236422
 30
0.0
 10
63.446019
 20
54.889249
 30
0.0
 10
62.399793
 20
54.542076
 30
0.0
 10
61.571042
 20
54.110646
 30
0.0
 10
61.144153
 20
53.375454
 30
0.0
 10
61.430611
 20
53.071693
 30
0.0
 10
61.717061
 20
53.071693
 30
0.0
 10
61.717061
 20
52.050596
 30
0.0
 10
61.717061
 20
51.029499
 30
0.0
 10
60.898625
 20
51.029499
 30
0.0
 10
60.080186
 20
51.029499
 30
0.0
 10
60.080186
 20
52.050596
 30
0.0
 10
60.080248
 20
52.050593
 30
0.0
 10
60.080248
 20
52.050593
 30
0.0
 10
60.080248
 20
52.050593
 30
0.0
  0
LWPOLYLINE
  5
109
100
AcDbEntity
  8
Layer_1
 62
7
100
AcDbPolyline
 90
38
 70
1
 10
66.382223
 20
52.050593
 30
0.0
 10
66.382223
 20
53.071693
 30
0.0
 10
66.668678
 20
53.071693
 30
0.0
 10
66.955131
 20
53.071693
 30
0.0
 10
66.958264
 20
53.459709
 30
0.0
 10
67.528925
 20
54.455857
 30
0.0
 10
68.096457
 20
55.063987
 30
0.0
 10
68.569307
 20
55.069264
 30
0.0
 10
69.471836
 20
55.299806
 30
0.0
 10
69.901514
 20
55.525084
 30
0.0
 10
69.901514
 20
56.095520
 30
0.0
 10
69.901514
 20
56.665959
 30
0.0
 10
69.574136
 20
56.665959
 30
0.0
 10
69.246761
 20
56.665959
 30
0.0
 10
69.246600
 20
57.666635
 30
0.0
 10
69.246434
 20
58.667310
 30
0.0
 10
70.065053
 20
58.641458
 30
0.0
 10
70.883639
 20
58.615607
 30
0.0
 10
70.883639
 20
57.640777
 30
0.0
 10
70.883639
 20
56.665951
 30
0.0
 10
70.641297
 20
56.665951
 30
0.0
 10
70.398950
 20
56.665951
 30
0.0
 10
70.375300
 20
55.953455
 30
0.0
 10
70.351650
 20
55.240957
 30
0.0
 10
69.737822
 20
54.892322
 30
0.0
 10
68.711978
 20
54.542875
 30
0.0
 10
67.873081
 20
54.110632
 30
0.0
 10
67.446198
 20
53.375443
 30
0.0
 10
67.691725
 20
53.071684
 30
0.0
 10
67.937256
 20
53.071684
 30
0.0
 10
67.937256
 20
52.050584
 30
0.0
 10
67.937256
 20
51.029485
 30
0.0
 10
67.159739
 20
51.029485
 30
0.0
 10
66.382225
 20
51.029485
 30
0.0
 10
66.382225
 20
52.050584
 30
0.0
 10
66.382220
 20
52.050593
 30
0.0
 10
66.382220
 20
52.050593
 30
0.0
 10
66.382223
 20
52.050593
 30
0.0
  0
LWPOLYLINE
  5
10a
100
AcDbEntity
  8
Layer_1
 62
7
100
AcDbPolyline
 90
21
 70
1
 10
72.684205
 20
52.050593
 30
0.0
 10
72.684205
 20
53.071693
 30
0.0
 10
72.970658
 20
53.071693
 30
0.0
 10
73.257108
 20
53.071693
 30
0.0
 10
73.257955
 20
53.459709
 30
0.0
 10
73.796720
 20
54.439965
 30
0.0
 10
74.655175
 20
55.032200
 30
0.0
 10
74.975771
 20
54.781457
 30
0.0
 10
74.797672
 20
54.556814
 30
0.0
 10
74.183841
 20
54.126250
 30
0.0
 10
73.748115
 20
53.370637
 30
0.0
 10
73.993643
 20
53.071693
 30
0.0
 10
74.239179
 20
53.071693
 30
0.0
 10
74.239179
 20
52.050593
 30
0.0
 10
74.239179
 20
51.029496
 30
0.0
 10
73.461660
 20
51.029496
 30
0.0
 10
72.684146
 20
51.029496
 30
0.0
 10
72.684146
 20
52.050593
 30
0.0
 10
72.684205
 20
52.050593
 30
0.0
 10
72.684205
 20
52.050593
 30
0.0
 10
72.684205
 20
52.050593
 30
0.0
  0
LWPOLYLINE
  5
10b
100
AcDbEntity
  8
Layer_1
 62
7
100
AcDbPolyline
 90
25
 70
1
 10
21.151627
 20
49.479517
 30
0.0
 10
21.907407
 20
50.167104
 30
0.0
 10
22.616214
 20
50.836035
 30
0.0
 10
23.004972
 20
51.450010
 30
0.0
 10
23.004972
 20
55.650896
 30
0.0
 10
23.004972
 20
59.851785
 30
0.0
 10
49.604230
 20
59.851785
 30
0.0
 10
76.203491
 20
59.851785
 30
0.0
 10
76.203491
 20
54.542073
 30
0.0
 10
76.203491
 20
49.232364
 30
0.0
 10
77.656219
 20
49.232929
 30
0.0
 10
79.108949
 20
49.233493
 30
0.0
 10
79.383094
 20
50.356148
 30
0.0
 10
81.171765
 20
57.549185
 30
0.0
 10
82.654888
 20
63.650914
 30
0.0
 10
61.551064
 20
63.727628
 30
0.0
 10
28.508971
 20
63.818046
 30
0.0
 10
16.539306
 20
63.863111
 30
0.0
 10
16.539306
 20
63.674240
 30
0.0
 10
18.339873
 20
56.396711
 30
0.0
 10
20.179763
 20
49.447175
 30
0.0
 10
20.680261
 20
49.428971
 30
0.0
 10
21.151627
 20
49.479489
 30
0.0
 10
21.151627
 20
49.479503
 30
0.0
 10
21.151627
 20
49.479517
 30
0.0
  0
LWPOLYLINE
  5
10c
100
AcDbEntity
  8
Layer_1
 62
7
100
AcDbPolyline
 90
30
 70
1
 10
23.086817
 20
61.125592
 30
0.0
 10
23.250503
 20
61.788623
 30
0.0
 10
23.414192
 20
61.944350
 30
0.0
 10
24.068941
 20
62.057355
 30
0.0
 10
24.723694
 20
62.057355
 30
0.0
 10
24.723694
 20
62.343263
 30
0.0
 10
24.723694
 20
62.629171
 30
0.0
 10
23.899820
 20
62.629171
 30
0.0
 10
23.075945
 20
62.629171
 30
0.0
 10
23.101853
 20
62.853811
 30
0.0
 10
23.127761
 20
63.078452
 30
0.0
 10
24.457722
 20
63.100917
 30
0.0
 10
25.787686
 20
63.123381
 30
0.0
 10
25.787686
 20
62.467853
 30
0.0
 10
25.664919
 20
61.812327
 30
0.0
 10
25.542156
 20
61.689797
 30
0.0
 10
24.846483
 20
61.567265
 30
0.0
 10
24.150808
 20
61.567265
 30
0.0
 10
24.150808
 20
61.281359
 30
0.0
 10
24.150808
 20
60.995448
 30
0.0
 10
24.969247
 20
60.995448
 30
0.0
 10
25.787686
 20
60.995448
 30
0.0
 10
25.787686
 20
60.750386
 30
0.0
 10
25.787686
 20
60.505322
 30
0.0
 10
24.437264
 20
60.505322
 30
0.0
 10
23.086839
 20
60.505322
 30
0.0
 10
23.086839
 20
61.125629
 30
0.0
 10
23.086817
 20
61.125592
 30
0.0
 10
23.086817
 20
61.125592
 30
0.0
 10
23.086817
 20
61.125592
 30
0.0
  0
LWPOLYLINE
  5
10d
100
AcDbEntity
  8
Layer_1
 62
7
100
AcDbPolyline
 90
21
 70
1
 10
26.360572
 20
61.689760
 30
0.0
 10
26.483336
 20
62.874233
 30
0.0
 10
26.606102
 20
62.996765
 30
0.0
 10
27.672643
 20
63.119298
 30
0.0
 10
28.786291
 20
62.996765
 30
0.0
 10
28.947409
 20
62.874233
 30
0.0
 10
29.061421
 20
61.689760
 30
0.0
 10
29.061421
 20
60.505285
 30
0.0
 10
28.529432
 20
60.505285
 30
0.0
 10
27.997449
 20
60.505285
 30
0.0
 10
27.997449
 20
61.036258
 30
0.0
 10
27.997449
 20
61.567228
 30
0.0
 10
27.710994
 20
61.567228
 30
0.0
 10
27.424541
 20
61.567228
 30
0.0
 10
27.424541
 20
61.036258
 30
0.0
 10
27.424541
 20
60.505285
 30
0.0
 10
26.892555
 20
60.505285
 30
0.0
 10
26.360572
 20
60.505285
 30
0.0
 10
26.360572
 20
61.689760
 30
0.0
 10
26.360572
 20
61.689760
 30
0.0
 10
26.360572
 20
61.689760
 30
0.0
  0
LWPOLYLINE
  5
10e
100
AcDbEntity
  8
Layer_1
 62
7
100
AcDbPolyline
 90
7
 70
1
 10
27.982173
 20
62.322841
 30
0.0
 10
27.710994
 20
62.588328
 30
0.0
 10
27.439818
 20
62.322841
 30
0.0
 10
27.710994
 20
62.057355
 30
0.0
 10
27.982173
 20
62.322841
 30
0.0
 10
27.982173
 20
62.322841
 30
0.0
 10
27.982173
 20
62.322841
 30
0.0
  0
LWPOLYLINE
  5
10f
100
AcDbEntity
  8
Layer_1
 62
7
100
AcDbPolyline
 90
27
 70
1
 10
29.879857
 20
60.627817
 30
0.0
 10
29.757093
 20
60.750350
 30
0.0
 10
29.634327
 20
61.812293
 30
0.0
 10
29.757093
 20
62.874233
 30
0.0
 10
29.879857
 20
62.998950
 30
0.0
 10
31.087057
 20
63.101060
 30
0.0
 10
32.294254
 20
63.078454
 30
0.0
 10
32.320162
 20
62.853814
 30
0.0
 10
32.346070
 20
62.629171
 30
0.0
 10
31.522193
 20
62.629171
 30
0.0
 10
30.698319
 20
62.629171
 30
0.0
 10
30.698319
 20
61.812293
 30
0.0
 10
30.698319
 20
60.995417
 30
0.0
 10
30.984774
 20
60.995417
 30
0.0
 10
31.271227
 20
61.281325
 30
0.0
 10
31.107538
 20
61.567231
 30
0.0
 10
30.943849
 20
61.812293
 30
0.0
 10
30.943849
 20
62.057358
 30
0.0
 10
31.639524
 20
62.057358
 30
0.0
 10
32.335196
 20
62.057358
 30
0.0
 10
32.335196
 20
61.281325
 30
0.0
 10
32.335196
 20
60.505288
 30
0.0
 10
31.107538
 20
60.505288
 30
0.0
 10
29.879880
 20
60.627820
 30
0.0
 10
29.879857
 20
60.627817
 30
0.0
 10
29.879857
 20
60.627817
 30
0.0
 10
29.879857
 20
60.627817
 30
0.0
  0
LWPOLYLINE
  5
110
100
AcDbEntity
  8
Layer_1
 62
7
100
AcDbPolyline
 90
24
 70
1
 10
32.844619
 20
61.791871
 30
0.0
 10
32.867168
 20
63.078452
 30
0.0
 10
34.074368
 20
63.101058
 30
0.0
 10
35.281565
 20
62.998947
 30
0.0
 10
35.404326
 20
62.874230
 30
0.0
 10
35.527093
 20
62.465792
 30
0.0
 10
35.404326
 20
62.057352
 30
0.0
 10
35.281565
 20
61.812290
 30
0.0
 10
35.404326
 20
61.567225
 30
0.0
 10
35.527093
 20
61.036255
 30
0.0
 10
35.527093
 20
60.505282
 30
0.0
 10
34.995107
 20
60.505282
 30
0.0
 10
34.463126
 20
60.505282
 30
0.0
 10
34.463126
 20
61.041431
 30
0.0
 10
34.463126
 20
61.577577
 30
0.0
 10
34.197129
 20
61.551979
 30
0.0
 10
33.906773
 20
61.015828
 30
0.0
 10
33.882417
 20
60.505282
 30
0.0
 10
33.352257
 20
60.505282
 30
0.0
 10
32.822100
 20
60.505282
 30
0.0
 10
32.844650
 20
61.791868
 30
0.0
 10
32.844619
 20
61.791871
 30
0.0
 10
32.844619
 20
61.791871
 30
0.0
 10
32.844619
 20
61.791871
 30
0.0
  0
LWPOLYLINE
  5
111
100
AcDbEntity
  8
Layer_1
 62
7
100
AcDbPolyline
 90
7
 70
1
 10
34.463115
 20
62.348439
 30
0.0
 10
34.197123
 20
62.613922
 30
0.0
 10
33.905486
 20
62.322841
 30
0.0
 10
34.171475
 20
62.057355
 30
0.0
 10
34.463115
 20
62.348439
 30
0.0
 10
34.463115
 20
62.348439
 30
0.0
 10
34.463115
 20
62.348439
 30
0.0
  0
LWPOLYLINE
  5
112
100
AcDbEntity
  8
Layer_1
 62
7
100
AcDbPolyline
 90
28
 70
1
 10
36.427368
 20
60.627817
 30
0.0
 10
36.263679
 20
60.750350
 30
0.0
 10
36.099993
 20
61.812293
 30
0.0
 10
36.263679
 20
62.874233
 30
0.0
 10
36.427368
 20
62.996765
 30
0.0
 10
37.614104
 20
63.119298
 30
0.0
 10
38.800842
 20
63.119298
 30
0.0
 10
38.800842
 20
62.877188
 30
0.0
 10
38.800842
 20
62.635089
 30
0.0
 10
38.002862
 20
62.611693
 30
0.0
 10
37.204884
 20
62.588297
 30
0.0
 10
37.179230
 20
62.322813
 30
0.0
 10
37.153576
 20
62.057326
 30
0.0
 10
37.567980
 20
62.057326
 30
0.0
 10
37.982387
 20
61.812264
 30
0.0
 10
37.573170
 20
61.567200
 30
0.0
 10
37.163948
 20
61.567200
 30
0.0
 10
37.163948
 20
61.281292
 30
0.0
 10
37.163948
 20
60.995384
 30
0.0
 10
37.982387
 20
60.995384
 30
0.0
 10
38.800828
 20
60.995384
 30
0.0
 10
38.800828
 20
60.750322
 30
0.0
 10
38.800828
 20
60.505257
 30
0.0
 10
37.614092
 20
60.505257
 30
0.0
 10
36.427356
 20
60.627789
 30
0.0
 10
36.427368
 20
60.627820
 30
0.0
 10
36.427368
 20
60.627820
 30
0.0
 10
36.427368
 20
60.627817
 30
0.0
  0
LWPOLYLINE
  5
113
100
AcDbEntity
  8
Layer_1
 62
7
100
AcDbPolyline
 90
21
 70
1
 10
39.373745
 20
61.812293
 30
0.0
 10
39.373745
 20
63.119298
 30
0.0
 10
40.560481
 20
63.119298
 30
0.0
 10
41.747220
 20
63.006290
 30
0.0
 10
41.910906
 20
62.850566
 30
0.0
 10
42.074595
 20
61.656560
 30
0.0
 10
42.074595
 20
60.505285
 30
0.0
 10
41.545058
 20
60.505285
 30
0.0
 10
41.015516
 20
60.505285
 30
0.0
 10
40.992600
 20
61.546806
 30
0.0
 10
40.969684
 20
62.588328
 30
0.0
 10
40.703692
 20
62.613925
 30
0.0
 10
40.437703
 20
62.639523
 30
0.0
 10
40.437703
 20
61.572407
 30
0.0
 10
40.437703
 20
60.505288
 30
0.0
 10
39.905717
 20
60.505288
 30
0.0
 10
39.373731
 20
60.505288
 30
0.0
 10
39.373731
 20
61.812296
 30
0.0
 10
39.373748
 20
61.812293
 30
0.0
 10
39.373748
 20
61.812293
 30
0.0
 10
39.373745
 20
61.812293
 30
0.0
  0
LWPOLYLINE
  5
114
100
AcDbEntity
  8
Layer_1
 62
7
100
AcDbPolyline
 90
27
 70
1
 10
44.529911
 20
60.627817
 30
0.0
 10
44.366225
 20
60.750350
 30
0.0
 10
44.202536
 20
61.779095
 30
0.0
 10
44.366225
 20
62.850566
 30
0.0
 10
44.529911
 20
63.006290
 30
0.0
 10
45.716647
 20
63.119298
 30
0.0
 10
46.903383
 20
63.119298
 30
0.0
 10
46.903383
 20
62.874233
 30
0.0
 10
46.903383
 20
62.629171
 30
0.0
 10
46.134824
 20
62.629171
 30
0.0
 10
45.366257
 20
62.629171
 30
0.0
 10
45.332819
 20
62.343263
 30
0.0
 10
45.299373
 20
62.057355
 30
0.0
 10
45.682868
 20
62.057355
 30
0.0
 10
46.102403
 20
61.812293
 30
0.0
 10
45.743396
 20
61.567228
 30
0.0
 10
45.348350
 20
61.567228
 30
0.0
 10
45.348350
 20
61.281323
 30
0.0
 10
45.348350
 20
60.995415
 30
0.0
 10
46.125869
 20
60.995415
 30
0.0
 10
46.903383
 20
60.995415
 30
0.0
 10
46.903383
 20
60.750350
 30
0.0
 10
46.903383
 20
60.505285
 30
0.0
 10
45.716647
 20
60.505285
 30
0.0
 10
44.529911
 20
60.627817
 30
0.0
 10
44.529911
 20
60.627817
 30
0.0
 10
44.529911
 20
60.627817
 30
0.0
  0
LWPOLYLINE
  5
115
100
AcDbEntity
  8
Layer_1
 62
7
100
AcDbPolyline
 90
13
 70
1
 10
47.476289
 20
61.812293
 30
0.0
 10
47.476289
 20
63.119298
 30
0.0
 10
48.665593
 20
63.119298
 30
0.0
 10
49.902011
 20
62.996765
 30
0.0
 10
50.063129
 20
62.874233
 30
0.0
 10
50.177141
 20
61.812293
 30
0.0
 10
50.054372
 20
60.750350
 30
0.0
 10
49.931605
 20
60.627817
 30
0.0
 10
48.703947
 20
60.505285
 30
0.0
 10
47.476289
 20
60.505285
 30
0.0
 10
47.476289
 20
61.812293
 30
0.0
 10
47.476289
 20
61.812293
 30
0.0
 10
47.476289
 20
61.812293
 30
0.0
  0
LWPOLYLINE
  5
116
100
AcDbEntity
  8
Layer_1
 62
7
100
AcDbPolyline
 90
12
 70
1
 10
49.113166
 20
61.817483
 30
0.0
 10
49.113166
 20
62.639542
 30
0.0
 10
48.847177
 20
62.613945
 30
0.0
 10
48.581183
 20
62.588347
 30
0.0
 10
48.557759
 20
61.791891
 30
0.0
 10
48.534334
 20
60.995434
 30
0.0
 10
48.823753
 20
60.995434
 30
0.0
 10
49.113169
 20
60.995434
 30
0.0
 10
49.113169
 20
61.817483
 30
0.0
 10
49.113166
 20
61.817483
 30
0.0
 10
49.113166
 20
61.817483
 30
0.0
 10
49.113166
 20
61.817483
 30
0.0
  0
LWPOLYLINE
  5
117
100
AcDbEntity
  8
Layer_1
 62
7
100
AcDbPolyline
 90
11
 70
1
 10
50.750044
 20
61.812293
 30
0.0
 10
50.750044
 20
63.119298
 30
0.0
 10
51.282030
 20
63.119298
 30
0.0
 10
51.814016
 20
63.119298
 30
0.0
 10
51.814016
 20
61.812293
 30
0.0
 10
51.814016
 20
60.505285
 30
0.0
 10
51.282030
 20
60.505285
 30
0.0
 10
50.750044
 20
60.505285
 30
0.0
 10
50.750044
 20
61.812293
 30
0.0
 10
50.750044
 20
61.812293
 30
0.0
 10
50.750044
 20
61.812293
 30
0.0
  0
LWPOLYLINE
  5
118
100
AcDbEntity
  8
Layer_1
 62
7
100
AcDbPolyline
 90
18
 70
1
 10
53.187346
 20
61.546806
 30
0.0
 10
53.164430
 20
62.588328
 30
0.0
 10
52.775668
 20
62.613220
 30
0.0
 10
52.386910
 20
62.880730
 30
0.0
 10
52.386910
 20
63.123342
 30
0.0
 10
53.716874
 20
63.100877
 30
0.0
 10
55.046835
 20
63.078412
 30
0.0
 10
55.072743
 20
62.853772
 30
0.0
 10
54.683987
 20
62.629131
 30
0.0
 10
54.269330
 20
62.629131
 30
0.0
 10
54.269330
 20
61.567188
 30
0.0
 10
54.269330
 20
60.505245
 30
0.0
 10
53.739790
 20
60.505245
 30
0.0
 10
53.210248
 20
60.505245
 30
0.0
 10
53.187332
 20
61.546767
 30
0.0
 10
53.187343
 20
61.546806
 30
0.0
 10
53.187343
 20
61.546806
 30
0.0
 10
53.187346
 20
61.546806
 30
0.0
  0
LWPOLYLINE
  5
119
100
AcDbEntity
  8
Layer_1
 62
7
100
AcDbPolyline
 90
12
 70
1
 10
55.597216
 20
61.791871
 30
0.0
 10
55.619766
 20
63.078452
 30
0.0
 10
56.151752
 20
63.078452
 30
0.0
 10
56.683735
 20
63.078452
 30
0.0
 10
56.706285
 20
61.791871
 30
0.0
 10
56.728834
 20
60.505285
 30
0.0
 10
56.151774
 20
60.505285
 30
0.0
 10
55.574706
 20
60.505285
 30
0.0
 10
55.597256
 20
61.791871
 30
0.0
 10
55.597216
 20
61.791871
 30
0.0
 10
55.597216
 20
61.791871
 30
0.0
 10
55.597216
 20
61.791871
 30
0.0
  0
LWPOLYLINE
  5
11a
100
AcDbEntity
  8
Layer_1
 62
7
100
AcDbPolyline
 90
15
 70
1
 10
57.543085
 20
60.627817
 30
0.0
 10
57.379399
 20
60.750350
 30
0.0
 10
57.215710
 20
61.812293
 30
0.0
 10
57.379399
 20
62.874233
 30
0.0
 10
57.543085
 20
62.996765
 30
0.0
 10
58.607057
 20
63.119298
 30
0.0
 10
59.671026
 20
62.996765
 30
0.0
 10
59.793793
 20
62.874233
 30
0.0
 10
59.916557
 20
61.812293
 30
0.0
 10
59.793793
 20
60.750350
 30
0.0
 10
59.671026
 20
60.627817
 30
0.0
 10
58.607057
 20
60.505285
 30
0.0
 10
57.543085
 20
60.627817
 30
0.0
 10
57.543085
 20
60.627817
 30
0.0
 10
57.543085
 20
60.627817
 30
0.0
  0
LWPOLYLINE
  5
11b
100
AcDbEntity
  8
Layer_1
 62
7
100
AcDbPolyline
 90
11
 70
1
 10
58.852590
 20
61.817466
 30
0.0
 10
58.852590
 20
62.639520
 30
0.0
 10
58.586599
 20
62.613922
 30
0.0
 10
58.320604
 20
62.588325
 30
0.0
 10
58.297180
 20
61.791868
 30
0.0
 10
58.273755
 20
60.995412
 30
0.0
 10
58.563174
 20
60.995412
 30
0.0
 10
58.852590
 20
60.995412
 30
0.0
 10
58.852590
 20
61.817466
 30
0.0
 10
58.852590
 20
61.817466
 30
0.0
 10
58.852590
 20
61.817466
 30
0.0
  0
LWPOLYLINE
  5
11c
100
AcDbEntity
  8
Layer_1
 62
7
100
AcDbPolyline
 90
19
 70
1
 10
60.489465
 20
61.812273
 30
0.0
 10
60.489465
 20
63.119278
 30
0.0
 10
61.655740
 20
63.117867
 30
0.0
 10
63.006165
 20
62.922555
 30
0.0
 10
63.190312
 20
61.616961
 30
0.0
 10
63.190312
 20
60.505265
 30
0.0
 10
62.658329
 20
60.505265
 30
0.0
 10
62.126345
 20
60.505265
 30
0.0
 10
62.126345
 20
61.567208
 30
0.0
 10
62.126345
 20
62.629151
 30
0.0
 10
61.839890
 20
62.629151
 30
0.0
 10
61.553437
 20
62.629151
 30
0.0
 10
61.553437
 20
61.567208
 30
0.0
 10
61.553437
 20
60.505265
 30
0.0
 10
61.021451
 20
60.505265
 30
0.0
 10
60.489465
 20
60.505265
 30
0.0
 10
60.489465
 20
61.812273
 30
0.0
 10
60.489465
 20
61.812273
 30
0.0
 10
60.489465
 20
61.812273
 30
0.0
  0
LWPOLYLINE
  5
11d
100
AcDbEntity
  8
Layer_1
 62
7
100
AcDbPolyline
 90
30
 70
1
 10
65.400098
 20
61.158770
 30
0.0
 10
65.522862
 20
61.812273
 30
0.0
 10
65.645631
 20
61.934803
 30
0.0
 10
66.300381
 20
62.057335
 30
0.0
 10
66.955131
 20
62.057335
 30
0.0
 10
66.955131
 20
62.343243
 30
0.0
 10
66.955131
 20
62.629151
 30
0.0
 10
66.177617
 20
62.629151
 30
0.0
 10
65.400098
 20
62.629151
 30
0.0
 10
65.400098
 20
62.874213
 30
0.0
 10
65.400098
 20
63.119278
 30
0.0
 10
66.586834
 20
63.119278
 30
0.0
 10
67.773570
 20
62.996743
 30
0.0
 10
67.896339
 20
62.874213
 30
0.0
 10
68.019103
 20
62.343243
 30
0.0
 10
67.896339
 20
61.812273
 30
0.0
 10
67.773570
 20
61.689738
 30
0.0
 10
67.118817
 20
61.567208
 30
0.0
 10
66.464067
 20
61.567208
 30
0.0
 10
66.464067
 20
61.281303
 30
0.0
 10
66.464067
 20
60.995395
 30
0.0
 10
67.241584
 20
60.995395
 30
0.0
 10
68.019100
 20
60.995395
 30
0.0
 10
68.019100
 20
60.750330
 30
0.0
 10
68.019100
 20
60.505265
 30
0.0
 10
66.709603
 20
60.505265
 30
0.0
 10
65.400098
 20
60.505265
 30
0.0
 10
65.400098
 20
61.158770
 30
0.0
 10
65.400098
 20
61.158770
 30
0.0
 10
65.400098
 20
61.158770
 30
0.0
  0
LWPOLYLINE
  5
11e
100
AcDbEntity
  8
Layer_1
 62
7
100
AcDbPolyline
 90
15
 70
1
 10
68.919386
 20
60.627795
 30
0.0
 10
68.755697
 20
60.750330
 30
0.0
 10
68.592011
 20
61.779075
 30
0.0
 10
68.755697
 20
62.850546
 30
0.0
 10
68.919386
 20
63.006270
 30
0.0
 10
69.983353
 20
63.119278
 30
0.0
 10
71.047325
 20
62.996743
 30
0.0
 10
71.170089
 20
62.874213
 30
0.0
 10
71.292858
 20
61.812273
 30
0.0
 10
71.170089
 20
60.750330
 30
0.0
 10
71.047325
 20
60.627795
 30
0.0
 10
69.983353
 20
60.505265
 30
0.0
 10
68.919386
 20
60.627795
 30
0.0
 10
68.919386
 20
60.627795
 30
0.0
 10
68.919386
 20
60.627795
 30
0.0
  0
LWPOLYLINE
  5
11f
100
AcDbEntity
  8
Layer_1
 62
7
100
AcDbPolyline
 90
11
 70
1
 10
70.228886
 20
61.817446
 30
0.0
 10
70.228886
 20
62.639500
 30
0.0
 10
69.962892
 20
62.613903
 30
0.0
 10
69.696900
 20
62.588305
 30
0.0
 10
69.673476
 20
61.791849
 30
0.0
 10
69.650051
 20
60.995392
 30
0.0
 10
69.939467
 20
60.995392
 30
0.0
 10
70.228886
 20
60.995392
 30
0.0
 10
70.228886
 20
61.817446
 30
0.0
 10
70.228886
 20
61.817446
 30
0.0
 10
70.228886
 20
61.817446
 30
0.0
  0
LWPOLYLINE
  5
120
100
AcDbEntity
  8
Layer_1
 62
7
100
AcDbPolyline
 90
14
 70
1
 10
71.865764
 20
61.567208
 30
0.0
 10
71.742997
 20
62.629151
 30
0.0
 10
71.620233
 20
62.874213
 30
0.0
 10
71.620233
 20
63.119278
 30
0.0
 10
72.152219
 20
63.119278
 30
0.0
 10
72.684205
 20
62.996743
 30
0.0
 10
72.806969
 20
62.874213
 30
0.0
 10
72.929733
 20
61.689738
 30
0.0
 10
72.929733
 20
60.505265
 30
0.0
 10
72.397747
 20
60.505265
 30
0.0
 10
71.865764
 20
60.505265
 30
0.0
 10
71.865764
 20
61.567208
 30
0.0
 10
71.865764
 20
61.567208
 30
0.0
 10
71.865764
 20
61.567208
 30
0.0
  0
LWPOLYLINE
  5
121
100
AcDbEntity
  8
Layer_1
 62
7
100
AcDbPolyline
 90
17
 70
1
 10
75.121502
 20
61.546803
 30
0.0
 10
75.098585
 20
62.588325
 30
0.0
 10
74.300608
 20
62.611721
 30
0.0
 10
73.502627
 20
62.635117
 30
0.0
 10
73.502627
 20
62.877219
 30
0.0
 10
73.502627
 20
63.119326
 30
0.0
 10
74.689363
 20
63.119326
 30
0.0
 10
75.876099
 20
63.006316
 30
0.0
 10
76.039785
 20
62.850594
 30
0.0
 10
76.203474
 20
61.656591
 30
0.0
 10
76.203474
 20
60.505313
 30
0.0
 10
75.673938
 20
60.505313
 30
0.0
 10
75.144393
 20
60.505313
 30
0.0
 10
75.121476
 20
61.546834
 30
0.0
 10
75.121496
 20
61.546803
 30
0.0
 10
75.121496
 20
61.546803
 30
0.0
 10
75.121502
 20
61.546803
 30
0.0
  0
ENDSEC
  0
SECTION
  2
OBJECTS
  0
DICTIONARY
  5
C
330
0
100
AcDbDictionary
  3
ACAD_GROUP
350
D
  3
ACAD_MLINESTYLE
350
17
  0
DICTIONARY
  5
D
330
C
100
AcDbDictionary
  0
DICTIONARY
  5
1A
330
C
100
AcDbDictionary
  0
DICTIONARY
  5
17
330
C
100
AcDbDictionary
  3
STANDARD
350
18
  0
DICTIONARY
  5
19
330
C
100
AcDbDictionary
  0
ENDSEC
  0
EOF
