  0
SECTION
  2
HEADER
  9
$ACADVER
  1
AC1014
  9
$HANDSEED
  5
FFFF
  9
$MEASUREMENT
 70
     1
  0
ENDSEC
  0
SECTION
  2
TABLES
  0
TABLE
  2
VPORT
  5
8
330
0
100
AcDbSymbolTable
 70
     4
  0
VPORT
  5
2E
330
8
100
AcDbSymbolTableRecord
100
AcDbViewportTableRecord
  2
*ACTIVE
 70
     0
 10
0.0
 20
0.0
 11
1.0
 21
1.0
 12
210.0
 22
148.5
 13
0.0
 23
0.0
 14
10.0
 24
10.0
 15
10.0
 25
10.0
 16
0.0
 26
0.0
 36
1.0
 17
0.0
 27
0.0
 37
0.0
 40
341.0
 41
1.24
 42
50.0
 43
0.0
 44
0.0
 50
0.0
 51
0.0
 71
     0
 72
   100
 73
     1
 74
     3
 75
     0
 76
     0
 77
     0
 78
     0
  0
ENDTAB
  0
TABLE
  2
LTYPE
  5
5
330
0
100
AcDbSymbolTable
 70
     1
  0
LTYPE
  5
14
330
5
100
AcDbSymbolTableRecord
100
AcDbLinetypeTableRecord
  2
BYBLOCK
 70
     0
  3

 72
    65
 73
     0
 40
0.0
  0
LTYPE
  5
15
330
5
100
AcDbSymbolTableRecord
100
AcDbLinetypeTableRecord
  2
BYLAYER
 70
     0
  3

 72
    65
 73
     0
 40
0.0
  0
LTYPE
  5
16
330
5
100
AcDbSymbolTableRecord
100
AcDbLinetypeTableRecord
  2
CONTINUOUS
 70
     0
  3
Solid line
 72
    65
 73
     0
 40
0.0
  0
ENDTAB
  0
TABLE
  2
LAYER
  5
2
100
AcDbSymbolTable
 70
2
  0
LAYER
  5
50
100
AcDbSymbolTableRecord
100
AcDbLayerTableRecord
  2
0
 70
0
  6
CONTINUOUS
  0
LAYER
  5
51
100
AcDbSymbolTableRecord
100
AcDbLayerTableRecord
  2
Layer_1
 70
0
  6
CONTINUOUS
  0
ENDTAB
  0
TABLE
  2
STYLE
  5
3
330
0
100
AcDbSymbolTable
 70
     1
  0
STYLE
  5
11
330
3
100
AcDbSymbolTableRecord
100
AcDbTextStyleTableRecord
  2
STANDARD
 70
     0
 40
0.0
 41
1.0
 50
0.0
 71
     0
 42
2.5
  3
txt
  4

  0
ENDTAB
  0
TABLE
  2
VIEW
  5
6
330
0
100
AcDbSymbolTable
 70
     0
  0
ENDTAB
  0
TABLE
  2
UCS
  5
7
330
0
100
AcDbSymbolTable
 70
     0
  0
ENDTAB
  0
TABLE
  2
APPID
  5
9
330
0
100
AcDbSymbolTable
 70
     2
  0
APPID
  5
12
330
9
100
AcDbSymbolTableRecord
100
AcDbRegAppTableRecord
  2
ACAD
 70
     0
  0
ENDTAB
  0
TABLE
  2
DIMSTYLE
  5
A
330
0
100
AcDbSymbolTable
 70
     1
  0
DIMSTYLE
105
27
330
A
100
AcDbSymbolTableRecord
100
AcDbDimStyleTableRecord
  2
ISO-25
 70
     0
  3

  4

  5

  6

  7

 40
1.0
 41
2.5
 42
0.625
 43
3.75
 44
1.25
 45
0.0
 46
0.0
 47
0.0
 48
0.0
140
2.5
141
2.5
142
0.0
143
0.03937007874016
144
1.0
145
0.0
146
1.0
147
0.625
 71
     0
 72
     0
 73
     0
 74
     0
 75
     0
 76
     0
 77
     1
 78
     8
170
     0
171
     3
172
     1
173
     0
174
     0
175
     0
176
     0
177
     0
178
     0
270
     2
271
     2
272
     2
273
     2
274
     3
340
11
275
     0
280
     0
281
     0
282
     0
283
     0
284
     8
285
     0
286
     0
287
     3
288
     0
  0
ENDTAB
  0
TABLE
  2
BLOCK_RECORD
  5
1
330
0
100
AcDbSymbolTable
 70
     1
  0
BLOCK_RECORD
  5
1F
330
1
100
AcDbSymbolTableRecord
100
AcDbBlockTableRecord
  2
*MODEL_SPACE
  0
BLOCK_RECORD
  5
1B
330
1
100
AcDbSymbolTableRecord
100
AcDbBlockTableRecord
  2
*PAPER_SPACE
  0
ENDTAB
  0
ENDSEC
  0
SECTION
  2
BLOCKS
  0
BLOCK
  5
20
330
1F
100
AcDbEntity
  8
0
100
AcDbBlockBegin
  2
*MODEL_SPACE
 70
     0
 10
0.0
 20
0.0
 30
0.0
  3
*MODEL_SPACE
  1

  0
ENDBLK
  5
21
330
1F
100
AcDbEntity
  8
0
100
AcDbBlockEnd
  0
BLOCK
  5
1C
330
1B
100
AcDbEntity
 67
     1
  8
0
100
AcDbBlockBegin
  2
*PAPER_SPACE
  1

  0
ENDBLK
  5
1D
330
1B
100
AcDbEntity
 67
     1
  8
0
100
AcDbBlockEnd
  0
ENDSEC
  0
SECTION
  2
ENTITIES
  0
LWPOLYLINE
  5
100
100
AcDbEntity
  8
Layer_1
 62
1
100
AcDbPolyline
 90
33
 70
1
 10
27.899102
 20
61.008672
 30
0.0
 10
27.855696
 20
60.578097
 30
0.0
 10
27.731208
 20
60.177060
 30
0.0
 10
27.534225
 20
59.814150
 30
0.0
 10
27.273342
 20
59.497957
 30
0.0
 10
26.957148
 20
59.237076
 30
0.0
 10
26.594239
 20
59.040093
 30
0.0
 10
26.193201
 20
58.915605
 30
0.0
 10
25.762626
 20
58.872199
 30
0.0
 10
25.332054
 20
58.915605
 30
0.0
 10
24.931016
 20
59.040093
 30
0.0
 10
24.568103
 20
59.237076
 30
0.0
 10
24.251913
 20
59.497959
 30
0.0
 10
23.991030
 20
59.814150
 30
0.0
 10
23.794047
 20
60.177062
 30
0.0
 10
23.669559
 20
60.578100
 30
0.0
 10
23.626153
 20
61.008672
 30
0.0
 10
23.669559
 20
61.439248
 30
0.0
 10
23.794047
 20
61.840285
 30
0.0
 10
23.991030
 20
62.203195
 30
0.0
 10
24.251910
 20
62.519388
 30
0.0
 10
24.568103
 20
62.780272
 30
0.0
 10
24.931013
 20
62.977254
 30
0.0
 10
25.332051
 20
63.101743
 30
0.0
 10
25.762626
 20
63.145148
 30
0.0
 10
26.193201
 20
63.101743
 30
0.0
 10
26.594239
 20
62.977254
 30
0.0
 10
26.957151
 20
62.780272
 30
0.0
 10
27.273342
 20
62.519388
 30
0.0
 10
27.534225
 20
62.203198
 30
0.0
 10
27.731208
 20
61.840285
 30
0.0
 10
27.855696
 20
61.439248
 30
0.0
 10
27.899102
 20
61.008672
 30
0.0
  0
LWPOLYLINE
  5
101
100
AcDbEntity
  8
Layer_1
 62
1
100
AcDbPolyline
 90
33
 70
1
 10
75.473703
 20
61.008672
 30
0.0
 10
75.430297
 20
60.578100
 30
0.0
 10
75.305809
 20
60.177062
 30
0.0
 10
75.108826
 20
59.814150
 30
0.0
 10
74.847942
 20
59.497959
 30
0.0
 10
74.531752
 20
59.237076
 30
0.0
 10
74.168840
 20
59.040093
 30
0.0
 10
73.767802
 20
58.915605
 30
0.0
 10
73.337229
 20
58.872199
 30
0.0
 10
72.906657
 20
58.915605
 30
0.0
 10
72.505619
 20
59.040093
 30
0.0
 10
72.142707
 20
59.237076
 30
0.0
 10
71.826517
 20
59.497957
 30
0.0
 10
71.565633
 20
59.814150
 30
0.0
 10
71.368650
 20
60.177060
 30
0.0
 10
71.244162
 20
60.578097
 30
0.0
 10
71.200756
 20
61.008672
 30
0.0
 10
71.244162
 20
61.439248
 30
0.0
 10
71.368650
 20
61.840285
 30
0.0
 10
71.565633
 20
62.203195
 30
0.0
 10
71.826514
 20
62.519388
 30
0.0
 10
72.142707
 20
62.780272
 30
0.0
 10
72.505617
 20
62.977254
 30
0.0
 10
72.906654
 20
63.101743
 30
0.0
 10
73.337229
 20
63.145148
 30
0.0
 10
73.767805
 20
63.101743
 30
0.0
 10
74.168842
 20
62.977254
 30
0.0
 10
74.531752
 20
62.780272
 30
0.0
 10
74.847945
 20
62.519388
 30
0.0
 10
75.108826
 20
62.203195
 30
0.0
 10
75.305809
 20
61.840285
 30
0.0
 10
75.430297
 20
61.439248
 30
0.0
 10
75.473703
 20
61.008672
 30
0.0
  0
LWPOLYLINE
  5
102
100
AcDbEntity
  8
Layer_1
 62
1
100
AcDbPolyline
 90
33
 70
1
 10
64.850105
 20
60.761426
 30
0.0
 10
65.061311
 20
60.485675
 30
0.0
 10
65.212173
 20
60.153686
 30
0.0
 10
65.302690
 20
59.784203
 30
0.0
 10
65.332863
 20
59.395973
 30
0.0
 10
65.302690
 20
59.007742
 30
0.0
 10
65.212173
 20
58.638260
 30
0.0
 10
65.061311
 20
58.306270
 30
0.0
 10
64.850105
 20
58.030520
 30
0.0
 10
64.574354
 20
57.819310
 30
0.0
 10
64.242364
 20
57.668448
 30
0.0
 10
63.872882
 20
57.577931
 30
0.0
 10
63.484651
 20
57.547759
 30
0.0
 10
63.096421
 20
57.577931
 30
0.0
 10
62.726938
 20
57.668451
 30
0.0
 10
62.394949
 20
57.819313
 30
0.0
 10
62.119198
 20
58.030520
 30
0.0
 10
61.907989
 20
58.306270
 30
0.0
 10
61.757127
 20
58.638260
 30
0.0
 10
61.666610
 20
59.007742
 30
0.0
 10
61.636437
 20
59.395973
 30
0.0
 10
61.666610
 20
59.784203
 30
0.0
 10
61.757127
 20
60.153686
 30
0.0
 10
61.907992
 20
60.485675
 30
0.0
 10
62.119198
 20
60.761423
 30
0.0
 10
62.394949
 20
60.972630
 30
0.0
 10
62.726938
 20
61.123495
 30
0.0
 10
63.096421
 20
61.214012
 30
0.0
 10
63.484651
 20
61.244187
 30
0.0
 10
63.872882
 20
61.214015
 30
0.0
 10
64.242367
 20
61.123497
 30
0.0
 10
64.574357
 20
60.972635
 30
0.0
 10
64.850105
 20
60.761426
 30
0.0
  0
LWPOLYLINE
  5
103
100
AcDbEntity
  8
Layer_1
 62
1
100
AcDbPolyline
 90
33
 70
1
 10
36.980660
 20
60.761426
 30
0.0
 10
37.191867
 20
60.485675
 30
0.0
 10
37.342729
 20
60.153686
 30
0.0
 10
37.433246
 20
59.784203
 30
0.0
 10
37.463418
 20
59.395973
 30
0.0
 10
37.433246
 20
59.007742
 30
0.0
 10
37.342729
 20
58.638260
 30
0.0
 10
37.191867
 20
58.306270
 30
0.0
 10
36.980660
 20
58.030520
 30
0.0
 10
36.704909
 20
57.819310
 30
0.0
 10
36.372920
 20
57.668448
 30
0.0
 10
36.003438
 20
57.577931
 30
0.0
 10
35.615207
 20
57.547759
 30
0.0
 10
35.226976
 20
57.577931
 30
0.0
 10
34.857494
 20
57.668451
 30
0.0
 10
34.525505
 20
57.819313
 30
0.0
 10
34.249754
 20
58.030520
 30
0.0
 10
34.038544
 20
58.306270
 30
0.0
 10
33.887682
 20
58.638260
 30
0.0
 10
33.797165
 20
59.007742
 30
0.0
 10
33.766993
 20
59.395973
 30
0.0
 10
33.797165
 20
59.784203
 30
0.0
 10
33.887682
 20
60.153686
 30
0.0
 10
34.038547
 20
60.485675
 30
0.0
 10
34.249754
 20
60.761423
 30
0.0
 10
34.525505
 20
60.972630
 30
0.0
 10
34.857494
 20
61.123495
 30
0.0
 10
35.226976
 20
61.214012
 30
0.0
 10
35.615207
 20
61.244187
 30
0.0
 10
36.003438
 20
61.214015
 30
0.0
 10
36.372923
 20
61.123497
 30
0.0
 10
36.704912
 20
60.972635
 30
0.0
 10
36.980660
 20
60.761426
 30
0.0
  0
ENDSEC
  0
SECTION
  2
OBJECTS
  0
DICTIONARY
  5
C
330
0
100
AcDbDictionary
  3
ACAD_GROUP
350
D
  3
ACAD_MLINESTYLE
350
17
  0
DICTIONARY
  5
D
330
C
100
AcDbDictionary
  0
DICTIONARY
  5
1A
330
C
100
AcDbDictionary
  0
DICTIONARY
  5
17
330
C
100
AcDbDictionary
  3
STANDARD
350
18
  0
DICTIONARY
  5
19
330
C
100
AcDbDictionary
  0
ENDSEC
  0
EOF
